G04 CAM350/DFMSTREAM V12.1 (Build 1022) Date:  Fri Oct 24 01:38:17 2025 *
G04 Database: (Untitled) *
G04 Layer 1: BOTTOM.art *
%FSLAX25Y25*%
%MOIN*%
%SFA1.000B1.000*%

%MIA0B0*%
%IPPOS*%
%ADD10C,0.03000*%
%ADD11R,0.17000X0.22000*%
%ADD12C,0.11000*%
%ADD13C,0.06200*%
%ADD14C,0.06300*%
%ADD15R,0.06200X0.06200*%
%ADD16R,0.09450X0.07480*%
%ADD17R,0.05910X0.05910*%
%ADD18R,0.06300X0.06300*%
%ADD19R,0.03540X0.02360*%
%ADD20R,0.09250X0.07870*%
%ADD21C,0.05910*%
%ADD22R,0.02360X0.03540*%
%ADD23R,0.04000X0.05500*%
%ADD24C,0.03300*%
%ADD25O,0.04134X0.08465*%
%ADD26R,0.01570X0.02360*%
%ADD27O,0.04134X0.07283*%
%ADD28C,0.02756*%
%ADD29R,0.02360X0.01570*%
%ADD30C,0.00800*%
%ADD31C,0.01000*%
%ADD32C,0.02000*%
%ADD33C,0.04000*%
%ADD34C,0.01500*%
%LNBOTTOM.art*%
%LPD*%
G36*
X171330Y70050D02*
G75*
G03X170780Y70160I-550J-1321D01*
X170230Y70050I0J-1430*
G01X170159Y71621*
X171730Y71550*
G03X171620Y71000I1321J-550*
X171730Y70450I1431J0*
G02X171330Y70050I-400J0*
G37*
G36*
X244801Y108579D02*
G01X243230Y108650D01*
G03X243340Y109200I-1321J550*
X243230Y109750I-1431J0*
G02X243630Y110150I400J0*
G03X244180Y110040I550J1320*
X244730Y110150I0J1431*
G01X244801Y108579*
G37*
G36*
X187795Y42379D02*
G01X186224Y42450D01*
G03X186334Y43000I-1321J550*
X186224Y43550I-1431J0*
G02X186624Y43950I400J0*
G03X187174Y43840I550J1320*
X187724Y43950I0J1431*
G01X187795Y42379*
G37*
G36*
X192795Y42279D02*
G01X191224Y42350D01*
G03X191334Y42900I-1321J550*
X191224Y43450I-1431J0*
G02X191624Y43850I400J0*
G03X192174Y43740I550J1320*
X192724Y43850I0J1431*
G01X192795Y42279*
G37*
G36*
X197795D02*
G01X196224Y42350D01*
G03X196334Y42900I-1321J550*
X196224Y43450I-1431J0*
G02X196624Y43850I400J0*
G03X197174Y43740I550J1320*
X197724Y43850I0J1431*
G01X197795Y42279*
G37*
G36*
X202795D02*
G01X201224Y42350D01*
G03X201334Y42900I-1321J550*
X201224Y43450I-1431J0*
G02X201624Y43850I400J0*
G03X202174Y43740I550J1320*
X202724Y43850I0J1431*
G01X202795Y42279*
G37*
G36*
X237795D02*
G01X236224Y42350D01*
G03X236334Y42900I-1321J550*
X236224Y43450I-1431J0*
G02X236624Y43850I400J0*
G03X237174Y43740I550J1320*
X237724Y43850I0J1431*
G01X237795Y42279*
G37*
G36*
X233510Y57237D02*
G01X232230Y58022D01*
X233510Y58807*
G03X234254Y58198I1175J677*
G01X234295Y58022*
X234254Y57846*
G03X233510Y57237I431J-1286*
G37*
G36*
X227999Y57922D02*
G01X226990Y58807D01*
G03X227838Y59616I-609J1487*
G02X227999Y59650I161J-366*
X228160Y59616I0J-400*
G03X229008Y58807I1457J678*
G01X227999Y57922*
G37*
G36*
X227814Y120407D02*
G01X226549Y120450D01*
X225449Y121550*
Y121950*
G03X226587Y121723I1137J2732*
X227724Y121950I0J2959*
G01X227814Y120407*
G37*
G36*
X212814D02*
G01X211543Y120450D01*
X210443Y121550*
Y121950*
G03X211584Y121722I1140J2738*
X212724Y121950I0J2966*
G01X212814Y120407*
G37*
G36*
X232814D02*
G01X231543Y120450D01*
X230443Y121550*
Y121950*
G03X231584Y121722I1140J2738*
X232724Y121950I0J2966*
G01X232814Y120407*
G37*
G36*
X217815D02*
G01X216543Y120450D01*
X215443Y121550*
Y121950*
G03X216584Y121722I1140J2738*
X217724Y121950I0J2966*
G01X217815Y120407*
G37*
G36*
X222820D02*
G01X221543Y120450D01*
X220443Y121550*
Y121950*
G03X221587Y121721I1144J2744*
X222730Y121950I-1J2973*
G01X222820Y120407*
G37*
G36*
X193330Y91450D02*
G03X192480Y91620I-850J-2041D01*
X191630Y91450I0J-2211*
G02X191230Y91850I0J400*
G01X191279Y92042*
G03X191879Y93142I-1020J1270*
G01X193414Y93004*
X193330Y91450*
G37*
G36*
X218640Y148240D02*
G03X217385Y148491I-1255J-3012D01*
X216130Y148240I0J-3263*
G01X216038Y149780*
X217530Y149750*
X218640Y148640*
Y148240*
G37*
G36*
X220369Y21559D02*
G03X219662Y22266I-1202J-495D01*
G02X219516Y22619I355J353*
X219662Y22973I501J1*
G03X220369Y23680I-496J1203*
G01X221555Y22619*
X220369Y21559*
G37*
G36*
X180219Y144951D02*
G01X179033Y146012D01*
X180219Y147072*
G03X180926Y146365I1202J495*
G02X181072Y146011I-355J-354*
X180926Y145658I-501J1*
G03X180219Y144951I495J-1202*
G37*
G36*
X216030Y142895D02*
G02X215747Y143012I0J400D01*
G03X214969Y143789I-1322J-546*
G01X216030Y144950*
X217091Y143789*
G03X216313Y143012I544J-1323*
G02X216030Y142895I-283J283*
G37*
G36*
X219930Y140695D02*
G02X219647Y140812I0J400D01*
G03X218869Y141589I-1322J-546*
G01X219930Y142750*
X220991Y141589*
G03X220213Y140812I544J-1323*
G02X219930Y140695I-283J283*
G37*
G36*
X200930Y32195D02*
G02X200647Y32312I0J400D01*
G03X199869Y33089I-1322J-546*
G01X200930Y34250*
X201991Y33089*
G03X201213Y32312I544J-1323*
G02X200930Y32195I-283J283*
G37*
G36*
X189927Y94097D02*
G02X189644Y94214I0J400D01*
G03X188867Y94992I-1323J-544*
G01X189927Y96153*
X190988Y94992*
G03X190210Y94214I545J-1323*
G02X189927Y94097I-283J283*
G37*
G36*
X248869Y145189D02*
G03X248092Y145967I-1323J-544D01*
G02X247975Y146250I284J283*
X248092Y146533I400J0*
G03X248869Y147311I-546J1322*
G01X250030Y146250*
X248869Y145189*
G37*
G36*
X187069Y108689D02*
G03X186292Y109467I-1323J-544D01*
G02X186175Y109750I284J283*
X186292Y110033I400J0*
G03X187069Y110811I-546J1322*
G01X188230Y109750*
X187069Y108689*
G37*
G36*
X221664Y41289D02*
G03X220886Y42067I-1322J-544D01*
G02X220769Y42350I284J283*
X220886Y42633I400J0*
G03X221664Y43411I-545J1323*
G01X222824Y42350*
X221664Y41289*
G37*
G36*
X201669Y37289D02*
G03X200892Y38067I-1323J-544D01*
G02X200775Y38350I284J283*
X200892Y38633I400J0*
G03X201669Y39411I-546J1322*
G01X202830Y38350*
X201669Y37289*
G37*
G36*
X158791Y66789D02*
G01X157630Y67850D01*
X158791Y68911*
G03X159568Y68133I1323J544*
G02X159685Y67850I-284J-283*
X159568Y67567I-401J0*
G03X158791Y66789I545J-1322*
G37*
G36*
X162191Y63789D02*
G01X161030Y64850D01*
X162191Y65911*
G03X162968Y65133I1323J544*
G02X163085Y64850I-284J-283*
X162968Y64567I-401J0*
G03X162191Y63789I545J-1322*
G37*
G36*
X157591Y60889D02*
G01X156430Y61950D01*
X157591Y63011*
G03X158368Y62233I1323J544*
G02X158485Y61950I-284J-283*
X158368Y61667I-401J0*
G03X157591Y60889I545J-1322*
G37*
G36*
X228262Y24389D02*
G01X227102Y25450D01*
X228262Y26511*
G03X229040Y25733I1322J544*
G02X229157Y25450I-284J-283*
X229040Y25167I-401J0*
G03X228262Y24389I544J-1322*
G37*
G36*
X206664Y119851D02*
G03X205247Y121267I-2408J-993D01*
G01X205530Y121550*
X206924*
X207814Y120405*
X206664Y119851*
G37*
G36*
X201664Y119389D02*
G03X199666Y121387I-3396J-1398D01*
G01X199949Y121669*
X201924*
X202816Y120410*
X201664Y119389*
G37*
G36*
X104005Y161054D02*
G01X103005D01*
X101737Y161533*
G03X103151Y162947I-989J2403*
G02X103505Y163093I354J-355*
X103858Y162947I-1J-501*
G03X105272Y161533I2403J989*
G01X104005Y161054*
G37*
G36*
X227724Y51450D02*
G01X226664Y52611D01*
G03X227258Y53067I-543J1323*
G01Y53068*
G03X226819Y53693I-1781J-784*
G01X228014Y54577*
X229179Y53693*
G03X228293Y52948I1084J-2189*
G01Y52947*
G03X228785Y52611I1035J987*
G01X227724Y51450*
G37*
G36*
X232724D02*
G01X231664Y52611D01*
G03X232108Y52900I-545J1322*
G01Y52901*
G03X231150Y53693I-2122J-1591*
G01X232310Y54576*
X233510Y53693*
G03X233169Y53098I1515J-1263*
G01Y53097*
G03X233785Y52611I1160J837*
G01X232724Y51450*
G37*
G36*
X173505Y164292D02*
G03X172227Y164547I-1276J-3067D01*
X170950Y164292I0J-3323*
G02X170550Y164692I0J400*
G03X170806Y165969I-3067J1279*
X170550Y167247I-3322J-1*
G01X173575Y167318*
X173505Y164292*
G37*
G36*
X156060D02*
G03X154783Y164548I-1279J-3066D01*
X153505Y164292I1J-3322*
G01X153434Y167318*
X156460Y167247*
G03X156204Y165969I3067J-1279*
X156460Y164692I3322J2*
G02X156060Y164292I-400J0*
G37*
G36*
X115040Y9929D02*
G01X115110Y13100D01*
G03X116460Y12830I1350J3240*
X117810Y13100I0J3510*
G02X118210Y12700I0J-400*
G03X117940Y11350I3240J-1350*
X118210Y10000I3511J0*
G01X115040Y9929*
G37*
G36*
X175040D02*
G01X175110Y13100D01*
G03X176460Y12830I1350J3240*
X177810Y13100I0J3510*
G02X178210Y12700I0J-400*
G03X177940Y11350I3240J-1350*
X178210Y10000I3511J0*
G01X175040Y9929*
G37*
G36*
X185040D02*
G01X185110Y13100D01*
G03X186460Y12830I1350J3240*
X187810Y13100I0J3510*
G02X188210Y12700I0J-400*
G03X187940Y11350I3240J-1350*
X188210Y10000I3511J0*
G01X185040Y9929*
G37*
G36*
X105040D02*
G01X105110Y13100D01*
G03X106461Y12830I1350J3240*
X107811Y13100J3510*
G02X108211Y12700I0J-400*
G03X107941Y11350I3240J-1350*
X108211Y10000I3511J0*
G01X105040Y9929*
G37*
G36*
X56051Y180150D02*
G03X54701Y180420I-1350J-3241D01*
X53351Y180150I0J-3511*
G02X52951Y180550I0J400*
G03X53221Y181900I-3242J1350*
X52951Y183250I-3511J0*
G01X56122Y183321*
X56051Y180150*
G37*
G36*
X137073Y164492D02*
G01X134305D01*
X133426Y167308*
X135594Y166537*
G03X137356Y164775I2995J1233*
G01X137073Y164492*
G37*
G36*
X61345Y175344D02*
G01X60915D01*
X60827Y175390*
X60799Y175431*
G03X58914Y177167I-4670J-3180*
G01X58866Y177194*
X58812Y177289*
X58817Y177749*
X58874Y177842*
X58922Y177868*
G03X60743Y179352I-2871J5382*
G01X60772Y179386*
X60852Y179424*
X61249*
X61330Y179386*
X61359Y179352*
G03X61984Y178703I4695J3896*
G02X62051Y178554I-133J-149*
G01Y176239*
G02X61997Y176103I-200J1*
G03X61461Y175431I4137J-3849*
G01X61433Y175390*
X61345Y175344*
G37*
G36*
X47897Y178214D02*
G03X45053Y181058I-4835J-1991D01*
G01X46010Y183341*
X48180Y181892*
Y178497*
X47897Y178214*
G37*
G36*
X183505Y163690D02*
G02X182444Y164129I0J1501D01*
G03X181415Y165157I-1749J-722*
G01X183505Y167622*
X185594Y165157*
G03X184565Y164129I720J-1750*
G02X183505Y163690I-1061J1062*
G37*
G36*
X56130Y168150D02*
G02X55847Y168267I0J400D01*
G03X54092Y170023I-2985J-1228*
G01X56130Y172350*
X58168Y170023*
G03X56413Y168267I1231J-2985*
G02X56130Y168150I-283J283*
G37*
G36*
X163505Y163234D02*
G02X163222Y163351I0J400D01*
G03X161415Y165157I-3071J-1266*
G01X163505Y167347*
X165594Y165157*
G03X163788Y163351I1265J-3071*
G02X163505Y163234I-283J283*
G37*
G36*
X115594Y165157D02*
G01X113405Y167247D01*
X115594Y169336*
G03X117401Y167530I3071J1266*
G02X117518Y167247I-284J-283*
X117401Y166964I-401J0*
G03X115594Y165157I1264J-3071*
G37*
G36*
X125594D02*
G01X123405Y167247D01*
X125594Y169336*
G03X127401Y167530I3071J1266*
G02X127518Y167247I-284J-283*
X127401Y166964I-401J0*
G03X125594Y165157I1264J-3071*
G37*
G36*
X145594D02*
G01X143405Y167247D01*
X145594Y169336*
G03X147401Y167530I3071J1266*
G02X147518Y167247I-284J-283*
X147401Y166964I-401J0*
G03X145594Y165157I1264J-3071*
G37*
G36*
X95111Y6030D02*
G02X94403Y6323I-1J1000D01*
G03X92919Y7808I-2525J-1039*
G01X95111Y10250*
X97302Y7808*
G03X95818Y6323I1041J-2524*
G02X95111Y6030I-707J707*
G37*
G36*
X166030Y185600D02*
G02X165730Y185700I0J500D01*
G03X164030Y187600I-3175J-1130*
G01X166030Y190475*
X168030Y187600*
G03X166330Y185700I1475J-3030*
G02X166030Y185600I-300J400*
G37*
G36*
X195111Y6030D02*
G02X194403Y6323I-1J1000D01*
G03X192919Y7808I-2525J-1039*
G01X194939Y10059*
Y10060*
X192965Y12192*
G03X194757Y13984I-1254J3046*
G02X195111Y14130I354J-355*
X195464Y13984I-1J-501*
G03X197256Y12192I3046J1254*
G01X195281Y10060*
Y10059*
X197302Y7808*
G03X195818Y6323I1041J-2524*
G02X195111Y6030I-707J707*
G37*
G36*
X103505Y163275D02*
G02X103151Y163421I-1J501D01*
G03X101415Y165157I-2952J-1216*
G01Y165158*
G03X100386Y166186I-1749J-722*
G02X99947Y167247I1062J1061*
X100386Y168307I1500J-1*
G03X101415Y169336I-721J1750*
X102444Y170365I-720J1749*
G02X103505Y170804I1061J-1062*
X104565Y170365I-1J-1501*
G03X105594Y169336I1749J720*
G01X103847Y167276*
Y167275*
X103880Y167247*
X103738Y167126*
G03Y167125I1J0*
G01X105594Y165157*
G03X103858Y163421I1216J-2952*
G02X103505Y163275I-353J355*
G37*
G36*
X171899Y156903D02*
G01X171537Y157094D01*
G02X171430Y157271I93J177*
G01Y161738*
X171518Y161847*
X171586Y161862*
X171747Y161904*
G03X171797Y161925I-52J193*
G01X171830Y161944*
G02X171928Y161969I97J-175*
X171982Y161962I2J-200*
G03X173505Y161747I1523J5285*
G01X174206Y161792*
X174210*
X174333Y161809*
X174337Y161810*
G03X178166Y164327I-832J5437*
G01X178193Y164370*
X178284Y164420*
X178726*
X178816Y164370*
X178844Y164327*
X178913Y164218*
G02X178925Y164198I-165J-113*
G03X179381Y163606I1785J903*
G02X179397Y163589I-138J-146*
G03X179934Y163063I4108J3657*
G02X180004Y162911I-130J-152*
G01Y158583*
Y158582*
G02X179946Y158441I-200J0*
G01X179113Y157609*
G02X178972Y157550I-142J140*
G01X174030*
G03X172056Y156940I0J-3500*
G01X172010Y156909*
X171899Y156903*
G37*
G36*
X185930Y183950D02*
G01X179630D01*
X178730Y184850*
Y193050*
X179230Y193550*
X186430*
X186930Y193050*
Y184950*
X185930Y183950*
G37*
G36*
X106030Y119350D02*
G01X100030D01*
X97830Y121550*
Y133950*
X98330Y134450*
X107030*
X107430Y134050*
Y120750*
X106030Y119350*
G37*
G36*
X9630Y116461D02*
G02X8216Y117047I0J2000D01*
G03X5741Y119522I-4208J-1733*
G01X9161Y123382*
G03Y123383I-1J1*
G01X9130Y123411*
X9161Y123439*
G03Y123440I-1J1*
G01X5741Y127300*
G03X8216Y129775I-1732J4207*
G02X9630Y130361I1414J-1414*
X11044Y129775I0J-2000*
G03X13519Y127300I4208J1733*
X15994Y124825I4207J1732*
G02X16580Y123411I-1414J-1414*
X15994Y121997I-2000J1*
G03X13519Y119522I1732J-4207*
X11044Y117047I1733J-4208*
G02X9630Y116461I-1414J1414*
G37*
G36*
X154730Y80650D02*
G01X135230D01*
G02X132230Y83650I0J3000*
G01Y99650*
G02X135230Y102650I3000J0*
G01X154730*
G02X157730Y99650I0J-3000*
G01Y83650*
G02X154730Y80650I-3000*
G37*
G36*
X39830Y18450D02*
G01X22330D01*
X18230Y22550*
X13830*
X13330Y23050*
Y39350*
X14730Y40750*
X39730*
X40430Y40050*
Y19050*
X39830Y18450*
G37*
G36*
X109230Y91950D02*
G01X103130D01*
X101530Y93550*
Y102650*
X81830Y122350*
Y126677*
G03X81829Y126678I-1J0*
G01X81734Y126610*
G03X78181Y129506I-5639J-3291*
G02X77994Y130350I1813J844*
X78181Y131194I2000J0*
G03X81734Y134090I-2086J6187*
G01X82279Y133700*
X82280*
X82830Y134250*
X90230*
X91030Y133450*
Y123450*
X110630Y103850*
Y93350*
X109230Y91950*
G37*
G36*
X81030Y19050D02*
G01X65230D01*
X65130Y19150*
Y40150*
X80030Y55050*
Y80250*
X74530Y85750*
Y89750*
X75530Y90750*
X83030*
X85730Y88050*
Y52550*
X82130Y48950*
Y20150*
X81030Y19050*
G37*
G36*
X239032Y45597D02*
G01X238986Y45615D01*
G03X237725Y45850I-1261J-3265*
G01X237703*
X237663*
X237589Y45880*
X236077Y47392*
G03X235936Y47450I-141J-141*
G01X221407*
G02X221266Y47509I1J200*
G01X207889Y60886*
G02X207830Y61027I140J142*
G01Y101561*
G03X207772Y101703I-200J1*
G01X202083Y107392*
G03X201942Y107450I-141J-141*
G01X201941*
X191536*
G02X191364Y107549I1J200*
G01X191162Y107892*
X191161Y107998*
X191187Y108045*
G03X190778Y112039I-3057J1705*
X188130Y113250I-2648J-2289*
X186788Y112983I-1J-3500*
G01X186732Y112959*
X186613Y112983*
X180668Y118928*
G02X180625Y119146I141J141*
G01X180648Y119202*
X180749Y119269*
X199270*
X199271*
G02X199407Y119216I0J-200*
G01X199446Y119178*
G02X199490Y119113I-141J-143*
G03X202725Y116950I3235J1337*
X205034Y117820I-1J3500*
G02X205166Y117870I132J-150*
G01X205283*
G02X205415Y117820I0J-200*
G03X207725Y116950I2310J2630*
X210034Y117820I-1J3500*
G02X210166Y117870I132J-150*
G01X210283*
G02X210415Y117820I0J-200*
G03X212725Y116950I2310J2630*
X215034Y117820I-1J3500*
G02X215166Y117870I132J-150*
G01X215283*
G02X215415Y117820I0J-200*
G03X217724Y116950I2309J2630*
X220036Y117822I0J3500*
G02X220168Y117872I132J-150*
G01X220169*
X220286*
G02X220418Y117822I0J-200*
G03X222730Y116950I2312J2628*
X225037Y117818I0J3500*
G02X225168Y117867I131J-151*
G01X225169*
X225286*
X225287*
G02X225418Y117818I0J-200*
G03X227725Y116950I2307J2632*
X230034Y117820I0J3500*
G02X230166Y117870I132J-150*
G01X230283*
G02X230415Y117820I0J-200*
G03X232725Y116950I2309J2630*
X235601Y118456I0J3500*
G01X235638Y118510*
X235762Y118553*
X236190Y118419*
G02X236330Y118228I-60J-191*
G01Y63350*
G02X236130Y63150I-200J0*
G01X228588*
X228587*
G03X228446Y63092I0J-200*
G01X225658Y60303*
G03X225599Y60161I140J-142*
G01Y60032*
X225573Y59964*
X225549Y59936*
G03X225119Y58807I1270J-1130*
G01Y57237*
G03X225366Y56354I1700J-1*
G02Y56146I-171J-104*
G03X225119Y55264I1453J-883*
G01Y53963*
X225071Y53832*
G03X225220Y49105I2654J-2282*
X227725Y48050I2504J2445*
X230034Y48920I0J3500*
G02X230166Y48970I132J-150*
G01X230283*
G02X230415Y48920I0J-200*
G03X232725Y48050I2310J2630*
X235144Y49020I0J3500*
X235265Y53958I-2419J2530*
G02X235210Y54095I145J138*
G01Y55264*
X235204Y55405*
Y55413*
Y55422*
G02X235404Y55622I200J0*
G01X239330*
G02X239530Y55422I0J-200*
G01Y45988*
G02X239443Y45823I-200J0*
G01X239130Y45609*
X239032Y45597*
G37*
G36*
X183974Y148512D02*
G01X183973D01*
X181688*
G02X181551Y148566I0J200*
G03X181048Y148957I-2391J-2557*
G01X181010Y148982*
X180962Y149059*
X180924Y149414*
G02X180982Y149577I199J21*
G01X186946Y155542*
G03X187005Y155683I-140J142*
G01Y162911*
G02X187075Y163063I200J0*
G03X187612Y163589I-3572J4183*
G02X187629Y163606I149J-132*
G03X188084Y164198I-1331J1494*
G02X188096Y164218I178J-93*
G03X186533Y171838I-4591J3029*
X183505Y172746I-3027J-4592*
X178844Y170167I-1J-5500*
G01X178816Y170123*
X178726Y170073*
X178284*
X178193Y170123*
X178166Y170167*
G03X173505Y172747I-4661J-2920*
X168844Y170167I0J-5500*
G01X168816Y170123*
X168726Y170073*
X168284*
X168193Y170123*
X168166Y170167*
G03X163505Y172747I-4661J-2920*
X158844Y170167I0J-5500*
G01X158816Y170123*
X158726Y170073*
X158284*
X158193Y170123*
X158166Y170167*
G03X153505Y172747I-4661J-2920*
X148688Y169902I0J-5500*
G02X148513Y169799I-175J97*
X148464Y169805I0J200*
G01X148439Y169812*
G02X148319Y169907I54J192*
G03X146864Y171602I-4814J-2660*
G01X146861Y171604*
X146765Y171676*
X146762Y171679*
G03X143505Y172747I-3257J-4432*
X138844Y170167I0J-5500*
G01X138816Y170123*
X138726Y170073*
X138284*
X138193Y170123*
X138166Y170167*
G03X133505Y172747I-4661J-2920*
X128688Y169902I0J-5500*
G02X128513Y169799I-175J97*
X128464Y169805I0J200*
G01X128439Y169812*
G02X128319Y169907I54J192*
G03X126864Y171602I-4814J-2660*
G01X126861Y171604*
X126765Y171676*
X126762Y171679*
G03X123505Y172747I-3257J-4433*
X118688Y169902I0J-5500*
G02X118513Y169799I-175J97*
X118464Y169805I0J200*
G01X118439Y169812*
G02X118319Y169907I54J192*
G03X116864Y171602I-4814J-2660*
G01X116861Y171604*
X116765Y171676*
X116762Y171679*
G03X113505Y172747I-3257J-4432*
X108844Y170167I0J-5500*
G01X108816Y170123*
X108726Y170073*
X108284*
X108193Y170123*
X108166Y170167*
G03X103505Y172747I-4661J-2920*
X99460Y170974I0J-5500*
G01X99425Y170936*
X99326Y170903*
X98891Y170986*
X98811Y171053*
X98792Y171101*
G03X96460Y172702I-2333J-899*
G01X94279*
Y172701*
G03X96460Y170202I4728J1925*
X99260Y167909I4424J2546*
G02X99414Y167247I-1347J-662*
X99260Y166584I-1501J-1*
G03X96460Y164292I1623J-4839*
G01X95698Y164968*
X95697*
G03Y164967I1J0*
G01X96312Y164292*
G03X93804Y161792I1777J-4291*
G02X93505Y161692I-300J400*
X93205Y161792I0J500*
G03X90698Y164292I-4285J-1790*
G01X91313Y164967*
Y164968*
X91312*
X90550Y164292*
G03X88051Y166472I-4423J-2548*
X88050Y166471I0J-1*
G01Y164292*
G03X88864Y162446I2500J0*
G01X88910Y162404*
X88938Y162283*
X88781Y161878*
G02X88595Y161750I-186J71*
G01X88594*
X78790*
G02X78648Y161809J200*
G01X75066Y165392*
G03X74925Y165450I-141J-141*
G01X74924*
X62990*
G02X62849Y165509I1J200*
G01X60678Y167679*
G02X60619Y167819I140J142*
G01X60616Y168139*
X60646Y168212*
X60673Y168240*
G03X61030Y168711I-1800J1735*
G01X61055Y168754*
X61140Y168806*
X61568Y168835*
X61659Y168795*
X61690Y168756*
G03X66130Y166600I4440J3494*
X70060Y168190I1J5650*
G01X70095Y168224*
X70189Y168252*
X70606Y168173*
X70682Y168113*
X70703Y168068*
G03X72980Y166600I2277J1032*
G01X75247*
G03X75248Y166601I0J1*
X72980Y169100I-4920J-2186*
G01X75745Y172195*
G03Y172196I-1J1*
G01X72980Y175400*
G03X75157Y177754I-2999J4957*
G01Y177755*
G03X72951Y180150I-5219J-2594*
G01X76042Y183750*
X76126Y183653*
X76127Y183652*
Y183653*
X79151Y186350*
G03X82084Y183938I4617J2625*
G02X82149Y183793I-1335J-686*
G01X82150Y183792*
G03X82151Y183793I0J1*
G01Y186350*
G03X81276Y188468I-3000J0*
G01X81234Y188510*
X81210Y188629*
X81375Y189026*
G02X81560Y189150I185J-76*
G01X161490*
G02X161632Y189091I0J-200*
G01X162271Y188452*
G02X162330Y188310I-140J-142*
G01Y187600*
G03X163286Y186071I1700J0*
G02X163435Y185989I-729J-1502*
X163530Y185819I-105J-170*
G01Y179597*
G03X163588Y179456I200J0*
G01X165936Y177108*
G03X166077Y177050I141J141*
G01X189212*
G02X189353Y176991I-1J-200*
G01X189771Y176573*
G02X189830Y176432I-140J-142*
G01Y154368*
G02X189771Y154227I-200J1*
G01X184115Y148570*
G02X183974Y148512I-141J141*
G37*
G36*
X100309Y13826D02*
G01X99912D01*
X99831Y13864*
X99803Y13898*
G03X95111Y16100I-4692J-3898*
X91257Y14729I-1J-6100*
G01X91224Y14702*
X91144Y14680*
X90770Y14732*
X90699Y14776*
X90675Y14811*
G03X88210Y16100I-2465J-1712*
G01X83513*
G02X83328Y16224I0J200*
G01X83305Y16280*
X83329Y16399*
X85572Y18642*
G03X85630Y18783I-141J141*
G01Y47417*
G02X85689Y47559I200*
G01X89172Y51042*
G03X89230Y51183I-141J141*
G01Y52517*
G02X89354Y52702I200J0*
G01X89410Y52725*
X89529Y52701*
X96222Y46008*
G03X96363Y45950I141J141*
G01X109761*
G02X109961Y45750I0J-200*
G01Y45746*
Y45742*
X109960Y45680*
Y43320*
G03X111660Y41620I1700*
G01X113059*
G03Y41622J1*
G01X113031Y41633*
G03X111660Y43320I-2965J-1009*
X110492Y44349I-2197J-1316*
G02X110481Y44500I989J148*
X110492Y44651I1000J3*
G03X111660Y45680I-1028J2345*
G01X113355Y44690*
X113356*
X113430Y44750*
X113504Y44690*
X113505*
X115200Y45680*
G03X116369Y44651I2196J1316*
G02X116380Y44500I-991J-148*
X116369Y44349I-1002J-3*
G03X115200Y43320I1027J-2346*
X113829Y41633I1594J-2696*
G01X113801Y41622*
G03X113802Y41620I1J-1*
G01X115200*
G03X116248Y41982I-1J1700*
G01X116372Y42024*
X116488*
X116612Y41982*
G03X117660Y41620I1049J1338*
G01X119059*
G03Y41622J1*
G01X119031Y41633*
G03X117660Y43320I-2965J-1009*
X116491Y44349I-2196J-1317*
G02X116480Y44500I989J148*
X116491Y44651I1000J3*
G03X117660Y45680I-1027J2345*
G01X119355Y44690*
X119356*
X119430Y44750*
X119504Y44690*
X119505*
X121200Y45680*
G03X122368Y44651I2196J1315*
G02X122379Y44500I-991J-148*
X122368Y44349I-1002J-3*
G03X121200Y43320I1029J-2345*
X119829Y41633I1594J-2696*
G01X119801Y41622*
G03X119802Y41620I1J-1*
G01X121200*
G03X122900Y43320I0J1700*
G01Y45680*
X122899Y45742*
Y45746*
Y45750*
G02X123099Y45950I200J0*
G01X164897*
G03X165038Y46008I0J200*
G01X168872Y49842*
G03X168930Y49983I-141J141*
G01Y59517*
G03X168872Y59658I-200J0*
G01X168835Y59695*
G02X168776Y59837I140J142*
X168835Y59978I199J-1*
G01X170648Y61791*
G02X170790Y61850I142J-140*
G01X183324*
G02X183524Y61650I0J-200*
G01Y43056*
G03X183583Y42914I200J0*
G01X184201Y42296*
X184231Y42231*
X184234Y42195*
G03X187724Y38950I3491J255*
X189981Y39775I0J3500*
G01X190110Y39822*
X190114*
X190231Y39819*
G02X190362Y39767I-4J-200*
G03X192724Y38850I2362J2583*
X195034Y39720I1J3500*
G02X195166Y39770I132J-150*
G01X195283*
G02X195415Y39720I0J-200*
G03X195928Y39346I2310J2629*
G01X195968Y39322*
X196018Y39245*
X196062Y38886*
G02X196064Y38860I-198J-28*
X196006Y38720I-200J1*
G01X195888Y38603*
G03X195830Y38462I141J-141*
G01Y38461*
Y30985*
G02X195771Y30844I-200J1*
G01X185236Y20309*
G02X185095Y20250I-142J140*
G01X119786*
G03X119645Y20192I0J-200*
G01X116412Y16959*
G02X116271Y16900I-142J140*
G01X108699*
G03X108558Y16842I0J-200*
G01X107429Y15713*
X107314Y15688*
X107259Y15709*
G03X105110Y16100I-2149J-5709*
X100418Y13898I0J-6100*
G01X100390Y13864*
X100309Y13826*
G37*
G36*
X163530Y49450D02*
G01X97730D01*
X90930Y56250*
Y93650*
X88530Y96050*
X71430*
X68630Y93250*
Y81350*
X73630Y76350*
Y55950*
X72330Y54650*
X60030*
X58230Y56450*
Y106050*
X43930Y120350*
Y146850*
X45330Y148250*
X57030*
X60430Y144850*
Y122950*
X73130Y110250*
X86330*
X97630Y98950*
Y77150*
X111630Y63150*
X128330*
X136430Y55050*
X153330*
X156830Y58550*
X165030*
X165430Y58150*
Y51350*
X163530Y49450*
G37*
G36*
X274391Y1000D02*
G01X196386D01*
G02X196202Y1124I1J200*
G01X196178Y1180*
X196202Y1299*
X198052Y3149*
G03X198111Y3290I-140J142*
G01Y4573*
G02X198209Y4745I200J0*
G03X199803Y6102I-3099J5255*
G01X199831Y6136*
X199912Y6174*
X200309*
X200390Y6136*
X200418Y6102*
G03X205110Y3900I4692J3898*
X209402Y5666I-1J6100*
X209054Y14654I-4292J4335*
X205110Y16100I-3943J-4654*
X200418Y13898I0J-6100*
G01X200390Y13864*
X200309Y13826*
X199912*
X199831Y13864*
X199803Y13898*
X199514Y14221*
G02X199517Y14501I144J138*
G01X205076Y20060*
G02X205218Y20119I142J-140*
G01X218900*
G02X219037Y20065I0J-200*
G03X221430Y19119I2393J2554*
X224893Y22110I0J3500*
G01X224900Y22158*
X224958Y22238*
X225343Y22427*
X225442Y22424*
X225485Y22400*
G03X227202Y21950I1717J3050*
X229692Y22990I0J3500*
G02X229834Y23050I143J-139*
G01X242041*
X242042*
G03X242183Y23108I0J200*
G01X244272Y25197*
G03X244330Y25339I-141J141*
G01Y104750*
G02X244389Y104891I200J-1*
G01X244617Y105119*
X244690Y105150*
X244730*
G03X248177Y108042I0J3500*
X246055Y111890I-3447J608*
G02X245930Y112075I75J186*
G01Y142024*
G03X245872Y142166I-200J1*
G01X245497Y142540*
G02Y142823I141J142*
G01X246466Y143791*
G02X246607Y143850I142J-140*
G01X247338*
X247411Y143819*
X247440Y143790*
G03X249930Y142750I2490J2460*
X252390Y143760I0J3500*
X252420Y148710I-2460J2490*
X249930Y149750I-2490J-2460*
X247440Y148710I0J-3500*
G02X247297Y148650I-143J139*
G01X244619*
X244618*
G03X244477Y148592I0J-200*
G01X240288Y144403*
G03X240230Y144261I141J-141*
G01Y143850*
G02X240030Y143650I-200*
G01X225730*
G02X225530Y143850J200*
G01Y145061*
G03X225472Y145203I-200J1*
G01X219129Y151546*
X219116Y151566*
G03X216130Y153240I-2986J-1826*
X214051Y152555I1J-3500*
X213457Y147481I2080J-2815*
G02X213451Y147217I-153J-129*
G03X213570Y142360I2579J-2367*
G02X213630Y142217I-139J-143*
G01Y140539*
G03X213688Y140397I200J-1*
G01X218377Y135708*
G03X218518Y135650I141J141*
G01X218519*
X236130*
G02X236330Y135450I0J-200*
G01Y122672*
G02X236190Y122481I-200J0*
G01X235762Y122347*
X235638Y122390*
X235601Y122444*
G03X232724Y123950I-2877J-1995*
X231730Y123806I0J-3500*
G01X231677Y123790*
X231570Y123817*
X229896Y125492*
G03X229755Y125550I-141J-141*
G01X229754*
X227188*
G02X227047Y125609I1J200*
G01X225564Y127092*
G03X225423Y127150I-141J-141*
G01X222846*
G02X222704Y127209I0J200*
G01X221221Y128692*
G03X221080Y128750I-141J-141*
G01X218508*
G02X218367Y128809I1J200*
G01X216884Y130292*
G03X216743Y130350I-141J-141*
G01X214171*
G02X214030Y130409I1J200*
G01X212547Y131892*
G03X212406Y131950I-141J-141*
G01X209921*
G02X209780Y132009I1J200*
G01X208177Y133611*
G03X208036Y133670I-142J-140*
G01X180464*
G02X180323Y133728J200*
G01X171489Y142562*
G02X171430Y142704I140J142*
G01Y144329*
G02X171537Y144506I200J0*
G01X171899Y144697*
X172010Y144691*
X172056Y144660*
G03X174030Y144050I1974J2890*
X175600Y144422I0J3500*
G01X175634Y144439*
X175710Y144445*
X176046Y144344*
X176106Y144297*
X176126Y144264*
G03X179159Y142512I3033J1749*
X181551Y143457I0J3501*
G02X181688Y143511I137J-146*
G01X186044*
G03X186186Y143570I0J200*
G01X194772Y152156*
G03X194830Y152297I-141J141*
G01Y178503*
G03X194772Y178644I-200J0*
G01X191424Y181992*
G03X191283Y182050I-141J-141*
G01X189463*
G02X189278Y182174J200*
G01X189255Y182230*
X189279Y182349*
X190372Y183442*
G03X190430Y183583I-141J141*
G01Y194417*
G03X190372Y194558I-200J0*
G01X189422Y195509*
G02X189378Y195726I141J141*
G01X189401Y195783*
X189502Y195850*
X274391*
G02X274591Y195650I0J-200*
G01Y133445*
G02X274391Y133245I-200*
G01X253137*
G03X252937Y133045I0J-200*
G01Y31336*
G03X253137Y31136I200*
G01X274391*
G02X274591Y30936I0J-200*
G01Y1200*
G02X274391Y1000I-200*
G37*
G36*
X93895D02*
G01X1200D01*
G02X1000Y1200J200*
G01Y120022*
G02X1161Y120219I200J1*
G01X1617Y120309*
X1743Y120241*
X1770Y120175*
G03X9630Y114911I7860J3236*
X11452Y115108I3J8500*
X18123Y123764I-1822J8303*
X10758Y131836I-8493J-353*
X9630Y131911I-1127J-8425*
X1770Y126647I0J-8500*
G01X1743Y126581*
X1617Y126513*
X1161Y126603*
G02X1000Y126800I39J196*
G01Y139811*
G02X1124Y139996I200*
G01X1521Y140161*
X1640Y140137*
X1683Y140094*
G03X9630Y136805I7947J7956*
X17158Y139697I-1J11245*
X18367Y155130I-7528J8354*
X9630Y159295I-8736J-7080*
X3018Y157146I0J-11245*
X1683Y156006I6613J-9095*
G01X1640Y155963*
X1521Y155939*
X1124Y156104*
G02X1000Y156289I76J185*
G01Y195650*
G02X1200Y195850I200J0*
G01X66611*
G02X66796Y195726I0J-200*
G01X66819Y195670*
X66795Y195551*
X62109Y190866*
G03X62051Y190724I141J-141*
G01Y187946*
G02X61984Y187797I-200J0*
G03X61359Y187148I4069J-4544*
G01X61330Y187114*
X61249Y187076*
X60852*
X60772Y187114*
X60743Y187148*
G03X56051Y189350I-4692J-3898*
X51359Y187148I0J-6100*
G01X51330Y187114*
X51249Y187076*
X50852*
X50772Y187114*
X50743Y187148*
G03X46051Y189350I-4692J-3898*
X43500Y188791I0J-6100*
X40039Y182220I2551J-5541*
X45509Y177174I6012J1030*
G02X45672Y177062I-17J-199*
G01X45752Y176912*
G02X45780Y176810I-172J-102*
G01Y168045*
G03X45838Y167904I200J0*
G01X58434Y155308*
G03X58575Y155250I141J141*
G01X70699*
G02X70840Y155191I-1J-200*
G01X74423Y151608*
G03X74564Y151550I141J141*
G01X124857*
G02X124999Y151491I0J-200*
G01X126340Y150150*
G03X126481Y150092I141J141*
G01X134053*
G02X134194Y150033I-1J-200*
G01X135677Y148550*
G03X135818Y148492I141J141*
G01X143390*
G02X143531Y148433I-1J-200*
G01X145014Y146950*
G03X145155Y146892I141J141*
G01X148030*
G02X148230Y146692I0J-200*
G01Y133093*
G03X148288Y132952I200J0*
G01X170713Y110528*
G03X170854Y110469I142J140*
G01X174618*
G02X174760Y110410I0J-200*
G01X184062Y101108*
G03X184203Y101050I141J141*
G01X199290*
G02X199432Y100991I0J-200*
G01X201371Y99052*
G02X201430Y98910I-140J-142*
G01Y58376*
G03X201488Y58234I200J-1*
G01X219714Y40008*
G03X219855Y39950I141J141*
G01X219856*
X220132*
X220206Y39919*
X220234Y39890*
G03X222724Y38850I2490J2460*
X226223Y42260I0J3500*
G01X226224Y42299*
X226256Y42371*
X226484Y42593*
G02X226623Y42650I140J-143*
G01X233947*
G02X234089Y42591I0J-200*
G01X234194Y42486*
X234224Y42412*
Y42372*
G03X237724Y38850I3500J-22*
X238986Y39085I1J3500*
G01X239032Y39103*
X239130Y39091*
X239443Y38877*
G02X239530Y38712I-113J-165*
G01Y28050*
G02X239330Y27850I-200*
G01X229834*
G02X229692Y27910I1J200*
G03X227202Y28950I-2490J-2460*
X223739Y25960I0J-3500*
G01X223732Y25911*
X223674Y25831*
X223289Y25642*
X223190Y25645*
X223147Y25669*
G03X221429Y26119I-1717J-3050*
X219037Y25174I0J-3500*
G02X218900Y25119I-138J145*
G01X204139*
G02X203955Y25243I1J200*
G01X203931Y25299*
X203955Y25418*
X209872Y31335*
G03X209930Y31476I-141J141*
G01Y44724*
G03X209872Y44866I-200J1*
G01X196783Y57954*
G02X196725Y58095I141J141*
G01Y69950*
G03X196666Y70091I-200J-1*
G01X193986Y72771*
G02X193927Y72913I140J142*
G01Y89407*
X194016Y89517*
X194084Y89532*
G03X196827Y93099I-754J3418*
X193567Y96442I-3497J-149*
G02X193383Y96610I14J200*
G03X189927Y99554I-3456J-557*
X188222Y99110I1J-3501*
X187468Y93562I1706J-3057*
G02X187527Y93420I-140J-142*
G01Y72050*
G02X187327Y71850I-200J0*
G01X173821*
X173708Y71949*
X173698Y72023*
G03X170230Y75050I-3468J-473*
X169457Y74964I-2J-3500*
X166824Y70742I773J-3414*
G01X166835Y70698*
X166815Y70608*
X166592Y70326*
G02X166435Y70250I-157J124*
G01X160363*
G02X160220Y70310I0J200*
G03X157730Y71350I-2490J-2460*
X155496Y70545I-1J-3500*
X155011Y65646I2234J-2695*
G01X155039Y65611*
X155060Y65524*
X154981Y65134*
X154927Y65062*
X154888Y65041*
G03X153438Y60309I1642J-3091*
G01X153470Y60250*
X153450Y60120*
X151939Y58609*
G02X151797Y58550I-142J140*
G01X147272*
G02X147112Y58630J200*
G01X146892Y58925*
X146875Y59018*
X146888Y59063*
G03X147030Y60050I-3358J987*
G01Y64270*
G02X147139Y64448I200J0*
G01X147505Y64637*
X147617Y64629*
X147662Y64596*
G03X148649Y64280I987J1384*
G01X148650*
X151010*
G03X152710Y65980J1700*
G01Y67379*
X152709*
X152708*
X152697Y67351*
G03X151010Y65980I1010J-2966*
X149981Y64812I1316J-2196*
G01X149679*
G03X148650Y65980I-2345J-1028*
G01X149640Y67675*
Y67676*
X149580Y67750*
X149640Y67824*
Y67825*
X148650Y69520*
G03X149679Y70688I-1315J2196*
G01X149981*
G03X151010Y69520I2345J1029*
X152697Y68149I2696J1594*
G01X152708Y68121*
X152709*
X152710*
Y69520*
G03X152348Y70568I-1700J-1*
G01X152306Y70692*
Y70808*
X152348Y70932*
G03X152710Y71980I-1339J1049*
G01Y73379*
X152709*
X152708*
X152697Y73351*
G03X151010Y71980I1010J-2966*
X149981Y70812I1316J-2196*
G01X149679*
G03X148650Y71980I-2345J-1028*
G01X149640Y73675*
Y73676*
X149580Y73750*
X151010Y75520*
G03X152697Y74149I2696J1594*
G01X152708Y74121*
X152709*
X152710*
Y75520*
G03X152388Y76516I-1700J0*
G01X152355Y76561*
X152347Y76674*
X152534Y77041*
G02X152712Y77150I178J-91*
G01X154730*
G03X161230Y83650J6500*
G01Y99650*
G03X154730Y106150I-6500J0*
G01X135230*
G03X128730Y99650I0J-6500*
G01Y83650*
G03X135230Y77150I6500J0*
G01X139830*
G02X140030Y76950I0J-200*
G01Y60050*
G03X140172Y59063I3500J0*
G01X140185Y59018*
X140168Y58925*
X139948Y58630*
G02X139788Y58550I-160J120*
G01X137963*
G02X137821Y58609I0J200*
G01X129838Y66592*
G03X129697Y66650I-141J-141*
G01X113163*
G02X113021Y66709J200*
G01X101189Y78541*
G02X101130Y78683I140J142*
G01Y88517*
G02X101254Y88702I200J0*
G01X101310Y88725*
X101429Y88701*
X101622Y88508*
G03X101763Y88450I141J141*
G01X110597*
G03X110738Y88508I0J200*
G01X114072Y91842*
G03X114130Y91983I-141J141*
G01Y105217*
G03X114072Y105358I-200J0*
G01X107389Y112042*
G02X107330Y112183I140J142*
G01Y115733*
X107447Y115850*
X107480*
X110872Y119242*
G03X110930Y119383I-141J141*
G01Y135417*
G03X110872Y135558I-200J0*
G01X108538Y137892*
G03X108397Y137950I-141J-141*
G01X96963*
G03X96822Y137892I0J-200*
G01X94321Y135392*
G02X94180Y135334I-141J141*
X94039Y135392I0J199*
G01X91738Y137692*
G03X91597Y137750I-141J-141*
G01X81463*
G03X81322Y137692I0J-200*
G01X78388Y134758*
G03X78330Y134617I141J-141*
G01Y134550*
G02X78130Y134350I-200*
G01X75270*
G02X75128Y134409J200*
G01X68959Y140579*
G03X66131Y141750I-2828J-2830*
X64494Y141400I-1J-4001*
G01X64447Y141379*
X64346Y141387*
X64022Y141597*
G02X63930Y141765I108J168*
G01Y146217*
G03X63872Y146358I-200J0*
G01X58538Y151692*
G03X58397Y151750I-141J-141*
G01X43963*
G03X43822Y151692I0J-200*
G01X40488Y148358*
G03X40430Y148217I141J-141*
G01Y118983*
G03X40488Y118842I200J0*
G01X54671Y104659*
G02X54730Y104517I-140J-142*
G01Y55000*
Y50250*
G02X54530Y50050I-200J0*
G01X35613*
X35612*
G03X35471Y49992I0J-200*
G01X32088Y46609*
G03X32030Y46467I141J-141*
G01Y44450*
G02X31830Y44250I-200J0*
G01X13363*
G03X13222Y44192I0J-200*
G01X9888Y40858*
G03X9830Y40717I141J-141*
G01Y21683*
G03X9888Y21542I200J0*
G01X10820Y20610*
G02X10876Y20436I-141J-141*
G01X10816Y20067*
X10758Y19990*
X10715Y19968*
G03X7154Y11836I3065J-6188*
X13780Y6875I6626J1945*
G01X14162Y6885*
X14544Y6917*
G03X20671Y13340I-764J6863*
X20647Y14508I-6891J443*
G01X20643Y14550*
X20669Y14631*
X20896Y14884*
G02X21045Y14950I149J-134*
G01X31830*
G02X32030Y14750I0J-200*
G01Y12633*
G03X32088Y12491I200J-1*
G01X35471Y9108*
G03X35612Y9050I141J141*
G01X35613*
X68947*
X68948*
G03X69089Y9108I0J200*
G01X72472Y12491*
G03X72530Y12633I-141J141*
G01Y15350*
G02X72730Y15550I200J0*
G01X79298*
G02X79477Y15439I0J-200*
G01X79662Y15067*
X79651Y14954*
X79617Y14909*
G03X79010Y13100I2394J-1810*
G01Y6900*
G03X82010Y3900I3000*
G01X82011*
X88210*
X88211*
G03X90675Y5189I0J3000*
G01X90699Y5224*
X90770Y5268*
X91144Y5320*
X91224Y5298*
X91257Y5271*
G03X92012Y4745I3855J4728*
G02X92110Y4573I-102J-172*
G01Y3290*
G03X92169Y3149I200J1*
G01X93976Y1342*
G02X94019Y1124I-141J-141*
G01X93996Y1068*
X93895Y1000*
G37*
%LPC*%
G36*
X88051Y168021D02*
G03X90550Y170202I-1925J4728D01*
X92730Y172701I-2548J4423*
G01Y172702*
X90550*
G03X88050Y170202I0J-2500*
G01Y168022*
G03X88051Y168021I1J0*
G37*
G36*
X81780Y173133D02*
G01Y175400D01*
G03X81005Y177210I-2500J0*
G01X80974Y177240*
X80941Y177320*
X80958Y177707*
X80996Y177784*
X81030Y177811*
G03X82151Y180150I-1879J2339*
G01Y182707*
G03X82150Y182708I-1J0*
G01X82149Y182707*
G02X82084Y182562I-1400J541*
G03X79151Y180150I1685J-5038*
X77104Y177753I3142J-4756*
G01Y177752*
G03X79280Y175400I5176J2606*
X81779Y173132I4685J2652*
G01X81780Y173133*
G37*
G36*
Y169100D02*
G01Y171367D01*
X81779Y171368*
G03X79280Y169100I2187J-4920*
X77012Y166601I2652J-4686*
X77013Y166600I1J0*
G01X79280*
G03X81780Y169100I0J2500*
G37*
G36*
X97405Y26004D02*
G03X95705Y27980I-5896J-3353D01*
G01Y26004*
G03X97405Y24304I1700J0*
G01X99872*
G03X97405Y26004I-5383J-5171*
G37*
G36*
X108355Y33874D02*
G03X106655Y35574I-1700J0D01*
G01X104188*
G03X106655Y33874I5383J5171*
X108355Y31533I6011J2577*
G01Y33874*
G37*
G36*
X97405D02*
G03X99872Y35574I-2915J6871D01*
G01X97405*
G03X95705Y33874I0J-1700*
G01Y31898*
G03X97405Y33874I-4196J5329*
G37*
G36*
X108355Y26004D02*
G01Y28345D01*
G03X106655Y26004I4312J-4919*
X104188Y24304I2915J-6871*
G01X106655*
G03X108355Y26004I0J1700*
G37*
G36*
X228537Y10039D02*
G03X224391Y14368I-4146J179D01*
X220245Y10397I0J-4150*
X224391Y6068I4146J-179*
X228537Y10039I0J4150*
G37*
G36*
X268710Y14083D02*
G03X261811Y20686I-6899J-303D01*
X254912Y13477I0J-6906*
X261811Y6874I6899J303*
X268710Y14083I0J6906*
G37*
G36*
X269612Y146832D02*
G03X265466Y151161I-4146J179D01*
X261320Y147190I0J-4150*
X265466Y142861I4146J-179*
X269612Y146832I0J4150*
G37*
G36*
Y155887D02*
G03X265466Y160216I-4146J179D01*
X261320Y156245I0J-4150*
X265466Y151916I4146J-179*
X269612Y155887I0J4150*
G37*
G36*
X202464Y155853D02*
G02X202635Y155950I171J-103D01*
G01X202636*
X215411*
X215542Y155901*
G03X217830Y155050I2288J2649*
X221229Y157714I0J3500*
G01X221239Y157754*
X221288Y157820*
X221612Y158004*
X221694Y158013*
X221734Y158001*
G03X222751Y157850I1017J3350*
X226250Y161458I0J3501*
G01X226249Y161498*
X226278Y161574*
X226506Y161809*
G02X226650Y161870I144J-139*
G01X227087*
G03X228787Y163570J1700*
G01Y165930*
G03X227087Y167630I-1700J0*
G01X225517*
G03X224634Y167383I0J-1700*
G02X224530Y167354I-104J171*
X224426Y167383I0J200*
G03X223544Y167630I-883J-1453*
G01X221973*
G03X220273Y165930I0J-1700*
G01Y163903*
G02X220218Y163765I-200J0*
G03X219352Y162186I2533J-2416*
G01X219343Y162146*
X219293Y162080*
X218969Y161896*
X218887Y161887*
X218848Y161899*
G03X217830Y162050I-1017J-3349*
X215166Y160820I0J-3500*
G01X215138Y160787*
X215058Y160750*
X214840*
G02X214699Y160809I1J199*
G01X214471Y161037*
X214440Y161110*
Y161150*
G03X213538Y163496I-3500J1*
G02X213487Y163630I149J133*
G01Y165930*
G03X211787Y167630I-1700J0*
G01X210216*
G03X209334Y167383I1J-1700*
G02X209230Y167354I-104J171*
X209126Y167383I0J200*
G03X208244Y167630I-882J-1453*
G01X208243*
X206673*
G03X204973Y165930I0J-1700*
G01Y163570*
G03X206673Y161870I1700*
G01X207053*
G02X207200Y161805I-1J-200*
G01X207428Y161558*
X207455Y161479*
X207452Y161437*
X207440Y161150*
Y161110*
X207410Y161037*
X207181Y160809*
G02X207040Y160750I-142J141*
G01X201134*
G02X201044Y160772I1J199*
G03X199461Y161150I-1582J-3122*
X196458Y159447I0J-3500*
X197664Y154647I3003J-1797*
X199461Y154150I1798J3003*
X202464Y155853I0J3500*
G37*
G36*
X239405Y169382D02*
G01Y173713D01*
Y173714*
G03X238383Y176593I-4567J0*
G01X238338Y176719*
Y183306*
X238383Y183432*
G03X239405Y186311I-3545J2879*
G01Y189461*
G03X235747Y193937I-4567J0*
X234838Y194028I-907J-4476*
X230750Y191497I0J-4567*
G02X230571Y191386I-179J89*
G01X228584*
G02X228443Y191444I0J200*
G03X224930Y192886I-3513J-3558*
X221890Y191856I-1J-4999*
G02X221843Y191829I-122J159*
G03X220248Y190704I1587J-3943*
G02X220098Y190636I-150J132*
G01X214598*
G02X214448Y190704I0J200*
G03X212854Y191829I-3182J-2817*
G02X212807Y191856I75J186*
G03X209767Y192887I-3041J-3969*
X206253Y191444I0J-5000*
G01X206225Y191416*
X206152Y191386*
X205089*
G02X204910Y191497I0J200*
G03X200822Y194028I-4088J-2036*
X199640Y193872I1J-4567*
X196255Y189461I1182J-4411*
G01Y186311*
G03X197277Y183432I4567J0*
G01X197322Y183306*
Y176719*
X197277Y176593*
G03X196255Y173714I3545J-2879*
G01Y173713*
Y169382*
G03X200822Y164815I4567J0*
X205389Y169382I0J4567*
G01Y169530*
G02X205589Y169730I200J0*
G01X205611*
X205632Y169726*
G03X206452Y169638I821J3790*
X210330Y173516I0J3878*
G01X210321Y173776*
G03X206452Y177394I-3869J-260*
X204884Y177063I0J-3878*
G01X204838Y177043*
X204737Y177051*
X204413Y177262*
G02X204322Y177429I109J168*
G01Y183306*
X204367Y183432*
G03X204910Y184275I-3546J2880*
G02X205089Y184386I179J-89*
G01X206152*
X206225Y184356*
X206253Y184328*
G03X209766Y182886I3513J3558*
X212807Y183917I0J5000*
G02X212854Y183944I122J-159*
G03X214448Y185069I-1588J3942*
G01X214477Y185101*
X214555Y185136*
X214742*
G02X214942Y184936I0J-200*
G01Y183558*
G03X216642Y181858I1700*
G01X219002*
G03X220702Y183558J1700*
G01Y183861*
G02X220802Y184034I200J0*
G01X221149Y184234*
X221256*
X221302Y184207*
X221843Y183944*
G02X221890Y183917I-75J-186*
G03X224930Y182886I3041J3969*
X228443Y184328I0J5000*
G02X228584Y184386I141J-142*
G01X230571*
G02X230750Y184275I0J-200*
G03X231293Y183432I4089J2037*
G01X231338Y183306*
Y177429*
G02X231247Y177262I-200J1*
G01X230923Y177051*
X230822Y177043*
X230776Y177063*
G03X229208Y177394I-1568J-3547*
X225366Y174042I0J-3878*
X225330Y173516I3842J-527*
X229208Y169638I3878J0*
X230028Y169726I-1J3878*
G01X230049Y169730*
X230071*
G02X230271Y169530I0J-200*
G01Y169382*
G03X234838Y164815I4567J0*
X239405Y169382I0J4567*
G37*
G36*
X268710Y183373D02*
G03X261811Y189976I-6899J-303D01*
X254912Y182767I0J-6906*
X261811Y176164I6899J303*
X268710Y183373I0J6906*
G37*
G36*
X237592Y10039D02*
G03X233446Y14368I-4146J179D01*
X229300Y10397I0J-4150*
X233446Y6068I4146J-179*
X237592Y10039I0J4150*
G37*
G36*
X20679Y183373D02*
G03X13780Y189976I-6899J-303D01*
X6881Y182767I0J-6906*
X13780Y176164I6899J303*
X20679Y183373I0J6906*
G37*
%LPD*%
G36*
X216849Y157428D02*
G03X215871Y158006I-1182J-884D01*
G02X215675Y158350I204J344*
X215792Y158633I400J0*
G03X216769Y159611I-685J1662*
G01X217929Y158561*
X216849Y157428*
G37*
G36*
X217822Y182378D02*
G01X217565Y182423D01*
G03X216642Y183558I-2047J-722*
G01X217822Y184530*
X219002Y183558*
G03X218079Y182423I1125J-1857*
G01X217822Y182378*
G37*
G36*
X206673Y163570D02*
G03X205539Y164493I-1858J-1124D01*
G01X205494Y164750*
X205539Y165007*
G03X206673Y165930I-724J2047*
G01X207646Y164750*
X206673Y163570*
G37*
G36*
X227087D02*
G01X226114Y164750D01*
X227087Y165930*
G03X228221Y165007I1857J1124*
G01X228266Y164750*
X228221Y164493*
G03X227087Y163570I723J-2047*
G37*
G36*
X200522Y156589D02*
G01X199366Y157620D01*
X200260Y158827*
G03X201093Y158638I832J1736*
X201738Y158749I1J1925*
G02X202116Y158349I-22J-400*
X201999Y158067I-401J1*
G03X200522Y156589I1035J-2512*
G37*
G36*
X222751Y161250D02*
G01X221691Y162411D01*
G03X222442Y163120I-550J1335*
X221973Y163570I-1147J-726*
G01X222758Y164850*
X223544Y163570*
G03X223075Y163121I677J-1177*
X223814Y162408I1296J604*
G01X222751Y161250*
G37*
G36*
X210936Y161050D02*
G01X209880Y162211D01*
G03X210719Y163050I-587J1426*
G01X210724Y163055*
G03X210216Y163570I-1186J-662*
G01X211001Y164850*
X211787Y163570*
G03X211279Y163055I678J-1177*
G02X211306Y163027I-274J-291*
G03X212022Y162188I1365J440*
G01X210936Y161050*
G37*
G36*
X209766Y186386D02*
G02X208617Y186922I0J1500D01*
X208266Y187886I1149J964*
X208617Y188850I1500J0*
X209766Y189386I1149J-964*
X210516Y189185I0J-1500*
G03X211641Y188536I1342J1026*
G02X212016Y187887I-376J-650*
X211641Y187237I-751J0*
G03X210516Y186587I218J-1675*
G02X209766Y186386I-750J1299*
G37*
G36*
X224930D02*
G02X224180Y186587I0J1500D01*
G03X223055Y187237I-1343J-1025*
G02X222680Y187887I375J649*
X223055Y188536I750J0*
G03X224180Y189185I-217J1675*
G02X224930Y189386I750J-1299*
X226079Y188850I0J-1500*
X226430Y187886I-1149J-964*
X226079Y186922I-1500J0*
X224930Y186386I-1149J964*
G37*
G54D10*
X21730Y2850D03*
X21030Y34150D03*
Y29650D03*
Y25350D03*
X15930Y29650D03*
Y34150D03*
Y25350D03*
X13430Y64550D03*
X23230Y64650D03*
X13430Y81550D03*
X13630Y91150D03*
Y71950D03*
X23430Y72050D03*
Y91250D03*
X23230Y81650D03*
X13430Y100050D03*
X23230Y100150D03*
X22630Y115750D03*
X15130Y113850D03*
X6530Y112150D03*
X2830Y114150D03*
X3430Y132150D03*
X15730Y132250D03*
X29730Y3150D03*
X48230Y2850D03*
X38530Y3050D03*
X43830Y5750D03*
X34930Y6050D03*
X25830Y7450D03*
X34130Y64750D03*
X42930D03*
X34330Y72150D03*
Y91350D03*
X34130Y81750D03*
X43130Y72150D03*
Y91350D03*
X42930Y81750D03*
X34130Y100250D03*
X42930D03*
X29230Y115950D03*
X28730Y132350D03*
X29230Y123050D03*
X46132Y139763D03*
X49230Y139650D03*
X41930Y167050D03*
X33530Y167650D03*
X43230Y192650D03*
X34430D03*
X34530Y185450D03*
X34030Y177050D03*
X40330Y173850D03*
X68630Y3250D03*
X57530D03*
X63330Y6350D03*
X52830D03*
X67230Y62550D03*
X60230Y60350D03*
X60330Y65250D03*
X71630Y57950D03*
X67030Y57850D03*
X62830Y57750D03*
X63130Y62350D03*
X71730Y62450D03*
X72630Y140950D03*
X66130Y130350D03*
Y134350D03*
Y137750D03*
X52430Y139750D03*
X53830Y142850D03*
X71730Y150050D03*
X53930Y146250D03*
X59930Y192750D03*
X51630Y192650D03*
X92030Y39250D03*
X98430Y39350D03*
X96030Y42950D03*
X76530Y88450D03*
X82530D03*
X79530D03*
X91930Y139650D03*
X98730Y140050D03*
X77430D03*
X99730Y123050D03*
X84930Y169250D03*
X81230Y163850D03*
X91830Y148450D03*
X98930Y148550D03*
X76530Y149150D03*
X85530Y186050D03*
X93030Y186250D03*
X86130Y179150D03*
X96130Y176250D03*
X122530Y38950D03*
Y31050D03*
X117530Y30850D03*
X103830Y39250D03*
X110430Y39150D03*
X107230Y43750D03*
X101530Y43550D03*
X115930Y69450D03*
X116130Y73550D03*
X121630Y73850D03*
X103330Y95050D03*
X107230D03*
X105330Y140050D03*
X113430Y139950D03*
X113530Y132150D03*
X102630Y121050D03*
X105530Y122950D03*
X106130Y148650D03*
X112930D03*
X101030Y186150D03*
X109530Y185950D03*
X117930Y185850D03*
X106430Y176150D03*
X115430Y176350D03*
X132330Y43850D03*
X140730D03*
X149530Y43750D03*
X147430Y36550D03*
X141030Y36950D03*
X133530Y37350D03*
X138330Y40750D03*
X146230Y40850D03*
X125330Y43750D03*
X127030Y36550D03*
X143530Y63050D03*
Y60050D03*
X128730Y56650D03*
Y53550D03*
X146585Y91750D03*
X146530Y83650D03*
X136430Y91650D03*
X136330Y83750D03*
X126530Y74150D03*
X146630Y99450D03*
X136530Y100050D03*
X131430Y111850D03*
X135430Y118350D03*
X138930Y140250D03*
X145030Y138750D03*
X127330Y139850D03*
X133130Y139650D03*
X136430Y126950D03*
X127130Y130250D03*
X129730Y120750D03*
X134930Y133550D03*
X127630Y147050D03*
X136230Y146450D03*
X126730Y185950D03*
X135030D03*
X143430D03*
X125230Y176350D03*
X134830Y176650D03*
X144430Y176550D03*
X170230Y29350D03*
X167230Y35650D03*
X160330Y44050D03*
X161030Y37050D03*
X154630Y36850D03*
X155530Y41350D03*
X171230Y41150D03*
X171630Y50150D03*
X168930Y46050D03*
X170930Y56350D03*
X157730Y67850D03*
X161130Y64850D03*
X156530Y61950D03*
X163330Y53550D03*
X163430Y56650D03*
X155030Y91650D03*
X154630Y83650D03*
X164430Y80250D03*
X164030Y87250D03*
X164130Y94850D03*
X170230Y71550D03*
X154930Y99450D03*
X164230Y109050D03*
X164130Y102250D03*
X163930Y114750D03*
X170230Y108150D03*
X169730Y103050D03*
X174030Y154050D03*
Y147550D03*
Y150750D03*
X152530Y186150D03*
X160030Y185950D03*
X154130Y176650D03*
X163930Y176050D03*
X199530Y2550D03*
X176830Y39250D03*
X176630Y29450D03*
X191730Y32450D03*
X187430Y28450D03*
X183330Y32250D03*
X197724Y42350D03*
X192724D03*
X187724Y42450D03*
X199030Y66750D03*
X199130Y59350D03*
X184730Y89650D03*
X184830Y81850D03*
X184730Y74250D03*
X198530Y90050D03*
X198330Y82650D03*
Y74950D03*
X193330Y92950D03*
X184730Y98850D03*
X188130Y109750D03*
X189927Y96053D03*
X179430Y137350D03*
X197630Y144950D03*
Y138250D03*
X196830Y163350D03*
X175730Y160650D03*
X199461Y157650D03*
X179158Y146012D03*
X193130Y193750D03*
X193230Y189850D03*
X185330Y191850D03*
X184930Y185650D03*
X184230Y188750D03*
X180930Y185750D03*
X219930Y3450D03*
X211430Y3050D03*
X221430Y22619D03*
X213730Y36250D03*
X218230Y38650D03*
X222430Y35550D03*
X211130Y26850D03*
X217030Y26950D03*
X202724Y42350D03*
X200930Y34150D03*
X202730Y38350D03*
X222724Y42350D03*
X221430Y58850D03*
X214030D03*
X211730Y63950D03*
X218130Y66950D03*
X211630Y73550D03*
X218130Y74150D03*
X206230Y107250D03*
X212530Y107450D03*
X219130Y107350D03*
X210230Y101250D03*
X217830Y101050D03*
X215930Y135650D03*
X217630Y132850D03*
X205030Y144850D03*
X204630Y138550D03*
X201330Y141650D03*
X219930Y142650D03*
X216030Y144850D03*
X222730Y120450D03*
X217724D03*
X202724D03*
X212724D03*
X207724D03*
X201830Y163350D03*
X224530Y149350D03*
X217830Y158550D03*
X222751Y161350D03*
X210940Y161150D03*
X216130Y149740D03*
X205530Y193950D03*
X215130Y193650D03*
X219630Y193750D03*
X247730Y15850D03*
X249330Y8450D03*
X235930Y3750D03*
X228230Y3950D03*
X245230Y3050D03*
X228730Y40350D03*
X236830Y37050D03*
X237330Y30150D03*
X231630Y30350D03*
X229730Y35450D03*
X246430Y38750D03*
X246730Y32050D03*
X246430Y25350D03*
X243330Y20450D03*
X227202Y25450D03*
X237724Y42350D03*
X246330Y58050D03*
X245930Y64250D03*
X232930Y68250D03*
X225330Y65350D03*
X232724Y51550D03*
X227724D03*
X246330Y70050D03*
X246230Y77250D03*
X246130Y82550D03*
X245930Y88850D03*
X233530Y91650D03*
X233330Y84650D03*
X233230Y77350D03*
X225430Y75050D03*
X246430Y96350D03*
X246330Y103250D03*
X225630Y107350D03*
X232430Y107050D03*
X233330Y98950D03*
X225030Y99450D03*
X244730Y108650D03*
X232724Y120450D03*
X227724D03*
X242730Y169850D03*
X237930Y162750D03*
X229030Y159650D03*
X234230Y158650D03*
X243830Y159350D03*
X245730Y165950D03*
X245930Y154550D03*
X249930Y146250D03*
X229430Y193950D03*
X241330Y193450D03*
X242130Y185550D03*
X242230Y177350D03*
X253830Y3250D03*
X251330Y38550D03*
X251630Y29050D03*
X251030Y21150D03*
X250530Y67550D03*
X250630Y61250D03*
X250430Y54450D03*
X250830Y93050D03*
Y86050D03*
X250730Y79950D03*
X250630Y73550D03*
X250830Y106950D03*
Y100150D03*
X271830Y143550D03*
X258630Y136350D03*
X253930Y135750D03*
X250030Y161550D03*
X253730Y165050D03*
X257030Y168950D03*
X271430Y159050D03*
Y151650D03*
X262530Y171750D03*
G54D20*
X102030Y29939D03*
Y53561D03*
G54D11*
X31530Y29550D03*
X73530D03*
G54D21*
X123505Y167247D03*
X113505D03*
X103505D03*
X143505D03*
X133505D03*
X173505D03*
X163505D03*
X153505D03*
X183505D03*
G54D12*
X9630Y123411D03*
Y148050D03*
G54D22*
X143530Y67750D03*
Y73750D03*
X149830Y67750D03*
Y73750D03*
G54D13*
X46051Y183250D03*
X66051D03*
X56051D03*
X95111Y10000D03*
X125111D03*
X115110D03*
X105110D03*
X135110D03*
X175110D03*
X165110D03*
X195110D03*
X185110D03*
X205111D03*
G54D14*
X66130Y172250D03*
X56130D03*
G54D23*
X166030Y190350D03*
X180630D03*
G54D15*
X76051Y183250D03*
X85110Y10000D03*
X155110D03*
G54D24*
X224391Y10218D03*
X233446D03*
X265466Y156066D03*
Y147011D03*
G54D16*
X86459Y130350D03*
X102601D03*
G54D25*
X200822Y171548D03*
X234838D03*
G54D17*
X93505Y167247D03*
G54D26*
X211001Y164750D03*
X207458D03*
X222758D03*
X226302D03*
G54D27*
X200822Y187886D03*
X234838D03*
G54D18*
X76130Y172250D03*
G54D19*
X113430Y44500D03*
X119430D03*
X113430Y50800D03*
X119430D03*
G54D28*
X206452Y173516D03*
X229208D03*
G54D29*
X217822Y187886D03*
Y184343D03*
X232330Y54478D03*
Y58022D03*
X227999Y54478D03*
Y58022D03*
G54D10*
X76530Y88450D02*
G01X79530D01*
Y88450D02*
G01X82530D01*
X93505Y167247D02*
G01X87850D01*
X93505D02*
G01Y172902D01*
X103505Y167247D02*
G01X93505D01*
X79230Y163350D02*
G01X76130Y166450D01*
Y166450D02*
G01Y172250D01*
Y172250D02*
G01X84030D01*
X76051Y183250D02*
G01X84730D01*
X103505Y167247D02*
G01Y174025D01*
X143530Y67750D02*
G01Y73750D01*
Y63050D02*
G01Y67750D01*
Y60050D02*
G01Y63050D01*
Y80650D02*
G01X146530Y83650D01*
X143530Y73750D02*
G01Y80650D01*
X177330Y154050D02*
G01X174030Y150750D01*
X177330Y150875D02*
G01Y150850D01*
X174030Y147550*
Y147550D02*
G01Y150750D01*
Y150750D02*
G01Y154050D01*
X177330D02*
G01Y150875D01*
Y154050D02*
G01X180505D01*
X177330D02*
G01X174030D01*
X180505D02*
G01X183505Y157050D01*
Y167247*
X177330Y150875D02*
G01X180505Y154050D01*
X200822Y171548D02*
G01Y187886D01*
X209766D02*
G01X200822D01*
X234838Y171548D02*
G01Y187886D01*
Y187886D02*
G01X224930D01*
G54D30*
X46051Y183250D02*
G01X46822D01*
X48180Y181892*
Y168957*
X59487Y157650*
X71776*
X75476Y153950*
X125934*
X127392Y152492*
X135130*
X136730Y150892*
X144467*
X146067Y149292*
X149963*
X150630Y148625*
Y134005*
X171766Y112869*
X175696*
X185115Y103450*
X200367*
X203830Y99987*
Y59287*
X220767Y42350*
X222724*
X56130Y172250D02*
G01Y168550D01*
X61830Y162850*
X73930*
X77630Y159150*
X128088*
X129546Y157692*
X137284*
X138884Y156092*
X146621*
X148221Y154492*
X152117*
X155830Y150779*
Y136159*
X173920Y118069*
X177850*
X186169Y109750*
X188130*
X56051Y183250D02*
G01X49780Y176979D01*
Y169619*
X60149Y159250*
X72439*
X76139Y155550*
X126597*
X128055Y154092*
X135792*
X137392Y152492*
X145130*
X146730Y150892*
X150626*
X152230Y149288*
Y134667*
X172428Y114469*
X176358*
X185777Y105050*
X201030*
X205430Y100650*
Y59950*
X220330Y45050*
X235024*
X237724Y42350*
X200930Y34150D02*
G01Y30345D01*
X186835Y16250*
X121360*
X115110Y10000*
X202730Y38350D02*
G01X199030D01*
X198230Y37550*
Y29908*
X186172Y17850*
X120698*
X117348Y14500*
X109611*
X105110Y10000*
X202724Y120450D02*
G01Y120869D01*
X201924Y121669*
X175410*
X159430Y137650*
Y152270*
X153608Y158092*
X149712*
X148112Y159692*
X140375*
X138775Y161292*
X131038*
X129438Y162892*
X121701*
X117346Y167247*
X113505*
X138430Y60050D02*
G01Y59750D01*
Y59750D02*
G01X141030Y57150D01*
X146030*
X148930Y60050*
X217724Y120450D02*
G01X216543D01*
X213843Y123150*
X211106*
X209506Y124750*
X206856*
X205136Y126469*
X177399*
X164230Y139638*
Y154259*
X155597Y162892*
X151701*
X147346Y167247*
X143505*
X212724Y120450D02*
G01X211543D01*
X208843Y123150*
X206193*
X204473Y124869*
X176736*
X162630Y138976*
Y153596*
X154934Y161292*
X151038*
X149438Y162892*
X141700*
X140100Y164492*
X134305*
X133505Y165292*
Y167247*
X123505D02*
G01X127346D01*
X131701Y162892*
X139438*
X141038Y161292*
X148775*
X150375Y159692*
X154271*
X161030Y152933*
Y138313*
X176073Y123269*
X203811*
X205530Y121550*
X206924*
X207724Y120750*
Y120450*
X161130Y64850D02*
G01X166630D01*
X168030Y66250*
X187124*
X187924Y65450*
Y47150*
X192724Y42350*
X156530Y61950D02*
G01X167130D01*
X169630Y64450*
X185324*
X186124Y63650*
Y44050*
X187724Y42450*
X170230Y71550D02*
G01X172330Y69450D01*
X189387*
X191124Y67713*
Y53950*
X202724Y42350*
X157730Y67850D02*
G01X188724D01*
X189524Y67050*
Y50550*
X197724Y42350*
X173430Y141350D02*
G01X170630Y144150D01*
Y156650*
X172030Y158050*
X173505Y167247D02*
G01X169030Y162772D01*
Y141627*
X179387Y131270*
X207124*
X208844Y129550*
X211494*
X213094Y127950*
X215831*
X217431Y126350*
X220169*
X221769Y124750*
X224511*
X226111Y123150*
X228843*
X231543Y120450*
X232724*
X163505Y167247D02*
G01Y159510D01*
X167430Y155584*
Y140964*
X178724Y129670*
X206462*
X208181Y127950*
X210831*
X212431Y126350*
X215169*
X216769Y124750*
X219506*
X221106Y123150*
X223849*
X226549Y120450*
X227724*
X153505Y167247D02*
G01X165830Y154922D01*
Y140301*
X178062Y128069*
X205799*
X207518Y126350*
X210169*
X211769Y124750*
X214506*
X216106Y123150*
X218843*
X221543Y120450*
X222730*
X172030Y158050D02*
G01Y160050D01*
X193330Y92950D02*
G01X192730D01*
X191527Y91747*
Y71836*
X194324Y69038*
Y57018*
X207530Y43813*
Y32387*
X188193Y13050*
X188160*
X185110Y10000*
X189927Y96053D02*
G01Y71173D01*
X192724Y68376*
Y56356*
X205930Y43150*
Y33050*
X187530Y14650*
X179760*
X175110Y10000*
X219930Y142650D02*
G01Y140450D01*
X220730Y139650*
X239530*
X240330Y138850*
Y58822*
X239530Y58022*
X232330*
X216030Y144850D02*
G01Y141450D01*
X219430Y138050*
X237930*
X238730Y137250*
Y61550*
X237930Y60750*
X229499*
X227999Y59250*
Y58022*
X199461Y157650D02*
G01X200161Y158350D01*
X217630*
X217830Y158550*
X222758Y164750D02*
G01Y161357D01*
X222751Y161350*
X211001Y164750D02*
G01Y161211D01*
X210940Y161150*
X216130Y149740D02*
G01X216140Y149750D01*
X217530*
X223130Y144150*
Y142050*
X223930Y141250*
X241130*
X241930Y140450*
Y26250*
X241130Y25450*
X227202*
X232724Y51550D02*
G01Y54084D01*
X232330Y54478*
X227724Y51550D02*
G01Y54204D01*
X227999Y54478*
X235930Y124650D02*
G01Y116750D01*
X244730Y108650D02*
G01X243530Y109850D01*
Y141113*
X242630Y142013*
Y143350*
X245530Y146250*
X249930*
G54D31*
X193830Y110050D02*
G01X190530Y106750D01*
X186482*
X177062Y116169*
X173132*
X153930Y135372*
Y149992*
X151330Y152592*
X147434*
X145834Y154192*
X138096*
X136496Y155792*
X128759*
X127301Y157250*
X76843*
X73143Y160950*
X60854*
X51480Y170324*
Y174272*
X54108Y176900*
X54798Y177350*
X59728*
X61330Y167550D02*
G01X62930Y165950D01*
X71930*
X72030Y165850*
X61330Y177350D02*
G01Y167550D01*
X61130Y178752D02*
G01Y190350D01*
X59728Y177350D02*
G01X61130Y178752D01*
X103505Y161179D02*
G01X94517D01*
X93505Y162192*
Y167247*
X103505D02*
G01Y161179D01*
X186830Y113550D02*
G01X180411Y119969D01*
X174707*
X157730Y136946*
Y151566*
X152904Y156392*
X149008*
X147408Y157992*
X139671*
X138071Y159592*
X130334*
X128746Y161179*
X103505*
X179158Y146012D02*
G01X185092D01*
X192330Y153250*
Y177550*
X190330Y179550*
X167030*
X166030Y180550*
Y190350*
X221430Y22619D02*
G01X204099D01*
X195110Y13631*
Y10000*
G54D32*
X95111D02*
G01Y4450D01*
X96110Y3450*
X194110*
X195110Y4450*
Y10000*
X119430Y44500D02*
G01Y41420D01*
X113430Y44500D02*
G01Y41420D01*
Y44500D02*
G01X119430D01*
Y44500D02*
G01X123100D01*
X113430D02*
G01X109760D01*
X149830Y73750D02*
G01Y67750D01*
Y67750D02*
G01Y64080D01*
Y67750D02*
G01X152910D01*
X149830Y73750D02*
G01X153930D01*
G54D33*
X21030Y29650D02*
G01X21095Y29585D01*
X31565*
Y29585D02*
G01X27000Y34150D01*
X21030*
Y34150D02*
G01Y29650D01*
Y29650D02*
G01Y25350D01*
Y25350D02*
G01X27330D01*
X31530Y29550*
X9630Y123411D02*
G01Y114711D01*
Y123411D02*
G01Y132111D01*
Y123411D02*
G01X18330D01*
X31565Y29585D02*
G01X31530Y29550D01*
X86459Y130350D02*
G01X73530D01*
X69930D02*
G01X66130D01*
Y134150D02*
G01X69930Y130350D01*
X66130Y134350D02*
G01Y137750D01*
Y134150D02*
G01Y134350D01*
Y130350D02*
G01Y134150D01*
X73530Y130350D02*
G01X69930D01*
X66130Y137750D02*
G01X73530Y130350D01*
X166030Y190350D02*
G01X163230Y193150D01*
X70051*
X66051Y189150*
Y183250*
Y183250D02*
G01Y172329D01*
X66130Y172250*
X102030Y29939D02*
G01X95505D01*
X76130Y172250D02*
G01Y183171D01*
X76051Y183250*
X102030Y29939D02*
G01Y35774D01*
Y29939D02*
G01Y24104D01*
X108555Y29939D02*
G01X102030D01*
X107230Y95050D02*
G01X103330D01*
G54D34*
X207458Y164750D02*
G01Y167830D01*
Y164750D02*
G01X204773D01*
X217822Y184343D02*
G01Y181658D01*
Y184343D02*
G01X214742D01*
X221930Y182750D02*
G01X220337Y184343D01*
X217822*
Y187886D02*
G01X209766D01*
X224930D02*
G01X217822D01*
X226302Y164750D02*
G01Y167830D01*
Y164750D02*
G01X228987D01*
M02*
