M48
INCH,LZ
VER,1
FMAT,2
T01C0.015F1B1S6H2000
T02C0.032F1B1S6H2000
T03C0.039402F1B1S6H2000
T04C0.042F1B1S6H2000
T05C0.08F1B1S6H2000
T06C0.027559F1B1S6H2000
DETECT,ON
ATC,ON
%
T01
X002173Y000285
X002973Y000315
X002583Y000745
X001593Y002535
X002103
X001593Y002965
X002103
X001593Y003415
X002103
X001343Y006455
X002323Y006465
X001363Y007195
X002343Y007205
X001343Y008155
X002323Y008165
X001363Y009115
X002343Y009125
X001343Y010005
X002323Y010015
X000653Y011215
X001513Y011385
X000283Y011415
X002263Y011575
X002923Y011595
Y012305
X000343Y013215
X001573Y013225
X002873Y013235
X005993Y019275
X005163Y019265
X004323
X003443
X003453Y018545
X003403Y017705
X004033Y017385
X003353Y016765
X004193Y016705
X005393Y014625
X005383Y014285
X005243Y013975
X004613Y013976
X004923Y013965
X004293Y010025
X003413
X004313Y009135
X003433
X004293Y008175
X003413
X004313Y007215
X003433
X004293Y006475
X003413
X005283Y000635
X003493Y000605
X004383Y000575
X005753Y000325
X003853Y000305
X004823Y000285
X006863Y000325
X006333Y000635
X006283Y005775
X006703Y005785
X007163Y005795
X006023Y006035
X006313Y006235
X007173Y006245
X006723Y006255
X006033Y006525
X007653Y008845
X007953
X008253
X006613Y013035
Y013435
Y013775
X007743Y014005
X007263Y014095
X007653Y014915
X007173Y015005
X008123Y016385
X008493Y016925
X008613Y017915
X008553Y018605
X010103Y018615
X009303Y018625
X010953Y018595
X011793Y018585
X011543Y017635
X010643Y017615
X009613Y017625
X011293Y014865
X010613
X009893Y014855
X009183Y014845
X010533Y014005
X009873
X011343Y013995
X009193Y013965
X011353Y013215
X010553Y012295
X009973Y012305
X010263Y012105
X010723Y009505
X010333
X011613Y007355
X011593Y006945
X010723Y004375
X010153Y004355
X009603Y004295
X009843Y003935
X010383Y003925
X009203
X011043Y003915
X011753Y003085
X012253Y003105
X012703Y003655
X014743
X014103Y003695
X013353Y003735
X012253Y003895
X013833Y004075
X014623Y004085
X012533Y004375
X013233Y004385
X014073
X014953Y004375
X012873Y005355
Y005665
X014353Y006005
Y006305
X012163Y007385
X012653Y007415
X014653Y008365
X013633Y008375
X013643Y009165
X014658Y009175
X014663Y009945
X013653Y010005
X013143Y011185
X013543Y011835
X012973Y012075
X013643Y012695
X012713Y013025
X013493Y013355
X014503Y013875
X013313Y013965
X012733Y013985
X013893Y014025
X013623Y014645
X012763Y014705
X012523Y017635
X013483Y017665
X014443Y017655
X012673Y018595
X013503
X014343
X015253Y018615
X016003Y018595
X015413Y017665
X016393Y017605
X017573Y016065
X017403Y015405
Y015075
Y014755
X017916Y014601
X017943Y013735
X016393Y011475
X016423Y010905
X017023Y010815
X016973Y010305
X016413Y010225
X015493Y009945
X016413Y009485
X015503Y009165
X016403Y008725
X015463Y008365
X016443Y008025
X017023Y007155
X015773Y006785
X016113Y006485
X015653Y006195
X016343Y005665
X017093Y005635
X016333Y005355
X017163Y005015
X016893Y004605
X016033Y004405
X015553Y004135
X017123Y004115
X017683Y003925
X016103Y003705
X015463Y003685
X016723Y003565
X017663Y002945
X017023Y002935
X019953Y000255
X018743Y002845
X018333Y003225
X019173Y003245
X020093Y003415
X020273Y003835
X018772Y004245
X019272Y004235
X019772
X020272
X019913Y005935
X019903Y006675
X018473Y007425
X019833Y007495
X018483Y008185
X019833Y008265
X018473Y008965
X019853Y009005
X019333Y009295
X018993Y009605
X018473Y009885
X020623Y010725
X018813Y010975
X020272Y012045
X020772
X019763Y013825
X020463Y013855
X020133Y014165
X020503Y014485
X019763Y014495
X019946Y015765
X019683Y016335
X020183
X018493Y018565
X018093Y018575
X018423Y018875
X019323Y018985
X018533Y019185
X019313Y019375
X020553Y019395
X022943
X021963Y019375
X021513Y019365
X023793Y016275
X022275Y016135
X021094Y016115
X022903Y015965
X023423Y015865
X021783Y015855
X021613Y014974
X022453Y014935
X021603Y014485
X021993Y014265
X021593Y013565
X021763Y013285
X023272Y012045
X022772
X022273
X021772
X021272
X022563Y010735
X021913
X021253Y010745
X023243Y010705
X021023Y010125
X021783Y010105
X022503Y009945
X023333Y009895
X023353Y009165
X023333Y008465
X023323Y007735
X022543Y007505
X021813Y007415
X021163Y007355
X023293Y006825
X021813Y006695
X022533Y006535
X021173Y006395
X022143Y005885
X021403
X023272Y005155
X022772
X023772Y004235
X022272
X022873Y004035
X021823Y003865
X023683Y003705
X021373Y003625
X022243Y003555
X022973Y003545
X023163Y003035
X023733Y003015
X021703Y002695
X021113Y002685
X02272Y002545
X022143Y002262
X022823Y000395
X023593Y000375
X021993Y000345
X021143Y000305
X024523
X025383Y000325
X024933Y000845
X024773Y001585
X024333Y002045
X025103Y002115
X024643Y002535
X025163Y002905
X024673Y003205
X025133Y003855
X024643Y003875
X025043Y005445
X024633Y005805
X025063Y006125
X024593Y006425
X025053Y006755
X024633Y007005
X025063Y007355
X024623Y007725
X025073Y007995
X024613Y008255
X025083Y008605
X024593Y008885
X025083Y009305
X024643Y009635
X025083Y010015
X024633Y010325
X025083Y010695
X024473Y010865
X025393Y013575
X025863Y013635
X024993Y014625
X024593Y015455
X024383Y015935
X025003Y016155
X025373Y016505
X024573Y016595
X025703Y016895
X024273Y016985
X026253Y017175
X024223Y017735
X024213Y018555
X024133Y019345
X027143Y015905
Y015165
X027183Y014355
T02
X022439Y001022
X023345
X026547Y014701
Y015607
T03
X01835Y016725
X01735
X01635
X01535
X01435
X01335
X01235
X01135
X01035
X00935
X007613Y017225
X006613
X005613
T04
X004605Y018325
X005605
X006605
X007605
X008511Y001
X009511
X010511
X011511
X012511
X013511
X015511
X016511
X017511
X018511
X019511
X020511
T05
X000963Y012341
Y014805
T06
X020645Y017352
X022921
M30
