G04 CAM350/DFMSTREAM V12.1 (Build 1022) Date:  Fri Oct 24 01:38:18 2025 *
G04 Database: (Untitled) *
G04 Layer 4: SILK_SCREEN_TOP.art *
%FSLAX25Y25*%
%MOIN*%
%SFA1.000B1.000*%

%MIA0B0*%
%IPPOS*%
%ADD70C,0.00400*%
%ADD71C,0.00500*%
%ADD72C,0.00600*%
%ADD73C,0.00787*%
%ADD30C,0.00800*%
%ADD31C,0.01000*%
%ADD37C,0.00591*%
%ADD38C,0.00984*%
%ADD39C,0.00787*%
%ADD40C,0.00984*%
%LNSILK_SCREEN_TOP.art*%
%LPD*%
G36*
X210981Y151950D02*
G75*
G02X211859Y152798I849J-1D01*
X212679Y151950I-29J-849*
X211801Y151101I-849J0*
X210981Y151950I29J849*
G37*
G36*
X113121Y98049D02*
G01Y103561D01*
X115876Y100805*
X113121Y98049*
G37*
G36*
X213903Y13143D02*
G01Y15808D01*
X215336Y17241*
X218395*
Y12296*
X223123*
Y15229*
X234623*
Y12375*
X239434*
Y17241*
X242591*
X243690Y16143*
Y13139*
X240344*
Y6241*
X217505*
Y13143*
X213903*
G37*
G36*
X258443Y137956D02*
G01Y141015D01*
X263388*
Y145743*
X260454*
Y157243*
X263309*
Y162054*
X258443*
Y165211*
X259541Y166310*
X262545*
Y162963*
X269443*
Y140125*
X262541*
Y136522*
X259876*
X258443Y137956*
G37*
G36*
X104199Y122120D02*
G01Y146959D01*
X116597*
Y135786*
X123821*
Y146994*
X136660*
Y122128*
X128447Y113916*
X123821*
Y124987*
X116597*
Y113924*
X116585Y113912*
X112408*
X104199Y122120*
G37*
G36*
X68766D02*
G01Y146959D01*
X81164*
Y135786*
X88388*
Y146994*
X101227*
Y122128*
X93014Y113916*
X88388*
Y124987*
X81164*
Y113924*
X81152Y113912*
X76975*
X68766Y122120*
G37*
G36*
X27730Y114050D02*
G01Y144450D01*
X37930Y154650*
X42230*
Y141150*
X52330*
Y154550*
X57030*
X67230Y144350*
Y114050*
X52330*
Y127450*
X42230*
Y114050*
X27730*
G37*
G54D70*
X130443Y80333D02*
G01Y85057D01*
Y85057D02*
G01X128081D01*
Y80333D02*
G01X130443D01*
Y104742D02*
G01X159130D01*
Y78758*
X130443*
Y104742*
Y98443D02*
G01Y103167D01*
X128081Y98443D02*
G01X130443D01*
Y103167D02*
G01X128081D01*
X194230Y131750D02*
G01X191630D01*
Y134350*
X194230Y151350D02*
G01X191630D01*
Y151350D02*
G01Y148750D01*
X211230Y134350D02*
G01Y131750D01*
X208630*
X211230Y148650D02*
G01Y149650D01*
X209530Y151350*
X208530*
G54D71*
X129732Y30959D02*
G01Y52141D01*
X162528Y30959D02*
G01Y52141D01*
X176819Y55918D02*
G01Y46017D01*
X179693*
Y116883D02*
G01X176819D01*
Y106982*
X200232Y177059D02*
G01Y182965D01*
X235428Y192808D02*
G01Y198122D01*
X200232*
Y192808*
X235428Y177059D02*
G01Y182965D01*
X250756Y116883D02*
G01X252410D01*
Y46017*
X250756*
G54D72*
X180177Y134191D02*
G01Y134791D01*
X186483*
Y134191*
X180177Y131847D02*
G01Y131247D01*
X186483*
Y131847*
Y140509D02*
G01Y139909D01*
X180177*
Y140509*
X182830Y136550D02*
G01Y138150D01*
X183830Y136550D02*
G01Y138150D01*
X186480Y136178D02*
G01Y135578D01*
X180180*
Y136178*
X186480Y138522D02*
G01Y139122D01*
X180180*
Y138522*
X180177Y147183D02*
G01Y147783D01*
X186483*
Y147183*
X180177Y144840D02*
G01Y144240D01*
X186483*
Y144840*
Y149171D02*
G01Y148571D01*
X180177*
Y149171*
X186483Y151514D02*
G01Y152114D01*
X180177*
Y151514*
X186483Y142852D02*
G01Y143452D01*
X180177*
Y142852*
X182830Y153873D02*
G01Y155473D01*
X183830Y153873D02*
G01Y155473D01*
X186480Y153502D02*
G01Y152902D01*
X180180*
Y153502*
X186480Y155845D02*
G01Y156445D01*
X180180*
Y155845*
X228583Y21448D02*
G01Y20848D01*
X222278*
Y21448*
X228583Y23791D02*
G01Y24391D01*
X222278*
Y23791*
X233017Y23419D02*
G01Y21819D01*
X232017Y23419D02*
G01Y21819D01*
X229367Y23791D02*
G01Y24391D01*
X235667*
Y23791*
X229367Y21448D02*
G01Y20848D01*
X235667*
Y21448*
X231677Y147191D02*
G01Y147791D01*
X237983*
Y147191*
X231677Y144848D02*
G01Y144248D01*
X237983*
Y144848*
X231677Y154622D02*
G01Y155222D01*
X237983*
Y154622*
X231677Y152278D02*
G01Y151678D01*
X237983*
Y152278*
X255236Y151116D02*
G01X255836D01*
Y144810*
X255236*
X252893Y151116D02*
G01X252293D01*
Y144810*
X252893*
X253265Y155550D02*
G01X254865D01*
X253265Y154550D02*
G01X254865D01*
X252893Y151900D02*
G01X252293D01*
Y158200*
X252893*
X255236Y151900D02*
G01X255836D01*
Y158200*
X255236*
G54D30*
X16363Y43350D02*
G01Y46850D01*
X17197*
X17530Y46675*
X17780Y46442*
X17988Y46092*
X18155Y45683*
X18197Y45100*
X18155Y44517*
X17988Y44108*
X17780Y43758*
X17530Y43525*
X17197Y43350*
X16363*
X19255Y44925D02*
G01X20588D01*
X20463Y45333*
X20255Y45567*
X19963Y45683*
X19672Y45625*
X19422Y45450*
X19255Y45042*
X19172Y44692*
Y44342*
X19255Y43992*
X19463Y43642*
X19713Y43408*
X20005Y43350*
X20297Y43467*
X20588Y43817*
X21855Y43758D02*
G01X22063Y43525D01*
X22355Y43350*
X22605*
X22855Y43467*
X23022Y43642*
X23105Y43875*
X23063Y44225*
X22897Y44400*
X22147Y44750*
X21980Y45158*
X22063Y45450*
X22230Y45625*
X22480Y45683*
X22730Y45625*
X22980Y45450*
X25080Y45683D02*
G01Y43350D01*
Y46617D02*
G01X24997Y46675D01*
Y46792*
X25080Y46850*
X25163Y46792*
Y46675*
X25080Y46617*
X27097Y42475D02*
G01X27388Y42242D01*
X27722Y42183*
X28013Y42242*
X28263Y42533*
X28430Y42942*
Y45683*
Y45217D02*
G01X28263Y45450D01*
X28013Y45625*
X27722Y45683*
X27388Y45567*
X27180Y45333*
X27013Y44925*
X26930Y44517*
X26972Y44167*
X27138Y43758*
X27388Y43467*
X27722Y43350*
X27972Y43408*
X28263Y43642*
X28430Y43875*
X29572Y43350D02*
G01Y45683D01*
Y45100D02*
G01X29738Y45392D01*
X29988Y45625*
X30322Y45683*
X30613Y45625*
X30863Y45392*
X30988Y44983*
Y43350*
X34730D02*
G01Y46850D01*
Y45100D02*
G01X34938Y45450D01*
X35188Y45625*
X35438Y45683*
X35813Y45567*
X36063Y45333*
X36230Y44925*
Y44458*
X36147Y43992*
X35980Y43642*
X35688Y43408*
X35438Y43350*
X35188Y43408*
X34938Y43583*
X34730Y43875*
X37205Y42300D02*
G01X37455Y42183D01*
X37788Y42300*
X37997Y42533*
X38163Y42825*
X38413Y43758*
X38955Y45683*
X37622D02*
G01X38413Y43758D01*
X43280Y46850D02*
G01Y43350D01*
X42322Y46850D02*
G01X44238D01*
X46213Y45217D02*
G01X46380Y45392D01*
X46505Y45683*
X46588Y46092*
X46505Y46442*
X46338Y46675*
X46047Y46850*
X44922*
Y43350*
X46297*
X46588Y43583*
X46755Y43933*
X46838Y44342*
X46755Y44750*
X46505Y45100*
X46213Y45217*
X44922*
X47647Y46850D02*
G01Y43350D01*
X49313*
X6463Y55550D02*
G01Y53042D01*
X6630Y52517*
X6963Y52167*
X7380Y52050*
X7797Y52167*
X8130Y52517*
X8297Y53042*
Y55550*
X9063Y52750D02*
G01X9313Y52342D01*
X9647Y52108*
X10022Y52050*
X10355Y52108*
X10688Y52400*
X10897Y52750*
X10938Y53100*
X10855Y53508*
X10563Y53800*
X10272Y53917*
X9897*
X10272D02*
G01X10522Y54092D01*
X10730Y54383*
X10813Y54733*
X10730Y55083*
X10522Y55375*
X10147Y55550*
X9772Y55492*
X9397Y55258*
X9380Y115250D02*
G01Y114417D01*
X8330*
X7980Y114667*
X7747Y114958*
X7630Y115375*
X7747Y115792*
X7980Y116083*
X8330Y116333*
X8738Y116500*
X9205Y116583*
X9613*
X9963Y116500*
X10372Y116333*
X10722Y116083*
X10955Y115833*
X11130Y115500*
Y115208*
X11013Y114875*
X10780Y114625*
X7630Y113858D02*
G01X11130D01*
X7630Y111942*
X11130*
X7630Y111217D02*
G01X11130D01*
Y110383*
X10955Y110050*
X10722Y109800*
X10372Y109592*
X9963Y109425*
X9380Y109383*
X8797Y109425*
X8388Y109592*
X8038Y109800*
X7805Y110050*
X7630Y110383*
Y111217*
X19997Y119558D02*
G01X19747Y119733D01*
X19455Y119850*
X19122*
X18747Y119675*
X18455Y119383*
X18247Y119033*
X18080Y118450*
X18038Y117925*
X18122Y117400*
X18247Y117050*
X18497Y116700*
X18788Y116467*
X19080Y116350*
X19372*
X19663Y116467*
X19913Y116642*
X20122Y116875*
X20763Y117050D02*
G01X21013Y116642D01*
X21347Y116408*
X21722Y116350*
X22055Y116408*
X22388Y116700*
X22597Y117050*
X22638Y117400*
X22555Y117808*
X22263Y118100*
X21972Y118217*
X21597*
X21972D02*
G01X22222Y118392D01*
X22430Y118683*
X22513Y119033*
X22430Y119383*
X22222Y119675*
X21847Y119850*
X21472Y119792*
X21097Y119558*
X24280Y116350D02*
G01Y119850D01*
X23780Y119150*
Y116350D02*
G01X24780D01*
X9097Y164558D02*
G01Y163558D01*
X9855Y164100D02*
G01X8338D01*
X7930Y161500D02*
G01X11430D01*
X10730Y162000*
X7930D02*
G01Y161000D01*
X10847Y159692D02*
G01X11197Y159442D01*
X11372Y159150*
X11430Y158817*
X11313Y158400*
X11022Y158108*
X10672Y158025*
X10322Y158067*
X10030Y158233*
X9447Y159067*
X9038Y159442*
X8455Y159692*
X7930Y159775*
Y158025*
X11430Y157342D02*
G01X7930Y156300D01*
X11430Y155258*
X32347Y112258D02*
G01X32097Y112433D01*
X31805Y112550*
X31472*
X31097Y112375*
X30805Y112083*
X30597Y111733*
X30430Y111150*
X30388Y110625*
X30472Y110100*
X30597Y109750*
X30847Y109400*
X31138Y109167*
X31430Y109050*
X31722*
X32013Y109167*
X32263Y109342*
X32472Y109575*
X33113Y109750D02*
G01X33363Y109342D01*
X33697Y109108*
X34072Y109050*
X34405Y109108*
X34738Y109400*
X34947Y109750*
X34988Y110100*
X34905Y110508*
X34613Y110800*
X34322Y110917*
X33947*
X34322D02*
G01X34572Y111092D01*
X34780Y111383*
X34863Y111733*
X34780Y112083*
X34572Y112375*
X34197Y112550*
X33822Y112492*
X33447Y112258*
X36630Y112550D02*
G01X36297Y112433D01*
X36047Y112142*
X35880Y111792*
X35755Y111325*
X35713Y110800*
X35755Y110275*
X35880Y109808*
X36047Y109458*
X36297Y109167*
X36630Y109050*
X36963Y109167*
X37213Y109458*
X37380Y109808*
X37505Y110275*
X37547Y110800*
X37505Y111325*
X37380Y111792*
X37213Y112142*
X36963Y112433*
X36630Y112550*
X49055Y193283D02*
G01X48722Y193575D01*
X48347Y193750*
X48013*
X47680Y193575*
X47430Y193283*
X47305Y192875*
X47388Y192467*
X47597Y192117*
X47972Y191883*
X48472Y191767*
X48763Y191533*
X48888Y191125*
X48805Y190717*
X48597Y190425*
X48305Y190250*
X48013*
X47722Y190367*
X47472Y190658*
X46497Y193750D02*
G01Y190250D01*
X45663*
X45330Y190425*
X45080Y190658*
X44872Y191008*
X44705Y191417*
X44663Y192000*
X44705Y192583*
X44872Y192992*
X45080Y193342*
X45330Y193575*
X45663Y193750*
X46497*
X44022D02*
G01X42980Y190250D01*
X41938Y193750*
X42313Y192525D02*
G01X43647D01*
X43747Y170250D02*
G01X43955Y169900D01*
X44205Y169667*
X44497Y169550*
X44830Y169667*
X45080Y169900*
X45330Y170250*
X45413Y170717*
Y173050*
X46388Y171008D02*
G01X46680Y171417D01*
X46930Y171650*
X47263Y171767*
X47555Y171650*
X47763Y171417*
X47930Y171067*
X47972Y170658*
X47930Y170308*
X47763Y169958*
X47513Y169667*
X47222Y169550*
X46888Y169667*
X46597Y170017*
X46430Y170542*
X46388Y171125*
X46472Y171883*
X46597Y172292*
X46805Y172700*
X47097Y172992*
X47388Y173050*
X47680Y172933*
X47888Y172642*
X33947Y182550D02*
G01X34155Y182200D01*
X34405Y181967*
X34697Y181850*
X35030Y181967*
X35280Y182200*
X35530Y182550*
X35613Y183017*
Y185350*
X36463Y182375D02*
G01X36713Y182083D01*
X37005Y181908*
X37380Y181850*
X37755Y181967*
X38047Y182200*
X38255Y182608*
X38297Y183075*
X38213Y183542*
X38005Y183833*
X37713Y184067*
X37422Y184125*
X37130Y184067*
X36755Y183833*
X36880Y185350*
X38005*
X59713Y165150D02*
G01Y161650D01*
X58713*
X58380Y161825*
X58130Y162233*
X58047Y162700*
X58130Y163167*
X58338Y163517*
X58713Y163692*
X59713*
X57530Y161650D02*
G01X56947Y165150D01*
X56280Y161650*
X55613Y165150*
X55030Y161650*
X54763Y165150D02*
G01Y161650D01*
X53680Y164567*
X52597Y161650*
Y165150*
X70438Y164383D02*
G01X69438D01*
X69980Y163625D02*
G01Y165142D01*
X68297Y165025D02*
G01X68047Y165317D01*
X67755Y165492*
X67380Y165550*
X67005Y165433*
X66713Y165200*
X66505Y164792*
X66463Y164325*
X66547Y163858*
X66755Y163567*
X67047Y163333*
X67338Y163275*
X67630Y163333*
X68005Y163567*
X67880Y162050*
X66755*
X65822D02*
G01X64780Y165550D01*
X63738Y162050*
X78430Y163700D02*
G01X77597D01*
Y164750*
X77847Y165100*
X78138Y165333*
X78555Y165450*
X78972Y165333*
X79263Y165100*
X79513Y164750*
X79680Y164342*
X79763Y163875*
Y163467*
X79680Y163117*
X79513Y162708*
X79263Y162358*
X79013Y162125*
X78680Y161950*
X78388*
X78055Y162067*
X77805Y162300*
X77038Y165450D02*
G01Y161950D01*
X75122Y165450*
Y161950*
X74397Y165450D02*
G01Y161950D01*
X73563*
X73230Y162125*
X72980Y162358*
X72772Y162708*
X72605Y163117*
X72563Y163700*
X72605Y164283*
X72772Y164692*
X72980Y165042*
X73230Y165275*
X73563Y165450*
X74397*
X81130Y167250D02*
G01X51130D01*
Y177250*
X81130*
Y167250*
X72810Y152108D02*
G01X72560Y152283D01*
X72269Y152400*
X71935*
X71560Y152225*
X71269Y151933*
X71060Y151583*
X70894Y151000*
X70852Y150475*
X70935Y149950*
X71060Y149600*
X71310Y149250*
X71602Y149017*
X71894Y148900*
X72185*
X72477Y149017*
X72727Y149192*
X72935Y149425*
X74494Y148900D02*
G01Y152400D01*
X73994Y151700*
Y148900D02*
G01X74994D01*
X76177Y149600D02*
G01X76427Y149192D01*
X76760Y148958*
X77135Y148900*
X77469Y148958*
X77802Y149250*
X78010Y149600*
X78052Y149950*
X77969Y150358*
X77677Y150650*
X77385Y150767*
X77010*
X77385D02*
G01X77635Y150942D01*
X77844Y151233*
X77927Y151583*
X77844Y151933*
X77635Y152225*
X77260Y152400*
X76885Y152342*
X76510Y152108*
X70338Y192583D02*
G01X69338D01*
X69880Y191825D02*
G01Y193342D01*
X68197Y193225D02*
G01X67947Y193517D01*
X67655Y193692*
X67280Y193750*
X66905Y193633*
X66613Y193400*
X66405Y192992*
X66363Y192525*
X66447Y192058*
X66655Y191767*
X66947Y191533*
X67238Y191475*
X67530Y191533*
X67905Y191767*
X67780Y190250*
X66655*
X65722D02*
G01X64680Y193750D01*
X63638Y190250*
X59555Y193083D02*
G01X59222Y193375D01*
X58847Y193550*
X58513*
X58180Y193375*
X57930Y193083*
X57805Y192675*
X57888Y192267*
X58097Y191917*
X58472Y191683*
X58972Y191567*
X59263Y191333*
X59388Y190925*
X59305Y190517*
X59097Y190225*
X58805Y190050*
X58513*
X58222Y190167*
X57972Y190458*
X55163Y190342D02*
G01X55413Y190167D01*
X55705Y190050*
X56038*
X56413Y190225*
X56705Y190517*
X56913Y190867*
X57080Y191450*
X57122Y191975*
X57038Y192500*
X56913Y192850*
X56663Y193200*
X56372Y193433*
X56080Y193550*
X55788*
X55497Y193433*
X55247Y193258*
X55038Y193025*
X54313Y190050D02*
G01Y193550D01*
X52647*
X81838Y17250D02*
G01X82880Y20750D01*
X83922Y17250*
X83547Y18475D02*
G01X82213D01*
X85480Y17250D02*
G01X85147Y17308D01*
X84855Y17542*
X84605Y17892*
X84438Y18300*
X84355Y18767*
Y19233*
X84438Y19700*
X84605Y20108*
X84855Y20458*
X85147Y20692*
X85480Y20750*
X85813Y20692*
X86105Y20458*
X86355Y20108*
X86522Y19700*
X86605Y19233*
Y18767*
X86522Y18300*
X86355Y17892*
X86105Y17542*
X85813Y17308*
X85480Y17250*
X88080D02*
G01Y20750D01*
X87580Y20050*
Y17250D02*
G01X88580D01*
X90863Y17750D02*
G01X91113Y17342D01*
X91447Y17108*
X91822Y17050*
X92155Y17108*
X92488Y17400*
X92697Y17750*
X92738Y18100*
X92655Y18508*
X92363Y18800*
X92072Y18917*
X91697*
X92072D02*
G01X92322Y19092D01*
X92530Y19383*
X92613Y19733*
X92530Y20083*
X92322Y20375*
X91947Y20550*
X91572Y20492*
X91197Y20258*
X94380Y16933D02*
G01X94297Y16992D01*
Y17108*
X94380Y17167*
X94463Y17108*
Y16992*
X94380Y16933*
X96063Y17750D02*
G01X96313Y17342D01*
X96647Y17108*
X97022Y17050*
X97355Y17108*
X97688Y17400*
X97897Y17750*
X97938Y18100*
X97855Y18508*
X97563Y18800*
X97272Y18917*
X96897*
X97272D02*
G01X97522Y19092D01*
X97730Y19383*
X97813Y19733*
X97730Y20083*
X97522Y20375*
X97147Y20550*
X96772Y20492*
X96397Y20258*
X98538Y20550D02*
G01X99580Y17050D01*
X100622Y20550*
X74477Y9253D02*
G01X74686Y8903D01*
X74936Y8669*
X75227Y8553*
X75561Y8669*
X75810Y8903*
X76061Y9253*
X76144Y9719*
Y12053*
X77910Y8553D02*
G01X78202Y8611D01*
X78536Y8786*
X78744Y9078*
X78827Y9486*
X78744Y9894*
X78494Y10244*
X78119Y10420*
X77702*
X77452Y10536*
X77244Y10828*
X77160Y11236*
X77286Y11644*
X77577Y11936*
X77910Y12053*
X78244Y11936*
X78536Y11644*
X78660Y11236*
X78577Y10828*
X78369Y10536*
X78119Y10420*
X77702*
X77327Y10244*
X77077Y9894*
X76994Y9486*
X77077Y9078*
X77286Y8786*
X77619Y8611*
X77910Y8553*
X96213Y63750D02*
G01Y67250D01*
X97047*
X97380Y67075*
X97630Y66842*
X97838Y66492*
X98005Y66083*
X98047Y65500*
X98005Y64917*
X97838Y64508*
X97630Y64158*
X97380Y63925*
X97047Y63750*
X96213*
X98813Y64450D02*
G01X99063Y64042D01*
X99397Y63808*
X99772Y63750*
X100105Y63808*
X100438Y64100*
X100647Y64450*
X100688Y64800*
X100605Y65208*
X100313Y65500*
X100022Y65617*
X99647*
X100022D02*
G01X100272Y65792D01*
X100480Y66083*
X100563Y66433*
X100480Y66783*
X100272Y67075*
X99897Y67250*
X99522Y67192*
X99147Y66958*
X96800Y74700D02*
G01X100800Y70950D01*
X96000Y74700D02*
G01X101500D01*
X100800Y78450D02*
G01X96800Y74700D01*
Y70950D02*
G01Y78450D01*
X93638Y87483D02*
G01X93813Y87733D01*
X93930Y88025*
Y88358*
X93755Y88733*
X93463Y89025*
X93113Y89233*
X92530Y89400*
X92005Y89442*
X91480Y89358*
X91130Y89233*
X90780Y88983*
X90547Y88692*
X90430Y88400*
Y88108*
X90547Y87817*
X90722Y87567*
X90955Y87358*
X90430Y85800D02*
G01X93930D01*
X93230Y86300*
X90430D02*
G01Y85300D01*
Y82700D02*
G01X93930D01*
X91422Y84242*
Y82158*
X99638Y87483D02*
G01X99813Y87733D01*
X99930Y88025*
Y88358*
X99755Y88733*
X99463Y89025*
X99113Y89233*
X98530Y89400*
X98005Y89442*
X97480Y89358*
X97130Y89233*
X96780Y88983*
X96547Y88692*
X96430Y88400*
Y88108*
X96547Y87817*
X96722Y87567*
X96955Y87358*
X96430Y85800D02*
G01X99930D01*
X99230Y86300*
X96430D02*
G01Y85300D01*
X96955Y84117D02*
G01X96663Y83867D01*
X96488Y83575*
X96430Y83200*
X96547Y82825*
X96780Y82533*
X97188Y82325*
X97655Y82283*
X98122Y82367*
X98413Y82575*
X98647Y82867*
X98705Y83158*
X98647Y83450*
X98413Y83825*
X99930Y83700*
Y82575*
X79230Y192100D02*
G01X78397D01*
Y193150*
X78647Y193500*
X78938Y193733*
X79355Y193850*
X79772Y193733*
X80063Y193500*
X80313Y193150*
X80480Y192742*
X80563Y192275*
Y191867*
X80480Y191517*
X80313Y191108*
X80063Y190758*
X79813Y190525*
X79480Y190350*
X79188*
X78855Y190467*
X78605Y190700*
X77838Y193850D02*
G01Y190350D01*
X75922Y193850*
Y190350*
X75197Y193850D02*
G01Y190350D01*
X74363*
X74030Y190525*
X73780Y190758*
X73572Y191108*
X73405Y191517*
X73363Y192100*
X73405Y192683*
X73572Y193092*
X73780Y193442*
X74030Y193675*
X74363Y193850*
X75197*
X79051Y173000D02*
G01X75551D01*
X76251Y172500*
X79051D02*
G01Y173500D01*
X105613Y19117D02*
G01X105780Y19292D01*
X105905Y19583*
X105988Y19992*
X105905Y20342*
X105738Y20575*
X105447Y20750*
X104322*
Y17250*
X105697*
X105988Y17483*
X106155Y17833*
X106238Y18242*
X106155Y18650*
X105905Y19000*
X105613Y19117*
X104322*
X114338Y17250D02*
G01X115380Y20750D01*
X116422Y17250*
X116047Y18475D02*
G01X114713D01*
X123230Y19000D02*
G01X124063D01*
Y17950*
X123813Y17600*
X123522Y17367*
X123105Y17250*
X122688Y17367*
X122397Y17600*
X122147Y17950*
X121980Y18358*
X121897Y18825*
Y19233*
X121980Y19583*
X122147Y19992*
X122397Y20342*
X122647Y20575*
X122980Y20750*
X123272*
X123605Y20633*
X123855Y20400*
X124622Y17250D02*
G01Y20750D01*
X126538Y17250*
Y20750*
X127263Y17250D02*
G01Y20750D01*
X128097*
X128430Y20575*
X128680Y20342*
X128888Y19992*
X129055Y19583*
X129097Y19000*
X129055Y18417*
X128888Y18008*
X128680Y17658*
X128430Y17425*
X128097Y17250*
X127263*
X122080Y29750D02*
G01X123080D01*
X122580D02*
G01Y26250D01*
X122080D02*
G01X123080D01*
X126097Y29458D02*
G01X125847Y29633D01*
X125555Y29750*
X125222*
X124847Y29575*
X124555Y29283*
X124347Y28933*
X124180Y28350*
X124138Y27825*
X124222Y27300*
X124347Y26950*
X124597Y26600*
X124888Y26367*
X125180Y26250*
X125472*
X125763Y26367*
X126013Y26542*
X126222Y26775*
X127780Y26250D02*
G01Y29750D01*
X127280Y29050*
Y26250D02*
G01X128280D01*
X100800Y78450D02*
G01Y70950D01*
X104238Y106783D02*
G01X104413Y107033D01*
X104530Y107325*
Y107658*
X104355Y108033*
X104063Y108325*
X103713Y108533*
X103130Y108700*
X102605Y108742*
X102080Y108658*
X101730Y108533*
X101380Y108283*
X101147Y107992*
X101030Y107700*
Y107408*
X101147Y107117*
X101322Y106867*
X101555Y106658*
X101030Y105100D02*
G01X104530D01*
X103830Y105600*
X101030D02*
G01Y104600D01*
X103947Y103292D02*
G01X104297Y103042D01*
X104472Y102750*
X104530Y102417*
X104413Y102000*
X104122Y101708*
X103772Y101625*
X103422Y101667*
X103130Y101833*
X102547Y102667*
X102138Y103042*
X101555Y103292*
X101030Y103375*
Y101625*
X108243Y152108D02*
G01X107993Y152283D01*
X107702Y152400*
X107368*
X106993Y152225*
X106702Y151933*
X106493Y151583*
X106327Y151000*
X106285Y150475*
X106368Y149950*
X106493Y149600*
X106743Y149250*
X107035Y149017*
X107327Y148900*
X107618*
X107910Y149017*
X108160Y149192*
X108368Y149425*
X109927Y148900D02*
G01Y152400D01*
X109427Y151700*
Y148900D02*
G01X110427D01*
X112527D02*
G01Y152400D01*
X112027Y151700*
Y148900D02*
G01X113027D01*
X131938Y17150D02*
G01X132980Y20650D01*
X134022Y17150*
X133647Y18375D02*
G01X132313D01*
X135580Y17150D02*
G01X135247Y17208D01*
X134955Y17442*
X134705Y17792*
X134538Y18200*
X134455Y18667*
Y19133*
X134538Y19600*
X134705Y20008*
X134955Y20358*
X135247Y20592*
X135580Y20650*
X135913Y20592*
X136205Y20358*
X136455Y20008*
X136622Y19600*
X136705Y19133*
Y18667*
X136622Y18200*
X136455Y17792*
X136205Y17442*
X135913Y17208*
X135580Y17150*
X137388Y20067D02*
G01X137638Y20417D01*
X137930Y20592*
X138263Y20650*
X138680Y20533*
X138972Y20242*
X139055Y19892*
X139013Y19542*
X138847Y19250*
X138013Y18667*
X137638Y18258*
X137388Y17675*
X137305Y17150*
X139055*
X144477Y9253D02*
G01X144686Y8903D01*
X144936Y8669*
X145227Y8553*
X145560Y8669*
X145810Y8903*
X146061Y9253*
X146144Y9719*
Y12053*
X147827Y8553D02*
G01X147910Y9311D01*
X148036Y9953*
X148202Y10536*
X148410Y11178*
X148744Y12053*
X147077*
X138605Y40317D02*
G01X138938Y40025D01*
X139313Y39850*
X139647*
X139980Y40025*
X140230Y40317*
X140355Y40725*
X140272Y41133*
X140063Y41483*
X139688Y41717*
X139188Y41833*
X138897Y42067*
X138772Y42475*
X138855Y42883*
X139063Y43175*
X139355Y43350*
X139647*
X139938Y43233*
X140188Y42942*
X141205Y40317D02*
G01X141538Y40025D01*
X141913Y39850*
X142247*
X142580Y40025*
X142830Y40317*
X142955Y40725*
X142872Y41133*
X142663Y41483*
X142288Y41717*
X141788Y41833*
X141497Y42067*
X141372Y42475*
X141455Y42883*
X141663Y43175*
X141955Y43350*
X142247*
X142538Y43233*
X142788Y42942*
X144680Y39850D02*
G01X144347Y39908D01*
X144055Y40142*
X143805Y40492*
X143638Y40900*
X143555Y41367*
Y41833*
X143638Y42300*
X143805Y42708*
X144055Y43058*
X144347Y43292*
X144680Y43350*
X145013Y43292*
X145305Y43058*
X145555Y42708*
X145722Y42300*
X145805Y41833*
Y41367*
X145722Y40900*
X145555Y40492*
X145305Y40142*
X145013Y39908*
X144680Y39850*
X146447D02*
G01Y43350D01*
X147447*
X147780Y43175*
X148030Y42767*
X148113Y42300*
X148030Y41833*
X147822Y41483*
X147447Y41308*
X146447*
X149088Y42767D02*
G01X149338Y43117D01*
X149630Y43292*
X149963Y43350*
X150380Y43233*
X150672Y42942*
X150755Y42592*
X150713Y42242*
X150547Y41950*
X149713Y41367*
X149338Y40958*
X149088Y40375*
X149005Y39850*
X150755*
X152980D02*
G01Y43350D01*
X151438Y40842*
X153522*
X138430Y132950D02*
G01X155230D01*
X145247Y157158D02*
G01X144997Y157333D01*
X144705Y157450*
X144372*
X143997Y157275*
X143705Y156983*
X143497Y156633*
X143330Y156050*
X143288Y155525*
X143372Y155000*
X143497Y154650*
X143747Y154300*
X144038Y154067*
X144330Y153950*
X144622*
X144913Y154067*
X145163Y154242*
X145372Y154475*
X146930Y153950D02*
G01Y157450D01*
X146430Y156750*
Y153950D02*
G01X147430D01*
X149530D02*
G01X149822Y154008D01*
X150155Y154183*
X150363Y154475*
X150447Y154883*
X150363Y155292*
X150113Y155642*
X149738Y155817*
X149322*
X149072Y155933*
X148863Y156225*
X148780Y156633*
X148905Y157042*
X149197Y157333*
X149530Y157450*
X149863Y157333*
X150155Y157042*
X150280Y156633*
X150197Y156225*
X149988Y155933*
X149738Y155817*
X149322*
X148947Y155642*
X148697Y155292*
X148613Y154883*
X148697Y154475*
X148905Y154183*
X149238Y154008*
X149530Y153950*
X153213Y19117D02*
G01X153380Y19292D01*
X153505Y19583*
X153588Y19992*
X153505Y20342*
X153338Y20575*
X153047Y20750*
X151922*
Y17250*
X153297*
X153588Y17483*
X153755Y17833*
X153838Y18242*
X153755Y18650*
X153505Y19000*
X153213Y19117*
X151922*
X155480Y20750D02*
G01X155147Y20633D01*
X154897Y20342*
X154730Y19992*
X154605Y19525*
X154563Y19000*
X154605Y18475*
X154730Y18008*
X154897Y17658*
X155147Y17367*
X155480Y17250*
X155813Y17367*
X156063Y17658*
X156230Y18008*
X156355Y18475*
X156397Y19000*
X156355Y19525*
X156230Y19992*
X156063Y20342*
X155813Y20633*
X155480Y20750*
X157288Y20167D02*
G01X157538Y20517D01*
X157830Y20692*
X158163Y20750*
X158580Y20633*
X158872Y20342*
X158955Y19992*
X158913Y19642*
X158747Y19350*
X157913Y18767*
X157538Y18358*
X157288Y17775*
X157205Y17250*
X158955*
X163030Y19000D02*
G01X163863D01*
Y17950*
X163613Y17600*
X163322Y17367*
X162905Y17250*
X162488Y17367*
X162197Y17600*
X161947Y17950*
X161780Y18358*
X161697Y18825*
Y19233*
X161780Y19583*
X161947Y19992*
X162197Y20342*
X162447Y20575*
X162780Y20750*
X163072*
X163405Y20633*
X163655Y20400*
X164422Y17250D02*
G01Y20750D01*
X166338Y17250*
Y20750*
X167063Y17250D02*
G01Y20750D01*
X167897*
X168230Y20575*
X168480Y20342*
X168688Y19992*
X168855Y19583*
X168897Y19000*
X168855Y18417*
X168688Y18008*
X168480Y17658*
X168230Y17425*
X167897Y17250*
X167063*
X153963Y76550D02*
G01Y74042D01*
X154130Y73517*
X154463Y73167*
X154880Y73050*
X155297Y73167*
X155630Y73517*
X155797Y74042*
Y76550*
X156563Y73575D02*
G01X156813Y73283D01*
X157105Y73108*
X157480Y73050*
X157855Y73167*
X158147Y73400*
X158355Y73808*
X158397Y74275*
X158313Y74742*
X158105Y75033*
X157813Y75267*
X157522Y75325*
X157230Y75267*
X156855Y75033*
X156980Y76550*
X158105*
X166638Y118732D02*
G01X166813Y118982D01*
X166930Y119274*
Y119607*
X166755Y119982*
X166463Y120274*
X166113Y120482*
X165530Y120649*
X165005Y120690*
X164480Y120607*
X164130Y120482*
X163780Y120232*
X163547Y119940*
X163430Y119649*
Y119357*
X163547Y119066*
X163722Y118816*
X163955Y118607*
X163430Y117049D02*
G01X166930D01*
X166230Y117549*
X163430D02*
G01Y116549D01*
X164888Y115240D02*
G01X165297Y114949D01*
X165530Y114699*
X165647Y114365*
X165530Y114074*
X165297Y113866*
X164947Y113699*
X164538Y113657*
X164188Y113699*
X163838Y113866*
X163547Y114115*
X163430Y114407*
X163547Y114740*
X163897Y115032*
X164422Y115199*
X165005Y115240*
X165763Y115157*
X166172Y115032*
X166580Y114824*
X166872Y114532*
X166930Y114240*
X166813Y113949*
X166522Y113740*
X160638Y118732D02*
G01X160813Y118982D01*
X160930Y119274*
Y119607*
X160755Y119982*
X160463Y120274*
X160113Y120482*
X159530Y120649*
X159005Y120690*
X158480Y120607*
X158130Y120482*
X157780Y120232*
X157547Y119940*
X157430Y119649*
Y119357*
X157547Y119066*
X157722Y118816*
X157955Y118607*
X157430Y117049D02*
G01X160930D01*
X160230Y117549*
X157430D02*
G01Y116549D01*
Y114532D02*
G01X158188Y114449D01*
X158830Y114324*
X159413Y114157*
X160055Y113949*
X160930Y113616*
Y115282*
X172447Y143850D02*
G01Y147350D01*
X173488*
X173822Y147175*
X174030Y146942*
X174113Y146475*
X174030Y146008*
X173780Y145717*
X173488Y145542*
X172447*
X173488D02*
G01X174113Y143850D01*
X175172Y144258D02*
G01X175463Y143967D01*
X175797Y143850*
X176130Y143967*
X176422Y144317*
X176630Y144842*
X176713Y145367*
Y146008*
X176630Y146533*
X176422Y147000*
X176172Y147233*
X175880Y147350*
X175547Y147233*
X175297Y147000*
X175130Y146650*
X175047Y146183*
X175130Y145775*
X175338Y145367*
X175588Y145133*
X175880Y145075*
X176213Y145192*
X176463Y145483*
X176713Y146008*
X172447Y129950D02*
G01Y133450D01*
X173488*
X173822Y133275*
X174030Y133042*
X174113Y132575*
X174030Y132108*
X173780Y131817*
X173488Y131642*
X172447*
X173488D02*
G01X174113Y129950D01*
X175880D02*
G01Y133450D01*
X175380Y132750*
Y129950D02*
G01X176380D01*
X178480Y133450D02*
G01X178147Y133333D01*
X177897Y133042*
X177730Y132692*
X177605Y132225*
X177563Y131700*
X177605Y131175*
X177730Y130708*
X177897Y130358*
X178147Y130067*
X178480Y129950*
X178813Y130067*
X179063Y130358*
X179230Y130708*
X179355Y131175*
X179397Y131700*
X179355Y132225*
X179230Y132692*
X179063Y133042*
X178813Y133333*
X178480Y133450*
X172312Y139088D02*
G01Y142588D01*
X173354*
X173687Y142413*
X173895Y142180*
X173978Y141713*
X173895Y141246*
X173645Y140955*
X173354Y140780*
X172312*
X173354D02*
G01X173978Y139088D01*
X175745D02*
G01Y142588D01*
X175245Y141888*
Y139088D02*
G01X176245D01*
X177554Y142005D02*
G01X177804Y142354D01*
X178095Y142530*
X178429Y142588*
X178845Y142471*
X179137Y142180*
X179220Y141830*
X179179Y141480*
X179012Y141188*
X178179Y140605*
X177804Y140196*
X177554Y139613*
X177470Y139088*
X179220*
X174062Y137965D02*
G01X173812Y138140D01*
X173520Y138257*
X173187*
X172812Y138082*
X172520Y137790*
X172312Y137440*
X172145Y136857*
X172104Y136332*
X172187Y135807*
X172312Y135457*
X172562Y135107*
X172854Y134874*
X173145Y134757*
X173437*
X173729Y134874*
X173978Y135049*
X174187Y135282*
X175745Y134757D02*
G01Y138257D01*
X175245Y137557*
Y134757D02*
G01X176245D01*
X178345Y138257D02*
G01X178012Y138140D01*
X177762Y137849*
X177595Y137499*
X177470Y137032*
X177428Y136507*
X177470Y135982*
X177595Y135515*
X177762Y135165*
X178012Y134874*
X178345Y134757*
X178678Y134874*
X178928Y135165*
X179095Y135515*
X179220Y135982*
X179262Y136507*
X179220Y137032*
X179095Y137499*
X178928Y137849*
X178678Y138140*
X178345Y138257*
X174397Y161758D02*
G01X174147Y161933D01*
X173855Y162050*
X173522*
X173147Y161875*
X172855Y161583*
X172647Y161233*
X172480Y160650*
X172438Y160125*
X172522Y159600*
X172647Y159250*
X172897Y158900*
X173188Y158667*
X173480Y158550*
X173772*
X174063Y158667*
X174313Y158842*
X174522Y159075*
X175997Y158550D02*
G01X176080Y159308D01*
X176205Y159950*
X176372Y160533*
X176580Y161175*
X176913Y162050*
X175247*
X172547Y148550D02*
G01Y152050D01*
X173588*
X173922Y151875*
X174130Y151642*
X174213Y151175*
X174130Y150708*
X173880Y150417*
X173588Y150242*
X172547*
X173588D02*
G01X174213Y148550D01*
X175980D02*
G01Y152050D01*
X175480Y151350*
Y148550D02*
G01X176480D01*
X178580D02*
G01Y152050D01*
X178080Y151350*
Y148550D02*
G01X179080D01*
X174397Y156758D02*
G01X174147Y156933D01*
X173855Y157050*
X173522*
X173147Y156875*
X172855Y156583*
X172647Y156233*
X172480Y155650*
X172438Y155125*
X172522Y154600*
X172647Y154250*
X172897Y153900*
X173188Y153667*
X173480Y153550*
X173772*
X174063Y153667*
X174313Y153842*
X174522Y154075*
X176080Y153550D02*
G01X176372Y153608D01*
X176705Y153783*
X176913Y154075*
X176997Y154483*
X176913Y154892*
X176663Y155242*
X176288Y155417*
X175872*
X175622Y155533*
X175413Y155825*
X175330Y156233*
X175455Y156642*
X175747Y156933*
X176080Y157050*
X176413Y156933*
X176705Y156642*
X176830Y156233*
X176747Y155825*
X176538Y155533*
X176288Y155417*
X175872*
X175497Y155242*
X175247Y154892*
X175163Y154483*
X175247Y154075*
X175455Y153783*
X175788Y153608*
X176080Y153550*
X191063Y17750D02*
G01X191313Y17342D01*
X191647Y17108*
X192022Y17050*
X192355Y17108*
X192688Y17400*
X192897Y17750*
X192938Y18100*
X192855Y18508*
X192563Y18800*
X192272Y18917*
X191897*
X192272D02*
G01X192522Y19092D01*
X192730Y19383*
X192813Y19733*
X192730Y20083*
X192522Y20375*
X192147Y20550*
X191772Y20492*
X191397Y20258*
X194580Y16933D02*
G01X194497Y16992D01*
Y17108*
X194580Y17167*
X194663Y17108*
Y16992*
X194580Y16933*
X196263Y17750D02*
G01X196513Y17342D01*
X196847Y17108*
X197222Y17050*
X197555Y17108*
X197888Y17400*
X198097Y17750*
X198138Y18100*
X198055Y18508*
X197763Y18800*
X197472Y18917*
X197097*
X197472D02*
G01X197722Y19092D01*
X197930Y19383*
X198013Y19733*
X197930Y20083*
X197722Y20375*
X197347Y20550*
X196972Y20492*
X196597Y20258*
X198738Y20550D02*
G01X199780Y17050D01*
X200822Y20550*
X173838Y17450D02*
G01X174880Y20950D01*
X175922Y17450*
X175547Y18675D02*
G01X174213D01*
X185613Y19317D02*
G01X185780Y19492D01*
X185905Y19783*
X185988Y20192*
X185905Y20542*
X185738Y20775*
X185447Y20950*
X184322*
Y17450*
X185697*
X185988Y17683*
X186155Y18033*
X186238Y18442*
X186155Y18850*
X185905Y19200*
X185613Y19317*
X184322*
X188363Y129450D02*
G01Y126942D01*
X188530Y126417*
X188863Y126067*
X189280Y125950*
X189697Y126067*
X190030Y126417*
X190197Y126942*
Y129450*
X191088Y128867D02*
G01X191338Y129217D01*
X191630Y129392*
X191963Y129450*
X192380Y129333*
X192672Y129042*
X192755Y128692*
X192713Y128342*
X192547Y128050*
X191713Y127467*
X191338Y127058*
X191088Y126475*
X191005Y125950*
X192755*
X192997Y167950D02*
G01X193205Y167600D01*
X193455Y167367*
X193747Y167250*
X194080Y167367*
X194330Y167600*
X194580Y167950*
X194663Y168417*
Y170750*
X196930Y167250D02*
G01Y170750D01*
X195388Y168242*
X197472*
X204313Y18817D02*
G01X204480Y18992D01*
X204605Y19283*
X204688Y19692*
X204605Y20042*
X204438Y20275*
X204147Y20450*
X203022*
Y16950*
X204397*
X204688Y17183*
X204855Y17533*
X204938Y17942*
X204855Y18350*
X204605Y18700*
X204313Y18817*
X203022*
X206580Y16950D02*
G01X206247Y17008D01*
X205955Y17242*
X205705Y17592*
X205538Y18000*
X205455Y18467*
Y18933*
X205538Y19400*
X205705Y19808*
X205955Y20158*
X206247Y20392*
X206580Y20450*
X206913Y20392*
X207205Y20158*
X207455Y19808*
X207622Y19400*
X207705Y18933*
Y18467*
X207622Y18000*
X207455Y17592*
X207205Y17242*
X206913Y17008*
X206580Y16950*
X209180D02*
G01Y20450D01*
X208680Y19750*
Y16950D02*
G01X209680D01*
X223047Y25350D02*
G01Y28850D01*
X224088*
X224422Y28675*
X224630Y28442*
X224713Y27975*
X224630Y27508*
X224380Y27217*
X224088Y27042*
X223047*
X224088D02*
G01X224713Y25350D01*
X225563Y26050D02*
G01X225813Y25642D01*
X226147Y25408*
X226522Y25350*
X226855Y25408*
X227188Y25700*
X227397Y26050*
X227438Y26400*
X227355Y26808*
X227063Y27100*
X226772Y27217*
X226397*
X226772D02*
G01X227022Y27392D01*
X227230Y27683*
X227313Y28033*
X227230Y28383*
X227022Y28675*
X226647Y28850*
X226272Y28792*
X225897Y28558*
X222997Y128058D02*
G01X222747Y128233D01*
X222455Y128350*
X222122*
X221747Y128175*
X221455Y127883*
X221247Y127533*
X221080Y126950*
X221038Y126425*
X221122Y125900*
X221247Y125550*
X221497Y125200*
X221788Y124967*
X222080Y124850*
X222372*
X222663Y124967*
X222913Y125142*
X223122Y125375*
X223888Y127767D02*
G01X224138Y128117D01*
X224430Y128292*
X224763Y128350*
X225180Y128233*
X225472Y127942*
X225555Y127592*
X225513Y127242*
X225347Y126950*
X224513Y126367*
X224138Y125958*
X223888Y125375*
X223805Y124850*
X225555*
X223280Y158250D02*
G01X222947Y158308D01*
X222655Y158542*
X222405Y158892*
X222238Y159300*
X222155Y159767*
Y160233*
X222238Y160700*
X222405Y161108*
X222655Y161458*
X222947Y161692*
X223280Y161750*
X223613Y161692*
X223905Y161458*
X224155Y161108*
X224322Y160700*
X224405Y160233*
Y159767*
X224322Y159300*
X224155Y158892*
X223905Y158542*
X223613Y158308*
X223280Y158250*
X223613Y159183D02*
G01X224113Y158250D01*
X225088Y161167D02*
G01X225338Y161517D01*
X225630Y161692*
X225963Y161750*
X226380Y161633*
X226672Y161342*
X226755Y160992*
X226713Y160642*
X226547Y160350*
X225713Y159767*
X225338Y159358*
X225088Y158775*
X225005Y158250*
X226755*
X245905Y8917D02*
G01X246238Y8625D01*
X246613Y8450*
X246947*
X247280Y8625*
X247530Y8917*
X247655Y9325*
X247572Y9733*
X247363Y10083*
X246988Y10317*
X246488Y10433*
X246197Y10667*
X246072Y11075*
X246155Y11483*
X246363Y11775*
X246655Y11950*
X246947*
X247238Y11833*
X247488Y11542*
X248130Y11950D02*
G01X248713Y8450D01*
X249380Y11950*
X250047Y8450*
X250630Y11950*
X251980Y8450D02*
G01Y11950D01*
X251480Y11250*
Y8450D02*
G01X252480D01*
X245263Y41850D02*
G01Y39342D01*
X245430Y38817*
X245763Y38467*
X246180Y38350*
X246597Y38467*
X246930Y38817*
X247097Y39342*
Y41850*
X248780Y38350D02*
G01Y41850D01*
X248280Y41150*
Y38350D02*
G01X249280D01*
X232797Y28358D02*
G01X232547Y28533D01*
X232255Y28650*
X231922*
X231547Y28475*
X231255Y28183*
X231047Y27833*
X230880Y27250*
X230838Y26725*
X230922Y26200*
X231047Y25850*
X231297Y25500*
X231588Y25267*
X231880Y25150*
X232172*
X232463Y25267*
X232713Y25442*
X232922Y25675*
X233688Y26608D02*
G01X233980Y27017D01*
X234230Y27250*
X234563Y27367*
X234855Y27250*
X235063Y27017*
X235230Y26667*
X235272Y26258*
X235230Y25908*
X235063Y25558*
X234813Y25267*
X234522Y25150*
X234188Y25267*
X233897Y25617*
X233730Y26142*
X233688Y26725*
X233772Y27483*
X233897Y27892*
X234105Y28300*
X234397Y28592*
X234688Y28650*
X234980Y28533*
X235188Y28242*
X246397Y138458D02*
G01X246147Y138633D01*
X245855Y138750*
X245522*
X245147Y138575*
X244855Y138283*
X244647Y137933*
X244480Y137350*
X244438Y136825*
X244522Y136300*
X244647Y135950*
X244897Y135600*
X245188Y135367*
X245480Y135250*
X245772*
X246063Y135367*
X246313Y135542*
X246522Y135775*
X247163Y135950D02*
G01X247413Y135542D01*
X247747Y135308*
X248122Y135250*
X248455Y135308*
X248788Y135600*
X248997Y135950*
X249038Y136300*
X248955Y136708*
X248663Y137000*
X248372Y137117*
X247997*
X248372D02*
G01X248622Y137292D01*
X248830Y137583*
X248913Y137933*
X248830Y138283*
X248622Y138575*
X248247Y138750*
X247872Y138692*
X247497Y138458*
X237997Y127058D02*
G01X237747Y127233D01*
X237455Y127350*
X237122*
X236747Y127175*
X236455Y126883*
X236247Y126533*
X236080Y125950*
X236038Y125425*
X236122Y124900*
X236247Y124550*
X236497Y124200*
X236788Y123967*
X237080Y123850*
X237372*
X237663Y123967*
X237913Y124142*
X238122Y124375*
X240180Y123850D02*
G01Y127350D01*
X238638Y124842*
X240722*
X233047Y139950D02*
G01Y143450D01*
X234088*
X234422Y143275*
X234630Y143042*
X234713Y142575*
X234630Y142108*
X234380Y141817*
X234088Y141642*
X233047*
X234088D02*
G01X234713Y139950D01*
X235688Y141408D02*
G01X235980Y141817D01*
X236230Y142050*
X236563Y142167*
X236855Y142050*
X237063Y141817*
X237230Y141467*
X237272Y141058*
X237230Y140708*
X237063Y140358*
X236813Y140067*
X236522Y139950*
X236188Y140067*
X235897Y140417*
X235730Y140942*
X235688Y141525*
X235772Y142283*
X235897Y142692*
X236105Y143100*
X236397Y143392*
X236688Y143450*
X236980Y143333*
X237188Y143042*
X244280Y158550D02*
G01X243947Y158608D01*
X243655Y158842*
X243405Y159192*
X243238Y159600*
X243155Y160067*
Y160533*
X243238Y161000*
X243405Y161408*
X243655Y161758*
X243947Y161992*
X244280Y162050*
X244613Y161992*
X244905Y161758*
X245155Y161408*
X245322Y161000*
X245405Y160533*
Y160067*
X245322Y159600*
X245155Y159192*
X244905Y158842*
X244613Y158608*
X244280Y158550*
X244613Y159483D02*
G01X245113Y158550D01*
X246880D02*
G01Y162050D01*
X246380Y161350*
Y158550D02*
G01X247380D01*
X233281Y156243D02*
G01Y159743D01*
X234323*
X234656Y159568*
X234865Y159334*
X234948Y158868*
X234865Y158401*
X234615Y158110*
X234323Y157934*
X233281*
X234323D02*
G01X234948Y156243D01*
X235798Y156768D02*
G01X236048Y156476D01*
X236340Y156301*
X236715Y156243*
X237090Y156360*
X237381Y156593*
X237590Y157001*
X237631Y157468*
X237548Y157934*
X237340Y158226*
X237048Y158460*
X236756Y158518*
X236465Y158460*
X236090Y158226*
X236215Y159743*
X237340*
X238847Y191150D02*
G01X239055Y190800D01*
X239305Y190567*
X239597Y190450*
X239930Y190567*
X240180Y190800*
X240430Y191150*
X240513Y191617*
Y193950*
X241488Y193367D02*
G01X241738Y193717D01*
X242030Y193892*
X242363Y193950*
X242780Y193833*
X243072Y193542*
X243155Y193192*
X243113Y192842*
X242947Y192550*
X242113Y191967*
X241738Y191558*
X241488Y190975*
X241405Y190450*
X243155*
X252230Y143733D02*
G01X255730D01*
Y142692*
X255555Y142358*
X255322Y142150*
X254855Y142067*
X254388Y142150*
X254097Y142400*
X253922Y142692*
Y143733*
Y142692D02*
G01X252230Y142067D01*
X255147Y141092D02*
G01X255497Y140842D01*
X255672Y140550*
X255730Y140217*
X255613Y139800*
X255322Y139508*
X254972Y139425*
X254622Y139467*
X254330Y139633*
X253747Y140467*
X253338Y140842*
X252755Y141092*
X252230Y141175*
Y139425*
X254738Y162183D02*
G01X254913Y162433D01*
X255030Y162725*
Y163058*
X254855Y163433*
X254563Y163725*
X254213Y163933*
X253630Y164100*
X253105Y164142*
X252580Y164058*
X252230Y163933*
X251880Y163683*
X251647Y163392*
X251530Y163100*
Y162808*
X251647Y162517*
X251822Y162267*
X252055Y162058*
Y161417D02*
G01X251763Y161167D01*
X251588Y160875*
X251530Y160500*
X251647Y160125*
X251880Y159833*
X252288Y159625*
X252755Y159583*
X253222Y159667*
X253513Y159875*
X253747Y160167*
X253805Y160458*
X253747Y160750*
X253513Y161125*
X255030Y161000*
Y159875*
X262305Y170317D02*
G01X262638Y170025D01*
X263013Y169850*
X263347*
X263680Y170025*
X263930Y170317*
X264055Y170725*
X263972Y171133*
X263763Y171483*
X263388Y171717*
X262888Y171833*
X262597Y172067*
X262472Y172475*
X262555Y172883*
X262763Y173175*
X263055Y173350*
X263347*
X263638Y173233*
X263888Y172942*
X264530Y173350D02*
G01X265113Y169850D01*
X265780Y173350*
X266447Y169850*
X267030Y173350*
X267588Y172767D02*
G01X267838Y173117D01*
X268130Y173292*
X268463Y173350*
X268880Y173233*
X269172Y172942*
X269255Y172592*
X269213Y172242*
X269047Y171950*
X268213Y171367*
X267838Y170958*
X267588Y170375*
X267505Y169850*
X269255*
G54D73*
X42136Y114074D02*
G01X27765D01*
Y144488*
X37903Y154626*
X42136*
X52824Y114074D02*
G01X67195D01*
Y144488*
X57057Y154626*
X52824*
X88494Y69335D02*
G01X108966D01*
X88494Y79965D02*
G01X108966D01*
X105130Y86756D02*
G01X102130D01*
X105130Y85544D02*
G01X102130D01*
X103630Y85363D02*
G01Y84575D01*
Y87725D02*
G01Y86937D01*
X111130Y86756D02*
G01X108130D01*
X111130Y85544D02*
G01X108130D01*
X109630Y85363D02*
G01Y84575D01*
Y87725D02*
G01Y86937D01*
X104230Y115556D02*
G01X101230D01*
X104230Y114344D02*
G01X101230D01*
X102730Y114163D02*
G01Y113375D01*
Y116525D02*
G01Y115737D01*
X163230Y126493D02*
G01X166230D01*
X163230Y127705D02*
G01X166230D01*
X164730Y127886D02*
G01Y128674D01*
Y125524D02*
G01Y126312D01*
X157230Y126493D02*
G01X160230D01*
X157230Y127705D02*
G01X160230D01*
X158730Y127886D02*
G01Y128674D01*
Y125524D02*
G01Y126312D01*
X183936Y158339D02*
G01Y161339D01*
X182724Y158339D02*
G01Y161339D01*
X182543Y159839D02*
G01X181755D01*
X184905D02*
G01X184117D01*
X245917Y133032D02*
G01Y130032D01*
X247129Y133032D02*
G01Y130032D01*
X247310Y131532D02*
G01X248098D01*
X244948D02*
G01X245736D01*
X245917Y127032D02*
G01Y124032D01*
X247129Y127032D02*
G01Y124032D01*
X247310Y125532D02*
G01X248098D01*
X244948D02*
G01X245736D01*
G54D37*
X105402Y91268D02*
G01X106189D01*
Y81032*
X105402*
X101858Y91268D02*
G01X101071D01*
Y81032*
X101858*
X111402Y91268D02*
G01X112189D01*
Y81032*
X111402*
X107858Y91268D02*
G01X107071D01*
Y81032*
X107858*
X104502Y120068D02*
G01X105289D01*
Y109832*
X104502*
X100958Y120068D02*
G01X100171D01*
Y109832*
X100958*
X162958Y121981D02*
G01X162171D01*
Y132217*
X162958*
X166502Y121981D02*
G01X167289D01*
Y132217*
X166502*
X156958Y121981D02*
G01X156171D01*
Y132217*
X156958*
X160502Y121981D02*
G01X161289D01*
Y132217*
X160502*
X188448Y158067D02*
G01Y157280D01*
X178212*
Y158067*
X188448Y161611D02*
G01Y162398D01*
X178212*
Y161611*
X241405Y133304D02*
G01Y134091D01*
X251641*
Y133304*
X241405Y129760D02*
G01Y128973D01*
X251641*
Y129760*
X241405Y127304D02*
G01Y128091D01*
X251641*
Y127304*
X241405Y123760D02*
G01Y122973D01*
X251641*
Y123760*
G54D38*
X80121Y109534D02*
G03X80121Y109534I-492D01*
X93997Y197070D02*
G03X93997Y197070I-492D01*
X115554Y109534D02*
G03X115554Y109534I-492D01*
X147322Y118034D02*
G03X147322Y118034I-492D01*
G54D39*
X24786Y132963D02*
G01X23605Y131782D01*
Y132963*
X22424Y131782*
Y132963*
X21243Y131782*
Y132963*
X20062Y131782*
X19274Y132570*
Y132963*
X19668*
X20849Y131782*
X22030Y132963*
X23211Y131782*
X24392Y132963*
X24786Y132570*
Y131782*
X19274D02*
G01X24786D01*
Y132963*
X19274*
Y131782*
X24786Y134932D02*
G01X19274D01*
X22030Y131782D02*
G01Y130208D01*
Y136507D02*
G01Y134932D01*
Y122334D02*
G01Y121152D01*
X17699Y123515D02*
G01Y143200D01*
X26361*
Y123515*
X17699*
X22817Y145168D02*
G01X21243D01*
X22030Y145956D02*
G01Y144381D01*
X80774Y146935D02*
G01X68766D01*
Y122128*
X76983Y113912*
X80774*
X80189Y5079D02*
G01Y14921D01*
X140032*
Y5079*
X80189*
X89219Y146935D02*
G01X101227D01*
Y122128*
X93010Y113912*
X89219*
X187835Y167247D02*
G01X191930D01*
Y194806*
X83662*
Y167247*
X89174*
X116207Y146935D02*
G01X104199D01*
Y122128*
X112416Y113912*
X116207*
X132359Y33535D02*
G03X132359Y33535I-394D01*
X129959Y23435D02*
G03X129959Y23435I-394D01*
X124652Y146935D02*
G01X136660D01*
Y122128*
X128443Y113912*
X124652*
X140728Y121380D02*
G01X138365D01*
Y150120*
X140728*
X150189Y5079D02*
G01Y14921D01*
X210032*
Y5079*
X150189*
X152932Y121380D02*
G01X155295D01*
Y150120*
X152932*
X219614Y134050D02*
G01X218432D01*
X220795Y138381D02*
G01X240480D01*
Y129719*
X220795*
Y138381*
X234477Y17226D02*
G01X223517D01*
X229903Y17371D02*
G01Y16631D01*
X229162Y15891D02*
G01Y16410D01*
X230170Y17367D02*
G01Y17371D01*
X229017Y16481D02*
G01X229903Y17367D01*
X228052Y17521D02*
G01X229017Y16556D01*
Y16556D02*
G01Y16481D01*
X229903Y16631D02*
G01X229162Y15891D01*
X228718D02*
G01X228052Y16556D01*
Y16556D02*
G01Y17521D01*
X229162Y15891D02*
G01X228718D01*
X229162Y16410D02*
G01X229017Y16556D01*
X232895Y4407D02*
G01X232505Y4796D01*
X233470Y4407D02*
G01X232895D01*
X233470Y4907D02*
G01Y4407D01*
X233395Y4521D02*
G01X232855Y3981D01*
X232706Y3852D02*
G01X232060Y4497D01*
X232855Y3981D02*
G01Y3852D01*
X232895Y5481D02*
G01X233470Y4907D01*
X232060Y4647D02*
G01X232895Y5481D01*
X232855Y3852D02*
G01X232706D01*
X234450Y2883D02*
G01X223489D01*
X232060Y4497D02*
G01Y4647D01*
X230143Y3025D02*
G01Y3029D01*
X228025Y2214D02*
G01Y3178D01*
X229135Y1548D02*
G01Y2068D01*
Y2068D02*
G01X228989Y2214D01*
X228690Y1548D02*
G01X228025Y2214D01*
X228989D02*
G01Y2139D01*
X228025Y3178D02*
G01X228989Y2214D01*
X229875Y2289D02*
G01X229135Y1548D01*
X229875Y3029D02*
G01Y2289D01*
X228989Y2139D02*
G01X229875Y3025D01*
X229135Y1548D02*
G01X228690D01*
X225930Y4497D02*
G01Y4942D01*
X225265Y3832D02*
G01X225930Y4497D01*
Y4942D02*
G01X225375Y5497D01*
X225391Y4647D02*
G01X225651Y4907D01*
X224505Y4521D02*
G01X224950Y4076D01*
Y4076D02*
G01Y3832D01*
X225056Y5497D02*
G01X224206Y4647D01*
Y4647D02*
G01X225391D01*
X225375Y5497D02*
G01X225056D01*
X224950Y3832D02*
G01X225265D01*
X233422Y18863D02*
G01X232883Y18324D01*
X224532Y18863D02*
G01X224977Y18418D01*
X232922Y18749D02*
G01X232532Y19139D01*
X233497Y18749D02*
G01X232922D01*
X233497Y19249D02*
G01Y18749D01*
X232922Y19824D02*
G01X233497Y19249D01*
X232088Y18989D02*
G01X232922Y19824D01*
X232883Y18324D02*
G01Y18194D01*
X232733D02*
G01X232088Y18840D01*
Y18840D02*
G01Y18989D01*
X232883Y18194D02*
G01X232733D01*
X225958Y19284D02*
G01X225403Y19840D01*
Y19840D02*
G01X225084D01*
X225958Y18840D02*
G01Y19284D01*
X225292Y18174D02*
G01X225958Y18840D01*
X225418Y18989D02*
G01X225678Y19249D01*
X224233Y18989D02*
G01X225418D01*
X225084Y19840D02*
G01X224233Y18989D01*
X224977Y18418D02*
G01Y18174D01*
Y18174D02*
G01X225292D01*
X248118Y120820D02*
G03X248118Y120820I-394D01*
X230243Y131294D02*
G01X229062Y132475D01*
X230243*
X229062Y133656*
X230243*
X229062Y134837*
X230243*
X229062Y136018*
X229850Y136806*
X230243*
Y136412*
X229062Y135231*
X230243Y134050*
X229062Y132869*
X230243Y131688*
X229850Y131294*
X229062*
Y136806D02*
G01Y131294D01*
X230243*
Y136806*
X229062*
X232212Y131294D02*
G01Y136806D01*
X229062Y134050D02*
G01X227488D01*
X233787D02*
G01X232212D01*
X242448Y133263D02*
G01Y134837D01*
X243236Y134050D02*
G01X241661D01*
X230822Y164264D02*
G03X230822Y164264I-394D01*
X256820Y156042D02*
G01X257360Y155503D01*
X258458Y157097D02*
G01Y146137D01*
X258313Y152522D02*
G01X259053D01*
X259793Y151782D02*
G01X259273D01*
X256820Y147152D02*
G01X257265Y147597D01*
X256935Y155542D02*
G01X256545Y155152D01*
X256935Y156117D02*
G01Y155542D01*
X256435Y156117D02*
G01X256935D01*
X255860Y155542D02*
G01X256435Y156117D01*
X256694Y154708D02*
G01X255860Y155542D01*
X257360Y155503D02*
G01X257490D01*
Y155353D02*
G01X256844Y154708D01*
Y154708D02*
G01X256694D01*
X257490Y155503D02*
G01Y155353D01*
X258317Y152790D02*
G01X258313D01*
X259202Y151637D02*
G01X258317Y152522D01*
X258163Y150672D02*
G01X259128Y151637D01*
Y151637D02*
G01X259202D01*
X259053Y152522D02*
G01X259793Y151782D01*
Y151337D02*
G01X259128Y150672D01*
Y150672D02*
G01X258163D01*
X259793Y151782D02*
G01Y151337D01*
X259273Y151782D02*
G01X259128Y151637D01*
X256399Y148578D02*
G01X255844Y148022D01*
Y148022D02*
G01Y147704D01*
X256844Y148578D02*
G01X256399D01*
X257509Y147912D02*
G01X256844Y148578D01*
X256694Y148038D02*
G01X256435Y148298D01*
X256694Y146853D02*
G01Y148038D01*
X255844Y147704D02*
G01X256694Y146853D01*
X257265Y147597D02*
G01X257509D01*
Y147597D02*
G01Y147912D01*
X271277Y155515D02*
G01X270888Y155125D01*
X271277Y156089D02*
G01Y155515D01*
X270777Y156089D02*
G01X271277D01*
X271163Y156015D02*
G01X271702Y155475D01*
X271832Y155326D02*
G01X271187Y154680D01*
X271702Y155475D02*
G01X271832D01*
X270202Y155515D02*
G01X270777Y156089D01*
X271037Y154680D02*
G01X270202Y155515D01*
X271832Y155475D02*
G01Y155326D01*
X272801Y157070D02*
G01Y146109D01*
X271187Y154680D02*
G01X271037D01*
X272659Y152763D02*
G01X272655D01*
X273470Y150644D02*
G01X272506D01*
Y150644D02*
G01X273470Y151609D01*
X272655Y152495D02*
G01X273395D01*
X273545Y151609D02*
G01X272659Y152495D01*
X271187Y148550D02*
G01X270742D01*
X271852Y147885D02*
G01X271187Y148550D01*
X270742D02*
G01X270187Y147995D01*
X271037Y148011D02*
G01X270777Y148270D01*
X271163Y147125D02*
G01X271608Y147570D01*
Y147570D02*
G01X271852D01*
X270187Y147676D02*
G01X271037Y146826D01*
Y146826D02*
G01Y148011D01*
X270187Y147995D02*
G01Y147676D01*
X271852Y147570D02*
G01Y147885D01*
X274136Y151755D02*
G01X273616D01*
Y151755D02*
G01X273470Y151609D01*
X274136Y151310D02*
G01X273470Y150644D01*
Y151609D02*
G01X273545D01*
X273395Y152495D02*
G01X274136Y151755D01*
Y151755D02*
G01Y151310D01*
G54D40*
X34218Y160925D02*
G03X34218Y160925I-492D01*
X84458Y74650D02*
G03X84458Y74650I-492D01*
G54D31*
X6130Y58150D02*
G01X50630D01*
Y64650*
X75630*
Y98650*
X50630*
Y105150*
X6130*
Y58150*
X41030Y178250D02*
G01Y188250D01*
X80930*
Y178250*
X41030*
X80421Y68365D02*
G03X80421Y68365I-1580D01*
X222230Y143000D02*
G01Y156500D01*
X226230*
Y143000*
X222230*
X247430Y156500D02*
G01Y143000D01*
X243430*
Y156500*
X247430*
M02*
