G04 CAM350/DFMSTREAM V12.1 (Build 1022) Date:  Fri Oct 24 01:38:18 2025 *
G04 Database: (Untitled) *
G04 Layer 3: SILK_SCREEN_BOTTOM.art *
%FSLAX25Y25*%
%MOIN*%
%SFA1.000B1.000*%

%MIA0B0*%
%IPPOS*%
%ADD70C,0.00400*%
%ADD71C,0.00500*%
%ADD72C,0.00600*%
%ADD73C,0.00787*%
%ADD30C,0.00800*%
%ADD31C,0.01000*%
%ADD37C,0.00591*%
%ADD38C,0.00984*%
%ADD39C,0.00787*%
%ADD40C,0.00984*%
%LNSILK_SCREEN_BOTTOM.art*%
%LPD*%
G36*
X148230Y117250D02*
G01Y124250D01*
X193230*
Y117250*
X148230*
G37*
G36*
X32530Y12550D02*
G01Y18050D01*
X40529*
G75*
G03X40530Y18051I0J1*
G01Y41049*
G03X40529Y41050I-1J0*
G01X32530*
Y46550*
X35530Y49550*
X69030*
X72030Y46550*
Y41050*
X64531*
G03X64530Y41049I0J-1*
G01Y18051*
G03X64531Y18050I1J0*
G01X72030*
Y12550*
X69030Y9550*
X35530*
X32530Y12550*
G37*
%LPC*%
G36*
X188530Y117650D02*
G01Y123750D01*
X153030*
Y117650*
X188530*
G37*
%LPD*%
G54D70*
X148230Y124250D02*
G01Y117250D01*
Y117250D02*
G01X193230D01*
X178230Y142250D02*
G01X148230D01*
Y130250D02*
G01Y124250D01*
Y124250D02*
G01X178230D01*
X148230Y136250D02*
G01Y130250D01*
Y130250D02*
G01X178230D01*
X148230Y142250D02*
G01Y136250D01*
X178230D02*
G01X148230D01*
X193230Y117250D02*
G01Y124250D01*
Y130250D02*
G01Y142250D01*
X178230Y130250D02*
G01Y124250D01*
Y124250D02*
G01X193230D01*
Y124250D02*
G01Y130250D01*
Y130250D02*
G01X178230D01*
Y130250D02*
G01Y136250D01*
Y136250D02*
G01X193230D01*
Y142250D02*
G01X178230D01*
Y142250D02*
G01Y136250D01*
G54D71*
X28530Y9050D02*
G01Y10550D01*
X32030Y6550D02*
G01X31030D01*
X28530Y9050*
Y11550D02*
G01Y17550D01*
X50530Y6550D02*
G01X43530D01*
X40530D02*
G01X33530D01*
X50530Y8550D02*
G01X43530D01*
X40530D02*
G01X33530D01*
X31030Y11550D02*
G01Y17550D01*
X30030Y15550D02*
G01Y16550D01*
Y10550D02*
G01Y14550D01*
X35530Y7550D02*
G01X33030D01*
X30030Y10550*
X45530Y7550D02*
G01X38530D01*
X29030Y41550D02*
G01Y48550D01*
X31030Y41550D02*
G01Y48550D01*
X30030Y42550D02*
G01Y44550D01*
X32530Y53050D02*
G01X31030D01*
X29030Y50050D02*
G01Y51050D01*
X31030Y53050*
X40530D02*
G01X33530D01*
X50530D02*
G01X43530D01*
X40530Y51050D02*
G01X33530D01*
X50530D02*
G01X43530D01*
X30030Y46550D02*
G01Y49550D01*
X32530Y52050*
X45530D02*
G01X38530D01*
X36030D02*
G01X32530D01*
X75530Y9050D02*
G01X73030Y6550D01*
X71530*
X70530D02*
G01X63530D01*
X60530D02*
G01X53530D01*
X70530Y8550D02*
G01X63530D01*
X60530D02*
G01X53530D01*
X71530Y7550D02*
G01X74530Y10550D01*
Y14550*
X55530Y7550D02*
G01X48530D01*
X65530D02*
G01X58530D01*
X71530D02*
G01X68530D01*
X73030Y53050D02*
G01X71530D01*
X60530D02*
G01X53530D01*
X70530D02*
G01X63530D01*
X60530Y51050D02*
G01X53530D01*
X70530D02*
G01X63530D01*
X71530Y52050D02*
G01X68530D01*
X74462Y44941D02*
G01Y48941D01*
X71462Y51941*
X65530Y52050D02*
G01X58530D01*
X55530D02*
G01X48530D01*
X75530Y9050D02*
G01Y10550D01*
Y11550D02*
G01Y17550D01*
X73530Y11550D02*
G01Y17550D01*
X74530Y15550D02*
G01Y16550D01*
X75530Y41550D02*
G01Y48550D01*
X73530Y41550D02*
G01Y48550D01*
X74530Y42550D02*
G01Y43550D01*
X75508Y49302D02*
G01Y50302D01*
X73008Y52802*
G54D72*
X164330Y186550D02*
G01X162430D01*
X184630Y186750D02*
G01X182430D01*
X183530Y185750D02*
G01Y187650D01*
X212383Y165922D02*
G01Y166522D01*
X206077*
Y165922*
X212383Y163578D02*
G01Y162978D01*
X206077*
Y163578*
X221377D02*
G01Y162978D01*
X227683*
Y163578*
X221377Y165922D02*
G01Y166522D01*
X227683*
Y165922*
X217022Y185615D02*
G01X218622D01*
X217022Y186615D02*
G01X218622D01*
X216650Y189264D02*
G01X216050D01*
Y182965*
X216650*
X218994Y189264D02*
G01X219594D01*
Y182965*
X218994*
X233502Y53097D02*
G01X234102D01*
Y59403*
X233502*
X231158Y53097D02*
G01X230558D01*
Y59403*
X231158*
X229171Y53097D02*
G01X229771D01*
Y59403*
X229171*
X226828Y53097D02*
G01X226228D01*
Y59403*
X226828*
G54D30*
X54013Y58750D02*
G01Y55250D01*
X52347*
X50580D02*
G01Y58750D01*
X51080Y58050*
Y55250D02*
G01X50080D01*
X93630Y46550D02*
G01X110630D01*
X88322Y53633D02*
G01X88147Y53883D01*
X88030Y54175*
Y54508*
X88205Y54883*
X88497Y55175*
X88847Y55383*
X89430Y55550*
X89955Y55592*
X90480Y55508*
X90830Y55383*
X91180Y55133*
X91413Y54842*
X91530Y54550*
Y54258*
X91413Y53967*
X91238Y53717*
X91005Y53508*
X91530Y51950D02*
G01X88030D01*
X88730Y52450*
X91530D02*
G01Y51450D01*
X91122Y50058D02*
G01X91413Y49767D01*
X91530Y49433*
X91413Y49100*
X91063Y48808*
X90538Y48600*
X90013Y48517*
X89372*
X88847Y48600*
X88380Y48808*
X88147Y49058*
X88030Y49350*
X88147Y49683*
X88380Y49933*
X88730Y50100*
X89197Y50183*
X89605Y50100*
X90013Y49892*
X90247Y49642*
X90305Y49350*
X90188Y49017*
X89897Y48767*
X89372Y48517*
X96547Y119950D02*
G01Y123450D01*
X95713*
X95380Y123275*
X95130Y123042*
X94922Y122692*
X94755Y122283*
X94713Y121700*
X94755Y121117*
X94922Y120708*
X95130Y120358*
X95380Y120125*
X95713Y119950*
X96547*
X93822Y122867D02*
G01X93572Y123217D01*
X93280Y123392*
X92947Y123450*
X92530Y123333*
X92238Y123042*
X92155Y122692*
X92197Y122342*
X92363Y122050*
X93197Y121467*
X93572Y121058*
X93822Y120475*
X93905Y119950*
X92155*
X92600Y130300D02*
G01X96600Y134050D01*
X91800Y130300D02*
G01X97300D01*
X96600Y126550D02*
G01X92600Y130300D01*
Y134050D02*
G01Y126550D01*
X96600D02*
G01Y134050D01*
X111822Y39883D02*
G01X111647Y40133D01*
X111530Y40425*
Y40758*
X111705Y41133*
X111997Y41425*
X112347Y41633*
X112930Y41800*
X113455Y41842*
X113980Y41758*
X114330Y41633*
X114680Y41383*
X114913Y41092*
X115030Y40800*
Y40508*
X114913Y40217*
X114738Y39967*
X114505Y39758*
X112113Y38992D02*
G01X111763Y38742D01*
X111588Y38450*
X111530Y38117*
X111647Y37700*
X111938Y37408*
X112288Y37325*
X112638Y37367*
X112930Y37533*
X113513Y38367*
X113922Y38742*
X114505Y38992*
X115030Y39075*
Y37325*
X114330Y36517D02*
G01X114738Y36267D01*
X114972Y35933*
X115030Y35558*
X114972Y35225*
X114680Y34892*
X114330Y34683*
X113980Y34642*
X113572Y34725*
X113280Y35017*
X113163Y35308*
Y35683*
Y35308D02*
G01X112988Y35058D01*
X112697Y34850*
X112347Y34767*
X111997Y34850*
X111705Y35058*
X111530Y35433*
X111588Y35808*
X111822Y36183*
X117822Y39883D02*
G01X117647Y40133D01*
X117530Y40425*
Y40758*
X117705Y41133*
X117997Y41425*
X118347Y41633*
X118930Y41800*
X119455Y41842*
X119980Y41758*
X120330Y41633*
X120680Y41383*
X120913Y41092*
X121030Y40800*
Y40508*
X120913Y40217*
X120738Y39967*
X120505Y39758*
X120330Y39117D02*
G01X120738Y38867D01*
X120972Y38533*
X121030Y38158*
X120972Y37825*
X120680Y37492*
X120330Y37283*
X119980Y37242*
X119572Y37325*
X119280Y37617*
X119163Y37908*
Y38283*
Y37908D02*
G01X118988Y37658D01*
X118697Y37450*
X118347Y37367*
X117997Y37450*
X117705Y37658*
X117530Y38033*
X117588Y38408*
X117822Y38783*
X118113Y36392D02*
G01X117763Y36142D01*
X117588Y35850*
X117530Y35517*
X117647Y35100*
X117938Y34808*
X118288Y34725*
X118638Y34767*
X118930Y34933*
X119513Y35767*
X119922Y36142*
X120505Y36392*
X121030Y36475*
Y34725*
X138813Y69158D02*
G01X139063Y69333D01*
X139355Y69450*
X139688*
X140063Y69275*
X140355Y68983*
X140563Y68633*
X140730Y68050*
X140772Y67525*
X140688Y67000*
X140563Y66650*
X140313Y66300*
X140022Y66067*
X139730Y65950*
X139438*
X139147Y66067*
X138897Y66242*
X138688Y66475*
X137922Y68867D02*
G01X137672Y69217D01*
X137380Y69392*
X137047Y69450*
X136630Y69333*
X136338Y69042*
X136255Y68692*
X136297Y68342*
X136463Y68050*
X137297Y67467*
X137672Y67058*
X137922Y66475*
X138005Y65950*
X136255*
X134530D02*
G01Y69450D01*
X135030Y68750*
Y65950D02*
G01X134030D01*
X138813Y75158D02*
G01X139063Y75333D01*
X139355Y75450*
X139688*
X140063Y75275*
X140355Y74983*
X140563Y74633*
X140730Y74050*
X140772Y73525*
X140688Y73000*
X140563Y72650*
X140313Y72300*
X140022Y72067*
X139730Y71950*
X139438*
X139147Y72067*
X138897Y72242*
X138688Y72475*
X137922Y74867D02*
G01X137672Y75217D01*
X137380Y75392*
X137047Y75450*
X136630Y75333*
X136338Y75042*
X136255Y74692*
X136297Y74342*
X136463Y74050*
X137297Y73467*
X137672Y73058*
X137922Y72475*
X138005Y71950*
X136255*
X135322Y74867D02*
G01X135072Y75217D01*
X134780Y75392*
X134447Y75450*
X134030Y75333*
X133738Y75042*
X133655Y74692*
X133697Y74342*
X133863Y74050*
X134697Y73467*
X135072Y73058*
X135322Y72475*
X135405Y71950*
X133655*
X187097Y119450D02*
G01Y122950D01*
X186263*
X185930Y122775*
X185680Y122542*
X185472Y122192*
X185305Y121783*
X185263Y121200*
X185305Y120617*
X185472Y120208*
X185680Y119858*
X185930Y119625*
X186263Y119450*
X187097*
X184205Y121025D02*
G01X182872D01*
X182997Y121433*
X183205Y121667*
X183497Y121783*
X183788Y121725*
X184038Y121550*
X184205Y121142*
X184288Y120792*
Y120442*
X184205Y120092*
X183997Y119742*
X183747Y119508*
X183455Y119450*
X183163Y119567*
X182872Y119917*
X181605Y119858D02*
G01X181397Y119625D01*
X181105Y119450*
X180855*
X180605Y119567*
X180438Y119742*
X180355Y119975*
X180397Y120325*
X180563Y120500*
X181313Y120850*
X181480Y121258*
X181397Y121550*
X181230Y121725*
X180980Y121783*
X180730Y121725*
X180480Y121550*
X178380Y121783D02*
G01Y119450D01*
Y122717D02*
G01X178463Y122775D01*
Y122892*
X178380Y122950*
X178297Y122892*
Y122775*
X178380Y122717*
X176363Y118575D02*
G01X176072Y118342D01*
X175738Y118283*
X175447Y118342*
X175197Y118633*
X175030Y119042*
Y121783*
Y121317D02*
G01X175197Y121550D01*
X175447Y121725*
X175738Y121783*
X176072Y121667*
X176280Y121433*
X176447Y121025*
X176530Y120617*
X176488Y120267*
X176322Y119858*
X176072Y119567*
X175738Y119450*
X175488Y119508*
X175197Y119742*
X175030Y119975*
X173888Y119450D02*
G01Y121783D01*
Y121200D02*
G01X173722Y121492D01*
X173472Y121725*
X173138Y121783*
X172847Y121725*
X172597Y121492*
X172472Y121083*
Y119450*
X168730D02*
G01Y122950D01*
Y121200D02*
G01X168522Y121550D01*
X168272Y121725*
X168022Y121783*
X167647Y121667*
X167397Y121433*
X167230Y121025*
Y120558*
X167313Y120092*
X167480Y119742*
X167772Y119508*
X168022Y119450*
X168272Y119508*
X168522Y119683*
X168730Y119975*
X166255Y118400D02*
G01X166005Y118283D01*
X165672Y118400*
X165463Y118633*
X165297Y118925*
X165047Y119858*
X164505Y121783*
X165838D02*
G01X165047Y119858D01*
X160180Y122950D02*
G01Y119450D01*
X161138Y122950D02*
G01X159222D01*
X157247Y121317D02*
G01X157080Y121492D01*
X156955Y121783*
X156872Y122192*
X156955Y122542*
X157122Y122775*
X157413Y122950*
X158538*
Y119450*
X157163*
X156872Y119683*
X156705Y120033*
X156622Y120442*
X156705Y120850*
X156955Y121200*
X157247Y121317*
X158538*
X155813Y122950D02*
G01Y119450D01*
X154147*
X171863Y137350D02*
G01Y140850D01*
X170780Y137933*
X169697Y140850*
Y137350*
X167430D02*
G01Y139683D01*
Y139275D02*
G01X167597Y139508D01*
X167847Y139625*
X168138Y139683*
X168430Y139567*
X168680Y139333*
X168847Y138983*
X168930Y138517*
X168847Y138050*
X168680Y137700*
X168430Y137467*
X168138Y137350*
X167847Y137408*
X167597Y137583*
X167430Y137817*
X165580Y139683D02*
G01Y137350D01*
Y140617D02*
G01X165663Y140675D01*
Y140792*
X165580Y140850*
X165497Y140792*
Y140675*
X165580Y140617*
X163688Y137350D02*
G01Y139683D01*
Y139100D02*
G01X163522Y139392D01*
X163272Y139625*
X162938Y139683*
X162647Y139625*
X162397Y139392*
X162272Y138983*
Y137350*
X171555Y131450D02*
G01Y134950D01*
X169805D02*
G01Y131450D01*
Y133200D02*
G01X171555D01*
X169122Y133783D02*
G01X168622Y131450D01*
X168080Y133783*
X167538Y131450*
X167038Y133783*
X165480Y134950D02*
G01X165813Y134833D01*
X166063Y134542*
X166230Y134192*
X166355Y133725*
X166397Y133200*
X166355Y132675*
X166230Y132208*
X166063Y131858*
X165813Y131567*
X165480Y131450*
X165147Y131567*
X164897Y131858*
X164730Y132208*
X164605Y132675*
X164563Y133200*
X164605Y133725*
X164730Y134192*
X164897Y134542*
X165147Y134833*
X165480Y134950*
X162880Y131450D02*
G01Y134950D01*
X163380Y134250*
Y131450D02*
G01X162380D01*
X171180Y125650D02*
G01Y129150D01*
X171680Y128450*
Y125650D02*
G01X170680D01*
X168580Y129150D02*
G01X168913Y129033D01*
X169163Y128742*
X169330Y128392*
X169455Y127925*
X169497Y127400*
X169455Y126875*
X169330Y126408*
X169163Y126058*
X168913Y125767*
X168580Y125650*
X168247Y125767*
X167997Y126058*
X167830Y126408*
X167705Y126875*
X167663Y127400*
X167705Y127925*
X167830Y128392*
X167997Y128742*
X168247Y129033*
X168580Y129150*
X166730Y125533D02*
G01X165230Y129150D01*
X164172Y128567D02*
G01X163922Y128917D01*
X163630Y129092*
X163297Y129150*
X162880Y129033*
X162588Y128742*
X162505Y128392*
X162547Y128042*
X162713Y127750*
X163547Y127167*
X163922Y126758*
X164172Y126175*
X164255Y125650*
X162505*
X160780Y129150D02*
G01X161113Y129033D01*
X161363Y128742*
X161530Y128392*
X161655Y127925*
X161697Y127400*
X161655Y126875*
X161530Y126408*
X161363Y126058*
X161113Y125767*
X160780Y125650*
X160447Y125767*
X160197Y126058*
X160030Y126408*
X159905Y126875*
X159863Y127400*
X159905Y127925*
X160030Y128392*
X160197Y128742*
X160447Y129033*
X160780Y129150*
X158972Y128567D02*
G01X158722Y128917D01*
X158430Y129092*
X158097Y129150*
X157680Y129033*
X157388Y128742*
X157305Y128392*
X157347Y128042*
X157513Y127750*
X158347Y127167*
X158722Y126758*
X158972Y126175*
X159055Y125650*
X157305*
X156497Y126175D02*
G01X156247Y125883D01*
X155955Y125708*
X155580Y125650*
X155205Y125767*
X154913Y126000*
X154705Y126408*
X154663Y126875*
X154747Y127342*
X154955Y127633*
X155247Y127867*
X155538Y127925*
X155830Y127867*
X156205Y127633*
X156080Y129150*
X154955*
X174897Y181150D02*
G01Y184650D01*
X174063*
X173730Y184475*
X173480Y184242*
X173272Y183892*
X173105Y183483*
X173063Y182900*
X173105Y182317*
X173272Y181908*
X173480Y181558*
X173730Y181325*
X174063Y181150*
X174897*
X171380D02*
G01Y184650D01*
X171880Y183950*
Y181150D02*
G01X170880D01*
X174430Y192650D02*
G01X172030Y190250D01*
X174530Y187750*
Y192650*
X177130Y190250D02*
G01X169730D01*
X190038Y137550D02*
G01Y141050D01*
X188122Y137550*
Y141050*
X185730Y137550D02*
G01Y139883D01*
Y139475D02*
G01X185897Y139708D01*
X186147Y139825*
X186438Y139883*
X186730Y139767*
X186980Y139533*
X187147Y139183*
X187230Y138717*
X187147Y138250*
X186980Y137900*
X186730Y137667*
X186438Y137550*
X186147Y137608*
X185897Y137783*
X185730Y138017*
X185130Y137550D02*
G01Y139883D01*
Y139242D02*
G01X185005Y139533D01*
X184797Y139767*
X184505Y139883*
X184213Y139767*
X184005Y139533*
X183880Y139242*
Y137550*
Y139242D02*
G01X183755Y139533D01*
X183547Y139767*
X183255Y139883*
X182963Y139767*
X182755Y139533*
X182630Y139183*
Y137550*
X181905Y139125D02*
G01X180572D01*
X180697Y139533*
X180905Y139767*
X181197Y139883*
X181488Y139825*
X181738Y139650*
X181905Y139242*
X181988Y138892*
Y138542*
X181905Y138192*
X181697Y137842*
X181447Y137608*
X181155Y137550*
X180863Y137667*
X180572Y138017*
X190022Y135050D02*
G01X188980Y131550D01*
X187938Y135050*
X187005Y133125D02*
G01X185672D01*
X185797Y133533*
X186005Y133767*
X186297Y133883*
X186588Y133825*
X186838Y133650*
X187005Y133242*
X187088Y132892*
Y132542*
X187005Y132192*
X186797Y131842*
X186547Y131608*
X186255Y131550*
X185963Y131667*
X185672Y132017*
X184363Y131550D02*
G01Y133883D01*
Y133417D02*
G01X184155Y133650D01*
X183947Y133825*
X183655Y133883*
X183447Y133825*
X183197Y133650*
X189597Y125650D02*
G01Y129150D01*
X188763*
X188430Y128975*
X188180Y128742*
X187972Y128392*
X187805Y127983*
X187763Y127400*
X187805Y126817*
X187972Y126408*
X188180Y126058*
X188430Y125825*
X188763Y125650*
X189597*
X185330D02*
G01Y127983D01*
Y127575D02*
G01X185497Y127808D01*
X185747Y127925*
X186038Y127983*
X186330Y127867*
X186580Y127633*
X186747Y127283*
X186830Y126817*
X186747Y126350*
X186580Y126000*
X186330Y125767*
X186038Y125650*
X185747Y125708*
X185497Y125883*
X185330Y126117*
X183480Y129150D02*
G01Y125650D01*
X184063Y127983D02*
G01X182897D01*
X181505Y127225D02*
G01X180172D01*
X180297Y127633*
X180505Y127867*
X180797Y127983*
X181088Y127925*
X181338Y127750*
X181505Y127342*
X181588Y126992*
Y126642*
X181505Y126292*
X181297Y125942*
X181047Y125708*
X180755Y125650*
X180463Y125767*
X180172Y126117*
X210713Y158050D02*
G01Y161550D01*
X209672*
X209338Y161375*
X209130Y161142*
X209047Y160675*
X209130Y160208*
X209380Y159917*
X209672Y159742*
X210713*
X209672D02*
G01X209047Y158050D01*
X207280D02*
G01X206988Y158108D01*
X206655Y158283*
X206447Y158575*
X206363Y158983*
X206447Y159392*
X206697Y159742*
X207072Y159917*
X207488*
X207738Y160033*
X207947Y160325*
X208030Y160733*
X207905Y161142*
X207613Y161433*
X207280Y161550*
X206947Y161433*
X206655Y161142*
X206530Y160733*
X206613Y160325*
X206822Y160033*
X207072Y159917*
X207488*
X207863Y159742*
X208113Y159392*
X208197Y158983*
X208113Y158575*
X207905Y158283*
X207572Y158108*
X207280Y158050*
X226313D02*
G01Y161550D01*
X225272*
X224938Y161375*
X224730Y161142*
X224647Y160675*
X224730Y160208*
X224980Y159917*
X225272Y159742*
X226313*
X225272D02*
G01X224647Y158050D01*
X222963D02*
G01X222880Y158808D01*
X222755Y159450*
X222588Y160033*
X222380Y160675*
X222047Y161550*
X223713*
X217863Y181158D02*
G01X218113Y181333D01*
X218405Y181450*
X218738*
X219113Y181275*
X219405Y180983*
X219613Y180633*
X219780Y180050*
X219822Y179525*
X219738Y179000*
X219613Y178650*
X219363Y178300*
X219072Y178067*
X218780Y177950*
X218488*
X218197Y178067*
X217947Y178242*
X217738Y178475*
X216888Y178358D02*
G01X216597Y178067D01*
X216263Y177950*
X215930Y178067*
X215638Y178417*
X215430Y178942*
X215347Y179467*
Y180108*
X215430Y180633*
X215638Y181100*
X215888Y181333*
X216180Y181450*
X216513Y181333*
X216763Y181100*
X216930Y180750*
X217013Y180283*
X216930Y179875*
X216722Y179467*
X216472Y179233*
X216180Y179175*
X215847Y179292*
X215597Y179583*
X215347Y180108*
X231947Y3817D02*
G01X231780Y3992D01*
X231655Y4283*
X231572Y4692*
X231655Y5042*
X231822Y5275*
X232113Y5450*
X233238*
Y1950*
X231863*
X231572Y2183*
X231405Y2533*
X231322Y2942*
X231405Y3350*
X231655Y3700*
X231947Y3817*
X233238*
X229680Y1950D02*
G01X230013Y2008D01*
X230305Y2242*
X230555Y2592*
X230722Y3000*
X230805Y3467*
Y3933*
X230722Y4400*
X230555Y4808*
X230305Y5158*
X230013Y5392*
X229680Y5450*
X229347Y5392*
X229055Y5158*
X228805Y4808*
X228638Y4400*
X228555Y3933*
Y3467*
X228638Y3000*
X228805Y2592*
X229055Y2242*
X229347Y2008*
X229680Y1950*
X227080D02*
G01X227413Y2008D01*
X227705Y2242*
X227955Y2592*
X228122Y3000*
X228205Y3467*
Y3933*
X228122Y4400*
X227955Y4808*
X227705Y5158*
X227413Y5392*
X227080Y5450*
X226747Y5392*
X226455Y5158*
X226205Y4808*
X226038Y4400*
X225955Y3933*
Y3467*
X226038Y3000*
X226205Y2592*
X226455Y2242*
X226747Y2008*
X227080Y1950*
X224480Y5450D02*
G01Y1950D01*
X225438Y5450D02*
G01X223522D01*
X234023Y51668D02*
G01X230523D01*
Y50626*
X230698Y50293*
X230931Y50085*
X231398Y50002*
X231865Y50085*
X232156Y50335*
X232331Y50626*
Y51668*
Y50626D02*
G01X234023Y50002D01*
Y48235D02*
G01X230523D01*
X231223Y48735*
X234023D02*
G01Y47735D01*
X229692Y51668D02*
G01X226192D01*
Y50626*
X226367Y50293*
X226601Y50085*
X227067Y50002*
X227534Y50085*
X227825Y50335*
X228000Y50626*
Y51668*
Y50626D02*
G01X229692Y50002D01*
Y47735D02*
G01X226192D01*
X228700Y49276*
Y47193*
X273530Y157133D02*
G01X270030D01*
Y156092*
X270205Y155758*
X270438Y155550*
X270905Y155467*
X271372Y155550*
X271663Y155800*
X271838Y156092*
Y157133*
Y156092D02*
G01X273530Y155467D01*
Y152867D02*
G01Y154533D01*
X270030*
Y152867*
X271722Y153533D02*
G01Y154533D01*
X273063Y151975D02*
G01X273355Y151642D01*
X273530Y151267*
Y150933*
X273355Y150600*
X273063Y150350*
X272655Y150225*
X272247Y150308*
X271897Y150517*
X271663Y150892*
X271547Y151392*
X271313Y151683*
X270905Y151808*
X270497Y151725*
X270205Y151517*
X270030Y151225*
Y150933*
X270147Y150642*
X270438Y150392*
X273530Y147667D02*
G01Y149333D01*
X270030*
Y147667*
X271722Y148333D02*
G01Y149333D01*
X270030Y145900D02*
G01X273530D01*
X270030Y146858D02*
G01Y144942D01*
G54D73*
X84294Y135665D02*
G01X104766D01*
X84294Y125035D02*
G01X104766D01*
X111930Y48256D02*
G01X114930D01*
X111930Y47044D02*
G01X114930D01*
X113430Y46863D02*
G01Y46075D01*
Y49225D02*
G01Y48437D01*
X117930Y48256D02*
G01X120930D01*
X117930Y47044D02*
G01X120930D01*
X119430Y46863D02*
G01Y46075D01*
Y49225D02*
G01Y48437D01*
X146074Y66250D02*
G01Y69250D01*
X147286Y66250D02*
G01Y69250D01*
X147467Y67750D02*
G01X148255D01*
X145105D02*
G01X145893D01*
X146074Y72250D02*
G01Y75250D01*
X147286Y72250D02*
G01Y75250D01*
X147467Y73750D02*
G01X148255D01*
X145105D02*
G01X145893D01*
G54D37*
X111658Y52768D02*
G01X110871D01*
Y42532*
X111658*
X115202Y52768D02*
G01X115989D01*
Y42532*
X115202*
X117658Y52768D02*
G01X116871D01*
Y42532*
X117658*
X121202Y52768D02*
G01X121989D01*
Y42532*
X121202*
X141562Y65978D02*
G01Y65191D01*
X151798*
Y65978*
X141562Y69522D02*
G01Y70309D01*
X151798*
Y69522*
X141562Y71978D02*
G01Y71191D01*
X151798*
Y71978*
X141562Y75522D02*
G01Y76309D01*
X151798*
Y75522*
G54D38*
X102522Y59466D02*
G03X102522Y59466I-492D01*
G54D39*
X95928Y56120D02*
G01X93565D01*
Y27380*
X95928*
X108132Y56120D02*
G01X110495D01*
Y27380*
X108132*
G54D40*
X80258Y130350D02*
G03X80258Y130350I-492D01*
G54D31*
X32530Y17550D02*
G01Y12550D01*
Y12550D02*
G01X35530Y9550D01*
X69030*
X72030Y12550*
Y17550*
Y41550D02*
G01Y46550D01*
X69030Y49550*
X35530*
X32530Y46550*
Y41550*
X175930Y186350D02*
G01X171930D01*
Y194350*
X175930*
X181230Y186350D02*
G01X165730D01*
X181130Y194350D02*
G01X165630D01*
M02*
