G04 CAM350/DFMSTREAM V12.1 (Build 1022) Date:  Fri Oct 24 01:38:18 2025 *
G04 Database: (Untitled) *
G04 Layer 6: SOLDERMASK_TOP.art *
%FSLAX25Y25*%
%MOIN*%
%SFA1.000B1.000*%

%MIA0B0*%
%IPPOS*%
%AMMACRO25*
4,1,40,0.0094490,0.0311020,0.0094490,-0.0311020,0.0094130,-0.0315130,0.0093050,-0.0319110,0.0091310,-0.0322850,0.0088940,-0.0326220,0.0086020,-0.0329130,0.0082630,-0.0331500,0.0078890,-0.0333230,0.0074910,-0.0334300,0.0070870,-0.0334650,-0.0070870,-0.0334650,-0.0074980,-0.0334280,-0.0078960,-0.0333210,-0.0082690,-0.0331460,-0.0086070,-0.0329090,-0.0088980,-0.0326170,-0.0091340,-0.0322790,-0.0093080,-0.0319050,-0.0094140,-0.0315060,-0.0094490,-0.0311020,-0.0094490,0.0311020,-0.0094130,0.0315130,-0.0093050,0.0319110,-0.0091310,0.0322850,-0.0088940,0.0326220,-0.0086020,0.0329130,-0.0082630,0.0331500,-0.0078890,0.0333230,-0.0074910,0.0334300,-0.0070870,0.0334650,0.0070870,0.0334650,0.0074980,0.0334280,0.0078960,0.0333210,0.0082690,0.0331460,0.0086070,0.0329090,0.0088980,0.0326170,0.0091340,0.0322790,0.0093080,0.0319050,0.0094140,0.0315060,0.0094490,0.0311020,0.0000000*
%
%ADD28C,0.02756*%
%ADD42R,0.10000X0.08000*%
%ADD43C,0.11800*%
%ADD46C,0.03600*%
%ADD47C,0.07200*%
%ADD48R,0.07200X0.07200*%
%ADD49C,0.07090*%
%ADD50O,0.04921X0.09252*%
%ADD51R,0.09450X0.08070*%
%ADD52R,0.07090X0.07090*%
%ADD53O,0.04921X0.08071*%
%ADD54C,0.06510*%
%ADD55R,0.02560X0.01770*%
%ADD56R,0.03740X0.02560*%
%ADD57R,0.01770X0.02560*%
%ADD58R,0.02560X0.03740*%
%ADD59R,0.06510X0.06510*%
%ADD60R,0.11500X0.06500*%
%ADD61R,0.11500X0.04700*%
%ADD62R,0.06800X0.16500*%
%ADD63R,0.09500X0.19500*%
%ADD64MACRO25*%
%ADD65R,0.01600X0.04100*%
%ADD66R,0.04100X0.01600*%
%ADD67R,0.43000X0.46000*%
%ADD68R,0.13600X0.13600*%
%ADD69R,0.24500X0.25300*%
%ADD74R,0.06500X0.05500*%
%ADD75R,0.05500X0.06500*%
%ADD76R,0.04400X0.06800*%
%ADD77R,0.06800X0.04400*%
%ADD78R,0.03500X0.03500*%
%ADD79R,0.04331X0.04331*%
%ADD80R,0.02756X0.05315*%
%ADD81R,0.01575X0.04921*%
%ADD82R,0.06693X0.04331*%
%ADD83R,0.04331X0.06693*%
%LNSOLDERMASK_TOP.art*%
%LPD*%
G54D67*
X28130Y81650D03*
G54D59*
X93505Y167247D03*
G54D43*
X9630Y123411D03*
Y148050D03*
G54D52*
X76130Y172250D03*
G54D74*
X22030Y126664D03*
Y140050D03*
G54D65*
X195524Y132101D03*
X197493D03*
X195524Y150999D03*
X197493D03*
X199461Y132101D03*
X201430D03*
X203399D03*
X205367D03*
X207336D03*
X199461Y150999D03*
X201430D03*
X203399D03*
X205367D03*
X207336D03*
G54D81*
X220783Y169284D03*
X214877D03*
X210940D03*
X212909D03*
X216846D03*
X218814D03*
X222751D03*
X224720D03*
G54D66*
X191981Y135644D03*
Y137613D03*
Y139581D03*
Y141550D03*
Y143519D03*
Y145487D03*
Y147456D03*
X210879Y141550D03*
Y139581D03*
Y137613D03*
Y135644D03*
Y147456D03*
Y145487D03*
Y143519D03*
G54D63*
X47230Y117350D03*
Y151350D03*
G54D60*
X121979Y82750D03*
Y100750D03*
G54D56*
X103630Y89300D03*
Y83000D03*
X109630Y89300D03*
Y83000D03*
X102730Y118100D03*
Y111800D03*
X164730Y123949D03*
Y130249D03*
X158730Y123949D03*
Y130249D03*
G54D80*
X208381Y169284D03*
X205232D03*
X227279D03*
X230428D03*
G54D47*
X46051Y183250D03*
X66051D03*
X56051D03*
X95111Y10000D03*
X125111D03*
X115110D03*
X105110D03*
X135110D03*
X175110D03*
X165110D03*
X195110D03*
X185110D03*
X205111D03*
G54D68*
X201430Y141550D03*
G54D57*
X181558Y133019D03*
X185101D03*
X185102Y141681D03*
X181558D03*
X185102Y137350D03*
X181558D03*
Y146012D03*
X185101D03*
X185102Y150342D03*
X181558D03*
X185102Y154673D03*
X181558D03*
X227202Y22619D03*
X223659D03*
X230745D03*
X234289D03*
X233058Y146019D03*
X236602D03*
X233058Y153450D03*
X236602D03*
G54D54*
X123505Y167247D03*
X113505D03*
X103505D03*
X143505D03*
X133505D03*
X173505D03*
X163505D03*
X153505D03*
X183505D03*
G54D78*
X219710Y149740D03*
X240930Y153500D03*
Y146020D03*
X249950Y149760D03*
X228730Y146000D03*
Y153480D03*
G54D61*
X69130Y68250D03*
Y74950D03*
Y81650D03*
Y88350D03*
Y95050D03*
G54D58*
X186480Y159839D03*
X180180D03*
X243373Y131532D03*
Y125532D03*
X249673Y131532D03*
Y125532D03*
G54D53*
X200822Y187886D03*
X234838D03*
G54D49*
X66130Y172250D03*
X56130D03*
G54D64*
X147410Y27928D03*
X144851D03*
X142291D03*
X139732D03*
X137173D03*
X134614D03*
X132055D03*
Y55172D03*
X134614D03*
X137173D03*
X139732D03*
X142291D03*
X144851D03*
X147410D03*
X152528Y27928D03*
X149969D03*
X160205D03*
X157646D03*
X155087D03*
X149969Y55172D03*
X152528D03*
X155087D03*
X157646D03*
X160205D03*
G54D28*
X206452Y173516D03*
X229208D03*
G54D48*
X76051Y183250D03*
X85110Y10000D03*
X155110D03*
G54D76*
X220749Y15926D03*
X215139Y9627D03*
X237088Y15926D03*
X242698Y9627D03*
G54D69*
X146585Y91750D03*
G54D51*
X146830Y123939D03*
Y147561D03*
G54D46*
X224391Y10218D03*
X233446D03*
X265466Y156066D03*
Y147011D03*
G54D77*
X259758Y143369D03*
X266057Y137759D03*
X259758Y159708D03*
X266057Y165318D03*
G54D42*
X90659Y74650D03*
X106801D03*
G54D83*
X197724Y47001D03*
X192724D03*
X187724D03*
X182724D03*
Y115899D03*
X187724D03*
X192724D03*
X197724D03*
X222724Y47001D03*
X217724D03*
X212724D03*
X207724D03*
X202724D03*
X207724Y115899D03*
X212724D03*
X217724D03*
X222724D03*
X202724D03*
X247724Y47001D03*
X242724D03*
X237724D03*
X232724D03*
X227724D03*
Y115899D03*
X232724D03*
X237724D03*
X242724D03*
X247724D03*
G54D55*
X254065Y149735D03*
Y146192D03*
Y153278D03*
Y156822D03*
G54D79*
X211819Y81844D03*
Y87356D03*
Y92867D03*
X217331Y81844D03*
Y87356D03*
Y92867D03*
X222842Y81844D03*
Y87356D03*
Y92867D03*
G54D62*
X84746Y116424D03*
Y144376D03*
X120180Y116424D03*
Y144376D03*
G54D82*
X177803Y58950D03*
Y63950D03*
Y68950D03*
Y73950D03*
Y78950D03*
Y83950D03*
Y88950D03*
Y93950D03*
Y98950D03*
Y103950D03*
G54D75*
X223944Y134050D03*
X237330D03*
G54D50*
X200822Y171548D03*
X234838D03*
M02*
