G04 CAM350/DFMSTREAM V12.1 (Build 1022) Date:  Fri Oct 24 01:38:18 2025 *
G04 Database: (Untitled) *
G04 Layer 5: SOLDERMASK_BOTTOM.art *
%FSLAX25Y25*%
%MOIN*%
%SFA1.000B1.000*%

%MIA0B0*%
%IPPOS*%
%ADD28C,0.02756*%
%ADD42R,0.10000X0.08000*%
%ADD43C,0.11800*%
%ADD44R,0.18000X0.23000*%
%ADD45R,0.04600X0.06100*%
%ADD46C,0.03600*%
%ADD47C,0.07200*%
%ADD48R,0.07200X0.07200*%
%ADD49C,0.07090*%
%ADD50O,0.04921X0.09252*%
%ADD51R,0.09450X0.08070*%
%ADD52R,0.07090X0.07090*%
%ADD53O,0.04921X0.08071*%
%ADD54C,0.06510*%
%ADD55R,0.02560X0.01770*%
%ADD56R,0.03740X0.02560*%
%ADD57R,0.01770X0.02560*%
%ADD58R,0.02560X0.03740*%
%ADD59R,0.06510X0.06510*%
%LNSOLDERMASK_BOTTOM.art*%
%LPD*%
G54D44*
X31530Y29550D03*
X73530D03*
G54D54*
X123505Y167247D03*
X113505D03*
X103505D03*
X143505D03*
X133505D03*
X173505D03*
X163505D03*
X153505D03*
X183505D03*
G54D43*
X9630Y123411D03*
Y148050D03*
G54D58*
X143530Y67750D03*
Y73750D03*
X149830Y67750D03*
Y73750D03*
G54D47*
X46051Y183250D03*
X66051D03*
X56051D03*
X95111Y10000D03*
X125111D03*
X115110D03*
X105110D03*
X135110D03*
X175110D03*
X165110D03*
X195110D03*
X185110D03*
X205111D03*
G54D49*
X66130Y172250D03*
X56130D03*
G54D45*
X166030Y190350D03*
X180630D03*
G54D48*
X76051Y183250D03*
X85110Y10000D03*
X155110D03*
G54D46*
X224391Y10218D03*
X233446D03*
X265466Y156066D03*
Y147011D03*
G54D50*
X200822Y171548D03*
X234838D03*
G54D42*
X86459Y130350D03*
X102601D03*
G54D59*
X93505Y167247D03*
G54D57*
X211001Y164750D03*
X207458D03*
X222758D03*
X226302D03*
G54D53*
X200822Y187886D03*
X234838D03*
G54D52*
X76130Y172250D03*
G54D56*
X113430Y44500D03*
X119430D03*
X113430Y50800D03*
X119430D03*
G54D28*
X206452Y173516D03*
X229208D03*
G54D55*
X217822Y187886D03*
Y184343D03*
X232330Y54478D03*
Y58022D03*
X227999Y54478D03*
Y58022D03*
G54D51*
X102030Y29939D03*
Y53561D03*
M02*
