G04 CAM350/DFMSTREAM V12.1 (Build 1022) Date:  Fri Oct 24 01:38:18 2025 *
G04 Database: (Untitled) *
G04 Layer 7: TOP.art *
%FSLAX25Y25*%
%MOIN*%
%SFA1.000B1.000*%

%MIA0B0*%
%IPPOS*%
%AMMACRO25*
4,1,40,0.0094490,0.0311020,0.0094490,-0.0311020,0.0094130,-0.0315130,0.0093050,-0.0319110,0.0091310,-0.0322850,0.0088940,-0.0326220,0.0086020,-0.0329130,0.0082630,-0.0331500,0.0078890,-0.0333230,0.0074910,-0.0334300,0.0070870,-0.0334650,-0.0070870,-0.0334650,-0.0074980,-0.0334280,-0.0078960,-0.0333210,-0.0082690,-0.0331460,-0.0086070,-0.0329090,-0.0088980,-0.0326170,-0.0091340,-0.0322790,-0.0093080,-0.0319050,-0.0094140,-0.0315060,-0.0094490,-0.0311020,-0.0094490,0.0311020,-0.0094130,0.0315130,-0.0093050,0.0319110,-0.0091310,0.0322850,-0.0088940,0.0326220,-0.0086020,0.0329130,-0.0082630,0.0331500,-0.0078890,0.0333230,-0.0074910,0.0334300,-0.0070870,0.0334650,0.0070870,0.0334650,0.0074980,0.0334280,0.0078960,0.0333210,0.0082690,0.0331460,0.0086070,0.0329090,0.0088980,0.0326170,0.0091340,0.0322790,0.0093080,0.0319050,0.0094140,0.0315060,0.0094490,0.0311020,0.0000000*
%
%ADD10C,0.03000*%
%ADD12C,0.11000*%
%ADD13C,0.06200*%
%ADD14C,0.06300*%
%ADD15R,0.06200X0.06200*%
%ADD16R,0.09450X0.07480*%
%ADD17R,0.05910X0.05910*%
%ADD18R,0.06300X0.06300*%
%ADD19R,0.03540X0.02360*%
%ADD20R,0.09250X0.07870*%
%ADD21C,0.05910*%
%ADD22R,0.02360X0.03540*%
%ADD24C,0.03300*%
%ADD25O,0.04134X0.08465*%
%ADD26R,0.01570X0.02360*%
%ADD27O,0.04134X0.07283*%
%ADD28C,0.02756*%
%ADD29R,0.02360X0.01570*%
%ADD30C,0.00800*%
%ADD31C,0.01000*%
%ADD32C,0.02000*%
%ADD33C,0.04000*%
%ADD34C,0.01500*%
%ADD64MACRO25*%
%ADD84R,0.11000X0.06000*%
%ADD85R,0.11000X0.04200*%
%ADD86R,0.06300X0.15940*%
%ADD87R,0.09060X0.19090*%
%ADD89R,0.13000X0.13000*%
%ADD90R,0.06000X0.05000*%
%ADD91R,0.42000X0.45000*%
%ADD92R,0.05000X0.06000*%
%ADD93R,0.04000X0.06400*%
%ADD94R,0.06400X0.04000*%
%ADD95R,0.24000X0.24800*%
%ADD96R,0.01200X0.03740*%
%ADD97R,0.03740X0.01200*%
%ADD98R,0.03000X0.03000*%
%ADD99R,0.03543X0.03543*%
%ADD100R,0.01181X0.04528*%
%ADD101R,0.02362X0.04528*%
%ADD102R,0.05905X0.03543*%
%ADD103R,0.03543X0.05905*%
%ADD104C,0.06000*%
%LNTOP.art*%
%LPD*%
G36*
X189856Y95982D02*
G01X189927Y97553D01*
G75*
G03X190477Y97443I550J1320*
X191027Y97553I0J1430*
G02X191427Y97153I0J-400*
G03X191317Y96603I1320J-550*
X191427Y96053I1431J0*
G01X189856Y95982*
G37*
G36*
X193259Y92879D02*
G01X193330Y94450D01*
G03X193880Y94340I550J1320*
X194430Y94450I0J1430*
G02X194830Y94050I0J-400*
G03X194720Y93500I1320J-550*
X194830Y92950I1431J0*
G01X193259Y92879*
G37*
G36*
X216030Y143350D02*
G03X215480Y143460I-550J-1321D01*
X214930Y143350I0J-1431*
G02X214530Y143750I0J400*
G03X214640Y144300I-1322J550*
X214530Y144850I-1431J0*
G01X216101Y144921*
X216030Y143350*
G37*
G36*
X155087Y60607D02*
G02X154687Y61007I0J400D01*
X154723Y61172I400J-1*
G03X155125Y62057I-862J925*
G01X156614Y62005*
X156373Y60607*
G03X155730Y60736I-644J-1544*
X155087Y60607I1J-1674*
G37*
G36*
X199461Y150899D02*
G01X198861Y152869D01*
G03X199335Y153448I-586J963*
G02X199461Y153468I125J-380*
X199587Y153448I1J-400*
G03X200061Y152869I1060J384*
G01X199461Y150899*
G37*
G36*
X201430D02*
G01X200830Y152869D01*
G03X201304Y153448I-586J963*
G02X201430Y153468I125J-380*
X201556Y153448I1J-400*
G03X202030Y152869I1060J384*
G01X201430Y150899*
G37*
G36*
X203399D02*
G01X202799Y152869D01*
G03X203273Y153448I-586J963*
G02X203399Y153468I125J-380*
X203525Y153448I1J-400*
G03X203999Y152869I1060J384*
G01X203399Y150899*
G37*
G36*
X190111Y146856D02*
G03X189532Y147330I-963J-586D01*
G02X189512Y147456I380J125*
X189532Y147582I400J1*
G03X190111Y148056I-385J1060*
G01X192081Y147456*
X190111Y146856*
G37*
G36*
Y140950D02*
G03X189532Y141424I-963J-586D01*
G02X189512Y141550I380J125*
X189532Y141676I400J1*
G03X190111Y142150I-385J1060*
G01X192081Y141550*
X190111Y140950*
G37*
G36*
X212749Y142919D02*
G01X210779Y143519D01*
X212749Y144119*
G03X213328Y143645I963J586*
G02X213348Y143519I-381J-125*
X213328Y143393I-401J-1*
G03X212749Y142919I384J-1060*
G37*
G36*
Y140950D02*
G01X210779Y141550D01*
X212749Y142150*
G03X213328Y141676I963J586*
G02X213348Y141550I-381J-125*
X213328Y141424I-401J-1*
G03X212749Y140950I384J-1060*
G37*
G36*
Y138981D02*
G01X210779Y139581D01*
X212749Y140181*
G03X213328Y139707I963J586*
G02X213348Y139581I-381J-125*
X213328Y139455I-401J-1*
G03X212749Y138981I384J-1060*
G37*
G36*
X185102Y137250D02*
G01X184316Y138530D01*
G03X184925Y139274I-678J1176*
G01X185102Y139315*
X185278Y139274*
G03X185887Y138530I1287J432*
G01X185102Y137250*
G37*
G36*
X190111Y144887D02*
G03X189520Y145063I-591J-903D01*
G01X189439Y145060*
G02X189343Y145320I304J260*
X189382Y145492I400J0*
G03X190111Y146087I-425J1265*
G01X192081Y145494*
X190111Y144887*
G37*
G36*
X216846Y169184D02*
G01X216255Y171548D01*
G03X216723Y172119I-581J954*
G02X216846Y172138I122J-382*
X216968Y172119I0J-401*
G03X217436Y171548I1049J383*
G01X216846Y169184*
G37*
G36*
X210941Y166430D02*
G02X210818Y166449I-1J401D01*
G03X210350Y167020I-1050J-383*
G01X210940Y169384*
X211531Y167020*
G03X211063Y166449I582J-955*
G02X210941Y166430I-122J382*
G37*
G36*
X218815D02*
G02X218692Y166449I-1J401D01*
G03X218224Y167020I-1049J-383*
G01X218814Y169384*
X219405Y167020*
G03X218937Y166449I581J-954*
G02X218815Y166430I-122J382*
G37*
G36*
X222751D02*
G02X222628Y166449I-1J401D01*
G03X222161Y167020I-1050J-382*
G01X222751Y169384*
X223342Y167020*
G03X222874Y166449I581J-954*
G02X222751Y166430I-122J382*
G37*
G36*
X214863Y166415D02*
G02X214729Y166438I0J400D01*
G03X214287Y167020I-1056J-343*
G01X214878Y169384*
X215468Y167020*
G03X214991Y166436I588J-967*
G02X214863Y166415I-128J379*
G37*
G36*
X157730Y66350D02*
G03X156580Y66580I-1150J-2760D01*
X155430Y66350I0J-2990*
G01Y66750*
X156530Y67850*
X157820Y67893*
X157730Y66350*
G37*
G36*
X222751Y161250D02*
G01X221691Y162411D01*
G03X222468Y163188I-545J1322*
G02X222751Y163305I283J-284*
X223034Y163188I0J-401*
G03X223812Y162411I1322J546*
G01X222751Y161250*
G37*
G36*
X210940Y161050D02*
G01X209880Y162211D01*
G03X210657Y162988I-545J1322*
G02X210940Y163105I283J-284*
X211223Y162988I0J-401*
G03X212001Y162211I1322J546*
G01X210940Y161050*
G37*
G36*
X199461Y155695D02*
G02X199178Y155812I0J400D01*
G03X198400Y156589I-1322J-546*
G01X199461Y157750*
X200522Y156589*
G03X199744Y155812I544J-1323*
G02X199461Y155695I-283J283*
G37*
G36*
X217830Y158450D02*
G01X216769Y159611D01*
G03X217547Y160388I-544J1322*
G02X217830Y160505I283J-284*
X218113Y160388I0J-401*
G03X218891Y159611I1322J546*
G01X217830Y158450*
G37*
G36*
X243669Y107589D02*
G03X242892Y108367I-1323J-544D01*
G02X242775Y108650I284J283*
X242892Y108933I400J0*
G03X243669Y109711I-546J1322*
G01X244830Y108650*
X243669Y107589*
G37*
G36*
X160069Y63789D02*
G03X159292Y64567I-1323J-544D01*
G02X159175Y64850I284J283*
X159292Y65133I400J0*
G03X160069Y65911I-546J1322*
G01X161230Y64850*
X160069Y63789*
G37*
G36*
X203791Y37289D02*
G01X202630Y38350D01*
X203791Y39411*
G03X204568Y38633I1323J544*
G02X204685Y38350I-284J-283*
X204568Y38067I-401J0*
G03X203791Y37289I545J-1322*
G37*
G36*
X201991Y33089D02*
G01X200830Y34150D01*
X201991Y35211*
G03X202768Y34433I1323J544*
G02X202885Y34150I-284J-283*
X202768Y33867I-401J0*
G03X201991Y33089I545J-1322*
G37*
G36*
X215146Y163100D02*
G01X214763Y164115D01*
Y164915*
X215146Y165929*
G03X216277Y164798I1924J793*
G02X216394Y164515I-284J-283*
X216277Y164232I-401J0*
G03X215146Y163100I794J-1924*
G37*
G36*
X185886Y131839D02*
G01X185001Y133019D01*
X185886Y134199*
G03X187000Y133240I1753J909*
G02X187066Y133019I-335J-220*
X187000Y132799I-401J0*
G03X185886Y131839I639J-1868*
G37*
G36*
X254065Y144227D02*
G02X253815Y144294I0J500D01*
G03X252885Y145407I-1887J-632*
G01X254065Y146317*
X255244Y145407*
G03X254314Y144294I958J-1746*
G02X254065Y144227I-250J433*
G37*
G36*
Y156634D02*
G01X252885Y157607D01*
G03X253808Y158741I-1124J1858*
G01X254065Y158786*
X254321Y158741*
G03X255244Y157607I2047J724*
G01X254065Y156634*
G37*
G36*
X235074Y21439D02*
G01X234101Y22619D01*
X235074Y23799*
G03X236208Y22876I1858J1124*
G01X236253Y22619*
X236208Y22363*
G03X235074Y21439I724J-2046*
G37*
G36*
X222874D02*
G01X222622Y21798D01*
X222621Y21799*
X222620Y21798*
G03X222491Y21559I1073J-734*
G01X221305Y22619*
X222491Y23680*
G03X222621Y23440I1202J496*
G01X222622*
X222874Y23799*
X223784Y22619*
X222874Y21439*
G37*
G36*
X180773Y136170D02*
G03X180574Y136447I-1858J-1125D01*
G01X180573*
G03X180490Y136289I819J-531*
G01X179242Y137350*
X180490Y138411*
G03X180573Y138253I902J373*
G01X180574*
G03X180773Y138530I-1659J1402*
G01X181746Y137350*
X180773Y136170*
G37*
G36*
X169169Y70489D02*
G03X167792Y71867I-2343J-964D01*
G02X167675Y72150I284J283*
X168023Y72547I400J0*
G03X168499Y72483I477J1743*
X169401Y72724I0J1807*
G01X170326Y71523*
X169169Y70489*
G37*
G36*
X180773Y144832D02*
G03X180426Y145291I-1745J-959D01*
G01X180425Y145292*
Y145291*
G03X180219Y144951I996J-836*
G01X179033Y146012*
X180219Y147072*
G03X180425Y146732I1202J496*
G01X180426*
G03X180773Y147192I-1399J1416*
G01X181683Y146012*
X180773Y144832*
G37*
G36*
X139732Y55072D02*
G01X139024Y58518D01*
G03X139450Y59510I-1069J1047*
G02X139733Y59627I283J-283*
X140015Y59510I-1J-400*
G03X140441Y58518I1495J55*
G01X139732Y55072*
G37*
G36*
X149969D02*
G01X149260Y58518D01*
G03X149686Y59510I-1069J1047*
G02X149969Y59627I283J-283*
X150251Y59510I-1J-400*
G03X150677Y58518I1495J55*
G01X149969Y55072*
G37*
G36*
X152528D02*
G01X151819Y58518D01*
G03X152245Y59510I-1069J1047*
G02X152528Y59627I283J-283*
X152810Y59510I-1J-400*
G03X153236Y58518I1495J55*
G01X152528Y55072*
G37*
G36*
X137173D02*
G01X136465Y58518D01*
G03X136890Y59510I-1070J1046*
G02X137173Y59627I283J-283*
X137456Y59510I0J-400*
G03X137882Y58518I1495J55*
G01X137173Y55072*
G37*
G36*
X155087D02*
G01X154378Y58518D01*
G03X154804Y59510I-1069J1047*
G02X155087Y59627I283J-283*
X155370Y59510I0J-400*
G03X155795Y58518I1495J54*
G01X155087Y55072*
G37*
G36*
X219130Y141550D02*
G01X217274D01*
X216992Y141833*
G03X218869Y143711I-1315J3192*
G01X220022Y142688*
X219130Y141550*
G37*
G36*
X220783Y166430D02*
G02X220660Y166449I-1J401D01*
G03X220192Y167020I-1050J-383*
G01X220758Y169284*
X220192Y171548*
G03X220660Y172119I-582J954*
G02X220783Y172138I122J-382*
X220905Y172119I0J-401*
G03X221373Y171548I1050J383*
G01X220808Y169284*
X221373Y167020*
G03X220905Y166449I582J-955*
G02X220783Y166430I-122J382*
G37*
G36*
X134609Y55072D02*
G01X133906Y58518D01*
G03X134546Y59724I-1193J1406*
G02X134828Y59841I283J-284*
X135181Y59630I0J-400*
G01X135135Y59256*
G03X135323Y58518I1545J1*
G01X134609Y55072*
G37*
G36*
X107860Y81820D02*
G03X106692Y82849I-2196J-1316D01*
G02X106681Y83000I989J148*
X106692Y83151I1000J3*
G03X107860Y84180I-1028J2345*
G01X109880Y83000*
X107860Y81820*
G37*
G36*
X185102Y139716D02*
G01X184925Y139757D01*
G03X184316Y140501I-1287J-432*
G01X185023Y141652*
Y141653*
X185002Y141681*
X185887Y142861*
G03X187000Y141901I1754J908*
G02X187066Y141681I-335J-220*
X187000Y141460I-401J-1*
G03X185887Y140501I640J-1868*
X185278Y139757I678J-1176*
G01X185102Y139716*
G37*
G36*
X230580Y165850D02*
G01X230277D01*
G03X229247Y167020I-2345J-1026*
G01X230428Y169534*
X231609Y167020*
G03X230580Y165850I1317J-2196*
G37*
G36*
X205383D02*
G01X205080D01*
G03X204050Y167020I-2345J-1026*
G01X205232Y169534*
X206413Y167020*
G03X205383Y165850I1315J-2196*
G37*
G36*
X210879Y147356D02*
G01X209009Y148056D01*
G03X210632Y149840I-1360J2867*
G02X210879Y149926I248J-314*
X211126Y149840I-1J-400*
G03X212749Y148056I2983J1083*
G01X210879Y147356*
G37*
G36*
X185101Y145912D02*
G01X184316Y147192D01*
G03X184925Y147936I-678J1176*
G02X185001Y147964I176J-359*
G01X185002Y147965*
Y148389*
X185001Y148390*
G02X184925Y148418I100J388*
G03X184316Y149162I-1287J-432*
G01X185102Y150442*
X185887Y149162*
X185810Y149114*
Y149113*
G03X186516Y148633I1499J1445*
G02X186633Y148350I-284J-283*
X186516Y148067I-401J0*
G03X185635Y147380I792J-1924*
Y147379I1J0*
X185886Y147192I931J987*
G01X185101Y145912*
G37*
G36*
X218210Y148240D02*
G03X217483Y149126I-2262J-1115D01*
G01X217482*
G03X217191Y148680I1031J-991*
G01X216030Y149740*
X217191Y150801*
G03X217482Y150354I1323J543*
G01X217483*
G03X218210Y151240I-1535J2001*
G01X219810Y149740*
X218210Y148240*
G37*
G36*
X222724Y115799D02*
G01X221366Y118851D01*
G03X221963Y119222I-830J2002*
Y119224J1*
G01X221667Y119392*
X222730Y120550*
X223791Y119389*
X223490Y119220*
Y119219*
G03X224083Y118851I1425J1634*
G01X222724Y115799*
G37*
G36*
X239430Y152000D02*
G03X238220Y153109I-2208J-1194D01*
G01X238219*
Y153108*
G03X237387Y152270I921J-1747*
G01X236502Y153450*
X237387Y154630*
G03X238214Y153794I1754J908*
X239430Y155000I-1128J2353*
G01X241030Y153502*
X239430Y152000*
G37*
G36*
X230230Y144500D02*
G01X228630Y146000D01*
X230230Y147500*
G03X231409Y146337I2263J1115*
G01Y146336*
X231410Y146337*
G03X232273Y147199I-920J1784*
G01X233158Y146020*
X232273Y144839*
G03X231413Y145665I-1730J-941*
G01X231412*
G03X230230Y144500I1081J-2279*
G37*
G36*
X249824Y128593D02*
G01X249522D01*
G03X248493Y129762I-2345J-1027*
G01X249527Y131532*
X248493Y133302*
G03X249522Y134470I-1315J2196*
G01X249824*
G03X250853Y133302I2345J1028*
G01X249819Y131532*
X250853Y129762*
G03X249824Y128593I1316J-2196*
G37*
G36*
Y122593D02*
G01X249522D01*
G03X248493Y123762I-2345J-1027*
G01X249527Y125532*
X248493Y127302*
G03X249522Y128470I-1315J2196*
G01X249824*
G03X250853Y127302I2345J1028*
G01X249819Y125532*
X250853Y123762*
G03X249824Y122593I1316J-2196*
G37*
G36*
X105400Y81820D02*
G01X103630Y82854D01*
X101860Y81820*
G03X100692Y82849I-2196J-1316*
G02X100681Y83000I989J148*
X100692Y83151I1000J3*
G03X101860Y84180I-1028J2345*
G01X103630Y83146*
X105400Y84180*
G03X106568Y83151I2196J1315*
G02X106579Y83000I-991J-148*
X106568Y82849I-1002J-3*
G03X105400Y81820I1028J-2344*
G37*
G36*
X236614Y144422D02*
G01X236589D01*
G03X236018Y144840I-894J-623*
G01X236536Y145974*
X236502Y146019*
X237387Y147199*
G03X238238Y146351I1753J908*
G01X238239*
G03X239430Y147520I-1073J2284*
G01X241030Y146020*
X239430Y144520*
G03X238239Y145688I-2262J-1115*
X237387Y144839I902J-1757*
G01X236877Y145519*
X236876Y145518*
X237185Y144840*
G03X236614Y144422I324J-1041*
G37*
G36*
X182725Y42278D02*
G02X182480Y42361I-1J400D01*
G03X180953Y44048I-2820J-1018*
G01X182724Y47101*
X184496Y44048*
G03X182969Y42361I1293J-2705*
G02X182725Y42278I-244J317*
G37*
G36*
X187725D02*
G02X187480Y42361I-1J400D01*
G03X187223Y42899I-2820J-1017*
G01X186664Y43511*
X186709Y43530*
G03Y43532J1*
X185953Y44048I-2048J-2189*
G01X187724Y47101*
X189496Y44048*
G03X188740Y43532I1292J-2705*
Y43530J-1*
G01X188785Y43511*
X188227Y42901*
G03X187969Y42361I2563J-1556*
G02X187725Y42278I-244J317*
G37*
G36*
X207725D02*
G02X207480Y42361I-1J400D01*
G03X205953Y44048I-2820J-1018*
G01X207724Y47101*
X209496Y44048*
G03X207969Y42361I1293J-2705*
G02X207725Y42278I-244J317*
G37*
G36*
X212725D02*
G02X212480Y42361I-1J400D01*
G03X210953Y44048I-2820J-1018*
G01X212724Y47101*
X214496Y44048*
G03X212969Y42361I1293J-2705*
G02X212725Y42278I-244J317*
G37*
G36*
X202724Y115799D02*
G01X200953Y118852D01*
G03X201709Y119368I-1292J2705*
Y119370J1*
G01X201664Y119389*
X202223Y120001*
G03X202480Y120539I-2565J1556*
G02X202725Y120622I244J-317*
X202969Y120539I0J-400*
G03X203227Y119999I2822J1017*
G01X203785Y119389*
X203740Y119370*
G03Y119368J-1*
X204496Y118852I2048J2189*
G01X202724Y115799*
G37*
G36*
X207724D02*
G01X205953Y118852D01*
G03X206709Y119368I-1292J2705*
Y119370J1*
G01X206664Y119389*
X207223Y120001*
G03X207480Y120539I-2565J1556*
G02X207725Y120622I244J-317*
X207969Y120539I0J-400*
G03X208227Y119999I2822J1017*
G01X208785Y119389*
X208740Y119370*
G03Y119368J-1*
X209496Y118852I2048J2189*
G01X207724Y115799*
G37*
G36*
X212724D02*
G01X210953Y118852D01*
G03X211709Y119368I-1292J2705*
Y119370J1*
G01X211664Y119389*
X212223Y120001*
G03X212480Y120539I-2565J1556*
G02X212725Y120622I244J-317*
X212969Y120539I0J-400*
G03X213227Y119999I2822J1017*
G01X213785Y119389*
X213740Y119370*
G03Y119368J-1*
X214496Y118852I2048J2189*
G01X212724Y115799*
G37*
G36*
X217724D02*
G01X215953Y118852D01*
G03X216709Y119368I-1292J2705*
Y119370J1*
G01X216664Y119389*
X217223Y120001*
G03X217480Y120539I-2565J1556*
G02X217725Y120622I244J-317*
X217969Y120539I0J-400*
G03X218227Y119999I2822J1017*
G01X218785Y119389*
X218740Y119370*
G03Y119368J-1*
X219496Y118852I2048J2189*
G01X217724Y115799*
G37*
G36*
X227724D02*
G01X225953Y118852D01*
G03X226709Y119368I-1292J2705*
Y119370J1*
G01X226664Y119389*
X227223Y120001*
G03X227480Y120539I-2565J1556*
G02X227725Y120622I244J-317*
X227969Y120539I0J-400*
G03X228227Y119999I2822J1017*
G01X228785Y119389*
X228740Y119370*
G03Y119368J-1*
X229496Y118852I2048J2189*
G01X227724Y115799*
G37*
G36*
X232724D02*
G01X230953Y118852D01*
G03X231709Y119368I-1292J2705*
Y119370J1*
G01X231664Y119389*
X232223Y120001*
G03X232480Y120539I-2565J1556*
G02X232725Y120622I244J-317*
X232969Y120539I0J-400*
G03X233227Y119999I2822J1017*
G01X233785Y119389*
X233740Y119370*
G03Y119368J-1*
X234496Y118852I2048J2189*
G01X232724Y115799*
G37*
G36*
X192725Y111175D02*
G02X192480Y111258I-1J400D01*
G03X190953Y112946I-2820J-1017*
G01X192724Y115999*
X194496Y112946*
G03X192969Y111258I1293J-2705*
G02X192725Y111175I-244J317*
G37*
G36*
X237725D02*
G02X237480Y111258I-1J400D01*
G03X235953Y112946I-2820J-1017*
G01X237724Y115999*
X239496Y112946*
G03X237969Y111258I1293J-2705*
G02X237725Y111175I-244J317*
G37*
G36*
X227724Y46901D02*
G01X225953Y49954D01*
G03X226708Y50469I-1292J2705*
X226707Y50470I-1J0*
G01X226664Y50489*
X227218Y51096*
G03X227480Y51642I-2560J1564*
G02X227725Y51725I244J-317*
X227969Y51642I0J-400*
G03X228232Y51094I2822J1017*
G01X228785Y50489*
X228742Y50470*
G03Y50469I1J0*
X229496Y49954I2048J2189*
G01X227724Y46901*
G37*
G36*
X232724D02*
G01X230953Y49954D01*
G03X231708Y50469I-1292J2705*
X231707Y50470I-1J0*
G01X231664Y50489*
X232218Y51096*
G03X232480Y51642I-2560J1564*
G02X232725Y51725I244J-317*
X232969Y51642I0J-400*
G03X233232Y51094I2822J1017*
G01X233785Y50489*
X233742Y50470*
G03Y50469I1J0*
X234496Y49954I2048J2189*
G01X232724Y46901*
G37*
G36*
X174850Y97178D02*
G03X173163Y98705I-2705J-1293D01*
G02X173079Y98950I316J245*
X173163Y99195I400J0*
G03X174850Y100722I-1018J2820*
G01X177903Y98950*
X174850Y97178*
G37*
G36*
Y62178D02*
G03X173163Y63705I-2705J-1293D01*
G02X173079Y63950I316J245*
X173163Y64195I400J0*
G03X174850Y65722I-1018J2820*
G01X177903Y63950*
X174850Y62178*
G37*
G36*
X197730Y111169D02*
G02X197485Y111253I0J400D01*
G03X195953Y112946I-2830J-1021*
G01X197724Y115999*
X199496Y112946*
G03X197976Y111254I1303J-2699*
G02X197730Y111169I-247J315*
G37*
G36*
X192724Y42250D02*
G01X192698Y42278D01*
G02X192480Y42361I27J399*
G03X192358Y42651I-2821J-1016*
G01X191664Y43411*
X191778Y43464*
Y43465*
G03X190953Y44048I-2118J-2122*
G01X192724Y47101*
X194496Y44048*
G03X193671Y43465I1293J-2705*
G01Y43464*
X193785Y43411*
X193092Y42653*
G03X192969Y42361I2698J-1308*
G02X192750Y42278I-245J316*
G01X192724Y42250*
G37*
G36*
X197724D02*
G01X197698Y42278D01*
G02X197480Y42361I27J399*
G03X197358Y42651I-2821J-1016*
G01X196664Y43411*
X196778Y43464*
Y43465*
G03X195953Y44048I-2118J-2122*
G01X197724Y47101*
X199496Y44048*
G03X198671Y43465I1293J-2705*
G01Y43464*
X198785Y43411*
X198092Y42653*
G03X197969Y42361I2698J-1308*
G02X197750Y42278I-245J316*
G01X197724Y42250*
G37*
G36*
X202724D02*
G01X202698Y42278D01*
G02X202480Y42361I27J399*
G03X202358Y42651I-2821J-1016*
G01X201664Y43411*
X201778Y43464*
Y43465*
G03X200953Y44048I-2118J-2122*
G01X202724Y47101*
X204496Y44048*
G03X203671Y43465I1293J-2705*
G01Y43464*
X203785Y43411*
X203092Y42653*
G03X202969Y42361I2698J-1308*
G02X202750Y42278I-245J316*
G01X202724Y42250*
G37*
G36*
X222724D02*
G01X222698Y42278D01*
G02X222480Y42361I27J399*
G03X222358Y42651I-2821J-1016*
G01X221664Y43411*
X221778Y43464*
Y43465*
G03X220953Y44048I-2118J-2122*
G01X222724Y47101*
X224496Y44048*
G03X223671Y43465I1293J-2705*
G01Y43464*
X223785Y43411*
X223092Y42653*
G03X222969Y42361I2698J-1308*
G02X222750Y42278I-245J316*
G01X222724Y42250*
G37*
G36*
X237724D02*
G01X237698Y42278D01*
G02X237480Y42361I27J399*
G03X237358Y42651I-2821J-1016*
G01X236664Y43411*
X236778Y43464*
Y43465*
G03X235953Y44048I-2118J-2122*
G01X237724Y47101*
X239496Y44048*
G03X238671Y43465I1293J-2705*
G01Y43464*
X238785Y43411*
X238092Y42653*
G03X237969Y42361I2698J-1308*
G02X237750Y42278I-245J316*
G01X237724Y42250*
G37*
G36*
X230230Y151980D02*
G01X228731Y153386D01*
X228730*
X228729*
X227230Y151980*
G03X225807Y153243I-2262J-1116*
G02X225730Y153479I323J236*
X225807Y153716I400J1*
G03X227230Y154980I-840J2378*
G01X228729Y153574*
X228730*
X228731*
X230230Y154980*
G03X231408Y153817I2263J1114*
G01X231409*
G03X232273Y154630I-853J1772*
G01X233158Y153448*
X232273Y152270*
G03X231404Y153140I-1800J-929*
X230230Y151980I1088J-2275*
G37*
G36*
X188150Y109652D02*
G01X186971Y110648D01*
G03X187346Y111573I-1234J1039*
G01X187345*
G03X185953Y112946I-2686J-1331*
G01X187724Y115999*
X189496Y112946*
G03X188163Y111688I1293J-2705*
G01Y111687*
G03X189191Y110811I1856J1137*
G01X188150Y109652*
G37*
G36*
X259758Y143269D02*
G01X256692Y145369D01*
G03X259505Y148179I-1983J4798*
G02X259758Y148269I253J-311*
X260010Y148179I-1J-401*
G03X262823Y145369I4797J1989*
G01X259758Y143269*
G37*
G36*
X222749Y12861D02*
G01X220649Y15926D01*
X222749Y18992*
G03X225559Y16179I4798J1983*
G02X225649Y15927I-311J-253*
X225559Y15674I-401J0*
G03X222749Y12861I1988J-4796*
G37*
G36*
X227202Y20654D02*
G01X227026Y20695D01*
G03X226417Y21439I-1287J-432*
G01X227123Y22590*
Y22591*
X227102Y22619*
X227123Y22647*
Y22648*
X226417Y23799*
X226681Y23998*
Y23999*
G03X226141Y24389I-1084J-932*
G01X227110Y25449*
G03Y25451J1*
G01X226141Y26511*
G03X226919Y27288I-544J1322*
G02X227202Y27405I283J-284*
X227485Y27288I0J-401*
G03X228262Y26511I1322J545*
G01X227294Y25451*
G03Y25449J-1*
G01X228262Y24389*
G03X227723Y23999I546J-1322*
Y23998I1J0*
G01X227987Y23799*
G03X228974Y22889I1752J910*
G01Y22888*
Y22889*
G03X229960Y23799I-767J1820*
G01X230845Y22619*
X229960Y21439*
G03X228974Y22350I-1753J-909*
X227987Y21439I766J-1820*
X227378Y20695I678J-1176*
G01X227202Y20654*
G37*
G36*
X103505Y163690D02*
G02X102444Y164129I0J1501D01*
G03X101415Y165157I-1749J-722*
G01Y165158*
G03X100386Y166186I-1749J-722*
G02X99947Y167247I1062J1061*
X100386Y168307I1500J-1*
G03X101415Y169336I-721J1750*
X102444Y170365I-720J1749*
G02X103505Y170804I1061J-1062*
X104565Y170365I-1J-1501*
G03X105594Y169336I1749J720*
G01X103847Y167276*
Y167275*
X103880Y167247*
X103847Y167219*
Y167218*
X105594Y165157*
G03X104565Y164129I720J-1750*
G02X103505Y163690I-1061J1062*
G37*
G36*
X132730Y51750D02*
G01X127330D01*
X127030Y52050*
Y57850*
X127730Y58550*
X132930*
X133030Y58450*
Y52050*
X132730Y51750*
G37*
G36*
X249930Y146150D02*
G01X248869Y147311D01*
G03X249283Y147572I-544J1322*
Y147573I-1J1*
X248450Y148260I-1981J-1553*
G01X249853Y149756*
G03Y149757I-1J1*
G01X249850Y149760*
X249909Y149816*
X249951Y149860*
X249953Y149858*
X249954Y149857*
Y149858*
X251450Y151260*
G03X252530Y150147I2262J1115*
G01X252531*
G03X252885Y150520I-781J1096*
X253795Y151507I-911J1753*
X252885Y152493I-1820J-767*
G01X254065Y153378*
X255244Y152493*
G03X254334Y151507I910J-1753*
X255244Y150520I1821J765*
X255989Y149911I1176J678*
G01X256030Y149735*
X255989Y149559*
G03X255244Y148950I431J-1287*
G01X254094Y149656*
X254093*
X254065Y149635*
X254038Y149655*
X252885Y148950*
G03X252520Y149367I-1209J-690*
G01X252519*
G03X251450Y148260I1193J-2222*
X250584Y147566I1128J-2294*
G01Y147565*
G03X250991Y147311I950J1069*
G01X249930Y146150*
G37*
G36*
X145430Y51850D02*
G01X141430D01*
X141330Y51950*
Y61050*
Y64150*
X141730Y64550*
X145330*
X145730Y64150*
Y61150*
Y52150*
X145430Y51850*
G37*
G36*
X164730Y51750D02*
G01X156930D01*
X156630Y52050*
Y58350*
X156830Y58550*
X165030*
X165430Y58150*
Y52450*
X164730Y51750*
G37*
G36*
X9630Y116461D02*
G02X8216Y117047I0J2000D01*
G03X5741Y119522I-4208J-1733*
G01X9161Y123382*
G03Y123383I-1J1*
G01X9130Y123411*
X9161Y123439*
G03Y123440I-1J1*
G01X5741Y127300*
G03X8216Y129775I-1732J4207*
G02X9630Y130361I1414J-1414*
X11044Y129775I0J-2000*
G03X13519Y127300I4208J1733*
X15994Y124825I4207J1732*
G02X16580Y123411I-1414J-1414*
X15994Y121997I-2000J1*
G03X13519Y119522I1732J-4207*
X11044Y117047I1733J-4208*
G02X9630Y116461I-1414J1414*
G37*
G36*
X229197Y131150D02*
G01X228344D01*
G02X228144Y131350J200*
G01Y132984*
G03X228143Y132985I-1J0*
X226444Y131050I2746J-4124*
G01X223945Y133777*
X223944*
X223943*
X221444Y131050*
G03X219745Y132985I-4445J-2190*
X219744Y132984I0J-1*
G01Y131350*
G02X219544Y131150I-200J0*
G01X209836*
G02X209636Y131350J200*
G01Y133144*
G02X209836Y133344I200J0*
G01X214249*
G03X214449Y133544J200*
G01Y136981*
G02X214649Y137181I200J0*
G01X219544*
G02X219744Y136981I0J-200*
G01Y135116*
G03X219745Y135115I1J0*
X221444Y137050I-2746J4125*
G01X223943Y134323*
X223944*
X223945*
X226444Y137050*
G03X228143Y135115I4445J2189*
X228144Y135116I0J1*
G01Y137050*
G03X226444Y138750I-1700J0*
G01X224676*
G02X224492Y138874I1J200*
G01X224468Y138930*
X224492Y139049*
X225735Y140291*
G02X225876Y140350I142J-140*
G01X232597*
G02X232782Y140226J-200*
G01X232805Y140170*
X232781Y140051*
X231288Y138558*
G03X231230Y138417I141J-141*
G01Y133183*
G02X231171Y133041I-200J0*
G01X229339Y131209*
G02X229197Y131150I-142J140*
G37*
G36*
X73430Y55050D02*
G01X61030D01*
X58530Y57550*
Y69450*
X59530Y70450*
X74730*
X74930Y70250*
Y56550*
X73430Y55050*
G37*
G36*
X158030Y6950D02*
G01X150130D01*
X147630Y9450*
Y22550*
X146430Y23750*
Y30950*
X146830Y31350*
X150630*
X150830Y31150*
Y23150*
X153530Y20450*
Y19350*
X158530Y14350*
Y7450*
X158030Y6950*
G37*
G36*
X141730Y6550D02*
G01X133830D01*
X132030Y8350*
Y12650*
X138530Y19150*
Y20250*
X141330Y23050*
Y31150*
X141430Y31250*
X145130*
X145730Y30650*
Y23850*
X144330Y22450*
Y9150*
X141730Y6550*
G37*
G36*
X197730Y149250D02*
G01X191430D01*
X187230Y153450*
X184430*
X184230Y153650*
Y156850*
X185330Y157950*
Y161250*
X185380Y161300*
Y162200*
X183830Y163750*
X182030*
X180430Y165350*
Y169450*
X181330Y170350*
X187730*
X188130Y169950*
Y157050*
X192230Y152950*
X197830*
X198030Y152750*
Y149550*
X197730Y149250*
G37*
G36*
X127330Y79750D02*
G01X115930D01*
X114730Y80950*
Y85050*
X111530Y88250*
X101830*
X100830Y89250*
Y96350*
X101530Y97050*
X109230*
X115730Y90550*
X125730*
X127630Y88650*
Y80050*
X127330Y79750*
G37*
G36*
X206930Y6950D02*
G01X203830D01*
X202230Y8550*
Y13750*
X199230Y16750*
X164230*
X156730Y24250*
Y31050*
X157030Y31350*
X162530*
X163830Y30050*
Y26750*
X167730Y22850*
X205730*
X208330Y20250*
Y8350*
X206930Y6950*
G37*
G36*
X228230Y167050D02*
G01X226230D01*
X226130Y167150*
Y171450*
X224830Y172750*
Y174250*
X222230Y176850*
X213630*
X211230Y174450*
Y173150*
X209530Y171450*
Y167250*
X209330Y167050*
X207430*
X207230Y167250*
Y171550*
X208930Y173250*
Y176250*
X207230Y177950*
X194030*
X192430Y179550*
X183930*
X178830Y184650*
Y193150*
X179130Y193450*
X186730*
X187030Y193150*
Y186050*
X188830Y184250*
X195230*
X197030Y182450*
X202130*
X203230Y181350*
X226030*
X227130Y180250*
Y172650*
X228430Y171350*
Y167250*
X228230Y167050*
G37*
G36*
X87430Y6950D02*
G01X82330D01*
X81930Y7350*
Y19850*
X86730Y24650*
X126430*
X128030Y26250*
Y29750*
X129830Y31550*
X135030*
X135430Y31150*
Y24750*
X127730Y17050*
X91430*
X88230Y13850*
Y7750*
X87430Y6950*
G37*
G36*
X54330Y134750D02*
G01X36730D01*
X33630Y137850*
X5230*
X3130Y139950*
Y157650*
X6021Y160541*
X50940Y160440*
X56130Y155250*
Y136550*
X54330Y134750*
G37*
G36*
X83730Y86050D02*
G01X63630D01*
X62830Y86850*
Y89450*
X63830Y90450*
X77530*
X81630Y94550*
Y123950*
X82430Y124750*
X122830*
X123430Y124150*
Y108750*
X123230Y108550*
X116830*
X108430Y116950*
X95830*
X89530Y110650*
Y91850*
X83730Y86050*
G37*
G36*
X66530Y23050D02*
G01X13730D01*
X13330Y23450*
Y35850*
X13830Y36350*
X64530*
X80930Y52750*
Y70350*
X78630Y72650*
X63030*
X62830Y72850*
Y76750*
X63230Y77150*
X84930*
X86230Y78450*
X95030*
X95330Y78150*
Y51850*
X66530Y23050*
G37*
G36*
X274391Y133245D02*
G01X252669D01*
X252554Y133352*
X252548Y133430*
G03X250853Y135002I-1695J-128*
G01X248493*
X248428Y135001*
X248420*
G02X248285Y135053I0J200*
G01X248195Y135136*
G02X248130Y135283I135J147*
G01Y136932*
G02X248189Y137073I200J-1*
G01X248698Y137583*
G02X248839Y137641I141J-141*
G01X248840*
X253609*
G03X253750Y137700I-1J200*
G01X255814Y139763*
X255927Y139789*
X255982Y139769*
G03X256557Y139669I575J1601*
G01X256558*
X260957*
G02X261157Y139469I0J-200*
G01Y135759*
G03X262857Y134058I1700J-1*
G01X269257*
G03X270957Y135759J1700*
G01Y139759*
G03X269257Y141459I-1700J0*
G01X264858*
G02X264658Y141659J200*
G01Y142479*
G02X264723Y142626I200J-1*
G01X264972Y142854*
X265052Y142881*
X265094Y142877*
X265280Y142864*
X265373Y142861*
X265467Y142860*
G03X269363Y145581I-1J4151*
X267856Y150405I-3896J1430*
X265467Y151161I-2388J-3395*
X262807Y150197I0J-4151*
G01X262520Y149934*
X262492Y149906*
X262419Y149875*
X262096Y149874*
G02X261954Y149933I0J200*
G01X259810Y152076*
G03X259669Y152135I-142J-140*
G01X257138*
G02X256938Y152335J200*
G01Y152343*
X256939Y152352*
X256945Y152493*
Y154063*
G03X256698Y154946I-1700J1*
G02Y155154I171J104*
G03X256932Y155831I-1454J881*
G01X256941Y155907*
X257055Y156007*
X258657*
Y156008*
G03X256558Y157708I-4185J-3022*
X254663Y159260I-2989J-1716*
G01X254641Y159307*
X254640*
X252885*
X252884*
G03X251184Y157607I1J-1701*
G01Y156037*
G03X251432Y155154I1700J1*
G02Y154946I-171J-104*
G03X251184Y154063I1452J-884*
G01Y153160*
G02X250984Y152960I-200*
G01X248450*
G03X246750Y151260I0J-1700*
G01Y148260*
G03X246790Y147894I1701J1*
G01X246775Y147765*
G03X247940Y143371I3155J-1515*
G01X247994Y143333*
X248037Y143209*
X247903Y142782*
G02X247712Y142642I-191J60*
G01X246769*
G03X246627Y142583I0J-200*
G01X244753Y140709*
G02X244611Y140650I-142J140*
G01X236307*
G02X236123Y140774I1J200*
G01X236099Y140830*
X236123Y140949*
X238297Y143123*
X238438Y143137*
X238498Y143098*
G03X239430Y142820I932J1422*
G01X242430*
G03X244130Y144520J1700*
G01Y147520*
G03X242430Y149220I-1700J0*
G01X239430*
G03X238295Y148786I0J-1700*
G02X238161Y148735I-134J149*
X238079Y148752I-1J200*
G03X237387Y148899I-692J-1554*
G01X235817*
X235816*
G03X234934Y148652I0J-1700*
G02X234830Y148623I-104J171*
X234726Y148652I0J200*
G03X233843Y148899I-883J-1453*
G01X232273*
X232272*
G03X231567Y148746I0J-1700*
G02X231483Y148728I-83J182*
X231352Y148777I0J200*
G03X230230Y149200I-1122J-1277*
G01X227230*
G03X225530Y147500I0J-1700*
G01Y145350*
G02X225330Y145150I-200*
G01X223888*
X223887*
G03X223746Y145092I0J-200*
G01X223345Y144691*
G02X223204Y144632I-142J140*
G01X223196Y144633*
X223189*
X222844Y144658*
X222767Y144700*
X222741Y144735*
G03X220190Y146141I-2812J-2084*
G01X220111Y146146*
X220005Y146261*
Y146340*
G02X220204Y146540I200J0*
G01X221210*
G03X222910Y148240J1700*
G01Y150880*
G02X223110Y151080I200J0*
G01X225681*
G02X225844Y150996I0J-200*
G03X227230Y150280I1386J984*
G01X230230*
X230231*
G03X231345Y150696I0J1700*
G02X231476Y150745I131J-151*
X231560Y150727I1J-200*
G03X232273Y150570I713J1543*
G01X233843*
X233844*
G03X234726Y150817I0J1700*
G02X234830Y150846I104J-171*
X234934Y150817I0J-200*
G03X235817Y150570I883J1453*
G01X237387*
X237388*
G03X238114Y150733I0J1700*
G02X238200Y150752I85J-182*
G01X238329Y150705*
G03X239430Y150300I1101J1295*
G01X242430*
G03X244130Y152000J1700*
G01Y155000*
G03X242430Y156700I-1700J0*
G01X239430*
X239429*
G03X238262Y156236I0J-1700*
G02X238125Y156181I-138J145*
X238047Y156197I0J200*
G03X237388Y156330I-659J-1567*
G01X237387*
X235817*
X235816*
G03X234934Y156083I0J-1700*
G02X234830Y156054I-104J171*
X234726Y156083I0J200*
G03X233843Y156330I-883J-1453*
G01X232273*
G03X231600Y156191I0J-1700*
G02X231521Y156175I-78J184*
X231385Y156228I0J200*
G03X230230Y156680I-1155J-1248*
G01X227230*
G03X225844Y155964I0J-1700*
G02X225681Y155880I-163J116*
G01X221002*
G02X220824Y155989I0J200*
G01X220635Y156355*
X220644Y156467*
X220676Y156513*
G03X221229Y157714I-2845J2038*
G01X221239Y157754*
X221288Y157820*
X221612Y158004*
X221694Y158013*
X221734Y158001*
G03X222752Y157850I1017J3349*
X225856Y162965I-1J3500*
G01X225832Y163012*
X225836Y163116*
X226040Y163454*
G02X226211Y163550I171J-104*
G01X229597*
G03X229738Y163608I0J200*
G01X231391Y165261*
G02X231533Y165320I142J-140*
G01X231609*
X231611*
G03X232311Y165471I0J1700*
G02X232394Y165489I83J-182*
X232496Y165461I0J-200*
G03X234838Y164815I2342J3921*
X239405Y169382I0J4567*
G01Y173713*
G03X236400Y178005I-4567J0*
X234838Y178280I-1561J-4292*
X231510Y176841I0J-4567*
G02X231364Y176778I-146J137*
X231258Y176808I-1J200*
G01X230751Y177074*
G02X230630Y177258I79J184*
G01Y181617*
G03X230572Y181758I-200J0*
G01X227538Y184792*
G03X227397Y184850I-141J-141*
G01X205675*
G02X205519Y184925I0J200*
G01X205295Y185203*
X205274Y185291*
X205284Y185336*
G03X205389Y186311I-4462J974*
G01Y189461*
G03X200822Y194028I-4567J0*
X196255Y189461I0J-4567*
G01Y187950*
G02X196055Y187750I-200*
G01X190730*
G02X190530Y187950J200*
G01Y194517*
G03X190472Y194658I-200J0*
G01X189622Y195509*
G02X189578Y195726I141J141*
G01X189601Y195783*
X189702Y195850*
X274391*
G02X274591Y195650I0J-200*
G01Y133445*
G02X274391Y133245I-200*
G37*
G36*
X158030Y79350D02*
G01X135130D01*
X134730Y79750*
Y104950*
X142030Y112250*
Y127650*
X142530Y128150*
X151330*
X154430Y125050*
X166530*
X172430Y130950*
Y141150*
Y155350*
X172730Y155650*
X175230*
X175630Y155250*
Y144350*
X177130Y142850*
X182030*
X182330Y142550*
Y140850*
X182130Y140650*
X178030*
X176630Y139250*
Y129750*
X178730Y127650*
X230730*
X234730Y131650*
Y137050*
X234830Y137150*
X244230*
X244630Y136750*
Y112950*
X244330Y112650*
X241130*
X240830Y112950*
Y122550*
X238530Y124850*
X177030*
X173930Y121750*
X161630*
X158630Y118750*
Y79950*
X158030Y79350*
G37*
G36*
X274391Y1000D02*
G01X94894D01*
G02X94709Y1124I0J200*
G01X94685Y1180*
X94709Y1299*
X98084Y4674*
X98108Y4687*
G03X99803Y6102I-2997J5313*
G01X99831Y6136*
X99912Y6174*
X100309*
X100390Y6136*
X100418Y6102*
G03X105111Y3899I4693J3897*
X109803Y6102I-1J6100*
G01X109831Y6136*
X109912Y6174*
X110309*
X110390Y6136*
X110418Y6102*
G03X115111Y3899I4693J3897*
X119803Y6102I-1J6100*
G01X119831Y6136*
X119912Y6174*
X120309*
X120390Y6136*
X120418Y6102*
G03X125111Y3900I4692J3898*
X129442Y5704I0J6100*
G01Y5705*
G02X129583Y5764I142J-141*
X129725Y5705I0J-200*
G01X132322Y3108*
G03X132463Y3050I141J141*
G01X143097*
G03X143238Y3108I0J200*
G01X145989Y5859*
G02X146130Y5917I141J-141*
X146271Y5859I0J-199*
G01X148622Y3508*
G03X148763Y3450I141J141*
G01X159397*
G03X159538Y3508I0J200*
G01X161209Y5179*
X161359Y5189*
X161419Y5144*
G03X165111Y3900I3692J4856*
X169803Y6102I0J6100*
G01X169831Y6136*
X169912Y6174*
X170309*
X170390Y6136*
X170418Y6102*
G03X175111Y3899I4693J3897*
X179803Y6102I-1J6100*
G01X179831Y6136*
X179912Y6174*
X180309*
X180390Y6136*
X180418Y6102*
G03X185111Y3899I4693J3897*
X189803Y6102I-1J6100*
G01X189831Y6136*
X189912Y6174*
X190309*
X190390Y6136*
X190418Y6102*
G03X195111Y3899I4693J3897*
X199496Y5759I-1J6101*
G01X199524Y5788*
X199597Y5820*
X199923Y5823*
X199924*
G02X200066Y5764I0J-200*
G01X202322Y3508*
G03X202463Y3450I141J141*
G01X208297*
G03X208438Y3508I0J200*
G01X210893Y5963*
G02X211034Y6021I141J-141*
X211076Y6017I2J-199*
G01X211454Y5936*
X211532Y5870*
X211550Y5822*
G03X213139Y4727I1589J605*
G01X217139*
G03X218839Y6427J1700*
G01Y10826*
G02X219039Y11026I200J0*
G01X219859*
G02X220006Y10961I-1J-200*
G01X220234Y10712*
X220261Y10632*
X220257Y10590*
G03X222961Y6321I4134J-373*
X224391Y6067I1430J3896*
X227784Y7828I-1J4150*
X227577Y12876I-3394J2389*
G01X227304Y13173*
G03X227303Y13174I-1J0*
G02Y13457I141J142*
G01X229544Y15697*
G03X229602Y15839I-141J141*
G01Y19458*
G02X229667Y19605I200J-1*
G01X229756Y19688*
G02X229891Y19740I134J-148*
G01X229899*
X229960Y19739*
X231530*
X231531*
G03X232413Y19986I0J1700*
G02X232517Y20015I104J-171*
X232621Y19986I0J-200*
G03X233100Y19788I881J1454*
G01X233136Y19779*
X233197Y19737*
X233389Y19456*
X233407Y19384*
X233402Y19347*
G03X233387Y19126I1685J-225*
G01Y17027*
X233388*
G03X235088Y19126I-3022J4185*
X236640Y21021I-1716J2988*
G02X236831Y21093I446J-895*
G03X236832Y21095I0J1*
G01X236787Y21144*
X236761Y21225*
X236765Y21267*
G03X236774Y21439I-1691J175*
G01Y23799*
G03X235074Y25499I-1700J0*
G01X233504*
X233503*
G03X232621Y25252I0J-1700*
G02X232517Y25223I-104J171*
X232413Y25252I0J200*
G03X231530Y25499I-883J-1453*
G01X230815*
X230700Y25607*
X230694Y25686*
G03X229662Y27940I-3492J-236*
G02X229602Y28083I139J143*
G01Y30589*
G03X229544Y30731I-200J1*
G01X226483Y33792*
G03X226342Y33850I-141J-141*
G01X226341*
X208407*
G02X208223Y33974I1J200*
G01X208199Y34030*
X208223Y34149*
X215066Y40992*
G03X215125Y41133I-140J142*
G01Y41992*
G02X215198Y42148I200J1*
G01X215474Y42372*
X215562Y42393*
X215606Y42384*
G03X215953Y42348I348J1664*
G01X219109*
X219225Y42239*
X219229Y42159*
G03X222610Y38852I3495J191*
G01X222667Y38850*
X222696*
X222724*
G03X226219Y42159I0J3500*
G01X226224Y42239*
X226339Y42348*
X229496*
G03X230148Y42478I0J1700*
G02X230225Y42493I76J-185*
X230301Y42478I0J-200*
G03X230953Y42348I652J1570*
G01X234109*
X234225Y42239*
X234229Y42159*
G03X237610Y38852I3495J191*
G01X237667Y38850*
X237696*
X237724*
G03X241219Y42159I0J3500*
G01X241224Y42239*
X241339Y42348*
X244496*
G03X245148Y42478I0J1700*
G02X245225Y42493I76J-185*
X245301Y42478I0J-200*
G03X245953Y42348I652J1570*
G01X247472*
Y42349*
G03X245953Y44048I-3493J-1595*
G01X247450Y46861*
Y46862*
X247349Y47001*
X247450Y47140*
Y47141*
X245953Y49954*
G03X247472Y51653I-1974J3293*
G01Y51654*
X245953*
G03X245301Y51524I0J-1700*
G02X245225Y51509I-76J185*
X245148Y51524I-1J200*
G03X244496Y51654I-652J-1570*
G01X240953*
G03X240301Y51524I0J-1700*
G02X240225Y51509I-76J185*
X240148Y51524I-1J200*
G03X239496Y51654I-652J-1570*
G01X236334*
X236219Y51760*
X236213Y51838*
G03X232725Y55051I-3488J-287*
X230415Y54180I0J-3500*
G02X230283Y54130I-132J150*
G01X230166*
G02X230034Y54180I0J200*
G03X227725Y55050I-2310J-2630*
X224236Y51838I0J-3500*
G01X224230Y51760*
X224115Y51654*
X220953*
G03X220301Y51524I0J-1700*
G02X220225Y51509I-76J185*
X220148Y51524I-1J200*
G03X219496Y51654I-652J-1570*
G01X215953*
G03X215301Y51524I0J-1700*
G02X215225Y51509I-76J185*
X215148Y51524I-1J200*
G03X214496Y51654I-652J-1570*
G01X210953*
G03X210301Y51524I0J-1700*
G02X210225Y51509I-76J185*
X210148Y51524I-1J200*
G03X209496Y51654I-652J-1570*
G01X205953*
G03X205301Y51524I0J-1700*
G02X205225Y51509I-76J185*
X205148Y51524I-1J200*
G03X204496Y51654I-652J-1570*
G01X200953*
G03X200301Y51524I0J-1700*
G02X200225Y51509I-76J185*
X200148Y51524I-1J200*
G03X199496Y51654I-652J-1570*
G01X195953*
G03X195301Y51524I0J-1700*
G02X195225Y51509I-76J185*
X195148Y51524I-1J200*
G03X194496Y51654I-652J-1570*
G01X190953*
G03X190301Y51524I0J-1700*
G02X190225Y51509I-76J185*
X190148Y51524I-1J200*
G03X189496Y51654I-652J-1570*
G01X185953*
G03X185301Y51524I0J-1700*
G02X185225Y51509I-76J185*
X185148Y51524I-1J200*
G03X184496Y51654I-652J-1570*
G01X180953*
G03X179253Y49954I0J-1700*
G01Y44048*
G03X179751Y42846I1700J0*
X180211Y42518I1203J1201*
G01X180263Y42493*
X180324Y42396*
Y37039*
G03X180383Y36897I200J0*
G01X182472Y34808*
G03X182613Y34750I141J141*
G01X193034*
G02X193176Y34691I0J-200*
G01X198759Y29108*
G03X198900Y29050I141J141*
G01X224353*
G02X224494Y28991I-1J-200*
G01X224743Y28742*
G02X224802Y28601I-140J-142*
G01Y28042*
X224771Y27968*
X224742Y27940*
G03X223710Y25686I2460J-2490*
G01X223704Y25607*
X223589Y25499*
X223451*
X223394Y25516*
X223370Y25533*
G03X221430Y26120I-1940J-2914*
X219117Y25247I0J-3501*
X218233Y21195I2314J-2627*
G01X218249Y21159*
X218251Y21080*
X218124Y20744*
X218071Y20686*
X218035Y20669*
G03X217049Y19126I714J-1543*
G01Y14727*
G02X216849Y14527I-200*
G01X213139*
X213138*
G03X212403Y14360I0J-1700*
G01X212357Y14338*
X212254Y14343*
X211924Y14551*
G02X211830Y14720I106J169*
G01Y21617*
G03X211772Y21758I-200J0*
G01X207238Y26292*
G03X207097Y26350I-141J-141*
G01X169263*
G02X169121Y26409I0J200*
G01X167389Y28141*
G02X167330Y28283I140J142*
G01Y31417*
G03X167272Y31558I-200J0*
G01X164038Y34792*
G03X163897Y34850I-141J-141*
G01X155663*
G03X155522Y34792I0J-200*
G01X153971Y33242*
G02X153830Y33184I-141J141*
X153689Y33242I0J199*
G01X152138Y34792*
G03X151997Y34850I-141J-141*
G01X145463*
G03X145322Y34792I0J-200*
G01X145311Y34781*
X145237Y34750*
X140063*
G03X139922Y34692I0J-200*
G01X138521Y33292*
G02X138380Y33234I-141J141*
X138239Y33292I0J199*
G01X136538Y34992*
G03X136397Y35050I-141J-141*
G01X128463*
G03X128322Y34992I0J-200*
G01X124588Y31258*
G03X124530Y31117I141J-141*
G01Y28350*
G02X124330Y28150I-200*
G01X90063*
G02X89878Y28274I0J200*
G01X89855Y28330*
X89879Y28449*
X91521Y30091*
G02X91663Y30150I142J-140*
G01X113697*
G03X113838Y30208I0J200*
G01X119872Y36242*
G03X119930Y36383I-141J141*
G01Y60217*
G02X119989Y60359I200J0*
G01X124021Y64391*
G02X124163Y64450I142J-140*
G01X129897*
G03X130038Y64508I0J200*
G01X131887Y66357*
G02X132028Y66415I141J-141*
X132105Y66400I1J-199*
G01X132161Y66377*
X132228Y66276*
Y62250*
G02X132028Y62050I-200J0*
G01X126363*
G03X126222Y61992I0J-200*
G01X123588Y59358*
G03X123530Y59217I141J-141*
G01Y50683*
G03X123588Y50542I200J0*
G01X125822Y48308*
G03X125963Y48250I141J141*
G01X134097*
G03X134238Y48308I0J200*
G01X136052Y50122*
X136142Y50152*
X136189Y50145*
G03X136464Y50125I278J1917*
G01X137883*
G03X138088Y50136I-1J1937*
G01X138134Y50141*
X138219Y50111*
X139922Y48408*
G03X140063Y48350I141J141*
G01X146797*
G03X146938Y48408I0J200*
G01X148597Y50067*
G02X148738Y50125I141J-141*
G01X149242*
X149259*
X150678*
G03X151195Y50196I-3J1937*
G02X151249Y50203I52J-193*
X151302Y50196I1J-200*
G03X151818Y50125I520J1866*
G01X153237*
G03X153480Y50141I-6J1937*
G01X153526Y50146*
X153613Y50117*
X155422Y48308*
G03X155563Y48250I141J141*
G01X166097*
G03X166238Y48308I0J200*
G01X168872Y50942*
G03X168930Y51083I-141J141*
G01Y59517*
G03X168872Y59658I-200J0*
G01X166538Y61992*
G03X166397Y62050I-141J-141*
G01X164205*
G02X164025Y62162I0J200*
G01X163842Y62537*
X163854Y62651*
X163889Y62696*
G03X163471Y67452I-2759J2154*
G01X163424Y67494*
X163395Y67615*
X163552Y68021*
G02X163738Y68150I187J-71*
G01X164353*
G02X164494Y68091I-1J-200*
G01X170977Y61608*
G03X171118Y61550I141J141*
G01X171119*
X172794*
X172795*
G02X172950Y61476I0J-200*
G01X173174Y61200*
X173195Y61112*
X173186Y61068*
G03X173150Y60722I1664J-348*
G01Y57178*
G03X174850Y55478I1700*
G01X180756*
G03X182456Y57178J1700*
G01Y60722*
G03X182326Y61373I-1700J-1*
G02Y61527I185J77*
G03X182456Y62178I-1570J652*
G01Y65722*
Y65734*
Y97166*
Y97178*
Y100722*
G03X182326Y101373I-1700J-1*
G02Y101527I185J77*
G03X182456Y102178I-1570J652*
G01Y103576*
G03X182455Y103577I-1J0*
G01X182454Y103576*
X182444Y103551*
G03X180756Y102178I1011J-2968*
G01X177894Y103762*
X177893*
X177803Y103700*
X177713Y103762*
X177712*
X174850Y102178*
G03X173162Y103551I-2700J-1595*
G01X173152Y103576*
G03X173151Y103577I-1J0*
G01X173150Y103576*
Y102178*
G03X173160Y101994I1700J0*
G01X173165Y101951*
X173139Y101870*
X172912Y101617*
G02X172763Y101550I-149J133*
G01X171536*
X171535*
G03X171394Y101492I0J-200*
G01X169188Y99286*
G03X169130Y99144I141J-141*
G01Y79110*
G02X169071Y78968I-200J0*
G01X166712Y76609*
G02X166570Y76550I-142J140*
G01X160663*
G02X160478Y76674J200*
G01X160455Y76730*
X160479Y76849*
X162072Y78442*
G03X162130Y78583I-141J141*
G01Y117217*
G02X162189Y117359I200J0*
G01X163021Y118191*
G02X163163Y118250I142J-140*
G01X175297*
G03X175438Y118308I0J200*
G01X178421Y121291*
G02X178563Y121350I142J-140*
G01X198856*
X198857*
G02X199007Y121282I0J-200*
G01X199233Y121024*
X199259Y120941*
X199253Y120898*
X199236Y120735*
X199230Y120658*
X199115Y120552*
X195953*
G03X195301Y120422I0J-1700*
G02X195225Y120407I-76J185*
X195148Y120422I-1J200*
G03X194496Y120552I-652J-1570*
G01X190953*
G03X190301Y120422I0J-1700*
G02X190225Y120407I-76J185*
X190148Y120422I-1J200*
G03X189496Y120552I-652J-1570*
G01X185953*
G03X185301Y120422I0J-1700*
G02X185225Y120407I-76J185*
X185148Y120422I-1J200*
G03X184496Y120552I-652J-1570*
G01X180953*
G03X179253Y118852I0J-1700*
G01Y112946*
G03X180953Y111246I1700J0*
G01X184496*
X184548Y111247*
X184555*
G02X184714Y111168I0J-200*
G01X184788Y111070*
G02X184818Y110884I-159J-121*
G03X185932Y107026I3312J-1133*
X188130Y106250I2198J2725*
X189740Y106642I0J3501*
G01X189787Y106666*
X189891Y106663*
X190228Y106458*
G02X190324Y106287I-104J-171*
G01Y99927*
G02X190266Y99786I-200J0*
G01X190063Y99583*
X189989Y99553*
X189949*
X189927*
G03X186427Y96075J-3500*
X189690Y92561I3500J-22*
G02X189874Y92393I-14J-200*
G03X193330Y89449I3456J557*
G01X193584Y89459*
G03X196830Y92972I-255J3491*
G01Y93012*
X196860Y93086*
X200072Y96297*
G03X200130Y96439I-141J141*
G01Y110889*
G02X200204Y111044I200J0*
G01X200479Y111268*
X200566Y111290*
X200611Y111281*
G03X200953Y111246I343J1665*
G01X204496*
G03X205148Y111376I0J1700*
G02X205225Y111391I76J-185*
X205301Y111376I0J-200*
G03X205953Y111246I652J1570*
G01X209496*
G03X210148Y111376I0J1700*
G02X210225Y111391I76J-185*
X210301Y111376I0J-200*
G03X210953Y111246I652J1570*
G01X214496*
G03X215148Y111376I0J1700*
G02X215225Y111391I76J-185*
X215301Y111376I0J-200*
G03X215953Y111246I652J1570*
G01X219496*
G03X220148Y111376I0J1700*
G02X220225Y111391I76J-185*
X220301Y111376I0J-200*
G03X220953Y111246I652J1570*
G01X224496*
G03X225148Y111376I0J1700*
G02X225225Y111391I76J-185*
X225301Y111376I0J-200*
G03X225953Y111246I652J1570*
G01X229496*
G03X230148Y111376I0J1700*
G02X230225Y111391I76J-185*
X230301Y111376I0J-200*
G03X230953Y111246I652J1570*
G01X234496*
G03X234843Y111282I-1J1700*
G01X234887Y111291*
X234974Y111270*
X235250Y111045*
G02X235324Y110890I-126J-155*
G01Y108539*
G03X235383Y108397I200J0*
G01X237472Y106308*
G03X237613Y106250I141J141*
G01X242097*
G02X242240Y106190I0J-200*
G03X244730Y105150I2490J2460*
X246964Y105955I1J3500*
X247567Y110700I-2234J2695*
G01X247524Y110759*
X247536Y110906*
X247817Y111187*
G02X247959Y111246I142J-140*
G01X249496*
G03X251196Y112946J1700*
G01Y114714*
G03X251195Y114715I-1J0*
X249496Y112946I2721J-4314*
X247801Y111358I1649J-3459*
G01X247763Y111357*
X247744Y111356*
X247725*
X247706*
X247687Y111357*
X247648Y111358*
G03X245953Y112946I-3344J-1871*
G01X247450Y115759*
Y115760*
X247349Y115899*
X249398Y118717*
G03Y118719J1*
G02X248709Y119044I274J1475*
X248173Y120193I964J1149*
X248224Y120582I1500J1*
X248130Y120752I106J170*
G01Y121781*
G02X248195Y121928I200J-1*
G01X248285Y122010*
G02X248421Y122063I135J-147*
G01X248428*
X248493Y122062*
X249178*
X249179*
G02X249673Y122193I495J-869*
X250167Y122062I-1J-1000*
G01X250168*
X250853*
G03X252216Y122746I0J1700*
G01X252255Y122798*
X252378Y122837*
X252800Y122697*
G02X252937Y122507I-63J-190*
G01Y31336*
G03X253137Y31136I200*
G01X274391*
G02X274591Y30936I0J-200*
G01Y1200*
G02X274391Y1000I-200*
G37*
G36*
X74408D02*
G01X1200D01*
G02X1000Y1200J200*
G01Y120022*
G02X1161Y120219I200J1*
G01X1617Y120309*
X1743Y120241*
X1770Y120175*
G03X9630Y114911I7860J3236*
X10721Y114981I2J8500*
X18044Y122205I-1091J8430*
G01X18050Y122248*
X18097Y122322*
X18425Y122532*
X18511Y122545*
X18553Y122532*
G03X19029Y122464I476J1632*
G01X19030*
X20795*
Y122465*
G03X19030Y124164I-4696J-3112*
G01X21529Y126663*
G03Y126665J1*
G01X19030Y129164*
G03X20795Y130863I-2931J4811*
X20794Y130864I-1J0*
G01X19030*
G03X17330Y129164I0J-1700*
G01Y128503*
G02X17190Y128312I-200J0*
G01X16763Y128178*
X16639Y128220*
X16602Y128274*
G03X9630Y131911I-6972J-4863*
X1770Y126647I0J-8500*
G01X1743Y126581*
X1617Y126513*
X1161Y126603*
G02X1000Y126800I39J196*
G01Y136647*
G02X1124Y136832I200*
G01X1180Y136855*
X1299Y136831*
X3722Y134408*
G03X3863Y134350I141J141*
G01X32097*
G02X32239Y134291I0J-200*
G01X35222Y131308*
G03X35363Y131250I141J141*
G01X55697*
G03X55838Y131308I0J200*
G01X59572Y135042*
G03X59630Y135183I-141J141*
G01Y156617*
G03X59572Y156758I-200J0*
G01X52451Y163879*
G03X52310Y163937I-141J-142*
G01X4658Y164044*
X4657*
G03X4516Y163986I0J-200*
G01X1342Y160812*
G02X1200Y160753I-142J140*
X1124Y160768I0J199*
G01X1068Y160791*
X1000Y160892*
Y195650*
G02X1200Y195850I200J0*
G01X176097*
G02X176282Y195726J-200*
G01X176305Y195670*
X176281Y195551*
X175388Y194658*
G03X175330Y194517I141J-141*
G01Y183283*
G03X175388Y183142I200J0*
G01X182422Y176108*
G03X182563Y176050I141J141*
G01X190897*
G02X191039Y175991I0J-200*
G01X192522Y174508*
G03X192663Y174450I141J141*
G01X195866*
G02X196012Y174386I-1J-200*
G01X196240Y174142*
X196268Y174064*
X196266Y174023*
X196255Y173713*
Y169382*
G03X200822Y164815I4567J0*
X203164Y165461I0J4567*
G02X203266Y165489I102J-172*
X203349Y165471I0J-200*
G03X204050Y165320I701J1550*
G01X204127*
G02X204269Y165261I0J-200*
G01X205922Y163608*
G03X206063Y163550I141J141*
G01X207592*
G02X207766Y163448I0J-200*
G01X207964Y163099*
X207963Y162991*
X207935Y162945*
G03X207482Y160612I3006J-1794*
G01X207488Y160568*
X207464Y160484*
X207238Y160220*
G02X207086Y160150I-152J130*
G01X203419*
X203418*
G03X203277Y160092I0J-200*
G01X202876Y159691*
G02X202735Y159632I-142J140*
G01X202727Y159633*
X202720*
X202375Y159658*
X202298Y159700*
X202272Y159735*
G03X199461Y161150I-2811J-2085*
X197896Y160780I1J-3500*
X196035Y156932I1565J-3131*
G01X196044Y156888*
X196023Y156800*
X195799Y156524*
G02X195644Y156450I-155J126*
G01X193763*
G02X193621Y156509I0J200*
G01X191689Y158441*
G02X191630Y158583I140J142*
G01Y171317*
G03X191572Y171458I-200J0*
G01X189238Y173792*
G03X189097Y173850I-141J-141*
G01X179963*
G03X179822Y173792I0J-200*
G01X177357Y171327*
X177199Y171322*
X177140Y171375*
G03X173505Y172747I-3635J-4128*
X168844Y170167I0J-5500*
G01X168816Y170123*
X168726Y170073*
X168284*
X168193Y170123*
X168166Y170167*
G03X163505Y172747I-4661J-2920*
X158844Y170167I0J-5500*
G01X158816Y170123*
X158726Y170073*
X158284*
X158193Y170123*
X158166Y170167*
G03X153505Y172747I-4661J-2920*
X148844Y170167I0J-5500*
G01X148816Y170123*
X148726Y170073*
X148284*
X148193Y170123*
X148166Y170167*
G03X143505Y172747I-4661J-2920*
X138844Y170167I0J-5500*
G01X138816Y170123*
X138726Y170073*
X138284*
X138193Y170123*
X138166Y170167*
G03X133505Y172747I-4661J-2920*
X128844Y170167I0J-5500*
G01X128816Y170123*
X128726Y170073*
X128284*
X128193Y170123*
X128166Y170167*
G03X123505Y172747I-4661J-2920*
X118844Y170167I0J-5500*
G01X118816Y170123*
X118726Y170073*
X118284*
X118193Y170123*
X118166Y170167*
G03X113505Y172747I-4661J-2920*
X108844Y170167I0J-5500*
G01X108816Y170123*
X108726Y170073*
X108284*
X108193Y170123*
X108166Y170167*
G03X103505Y172747I-4661J-2920*
X99460Y170974I0J-5500*
G01X99425Y170936*
X99326Y170903*
X98891Y170986*
X98811Y171053*
X98792Y171101*
G03X96460Y172702I-2333J-899*
G01X94279*
Y172701*
G03X96460Y170202I4728J1925*
X99260Y167909I4424J2546*
G02X99414Y167247I-1347J-662*
X99260Y166584I-1501J-1*
G03X96460Y164292I1624J-4840*
X94279Y161793I2547J-4424*
X94280Y161792I1J0*
G01X96460*
G03X98792Y163392I0J2500*
G01X98811Y163441*
X98891Y163507*
X99326Y163590*
X99425Y163558*
X99460Y163520*
G03X103505Y161747I4045J3727*
X108166Y164327J5500*
G01X108193Y164370*
X108284Y164420*
X108726*
X108816Y164370*
X108844Y164327*
G03X113505Y161747I4661J2920*
X118166Y164327I0J5500*
G01X118193Y164370*
X118284Y164420*
X118726*
X118816Y164370*
X118844Y164327*
G03X123505Y161747I4661J2920*
X128166Y164327I0J5500*
G01X128193Y164370*
X128284Y164420*
X128726*
X128816Y164370*
X128844Y164327*
G03X133505Y161747I4661J2920*
X138166Y164327I0J5500*
G01X138193Y164370*
X138284Y164420*
X138726*
X138816Y164370*
X138844Y164327*
G03X143505Y161747I4661J2920*
X148166Y164327I0J5500*
G01X148193Y164370*
X148284Y164420*
X148726*
X148816Y164370*
X148844Y164327*
G03X153505Y161747I4661J2920*
X158166Y164327I0J5500*
G01X158193Y164370*
X158284Y164420*
X158726*
X158816Y164370*
X158844Y164327*
G03X163505Y161747I4661J2920*
X168166Y164327I0J5500*
G01X168193Y164370*
X168284Y164420*
X168726*
X168816Y164370*
X168844Y164327*
G03X173505Y161747I4661J2920*
X177294Y163260I0J5500*
G01X177353Y163316*
X177516Y163314*
X177825Y163005*
X177827Y162842*
X177771Y162783*
G03X177300Y161609I1229J-1175*
G01Y160211*
G03X177301Y160210I1J0*
G01X177302*
X177313Y160238*
G03X179000Y161609I-1009J2966*
G01X180430Y159839*
X180352Y159742*
Y159741*
X181360Y158068*
G03X180437Y156934I1124J-1858*
G01X180181Y156889*
X179924Y156934*
G03X179000Y158068I-2047J-724*
X177313Y159440I-2697J-1594*
G01X177302Y159468*
X177301*
G03X177300Y159467I0J-1*
G01Y159013*
G02X177177Y158828I-200J0*
G01X177120Y158805*
X177002Y158828*
X176738Y159092*
G03X176597Y159150I-141J-141*
G01X171363*
G03X171222Y159092I0J-200*
G01X168988Y156858*
G03X168930Y156717I141J-141*
G01Y132483*
G02X168871Y132341I-200J0*
G01X168646Y132116*
G02X168505Y132058I-141J141*
X168474Y132060I-3J199*
G01X168108Y132116*
X168030Y132172*
X168008Y132214*
G03X166500Y133129I-1508J-785*
G01X165102*
G03X165101Y133127I0J-1*
G01X165129Y133116*
G03X166500Y131429I2965J1009*
G01X164730Y129999*
X164656Y130059*
X164655*
X162960Y129069*
G03X161792Y130098I-2196J-1316*
G02X161781Y130249I989J148*
X161792Y130399I1000J2*
G03X162960Y131429I-1029J2344*
X164331Y133116I-1595J2697*
G01X164359Y133127*
G03Y133129J1*
G01X162960*
G03X161912Y132767I1J-1700*
G01X161789Y132725*
X161788*
X161672*
X161671*
X161548Y132767*
G03X160500Y133129I-1049J-1339*
G01X159102*
G03X159101Y133127I0J-1*
G01X159129Y133116*
G03X160500Y131429I2966J1010*
X161668Y130399I2197J1314*
G02X161679Y130249I-991J-148*
X161668Y130098I-1002J-3*
G03X160500Y129069I1028J-2344*
G01X158805Y130059*
X158804*
X158730Y129999*
X158656Y130059*
X158655*
X156960Y129069*
G03X155792Y130098I-2196J-1316*
G02X155781Y130249I989J148*
X155792Y130399I1000J2*
G03X156960Y131429I-1029J2344*
X158331Y133116I-1595J2697*
G01X158359Y133127*
G03Y133129J1*
G01X156960*
G03X155260Y131429I0J-1700*
G01Y129653*
G02X155136Y129468I-200*
G01X155080Y129445*
X154961Y129469*
X152838Y131592*
G03X152697Y131650I-141J-141*
G01X141163*
G03X141022Y131592I0J-200*
G01X138588Y129158*
G03X138530Y129017I141J-141*
G01Y113783*
G02X138471Y113641I-200J0*
G01X131288Y106458*
G03X131230Y106317I141J-141*
G01Y94350*
G02X131030Y94150I-200J0*
G01X127203*
X127102Y94083*
X127089Y94050*
X117263*
G02X117121Y94109J200*
G01X110738Y100492*
G03X110597Y100550I-141J-141*
G01X100163*
G03X100022Y100492I0J-200*
G01X97388Y97858*
G03X97330Y97717I141J-141*
G01Y87883*
G03X97388Y87742I200J0*
G01X100241Y84889*
X100267Y84778*
X100249Y84724*
G03X100160Y84180I1611J-543*
G01Y81820*
G03X100972Y80370I1700J0*
G01X101014Y80345*
X101064Y80261*
X101091Y79837*
X101051Y79748*
X101013Y79717*
G03X100392Y78623I1063J-1327*
G01X100382Y78549*
X100269Y78450*
X99030*
G02X98830Y78650I0J200*
G01Y79517*
G03X98772Y79658I-200J0*
G01X96538Y81892*
G03X96397Y81950I-141J-141*
G01X93130*
G02X92930Y82150I0J200*
G01Y90217*
G02X92989Y90359I200J0*
G01X93000Y90370*
X93030Y90443*
Y109117*
G02X93089Y109259I200J0*
G01X97221Y113391*
G02X97363Y113450I142J-140*
G01X98861*
G02X99005Y113389I0J-200*
G01X99233Y113153*
X99262Y113077*
X99261Y113036*
X99260Y112980*
Y110620*
G03X100960Y108920I1700J0*
G01X102359*
G03Y108922J1*
G01X102331Y108933*
G03X100960Y110620I-2965J-1009*
X99792Y111649I-2197J-1316*
G02X99781Y111800I989J148*
X99792Y111951I1000J3*
G03X100960Y112980I-1028J2345*
G01X102655Y111990*
X102656*
X102730Y112050*
X102804Y111990*
X102805*
X104500Y112980*
G03X105668Y111951I2196J1315*
G02X105679Y111800I-991J-148*
X105668Y111649I-1002J-3*
G03X104500Y110620I1029J-2345*
X103129Y108933I1594J-2696*
G01X103101Y108922*
G03X103102Y108920I1J-1*
G01X104500*
G03X106200Y110620I0J1700*
G01Y112980*
X106199Y113036*
X106198Y113077*
X106227Y113153*
X106455Y113389*
G02X106599Y113450I144J-140*
G01X106897*
G02X107039Y113391I0J-200*
G01X115179Y105251*
G02X115238Y105113I-140J-142*
G01X115239Y104994*
G02X115191Y104860I-200J-4*
G03X114779Y103750I1288J-1110*
G01Y101816*
G03X114780Y101815I1J0*
X116479Y103750I-2746J4125*
G01X121899Y100922*
X121900*
X121979Y101000*
X122058Y100922*
X122059*
X127479Y103750*
G03X129178Y101815I4445J2189*
X129179Y101816I0J1*
G01Y103750*
G03X127479Y105450I-1700J0*
G01X125563*
G02X125378Y105574I0J200*
G01X125355Y105630*
X125379Y105749*
X126872Y107242*
G03X126930Y107383I-141J141*
G01Y125517*
G03X126872Y125658I-200J0*
G01X124338Y128192*
G03X124197Y128250I-141J-141*
G01X81063*
G03X80922Y128192I0J-200*
G01X78188Y125458*
G03X78130Y125317I141J-141*
G01Y96083*
G02X78071Y95941I-200J0*
G01X76672Y94542*
G02X76530Y94483I-142J140*
X76454Y94498I0J199*
G01X76398Y94522*
X76376Y94555*
X76375*
G03X74630Y92950I1368J-3239*
G01X69441Y94866*
X69440*
X69130Y94675*
X68883Y94827*
X68882*
X63630Y92950*
G03X61931Y94491I-3478J-2128*
X61930Y94490I0J-1*
G01Y93583*
G02X61871Y93441I-200J0*
G01X59388Y90958*
G03X59330Y90817I141J-141*
G01Y85483*
G03X59388Y85342I200J0*
G01X61871Y82859*
G02X61930Y82717I-140J-142*
G01Y82210*
G03X61931Y82209I1J0*
X63630Y83750I-1780J3669*
G01X69190Y81762*
X69191*
X74630Y83750*
G03X76632Y82148I3089J1808*
G02X76753Y81672I-879J-477*
X76637Y81205I-1000J1*
G03X74630Y79550I1148J-3436*
G01X69188Y81537*
X63630Y79550*
G03X61931Y81091I-3478J-2128*
X61930Y81090I0J-1*
G01Y80767*
X61813Y80650*
X61780*
X59388Y78258*
G03X59330Y78117I141J-141*
G01Y74150*
G02X59130Y73950I-200J0*
G01X58163*
G03X58022Y73892I0J-200*
G01X55088Y70958*
G03X55030Y70817I141J-141*
G01Y56183*
G03X55088Y56042I200J0*
G01X59522Y51608*
G03X59663Y51550I141J141*
G01X69430*
G02X69630Y51350I0J-200*
G01Y46483*
G02X69571Y46342I-200J1*
G01X63139Y39909*
G02X62997Y39850I-142J140*
G01X12463*
G03X12322Y39792I0J-200*
G01X9888Y37358*
G03X9830Y37217I141J-141*
G01Y22083*
G03X9888Y21942I200J0*
G01X11092Y20738*
G02X11148Y20560I-140J-142*
G01X11079Y20187*
X11018Y20109*
X10972Y20089*
G03X7740Y10433I2808J-6309*
X13780Y6874I6041J3347*
X17641Y8054I0J6906*
X19147Y18125I-3861J5725*
X18462Y18856I-5368J-4344*
G01X18417Y18898*
X18389Y19018*
X18547Y19423*
G02X18733Y19550I186J-73*
G01X18734*
X67897*
G03X68038Y19608I0J200*
G01X98772Y50342*
G03X98830Y50483I-141J141*
G01Y70650*
G02X99030Y70850I200J0*
G01X100269*
X100382Y70751*
X100392Y70677*
G03X102076Y69210I1684J233*
G01X104613*
G03X104614Y69211I0J1*
X102076Y70910I-5392J-5309*
G01X106801Y75150*
X106889Y75071*
X106890*
X111526Y78390*
G03X113225Y76475I5639J3292*
G01X113226*
Y77021*
G02X113350Y77206I200J0*
G01X113406Y77229*
X113525Y77205*
X114422Y76308*
G03X114563Y76250I141J141*
G01X128697*
G03X128838Y76308I0J200*
G01X130889Y78359*
G02X131030Y78417I141J-141*
X131171Y78359I0J-199*
G01X132438Y77091*
G02Y76809I-141J-141*
G01X127139Y71509*
G02X126997Y71450I-142J140*
G01X121263*
G03X121122Y71392I0J-200*
G01X112988Y63258*
G03X112930Y63117I141J-141*
G01Y39283*
G02X112871Y39141I-200J0*
G01X110939Y37209*
G02X110797Y37150I-142J140*
G01X88763*
G03X88622Y37092I0J-200*
G01X71588Y20058*
G03X71530Y19917I141J-141*
G01Y4383*
G03X71588Y4242I200J0*
G01X74488Y1342*
G02X74532Y1124I-140J-142*
G01X74509Y1068*
X74408Y1000*
G37*
%LPC*%
G36*
X254858Y160227D02*
G03X256558Y161708I-1289J3196D01*
X258657Y163407I-2085J4722*
X258656Y163408I-1J0*
G01X256558*
X256557*
G03X254857Y161708I1J-1701*
G01Y160228*
G03X254858Y160227I1J0*
G37*
G36*
X268710Y183373D02*
G03X261811Y189976I-6899J-303D01*
X254912Y182767I0J-6906*
X261811Y176164I6899J303*
X268710Y183373I0J6906*
G37*
G36*
X239405Y186311D02*
G01Y189461D01*
G03X234838Y194028I-4567J0*
X230271Y189461I0J-4567*
G01Y186311*
G03X234838Y181744I4567J0*
X239405Y186311I0J4567*
G37*
G36*
X265590Y151917D02*
G01X265651Y151920D01*
X265713Y151923*
G03X269609Y156313I-247J4143*
X265466Y160216I-4143J-247*
X265094Y160199I3J-4150*
G01X265052Y160196*
X264972Y160222*
X264723Y160450*
G02X264658Y160598I135J148*
G01Y161418*
G02X264858Y161618I200J0*
G01X269257*
G03X270957Y163318J1700*
G01Y167318*
G03X269257Y169018I-1700J0*
G01X262857*
G03X261157Y167318I0J-1700*
G01Y163608*
G02X260957Y163408I-200*
G01X260859*
Y163407*
G03X262958Y161708I4184J3023*
G01X260114Y159709*
G03Y159707J-1*
G01X262958Y157708*
G03X260858Y156008I2085J-4722*
X260859Y156007I1J0*
G01X261203*
X261319Y155898*
X261323Y155819*
G03X265466Y151916I4143J247*
G01X265590Y151917*
G37*
G36*
X268710Y14083D02*
G03X261811Y20686I-6899J-303D01*
X254912Y13477I0J-6906*
X261811Y6874I6899J303*
X268710Y14083I0J6906*
G37*
G36*
X240788Y17028D02*
G01Y19126D01*
G03X239088Y20826I-1700J0*
G01X237608*
G03X237607Y20825I0J-1*
X239088Y19126I3195J1290*
X240787Y17027I4722J2085*
G01X240788Y17028*
G37*
G36*
X251196Y44048D02*
G01Y45816D01*
G03X251195Y45817I-1J0*
X249496Y44048I2722J-4315*
X247977Y42349I1974J-3294*
G01Y42348*
X249496*
G03X251196Y44048J1700*
G37*
G36*
Y48186D02*
G01Y49954D01*
G03X249496Y51654I-1700J0*
G01X247977*
Y51653*
G03X249496Y49954I3494J1595*
X251195Y48185I4420J2545*
X251196Y48186I0J1*
G37*
G36*
X226314Y80072D02*
G01Y81592D01*
G03X224614Y80072I1595J-3495*
X223094Y78372I1974J-3295*
G01X224614*
G03X226314Y80072J1700*
G37*
G36*
X221071D02*
G03X220087Y81166I-3295J-1974D01*
X219102Y80072I2309J-3070*
X217582Y78372I1974J-3295*
G01X219102*
G03X219983Y78618I0J1700*
G02X220087Y78647I104J-171*
X220190Y78618I-1J-200*
G03X221071Y78372I881J1455*
G01X222591*
G03X221071Y80072I-3495J-1595*
G37*
G36*
X215559D02*
G03X214575Y81166I-3295J-1974D01*
X213591Y80072I2311J-3068*
X212070Y78372I1973J-3296*
G01X213591*
G03X214471Y78618I-1J1700*
G02X214575Y78647I104J-171*
X214678Y78618I-1J-200*
G03X215559Y78372I881J1455*
G01X217079*
G03X215559Y80072I-3495J-1595*
G37*
G36*
X210047D02*
G03X208347Y81592I-3295J-1974D01*
G01Y80072*
G03X210047Y78372I1700J0*
G01X211568*
G03X210047Y80072I-3494J-1596*
G37*
G36*
X226314Y83615D02*
G03X226068Y84496I-1701J0D01*
G02X226039Y84599I171J104*
X226068Y84703I200J0*
G03X226314Y85584I-1454J881*
G01Y87104*
G03X224614Y85584I1595J-3495*
X223520Y84600I1974J-3295*
X224614Y83615I3070J2310*
X226314Y82095I3295J1974*
G01Y83615*
G37*
G36*
X210047D02*
G03X211142Y84600I-1974J3295D01*
X210047Y85584I-3068J-2312*
X208347Y87104I-3295J-1974*
G01Y85584*
G03X208593Y84703I1700J0*
G02X208622Y84599I-171J-104*
X208593Y84496I-200J1*
G03X208347Y83615I1455J-881*
G01Y82095*
G03X210047Y83615I-1595J3495*
G37*
G36*
X221071D02*
G03X222165Y84600I-1975J3294D01*
X221071Y85584I-3068J-2311*
X220087Y86678I-3295J-1974*
X219102Y85584I2309J-3070*
X218008Y84600I1974J-3295*
X219102Y83615I3070J2310*
X220087Y82521I3294J1975*
X221071Y83615I-2311J3068*
G37*
G36*
X215559D02*
G03X216653Y84600I-1975J3294D01*
X215559Y85584I-3068J-2311*
X214575Y86678I-3295J-1974*
X213591Y85584I2311J-3068*
X212496Y84600I1972J-3296*
X213591Y83615I3069J2311*
X214575Y82521I3295J1974*
X215559Y83615I-2311J3068*
G37*
G36*
X226314Y89127D02*
G03X226068Y90008I-1701J0D01*
G02X226039Y90111I171J104*
X226068Y90215I200J0*
G03X226314Y91096I-1454J881*
G01Y92616*
G03X224614Y91096I1595J-3495*
X223520Y90111I1976J-3294*
X224614Y89127I3069J2312*
X226314Y87607I3295J1974*
G01Y89127*
G37*
G36*
X210047D02*
G03X211142Y90111I-1972J3296D01*
X210047Y91096I-3069J-2310*
X208347Y92616I-3295J-1974*
G01Y91096*
G03X208593Y90215I1700J0*
G02X208622Y90111I-171J-104*
X208593Y90008I-200J1*
G03X208347Y89127I1455J-881*
G01Y87607*
G03X210047Y89127I-1595J3495*
G37*
G36*
X221071D02*
G03X222165Y90111I-1974J3295D01*
X221071Y91096I-3070J-2309*
X220087Y92190I-3295J-1974*
X219102Y91096I2309J-3070*
X218008Y90111I1976J-3294*
X219102Y89127I3069J2312*
X220087Y88033I3294J1975*
X221071Y89127I-2311J3068*
G37*
G36*
X215559D02*
G03X216653Y90111I-1974J3295D01*
X215559Y91096I-3070J-2309*
X214575Y92190I-3295J-1974*
X213591Y91096I2311J-3068*
X212496Y90111I1974J-3295*
X213591Y89127I3068J2313*
X214575Y88033I3295J1974*
X215559Y89127I-2311J3068*
G37*
G36*
X226314Y94639D02*
G03X224614Y96339I-1700J0D01*
G01X223094*
G03X224614Y94639I3495J1595*
X226314Y93118I3295J1973*
G01Y94639*
G37*
G36*
X210047D02*
G03X211568Y96339I-1973J3296D01*
G01X210047*
G03X208347Y94639I0J-1700*
G01Y93118*
G03X210047Y94639I-1596J3494*
G37*
G36*
X221071D02*
G03X222591Y96339I-1974J3295D01*
G01X221071*
G03X220190Y96093I0J-1701*
G02X220087Y96064I-104J171*
X219983Y96093I0J200*
G03X219102Y96339I-881J-1454*
G01X217582*
G03X219102Y94639I3495J1595*
X220087Y93544I3295J1973*
X221071Y94639I-2312J3068*
G37*
G36*
X215559D02*
G03X217079Y96339I-1974J3295D01*
G01X215559*
G03X214678Y96093I0J-1701*
G02X214575Y96064I-104J171*
X214471Y96093I0J200*
G03X213591Y96339I-881J-1454*
G01X212070*
G03X213591Y94639I3495J1596*
X214575Y93544I3296J1972*
X215559Y94639I-2312J3068*
G37*
G36*
X182456Y104324D02*
G01Y105722D01*
G03X180756Y107422I-1700J0*
G01X178884*
Y107421*
G03X180756Y105722I4148J2690*
X182444Y104349I2699J1595*
G01X182454Y104324*
X182455Y104323*
G03X182456Y104324I0J1*
G37*
G36*
X173152D02*
G01X173162Y104349D01*
G03X174850Y105722I-1012J2968*
X176723Y107421I-2274J4389*
X176722Y107422I-1J0*
G01X174850*
G03X173150Y105722I0J-1700*
G01Y104324*
X173151Y104323*
G03X173152Y104324I0J1*
G37*
G36*
X251196Y117084D02*
G01Y118852D01*
G03X251038Y119568I-1700J0*
G01X251037*
X251036*
G02X250637Y119044I-1364J625*
X249673Y118693I-964J1149*
G01X249591Y118695*
Y118694*
G03X251195Y117083I4326J2703*
X251196Y117084I0J1*
G37*
G36*
X246398Y6427D02*
G01Y12827D01*
G03X244698Y14527I-1700J0*
G01X240988*
G02X240788Y14727J200*
G01Y14825*
X240787*
G03X239088Y12726I3023J-4184*
G01X237089Y15570*
X237088*
X237087*
X235088Y12726*
G03X233388Y14826I-4722J-2085*
X233387Y14825I0J-1*
G01Y14560*
G02X233199Y14360I-200J0*
G03X229303Y9970I247J-4143*
X233446Y6067I4143J247*
G01X233570Y6068*
X233631Y6071*
X233693Y6074*
G03X237579Y10590I-248J4143*
G01X237576Y10632*
X237603Y10712*
X237830Y10961*
G02X237978Y11026I148J-135*
G01X238798*
G02X238998Y10826I0J-200*
G01Y6427*
G03X240698Y4727I1700*
G01X244698*
G03X246398Y6427J1700*
G37*
G36*
X113226Y70910D02*
G01Y72825D01*
X113225*
G03X111526Y70910I3940J-5206*
X108988Y69211I2854J-7008*
X108989Y69210I1J0*
G01X111526*
G03X113226Y70910I0J1700*
G37*
G36*
X76330Y95566D02*
G01Y97150D01*
G03X74630Y98850I-1700J0*
G01X70778*
G03Y98849I1J0*
X73152Y97150I4809J4211*
G01X70942Y95790*
Y95789*
X70943*
X74630Y97150*
G03X76329Y95566I3113J1636*
G01X76330*
G37*
G36*
X61931Y95609D02*
G03X63630Y97150I-1780J3669D01*
G01X67149Y95892*
X67150*
Y95893*
X65108Y97150*
G03X67483Y98849I-2433J5910*
X67482Y98850I-1J0*
G01X63630*
G03X61930Y97150I0J-1700*
G01Y95610*
G03X61931Y95609I1J0*
G37*
G36*
X129179Y97750D02*
G01Y99684D01*
G03X129178Y99685I-1J0*
X127479Y97750I2746J-4124*
G01X122813Y100185*
X122812*
G03Y100183J-1*
G01X125293Y97750*
G03X123100Y96051I2025J-4879*
X123101Y96050I1J0*
G01X127479*
G03X129179Y97750I0J1700*
G37*
G36*
X120857Y96051D02*
G03X118664Y97750I-4218J-3179D01*
G01X121146Y100183*
G03X121145Y100184I-1J0*
G01X116479Y97750*
G03X114780Y99685I-4445J-2190*
X114779Y99684I0J-1*
G01Y97750*
G03X116479Y96050I1700J0*
G01X120856*
G03X120857Y96051I0J1*
G37*
G36*
X51760Y122079D02*
G03X53460Y119537I7013J2851D01*
G01Y126895*
G03X51760Y128595I-1700J0*
G01X49361*
G03X51760Y126895I5373J5040*
G01X47989Y118534*
X51760Y122079*
G37*
G36*
X42700Y126895D02*
G03X45099Y128595I-2974J6740D01*
G01X42700*
G03X41000Y126895I0J-1700*
G01Y119537*
G03X42700Y122079I-5313J5393*
G01X46471Y118534*
X42700Y126895*
G37*
G36*
X26730Y124164D02*
G01Y125880D01*
G03X26729Y125881I-1J0*
X25030Y124164I2747J-4417*
X23265Y122465I2931J-4811*
G01Y122464*
X25030*
G03X26730Y124164I0J1700*
G37*
G36*
X70130Y130350D02*
G01Y168178D01*
G02X70187Y168317I200J-1*
G01X70190Y168320*
G02X70333Y168381I144J-139*
X70376Y168376I-1J-200*
G01X70494Y168350*
G02X70638Y168225I-43J-195*
G03X72980Y166600I2342J875*
G01X75248*
G03X72980Y169100I-4920J-2185*
G01X75777Y172230*
X75755Y172250*
X75777Y172270*
X72980Y175400*
G03X75183Y177758I-2652J4686*
X72951Y180150I-4900J-2335*
G01X75696Y183233*
X75676Y183250*
X75699Y183270*
X72951Y186350*
G03X75363Y189283I-2625J4617*
G02X75512Y189350I689J-1333*
G01X72951*
G03X70486Y188061I0J-3001*
G01X70462Y188026*
X70391Y187982*
X70018Y187930*
X69937Y187952*
X69905Y187979*
G03X66051Y189350I-3853J-4729*
X61359Y187148I0J-6100*
G01X61330Y187114*
X61249Y187076*
X60852*
X60772Y187114*
X60743Y187148*
G03X56051Y189350I-4692J-3898*
X51359Y187148I0J-6100*
G01X51330Y187114*
X51249Y187076*
X50852*
X50772Y187114*
X50743Y187148*
G03X46051Y189350I-4692J-3898*
X42107Y187904I-1J-6100*
X39951Y183250I3944J-4653*
X41759Y178916I6100J1*
X46051Y177150I4293J4334*
X50743Y179352I0J6100*
G01X50772Y179386*
X50852Y179424*
X51249*
X51330Y179386*
X51359Y179352*
G03X53257Y177827I4693J3897*
G01X53306Y177802*
X53364Y177710*
X53376Y177250*
X53323Y177154*
X53276Y177126*
G03X50480Y172250I2854J-4876*
X51849Y168563I5650J0*
X56130Y166600I4281J3687*
X60799Y169069I0J5650*
G01X60827Y169110*
X60915Y169156*
X61345*
X61433Y169110*
X61461Y169069*
G03X62073Y168317I4672J3178*
G02X62130Y168178I-143J-140*
G01Y130350*
G03X66130Y126350I4000J0*
X70130Y130350I0J4000*
G37*
G36*
X26730Y127448D02*
G01Y129164D01*
G03X25030Y130864I-1700J0*
G01X23266*
G03X23265Y130863I0J-1*
X25030Y129164I4697J3113*
X26729Y127447I4445J2699*
X26730Y127448I0J1*
G37*
G36*
X125030Y136406D02*
G01Y142731D01*
G03X123329Y140355I4209J-4810*
G01X120713Y143339*
X123330Y136406*
G03X121502Y134706I2653J-4685*
G01X123330*
G03X125030Y136406I0J1700*
G37*
G36*
X117030D02*
G01X119648Y143341D01*
X117030Y140355*
G03X115329Y142731I-5910J-2434*
G01Y136406*
G03X117030Y134706I1701J1*
G01X118858*
G03X117030Y136406I-4481J-2985*
G37*
G36*
X89597D02*
G01Y142731D01*
G03X87896Y140355I4209J-4810*
G01X85278Y143343*
X87896Y136406*
G03X86068Y134706I2653J-4685*
G01X87896*
X87897*
G03X89597Y136406I0J1700*
G37*
G36*
X81596D02*
G01X84213Y143339D01*
X81597Y140355*
G03X79896Y142731I-5910J-2434*
G01Y136406*
G03X81596Y134706I1700*
G01X83424*
G03X81596Y136406I-4481J-2985*
G37*
G36*
X153155Y143626D02*
G01Y145935D01*
G03X151455Y143626I4090J-4792*
G01X149184Y145413*
X150852Y143626*
G03X148476Y141926I2433J-5911*
G01X151455*
G03X153155Y143626J1700*
G37*
G36*
X142808D02*
G01X144475Y145413D01*
X142205Y143626*
G03X140505Y145935I-5790J-2483*
G01Y143626*
G03X142205Y141926I1700*
G01X145184*
G03X142808Y143626I-4809J-4211*
G37*
G36*
X117030Y152346D02*
G03X118859Y154047I-2652J4686D01*
G01X117030*
G03X115329Y152346I0J-1701*
G01Y146022*
G03X117030Y148398I-4209J4810*
G01X119648Y145411*
X117030Y152346*
G37*
G36*
X87896Y148398D02*
G03X89597Y146022I5910J2434D01*
G01Y152346*
G03X87896Y154047I-1701J0*
G01X86067*
G03X87896Y152346I4481J2984*
G01X85278Y145410*
X87896Y148398*
G37*
G36*
X81596Y152346D02*
G03X83425Y154047I-2652J4686D01*
G01X81596*
G03X79896Y152347I1J-1701*
G01Y152346*
Y146022*
G03X81597Y148398I-4209J4810*
G01X84213Y145413*
X81596Y152346*
G37*
G36*
X123329Y148398D02*
G03X125030Y146022I5910J2434D01*
G01Y152346*
Y152347*
G03X123330Y154047I-1700J0*
G01X121501*
G03X123330Y152346I4481J2984*
G01X120713Y145413*
X123329Y148398*
G37*
G36*
X153155Y151496D02*
G03X151455Y153196I-1700J0D01*
G01X148476*
G03X150852Y151496I4809J4211*
G01X149184Y149709*
X151455Y151496*
G03X153155Y149187I5790J2482*
G01Y151496*
G37*
G36*
X142205D02*
G01X144476Y149709D01*
X142808Y151496*
G03X145184Y153196I-2433J5911*
G01X142205*
G03X140505Y151496I0J-1700*
G01Y149187*
G03X142205Y151496I-4090J4792*
G37*
G36*
X92730Y161793D02*
G03X90550Y164292I-4728J-1924D01*
X88051Y166472I-4423J-2548*
X88050Y166471I0J-1*
G01Y164292*
G03X90550Y161792I2500*
G01X92729*
G03X92730Y161793I0J1*
G37*
G36*
X81780Y169100D02*
G01Y171368D01*
G03X79280Y169100I2185J-4920*
X77012Y166600I2653J-4685*
G01X79280*
G03X81780Y169100I0J2500*
G37*
G36*
X88051Y168021D02*
G03X90550Y170202I-1925J4728D01*
X92730Y172701I-2548J4423*
G01Y172702*
X90550*
G03X88050Y170202I0J-2500*
G01Y168022*
G03X88051Y168021I1J0*
G37*
G36*
X81780Y175400D02*
G03X81005Y177210I-2500J0D01*
G01X80974Y177240*
X80941Y177320*
X80958Y177707*
X80996Y177784*
X81030Y177811*
G03X82151Y180150I-1879J2339*
G01Y182711*
G02X82084Y182562I-1400J540*
G03X79151Y180150I1684J-5037*
X77077Y177759I2766J-4494*
X79280Y175400I4856J2326*
X81780Y173132I4685J2652*
G01Y175400*
G37*
G36*
X20679Y183373D02*
G03X13780Y189976I-6899J-303D01*
X6881Y182767I0J-6906*
X13780Y176164I6899J303*
X20679Y183373I0J6906*
G37*
G36*
X82151Y186350D02*
G03X79151Y189350I-3000J0D01*
G01X76590*
G02X76739Y189283I-540J-1400*
G03X79151Y186350I5038J1684*
X82084Y183938I4617J2625*
G02X82151Y183789I-1333J-689*
G01Y186350*
G37*
G36*
X50830Y59150D02*
G01Y104150D01*
G03X50273Y105409I-1700J0*
G01X50227Y105450*
X50199Y105571*
X50355Y105977*
G02X50542Y106105I187J-72*
G01X51760*
G03X53460Y107805I0J1700*
G01Y115163*
G03X51760Y112621I5313J-5393*
G01X47989Y116166*
X51760Y107805*
G03X48196Y103554I3687J-6711*
G02X47230Y103305I-966J1751*
X46264Y103554I0J2000*
G03X42700Y107805I-7251J-2460*
G01X46471Y116166*
X42700Y112621*
G03X41000Y115163I-7013J-2851*
G01Y107805*
G03X41557Y106546I1700J0*
G01X41603Y106505*
X41632Y106384*
X41475Y105978*
G02X41288Y105850I-187J72*
G01X7130*
G03X5430Y104150I0J-1700*
G01Y59150*
G03X7130Y57450I1700*
G01X49130*
G03X50830Y59150J1700*
G37*
%LPD*%
G36*
X66051Y179488D02*
G02X64990Y179927I0J1501D01*
G03X63859Y181058I-1923J-792*
G01X66051Y183625*
X68243Y181058*
G03X67112Y179927I792J-1923*
G02X66051Y179488I-1061J1062*
G37*
G36*
X66142Y171875D02*
G01X63833Y174403D01*
G03X64921Y175649I-951J1929*
G02X66051Y176162I1130J-988*
X67112Y175723I0J-1501*
G03X68357Y174477I2119J873*
G01X66142Y171875*
G37*
G54D10*
X21730Y2850D03*
X21030Y34150D03*
Y29650D03*
Y25350D03*
X15930Y29650D03*
Y34150D03*
Y25350D03*
X13430Y64550D03*
X23230Y64650D03*
X13430Y81550D03*
X13630Y91150D03*
Y71950D03*
X23430Y72050D03*
Y91250D03*
X23230Y81650D03*
X13430Y100050D03*
X23230Y100150D03*
X22630Y115750D03*
X15130Y113850D03*
X6530Y112150D03*
X2830Y114150D03*
X3430Y132150D03*
X15730Y132250D03*
X29730Y3150D03*
X48230Y2850D03*
X38530Y3050D03*
X43830Y5750D03*
X34930Y6050D03*
X25830Y7450D03*
X34130Y64750D03*
X42930D03*
X34330Y72150D03*
Y91350D03*
X34130Y81750D03*
X43130Y72150D03*
Y91350D03*
X42930Y81750D03*
X34130Y100250D03*
X42930D03*
X29230Y115950D03*
X28730Y132350D03*
X29230Y123050D03*
X46132Y139763D03*
X49230Y139650D03*
X41930Y167050D03*
X33530Y167650D03*
X43230Y192650D03*
X34430D03*
X34530Y185450D03*
X34030Y177050D03*
X40330Y173850D03*
X68630Y3250D03*
X57530D03*
X63330Y6350D03*
X52830D03*
X67230Y62550D03*
X60230Y60350D03*
X60330Y65250D03*
X71630Y57950D03*
X67030Y57850D03*
X62830Y57750D03*
X63130Y62350D03*
X71730Y62450D03*
X72630Y140950D03*
X66130Y130350D03*
Y134350D03*
Y137750D03*
X52430Y139750D03*
X53830Y142850D03*
X71730Y150050D03*
X53930Y146250D03*
X59930Y192750D03*
X51630Y192650D03*
X92030Y39250D03*
X98430Y39350D03*
X96030Y42950D03*
X76530Y88450D03*
X82530D03*
X79530D03*
X91930Y139650D03*
X98730Y140050D03*
X77430D03*
X99730Y123050D03*
X84930Y169250D03*
X81230Y163850D03*
X91830Y148450D03*
X98930Y148550D03*
X76530Y149150D03*
X85530Y186050D03*
X93030Y186250D03*
X86130Y179150D03*
X96130Y176250D03*
X122530Y38950D03*
Y31050D03*
X117530Y30850D03*
X103830Y39250D03*
X110430Y39150D03*
X107230Y43750D03*
X101530Y43550D03*
X115930Y69450D03*
X116130Y73550D03*
X121630Y73850D03*
X103330Y95050D03*
X107230D03*
X105330Y140050D03*
X113430Y139950D03*
X113530Y132150D03*
X102630Y121050D03*
X105530Y122950D03*
X106130Y148650D03*
X112930D03*
X101030Y186150D03*
X109530Y185950D03*
X117930Y185850D03*
X106430Y176150D03*
X115430Y176350D03*
X132330Y43850D03*
X140730D03*
X149530Y43750D03*
X147430Y36550D03*
X141030Y36950D03*
X133530Y37350D03*
X138330Y40750D03*
X146230Y40850D03*
X125330Y43750D03*
X127030Y36550D03*
X143530Y63050D03*
Y60050D03*
X128730Y56650D03*
Y53550D03*
X146585Y91750D03*
X146530Y83650D03*
X136430Y91650D03*
X136330Y83750D03*
X126530Y74150D03*
X146630Y99450D03*
X136530Y100050D03*
X131430Y111850D03*
X135430Y118350D03*
X138930Y140250D03*
X145030Y138750D03*
X127330Y139850D03*
X133130Y139650D03*
X136430Y126950D03*
X127130Y130250D03*
X129730Y120750D03*
X134930Y133550D03*
X127630Y147050D03*
X136230Y146450D03*
X126730Y185950D03*
X135030D03*
X143430D03*
X125230Y176350D03*
X134830Y176650D03*
X144430Y176550D03*
X170230Y29350D03*
X167230Y35650D03*
X160330Y44050D03*
X161030Y37050D03*
X154630Y36850D03*
X155530Y41350D03*
X171230Y41150D03*
X171630Y50150D03*
X168930Y46050D03*
X170930Y56350D03*
X157730Y67850D03*
X161130Y64850D03*
X156530Y61950D03*
X163330Y53550D03*
X163430Y56650D03*
X155030Y91650D03*
X154630Y83650D03*
X164430Y80250D03*
X164030Y87250D03*
X164130Y94850D03*
X170230Y71550D03*
X154930Y99450D03*
X164230Y109050D03*
X164130Y102250D03*
X163930Y114750D03*
X170230Y108150D03*
X169730Y103050D03*
X174030Y154050D03*
Y147550D03*
Y150750D03*
X152530Y186150D03*
X160030Y185950D03*
X154130Y176650D03*
X163930Y176050D03*
X199530Y2550D03*
X176830Y39250D03*
X176630Y29450D03*
X191730Y32450D03*
X187430Y28450D03*
X183330Y32250D03*
X197724Y42350D03*
X192724D03*
X187724Y42450D03*
X199030Y66750D03*
X199130Y59350D03*
X184730Y89650D03*
X184830Y81850D03*
X184730Y74250D03*
X198530Y90050D03*
X198330Y82650D03*
Y74950D03*
X193330Y92950D03*
X184730Y98850D03*
X188130Y109750D03*
X189927Y96053D03*
X179430Y137350D03*
X197630Y144950D03*
Y138250D03*
X196830Y163350D03*
X175730Y160650D03*
X199461Y157650D03*
X179158Y146012D03*
X193130Y193750D03*
X193230Y189850D03*
X185330Y191850D03*
X184930Y185650D03*
X184230Y188750D03*
X180930Y185750D03*
X219930Y3450D03*
X211430Y3050D03*
X221430Y22619D03*
X213730Y36250D03*
X218230Y38650D03*
X222430Y35550D03*
X211130Y26850D03*
X217030Y26950D03*
X202724Y42350D03*
X200930Y34150D03*
X202730Y38350D03*
X222724Y42350D03*
X221430Y58850D03*
X214030D03*
X211730Y63950D03*
X218130Y66950D03*
X211630Y73550D03*
X218130Y74150D03*
X206230Y107250D03*
X212530Y107450D03*
X219130Y107350D03*
X210230Y101250D03*
X217830Y101050D03*
X215930Y135650D03*
X217630Y132850D03*
X205030Y144850D03*
X204630Y138550D03*
X201330Y141650D03*
X219930Y142650D03*
X216030Y144850D03*
X222730Y120450D03*
X217724D03*
X202724D03*
X212724D03*
X207724D03*
X201830Y163350D03*
X224530Y149350D03*
X217830Y158550D03*
X222751Y161350D03*
X210940Y161150D03*
X216130Y149740D03*
X205530Y193950D03*
X215130Y193650D03*
X219630Y193750D03*
X247730Y15850D03*
X249330Y8450D03*
X235930Y3750D03*
X228230Y3950D03*
X245230Y3050D03*
X228730Y40350D03*
X236830Y37050D03*
X237330Y30150D03*
X231630Y30350D03*
X229730Y35450D03*
X246430Y38750D03*
X246730Y32050D03*
X246430Y25350D03*
X243330Y20450D03*
X227202Y25450D03*
X237724Y42350D03*
X246330Y58050D03*
X245930Y64250D03*
X232930Y68250D03*
X225330Y65350D03*
X232724Y51550D03*
X227724D03*
X246330Y70050D03*
X246230Y77250D03*
X246130Y82550D03*
X245930Y88850D03*
X233530Y91650D03*
X233330Y84650D03*
X233230Y77350D03*
X225430Y75050D03*
X246430Y96350D03*
X246330Y103250D03*
X225630Y107350D03*
X232430Y107050D03*
X233330Y98950D03*
X225030Y99450D03*
X244730Y108650D03*
X232724Y120450D03*
X227724D03*
X242730Y169850D03*
X237930Y162750D03*
X229030Y159650D03*
X234230Y158650D03*
X243830Y159350D03*
X245730Y165950D03*
X245930Y154550D03*
X249930Y146250D03*
X229430Y193950D03*
X241330Y193450D03*
X242130Y185550D03*
X242230Y177350D03*
X253830Y3250D03*
X251330Y38550D03*
X251630Y29050D03*
X251030Y21150D03*
X250530Y67550D03*
X250630Y61250D03*
X250430Y54450D03*
X250830Y93050D03*
Y86050D03*
X250730Y79950D03*
X250630Y73550D03*
X250830Y106950D03*
Y100150D03*
X271830Y143550D03*
X258630Y136350D03*
X253930Y135750D03*
X250030Y161550D03*
X253730Y165050D03*
X257030Y168950D03*
X271430Y159050D03*
Y151650D03*
X262530Y171750D03*
G54D91*
X28130Y81650D03*
G54D86*
X84746Y116424D03*
Y144376D03*
X120180Y116424D03*
Y144376D03*
G54D17*
X93505Y167247D03*
G54D102*
X177803Y58950D03*
Y63950D03*
Y68950D03*
Y73950D03*
Y78950D03*
Y83950D03*
Y88950D03*
Y93950D03*
Y98950D03*
Y103950D03*
G54D12*
X9630Y123411D03*
Y148050D03*
G54D25*
X200822Y171548D03*
X234838D03*
G54D18*
X76130Y172250D03*
G54D96*
X195524Y132101D03*
X197493D03*
X195524Y150999D03*
X197493D03*
X199461Y132101D03*
X201430D03*
X203399D03*
X205367D03*
X207336D03*
X199461Y150999D03*
X201430D03*
X203399D03*
X205367D03*
X207336D03*
G54D90*
X22030Y126664D03*
Y140050D03*
G54D100*
X220783Y169284D03*
X214877D03*
X210940D03*
X212909D03*
X216846D03*
X218814D03*
X222751D03*
X224720D03*
G54D97*
X191981Y135644D03*
Y137613D03*
Y139581D03*
Y141550D03*
Y143519D03*
Y145487D03*
Y147456D03*
X210879Y141550D03*
Y139581D03*
Y137613D03*
Y135644D03*
Y147456D03*
Y145487D03*
Y143519D03*
G54D87*
X47230Y117350D03*
Y151350D03*
G54D84*
X121979Y82750D03*
Y100750D03*
G54D19*
X103630Y89300D03*
Y83000D03*
X109630Y89300D03*
Y83000D03*
X102730Y118100D03*
Y111800D03*
X164730Y123949D03*
Y130249D03*
X158730Y123949D03*
Y130249D03*
G54D101*
X208381Y169284D03*
X205232D03*
X227279D03*
X230428D03*
G54D13*
X46051Y183250D03*
X66051D03*
X56051D03*
X95111Y10000D03*
X125111D03*
X115110D03*
X105110D03*
X135110D03*
X175110D03*
X165110D03*
X195110D03*
X185110D03*
X205111D03*
G54D89*
X201430Y141550D03*
G54D21*
X123505Y167247D03*
X113505D03*
X103505D03*
X143505D03*
X133505D03*
X173505D03*
X163505D03*
X153505D03*
X183505D03*
G54D26*
X181558Y133019D03*
X185101D03*
X185102Y141681D03*
X181558D03*
X185102Y137350D03*
X181558D03*
Y146012D03*
X185101D03*
X185102Y150342D03*
X181558D03*
X185102Y154673D03*
X181558D03*
X227202Y22619D03*
X223659D03*
X230745D03*
X234289D03*
X233058Y146019D03*
X236602D03*
X233058Y153450D03*
X236602D03*
G54D98*
X219710Y149740D03*
X240930Y153500D03*
Y146020D03*
X249950Y149760D03*
X228730Y146000D03*
Y153480D03*
G54D85*
X69130Y68250D03*
Y74950D03*
Y81650D03*
Y88350D03*
Y95050D03*
G54D22*
X186480Y159839D03*
X180180D03*
X243373Y131532D03*
Y125532D03*
X249673Y131532D03*
Y125532D03*
G54D27*
X200822Y187886D03*
X234838D03*
G54D14*
X66130Y172250D03*
X56130D03*
G54D64*
X147410Y27928D03*
X144851D03*
X142291D03*
X139732D03*
X137173D03*
X134614D03*
X132055D03*
Y55172D03*
X134614D03*
X137173D03*
X139732D03*
X142291D03*
X144851D03*
X147410D03*
X152528Y27928D03*
X149969D03*
X160205D03*
X157646D03*
X155087D03*
X149969Y55172D03*
X152528D03*
X155087D03*
X157646D03*
X160205D03*
G54D28*
X206452Y173516D03*
X229208D03*
G54D15*
X76051Y183250D03*
X85110Y10000D03*
X155110D03*
G54D95*
X146585Y91750D03*
G54D93*
X220749Y15926D03*
X215139Y9627D03*
X237088Y15926D03*
X242698Y9627D03*
G54D16*
X90659Y74650D03*
X106801D03*
G54D20*
X146830Y123939D03*
Y147561D03*
G54D24*
X224391Y10218D03*
X233446D03*
X265466Y156066D03*
Y147011D03*
G54D94*
X259758Y143369D03*
X266057Y137759D03*
X259758Y159708D03*
X266057Y165318D03*
G54D103*
X197724Y47001D03*
X192724D03*
X187724D03*
X182724D03*
Y115899D03*
X187724D03*
X192724D03*
X197724D03*
X222724Y47001D03*
X217724D03*
X212724D03*
X207724D03*
X202724D03*
X207724Y115899D03*
X212724D03*
X217724D03*
X222724D03*
X202724D03*
X247724Y47001D03*
X242724D03*
X237724D03*
X232724D03*
X227724D03*
Y115899D03*
X232724D03*
X237724D03*
X242724D03*
X247724D03*
G54D29*
X254065Y149735D03*
Y146192D03*
Y153278D03*
Y156822D03*
G54D99*
X211819Y81844D03*
Y87356D03*
Y92867D03*
X217331Y81844D03*
Y87356D03*
Y92867D03*
X222842Y81844D03*
Y87356D03*
Y92867D03*
G54D92*
X223944Y134050D03*
X237330D03*
G54D10*
X69130Y81650D02*
G01X61730D01*
X69130Y95050D02*
G01X61730D01*
X69130D02*
G01Y99050D01*
X66051Y183250D02*
G01Y172329D01*
X66130Y172250*
X136330Y83750D02*
G01Y75750D01*
X128530Y67950*
X122630*
X116430Y61750*
Y37750*
X112330Y33650*
X90130*
X75030Y18550*
Y5750*
X78030Y2750*
X91210*
X95111Y6650*
Y10000*
X84746Y144376D02*
G01Y134506D01*
X93505Y167247D02*
G01Y172902D01*
Y167247D02*
G01Y161592D01*
Y167247D02*
G01X87850D01*
X103505D02*
G01X93505D01*
X76130Y172250D02*
G01Y166400D01*
X84746Y144376D02*
G01Y154247D01*
Y144376D02*
G01X79696D01*
X84746D02*
G01X89797D01*
X76130Y172250D02*
G01X81980D01*
X76130D02*
G01Y183171D01*
X76051Y183250*
Y183250D02*
G01Y189550D01*
Y183250D02*
G01X82351D01*
X120180Y144376D02*
G01Y134506D01*
X103505Y167247D02*
G01Y172947D01*
Y167247D02*
G01Y161547D01*
X120180Y144376D02*
G01Y154247D01*
Y144376D02*
G01X115129D01*
X120180D02*
G01X125230D01*
X146830Y147561D02*
G01Y141726D01*
Y147561D02*
G01Y153396D01*
Y147561D02*
G01X140305D01*
X146830D02*
G01X153355D01*
X174030Y147550D02*
G01Y150750D01*
Y150750D02*
G01Y154050D01*
X217331Y87356D02*
G01Y81844D01*
X211819D02*
G01Y87356D01*
X217331Y81844D02*
G01X211819D01*
X222842D02*
G01X217331D01*
Y92867D02*
G01Y87356D01*
X211819D02*
G01X217331D01*
Y87356D02*
G01X222842D01*
Y92867D02*
G01X217331D01*
Y92867D02*
G01X211819D01*
X222842Y81844D02*
G01Y87356D01*
Y87356D02*
G01Y92867D01*
X211819D02*
G01Y87356D01*
Y92867D02*
G01X208147D01*
X211819D02*
G01Y96539D01*
X222842Y92867D02*
G01Y96539D01*
Y92867D02*
G01X226514D01*
X222842Y81844D02*
G01Y78172D01*
X211819Y81844D02*
G01X208147D01*
X211819D02*
G01Y78172D01*
X222842Y81844D02*
G01X226836D01*
X222842Y87356D02*
G01X228224D01*
X217331Y92867D02*
G01Y97849D01*
X206730Y87350D02*
G01X206736Y87356D01*
X217330Y77750D02*
G01X217331Y77751D01*
X206736Y87356D02*
G01X211819D01*
X217331Y77751D02*
G01Y81844D01*
Y97849D02*
G01X217330Y97850D01*
X247724Y47001D02*
G01Y42148D01*
Y47001D02*
G01Y51854D01*
Y47001D02*
G01X251396D01*
X226836Y81844D02*
G01X226930Y81750D01*
X228224Y87356D02*
G01X228230Y87350D01*
X249673Y120193D02*
G01X247724Y118244D01*
Y115899*
Y115899D02*
G01X251086D01*
X250230Y110350D02*
G01X247724Y112856D01*
Y115899*
G54D32*
X69130Y81650D02*
G01X69153Y81673D01*
X97953*
Y81673D02*
G01X99280Y83000D01*
X103630D02*
G01X109630D01*
X99280D02*
G01X103630D01*
X102730Y111800D02*
G01X99060D01*
X102730D02*
G01Y108720D01*
Y111800D02*
G01X106400D01*
X121979Y100750D02*
G01X114579D01*
X121979D02*
G01X129379D01*
X121979D02*
G01Y95850D01*
X177803Y103950D02*
G01X172950D01*
X164730Y130249D02*
G01X158730D01*
Y130249D02*
G01Y133329D01*
X164730Y130249D02*
G01Y134450D01*
X153530Y132350D02*
G01X155631Y130249D01*
X158730*
X177803Y103950D02*
G01X182656D01*
X177803D02*
G01Y108450D01*
X176330Y161050D02*
G01X177541Y159839D01*
X180180*
X223944Y134050D02*
G01X219544D01*
X205230Y162650D02*
G01X205232Y162652D01*
Y162652D02*
G01Y169284D01*
X237088Y15926D02*
G01Y21026D01*
Y15926D02*
G01X240988D01*
X237088D02*
G01X233187D01*
X223944Y134050D02*
G01X228344D01*
X230430Y161450D02*
G01X230428Y161452D01*
Y161452D02*
G01Y169284D01*
X249673Y125532D02*
G01Y131532D01*
Y125532D02*
G01Y120193D01*
X250630Y136550D02*
G01X249673Y135593D01*
Y135593D02*
G01Y131532D01*
X259758Y159708D02*
G01Y163608D01*
Y159708D02*
G01Y155807D01*
X254388Y159708D02*
G01X259758D01*
G54D33*
X21030Y25350D02*
G01Y29650D01*
Y29650D02*
G01Y34150D01*
X9630Y123411D02*
G01Y114711D01*
X22030Y126664D02*
G01Y122264D01*
Y126664D02*
G01Y131064D01*
Y126664D02*
G01X26930D01*
X9630Y123411D02*
G01X18777D01*
X22030Y126664*
X9630Y123411D02*
G01Y132111D01*
X47230Y117350D02*
G01X40800D01*
X47230D02*
G01Y128795D01*
Y117350D02*
G01X53660D01*
X47230D02*
G01Y100750D01*
X66130Y134350D02*
G01Y137750D01*
Y134350D02*
G01Y130350D01*
Y137750D02*
G01Y172250D01*
X125130Y3250D02*
G01X125111Y3270D01*
X106801Y74650D02*
G01Y69010D01*
Y74650D02*
G01X113426D01*
X125111Y3270D02*
G01Y10000D01*
X165030Y3350D02*
G01X165110Y3430D01*
Y3430D02*
G01Y10000D01*
G54D34*
X77230Y96150D02*
G01X76130Y95050D01*
X69130*
X139730Y38150D02*
G01X139732Y38148D01*
X137230Y37950D02*
G01X137173Y37893D01*
X139732Y38148D02*
G01Y27928D01*
X137173Y37893D02*
G01Y27928D01*
X147530Y44750D02*
G01X147410Y44870D01*
Y44870D02*
G01Y55172D01*
X151330Y38450D02*
G01X152528Y37252D01*
X155430Y40150D02*
G01X155087Y39807D01*
X152528Y37252D02*
G01Y27928D01*
X155087Y39807D02*
G01Y27928D01*
X181558Y137350D02*
G01Y133019D01*
Y137350D02*
G01X179430D01*
X181558Y150342D02*
G01Y154673D01*
Y154673D02*
G01X180180Y156051D01*
Y159839*
X234289Y22619D02*
G01X236974D01*
X234289D02*
G01Y25699D01*
X250230Y156750D02*
G01X250302Y156822D01*
X254065D02*
G01Y159385D01*
X250302Y156822D02*
G01X254065D01*
Y159385D02*
G01X254388Y159708D01*
G54D104*
X28130Y81650D02*
G01X23230D01*
Y81650D02*
G01X5230D01*
X28130D02*
G01Y57250D01*
Y81650D02*
G01Y106050D01*
Y81650D02*
G01X51030D01*
G54D30*
X131230Y64650D02*
G01Y64950D01*
Y64950D02*
G01X142330Y76050D01*
X160330*
X163030Y78750*
X139732Y55172D02*
G01Y66098D01*
X144184Y70550*
X165430*
X172030Y63950*
X177803*
X137173Y55172D02*
G01Y65802D01*
X143521Y72150*
X169630*
X170230Y71550*
X177803Y98950D02*
G01X172530D01*
X171730Y98150*
Y77950*
X167730Y73950*
X142776*
X134828Y66003*
Y55386*
X134614Y55172*
X157730Y67850D02*
G01X156530D01*
X155230Y66550*
X150769*
X149969Y65750*
Y55172*
X161130Y64850D02*
G01X153328D01*
X152528Y64050*
Y55172*
X156530Y61950D02*
G01X156030D01*
X155087Y61007*
Y55172*
X227202Y25450D02*
G01Y29678D01*
X225430Y31450*
X199811*
X194111Y37150*
X183524*
X182724Y37950*
Y47001*
X197724D02*
G01Y42350D01*
X192724Y47001D02*
G01Y42350D01*
X187724Y47001D02*
G01Y42450D01*
X193330Y92950D02*
G01X197730Y97350D01*
Y115893*
X197724Y115899*
X188130Y109750D02*
G01X187724Y110156D01*
Y115899*
X189927Y96053D02*
G01X192724Y98850D01*
Y115899*
X178930Y121050D02*
G01X198930D01*
X191981Y145487D02*
G01X191567D01*
X191399Y145319*
X188930*
X188130Y144519*
Y142481*
X187330Y141681*
X185102*
Y137350D02*
G01Y141681D01*
X185101Y133019D02*
G01X187230D01*
X188030Y133819*
Y139797*
X189783Y141550*
X191981*
X185101Y146012D02*
G01X185102D01*
Y148350*
Y148350D02*
G01X187630D01*
X188524Y147456*
X191981*
X185102Y148350D02*
G01Y150342D01*
X220749Y15926D02*
G01X226378D01*
X227202Y16750*
Y22619*
X202724Y42350D02*
G01Y47001D01*
X212724D02*
G01Y42044D01*
X204830Y34150*
X200930*
X202730Y38350D02*
G01X205630D01*
X207724Y40444*
Y47001*
X222724D02*
G01Y42350D01*
X222730Y120450D02*
G01Y119650D01*
X222724Y119644*
Y115899*
X217724D02*
G01Y120450D01*
X202724Y115899D02*
G01Y120450D01*
X212724Y115899D02*
G01Y120450D01*
X207724Y115899D02*
G01Y120450D01*
X198930Y121050D02*
G01X201030Y123150D01*
X237530*
X238730Y121950*
X219930Y142650D02*
G01Y142350D01*
X219130Y141550*
X210879*
Y139581D02*
G01X221630D01*
X224799Y142750*
X234530*
X236602Y144822*
Y146019*
X227230Y158150D02*
G01X224730Y155650D01*
X205130*
X203399Y153919*
Y150999*
X199461Y157650D02*
G01Y150999D01*
X217830Y158550D02*
G01Y161850D01*
X220783Y164803*
Y169284*
X216030Y144850D02*
G01X214699Y143519D01*
X210879*
X222751Y161350D02*
G01Y169284D01*
X214877D02*
G01X214863Y169270D01*
Y164515*
Y164515D02*
G01X218014D01*
X218814Y165315*
Y169284*
X214863Y164515D02*
G01Y160283D01*
X212330Y157750*
X204330*
X201430Y154850*
Y150999*
X210940Y169284D02*
G01Y161150D01*
X210879Y147456D02*
G01Y152150D01*
X212209Y153480*
X228730*
X219710Y149740D02*
G01X216130D01*
X220783Y169284D02*
G01Y173850D01*
X219983Y174650*
X217646*
X216846Y173850*
Y169284*
X227202Y22619D02*
G01X230745D01*
X227202D02*
G01Y25450D01*
X237724Y47001D02*
G01Y42350D01*
X232724Y47001D02*
G01Y51550D01*
X227724Y47001D02*
G01Y51550D01*
X244730Y108650D02*
G01X238524D01*
X237724Y109450*
Y115899*
X232724D02*
G01Y120450D01*
X227724D02*
G01Y115899D01*
X237730Y141950D02*
G01X236330Y140550D01*
X231130*
X230330Y139750*
X240930Y146020D02*
G01X240929Y146019D01*
X236602*
Y153450D02*
G01X240880D01*
X240930Y153500*
X228730Y153480D02*
G01X233028D01*
X233058Y153450*
X228730Y146000D02*
G01X233039D01*
X233058Y146019*
X249950Y149760D02*
G01X254040D01*
X254065Y149735*
Y153278D02*
G01Y149735D01*
Y149735D02*
G01X258757D01*
X259758Y148735*
Y143369*
X249930Y146250D02*
G01Y149740D01*
X249950Y149760*
G54D31*
X181558Y146012D02*
G01X179158D01*
X223659Y22619D02*
G01X221430D01*
X243930Y136350D02*
G01X247721Y140141D01*
X252656*
X254065Y141550*
Y146192*
M02*
