M48
INCH,LZ
VER,1
FMAT,2
T01C0.015F1B1S6H2000
T02C0.023622F1B1S6H2000
T03C0.026F1B1S6H2000
T04C0.039402F1B1S6H2000
T05C0.04F1B1S6H2000
T06C0.041339F1B1S6H2000
T07C0.042F1B1S6H2000
T08C0.045F1B1S6H2000
T09C0.06F1B1S6H2000
T10C0.12598F1B1S6H2000
DETECT,ON
ATC,ON
%
T01
X00156Y00037
X00178Y00072
X00146Y00281
X00172Y00359
X00197Y00471
X00132Y00589
X00141Y00701
Y0075
X001679Y007939
X00103Y0095
X001382Y010858
X001521Y011361
X000339Y01155
Y012741
X001521Y01275
X00094Y01293
X00118Y01399
X00036Y01403
X00114Y01503
X00036Y01506
X000594Y015744
X001756Y018724
X001815Y02008
X001185Y02071
X00203Y01846
X00335Y0171
X00373Y01625
X00327Y016113
X00395Y01541
X00343Y0154
X00396Y01438
X00336Y01437
X00347Y01351
X00358Y01239
X00338Y01202
X003825Y00973
X00288Y00927
Y00879
X003195Y008455
X00389Y00827
X003885Y00792
X00345Y00636
X003167Y006047
X00311Y00476
X00242Y00354
X00299Y00349
X00388Y00264
X00346
X00467Y00037
X00469Y00184
X00562Y00348
X00457Y00356
X00456Y00472
X00569Y00483
X00575Y0077
X00469Y00966
X00413Y00973
X00586Y01062
X005318Y010628
X00409Y0109
X00425Y01128
X00593Y01162
X004387Y011646
X005967Y012357
X00445Y01281
X005365Y013065
X00445Y01384
X00472Y01451
X00502
X005731Y016071
X00532Y01698
X005565Y01821
X0052Y0189
X00407Y01931
X00556Y01944
X005Y01995
X00429Y02028
X00495Y02055
X00428Y02093
X00573Y02101
X00526Y02102
X00654Y02104
X006124Y020966
X006518Y01979
X00704Y01974
X007699Y019691
X007333Y01944
X00667Y01929
X00673Y01881
X00691Y01844
X00724Y01821
X00664Y01798
X00612Y01784
X00713Y01757
X00639Y01738
X00689Y01707
X00755Y01701
X0067Y0166
X00719Y01651
X00682Y01624
X00753Y01293
X00622Y01264
X007444Y012512
X0078Y01238
X006445Y01208
X00755Y0115
X00612Y01112
X00757Y01071
X00726Y01016
X007Y00978
X0074Y00938
X00716Y00912
X0071Y00804
X00747Y00796
X00609Y00661
X00773Y00477
X00646Y00422
X00687Y00351
X00815Y00034
X00819Y00189
X0084Y00358
X00839Y00572
X00853Y00664
X00817Y00683
X0085Y00774
X00993Y00955
X009299Y0106
X00889Y01079
X00974Y011045
X00888Y01171
X00852Y01405
X008795Y014475
X00821Y01451
X008225Y016115
X00879Y01639
X00885Y01684
X00863Y01718
X008495Y01795
X00812Y01864
X00865Y01894
X00812Y01922
X00981Y01967
X00884Y01971
X01166Y01954
X010684Y01931
X01181Y01913
X01024Y01809
X01003Y01776
X01009Y01738
X01127Y01735
X01183Y0166
X01147Y01651
X01106Y0165
X01167Y01521
X01138Y01495
X010595Y014285
X01131Y01245
X01186Y01223
X011105Y010455
X010351Y010292
X010907Y010128
X01129Y00964
X01028Y00926
X01189Y00818
X01022Y00795
X01027Y00676
X01079Y00487
X01015Y00437
X01143Y00426
X01137Y0035
X01007Y00344
X01076Y00267
X01173Y00196
X01174Y00035
X01326Y00347
X01272Y00442
X01297Y00572
X01257Y0066
X0123Y00773
X01364Y00808
X01349Y00912
X0139Y00958
X013Y01059
X01298Y01501
X01269Y01619
X01225Y01844
X01247Y01879
X0122Y01928
X01256Y01969
X01232Y0204
X013222Y020551
X01357Y02072
X01395Y02088
X0143Y02104
X01593Y02102
X01504Y02093
X01454Y02041
X01554Y02032
X01582Y02002
X01473Y01993
X01503Y01965
X01447Y0191
Y0186
X01485Y01724
X01428Y017242
X01496Y01687
X014401Y016868
X01404Y01515
X0144Y01494
X01585Y0108
X01466Y01079
X01511Y01056
X01425Y00997
X01443Y00919
X01558Y00802
X01507Y00659
X01437Y00428
X01491Y00347
X01494Y00194
Y00039
X01776Y0004
X01777Y00197
X01659Y00349
X01767Y00421
X01617Y00435
X01751Y00571
X01732Y00804
X01768Y00948
X0178Y01004
X01627Y0105
X01754Y0112
X01712Y0116
X017314Y012495
X01661Y01463
X01635Y0166
X01631Y01784
X01666
X01721Y01867
X0177
X01674Y01889
X016621Y019231
X01667Y01967
X01607Y02044
X01939Y02102
X01847
X01991Y02055
X01849Y02044
X0189Y02001
X018102Y019762
X01821Y01523
X018087Y014902
X019061Y01452
X018889Y013361
X019676Y013336
X0192Y01211
X01825
X01924Y01152
X01825Y01151
X01801Y01091
X01934Y01081
X01805Y01045
X01966Y01019
X01841Y00806
X01869Y00431
X0186Y00355
X01961Y00267
X01929
X01995Y00198
X02145Y00037
X02021Y00043
X02181Y00196
X0205Y00221
X02037Y00319
X02035Y00404
X02169Y00421
X02113Y00858
X02164Y00999
X02086Y01024
X02112Y011
X02052Y01122
X02116Y01209
X02059Y01221
X021251Y013309
X020464Y013316
X02075Y01408
X02052Y01441
X02073Y01475
X02153Y015
X02036Y01513
X021771Y01544
X02173Y01708
X02048Y018464
X02167Y01866
X02048Y018814
X02142Y0206
X02019Y02104
X02371Y01978
X02318Y0195
X02354Y01896
X02214Y01866
X02243Y01709
X02247Y01656
X022189Y01603
X02254Y01575
X02217Y01544
X02322Y01498
X0235Y0147
X02232Y01437
X023118Y014302
X0238Y01353
X022826Y013496
X022038Y013288
X02389Y01126
Y01066
X02335Y01023
X02277Y00995
X02314Y00855
X02203Y00727
X02207Y00601
X02248Y0047
X02332Y00444
X02324Y00328
X02335Y00203
X02449Y01066
X02509
X02449Y01126
X02509
X02526Y01188
X0245Y0119
X02425Y01224
X02455Y016141
X02406Y01899
X02423Y02006
X02404Y02095
T02
X02257Y010704
Y011216
T03
X02344Y01218
Y01268
T04
X005453Y00951
X009142
X012831
X01652
X020209
T05
X002482Y005454
Y007226
X005041
Y005454
X007023
Y007226
X009582
Y005454
X011564
Y007226
X014123
Y005454
X016105
Y007226
X018664
Y005454
X020647
Y007226
X023206
Y005454
T06
X01036Y011697
X01136
X01236
X01336
X01436
X01536
Y015697
X01436
X01336
X01236
X01136
X01036
T07
X00054Y00059
Y00159
Y00259
Y00359
Y00459
Y00559
Y00659
Y00759
Y00859
X00063Y017742
Y018742
Y019742
Y020742
X02513Y02077
Y01977
Y01877
Y01777
Y01677
Y01577
Y01477
Y01377
Y01277
T08
X005453Y00851
X009142
X012831
X01652
X020209
T09
X0006Y0108
T10
X003001Y000841
X022681
Y020521
X003001
M30
