G04 CAM350/DFMSTREAM V12.1 (Build 1022) Date:  Thu Oct 23 21:42:29 2025 *
G04 Database: (Untitled) *
G04 Layer 3: PASTEMASK_BOTTOM.art *
%FSLAX25Y25*%
%MOIN*%
%SFA1.000B1.000*%

%MIA0B0*%
%IPPOS*%
%ADD10C,0.06200*%
%ADD11R,0.06200X0.06200*%
%ADD16R,0.03543X0.02362*%
%ADD23R,0.02362X0.03543*%
%ADD35R,0.03000X0.03000*%
%ADD41C,0.08000*%
%ADD75C,0.08200*%
%ADD124R,0.04000X0.04000*%
%ADD125C,0.07000*%
%ADD126O,0.01000X0.05906*%
%ADD127O,0.05906X0.01000*%
%ADD129R,0.07090X0.07090*%
%ADD130R,0.05120X0.05910*%
%ADD131C,0.06299*%
%ADD132R,0.04016X0.08661*%
%ADD133R,0.09252X0.07874*%
%ADD134R,0.06299X0.06299*%
%LNPASTEMASK_BOTTOM.art*%
%LPD*%
G54D11*
X5400Y5900D03*
X6300Y207421D03*
X251300Y127700D03*
G54D126*
X55336Y155678D03*
X57305D03*
Y202922D03*
X55336D03*
X59273Y155678D03*
X61242D03*
X63210D03*
X65179D03*
X67147D03*
X69116D03*
X71084D03*
X73053D03*
X75021D03*
X76990D03*
X78958D03*
X80927D03*
X82895D03*
Y202922D03*
X80927D03*
X78958D03*
X76990D03*
X75021D03*
X73053D03*
X71084D03*
X69116D03*
X67147D03*
X65179D03*
X63210D03*
X61242D03*
X59273D03*
X84864Y155678D03*
Y202922D03*
G54D10*
X5400Y35900D03*
Y25900D03*
Y15900D03*
Y55900D03*
Y45900D03*
Y85900D03*
Y75900D03*
Y65900D03*
X6300Y187421D03*
Y177421D03*
Y197421D03*
X251300Y137700D03*
Y157700D03*
Y147700D03*
Y187700D03*
Y177700D03*
Y167700D03*
Y207700D03*
Y197700D03*
G54D127*
X46478Y186190D03*
Y184221D03*
Y182253D03*
Y180284D03*
Y178316D03*
Y176347D03*
Y174379D03*
Y172410D03*
Y170442D03*
Y168473D03*
Y166505D03*
Y164536D03*
Y194064D03*
Y192095D03*
Y190127D03*
Y188158D03*
X93722Y164536D03*
Y166505D03*
Y168473D03*
Y170442D03*
Y172410D03*
Y174379D03*
Y176347D03*
Y178316D03*
Y180284D03*
Y182253D03*
Y184221D03*
Y186190D03*
Y188158D03*
Y190127D03*
Y192095D03*
Y194064D03*
G54D75*
X6000Y108000D03*
G54D124*
X9300Y114294D03*
X173100Y198494D03*
G54D35*
X107900Y84820D03*
Y92300D03*
X98880Y88560D03*
X122900Y140600D03*
X115420D03*
X119160Y149620D03*
X129920Y140600D03*
X133660Y149620D03*
X157500Y102200D03*
X150020D03*
X153760Y111220D03*
X137400Y140600D03*
X151900D03*
X144420D03*
X148160Y149620D03*
G54D134*
X103600Y116968D03*
G54D132*
X3395Y120200D03*
X15206D03*
X179006Y204400D03*
X167194D03*
G54D131*
X103600Y156968D03*
X133600Y116968D03*
X123600D03*
X113600D03*
Y156968D03*
X123600D03*
X133600D03*
X153600Y116968D03*
X143600D03*
Y156968D03*
X153600D03*
G54D41*
X24819Y54542D03*
Y72258D03*
X50410Y54542D03*
Y72258D03*
X70231Y54542D03*
Y72258D03*
X95821Y54542D03*
Y72258D03*
X115642Y54542D03*
Y72258D03*
X141233Y54542D03*
X161054D03*
X141233Y72258D03*
X161054D03*
X186645Y54542D03*
X206466D03*
X186645Y72258D03*
X206466D03*
X232057Y54542D03*
Y72258D03*
G54D133*
X158200Y168689D03*
Y192311D03*
G54D23*
X31950Y87900D03*
Y100000D03*
Y94000D03*
X11850Y204400D03*
X18150D03*
X11850Y198400D03*
X18150D03*
X38250Y87900D03*
X47350Y110100D03*
X53650D03*
X38250Y100000D03*
Y94000D03*
X47350Y116100D03*
X53650D03*
Y122100D03*
X47350D03*
Y128100D03*
X53650D03*
X56550Y148100D03*
X50250D03*
X81650D03*
X87950D03*
X116050Y135600D03*
X122350D03*
X130450D03*
X122350Y129600D03*
X116050D03*
X130450D03*
X150850Y97200D03*
X157150D03*
Y91200D03*
X150850D03*
X136750Y135600D03*
X145250D03*
X151550D03*
X136750Y129600D03*
X151550D03*
X145250D03*
X190650Y109100D03*
X184350D03*
Y103100D03*
X190650D03*
X184350Y121100D03*
X190650D03*
X184350Y115100D03*
X190650D03*
X206850Y201800D03*
Y207800D03*
X213150Y201800D03*
Y207800D03*
G54D16*
X57300Y60150D03*
Y53850D03*
X88139Y60150D03*
Y53850D03*
X103501Y110850D03*
Y104550D03*
X108400Y149150D03*
Y142850D03*
X133426Y60150D03*
Y53850D03*
X112900Y85050D03*
X118900D03*
X132975Y110850D03*
Y104550D03*
X113326Y110850D03*
Y104550D03*
X123150Y110850D03*
Y104550D03*
X112900Y91350D03*
X118900D03*
X122600Y163050D03*
Y169350D03*
X142800Y110850D03*
Y104550D03*
X178713Y60150D03*
Y53850D03*
X159900Y149150D03*
Y142850D03*
X224000Y60150D03*
Y53850D03*
X228400Y117750D03*
Y124050D03*
G54D130*
X173141Y129904D03*
X181015D03*
Y192896D03*
X173141D03*
X188889Y129904D03*
X196763D03*
X204637D03*
Y192896D03*
X196763D03*
X188889D03*
X212511Y129904D03*
X220385D03*
X228259D03*
Y192896D03*
X220385D03*
X212511D03*
G54D129*
X54532Y85100D03*
X91426D03*
X128320D03*
X165213D03*
X202107D03*
G54D125*
X54532Y95100D03*
X91426D03*
X128320D03*
X165213D03*
X202107D03*
M02*
