G04 CAM350/DFMSTREAM V12.1 (Build 1022) Date:  Thu Oct 23 21:42:30 2025 *
G04 Database: (Untitled) *
G04 Layer 6: SILK_SCREEN_TOP.art *
%FSLAX25Y25*%
%MOIN*%
%SFA1.000B1.000*%

%MIA0B0*%
%IPPOS*%
%ADD36C,0.00800*%
%ADD37C,0.01000*%
%ADD49C,0.00600*%
%ADD50C,0.00787*%
%ADD51C,0.00591*%
%ADD52C,0.00984*%
%ADD53C,0.00787*%
%ADD55C,0.01500*%
%ADD56C,0.01969*%
%ADD57C,0.00400*%
%ADD140C,0.00390*%
%ADD141C,0.00790*%
%ADD142C,0.01181*%
%LNSILK_SCREEN_TOP.art*%
%LPD*%
G36*
X113600Y177200D02*
G01Y184800D01*
X168000*
Y177200*
X113600*
G37*
G36*
X105200Y8100D02*
G01Y13100D01*
G75*
G02X110200Y18100I5000J0*
G01X130200*
G02X135200Y13100I0J-5000*
G01Y8100*
G02X130200Y3100I-5000*
G01X110200*
G02X105200Y8100J5000*
G37*
G36*
X2004Y114815D02*
G01Y162059D01*
X64996*
Y106941*
X9878*
Y110878*
X5941Y114815*
X2004*
G37*
%LPC*%
G36*
X160900Y177800D02*
G01Y184100D01*
X120400*
Y177800*
X160900*
G37*
G36*
X111600Y4100D02*
G01X128600D01*
G03X133600Y9100J5000*
G01Y12100*
G03X128600Y17100I-5000J0*
G01X111600*
G03X106600Y12100I0J-5000*
G01Y9100*
G03X111600Y4100I5000*
G37*
%LPD*%
G54D57*
X13200Y80100D02*
G01Y82200D01*
X12000Y83400*
Y82500*
X12900Y83400*
X12100*
X113600Y184800D02*
G01X168000D01*
X113700Y177200D02*
G01Y203900D01*
X168000Y177200D02*
G01X113700D01*
Y203900D02*
G01X168000D01*
X113800Y197200D02*
G01X168000D01*
X113600Y191200D02*
G01X168000D01*
X134900Y203900D02*
G01Y184800D01*
X168000Y203900D02*
G01Y177200D01*
X239321Y131800D02*
G01X229300D01*
Y116800*
X239500*
Y131800*
X239321*
X239500Y121800D02*
G01X238100D01*
Y126800*
X239500*
G54D55*
X110850Y6600D02*
G01Y14600D01*
X115750D02*
G01Y6600D01*
Y10600D02*
G01X110850D01*
X120500Y14600D02*
G01Y6600D01*
X117817Y14600D02*
G01X123183D01*
X125367Y6600D02*
G01Y14600D01*
X128283*
X129217Y14200*
X129800Y13667*
X130033Y12600*
X129800Y11533*
X129100Y10867*
X128283Y10467*
X125367*
X128283D02*
G01X130033Y6600D01*
G54D49*
X236100Y160500D02*
G01Y158300D01*
X235100Y159400D02*
G01X237000D01*
X235900Y140200D02*
G01Y138300D01*
G54D142*
X218218Y173421D02*
G01X218415D01*
X221683Y176689*
Y159799*
X221565*
X218336Y163028*
X214517Y173421D02*
G01X218218D01*
X218336Y173539*
Y163028*
X218139Y162831*
X214360*
X214320Y162870*
Y173224*
X214517Y173421*
G54D36*
X7100Y10850D02*
G01X3600D01*
X4300Y10350*
X7100D02*
G01Y11350D01*
X3900Y98950D02*
G01Y95450D01*
X2942Y98950D02*
G01X4858D01*
X6500Y95450D02*
G01Y98950D01*
X6000Y98250*
Y95450D02*
G01X7000D01*
X6992Y92942D02*
G01X7283Y93233D01*
X7400Y93567*
X7283Y93900*
X6933Y94192*
X6408Y94400*
X5883Y94483*
X5242*
X4717Y94400*
X4250Y94192*
X4017Y93942*
X3900Y93650*
X4017Y93317*
X4250Y93067*
X4600Y92900*
X5067Y92817*
X5475Y92900*
X5883Y93108*
X6117Y93358*
X6175Y93650*
X6058Y93983*
X5767Y94233*
X5242Y94483*
X11833Y4500D02*
G01X12083Y4092D01*
X12417Y3858*
X12792Y3800*
X13125Y3858*
X13458Y4150*
X13667Y4500*
X13708Y4850*
X13625Y5258*
X13333Y5550*
X13042Y5667*
X12667*
X13042D02*
G01X13292Y5842D01*
X13500Y6133*
X13583Y6483*
X13500Y6833*
X13292Y7125*
X12917Y7300*
X12542Y7242*
X12167Y7008*
X15350Y3683D02*
G01X15267Y3742D01*
Y3858*
X15350Y3917*
X15433Y3858*
Y3742*
X15350Y3683*
X17033Y4500D02*
G01X17283Y4092D01*
X17617Y3858*
X17992Y3800*
X18325Y3858*
X18658Y4150*
X18867Y4500*
X18908Y4850*
X18825Y5258*
X18533Y5550*
X18242Y5667*
X17867*
X18242D02*
G01X18492Y5842D01*
X18700Y6133*
X18783Y6483*
X18700Y6833*
X18492Y7125*
X18117Y7300*
X17742Y7242*
X17367Y7008*
X19508Y7300D02*
G01X20550Y3800D01*
X21592Y7300*
X12317Y9500D02*
G01X12525Y9150D01*
X12775Y8917*
X13067Y8800*
X13400Y8917*
X13650Y9150*
X13900Y9500*
X13983Y9967*
Y12300*
X14958Y10258D02*
G01X15250Y10667D01*
X15500Y10900*
X15833Y11017*
X16125Y10900*
X16333Y10667*
X16500Y10317*
X16542Y9908*
X16500Y9558*
X16333Y9208*
X16083Y8917*
X15792Y8800*
X15458Y8917*
X15167Y9267*
X15000Y9792*
X14958Y10375*
X15042Y11133*
X15167Y11542*
X15375Y11950*
X15667Y12242*
X15958Y12300*
X16250Y12183*
X16458Y11892*
X12650Y37700D02*
G01X13650D01*
X13150D02*
G01Y34200D01*
X12650D02*
G01X13650D01*
X15750D02*
G01X15417Y34258D01*
X15125Y34492*
X14875Y34842*
X14708Y35250*
X14625Y35717*
Y36183*
X14708Y36650*
X14875Y37058*
X15125Y37408*
X15417Y37642*
X15750Y37700*
X16083Y37642*
X16375Y37408*
X16625Y37058*
X16792Y36650*
X16875Y36183*
Y35717*
X16792Y35250*
X16625Y34842*
X16375Y34492*
X16083Y34258*
X15750Y34200*
X18350Y37700D02*
G01X18017Y37583D01*
X17767Y37292*
X17600Y36942*
X17475Y36475*
X17433Y35950*
X17475Y35425*
X17600Y34958*
X17767Y34608*
X18017Y34317*
X18350Y34200*
X18683Y34317*
X18933Y34608*
X19100Y34958*
X19225Y35425*
X19267Y35950*
X19225Y36475*
X19100Y36942*
X18933Y37292*
X18683Y37583*
X18350Y37700*
X12108Y23900D02*
G01X13150Y27400D01*
X14192Y23900*
X13817Y25125D02*
G01X12483D01*
X14833Y23900D02*
G01Y27400D01*
X15667*
X16000Y27225*
X16250Y26992*
X16458Y26642*
X16625Y26233*
X16667Y25650*
X16625Y25067*
X16458Y24658*
X16250Y24308*
X16000Y24075*
X15667Y23900*
X14833*
X19267Y27108D02*
G01X19017Y27283D01*
X18725Y27400*
X18392*
X18017Y27225*
X17725Y26933*
X17517Y26583*
X17350Y26000*
X17308Y25475*
X17392Y24950*
X17517Y24600*
X17767Y24250*
X18058Y24017*
X18350Y23900*
X18642*
X18933Y24017*
X19183Y24192*
X19392Y24425*
X13400Y15750D02*
G01X14233D01*
Y14700*
X13983Y14350*
X13692Y14117*
X13275Y14000*
X12858Y14117*
X12567Y14350*
X12317Y14700*
X12150Y15108*
X12067Y15575*
Y15983*
X12150Y16333*
X12317Y16742*
X12567Y17092*
X12817Y17325*
X13150Y17500*
X13442*
X13775Y17383*
X14025Y17150*
X14792Y14000D02*
G01Y17500D01*
X16708Y14000*
Y17500*
X17433Y14000D02*
G01Y17500D01*
X18267*
X18600Y17325*
X18850Y17092*
X19058Y16742*
X19225Y16333*
X19267Y15750*
X19225Y15167*
X19058Y14758*
X18850Y14408*
X18600Y14175*
X18267Y14000*
X17433*
X12950Y57500D02*
G01Y54000D01*
X11992Y57500D02*
G01X13908D01*
X14675Y54000D02*
G01X16425Y57500D01*
X14675D02*
G01X16425Y54000D01*
X17358Y56917D02*
G01X17608Y57267D01*
X17900Y57442*
X18233Y57500*
X18650Y57383*
X18942Y57092*
X19025Y56742*
X18983Y56392*
X18817Y56100*
X17983Y55517*
X17608Y55108*
X17358Y54525*
X17275Y54000*
X19025*
X12550Y47200D02*
G01X13550D01*
X13050D02*
G01Y43700D01*
X12550D02*
G01X13550D01*
X15650D02*
G01X15317Y43758D01*
X15025Y43992*
X14775Y44342*
X14608Y44750*
X14525Y45217*
Y45683*
X14608Y46150*
X14775Y46558*
X15025Y46908*
X15317Y47142*
X15650Y47200*
X15983Y47142*
X16275Y46908*
X16525Y46558*
X16692Y46150*
X16775Y45683*
Y45217*
X16692Y44750*
X16525Y44342*
X16275Y43992*
X15983Y43758*
X15650Y43700*
X18250D02*
G01Y47200D01*
X17750Y46500*
Y43700D02*
G01X18750D01*
X12017Y64100D02*
G01Y67600D01*
X13058*
X13392Y67425*
X13600Y67192*
X13683Y66725*
X13600Y66258*
X13350Y65967*
X13058Y65792*
X12017*
X13058D02*
G01X13683Y64100D01*
X14575D02*
G01X16325Y67600D01*
X14575D02*
G01X16325Y64100D01*
X17258Y67017D02*
G01X17508Y67367D01*
X17800Y67542*
X18133Y67600*
X18550Y67483*
X18842Y67192*
X18925Y66842*
X18883Y66492*
X18717Y66200*
X17883Y65617*
X17508Y65208*
X17258Y64625*
X17175Y64100*
X18925*
X13150Y74000D02*
G01Y70500D01*
X12192Y74000D02*
G01X14108D01*
X14875Y70500D02*
G01X16625Y74000D01*
X14875D02*
G01X16625Y70500D01*
X18350D02*
G01Y74000D01*
X17850Y73300*
Y70500D02*
G01X18850D01*
X12417Y75600D02*
G01Y79100D01*
X13458*
X13792Y78925*
X14000Y78692*
X14083Y78225*
X14000Y77758*
X13750Y77467*
X13458Y77292*
X12417*
X13458D02*
G01X14083Y75600D01*
X14975D02*
G01X16725Y79100D01*
X14975D02*
G01X16725Y75600D01*
X18450D02*
G01Y79100D01*
X17950Y78400*
Y75600D02*
G01X18950D01*
X13417Y173950D02*
G01X13625Y173600D01*
X13875Y173367*
X14167Y173250*
X14500Y173367*
X14750Y173600*
X15000Y173950*
X15083Y174417*
Y176750*
X16750Y173250D02*
G01Y176750D01*
X16250Y176050*
Y173250D02*
G01X17250D01*
X15300Y207950D02*
G01Y211450D01*
X14800Y210750*
Y207950D02*
G01X15800D01*
X33927Y43380D02*
G01X34260Y43088D01*
X34635Y42913*
X34969*
X35302Y43088*
X35552Y43380*
X35677Y43788*
X35594Y44197*
X35385Y44547*
X35010Y44780*
X34510Y44897*
X34219Y45130*
X34094Y45538*
X34177Y45947*
X34385Y46238*
X34677Y46413*
X34969*
X35260Y46297*
X35510Y46005*
X36152Y46413D02*
G01X36735Y42913D01*
X37402Y46413*
X38069Y42913*
X38652Y46413*
X40002Y42913D02*
G01Y46413D01*
X39502Y45713*
Y42913D02*
G01X40502D01*
X32600Y97000D02*
G01Y80000D01*
X45617Y81058D02*
G01X45367Y81233D01*
X45075Y81350*
X44742*
X44367Y81175*
X44075Y80883*
X43867Y80533*
X43700Y79950*
X43658Y79425*
X43742Y78900*
X43867Y78550*
X44117Y78200*
X44408Y77967*
X44700Y77850*
X44992*
X45283Y77967*
X45533Y78142*
X45742Y78375*
X47300Y77850D02*
G01Y81350D01*
X46800Y80650*
Y77850D02*
G01X47800D01*
X49817D02*
G01X49900Y78608D01*
X50025Y79250*
X50192Y79833*
X50400Y80475*
X50733Y81350*
X49067*
X49967Y186258D02*
G01X49717Y186433D01*
X49425Y186550*
X49092*
X48717Y186375*
X48425Y186083*
X48217Y185733*
X48050Y185150*
X48008Y184625*
X48092Y184100*
X48217Y183750*
X48467Y183400*
X48758Y183167*
X49050Y183050*
X49342*
X49633Y183167*
X49883Y183342*
X50092Y183575*
X51550Y183050D02*
G01X51842Y183108D01*
X52175Y183283*
X52383Y183575*
X52467Y183983*
X52383Y184392*
X52133Y184742*
X51758Y184917*
X51342*
X51092Y185033*
X50883Y185325*
X50800Y185733*
X50925Y186142*
X51217Y186433*
X51550Y186550*
X51883Y186433*
X52175Y186142*
X52300Y185733*
X52217Y185325*
X52008Y185033*
X51758Y184917*
X51342*
X50967Y184742*
X50717Y184392*
X50633Y183983*
X50717Y183575*
X50925Y183283*
X51258Y183108*
X51550Y183050*
X50067Y192158D02*
G01X49817Y192333D01*
X49525Y192450*
X49192*
X48817Y192275*
X48525Y191983*
X48317Y191633*
X48150Y191050*
X48108Y190525*
X48192Y190000*
X48317Y189650*
X48567Y189300*
X48858Y189067*
X49150Y188950*
X49442*
X49733Y189067*
X49983Y189242*
X50192Y189475*
X51567Y188950D02*
G01X51650Y189708D01*
X51775Y190350*
X51942Y190933*
X52150Y191575*
X52483Y192450*
X50817*
X79339Y43380D02*
G01X79672Y43088D01*
X80047Y42913*
X80380*
X80714Y43088*
X80964Y43380*
X81089Y43788*
X81006Y44197*
X80797Y44547*
X80422Y44780*
X79922Y44897*
X79630Y45130*
X79505Y45538*
X79589Y45947*
X79797Y46238*
X80089Y46413*
X80380*
X80672Y46297*
X80922Y46005*
X81564Y46413D02*
G01X82147Y42913D01*
X82814Y46413*
X83480Y42913*
X84064Y46413*
X84622Y45830D02*
G01X84872Y46180D01*
X85164Y46355*
X85497Y46413*
X85914Y46297*
X86206Y46005*
X86289Y45655*
X86247Y45305*
X86080Y45013*
X85247Y44430*
X84872Y44022*
X84622Y43438*
X84539Y42913*
X86289*
X66583Y104850D02*
G01Y102342D01*
X66750Y101817*
X67083Y101467*
X67500Y101350*
X67917Y101467*
X68250Y101817*
X68417Y102342*
Y104850*
X69183Y102050D02*
G01X69433Y101642D01*
X69767Y101408*
X70142Y101350*
X70475Y101408*
X70808Y101700*
X71017Y102050*
X71058Y102400*
X70975Y102808*
X70683Y103100*
X70392Y103217*
X70017*
X70392D02*
G01X70642Y103392D01*
X70850Y103683*
X70933Y104033*
X70850Y104383*
X70642Y104675*
X70267Y104850*
X69892Y104792*
X69517Y104558*
X65583Y88650D02*
G01Y92150D01*
X66417*
X66750Y91975*
X67000Y91742*
X67208Y91392*
X67375Y90983*
X67417Y90400*
X67375Y89817*
X67208Y89408*
X67000Y89058*
X66750Y88825*
X66417Y88650*
X65583*
X69100D02*
G01Y92150D01*
X68600Y91450*
Y88650D02*
G01X69600D01*
X70617Y174450D02*
G01Y177950D01*
X71658*
X71992Y177775*
X72200Y177542*
X72283Y177075*
X72200Y176608*
X71950Y176317*
X71658Y176142*
X70617*
X71658D02*
G01X72283Y174450D01*
X73950D02*
G01Y177950D01*
X73450Y177250*
Y174450D02*
G01X74450D01*
X69617Y183758D02*
G01X69367Y183933D01*
X69075Y184050*
X68742*
X68367Y183875*
X68075Y183583*
X67867Y183233*
X67700Y182650*
X67658Y182125*
X67742Y181600*
X67867Y181250*
X68117Y180900*
X68408Y180667*
X68700Y180550*
X68992*
X69283Y180667*
X69533Y180842*
X69742Y181075*
X71200Y180550D02*
G01Y184050D01*
X70700Y183350*
Y180550D02*
G01X71700D01*
X72783Y181250D02*
G01X73033Y180842D01*
X73367Y180608*
X73742Y180550*
X74075Y180608*
X74408Y180900*
X74617Y181250*
X74658Y181600*
X74575Y182008*
X74283Y182300*
X73992Y182417*
X73617*
X73992D02*
G01X74242Y182592D01*
X74450Y182883*
X74533Y183233*
X74450Y183583*
X74242Y183875*
X73867Y184050*
X73492Y183992*
X73117Y183758*
X72267Y171758D02*
G01X72017Y171933D01*
X71725Y172050*
X71392*
X71017Y171875*
X70725Y171583*
X70517Y171233*
X70350Y170650*
X70308Y170125*
X70392Y169600*
X70517Y169250*
X70767Y168900*
X71058Y168667*
X71350Y168550*
X71642*
X71933Y168667*
X72183Y168842*
X72392Y169075*
X72933Y169250D02*
G01X73183Y168842D01*
X73517Y168608*
X73892Y168550*
X74225Y168608*
X74558Y168900*
X74767Y169250*
X74808Y169600*
X74725Y170008*
X74433Y170300*
X74142Y170417*
X73767*
X74142D02*
G01X74392Y170592D01*
X74600Y170883*
X74683Y171233*
X74600Y171583*
X74392Y171875*
X74017Y172050*
X73642Y171992*
X73267Y171758*
X79717Y189250D02*
G01Y192750D01*
X80758*
X81092Y192575*
X81300Y192342*
X81383Y191875*
X81300Y191408*
X81050Y191117*
X80758Y190942*
X79717*
X80758D02*
G01X81383Y189250D01*
X82258Y192167D02*
G01X82508Y192517D01*
X82800Y192692*
X83133Y192750*
X83550Y192633*
X83842Y192342*
X83925Y191992*
X83883Y191642*
X83717Y191350*
X82883Y190767*
X82508Y190358*
X82258Y189775*
X82175Y189250*
X83925*
X103683Y89050D02*
G01Y92550D01*
X104517*
X104850Y92375*
X105100Y92142*
X105308Y91792*
X105475Y91383*
X105517Y90800*
X105475Y90217*
X105308Y89808*
X105100Y89458*
X104850Y89225*
X104517Y89050*
X103683*
X106283Y89575D02*
G01X106533Y89283D01*
X106825Y89108*
X107200Y89050*
X107575Y89167*
X107867Y89400*
X108075Y89808*
X108117Y90275*
X108033Y90742*
X107825Y91033*
X107533Y91267*
X107242Y91325*
X106950Y91267*
X106575Y91033*
X106700Y92550*
X107825*
X91167Y199658D02*
G01X90917Y199833D01*
X90625Y199950*
X90292*
X89917Y199775*
X89625Y199483*
X89417Y199133*
X89250Y198550*
X89208Y198025*
X89292Y197500*
X89417Y197150*
X89667Y196800*
X89958Y196567*
X90250Y196450*
X90542*
X90833Y196567*
X91083Y196742*
X91292Y196975*
X92750Y196450D02*
G01Y199950D01*
X92250Y199250*
Y196450D02*
G01X93250D01*
X96967Y199558D02*
G01X96717Y199733D01*
X96425Y199850*
X96092*
X95717Y199675*
X95425Y199383*
X95217Y199033*
X95050Y198450*
X95008Y197925*
X95092Y197400*
X95217Y197050*
X95467Y196700*
X95758Y196467*
X96050Y196350*
X96342*
X96633Y196467*
X96883Y196642*
X97092Y196875*
X97758Y199267D02*
G01X98008Y199617D01*
X98300Y199792*
X98633Y199850*
X99050Y199733*
X99342Y199442*
X99425Y199092*
X99383Y198742*
X99217Y198450*
X98383Y197867*
X98008Y197458*
X97758Y196875*
X97675Y196350*
X99425*
X124751Y43380D02*
G01X125084Y43088D01*
X125459Y42913*
X125792*
X126126Y43088*
X126376Y43380*
X126501Y43788*
X126417Y44197*
X126209Y44547*
X125834Y44780*
X125334Y44897*
X125042Y45130*
X124917Y45538*
X125001Y45947*
X125209Y46238*
X125501Y46413*
X125792*
X126084Y46297*
X126334Y46005*
X126976Y46413D02*
G01X127559Y42913D01*
X128226Y46413*
X128892Y42913*
X129476Y46413*
X129909Y43613D02*
G01X130159Y43205D01*
X130492Y42972*
X130867Y42913*
X131201Y42972*
X131534Y43263*
X131742Y43613*
X131784Y43963*
X131701Y44372*
X131409Y44663*
X131117Y44780*
X130742*
X131117D02*
G01X131367Y44955D01*
X131576Y45247*
X131659Y45597*
X131576Y45947*
X131367Y46238*
X130992Y46413*
X130617Y46355*
X130242Y46122*
X115583Y185950D02*
G01Y189450D01*
X116417*
X116750Y189275*
X117000Y189042*
X117208Y188692*
X117375Y188283*
X117417Y187700*
X117375Y187117*
X117208Y186708*
X117000Y186358*
X116750Y186125*
X116417Y185950*
X115583*
X119850D02*
G01Y188283D01*
Y187875D02*
G01X119683Y188108D01*
X119433Y188225*
X119142Y188283*
X118850Y188167*
X118600Y187933*
X118433Y187583*
X118350Y187117*
X118433Y186650*
X118600Y186300*
X118850Y186067*
X119142Y185950*
X119433Y186008*
X119683Y186183*
X119850Y186417*
X121700Y189450D02*
G01Y185950D01*
X121117Y188283D02*
G01X122283D01*
X123675Y187525D02*
G01X125008D01*
X124883Y187933*
X124675Y188167*
X124383Y188283*
X124092Y188225*
X123842Y188050*
X123675Y187642*
X123592Y187292*
Y186942*
X123675Y186592*
X123883Y186242*
X124133Y186008*
X124425Y185950*
X124717Y186067*
X125008Y186417*
X121583Y179550D02*
G01Y183050D01*
X122417*
X122750Y182875*
X123000Y182642*
X123208Y182292*
X123375Y181883*
X123417Y181300*
X123375Y180717*
X123208Y180308*
X123000Y179958*
X122750Y179725*
X122417Y179550*
X121583*
X124475Y181125D02*
G01X125808D01*
X125683Y181533*
X125475Y181767*
X125183Y181883*
X124892Y181825*
X124642Y181650*
X124475Y181242*
X124392Y180892*
Y180542*
X124475Y180192*
X124683Y179842*
X124933Y179608*
X125225Y179550*
X125517Y179667*
X125808Y180017*
X127075Y179958D02*
G01X127283Y179725D01*
X127575Y179550*
X127825*
X128075Y179667*
X128242Y179842*
X128325Y180075*
X128283Y180425*
X128117Y180600*
X127367Y180950*
X127200Y181358*
X127283Y181650*
X127450Y181825*
X127700Y181883*
X127950Y181825*
X128200Y181650*
X130300Y181883D02*
G01Y179550D01*
Y182817D02*
G01X130217Y182875D01*
Y182992*
X130300Y183050*
X130383Y182992*
Y182875*
X130300Y182817*
X132317Y178675D02*
G01X132608Y178442D01*
X132942Y178383*
X133233Y178442*
X133483Y178733*
X133650Y179142*
Y181883*
Y181417D02*
G01X133483Y181650D01*
X133233Y181825*
X132942Y181883*
X132608Y181767*
X132400Y181533*
X132233Y181125*
X132150Y180717*
X132192Y180367*
X132358Y179958*
X132608Y179667*
X132942Y179550*
X133192Y179608*
X133483Y179842*
X133650Y180075*
X134792Y179550D02*
G01Y181883D01*
Y181300D02*
G01X134958Y181592D01*
X135208Y181825*
X135542Y181883*
X135833Y181825*
X136083Y181592*
X136208Y181183*
Y179550*
X137475Y181125D02*
G01X138808D01*
X138683Y181533*
X138475Y181767*
X138183Y181883*
X137892Y181825*
X137642Y181650*
X137475Y181242*
X137392Y180892*
Y180542*
X137475Y180192*
X137683Y179842*
X137933Y179608*
X138225Y179550*
X138517Y179667*
X138808Y180017*
X141450Y183050D02*
G01Y179550D01*
Y180075D02*
G01X141283Y179783D01*
X141033Y179608*
X140742Y179550*
X140408Y179667*
X140158Y179958*
X139992Y180308*
X139950Y180717*
X139992Y181125*
X140158Y181475*
X140408Y181767*
X140742Y181883*
X141033Y181825*
X141242Y181708*
X141450Y181475*
X145150Y179550D02*
G01Y183050D01*
Y181300D02*
G01X145358Y181650D01*
X145608Y181825*
X145858Y181883*
X146233Y181767*
X146483Y181533*
X146650Y181125*
Y180658*
X146567Y180192*
X146400Y179842*
X146108Y179608*
X145858Y179550*
X145608Y179608*
X145358Y179783*
X145150Y180075*
X147625Y178500D02*
G01X147875Y178383D01*
X148208Y178500*
X148417Y178733*
X148583Y179025*
X148833Y179958*
X149375Y181883*
X148042D02*
G01X148833Y179958D01*
X152825Y179550D02*
G01Y183050D01*
X154575D02*
G01Y179550D01*
Y181300D02*
G01X152825D01*
X156300Y183050D02*
G01Y179550D01*
X155342Y183050D02*
G01X157258D01*
X158067Y179550D02*
G01Y183050D01*
X159108*
X159442Y182875*
X159650Y182642*
X159733Y182175*
X159650Y181708*
X159400Y181417*
X159108Y181242*
X158067*
X159108D02*
G01X159733Y179550D01*
X115742Y198750D02*
G01Y202250D01*
X117658Y198750*
Y202250*
X120050Y198750D02*
G01Y201083D01*
Y200675D02*
G01X119883Y200908D01*
X119633Y201025*
X119342Y201083*
X119050Y200967*
X118800Y200733*
X118633Y200383*
X118550Y199917*
X118633Y199450*
X118800Y199100*
X119050Y198867*
X119342Y198750*
X119633Y198808*
X119883Y198983*
X120050Y199217*
X120650Y198750D02*
G01Y201083D01*
Y200442D02*
G01X120775Y200733D01*
X120983Y200967*
X121275Y201083*
X121567Y200967*
X121775Y200733*
X121900Y200442*
Y198750*
Y200442D02*
G01X122025Y200733D01*
X122233Y200967*
X122525Y201083*
X122817Y200967*
X123025Y200733*
X123150Y200383*
Y198750*
X123875Y200325D02*
G01X125208D01*
X125083Y200733*
X124875Y200967*
X124583Y201083*
X124292Y201025*
X124042Y200850*
X123875Y200442*
X123792Y200092*
Y199742*
X123875Y199392*
X124083Y199042*
X124333Y198808*
X124625Y198750*
X124917Y198867*
X125208Y199217*
X115358Y195850D02*
G01X116400Y192350D01*
X117442Y195850*
X118375Y193925D02*
G01X119708D01*
X119583Y194333*
X119375Y194567*
X119083Y194683*
X118792Y194625*
X118542Y194450*
X118375Y194042*
X118292Y193692*
Y193342*
X118375Y192992*
X118583Y192642*
X118833Y192408*
X119125Y192350*
X119417Y192467*
X119708Y192817*
X121017Y192350D02*
G01Y194683D01*
Y194217D02*
G01X121225Y194450D01*
X121433Y194625*
X121725Y194683*
X121933Y194625*
X122183Y194450*
X123575Y192758D02*
G01X123783Y192525D01*
X124075Y192350*
X124325*
X124575Y192467*
X124742Y192642*
X124825Y192875*
X124783Y193225*
X124617Y193400*
X123867Y193750*
X123700Y194158*
X123783Y194450*
X123950Y194625*
X124200Y194683*
X124450Y194625*
X124700Y194450*
X126800Y194683D02*
G01Y192350D01*
Y195617D02*
G01X126717Y195675D01*
Y195792*
X126800Y195850*
X126883Y195792*
Y195675*
X126800Y195617*
X129400Y192350D02*
G01X129150Y192408D01*
X128900Y192642*
X128733Y193050*
X128650Y193517*
X128733Y193983*
X128900Y194392*
X129150Y194625*
X129400Y194683*
X129650Y194625*
X129900Y194392*
X130067Y193983*
X130108Y193517*
X130067Y193050*
X129900Y192642*
X129650Y192408*
X129400Y192350*
X131292D02*
G01Y194683D01*
Y194100D02*
G01X131458Y194392D01*
X131708Y194625*
X132042Y194683*
X132333Y194625*
X132583Y194392*
X132708Y193983*
Y192350*
X139583Y88950D02*
G01Y92450D01*
X140417*
X140750Y92275*
X141000Y92042*
X141208Y91692*
X141375Y91283*
X141417Y90700*
X141375Y90117*
X141208Y89708*
X141000Y89358*
X140750Y89125*
X140417Y88950*
X139583*
X143600D02*
G01Y92450D01*
X142058Y89942*
X144142*
X138000Y185950D02*
G01Y189450D01*
X137500Y188750*
Y185950D02*
G01X138500D01*
X140600Y189450D02*
G01X140267Y189333D01*
X140017Y189042*
X139850Y188692*
X139725Y188225*
X139683Y187700*
X139725Y187175*
X139850Y186708*
X140017Y186358*
X140267Y186067*
X140600Y185950*
X140933Y186067*
X141183Y186358*
X141350Y186708*
X141475Y187175*
X141517Y187700*
X141475Y188225*
X141350Y188692*
X141183Y189042*
X140933Y189333*
X140600Y189450*
X142450Y185833D02*
G01X143950Y189450D01*
X145008Y188867D02*
G01X145258Y189217D01*
X145550Y189392*
X145883Y189450*
X146300Y189333*
X146592Y189042*
X146675Y188692*
X146633Y188342*
X146467Y188050*
X145633Y187467*
X145258Y187058*
X145008Y186475*
X144925Y185950*
X146675*
X148400Y189450D02*
G01X148067Y189333D01*
X147817Y189042*
X147650Y188692*
X147525Y188225*
X147483Y187700*
X147525Y187175*
X147650Y186708*
X147817Y186358*
X148067Y186067*
X148400Y185950*
X148733Y186067*
X148983Y186358*
X149150Y186708*
X149275Y187175*
X149317Y187700*
X149275Y188225*
X149150Y188692*
X148983Y189042*
X148733Y189333*
X148400Y189450*
X150208Y188867D02*
G01X150458Y189217D01*
X150750Y189392*
X151083Y189450*
X151500Y189333*
X151792Y189042*
X151875Y188692*
X151833Y188342*
X151667Y188050*
X150833Y187467*
X150458Y187058*
X150208Y186475*
X150125Y185950*
X151875*
X152683Y186475D02*
G01X152933Y186183D01*
X153225Y186008*
X153600Y185950*
X153975Y186067*
X154267Y186300*
X154475Y186708*
X154517Y187175*
X154433Y187642*
X154225Y187933*
X153933Y188167*
X153642Y188225*
X153350Y188167*
X152975Y187933*
X153100Y189450*
X154225*
X136317Y198450D02*
G01Y201950D01*
X137400Y199033*
X138483Y201950*
Y198450*
X138958D02*
G01X140000Y201950D01*
X141042Y198450*
X140667Y199675D02*
G01X139333D01*
X142100Y201950D02*
G01X143100D01*
X142600D02*
G01Y198450D01*
X142100D02*
G01X143100D01*
X144242D02*
G01Y201950D01*
X146158Y198450*
Y201950*
X149358Y198450D02*
G01X150400Y201950D01*
X151442Y198450*
X151067Y199675D02*
G01X149733D01*
X153917Y201658D02*
G01X153667Y201833D01*
X153375Y201950*
X153042*
X152667Y201775*
X152375Y201483*
X152167Y201133*
X152000Y200550*
X151958Y200025*
X152042Y199500*
X152167Y199150*
X152417Y198800*
X152708Y198567*
X153000Y198450*
X153292*
X153583Y198567*
X153833Y198742*
X154042Y198975*
X159117Y201658D02*
G01X158867Y201833D01*
X158575Y201950*
X158242*
X157867Y201775*
X157575Y201483*
X157367Y201133*
X157200Y200550*
X157158Y200025*
X157242Y199500*
X157367Y199150*
X157617Y198800*
X157908Y198567*
X158200Y198450*
X158492*
X158783Y198567*
X159033Y198742*
X159242Y198975*
X160800Y201950D02*
G01Y198450D01*
X159842Y201950D02*
G01X161758D01*
X162567Y198450D02*
G01Y201950D01*
X163608*
X163942Y201775*
X164150Y201542*
X164233Y201075*
X164150Y200608*
X163900Y200317*
X163608Y200142*
X162567*
X163608D02*
G01X164233Y198450D01*
X165167Y201950D02*
G01Y198450D01*
X166833*
X136625Y192250D02*
G01Y195750D01*
X138375D02*
G01Y192250D01*
Y194000D02*
G01X136625D01*
X139058Y194583D02*
G01X139558Y192250D01*
X140100Y194583*
X140642Y192250*
X141142Y194583*
X142700Y195750D02*
G01X142367Y195633D01*
X142117Y195342*
X141950Y194992*
X141825Y194525*
X141783Y194000*
X141825Y193475*
X141950Y193008*
X142117Y192658*
X142367Y192367*
X142700Y192250*
X143033Y192367*
X143283Y192658*
X143450Y193008*
X143575Y193475*
X143617Y194000*
X143575Y194525*
X143450Y194992*
X143283Y195342*
X143033Y195633*
X142700Y195750*
X145300Y192250D02*
G01Y195750D01*
X144800Y195050*
Y192250D02*
G01X145800D01*
X170162Y43380D02*
G01X170496Y43088D01*
X170871Y42913*
X171204*
X171537Y43088*
X171787Y43380*
X171912Y43788*
X171829Y44197*
X171621Y44547*
X171246Y44780*
X170746Y44897*
X170454Y45130*
X170329Y45538*
X170412Y45947*
X170621Y46238*
X170912Y46413*
X171204*
X171496Y46297*
X171746Y46005*
X172387Y46413D02*
G01X172971Y42913D01*
X173637Y46413*
X174304Y42913*
X174887Y46413*
X176737Y42913D02*
G01Y46413D01*
X175196Y43905*
X177279*
X177083Y88750D02*
G01Y92250D01*
X177917*
X178250Y92075*
X178500Y91842*
X178708Y91492*
X178875Y91083*
X178917Y90500*
X178875Y89917*
X178708Y89508*
X178500Y89158*
X178250Y88925*
X177917Y88750*
X177083*
X179683Y89450D02*
G01X179933Y89042D01*
X180267Y88808*
X180642Y88750*
X180975Y88808*
X181308Y89100*
X181517Y89450*
X181558Y89800*
X181475Y90208*
X181183Y90500*
X180892Y90617*
X180517*
X180892D02*
G01X181142Y90792D01*
X181350Y91083*
X181433Y91433*
X181350Y91783*
X181142Y92075*
X180767Y92250*
X180392Y92192*
X180017Y91958*
X181783Y169450D02*
G01Y166942D01*
X181950Y166417*
X182283Y166067*
X182700Y165950*
X183117Y166067*
X183450Y166417*
X183617Y166942*
Y169450*
X185800Y165950D02*
G01Y169450D01*
X184258Y166942*
X186342*
X195733Y129250D02*
G01Y126742D01*
X195900Y126217*
X196233Y125867*
X196650Y125750*
X197067Y125867*
X197400Y126217*
X197567Y126742*
Y129250*
X198233Y126275D02*
G01X198483Y125983D01*
X198775Y125808*
X199150Y125750*
X199525Y125867*
X199817Y126100*
X200025Y126508*
X200067Y126975*
X199983Y127442*
X199775Y127733*
X199483Y127967*
X199192Y128025*
X198900Y127967*
X198525Y127733*
X198650Y129250*
X199775*
X204380Y138506D02*
G01X201906Y140980D01*
X202642Y141717*
X203002Y141829*
X203314Y141811*
X203703Y141540*
X203974Y141151*
X204003Y140768*
X203921Y140438*
X203184Y139702*
X203921Y140438D02*
G01X205559Y139684D01*
X205594Y140709D02*
G01X206060Y140597D01*
X206461Y140668*
X206767Y140892*
X206961Y141169*
X206991Y141611*
X206891Y142006*
X206673Y142283*
X206325Y142512*
X205913*
X205624Y142389*
X205359Y142124*
X205624Y142389D02*
G01X205677Y142689D01*
X205618Y143043*
X205429Y143349*
X205123Y143538*
X204769Y143597*
X204381Y143455*
X204157Y143149*
X204056Y142719*
X207486Y142353D02*
G01X207869Y142324D01*
X208199Y142406*
X208505Y142630*
X208688Y142978*
X208729Y143349*
X208588Y143785*
X208287Y144145*
X207898Y144416*
X207545Y144475*
X207174Y144433*
X206926Y144268*
X206761Y144021*
X206661Y143591*
X205677Y144752*
X206472Y145547*
X200250Y154367D02*
G01X196750D01*
Y155408*
X196925Y155742*
X197158Y155950*
X197625Y156033*
X198092Y155950*
X198383Y155700*
X198558Y155408*
Y154367*
Y155408D02*
G01X200250Y156033D01*
X199550Y156783D02*
G01X199958Y157033D01*
X200192Y157367*
X200250Y157742*
X200192Y158075*
X199900Y158408*
X199550Y158617*
X199200Y158658*
X198792Y158575*
X198500Y158283*
X198383Y157992*
Y157617*
Y157992D02*
G01X198208Y158242D01*
X197917Y158450*
X197567Y158533*
X197217Y158450*
X196925Y158242*
X196750Y157867*
X196808Y157492*
X197042Y157117*
X199842Y159492D02*
G01X200133Y159783D01*
X200250Y160117*
X200133Y160450*
X199783Y160742*
X199258Y160950*
X198733Y161033*
X198092*
X197567Y160950*
X197100Y160742*
X196867Y160492*
X196750Y160200*
X196867Y159867*
X197100Y159617*
X197450Y159450*
X197917Y159367*
X198325Y159450*
X198733Y159658*
X198967Y159908*
X199025Y160200*
X198908Y160533*
X198617Y160783*
X198092Y161033*
X195450Y154367D02*
G01X191950D01*
Y155408*
X192125Y155742*
X192358Y155950*
X192825Y156033*
X193292Y155950*
X193583Y155700*
X193758Y155408*
Y154367*
Y155408D02*
G01X195450Y156033D01*
X194750Y156783D02*
G01X195158Y157033D01*
X195392Y157367*
X195450Y157742*
X195392Y158075*
X195100Y158408*
X194750Y158617*
X194400Y158658*
X193992Y158575*
X193700Y158283*
X193583Y157992*
Y157617*
Y157992D02*
G01X193408Y158242D01*
X193117Y158450*
X192767Y158533*
X192417Y158450*
X192125Y158242*
X191950Y157867*
X192008Y157492*
X192242Y157117*
X195450Y160700D02*
G01X191950D01*
X194458Y159158*
Y161242*
X195292Y196367D02*
G01X195117Y196117D01*
X195000Y195825*
Y195492*
X195175Y195117*
X195467Y194825*
X195817Y194617*
X196400Y194450*
X196925Y194408*
X197450Y194492*
X197800Y194617*
X198150Y194867*
X198383Y195158*
X198500Y195450*
Y195742*
X198383Y196033*
X198208Y196283*
X197975Y196492*
X195583Y197158D02*
G01X195233Y197408D01*
X195058Y197700*
X195000Y198033*
X195117Y198450*
X195408Y198742*
X195758Y198825*
X196108Y198783*
X196400Y198617*
X196983Y197783*
X197392Y197408*
X197975Y197158*
X198500Y197075*
Y198825*
X197800Y199533D02*
G01X198208Y199783D01*
X198442Y200117*
X198500Y200492*
X198442Y200825*
X198150Y201158*
X197800Y201367*
X197450Y201408*
X197042Y201325*
X196750Y201033*
X196633Y200742*
Y200367*
Y200742D02*
G01X196458Y200992D01*
X196167Y201200*
X195817Y201283*
X195467Y201200*
X195175Y200992*
X195000Y200617*
X195058Y200242*
X195292Y199867*
X189292Y196367D02*
G01X189117Y196117D01*
X189000Y195825*
Y195492*
X189175Y195117*
X189467Y194825*
X189817Y194617*
X190400Y194450*
X190925Y194408*
X191450Y194492*
X191800Y194617*
X192150Y194867*
X192383Y195158*
X192500Y195450*
Y195742*
X192383Y196033*
X192208Y196283*
X191975Y196492*
X189583Y197158D02*
G01X189233Y197408D01*
X189058Y197700*
X189000Y198033*
X189117Y198450*
X189408Y198742*
X189758Y198825*
X190108Y198783*
X190400Y198617*
X190983Y197783*
X191392Y197408*
X191975Y197158*
X192500Y197075*
Y198825*
Y200950D02*
G01X189000D01*
X191508Y199408*
Y201492*
X183292Y196367D02*
G01X183117Y196117D01*
X183000Y195825*
Y195492*
X183175Y195117*
X183467Y194825*
X183817Y194617*
X184400Y194450*
X184925Y194408*
X185450Y194492*
X185800Y194617*
X186150Y194867*
X186383Y195158*
X186500Y195450*
Y195742*
X186383Y196033*
X186208Y196283*
X185975Y196492*
X183583Y197158D02*
G01X183233Y197408D01*
X183058Y197700*
X183000Y198033*
X183117Y198450*
X183408Y198742*
X183758Y198825*
X184108Y198783*
X184400Y198617*
X184983Y197783*
X185392Y197408*
X185975Y197158*
X186500Y197075*
Y198825*
X185975Y199533D02*
G01X186267Y199783D01*
X186442Y200075*
X186500Y200450*
X186383Y200825*
X186150Y201117*
X185742Y201325*
X185275Y201367*
X184808Y201283*
X184517Y201075*
X184283Y200783*
X184225Y200492*
X184283Y200200*
X184517Y199825*
X183000Y199950*
Y201075*
X215574Y43380D02*
G01X215908Y43088D01*
X216282Y42913*
X216616*
X216949Y43088*
X217199Y43380*
X217324Y43788*
X217241Y44197*
X217032Y44547*
X216658Y44780*
X216158Y44897*
X215866Y45130*
X215741Y45538*
X215824Y45947*
X216032Y46238*
X216324Y46413*
X216616*
X216908Y46297*
X217158Y46005*
X217799Y46413D02*
G01X218382Y42913D01*
X219049Y46413*
X219716Y42913*
X220299Y46413*
X220732Y43438D02*
G01X220982Y43147D01*
X221274Y42972*
X221649Y42913*
X222024Y43030*
X222316Y43263*
X222524Y43672*
X222566Y44138*
X222482Y44605*
X222274Y44897*
X221982Y45130*
X221691Y45188*
X221399Y45130*
X221024Y44897*
X221149Y46413*
X222274*
X213983Y88350D02*
G01Y91850D01*
X214817*
X215150Y91675*
X215400Y91442*
X215608Y91092*
X215775Y90683*
X215817Y90100*
X215775Y89517*
X215608Y89108*
X215400Y88758*
X215150Y88525*
X214817Y88350*
X213983*
X216708Y91267D02*
G01X216958Y91617D01*
X217250Y91792*
X217583Y91850*
X218000Y91733*
X218292Y91442*
X218375Y91092*
X218333Y90742*
X218167Y90450*
X217333Y89867*
X216958Y89458*
X216708Y88875*
X216625Y88350*
X218375*
X230200Y99350D02*
G01Y100925D01*
X229367Y102850*
X231033D02*
G01X230200Y100925D01*
X232800Y99350D02*
G01Y102850D01*
X232300Y102150*
Y99350D02*
G01X233300D01*
X235700Y108900D02*
G01X231100D01*
X235700Y109000D02*
G01X231100D01*
X235700Y109200D02*
G01X231100D01*
X235700Y109500D02*
G01X231100D01*
X235700Y109700D02*
G01X231100D01*
X235700Y110000D02*
G01X231100D01*
X235700Y110300D02*
G01X231100D01*
X235900Y107500D02*
G01X231100D01*
X228200Y107000D02*
G01X228900D01*
Y113400D02*
G01Y105900D01*
X230100Y104700*
X252800*
Y114500*
X230000*
X228900Y113400*
X224167Y125850D02*
G01X224375Y125500D01*
X224625Y125267*
X224917Y125150*
X225250Y125267*
X225500Y125500*
X225750Y125850*
X225833Y126317*
Y128650*
X226683Y125850D02*
G01X226933Y125442D01*
X227267Y125208*
X227642Y125150*
X227975Y125208*
X228308Y125500*
X228517Y125850*
X228558Y126200*
X228475Y126608*
X228183Y126900*
X227892Y127017*
X227517*
X227892D02*
G01X228142Y127192D01*
X228350Y127483*
X228433Y127833*
X228350Y128183*
X228142Y128475*
X227767Y128650*
X227392Y128592*
X227017Y128358*
X233600Y111700D02*
G01X231100D01*
X228100Y112200D02*
G01X228900D01*
X226350Y132650D02*
G01X226017Y132708D01*
X225725Y132942*
X225475Y133292*
X225308Y133700*
X225225Y134167*
Y134633*
X225308Y135100*
X225475Y135508*
X225725Y135858*
X226017Y136092*
X226350Y136150*
X226683Y136092*
X226975Y135858*
X227225Y135508*
X227392Y135100*
X227475Y134633*
Y134167*
X227392Y133700*
X227225Y133292*
X226975Y132942*
X226683Y132708*
X226350Y132650*
X226683Y133583D02*
G01X227183Y132650D01*
X228058Y134108D02*
G01X228350Y134517D01*
X228600Y134750*
X228933Y134867*
X229225Y134750*
X229433Y134517*
X229600Y134167*
X229642Y133758*
X229600Y133408*
X229433Y133058*
X229183Y132767*
X228892Y132650*
X228558Y132767*
X228267Y133117*
X228100Y133642*
X228058Y134225*
X228142Y134983*
X228267Y135392*
X228475Y135800*
X228767Y136092*
X229058Y136150*
X229350Y136033*
X229558Y135742*
X211867Y131850D02*
G01Y135350D01*
X212908*
X213242Y135175*
X213450Y134942*
X213533Y134475*
X213450Y134008*
X213200Y133717*
X212908Y133542*
X211867*
X212908D02*
G01X213533Y131850D01*
X214283Y132550D02*
G01X214533Y132142D01*
X214867Y131908*
X215242Y131850*
X215575Y131908*
X215908Y132200*
X216117Y132550*
X216158Y132900*
X216075Y133308*
X215783Y133600*
X215492Y133717*
X215117*
X215492D02*
G01X215742Y133892D01*
X215950Y134183*
X216033Y134533*
X215950Y134883*
X215742Y135175*
X215367Y135350*
X214992Y135292*
X214617Y135058*
X216908Y133308D02*
G01X217200Y133717D01*
X217450Y133950*
X217783Y134067*
X218075Y133950*
X218283Y133717*
X218450Y133367*
X218492Y132958*
X218450Y132608*
X218283Y132258*
X218033Y131967*
X217742Y131850*
X217408Y131967*
X217117Y132317*
X216950Y132842*
X216908Y133425*
X216992Y134183*
X217117Y134592*
X217325Y135000*
X217617Y135292*
X217908Y135350*
X218200Y135233*
X218408Y134942*
X232133Y189017D02*
G01X232300Y189192D01*
X232425Y189483*
X232508Y189892*
X232425Y190242*
X232258Y190475*
X231967Y190650*
X230842*
Y187150*
X232217*
X232508Y187383*
X232675Y187733*
X232758Y188142*
X232675Y188550*
X232425Y188900*
X232133Y189017*
X230842*
X234400Y187150D02*
G01Y190650D01*
X233900Y189950*
Y187150D02*
G01X234900D01*
X233600Y107500D02*
G01Y106300D01*
X237783Y117642D02*
G01Y118642D01*
X237025Y118100D02*
G01X238542D01*
X237058Y130017D02*
G01X238142D01*
X233600Y113300D02*
G01Y111700D01*
X235900*
X238933Y134450D02*
G01Y137950D01*
X239767*
X240100Y137775*
X240350Y137542*
X240558Y137192*
X240725Y136783*
X240767Y136200*
X240725Y135617*
X240558Y135208*
X240350Y134858*
X240100Y134625*
X239767Y134450*
X238933*
X241558Y135908D02*
G01X241850Y136317D01*
X242100Y136550*
X242433Y136667*
X242725Y136550*
X242933Y136317*
X243100Y135967*
X243142Y135558*
X243100Y135208*
X242933Y134858*
X242683Y134567*
X242392Y134450*
X242058Y134567*
X241767Y134917*
X241600Y135442*
X241558Y136025*
X241642Y136783*
X241767Y137192*
X241975Y137600*
X242267Y137892*
X242558Y137950*
X242850Y137833*
X243058Y137542*
X244100Y127950D02*
G01X240600D01*
X241300Y127450*
X244100D02*
G01Y128450D01*
X242000Y150300D02*
G01X239600Y147900D01*
X237100Y150400*
X242000*
X239600Y153000D02*
G01Y145600D01*
X243192Y206942D02*
G01X243483Y207233D01*
X243600Y207567*
X243483Y207900*
X243133Y208192*
X242608Y208400*
X242083Y208483*
X241442*
X240917Y208400*
X240450Y208192*
X240217Y207942*
X240100Y207650*
X240217Y207317*
X240450Y207067*
X240800Y206900*
X241267Y206817*
X241675Y206900*
X242083Y207108*
X242317Y207358*
X242375Y207650*
X242258Y207983*
X241967Y208233*
X241442Y208483*
X239217Y200200D02*
G01X239425Y199850D01*
X239675Y199617*
X239967Y199500*
X240300Y199617*
X240550Y199850*
X240800Y200200*
X240883Y200667*
Y203000*
X241858Y202417D02*
G01X242108Y202767D01*
X242400Y202942*
X242733Y203000*
X243150Y202883*
X243442Y202592*
X243525Y202242*
X243483Y201892*
X243317Y201600*
X242483Y201017*
X242108Y200608*
X241858Y200025*
X241775Y199500*
X243525*
G54D56*
X6728Y111370D02*
G03X6728Y111370I-984D01*
X104584Y123071D02*
G03X104584Y123071I-984D01*
X211647Y109891D02*
G03X211647Y109891I-984D01*
G54D140*
X59532Y91100D02*
G01X49532D01*
X54532Y86100D02*
G01Y96100D01*
X96426Y91100D02*
G01X86426D01*
X91426Y86100D02*
G01Y96100D01*
X133320Y91100D02*
G01X123320D01*
X128320Y86100D02*
G01Y96100D01*
X170213Y91100D02*
G01X160213D01*
X165213Y86100D02*
G01Y96100D01*
X207107Y91100D02*
G01X197107D01*
X202107Y86100D02*
G01Y96100D01*
G54D141*
X47532Y91100D02*
G03X61532Y91100I7000D01*
Y91100D02*
G03X47532Y91100I-7000D01*
X84426D02*
G03X98426Y91100I7000D01*
Y91100D02*
G03X84426Y91100I-7000D01*
X121320D02*
G03X135320Y91100I7000D01*
Y91100D02*
G03X121320Y91100I-7000D01*
X158213D02*
G03X172213Y91100I7000D01*
Y91100D02*
G03X158213Y91100I-7000D01*
X195107D02*
G03X209107Y91100I7000D01*
Y91100D02*
G03X195107Y91100I-7000D01*
G54D50*
X57225Y184900D02*
G01X58013D01*
Y190900D02*
G01X57225D01*
X80194Y183600D02*
G01Y180600D01*
X81406Y183600D02*
G01Y180600D01*
X81587Y182100D02*
G01X82375D01*
X79225D02*
G01X80013D01*
X81194Y171600D02*
G01Y168600D01*
X80225Y170100D02*
G01X81013D01*
X58194Y186400D02*
G01Y183400D01*
X59406Y186400D02*
G01Y183400D01*
X59587Y184900D02*
G01X60375D01*
X59406Y189400D02*
G01Y192400D01*
X58194Y189400D02*
G01Y192400D01*
X60375Y190900D02*
G01X59587D01*
X82406Y171600D02*
G01Y168600D01*
X82587Y170100D02*
G01X83375D01*
X89600Y189094D02*
G01X92600D01*
X89600Y190306D02*
G01X92600D01*
X91100Y190487D02*
G01Y191275D01*
Y188125D02*
G01Y188913D01*
X98600Y190306D02*
G01X95600D01*
X98600Y189094D02*
G01X95600D01*
X97100Y188913D02*
G01Y188125D01*
Y191275D02*
G01Y190487D01*
X195800Y187294D02*
G01X198800D01*
X195800Y188506D02*
G01X198800D01*
X197300Y188687D02*
G01Y189475D01*
Y186325D02*
G01Y187113D01*
X189800Y187294D02*
G01X192800D01*
X189800Y188506D02*
G01X192800D01*
X191300Y188687D02*
G01Y189475D01*
Y186325D02*
G01Y187113D01*
X183800Y187294D02*
G01X186800D01*
X183800Y188506D02*
G01X186800D01*
X185300Y188687D02*
G01Y189475D01*
Y186325D02*
G01Y187113D01*
G54D51*
X53682Y183128D02*
G01Y182341D01*
X63918*
Y183128*
Y189128D02*
G01Y188341D01*
X53682*
Y189128*
X63918Y192672D02*
G01Y193459D01*
X53682*
Y192672*
Y186672D02*
G01Y187459D01*
X63918*
Y186672*
X75682Y178265D02*
G01Y178659D01*
X85918*
Y178265*
X75682Y173738D02*
G01Y173541D01*
X85918*
Y173935*
X75682Y183872D02*
G01Y184659D01*
X85918*
Y183872*
X75682Y180328D02*
G01Y179541D01*
X85918*
Y180328*
X76682Y171872D02*
G01Y172659D01*
X86918*
Y171872*
X76682Y168328D02*
G01Y167541D01*
X86918*
Y168328*
X78518Y188635D02*
G01Y188241D01*
X68282*
Y188635*
X78518Y193162D02*
G01Y193359D01*
X68282*
Y192965*
X89328Y184582D02*
G01X88541D01*
Y194818*
X89328*
X92872Y184582D02*
G01X93659D01*
Y194818*
X92872*
X98872D02*
G01X99659D01*
Y184582*
X98872*
X95328Y194818D02*
G01X94541D01*
Y184582*
X95328*
X197935Y143082D02*
G01X197541D01*
Y153318*
X197935*
X202462Y143082D02*
G01X202659D01*
Y153318*
X202265*
X191935Y143082D02*
G01X191541D01*
Y153318*
X191935*
X196462Y143082D02*
G01X196659D01*
Y153318*
X196265*
X195528Y182782D02*
G01X194741D01*
Y193018*
X195528*
X199072Y182782D02*
G01X199859D01*
Y193018*
X199072*
X189528Y182782D02*
G01X188741D01*
Y193018*
X189528*
X193072Y182782D02*
G01X193859D01*
Y193018*
X193072*
X183528Y182782D02*
G01X182741D01*
Y193018*
X183528*
X187072Y182782D02*
G01X187859D01*
Y193018*
X187072*
X209582Y147465D02*
G01Y147859D01*
X219818*
Y147465*
X209582Y142938D02*
G01Y142741D01*
X219818*
Y143135*
Y137135D02*
G01Y136741D01*
X209582*
Y137135*
X219818Y141662D02*
G01Y141859D01*
X209582*
Y141465*
G54D52*
X1906Y101232D02*
G03X1906Y101232I-492D01*
X46809Y88500D02*
G03X46809Y88500I-492D01*
X104092Y107244D02*
G03X104092Y107244I-492D01*
X221391Y104773D02*
G03X221391Y104773I-492D01*
X226192Y116293D02*
G03X226192Y116293I-492D01*
G54D53*
X38081Y8414D02*
G03X38081Y8414I-8071D01*
X19996Y49719D02*
G01Y77081D01*
X55232*
Y49719*
X19996*
X29740Y54542D02*
G01X45488D01*
X29740Y72258D02*
G01X45488D01*
X42970Y82398D02*
G01Y80035D01*
X14230*
Y82398*
X42970Y94602D02*
G01Y96965D01*
X14230*
Y94602*
X38081Y205214D02*
G03X38081Y205214I-8071D01*
X37614Y54542D02*
G01Y61432D01*
Y72258D02*
G01Y65368D01*
X41551Y61432*
X65408Y49719D02*
G01Y77081D01*
X100644*
Y49719*
X65408*
X75152Y54542D02*
G01X90900D01*
X75152Y72258D02*
G01X90900D01*
X188246Y109213D02*
G01X68954D01*
Y164724*
X188246*
Y109213*
X83026Y54542D02*
G01Y61432D01*
Y72258D02*
G01Y65368D01*
X86963Y61432*
X110820Y49719D02*
G01Y77081D01*
X146056*
Y49719*
X110820*
X120564Y54542D02*
G01X136312D01*
X128438D02*
G01Y61432D01*
X120564Y72258D02*
G01X136312D01*
X128438D02*
G01Y65368D01*
X132375Y61432*
X156232Y49719D02*
G01Y77081D01*
X191468*
Y49719*
X156232*
X165976Y54542D02*
G01X181724D01*
X173850D02*
G01Y61432D01*
X165976Y72258D02*
G01X181724D01*
X173850D02*
G01Y65368D01*
X177787Y61432*
X201643Y49719D02*
G01Y77081D01*
X236880*
Y49719*
X201643*
X214599Y125246D02*
G01Y105954D01*
X202001*
Y125246*
X214599*
X199872Y163618D02*
G03X236328Y163500I18245J5236D01*
X207509Y184169D02*
G03X199911Y173618I10236J-15383D01*
X207509Y184169D02*
G01Y193146D01*
X228612*
Y184209*
X236368Y173500D02*
G03X228612Y184209I-19754J-6144D01*
X234881Y8414D02*
G03X234881Y8414I-8071D01*
X211387Y54542D02*
G01X227135D01*
X219261D02*
G01Y61432D01*
X211387Y72258D02*
G01X227135D01*
X219261D02*
G01Y65368D01*
X223198Y61432*
X234881Y205214D02*
G03X234881Y205214I-8071D01*
G54D37*
X10900Y91400D02*
G01X-100D01*
Y400*
X10900*
Y91400*
X11300Y172400D02*
G01X1300D01*
Y212300*
X11300*
Y172400*
X49532Y91100D02*
G03X54532Y86100I5000D01*
X48532Y98100D02*
G03X60532Y98100I6000J-6910D01*
X59532Y91100D02*
G03X54532Y96100I-5000D01*
X57532Y91100D02*
G03X54532Y94100I-3500J-500D01*
X52532Y91100D02*
G03X54532Y89100I1500J-500D01*
X48532Y98100D02*
G01X60532D01*
X85426D02*
G03X97426Y98100I6000J-6910D01*
X86426Y91100D02*
G03X91426Y86100I5000D01*
X96426Y91100D02*
G03X91426Y96100I-5000D01*
X94426Y91100D02*
G03X91426Y94100I-3500J-500D01*
X89426Y91100D02*
G03X91426Y89100I1500J-500D01*
X85426Y98100D02*
G01X97426D01*
X123320Y91100D02*
G03X128320Y86100I5000D01*
X122320Y98100D02*
G03X134320Y98100I6000J-6910D01*
X133320Y91100D02*
G03X128320Y96100I-5000D01*
X131320Y91100D02*
G03X128320Y94100I-3500J-500D01*
X126320Y91100D02*
G03X128320Y89100I1500J-500D01*
X122320Y98100D02*
G01X134320D01*
X159213D02*
G03X171213Y98100I6000J-6910D01*
X160213Y91100D02*
G03X165213Y86100I5000D01*
X170213Y91100D02*
G03X165213Y96100I-5000D01*
X168213Y91100D02*
G03X165213Y94100I-3500J-500D01*
X163213Y91100D02*
G03X165213Y89100I1500J-500D01*
X159213Y98100D02*
G01X171213D01*
X197107Y91100D02*
G03X202107Y86100I5000D01*
X196107Y98100D02*
G03X208107Y98100I6000J-6910D01*
X207107Y91100D02*
G03X202107Y96100I-5000D01*
X205107Y91100D02*
G03X202107Y94100I-3500J-500D01*
X200107Y91100D02*
G03X202107Y89100I1500J-500D01*
X196107Y98100D02*
G01X208107D01*
X220700Y144800D02*
G01X234200D01*
Y140800*
X220700*
Y144800*
X256800Y213200D02*
G01X245800D01*
Y122200*
X256800*
Y213200*
X235700Y151800D02*
G01Y147800D01*
X243700*
Y151800*
X235700Y157100D02*
G01Y141600D01*
X243700Y157000D02*
G01Y141500D01*
M02*
