G04 CAM350/DFMSTREAM V12.1 (Build 1022) Date:  Thu Oct 23 21:42:30 2025 *
G04 Database: (Untitled) *
G04 Layer 8: SOLDERMASK_TOP.art *
%FSLAX25Y25*%
%MOIN*%
%SFA1.000B1.000*%

%MIA0B0*%
%IPPOS*%
%ADD14C,0.09000*%
%ADD68R,0.06100X0.04600*%
%ADD74C,0.07200*%
%ADD77R,0.03500X0.03500*%
%ADD78R,0.07200X0.07200*%
%ADD82R,0.03740X0.02559*%
%ADD83R,0.02559X0.03740*%
%ADD128C,0.04331*%
%ADD131C,0.06299*%
%ADD134R,0.06299X0.06299*%
%ADD145C,0.03400*%
%ADD146C,0.09200*%
%ADD150C,0.07870*%
%ADD151R,0.05720X0.06510*%
%ADD152R,0.07870X0.07870*%
%ADD154R,0.08071X0.09449*%
%ADD155R,0.15600X0.08600*%
%ADD156R,0.15600X0.09600*%
%ADD157R,0.06702X0.03062*%
%LNSOLDERMASK_TOP.art*%
%LPD*%
G54D78*
X5400Y5900D03*
X6300Y207421D03*
X251300Y127700D03*
G54D131*
X103600Y156968D03*
X133600Y116968D03*
X123600D03*
X113600D03*
Y156968D03*
X123600D03*
X133600D03*
X153600Y116968D03*
X143600D03*
Y156968D03*
X153600D03*
G54D74*
X5400Y35900D03*
Y25900D03*
Y15900D03*
Y55900D03*
Y45900D03*
Y85900D03*
Y75900D03*
Y65900D03*
X6300Y187421D03*
Y177421D03*
Y197421D03*
X251300Y137700D03*
Y157700D03*
Y147700D03*
Y187700D03*
Y177700D03*
Y167700D03*
Y207700D03*
Y197700D03*
G54D151*
X5941Y103004D03*
Y165996D03*
X29563Y103004D03*
X21689D03*
X13815D03*
Y165996D03*
X21689D03*
X29563D03*
X53185Y103004D03*
X45311D03*
X37437D03*
Y165996D03*
X45311D03*
X53185D03*
X61059Y103004D03*
Y165996D03*
G54D82*
X91100Y186550D03*
X97100D03*
X91100Y192850D03*
X97100D03*
X200100Y145050D03*
Y151350D03*
X194100Y145050D03*
Y151350D03*
X197300Y184750D03*
X191300D03*
X185300D03*
X197300Y191050D03*
X191300D03*
X185300D03*
G54D157*
X197670Y108100D03*
Y123100D03*
Y118100D03*
Y113100D03*
X218930Y108100D03*
Y113100D03*
Y118100D03*
Y123100D03*
G54D146*
X6000Y108000D03*
G54D14*
X24819Y54542D03*
Y72258D03*
X50410Y54542D03*
Y72258D03*
X70231Y54542D03*
Y72258D03*
X95821Y54542D03*
Y72258D03*
X115642Y54542D03*
Y72258D03*
X141233Y54542D03*
X161054D03*
X141233Y72258D03*
X161054D03*
X186645Y54542D03*
X206466D03*
X186645Y72258D03*
X206466D03*
X232057Y54542D03*
Y72258D03*
G54D155*
X199990Y168500D03*
X236210D03*
G54D128*
X225700Y107041D03*
Y112159D03*
G54D154*
X16789Y88500D03*
X40411D03*
G54D152*
X54532Y85100D03*
X91426D03*
X128320D03*
X165213D03*
X202107D03*
G54D77*
X223700Y138300D03*
X231180D03*
X227440Y147320D03*
G54D150*
X54532Y95100D03*
X91426D03*
X128320D03*
X165213D03*
X202107D03*
G54D156*
X244900Y109600D03*
G54D83*
X55650Y184900D03*
Y190900D03*
X77650Y176100D03*
X83950D03*
X77650Y182100D03*
X83950D03*
X78650Y170100D03*
X61950Y184900D03*
X76550Y190800D03*
X70250D03*
X61950Y190900D03*
X84950Y170100D03*
X211550Y145300D03*
X217850D03*
Y139300D03*
X211550D03*
G54D145*
X234400Y121800D03*
Y126800D03*
G54D134*
X103600Y116968D03*
G54D68*
X239700Y156500D03*
Y141900D03*
M02*
