G04 CAM350/DFMSTREAM V12.1 (Build 1022) Date:  Thu Oct 23 21:42:30 2025 *
G04 Database: (Untitled) *
G04 Layer 9: TOP.art *
%FSLAX25Y25*%
%MOIN*%
%SFA1.000B1.000*%

%MIA0B0*%
%IPPOS*%
%ADD10C,0.06200*%
%ADD11R,0.06200X0.06200*%
%ADD12C,0.03000*%
%ADD16R,0.03543X0.02362*%
%ADD18R,0.05500X0.04000*%
%ADD23R,0.02362X0.03543*%
%ADD35R,0.03000X0.03000*%
%ADD36C,0.00800*%
%ADD38C,0.02000*%
%ADD39C,0.04000*%
%ADD40C,0.06000*%
%ADD41C,0.08000*%
%ADD75C,0.08200*%
%ADD125C,0.07000*%
%ADD128C,0.04331*%
%ADD129R,0.07090X0.07090*%
%ADD130R,0.05120X0.05910*%
%ADD131C,0.06299*%
%ADD134R,0.06299X0.06299*%
%ADD136R,0.15000X0.08000*%
%ADD137R,0.15000X0.09000*%
%ADD138R,0.06102X0.02362*%
%ADD139R,0.07874X0.09252*%
%ADD158C,0.00000*%
%LNTOP.art*%
%LPD*%
G36*
X103506Y101424D02*
G75*
G03X102956Y101534I-550J-1321D01*
X102406Y101424I0J-1431*
G02X102006Y101824I0J400*
G03X102116Y102374I-1322J550*
X102006Y102924I-1431J0*
G01X103576Y102995*
X103506Y101424*
G37*
G36*
X65108Y197829D02*
G01X65179Y199400D01*
G03X65729Y199290I550J1320*
X66279Y199400I0J1430*
G02X66679Y199000I0J-400*
G03X66569Y198450I1320J-550*
X66679Y197900I1431J0*
G01X65108Y197829*
G37*
G36*
X87829Y163829D02*
G01X87900Y165400D01*
G03X88450Y165290I550J1320*
X89000Y165400I0J1430*
G02X89400Y165000I0J-400*
G03X89290Y164450I1320J-550*
X89400Y163900I1431J0*
G01X87829Y163829*
G37*
G36*
X77929Y123729D02*
G01X78000Y125300D01*
G03X78550Y125190I550J1320*
X79100Y125300I0J1430*
G02X79500Y124900I0J-400*
G03X79390Y124350I1320J-550*
X79500Y123800I1431J0*
G01X77929Y123729*
G37*
G36*
X64376Y120729D02*
G01X64447Y122300D01*
G03X64997Y122190I550J1320*
X65547Y122300I0J1430*
G02X65947Y121900I0J-400*
G03X65837Y121350I1320J-550*
X65947Y120800I1431J0*
G01X64376Y120729*
G37*
G36*
X84929Y77329D02*
G01X85000Y78900D01*
G03X85550Y78790I550J1320*
X86100Y78900I0J1430*
G02X86500Y78500I0J-400*
G03X86390Y77950I1320J-550*
X86500Y77400I1431J0*
G01X84929Y77329*
G37*
G36*
X53700Y208700D02*
G03X53150Y208810I-550J-1321D01*
X52600Y208700I0J-1430*
G01X52529Y210271*
X54100Y210200*
G03X53990Y209650I1321J-550*
X54100Y209100I1431J0*
G02X53700Y208700I-400J0*
G37*
G36*
X62342Y208158D02*
G03X61792Y208268I-550J-1321D01*
X61242Y208158I0J-1430*
G01X61171Y209729*
X62742Y209658*
G03X62632Y209108I1321J-550*
X62742Y208558I1431J0*
G02X62342Y208158I-400J0*
G37*
G36*
X82300Y184900D02*
G03X81750Y185010I-550J-1321D01*
X81200Y184900I0J-1430*
G01X81129Y186471*
X82700Y186400*
G03X82590Y185850I1321J-550*
X82700Y185300I1431J0*
G02X82300Y184900I-400J0*
G37*
G36*
X128000Y160400D02*
G03X127450Y160510I-550J-1321D01*
X126900Y160400I0J-1430*
G01X126829Y161971*
X128400Y161900*
G03X128290Y161350I1321J-550*
X128400Y160800I1431J0*
G02X128000Y160400I-400J0*
G37*
G36*
X114900Y148000D02*
G03X114350Y148110I-550J-1321D01*
X113800Y148000I0J-1430*
G01X113729Y149571*
X115300Y149500*
G03X115190Y148950I1321J-550*
X115300Y148400I1431J0*
G02X114900Y148000I-400J0*
G37*
G36*
X45600Y136900D02*
G03X45050Y137010I-550J-1321D01*
X44500Y136900I0J-1430*
G01X44429Y138471*
X46000Y138400*
G03X45890Y137850I1321J-550*
X46000Y137300I1431J0*
G02X45600Y136900I-400J0*
G37*
G36*
X44969Y114959D02*
G03X44419Y115069I-550J-1321D01*
X43869Y114959I0J-1430*
G01X43798Y116530*
X45369Y116459*
G03X45259Y115909I1321J-550*
X45369Y115359I1431J0*
G02X44969Y114959I-400J0*
G37*
G36*
X98500Y108950D02*
G03X97950Y109060I-550J-1321D01*
X97400Y108950I0J-1430*
G01X97329Y110521*
X98900Y110450*
G03X98790Y109900I1321J-550*
X98900Y109350I1431J0*
G02X98500Y108950I-400J0*
G37*
G36*
X59700Y104700D02*
G03X59150Y104810I-550J-1321D01*
X58600Y104700I0J-1430*
G01X58529Y106271*
X60100Y106200*
G03X59990Y105650I1321J-550*
X60100Y105100I1431J0*
G02X59700Y104700I-400J0*
G37*
G36*
X73700Y100100D02*
G03X73150Y100210I-550J-1321D01*
X72600Y100100I0J-1430*
G01X72529Y101671*
X74100Y101600*
G03X73990Y101050I1321J-550*
X74100Y100500I1431J0*
G02X73700Y100100I-400J0*
G37*
G36*
X196834Y133292D02*
G01X195263Y133363D01*
G03X195373Y133913I-1321J550*
X195263Y134463I-1431J0*
G02X195663Y134863I400J0*
G03X196213Y134753I550J1320*
X196763Y134863I0J1431*
G01X196834Y133292*
G37*
G36*
X220456Y132814D02*
G01X218885Y132885D01*
G03X218995Y133435I-1321J550*
X218885Y133985I-1431J0*
G02X219285Y134385I400J0*
G03X219835Y134275I550J1320*
X220385Y134385I0J1431*
G01X220456Y132814*
G37*
G36*
X130071Y105829D02*
G01X128500Y105900D01*
G03X128610Y106450I-1321J550*
X128500Y107000I-1431J0*
G02X128900Y107400I400J0*
G03X129450Y107290I550J1320*
X130000Y107400I0J1431*
G01X130071Y105829*
G37*
G36*
X118971Y81729D02*
G01X117400Y81800D01*
G03X117510Y82350I-1321J550*
X117400Y82900I-1431J0*
G02X117800Y83300I400J0*
G03X118350Y83190I550J1320*
X118900Y83300I0J1431*
G01X118971Y81729*
G37*
G36*
X166100Y144800D02*
G03X165550Y144910I-550J-1321D01*
X165000Y144800I0J-1431*
G02X164600Y145200I0J400*
G03X164710Y145750I-1322J550*
X164600Y146300I-1431J0*
G01X166171Y146371*
X166100Y144800*
G37*
G36*
X109073Y99781D02*
G03X108523Y99891I-550J-1321D01*
X107973Y99781I0J-1431*
G02X107573Y100181I0J400*
G03X107683Y100731I-1322J550*
X107573Y101281I-1431J0*
G01X109144Y101352*
X109073Y99781*
G37*
G36*
X81700Y66800D02*
G03X81150Y66910I-550J-1321D01*
X80600Y66800I0J-1431*
G02X80200Y67200I0J400*
G03X80310Y67750I-1322J550*
X80200Y68300I-1431J0*
G01X81771Y68371*
X81700Y66800*
G37*
G36*
X85300Y64900D02*
G03X84750Y65010I-550J-1321D01*
X84200Y64900I0J-1431*
G02X83800Y65300I0J400*
G03X83910Y65850I-1322J550*
X83800Y66400I-1431J0*
G01X85371Y66471*
X85300Y64900*
G37*
G36*
X217780Y154331D02*
G01X216210Y154399D01*
G03X216316Y154939I-1324J540*
X216202Y155499I-1430J1*
G01Y155502*
G02X216602Y155902I400J0*
G03X217155Y155791I554J1329*
X217709Y155902I0J1440*
G01X217780Y154331*
G37*
G36*
X74364Y125055D02*
G01X74438Y126623D01*
G03X75031Y126505I591J1423*
X75623Y126623I1J1541*
G02X76023Y126223I0J-400*
G01X76022Y126192*
G03X75865Y125539I1277J-653*
X75936Y125092I1436J-1*
G01X74364Y125055*
G37*
G36*
X76500Y127800D02*
G03X75900Y127920I-600J-1441D01*
X75300Y127800I0J-1560*
G01X75226Y129368*
X76798Y129336*
G03X76732Y128906I1371J-430*
X76898Y128236I1436J0*
G01X76899Y128218*
X76900Y128209*
Y128200*
G02X76500Y127800I-400J0*
G37*
G36*
X188957Y133537D02*
G01X187389Y133611D01*
G03X187509Y134211I-1441J600*
X187389Y134811I-1561J0*
G02X187789Y135211I400J0*
G01X187798*
X187807Y135210*
X187825Y135209*
G03X188495Y135043I670J1269*
X188925Y135109I0J1436*
G01X188957Y133537*
G37*
G36*
X221775Y154334D02*
G01X220204Y154342D01*
G03X220237Y154518I-1403J354*
X220248Y154698I-1435J178*
X220042Y155442I-1446J0*
G02X220038Y155500I398J57*
X220437Y155900I400J0*
G03X221068Y155774I631J1516*
X221700Y155900I1J1642*
G01X221775Y154334*
G37*
G36*
X58400Y208281D02*
G02X58289Y208297I1J400D01*
G03X57356Y208625I-933J-1162*
X57189Y208616I-3J-1491*
G01X57239Y210179*
X58800Y210100*
G03X58658Y209391I1703J-710*
X58800Y208681I1845J0*
G02X58400Y208281I-400J0*
G37*
G36*
X94466Y105861D02*
G01X92910Y105941D01*
X92991Y107500*
G03X93746Y107349I755J1811*
X94500Y107500I-1J1962*
G02X94900Y107100I0J-400*
X94875Y106961I-402J0*
G03X94465Y105920I1116J-1041*
G01X94466Y105861*
G37*
G36*
X164707Y165500D02*
G01X164000D01*
X163269Y166096*
X164561Y167061*
G03X165414Y166207I1451J597*
G01X164707Y165500*
G37*
G36*
X145112Y166707D02*
G02X144955Y166739I0J400D01*
G03X143855Y167208I-1113J-1085*
G01X143954Y168758*
X145512Y168676*
G03X145355Y167891I1883J-785*
X145512Y167107I2040J1*
G02X145112Y166707I-400J0*
G37*
G36*
X89900Y195150D02*
G01X88900D01*
X88400Y195650*
X88338Y197342*
X89900Y197100*
G03Y195150I2340J-975*
G37*
G36*
X145381Y170919D02*
G03X144091Y171177I-1291J-3099D01*
X142800Y170919I0J-3357*
G01X142708Y172458*
X144281Y172419*
X145381Y171319*
Y170919*
G37*
G36*
X141577Y210165D02*
G03X140777Y211265I-1720J-410D01*
G02X140701Y211500I324J235*
X141100Y211900I400J0*
G03X142050Y211710I950J2280*
X143000Y211900I0J2471*
G01X143086Y210350*
X141577Y210165*
G37*
G36*
X138077Y208565D02*
G03X137277Y209665I-1720J-410D01*
G02X137201Y209900I324J235*
X137600Y210300I400J0*
G03X138550Y210110I950J2280*
X139500Y210300I0J2471*
G01X139586Y208750*
X138077Y208565*
G37*
G36*
X62800Y64600D02*
G03X61850Y64790I-950J-2281D01*
X60900Y64600I0J-2470*
G01X60814Y66150*
X62323Y66335*
G03X63124Y65235I1720J411*
G02X63200Y65000I-324J-235*
X62800Y64600I-400J0*
G37*
G36*
X73329Y194300D02*
G01X72269Y195461D01*
G03X73047Y196238I-544J1322*
G02X73330Y196355I283J-284*
X73612Y196238I-1J-401*
G03X74390Y195461I1322J546*
G01X73329Y194300*
G37*
G36*
X32729Y59408D02*
G01X31569Y60469D01*
X32729Y61529*
G03X33507Y60752I1322J546*
G02X33624Y60469I-284J-283*
X33507Y60186I-401J0*
G03X32729Y59408I544J-1322*
G37*
G36*
X214200Y204045D02*
G02X213917Y204162I0J400D01*
G03X213139Y204939I-1322J-546*
G01X214200Y206100*
X215261Y204939*
G03X214483Y204162I544J-1323*
G02X214200Y204045I-283J283*
G37*
G36*
X151100Y103645D02*
G02X150817Y103762I0J400D01*
G03X150039Y104539I-1322J-546*
G01X151100Y105700*
X152161Y104539*
G03X151383Y103762I544J-1323*
G02X151100Y103645I-283J283*
G37*
G36*
X139000Y93845D02*
G02X138717Y93962I0J400D01*
G03X137939Y94739I-1322J-546*
G01X139000Y95900*
X140061Y94739*
G03X139283Y93962I544J-1323*
G02X139000Y93845I-283J283*
G37*
G36*
X176800Y92845D02*
G02X176517Y92962I0J400D01*
G03X175739Y93739I-1322J-546*
G01X176800Y94900*
X177861Y93739*
G03X177083Y92962I544J-1323*
G02X176800Y92845I-283J283*
G37*
G36*
X220700Y58145D02*
G02X220417Y58262I0J400D01*
G03X219639Y59039I-1322J-546*
G01X220700Y60200*
X221761Y59039*
G03X220983Y58262I544J-1323*
G02X220700Y58145I-283J283*
G37*
G36*
X11850Y205145D02*
G02X11567Y205262I0J400D01*
G03X10789Y206039I-1322J-546*
G01X11850Y207200*
X12911Y206039*
G03X12133Y205262I544J-1323*
G02X11850Y205145I-283J283*
G37*
G36*
X81200Y190245D02*
G02X80917Y190362I0J400D01*
G03X80139Y191139I-1322J-546*
G01X81200Y192300*
X82261Y191139*
G03X81483Y190362I544J-1323*
G02X81200Y190245I-283J283*
G37*
G36*
X20300Y182645D02*
G02X20017Y182762I0J400D01*
G03X19239Y183539I-1322J-546*
G01X20300Y184700*
X21361Y183539*
G03X20583Y182762I544J-1323*
G02X20300Y182645I-283J283*
G37*
G36*
X83900Y55245D02*
G02X83617Y55362I0J400D01*
G03X82839Y56139I-1322J-546*
G01X83900Y57300*
X84961Y56139*
G03X84183Y55362I544J-1323*
G02X83900Y55245I-283J283*
G37*
G36*
X70400Y197300D02*
G01X69339Y198461D01*
G03X70117Y199238I-544J1322*
G02X70400Y199355I283J-284*
X70683Y199238I0J-401*
G03X71461Y198461I1322J546*
G01X70400Y197300*
G37*
G36*
X17089Y199739D02*
G03X16312Y200517I-1323J-544D01*
G02X16195Y200800I284J283*
X16312Y201083I400J0*
G03X17089Y201861I-546J1322*
G01X18250Y200800*
X17089Y199739*
G37*
G36*
X146239Y198239D02*
G03X145462Y199017I-1323J-544D01*
G02X145345Y199300I284J283*
X145462Y199583I400J0*
G03X146239Y200361I-546J1322*
G01X147400Y199300*
X146239Y198239*
G37*
G36*
X124539Y195839D02*
G03X123762Y196617I-1323J-544D01*
G02X123645Y196900I284J283*
X123762Y197183I400J0*
G03X124539Y197961I-546J1322*
G01X125700Y196900*
X124539Y195839*
G37*
G36*
X230739Y193939D02*
G03X229962Y194717I-1323J-544D01*
G02X229845Y195000I284J283*
X229962Y195283I400J0*
G03X230739Y196061I-546J1322*
G01X231900Y195000*
X230739Y193939*
G37*
G36*
X123639Y186839D02*
G03X122862Y187617I-1323J-544D01*
G02X122745Y187900I284J283*
X122862Y188183I400J0*
G03X123639Y188961I-546J1322*
G01X124800Y187900*
X123639Y186839*
G37*
G36*
X121439Y183339D02*
G03X120662Y184117I-1323J-544D01*
G02X120545Y184400I284J283*
X120662Y184683I400J0*
G03X121439Y185461I-546J1322*
G01X122600Y184400*
X121439Y183339*
G37*
G36*
X224339Y156439D02*
G03X223562Y157217I-1323J-544D01*
G02X223445Y157500I284J283*
X223562Y157783I400J0*
G03X224339Y158561I-546J1322*
G01X225500Y157500*
X224339Y156439*
G37*
G36*
X139339Y150439D02*
G03X138562Y151217I-1323J-544D01*
G02X138445Y151500I284J283*
X138562Y151783I400J0*
G03X139339Y152561I-546J1322*
G01X140500Y151500*
X139339Y150439*
G37*
G36*
X203576Y132102D02*
G03X202799Y132880I-1323J-544D01*
G02X202682Y133163I284J283*
X202799Y133446I400J0*
G03X203576Y134224I-546J1322*
G01X204737Y133163*
X203576Y132102*
G37*
G36*
X211450Y132028D02*
G03X210673Y132806I-1323J-544D01*
G02X210556Y133089I284J283*
X210673Y133372I400J0*
G03X211450Y134150I-546J1322*
G01X212611Y133089*
X211450Y132028*
G37*
G36*
X43439Y127039D02*
G03X42662Y127817I-1323J-544D01*
G02X42545Y128100I284J283*
X42662Y128383I400J0*
G03X43439Y129161I-546J1322*
G01X44600Y128100*
X43439Y127039*
G37*
G36*
X41439Y111739D02*
G03X40662Y112517I-1323J-544D01*
G02X40545Y112800I284J283*
X40662Y113083I400J0*
G03X41439Y113861I-546J1322*
G01X42600Y112800*
X41439Y111739*
G37*
G36*
X39839Y107939D02*
G03X39062Y108717I-1323J-544D01*
G02X38945Y109000I284J283*
X39062Y109283I400J0*
G03X39839Y110061I-546J1322*
G01X41000Y109000*
X39839Y107939*
G37*
G36*
X109989Y103489D02*
G03X109212Y104267I-1323J-544D01*
G02X109095Y104550I284J283*
X109212Y104833I400J0*
G03X109989Y105611I-546J1322*
G01X111150Y104550*
X109989Y103489*
G37*
G36*
X176939Y99339D02*
G03X176162Y100117I-1323J-544D01*
G02X176045Y100400I284J283*
X176162Y100683I400J0*
G03X176939Y101461I-546J1322*
G01X178100Y100400*
X176939Y99339*
G37*
G36*
X63539Y41139D02*
G03X62762Y41917I-1323J-544D01*
G02X62645Y42200I284J283*
X62762Y42483I400J0*
G03X63539Y43261I-546J1322*
G01X64700Y42200*
X63539Y41139*
G37*
G36*
X101361Y176539D02*
G01X100200Y177600D01*
X101361Y178661*
G03X102138Y177883I1323J544*
G02X102255Y177600I-284J-283*
X102138Y177317I-401J0*
G03X101361Y176539I545J-1322*
G37*
G36*
X101961Y172739D02*
G01X100800Y173800D01*
X101961Y174861*
G03X102738Y174083I1323J544*
G02X102855Y173800I-284J-283*
X102738Y173517I-401J0*
G03X101961Y172739I545J-1322*
G37*
G36*
X149561Y171339D02*
G01X148400Y172400D01*
X149561Y173461*
G03X150338Y172683I1323J544*
G02X150455Y172400I-284J-283*
X150338Y172117I-401J0*
G03X149561Y171339I545J-1322*
G37*
G36*
X34561Y169939D02*
G01X33400Y171000D01*
X34561Y172061*
G03X35338Y171283I1323J544*
G02X35455Y171000I-284J-283*
X35338Y170717I-401J0*
G03X34561Y169939I545J-1322*
G37*
G36*
X89561Y167339D02*
G01X88400Y168400D01*
X89561Y169461*
G03X90338Y168683I1323J544*
G02X90455Y168400I-284J-283*
X90338Y168117I-401J0*
G03X89561Y167339I545J-1322*
G37*
G36*
X150661Y167639D02*
G01X149500Y168700D01*
X150661Y169761*
G03X151438Y168983I1323J544*
G02X151555Y168700I-284J-283*
X151438Y168417I-401J0*
G03X150661Y167639I545J-1322*
G37*
G36*
X107011Y141789D02*
G01X105850Y142850D01*
X107011Y143911*
G03X107788Y143133I1323J544*
G02X107905Y142850I-284J-283*
X107788Y142567I-401J0*
G03X107011Y141789I545J-1322*
G37*
G36*
X71061Y96739D02*
G01X69900Y97800D01*
X71061Y98861*
G03X71838Y98083I1323J544*
G02X71955Y97800I-284J-283*
X71838Y97517I-401J0*
G03X71061Y96739I545J-1322*
G37*
G36*
X134290Y206947D02*
G03X133390Y208047I-1770J-530D01*
G02X133300Y208300I310J253*
X133700Y208700I400J0*
G03X134700Y208500I1000J2400*
X135700Y208700I0J2601*
G01X135788Y207152*
X134290Y206947*
G37*
G36*
X32700Y161026D02*
G01X31639Y162187D01*
G03X32417Y162965I-544J1322*
G02X32700Y163082I283J-284*
X32983Y162965I0J-401*
G03X33761Y162187I1322J544*
G01X32700Y161026*
G37*
G36*
X60730Y122505D02*
G01X59569Y123563D01*
X60717Y124638*
G03X61529Y123895I1299J604*
G02X61659Y123600I-271J-295*
X61542Y123317I-401J0*
G03X60730Y122505I570J-1382*
G37*
G36*
X149239Y195439D02*
G03X148362Y196317I-1493J-614D01*
G02X148245Y196600I284J283*
X148400Y196917I401J0*
G03X149278Y197594I-375J1394*
G01X150400Y196494*
X149239Y195439*
G37*
G36*
X128700Y148600D02*
G02X128300Y149000I0J400D01*
G03X128410Y149550I-1322J550*
X128300Y150100I-1431J0*
G01X129729Y150165*
Y150171*
X129800Y150168*
X129871Y150171*
Y150165*
X131300Y150100*
G03X131190Y149550I1321J-550*
X131300Y149000I1431J0*
G02X130900Y148600I-400J0*
G03X130350Y148710I-550J-1321*
X129800Y148600I0J-1430*
X129250Y148710I-550J-1321*
X128700Y148600I0J-1431*
G37*
G36*
X203739Y183581D02*
G03X203277Y184043I-786J-324D01*
G02X202984Y184750I708J707*
X203516Y185634I1000J0*
G03X203979Y185878I-62J679*
G01X205048Y184608*
X203739Y183581*
G37*
G36*
X52589Y129589D02*
G03X51662Y130517I-1578J-649D01*
G02X51544Y130800I282J284*
X51720Y131131I400J0*
G03X52648Y131759I-291J1429*
G01X53750Y130641*
X52589Y129589*
G37*
G36*
X17300Y185018D02*
G02X16942Y185240I0J400D01*
G03X16426Y186281I-1506J-98*
G01X17577Y187335*
X18623Y186175*
G03X17583Y185135I729J-1769*
G02X17300Y185018I-283J283*
G37*
G36*
X115639Y151039D02*
G03X114562Y152117I-1833J-754D01*
G02X114444Y152400I283J284*
X114682Y152766I400J0*
G03X115760Y153243I-34J1533*
G01X116799Y152084*
X115639Y151039*
G37*
G36*
X35440Y62457D02*
G01X34401Y63616D01*
X35561Y64661*
G03X36638Y63583I1833J754*
G02X36756Y63300I-283J-284*
X36518Y62934I-401J0*
G03X35440Y62457I34J-1533*
G37*
G36*
X175100Y55145D02*
G02X174817Y55262I0J400D01*
G03X174524Y55709I-1322J-547*
G01Y55710*
G03X174000Y55600I27J-1431*
G02X173600Y56000I0J400*
G03X173710Y56550I-1322J550*
X173600Y57100I-1431J0*
G01X175069Y57166*
X175070Y57167*
X175100Y57200*
X175128Y57169*
X175129*
X175171Y57171*
X175169Y57125*
Y57124*
X176161Y56039*
G03X175383Y55262I544J-1323*
G02X175100Y55145I-283J283*
G37*
G36*
X129700Y55245D02*
G02X129417Y55362I0J400D01*
G03X129124Y55809I-1322J-547*
G01Y55810*
G03X128600Y55700I27J-1431*
G02X128200Y56100I0J400*
G03X128310Y56650I-1322J550*
X128200Y57200I-1431J0*
G01X129669Y57266*
X129670Y57267*
X129700Y57300*
X129728Y57269*
X129729*
X129771Y57271*
X129769Y57225*
Y57224*
X130761Y56139*
G03X129983Y55362I544J-1323*
G02X129700Y55245I-283J283*
G37*
G36*
X63261Y125339D02*
G01X62102Y126380D01*
X63100Y127559*
G03X64143Y127175I1043J1225*
G01X64278Y127181*
G02X64555Y126800I-123J-381*
X64438Y126517I-401J0*
G03X63261Y125339I825J-2002*
G37*
G36*
X76550Y194514D02*
G02X76164Y194807I0J400D01*
G03X76177Y195012I-1633J206*
X75827Y196025I-1643J-1*
G01X77012Y197008*
X78051Y195849*
G03X76833Y194631I854J-2072*
G02X76550Y194514I-283J283*
G37*
G36*
X106875Y193006D02*
G01X105900Y194039D01*
Y195595*
X106183Y195878*
G03X107900Y194161I2920J1203*
G01X106875Y193006*
G37*
G36*
X145539Y106839D02*
G03X143762Y108617I-3022J-1244D01*
G01X144044Y108900*
X145600*
X146693Y107864*
X145539Y106839*
G37*
G36*
X220826Y159241D02*
G03X219350Y160717I-2510J-1034D01*
G02X219233Y161000I283J283*
X219611Y161399I400J0*
G03X220253Y161289I641J1813*
X221087Y161479I0J1923*
G01X221982Y160272*
X220826Y159241*
G37*
G36*
X103461Y179839D02*
G01X102304Y180870D01*
X103199Y182077*
G03X104032Y181888I832J1736*
X104677Y181999I1J1925*
G02X105055Y181599I-22J-400*
X104938Y181317I-401J1*
G03X103461Y179839I1035J-2512*
G37*
G36*
X131160Y204449D02*
G03X129192Y206417I-3345J-1377D01*
G01X129475Y206700*
X131420*
X132312Y205470*
X131160Y204449*
G37*
G36*
X217850Y142348D02*
G02X217629Y142414I-1J401D01*
G03X216669Y143529I-1870J-639*
G01X217850Y145400*
X219031Y143529*
G03X218071Y142414I910J-1755*
G02X217850Y142348I-220J335*
G37*
G36*
X76550Y190700D02*
G01X75369Y192571D01*
G03X76329Y193686I-910J1755*
G02X76550Y193752I220J-335*
X76771Y193686I1J-401*
G03X77731Y192571I1870J639*
G01X76550Y190700*
G37*
G36*
X211550Y145200D02*
G01X210369Y147071D01*
G03X211329Y148186I-910J1755*
G02X211550Y148252I220J-335*
X211771Y148186I1J-401*
G03X212731Y147071I1870J639*
G01X211550Y145200*
G37*
G36*
X192329Y150169D02*
G03X191214Y151129I-1755J-911D01*
G02X191148Y151350I335J220*
X191214Y151571I401J1*
G03X192329Y152531I-639J1870*
G01X194200Y151350*
X192329Y150169*
G37*
G36*
X70401Y187859D02*
G01X70099D01*
G03X69069Y189029I-2344J-1025*
G01X70250Y191050*
X71431Y189029*
G03X70401Y187859I1315J-2196*
G37*
G36*
X95329Y191669D02*
G03X94159Y192699I-2196J-1315D01*
G02X94148Y192850I989J148*
X94159Y193001I1000J3*
G03X95329Y194031I-1026J2345*
G01X97350Y192850*
X95329Y191669*
G37*
G36*
Y185369D02*
G03X94159Y186399I-2196J-1315D01*
G02X94148Y186550I989J148*
X94159Y186701I1000J3*
G03X95329Y187731I-1026J2345*
G01X97350Y186550*
X95329Y185369*
G37*
G36*
X92871Y191669D02*
G01X90850Y192850D01*
X92871Y194031*
G03X94041Y193001I2196J1314*
G02X94052Y192850I-991J-148*
X94041Y192699I-1002J-3*
G03X92871Y191669I1025J-2344*
G37*
G36*
Y185369D02*
G01X90850Y186550D01*
X92871Y187731*
G03X94041Y186701I2196J1314*
G02X94052Y186550I-991J-148*
X94041Y186399I-1002J-3*
G03X92871Y185369I1025J-2344*
G37*
G36*
X187071Y183569D02*
G01X185050Y184750D01*
X187071Y185931*
G03X188241Y184901I2196J1314*
G02X188252Y184750I-990J-148*
X188241Y184599I-1001J-3*
G03X187071Y183569I1025J-2344*
G37*
G36*
X53185Y102904D02*
G01X52602Y104902D01*
X52601*
G03X52124Y105224I-1022J-1000*
G01X52414Y105542*
G03X52415Y105543I0J1*
G01X52293Y105959*
G03X53048Y106661I-537J1335*
G02X53185Y106685I137J-377*
X53322Y106661I0J-401*
G03X54077Y105959I1292J633*
G01X53955Y105542*
X53956*
X54246Y105224*
G03X53769Y104902I545J-1322*
G01X53768*
X53185Y102904*
G37*
G36*
X108961Y47639D02*
G01X107901Y48608D01*
X107900*
X107899*
X106839Y47639*
G03X106062Y48417I-1323J-544*
G02X105945Y48700I284J283*
X106062Y48983I400J0*
G03X106839Y49761I-546J1322*
G01X107899Y48792*
X107900*
X108961Y49761*
G03X109738Y48983I1323J544*
G02X109855Y48700I-284J-283*
X109738Y48417I-401J0*
G03X108961Y47639I545J-1322*
G37*
G36*
X21689Y102904D02*
G01X20626Y105959D01*
G03X21520Y106818I-642J1563*
G02X21689Y106855I168J-363*
X21858Y106818I1J-400*
G03X22752Y105959I1536J704*
G01X21689Y102904*
G37*
G36*
X37300Y162100D02*
G02X37106Y162150I0J400D01*
G03X36259Y163077I-1597J-609*
G01X36386Y163400*
X36385Y163401*
X36239Y163561*
G03X36505Y163705I-544J1323*
G01X37441Y166096*
X38222Y163628*
Y163627*
G03X38361Y163561I682J1257*
G01X38273Y163465*
Y163464*
X38407Y163041*
G03X37476Y162141I671J-1625*
G01X37300Y162100*
G37*
G36*
X201871Y150169D02*
G01X200000Y151352D01*
X201871Y152531*
G03X202296Y151968I1833J941*
G01X202297*
G03X202539Y152361I-1081J937*
G01X203700Y151300*
X202539Y150239*
G03X202276Y150656I-1323J-543*
G01X202275*
G03X201871Y150169I1289J-1480*
G37*
G36*
X192329Y143869D02*
G03X191875Y144480I-1991J-1005D01*
G01X191874*
G03X191675Y144139I1124J-884*
G01X190515Y145200*
X191675Y146261*
G03X191943Y145839I1322J544*
G01X191944*
G03X192329Y146231I-1181J1545*
G01X194200Y145044*
X192329Y143869*
G37*
G36*
X227440Y147070D02*
G01X225940Y148820D01*
G03X227124Y150269I-1464J2405*
G02X227440Y150320I315J-950*
X227756Y150269I1J-1001*
G03X228940Y148820I2649J956*
G01X227440Y147070*
G37*
G36*
X6229Y197350D02*
G01X6300Y200521D01*
G03X7650Y200251I1350J3240*
X9000Y200521I0J3510*
G02X9400Y200121I0J-400*
G03X9130Y198771I3240J-1350*
X9400Y197421I3511J0*
G01X6229Y197350*
G37*
G36*
Y177350D02*
G01X6300Y180521D01*
G03X7650Y180251I1350J3240*
X9000Y180521I0J3510*
G02X9400Y180121I0J-400*
G03X9130Y178771I3240J-1350*
X9400Y177421I3511J0*
G01X6229Y177350*
G37*
G36*
X251371Y167629D02*
G01X248200Y167700D01*
G03X248470Y169050I-3241J1350*
X248200Y170400I-3511J0*
G02X248600Y170800I400J0*
G03X249950Y170530I1350J3240*
X251300Y170800I0J3511*
G01X251371Y167629*
G37*
G36*
X251300Y204600D02*
G03X249950Y204870I-1350J-3241D01*
X248600Y204600I0J-3511*
G02X248200Y205000I0J400*
G03X248470Y206350I-3242J1350*
X248200Y207700I-3511J0*
G01X251371Y207771*
X251300Y204600*
G37*
G36*
Y194600D02*
G03X249950Y194870I-1350J-3241D01*
X248600Y194600I0J-3511*
G02X248200Y195000I0J400*
G03X248470Y196350I-3242J1350*
X248200Y197700I-3511J0*
G01X251371Y197771*
X251300Y194600*
G37*
G36*
Y184600D02*
G03X249950Y184870I-1350J-3241D01*
X248600Y184600I0J-3511*
G02X248200Y185000I0J400*
G03X248470Y186350I-3242J1350*
X248200Y187700I-3511J0*
G01X251371Y187771*
X251300Y184600*
G37*
G36*
X178950Y176900D02*
G01X178819Y176906D01*
G02X177456Y178269I131J1494*
G01X177451Y178335*
X177450Y178367*
Y178400*
G02X178562Y179849I1500J0*
G03X178711Y179839I150J1119*
X179398Y180073I0J1126*
G02X179657Y180107I259J-967*
X180657Y179107I0J-1000*
X180623Y178848I-1002J0*
G03X180389Y178161I892J-687*
X180399Y178012I1132J1*
G02X178950Y176900I-1449J388*
G37*
G36*
X5328Y25831D02*
G01X5400Y29000D01*
G03X6800Y28720I1400J3360*
X8200Y29000I0J3640*
G02X8600Y28600I-1J-401*
G01Y28585*
G03X8278Y27115I3191J-1469*
X8500Y25885I3515J-1*
G01X5328Y25831*
G37*
G36*
X106350Y153819D02*
G03X104975Y154094I-1375J-3300D01*
X103600Y153819I0J-3574*
G01X103529Y157039*
X106750Y156968*
G03X106475Y155593I3300J-1375*
X106750Y154219I3575J1*
G02X106350Y153819I-400J0*
G37*
G36*
X5232Y15565D02*
G01X5400Y17500D01*
X7000Y19100*
X8500*
G03Y15900I3840J-1600*
G01X5232Y15565*
G37*
G36*
X53185Y165896D02*
G01X51785Y168951D01*
G03X52994Y170143I-868J2090*
G02X53200Y170200I206J-343*
X53408Y170142I0J-400*
G03X54603Y168947I2074J879*
G01X53185Y165896*
G37*
G36*
X57632Y91600D02*
G03X56082Y91910I-1550J-3721D01*
X54532Y91600I0J-4030*
G01X54462Y95171*
X58032Y95100*
G03X57722Y93550I3721J-1550*
X58032Y92000I4031J0*
G02X57632Y91600I-400J0*
G37*
G36*
X165213D02*
G03X163663Y91910I-1550J-3721D01*
X162113Y91600I0J-4031*
G02X161713Y92000I0J400*
G03X162023Y93550I-3722J1550*
X161713Y95100I-4031J0*
G01X165284Y95171*
X165213Y91600*
G37*
G36*
X202107D02*
G03X200557Y91910I-1550J-3721D01*
X199007Y91600I0J-4031*
G02X198607Y92000I0J400*
G03X198917Y93550I-3722J1550*
X198607Y95100I-4031J0*
G01X202178Y95171*
X202107Y91600*
G37*
G36*
X193071Y183569D02*
G01X191300Y184604D01*
X189529Y183569*
G03X188359Y184599I-2196J-1315*
G02X188348Y184750I989J148*
X188359Y184901I1000J3*
G03X189529Y185931I-1026J2345*
G01X191300Y184896*
X193071Y185931*
G03X194241Y184901I2196J1314*
G02X194252Y184750I-990J-148*
X194241Y184599I-1001J-3*
G03X193071Y183569I1025J-2344*
G37*
G36*
X199071D02*
G01X197300Y184604D01*
X195529Y183569*
G03X194359Y184599I-2196J-1315*
G02X194348Y184750I989J148*
X194359Y184901I1000J3*
G03X195529Y185931I-1026J2345*
G01X197300Y184896*
X199071Y185931*
G03X200241Y184901I2196J1314*
G02X200252Y184750I-990J-148*
X200241Y184599I-1001J-3*
G03X199071Y183569I1025J-2344*
G37*
G36*
X50471Y54463D02*
G01X47100Y55232D01*
G03X47407Y56766I-3683J1535*
X47100Y58300I-3990J-1*
G02X47500Y58700I400J0*
X47592Y58689I-1J-401*
G03X49535Y58060I1943J2688*
G01X50074Y58104*
X50471Y54463*
G37*
G36*
X85101Y167159D02*
G01X84799D01*
G03X83769Y168329I-2344J-1025*
G01X84844Y170168*
Y170169*
X84800Y170350*
G03X84945Y171075I-1741J725*
X84800Y171800I-1886J0*
X84910Y172350I-1321J550*
X84800Y172900I-1431J0*
G02X85200Y173300I400J0*
G03X85750Y173190I550J1320*
X86300Y173300I0J1431*
G01X86371Y171729*
X86367*
G03X86366Y171728I0J-1*
G01X86421Y170319*
X86291Y170325*
G03X85321Y169969I0J-1501*
G02X85200Y169950I-122J381*
G01X85185Y169951*
G03X85184Y169949I0J-1*
G01X86131Y168329*
G03X85101Y167159I1315J-2196*
G37*
G36*
X115713Y54471D02*
G01X111642Y54542D01*
G03X112002Y56342I-4321J1800*
X111642Y58142I-4681J0*
G02X112042Y58542I400J0*
G03X113842Y58182I1800J4320*
X115642Y58542I0J4681*
G01X115713Y54471*
G37*
G36*
X161125D02*
G01X157054Y54542D01*
G03X157414Y56342I-4321J1800*
X157054Y58142I-4681J0*
G02X157454Y58542I400J0*
G03X159254Y58182I1800J4320*
X161054Y58542I0J4681*
G01X161125Y54471*
G37*
G36*
X206537D02*
G01X202466Y54542D01*
G03X202826Y56342I-4321J1800*
X202466Y58142I-4681J0*
G02X202866Y58542I400J0*
G03X204666Y58182I1800J4320*
X206466Y58542I0J4681*
G01X206537Y54471*
G37*
G36*
X87635Y188805D02*
G02X87494Y188863I0J200D01*
G01X87316Y189042*
G03X87175Y189100I-141J-141*
G01X87174*
X86077*
G02X85936Y189159I1J200*
G01X84831Y190264*
G02X84772Y190405I140J142*
X84831Y190547I199J0*
G01X84881Y190596*
G03X84920Y190651I-141J142*
G01X84935Y190682*
X84938Y190716*
G02X86441Y192221I1690J-185*
G01X86566Y192283*
X86646Y192369*
G03X86686Y192432I-145J137*
G01X86700Y192468*
Y192494*
Y192495*
G03X86682Y192578I-200J0*
G01X86656Y192634*
X86678Y192758*
X86722Y192802*
G02X86864Y192861I142J-140*
X87005Y192802I-1J-199*
G01X87570Y192237*
G02X87628Y192096I-141J-141*
G01Y191669*
G03X89141Y189979I1700J0*
G01X89266Y189917*
X89346Y189831*
G02X89400Y189694I-146J-137*
G01Y189668*
X89372Y189597*
X89266Y189483*
X89141Y189421*
G03X88072Y188877I187J-1690*
G01X88045Y188846*
X87970Y188812*
X87640Y188805*
X87635*
G37*
G36*
X5372Y55804D02*
G01X3826Y58092D01*
G03X6417Y60683I-1813J4404*
G02X6700Y60800I283J-284*
X7093Y60475I0J-400*
G03X7020Y59770I3355J-704*
X7585Y57884I3428J-1*
G01X5372Y55804*
G37*
G36*
X249108Y175508D02*
G03X247199Y177417I-3246J-1337D01*
G02X247082Y177700I284J283*
X247199Y177983I400J0*
G03X249108Y179892I-1338J3247*
G01X251400Y177700*
X249108Y175508*
G37*
G36*
X7592Y63708D02*
G01X5300Y65900D01*
X7592Y68092*
G03X9501Y66183I3246J1337*
G02X9618Y65900I-284J-283*
X9501Y65617I-401J0*
G03X7592Y63708I1337J-3246*
G37*
G36*
X13815Y161185D02*
G02X13581Y161260I-1J401D01*
G03X11793Y163041I-3059J-1283*
G01X13815Y166096*
X15837Y163041*
G03X14049Y161260I1271J-3064*
G02X13815Y161185I-233J326*
G37*
G36*
X242450Y139900D02*
G01X239450Y141900D01*
X242450Y143900*
G03X244344Y142347I2989J1714*
G02X244450Y141900I-894J-448*
X244344Y141453I-1000J1*
G03X242450Y139900I1095J-3267*
G37*
G36*
X83950Y176000D02*
G01X82769Y177871D01*
G03X83762Y178853I-733J1734*
G01X83950Y178900*
X84138Y178853*
X84186Y178751*
X84187Y178750*
X84188Y178751*
X84897Y179499*
G03Y179501J1*
G01X83950Y180500*
Y182056*
X84233Y182338*
G03X86011Y180561I3022J1245*
G01X85069Y179501*
G03Y179499J-1*
G01X86011Y178439*
G03X85109Y177882I1243J-3022*
Y177880J-1*
G01X85131Y177871*
X83950Y176000*
G37*
G36*
X45311Y102904D02*
G01X42751Y105959D01*
G03X45053Y108424I-1829J4015*
G02X45311Y108518I258J-307*
X45569Y108424I0J-400*
G03X47871Y105959I4131J1551*
G01X45311Y102904*
G37*
G36*
X21689Y165896D02*
G01X19129Y168951D01*
G03X21431Y171417I-1829J4015*
G02X21689Y171511I258J-307*
X21947Y171417I0J-400*
G03X24249Y168951I4132J1549*
G01X21689Y165896*
G37*
G36*
X5941Y102504D02*
G01X3381Y105959D01*
G03X5514Y108473I-2728J4477*
G02X5726Y108507I422J-1956*
G01X5834Y108516*
X5941Y108519*
G02X6156Y108508I5J-2001*
X6368Y108473I-219J-1989*
G03X8501Y105959I4862J1963*
G01X5941Y102504*
G37*
G36*
X38368Y97080D02*
G01X37898Y97601D01*
Y97602*
X37897Y97601*
G02X37437Y97489I-460J888*
X36917Y97635I0J1000*
G03X34877Y100049I-4073J-1373*
G01X37437Y103254*
X39997Y100049*
G03X38594Y98845I2032J-3788*
X38595Y98844I1J0*
X39311Y98361I1533J1500*
G01X38368Y97080*
G37*
G36*
X27647Y51766D02*
G01X24721Y54522D01*
X27493Y57448*
G03X30892Y56167I3399J3868*
G01X31068Y56170*
X31156Y56174*
X31244Y56179*
G02X31516Y55800I-128J-379*
X31399Y55517I-401J0*
G03X27647Y51766I2625J-6378*
G37*
G36*
X222200Y136800D02*
G03X220925Y138007I-2263J-1114D01*
G01X220754Y138011*
G03X219031Y137529I0J-3319*
G01X217754Y139327*
X217762Y139338*
Y139339*
X216669Y141071*
G03X217629Y142186I-910J1755*
G02X217850Y142252I220J-335*
X218071Y142186I1J-401*
G03X219031Y141071I1870J639*
X221249Y138760I4369J1974*
G01X221250*
G03X222200Y139800I-1313J2154*
G01X223800Y138300*
X222200Y136800*
G37*
G36*
X198562Y82034D02*
G03X195752Y84847I-4799J-1983D01*
G02X195662Y85100I311J253*
X195752Y85353I400J0*
G03X198562Y88166I-1989J4797*
G01X202207Y85100*
X198562Y82034*
G37*
G36*
X58077D02*
G01X54432Y85100D01*
X58077Y88166*
G03X60887Y85353I4799J1983*
G02X60977Y85100I-311J-253*
X60887Y84847I-401J0*
G03X58077Y82034I1988J-4796*
G37*
G36*
X15700Y13800D02*
G02X13968Y14800I0J2000D01*
G03X13102Y16300I-2234J-290*
G02X12700Y17800I2598J1500*
X13772Y20098I3000J0*
X15700Y20800I1929J-2298*
X17628Y20098I-1J-3000*
X18700Y17800I-1928J-2298*
X18298Y16300I-3001J0*
G03X17432Y14800I1368J-1790*
G02X15700Y13800I-1732J1000*
G37*
G36*
X236950Y154500D02*
G03X235056Y156053I-2989J-1714D01*
G02X234950Y156500I894J448*
X235056Y156947I1000J-1*
G03X236950Y158500I-1095J3267*
X237604Y160744I-3521J2243*
X237535Y161502I-4175J2*
G02X238400Y162000I865J-502*
X238938Y161843I0J-1000*
G03X242314Y158500I5792J2473*
G01X239769Y156260*
X239688Y156325*
X239687*
X236950Y154500*
G37*
G36*
X98650Y69430D02*
G01X95822Y72028D01*
X95821*
X92993Y69430*
G03X90872Y71551I-3607J-1486*
G02X90579Y72258I707J707*
X90872Y72965I1000J0*
G03X92993Y75087I-1487J3607*
G01X95820Y72488*
X95821*
X95822*
X98650Y75087*
G03X100771Y72965I3608J1485*
G02X101064Y72258I-707J-707*
X100771Y71551I-1000J0*
G03X98650Y69430I1486J-3607*
G37*
G36*
X73059D02*
G01X70242Y72018D01*
X70241Y72019*
Y72018*
X70231Y72008*
X70112Y72138*
X70111*
X69981Y72258*
X69991Y72268*
G03Y72269I-1J1*
G01X67402Y75087*
G03X69524Y77208I-1485J3607*
G02X70231Y77501I707J-707*
X70938Y77208I0J-1000*
G03X73059Y75087I3607J1486*
X75180Y72965I3607J1485*
G02X75473Y72258I-707J-707*
X75180Y71551I-1000J0*
G03X73059Y69430I1486J-3607*
G37*
G36*
X38850Y79374D02*
G02X37400Y79996I0J2000D01*
G03X37437Y80651I-5843J659*
X36474Y83874I-5879J-1*
G01X40518Y88988*
X44179Y83874*
G03X39700Y79563I3224J-7832*
G02X38850Y79374I-849J1811*
G37*
G36*
X94971Y82034D02*
G01X91427Y85015D01*
X91426Y85016*
Y85015*
X87881Y82034*
G03X85071Y84847I-4799J-1983*
G02X84981Y85100I311J253*
X85071Y85353I400J0*
G03X87881Y88166I-1989J4797*
G01X91425Y85184*
X91426*
X94971Y88166*
G03X97781Y85353I4799J1983*
G02X97871Y85100I-311J-253*
X97781Y84847I-401J0*
G03X94971Y82034I1988J-4796*
G37*
G36*
X131865D02*
G01X128321Y85015D01*
X128320Y85016*
Y85015*
X124775Y82034*
G03X121965Y84847I-4799J-1983*
G02X121875Y85100I311J253*
X121965Y85353I400J0*
G03X124775Y88166I-1989J4797*
G01X128319Y85184*
X128320*
X131865Y88166*
G03X134675Y85353I4799J1983*
G02X134765Y85100I-311J-253*
X134675Y84847I-401J0*
G03X131865Y82034I1988J-4796*
G37*
G36*
X168758D02*
G01X165214Y85015D01*
X165213Y85016*
Y85015*
X161668Y82034*
G03X158858Y84847I-4799J-1983*
G02X158768Y85100I311J253*
X158858Y85353I400J0*
G03X161668Y88166I-1989J4797*
G01X165212Y85184*
X165213*
X168758Y88166*
G03X171568Y85353I4799J1983*
G02X171658Y85100I-311J-253*
X171568Y84847I-401J0*
G03X168758Y82034I1988J-4796*
G37*
G36*
X27647Y69430D02*
G01X24876Y71976D01*
X24875*
X21990Y69430*
G03X20223Y71198I-3006J-1237*
G02X19784Y72259I1062J1061*
X20223Y73319I1501J-1*
G03X21990Y75087I-1239J3005*
G01X21991*
G03X24112Y77208I-1486J3607*
G02X24819Y77501I707J-707*
X25526Y77208I0J-1000*
G03X27647Y75087I3607J1486*
X29769Y72965I3607J1485*
G02X30062Y72258I-707J-707*
X29769Y71551I-1000J0*
G03X27647Y69430I1485J-3607*
G37*
G36*
X232057Y67016D02*
G02X231350Y67309I0J1000D01*
G03X229228Y69430I-3607J-1487*
X227107Y71551I-3607J-1486*
G02X226814Y72258I707J707*
X227107Y72965I1000J0*
G03X229228Y75087I-1487J3607*
X231350Y77208I-1485J3607*
G02X232057Y77501I707J-707*
X232764Y77208I0J-1000*
G03X234885Y75087I3607J1486*
G01X232296Y72269*
Y72268*
X232307Y72258*
X232297Y72248*
G03Y72247I1J0*
G01X234885Y69430*
G03X232764Y67309I1486J-3607*
G02X232057Y67016I-707J707*
G37*
G36*
X161054D02*
G02X160347Y67309I0J1000D01*
G03X158226Y69430I-3607J-1486*
X156105Y71551I-3607J-1486*
G02X155812Y72258I707J707*
X156105Y72965I1000J0*
G03X158226Y75087I-1487J3607*
G01X161043Y72498*
X161044Y72497*
Y72498*
X161054Y72508*
X161064Y72498*
Y72497*
X161065Y72498*
X163883Y75087*
G03X166004Y72965I3608J1485*
G02X166297Y72258I-707J-707*
X166004Y71551I-1000J0*
G03X163883Y69430I1486J-3607*
X161761Y67309I1485J-3608*
G02X161054Y67016I-707J707*
G37*
G36*
X206466D02*
G02X205759Y67309I0J1000D01*
G03X203638Y69430I-3607J-1486*
X201516Y71551I-3607J-1487*
G02X201223Y72258I707J707*
X201516Y72965I1000J0*
G03X203638Y75087I-1486J3608*
G01X206455Y72498*
X206456Y72497*
Y72498*
X206466Y72508*
X206476Y72498*
Y72497*
X206477Y72498*
X209294Y75087*
G03X211416Y72965I3607J1485*
G02X211709Y72258I-707J-707*
X211416Y71551I-1000J0*
G03X209294Y69430I1485J-3607*
X207173Y67309I1486J-3607*
G02X206466Y67016I-707J707*
G37*
G36*
X115643D02*
G02X114935Y67309I-1J1000D01*
G03X112814Y69430I-3607J-1486*
X110693Y71551I-3607J-1486*
G02X110400Y72258I707J707*
X110693Y72965I1000J0*
G03X112814Y75087I-1487J3607*
X114935Y77208I-1486J3607*
G02X115643Y77501I707J-707*
X116350Y77208I0J-1000*
G03X118471Y75087I3607J1486*
X120592Y72965I3607J1485*
G02X120885Y72258I-707J-707*
X120592Y71551I-1000J0*
G03X118471Y69430I1486J-3607*
X116350Y67309I1486J-3607*
G02X115643Y67016I-707J707*
G37*
G36*
X210369Y137529D02*
G03X208681Y138901I-2698J-1595D01*
G02X208646Y138995I919J396*
G01X208645*
X208644*
X208545Y138905*
X208489Y138882*
X208370Y138905*
X207471Y139805*
G03X207330Y139863I-141J-141*
G01X202340*
G02X202198Y139922I0J200*
G01X200292Y141828*
G02X200234Y141969I141J141*
X200249Y142045I199J0*
G01X200272Y142102*
X200373Y142169*
X201871*
X201872*
G03X203572Y143869I0J1700*
G01Y146231*
G03X203284Y147177I-1700J-1*
G01X203253Y147223*
X203248Y147334*
X203465Y147742*
X203559Y147800*
X203615*
G03X207100Y151300I-15J3500*
G01X207099Y151390*
X207096Y151480*
X207082Y151659*
X207077Y151701*
X207104Y151782*
X207331Y152034*
G02X207479Y152100I148J-134*
G01X207480*
X208223*
G02X208364Y152041I-1J-200*
G01X209091Y151314*
G02X209150Y151173I-140J-142*
G01Y148335*
G02X209099Y148202I-200J0*
G03X208669Y147072I1270J-1130*
G01Y147071*
Y143529*
Y143528*
G03X209030Y142481I1700J1*
G01X209072Y142358*
Y142242*
X209030Y142119*
G03X208669Y141071I1340J-1048*
G01Y139674*
X208670Y139673*
G03X208671Y139674I0J1*
G01X208681Y139699*
G03X210369Y141071I-1010J2968*
G01X211800Y139300*
X210369Y137529*
G37*
G36*
X222843Y168600D02*
G01X222842D01*
X209390*
G02X209190Y168800J200*
G01Y172300*
G02X209390Y172500I200J0*
G01X225463*
G03X225604Y172558I0J200*
G01X228987Y175941*
G02X229128Y176000I142J-140*
G01X242623*
G02X242764Y175941I-1J-200*
G01X244195Y174510*
G02Y174227I-141J-141*
G01X244160Y174192*
X244066Y174163*
X244018Y174172*
G03X243711Y174200I-307J-1672*
G01X243710*
X228710*
G03X227010Y172500I0J-1700*
G01Y169001*
G02X226911Y168828I-200J0*
G01X226567Y168627*
X226461Y168626*
X226414Y168652*
G03X224700Y169100I-1713J-3052*
X222943Y168627I0J-3500*
G02X222843Y168600I-100J173*
G37*
G36*
X183400Y147500D02*
G01X172196D01*
G02X172054Y147559I0J200*
G01X168271Y151342*
G03X168130Y151400I-141J-141*
G01X163289*
X163288*
G03X163147Y151342I0J-200*
G01X160964Y149159*
G02X160823Y149100I-142J140*
G01X147899*
G02X147759Y149157I0J200*
G01X147531Y149379*
X147500Y149451*
X147499Y149490*
G03X146658Y151678I-3499J-89*
G01X146630Y151711*
X146605Y151793*
X146658Y152174*
X146703Y152247*
X146739Y152271*
G03X148269Y153788I-3140J4697*
G01X148297Y153829*
X148385Y153875*
X148815*
X148903Y153829*
X148931Y153788*
G03X153600Y151319I4669J3181*
X158643Y154421I0J5650*
G01X158664Y154464*
X158742Y154520*
X159110Y154579*
G02X159142Y154582I35J-197*
X159283Y154523I-1J-200*
G01X159947Y153858*
G03X160088Y153800I141J141*
G01X160089*
X185378*
G02X185563Y153676J-200*
G01X185586Y153620*
X185563Y153501*
X183658Y151597*
G03X183600Y151456I141J-141*
G01Y147700*
G02X183400Y147500I-200*
G37*
G36*
X92708Y65700D02*
G01X89189D01*
G02X89042Y65764I0J200*
G01X88814Y66010*
X88787Y66089*
X88790Y66131*
G03X85300Y69900I-3490J269*
G01X85131Y69896*
X84962Y69884*
X84952Y69883*
X84942*
G02X84767Y69986I0J200*
G03X81700Y71800I-3067J-1686*
G01X81165Y71759*
G03X78283Y69057I535J-3459*
G01X78267Y68988*
X78158Y68900*
X76465*
G02X76296Y68993J200*
G01X76087Y69323*
X76081Y69425*
X76103Y69472*
G03X71956Y78526I-5872J2787*
X70231Y78759I-1725J-6267*
X63771Y72978I0J-6500*
G01X63762Y72902*
X63648Y72800*
X57407*
G03X57266Y72742I0J-200*
G01X57226Y72701*
G02X57085Y72642I-142J140*
X56943Y72701I0J199*
G01X56918Y72726*
X56888Y72790*
X56885Y72825*
G03X56474Y74599I-6475J-566*
G01X56473Y74600*
X56472*
G03X54197Y71642I2499J-4276*
G01X50589Y72087*
G03X50588Y72086I0J-1*
G01Y72084*
X46410Y72236*
G03X46677Y73654I-3635J1419*
X46342Y75236I-3902J0*
G01Y75258*
G02X47342Y76258I1000J0*
G03X48876Y75951I1534J3681*
X50410Y76258I-1J3989*
X53084Y75723I2675J6418*
X55586Y76189I-1J6953*
G01Y76190*
G03X52848Y78284I-5176J-3931*
G01X52781Y78311*
X52713Y78437*
X52801Y78893*
G02X52997Y79055I196J-38*
G01X52998*
X58077*
X58078*
G03X60573Y81400I0J2500*
G02X60604Y81495I200J-13*
X62067Y82618I2271J-1444*
G03X62113Y82639I-59J191*
G01X62157Y82668*
G02X62266Y82700I109J-168*
G01X83693*
G02X83802Y82668I0J-200*
G01X83846Y82640*
G03X83891Y82618I110J168*
G02X85355Y81495I-808J-2568*
X85386Y81400I-169J-108*
G01X85394Y81294*
X85399Y81249*
X85369Y81163*
X85136Y80930*
X85062Y80900*
X85022*
X85000*
G03X81557Y78029I0J-3500*
X83782Y74119I3443J-629*
X85000Y73900I1219J3281*
X88020Y75631I0J3500*
X88240Y76076I-3020J1770*
G02X88425Y76200I185J-76*
G01X89899*
G02X90073Y76098I0J-200*
G01X90272Y75749*
X90270Y75641*
X90243Y75595*
G03X92889Y66457I5579J-3337*
G01X92951Y66426*
X93009Y66300*
X92903Y65854*
G02X92708Y65700I-195J46*
G37*
G36*
X137283Y87500D02*
G01X136024D01*
X135968Y87517*
X135944Y87532*
X135900Y87561*
G03X135854Y87582I-106J-171*
G02X134391Y88705I808J2567*
X134360Y88800I169J108*
G03X133142Y90794I-2495J-155*
G01X133105Y90816*
X133056Y90887*
X132985Y91268*
X133006Y91352*
X133032Y91386*
G03X132430Y99471I-4713J3714*
X128319Y101101I-4112J-4371*
X124323Y99576I1J-6001*
X123607Y91386I3997J-4476*
G01X123634Y91352*
X123655Y91268*
X123584Y90887*
X123535Y90816*
X123497Y90794*
G03X122279Y88800I1277J-2149*
G02X122248Y88705I-200J13*
X120785Y87582I-2271J1444*
G03X120739Y87561I60J-191*
G01X120695Y87532*
G02X120586Y87500I-109J168*
G01X99159*
G02X99050Y87532I0J200*
G01X99006Y87561*
G03X98961Y87582I-107J-170*
G02X97497Y88705I807J2568*
X97466Y88800I169J108*
G03X96248Y90794I-2495J-155*
G01X96211Y90816*
X96162Y90887*
X96091Y91268*
X96112Y91352*
X96138Y91386*
G03X97061Y97162I-4712J3715*
G01X97044Y97208*
X97056Y97305*
X97272Y97614*
G02X97436Y97700I164J-114*
G01X108803*
G03X108944Y97758I0J200*
G01X108968Y97782*
X109051Y97781*
X109073*
G03X112573Y101276I0J3500*
G02X112680Y101452I200J-1*
G03X114549Y104460I-1630J3097*
G01X114550Y104499*
X114581Y104571*
X114809Y104793*
G02X114949Y104850I140J-143*
G01X126517*
X126518*
G02X126706Y104717I0J-200*
G03X130000Y102400I3294J1183*
G01X130149Y102403*
X130298Y102413*
X130593Y102451*
G03X133496Y106079I-592J3450*
G01X133494Y106120*
X133522Y106197*
X133750Y106438*
G02X133895Y106500I145J-138*
G01X143264*
G02X143444Y106386I-1J-200*
G03X146600Y104399I3156J1513*
X147492Y104515I-2J3500*
G02X147543Y104522I52J-193*
X147634Y104500I0J-200*
G01X147739Y104446*
G02X147834Y104340I-92J-178*
G03X148640Y103110I3266J1261*
G02X148700Y102967I-139J-143*
G01Y98989*
G03X148758Y98847I200J-1*
G01X152247Y95358*
G03X152388Y95300I141J141*
G01X152389*
X159096*
X159213Y95183*
Y95100*
G03X159483Y93322I6000J2*
G02X159487Y93219I-191J-59*
X159335Y92816I-1494J333*
G03X159318Y92773I176J-94*
G01X159277Y92603*
X159271Y92575*
X159243Y92524*
X156778Y90059*
G02X156636Y90000I-142J140*
G01X142077*
G02X141936Y90059I1J200*
G01X141459Y90536*
G02X141400Y90677I140J142*
G01Y93167*
G02X141460Y93310I200J0*
G03X141490Y98260I-2460J2490*
X139000Y99300I-2490J-2460*
X136540Y98290I0J-3500*
Y93310I2460J-2490*
G02X136600Y93167I-139J-143*
G01Y88689*
G03X136658Y88547I200J-1*
G01X137364Y87842*
G02X137407Y87624I-141J-141*
G01X137384Y87568*
X137283Y87500*
G37*
G36*
X19919Y67000D02*
G01X13377D01*
G02X13236Y67059I1J200*
G01X12053Y68242*
G03X11912Y68300I-141J-141*
G01X11911*
X11139*
X11138*
G02X10956Y68418I0J200*
G03X9298Y70592I-5556J-2518*
G01X9264Y70621*
X9226Y70702*
Y71098*
X9264Y71179*
X9298Y71208*
G03Y80592I-3898J4692*
G01X9264Y80621*
X9226Y80702*
Y81098*
X9264Y81179*
X9298Y81208*
G03X10732Y82938I-3899J4691*
G01X10758Y82984*
X10848Y83039*
X11297Y83052*
X11391Y83003*
X11419Y82959*
G03X12852Y82174I1433J915*
G01X14810*
G03X14811Y82175I0J1*
X12852Y83874I-5354J-4195*
G01X14481Y85995*
Y85996*
X14480*
X12852Y84478*
G03X9596Y87859I-5911J-2434*
G02X9452Y88500I1356J641*
X9596Y89141I1500J0*
G03X10307Y89522I-2658J5813*
G01Y89523*
G03X5400Y92000I-4907J-3623*
X2116Y91040I1J-6100*
G01X2069Y91011*
X1960Y91007*
X1604Y91202*
G02X1500Y91378I96J175*
G01Y98560*
G02X1623Y98744I200J-1*
G01X2020Y98909*
X2139Y98886*
X2182Y98843*
G03X3380Y98349I1198J1207*
G01X3381*
X8501*
X8502*
G03X9616Y98765I0J1700*
G01X9643Y98789*
X9711Y98814*
X10045*
X10113Y98789*
X10140Y98765*
G03X11254Y98349I1114J1285*
G01X11255*
X16375*
X16376*
G03X17490Y98765I0J1700*
G01X17517Y98789*
X17585Y98814*
X17919*
X17987Y98789*
X18014Y98765*
G03X19128Y98349I1114J1285*
G01X19129*
X24249*
X24250*
G03X25364Y98765I0J1700*
G01X25391Y98789*
X25459Y98814*
X25793*
X25861Y98789*
X25888Y98765*
G03X27002Y98349I1114J1285*
G01X27003*
X32123*
X32124*
G03X33238Y98765I0J1700*
G01X33265Y98789*
X33333Y98814*
X33667*
X33735Y98789*
X33762Y98765*
X34078Y98548*
X34079*
G02X34353Y98377I-1236J-2285*
X34437Y98214I-116J-163*
G01Y98113*
G03X34793Y96696I3000J0*
G02X34813Y96639I-176J-94*
G03X35546Y95077I3437J660*
G01X35572Y95045*
X35595Y94966*
X35548Y94595*
X35506Y94524*
X35473Y94500*
G03X34774Y93126I1001J-1374*
G01Y83874*
G03X34842Y83398I1700*
G01X34850Y83370*
Y79200*
G03X38850Y75200I4000J0*
X42850Y79200J4000*
G01Y80963*
G02X42918Y81113I200J0*
X44536Y82175I4485J-5070*
X44592Y82191I82J-182*
G03X46048Y83874I-245J1683*
G01Y93126*
G03X44348Y94826I-1700J0*
G01X44219*
G02X44019Y95026I0J200*
G01Y95060*
X44041Y95123*
X44061Y95149*
G03X44751Y97882I-2761J2151*
G01X44744Y97926*
X44767Y98011*
X44993Y98278*
G02X45146Y98349I153J-129*
G01X47871*
X47872*
G03X48986Y98765I0J1700*
G01X49013Y98789*
X49081Y98814*
X49415*
X49483Y98789*
X49510Y98765*
X49536Y98744*
X49562Y98553*
G02X49531Y98415I-198J-28*
G03X49820Y91386I5001J-3315*
G01X49846Y91352*
X49867Y91268*
X49796Y90887*
X49747Y90816*
X49710Y90794*
G03X48487Y88645I1277J-2149*
G01Y81555*
G03X49667Y79432I2500J0*
G01X49720Y79398*
X49770Y79282*
X49666Y78791*
X49573Y78705*
X49511Y78696*
G03X44537Y69472I899J-6438*
G01X44559Y69425*
X44553Y69323*
X44345Y68993*
G02X44176Y68900I-169J107*
G01X38758*
G02X38617Y68959I1J200*
G01X37334Y70242*
G03X37193Y70300I-141J-141*
G01X31807*
G03X31666Y70242I0J-200*
G01X31260Y69836*
G02X31119Y69778I-141J141*
X30978Y69836I0J199*
G01X30936Y69877*
X30911Y69991*
X30931Y70046*
G03X28060Y77894I-6112J2213*
X24819Y78759I-3240J-5635*
X19832Y76429I-1J-6500*
X20203Y67682I4987J-4170*
G01X20246Y67639*
X20269Y67520*
X20103Y67123*
G02X19919Y67000I-185J77*
G37*
G36*
X96397Y133800D02*
G01X80640D01*
G02X80498Y133859J200*
G01X78316Y136042*
G03X78175Y136100I-141J-141*
G01X78174*
X72226*
X72225*
G03X72084Y136042I0J-200*
G01X69902Y133859*
G02X69760Y133800I-142J140*
G01X57796*
G02X57654Y133859J200*
G01X55571Y135942*
G03X55430Y136000I-141J-141*
G01X50377*
G02X50236Y136059I1J200*
G01X48030Y138264*
X48000Y138338*
Y138378*
G03X46482Y141285I-3500J22*
G02X46413Y141533I113J165*
X46595Y141650I182J-83*
G01X46612Y141649*
X46628Y141647*
X46913Y141612*
X47056Y141603*
X47200Y141600*
X50200*
G03X51957Y142073I0J3500*
G02X52057Y142100I100J-173*
G01X80242*
X80243*
G02X80343Y142073I0J-200*
G03X82100Y141600I1757J3027*
X84569Y142619I0J3500*
X85127Y146857I-2469J2481*
G02X85100Y146958I173J100*
G01Y157160*
G03X85042Y157301I-200J0*
G01X81745Y160598*
G02X81686Y160740I140J142*
G01Y161700*
G02X81886Y161900I200J0*
G01X83860*
G03X84001Y161958I0J200*
G01X84253Y162210*
G02X84394Y162269I142J-140*
G01X84407Y162268*
X84420Y162267*
X84780Y162221*
X84857Y162170*
X84881Y162129*
G03X87900Y160400I3019J1771*
X88532Y160457I3J3500*
X91368Y163427I-632J3443*
G01X91378Y163501*
X91491Y163600*
X105974*
X105975*
G03X106116Y163658I0J200*
G01X108998Y166541*
G02X109140Y166600I142J-140*
G01X116474*
X116475*
G03X116616Y166658I0J200*
G01X122698Y172741*
G02X122840Y172800I142J-140*
G01X138900*
G02X139041Y172742I0J-200*
G01X139269Y172515*
X139300Y172441*
Y172402*
G03X140553Y169735I3500J17*
G02X140618Y169533I-128J-153*
G03X143561Y165205I3394J-857*
G01X143594Y165200*
X143653Y165171*
X145853Y162971*
G02X145881Y162724I-141J-141*
G01X145637Y162334*
X145506Y162288*
X145440Y162310*
G03X143600Y162618I-1840J-5342*
X138931Y160149I0J-5650*
G01X138903Y160108*
X138815Y160062*
X138385*
X138297Y160108*
X138269Y160149*
G03X133599Y162618I-4669J-3181*
X130964Y161966I0J-5650*
G01X130920Y161943*
X130821*
X130441Y162145*
X130385Y162227*
X130380Y162277*
G03X127134Y165393I-3480J-376*
G01X126901Y165401*
G03X123508Y162762I0J-3500*
G02X123324Y162612I-194J50*
G03X118931Y160149I277J-5643*
G01X118903Y160108*
X118815Y160062*
X118385*
X118297Y160108*
X118269Y160149*
G03X113600Y162618I-4669J-3181*
X108931Y160149I0J-5650*
G01X108903Y160108*
X108815Y160062*
X108385*
X108297Y160108*
X108269Y160149*
G03X103600Y162618I-4669J-3181*
X100838Y161896I1J-5650*
X98450Y154646I2762J-4928*
X103600Y151319I5150J2323*
X105183Y151545I1J5650*
G02X105239Y151553I56J-192*
X105299Y151544I1J-200*
X105516Y151447I-327J-1023*
G03X105563Y151428I98J175*
G01X105746Y151382*
X105775Y151376*
X105826Y151348*
X107116Y150058*
G03X107257Y150000I141J141*
G01X109901*
G02X110044Y149939I-1J-200*
G01X110272Y149705*
X110302Y149630*
X110301Y149590*
X110300Y149500*
Y149460*
X110269Y149387*
X110041Y149159*
G02X109900Y149100I-142J140*
G01X105070*
G03X104929Y149042I0J-200*
G01X100908Y145021*
G03X100850Y144880I141J-141*
G01Y138253*
G02X100791Y138111I-200J0*
G01X96539Y133859*
G02X96397Y133800I-142J140*
G37*
G36*
X160131Y180746D02*
G02X159990Y180804I0J200D01*
G01X156853Y183942*
G03X156712Y184000I-141J-141*
G01X156711*
X126400*
G02X126259Y184059I1J200*
G01X126031Y184287*
X126000Y184360*
Y184400*
X125998Y184510*
G02X126117Y184700I200J7*
G03X127605Y189851I-1417J3200*
X124700Y191400I-2906J-1951*
X122210Y190360I0J-3500*
G02X122067Y190300I-143J139*
G01X120689*
X120688*
G03X120547Y190242I0J-200*
G01X118764Y188459*
G02X118623Y188400I-142J140*
G01X100561*
G02X100383Y188509I0J200*
G01X100380Y188516*
X100356Y188562*
X100359Y188667*
X100564Y189004*
G02X100735Y189100I171J-104*
G01X102988*
X102989*
G03X103171Y189218I0J200*
G01X103320Y189552*
G03X103335Y189664I-182J81*
G01X103331Y189692*
X103306Y189745*
X103287Y189766*
G02X102558Y193136I2613J2329*
X102749Y193276I191J-60*
G01X102763Y193275*
X102777Y193274*
X103241Y193209*
X103338Y193099*
X103340Y193026*
G03X106304Y189641I3499J74*
G01X106839Y189600*
G03X110152Y191973I0J3500*
X108410Y196228I-3313J1128*
G02X108300Y196407I90J179*
G01Y197423*
G02X108359Y197564I200J-1*
G01X108436Y197641*
G02X108577Y197700I142J-140*
G01X117297*
G02X117439Y197641I0J-200*
G01X120522Y194558*
G03X120663Y194500I141J141*
G01X122967*
G02X123110Y194440I0J-200*
G03X125600Y193400I2490J2460*
X127060Y193719I0J3500*
X129100Y196900I-1460J3181*
G01Y196940*
X129131Y197013*
X129359Y197241*
G02X129500Y197300I142J-140*
G01X140260*
G02X140402Y197241I0J-200*
G01X142284Y195358*
G03X142425Y195300I141J141*
G01X142426*
X143723*
G02X143864Y195241I-1J-200*
G01X144847Y194258*
G03X144988Y194200I141J141*
G01X144989*
X147572*
G02X147720Y194135I0J-200*
G03X150300Y193000I2580J2365*
X153405Y194884I0J3500*
X150868Y199954I-3104J1616*
G02X150706Y200105I32J197*
G03X147300Y202800I-3406J-805*
X145010Y201947I0J-3500*
G01X144950Y201896*
X144793Y201901*
X143053Y203642*
G03X142912Y203700I-141J-141*
G01X142911*
X138067*
G02X137878Y203836I0J200*
G01X137736Y204256*
X137773Y204379*
X137824Y204418*
G03X138625Y205278I-2124J2782*
G02X138792Y205368I167J-110*
X138831Y205364I-1J-200*
G03X139499Y205300I666J3436*
X142398Y206838I0J3501*
G02X142564Y206926I166J-112*
G01X142576Y206925*
X142588Y206924*
X142794Y206906*
X143000Y206900*
G03X146300Y211567I0J3500*
G01X146284Y211613*
X146297Y211709*
X146514Y212015*
G02X146677Y212100I164J-115*
G01X219870*
G02X220053Y211980I0J-200*
G01X220223Y211588*
X220203Y211470*
X220162Y211427*
G03X218051Y207680I6648J-6213*
G01X218035Y207620*
X217940Y207541*
X217447Y207491*
X217339Y207550*
X217311Y207604*
G03X214200Y209499I-3110J-1605*
X212080Y208784I0J-3500*
X211740Y203510I2120J-2785*
G02X211800Y203367I-139J-143*
G01Y200089*
G03X211858Y199947I200J-1*
G01X219147Y192658*
G03X219288Y192600I141J141*
G01X219289*
X229167*
G02X229310Y192540I0J-200*
G03X231800Y191500I2490J2460*
X234655Y192975I0J3500*
X233350Y198138I-2855J2025*
G01X233306Y198160*
X233249Y198237*
X233180Y198654*
X233210Y198746*
X233244Y198780*
G03X233458Y211427I-6434J6434*
G01X233418Y211470*
X233397Y211588*
X233567Y211980*
G02X233750Y212100I183J-80*
G01X233751*
X246176*
G02X246356Y211988I0J-200*
G01X246539Y211613*
X246527Y211499*
X246492Y211454*
G03X245591Y205551I4809J-3754*
G01X245612Y205496*
X245587Y205381*
X244258Y204053*
G03X244200Y203911I141J-141*
G01Y196340*
G02X244141Y196198I-200J0*
G01X242658Y194716*
G03X242600Y194574I141J-141*
G01Y187677*
G02X242541Y187536I-200J1*
G01X242264Y187259*
G02X242123Y187200I-142J140*
G01X224489*
X224488*
G03X224347Y187142I0J-200*
G01X220964Y183759*
G02X220823Y183700I-142J140*
G01X208663*
G02X208512Y183769I0J200*
G01X208285Y184030*
X208260Y184113*
X208266Y184156*
G03X207884Y186297I-3466J486*
G02Y186486I176J95*
G03X205600Y191548I-3084J1655*
X204800Y191641I-801J-3407*
X201300Y188149I0J-3500*
G01Y188110*
X201269Y188036*
X201041Y187809*
G02X200900Y187750I-142J141*
G01X199200*
G02X199000Y187950J200*
G01Y187973*
X199134Y188117*
X199259Y188179*
G03X200772Y189869I-187J1690*
G01Y192231*
G03X199072Y193931I-1700J0*
G01X199071*
X197674*
G03Y193929J-1*
G01X197699Y193919*
G03X199071Y192231I2968J1011*
X200241Y191201I2195J1314*
G02X200252Y191050I-990J-148*
X200241Y190899I-1001J-3*
G03X199071Y189869I1025J-2344*
G01X197375Y190860*
X197374*
X197300Y190800*
X197226Y190860*
X197225*
X195529Y189869*
G03X194359Y190899I-2196J-1315*
G02X194348Y191050I989J148*
X194359Y191201I1000J3*
G03X195529Y192231I-1026J2344*
X196901Y193919I-1596J2699*
G01X196926Y193929*
G03Y193931J1*
G01X195529*
X195528*
G03X194481Y193570I1J-1700*
G01X194358Y193528*
X194242*
X194119Y193570*
G03X193071Y193931I-1048J-1340*
G01X191674*
G03Y193929J-1*
G01X191699Y193919*
G03X193071Y192231I2968J1011*
X194241Y191201I2195J1314*
G02X194252Y191050I-990J-148*
X194241Y190899I-1001J-3*
G03X193071Y189869I1025J-2344*
G01X191375Y190860*
X191374*
X191300Y190800*
X191226Y190860*
X191225*
X189529Y189869*
G03X188359Y190899I-2196J-1315*
G02X188348Y191050I989J148*
X188359Y191201I1000J3*
G03X189529Y192231I-1026J2344*
X190901Y193919I-1596J2699*
G01X190926Y193929*
G03Y193931J1*
G01X189529*
X189528*
G03X188481Y193570I1J-1700*
G01X188358Y193528*
X188242*
X188119Y193570*
G03X187071Y193931I-1048J-1340*
G01X185674*
G03Y193929J-1*
G01X185699Y193919*
G03X187071Y192231I2968J1011*
X188241Y191201I2195J1314*
G02X188252Y191050I-990J-148*
X188241Y190899I-1001J-3*
G03X187071Y189869I1025J-2344*
G01X185375Y190860*
X185374*
X185300Y190800*
X185226Y190860*
X185225*
X183529Y189869*
G03X182359Y190899I-2196J-1315*
G02X182348Y191050I989J148*
X182359Y191201I1000J3*
G03X183529Y192231I-1026J2344*
X184901Y193919I-1596J2699*
G01X184926Y193929*
G03Y193931J1*
G01X183529*
X183528*
G03X181828Y192231I1J-1701*
G01Y189869*
G03X183341Y188179I1700J0*
G01X183466Y188117*
X183546Y188031*
G02X183600Y187894I-146J-137*
G01Y187868*
X183572Y187797*
X183466Y187683*
X183341Y187621*
G03X181828Y185931I187J-1690*
G01Y185604*
G02X181770Y185463I-200J0*
G01X179940Y183633*
X179863Y183603*
X179821Y183604*
X179779Y183605*
X179738Y183606*
X179655Y183607*
G03X178106Y183332I0J-4500*
G02X178073Y183322I-74J186*
G03X175437Y181958I877J-4923*
G02X175296Y181900I-141J142*
G01X163100*
G03X160563Y180811I0J-3500*
G01X160535Y180782*
X160461Y180750*
X160134Y180746*
X160131*
G37*
G36*
X40491Y132100D02*
G01X24840D01*
G02X24698Y132159J200*
G01X20259Y136598*
G02X20200Y136740I140J142*
G01Y161141*
G02X20400Y161341I200J0*
G01X24249*
X24250*
G03X25364Y161757I0J1700*
G01X25391Y161781*
X25459Y161806*
X25793*
X25861Y161781*
X25888Y161757*
G03X27002Y161341I1114J1285*
G01X27003*
X29000*
G02X29200Y161141I0J-200*
G01Y161140*
G03X31781Y157749I3500J-14*
X32700Y157626I920J3377*
X35638Y159224I0J3500*
G02X35806Y159315I168J-109*
X35887Y159298I0J-200*
G03X37300Y159000I1413J3202*
X40618Y161386I0J3500*
G02X40723Y161504I190J-64*
G03X41112Y161757I-724J1539*
G01X41139Y161781*
X41207Y161806*
X41541*
X41609Y161781*
X41636Y161757*
G03X42750Y161341I1114J1285*
G01X42751*
X47871*
X47872*
G03X48986Y161757I0J1700*
G01X49013Y161781*
X49081Y161806*
X49415*
X49483Y161781*
X49510Y161757*
G03X50624Y161341I1114J1285*
G01X50625*
X55745*
X55746*
G03X56860Y161757I0J1700*
G01X56887Y161781*
X56955Y161806*
X57289*
X57357Y161781*
X57384Y161757*
G03X58498Y161341I1114J1285*
G01X58499*
X60150*
G03X60151Y161342I0J1*
X58499Y163041I-3997J-2234*
G01X60732Y165946*
G03Y165947I-1J1*
G01X60684Y165996*
X60732Y166045*
G03Y166046I-1J1*
G01X58499Y168951*
G03X60151Y170650I-2345J3933*
X60150Y170651I-1J0*
G01X58499*
X58498*
G03X57384Y170235I0J-1700*
G01X57357Y170211*
X57289Y170186*
X56955*
X56887Y170211*
X56860Y170235*
G03X56717Y170346I-1113J-1286*
G02X56635Y170472I114J164*
G03X53200Y173300I-3435J-672*
G01X53168*
X53135*
G03X49769Y170494I65J-3500*
G02X49684Y170367I-196J39*
G03X49510Y170235I939J-1418*
G01X49483Y170211*
X49415Y170186*
X49081*
X49013Y170211*
X48986Y170235*
G03X47872Y170651I-1114J-1285*
G01X47871*
X44133*
G02X43992Y170710I1J200*
G01X41360Y173342*
G03X41219Y173400I-141J-141*
G01X41218*
X36133*
G02X35990Y173460I0J200*
G03X33500Y174500I-2490J-2460*
X30000Y171046I0J-3500*
G01Y171007*
X29969Y170934*
X29741Y170709*
G02X29600Y170651I-141J142*
G01X27003*
X27002*
G03X25888Y170235I0J-1700*
G01X25861Y170211*
X25793Y170186*
X25459*
X25391Y170211*
X25364Y170235*
G03X24948Y170501I-1114J-1285*
G01X24947*
G02X24147Y171062I1131J2464*
X24089Y171203I141J141*
G01Y176722*
G03X24031Y176864I-200J1*
G01X22759Y178136*
G02X22700Y178277I140J142*
G01Y181967*
G02X22760Y182110I200J0*
G03X21089Y188010I-2460J2490*
G02X20941Y188153I45J195*
G03X17563Y190737I-3378J-916*
X15263Y189875I0J-3500*
G01X15219Y189836*
X15102Y189819*
X14717Y189994*
G02X14600Y190176I83J182*
G01Y192012*
G02X14659Y192153I200J-1*
G01X15691Y193186*
G03X15750Y193327I-140J142*
G01Y195365*
G03X15699Y195498I-200J0*
G02X15269Y196629I1270J1130*
G01Y197092*
G02X15328Y197233I200J-1*
G01X15957Y197862*
G02X16098Y197921I142J-140*
X16209Y197887I0J-199*
G03X18150Y197300I1940J2913*
X21597Y200192I0J3500*
G01X21608Y200253*
X21694Y200341*
X22182Y200438*
X22295Y200389*
X22329Y200337*
G03X30011Y196115I7682J4877*
X35539Y197986I1J9099*
X36658Y211427I-5529J7227*
G01X36618Y211470*
X36597Y211588*
X36767Y211980*
G02X36950Y212100I183J-80*
G01X36951*
X49000*
G02X49166Y212011I0J-200*
G01X49379Y211692*
X49388Y211592*
X49369Y211546*
G03X52600Y206700I3231J-1346*
G01X52622*
X52662*
X52736Y206670*
X54347Y205058*
G03X54488Y205000I141J141*
G01X54489*
X56342*
G02X56483Y204941I-1J-200*
G01X58263Y203161*
G03X58289Y203139I142J141*
G01X59710Y202136*
G03X59824Y202100I114J163*
G01X59825*
X65502*
G02X65686Y201976I-1J-200*
G01X65710Y201920*
X65686Y201801*
X65315Y201430*
X65241Y201400*
X65201*
X65179*
G03X61883Y196724I1J-3500*
X65179Y194400I3297J1176*
X67351Y195155I1J3500*
G01X67476Y195199*
X67485*
X67494Y195198*
X67614Y195186*
G02X67746Y195118I-19J-199*
G03X68212Y194668I2654J2282*
G01X68250Y194638*
X68289Y194549*
X68264Y194125*
X68214Y194042*
X68173Y194016*
G03X67369Y192571I897J-1445*
G01Y189029*
G03X69069Y187328I1700J-1*
G01X71431*
G03X73131Y189029I0J1700*
G01Y189500*
G02X73331Y189700I200J0*
G01X73469*
G02X73669Y189500I0J-200*
G01Y189029*
G03X75369Y187328I1700J-1*
G01X77336*
G02X77486Y187260I0J-200*
G01X77713Y187000*
X77738Y186917*
X77732Y186874*
G03X77721Y186016I3468J-474*
G01X77726Y185973*
X77700Y185892*
X77472Y185638*
G02X77324Y185572I-148J134*
G01X77323*
X76469*
G03X74769Y183871I0J-1700*
G01Y182474*
X74770Y182473*
G03X74771Y182474I0J1*
G01X74781Y182499*
G03X76469Y183871I-1010J2968*
G01X77900Y182100*
X76469Y180329*
G03X74781Y181701I-2698J-1595*
G01X74771Y181726*
G03X74770Y181727I-1J0*
G01X74769Y181726*
Y180329*
G03X75130Y179281I1700J0*
G01X75172Y179158*
Y179042*
X75130Y178919*
G03X74769Y177871I1340J-1048*
G01Y174329*
G03X75721Y172802I1700J0*
G02X75818Y172697I-89J-180*
G01X75864Y172585*
G02X75868Y172442I-184J-77*
G03X75769Y171871I1602J-572*
G01Y170474*
X75770Y170473*
G03X75771Y170474I0J1*
G01X75781Y170499*
G03X77469Y171871I-1010J2968*
G01X78900Y170100*
X77469Y168329*
G03X75781Y169701I-2698J-1595*
G01X75771Y169726*
G03X75770Y169727I-1J0*
G01X75769Y169726*
Y168329*
G03X76885Y166732I1700J0*
G01X76933Y166714*
X77000Y166637*
X77084Y166258*
G02X77030Y166073I-195J-43*
G01X75744Y164787*
G03X75686Y164646I141J-141*
G01Y158254*
G03X75744Y158113I200J0*
G01X79041Y154816*
G02X79100Y154674I-140J-142*
G01Y148300*
G02X78900Y148100I-200*
G01X52057*
G02X51957Y148127I0J200*
G03X50200Y148600I-1757J-3027*
G01X47200*
G03X43911Y146297I0J-3500*
X44763Y142587I3289J-1198*
G01X44807Y142545*
X44832Y142426*
X44648Y141969*
X44548Y141900*
X44486*
G03X40999Y138387I13J-3500*
X44499Y134900I3500J13*
G01X44522*
X44562*
X44636Y134870*
X45964Y133542*
G02X46007Y133324I-141J-141*
G01X45984Y133268*
X45883Y133200*
X41756*
G03X41615Y133142I0J-200*
G01X40632Y132159*
G02X40491Y132100I-142J140*
G37*
G36*
X82423Y89300D02*
G01X63809D01*
G02X63668Y89359I1J200*
G01X60503Y92524*
X60475Y92575*
X60469Y92603*
X60428Y92773*
G03X60410Y92816I-193J-55*
G02X60259Y93219I1343J733*
X60263Y93322I195J44*
G03X59905Y97771I-5731J1778*
G01X59882Y97817*
X59887Y97921*
X60094Y98254*
G02X60264Y98349I170J-105*
G01X63619*
G03X65319Y100049J1700*
G01Y105959*
G03X63619Y107659I-1700J0*
G01X61907*
G02X61729Y107769I1J200*
G03X58600Y109700I-3129J-1569*
X56210Y108757I0J-3500*
G01X56181Y108730*
X56109Y108703*
X55753Y108708*
X55682Y108738*
X55654Y108766*
G03X53185Y109786I-2470J-2480*
X49928Y107568I0J-3500*
G01X49835Y107464*
X49510Y107243*
X49483Y107219*
X49415Y107194*
X49081*
X49013Y107219*
X48986Y107243*
G03X48570Y107509I-1114J-1285*
G01X48569*
G02X47769Y108070I1131J2464*
X47711Y108210I141J141*
G01Y115929*
G03X47653Y116070I-200J0*
G01X47399Y116323*
X47369Y116397*
Y116438*
G03X43869Y119960I-3500J22*
G01X43586Y119949*
G03X40437Y115770I282J-3489*
G02X40363Y115572I-196J-40*
G03X40010Y115260I2136J-2773*
G02X39867Y115200I-143J139*
G01X35988*
G03X35847Y115142I0J-200*
G01X31064Y110359*
G02X30923Y110300I-142J140*
G01X22222*
X22221*
G03X22080Y110242I0J-200*
G01X19556Y107718*
G02X19415Y107659I-142J140*
G01X19129*
X19128*
G03X18014Y107243I0J-1700*
G01X17987Y107219*
X17919Y107194*
X17585*
X17517Y107219*
X17490Y107243*
G03X16376Y107659I-1114J-1285*
G01X16375*
X14658*
G03X14657Y107658I0J-1*
X16375Y105959I4447J2779*
G01X13815Y102504*
X11255Y105959*
G03X13136Y107938I-2729J4477*
G01X13131Y107943*
X13100Y108016*
Y108056*
G03X6000Y115100I-7100J-56*
X2119Y113945I1J-7100*
G01X2073Y113915*
X1963Y113911*
X1605Y114105*
G02X1500Y114280I95J176*
G01Y161552*
G02X1623Y161736I200J-1*
G01X2020Y161902*
X2139Y161878*
X2182Y161836*
G03X3381Y161341I1199J1206*
G01X5032*
G03X5033Y161342I0J1*
X3381Y163041I-3997J-2234*
G01X5941Y166371*
X8501Y163041*
G03X6849Y161342I2345J-3933*
X6850Y161341I1J0*
G01X8501*
X8502*
G03X9616Y161757I0J1700*
G01X9643Y161781*
X9711Y161806*
X10045*
X10113Y161781*
X10140Y161757*
G03X11144Y161345I1114J1285*
G02X11274Y161285I-13J-200*
G01X11358Y161200*
G02X11415Y161060I-143J-140*
G01Y160674*
G03X11473Y160532I200J-1*
G01X13741Y158264*
G02X13800Y158123I-140J-142*
G01Y134089*
G03X13858Y133947I200J-1*
G01X22047Y125758*
G03X22188Y125700I141J141*
G01X22189*
X41867*
G02X42010Y125640I0J-200*
G03X44500Y124600I2490J2460*
X47999Y128010I0J3500*
G01X48000Y128049*
X48031Y128121*
X48259Y128343*
G02X48399Y128400I140J-143*
G01X50877*
G02X51027Y128332I0J-200*
G03X53650Y127150I2623J2318*
X56681Y128900I0J3500*
G02X56854Y129000I173J-100*
G01X58979*
G02X59156Y128893I0J-200*
G01X59347Y128531*
X59341Y128420*
X59310Y128374*
G03X58763Y127060I2890J-1974*
G02X58626Y126907I-196J38*
G03X56328Y122523I1043J-3341*
X59669Y120065I3341J1042*
X60574Y120184I0J3500*
G01X60613Y120195*
X60692Y120184*
X61006Y120002*
X61054Y119939*
X61064Y119901*
G03X64447Y117300I3383J899*
G01X64745Y117312*
G03X67927Y120421I-298J3488*
G01X67935Y120498*
X68049Y120600*
X68642*
G02X68783Y120541I-1J-200*
G01X72166Y117158*
G03X72307Y117100I141J141*
G01X80693*
G03X80834Y117158I0J200*
G01X83017Y119341*
G02X83158Y119400I142J-140*
G01X97750*
G02X97950Y119200I0J-200*
G01Y114347*
G02X97889Y114203I-200J0*
G01X97652Y113975*
X97576Y113946*
X97535Y113948*
X97400Y113951*
G03X93946Y109883I0J-3501*
G01X93949Y109866*
Y109850*
G02X93749Y109650I-200J0*
G01X93739*
X93738*
G03X93597Y109592I0J-200*
G01X93509Y109504*
X93424Y109474*
X93378Y109479*
X93185Y109495*
X93088Y109499*
X92991Y109500*
G03X89492Y106090I0J-3500*
G01X89491Y106051*
X89459Y105979*
X89232Y105757*
G02X89092Y105700I-140J143*
G01X85763*
G03X85622Y105642I0J-200*
G01X81839Y101859*
G02X81697Y101800I-142J140*
G01X76202*
X76088Y101902*
X76080Y101979*
G03X72600Y105101I-3480J-379*
G01X72410Y105095*
X72221Y105080*
G03X69109Y101350I380J-3480*
G02X68968Y101145I-199J-14*
G03X67036Y95937I1032J-3345*
X70000Y94300I2963J1864*
X72490Y95340I0J3501*
G02X72633Y95400I143J-139*
G01X83926*
G02X84126Y95200I0J-200*
G01Y91003*
G02X84067Y90862I-200J1*
G01X82564Y89359*
G02X82423Y89300I-142J140*
G37*
G36*
X236200Y1500D02*
G01X233724D01*
G02X233540Y1621I0J200*
G01X233371Y2013*
X233392Y2131*
X233433Y2174*
G03X233050Y15037I-6623J6240*
X226810Y17514I-6240J-6623*
X220187Y14654I0J-9100*
X220188Y2174I6624J-6239*
G01X220229Y2131*
X220249Y2013*
X220080Y1621*
G02X219896Y1500I-184J79*
G01X36924*
G02X36740Y1621I0J200*
G01X36571Y2013*
X36592Y2131*
X36633Y2174*
G03X36250Y15037I-6623J6240*
X30010Y17514I-6240J-6623*
X23387Y14654I0J-9100*
X23388Y2174I6623J-6239*
G01X23429Y2131*
X23449Y2013*
X23280Y1621*
G02X23096Y1500I-184J79*
G01X11779*
G02X11627Y1570I0J200*
G01X11567Y1641*
X11568Y1647*
X11399Y1869*
X11381Y1961*
X11393Y2006*
G03X11500Y2800I-2893J794*
G01Y3660*
G02X11559Y3802I200J0*
G01X19642Y11885*
G03X19683Y11945I-142J141*
G01Y11946*
X19686Y11952*
Y11953*
X19687*
X19729Y12055*
X19753Y12082*
G03X20814Y13774I-4052J3719*
G02X20841Y13823I187J-71*
G03X22166Y17131I-5140J3978*
G01X22223Y17252*
X26613Y21641*
G02X26754Y21700I142J-140*
G01X196100*
G03X201100Y26700I0J5000*
X196100Y31700I-5000J0*
G01X22612*
X22611*
G03X22470Y31642I0J-200*
G01X15127Y24299*
X15065Y24269*
X15031Y24266*
G03X9898Y20730I670J-6466*
G02X9757Y20624I-179J91*
G01X9477Y20565*
X9471Y20564*
X9454Y20562*
X9436Y20561*
G02X9377Y20570I0J200*
G01X9368Y20573*
X9286Y20602*
X9259Y20624*
X9222Y20654*
X9205Y20668*
X9191Y20686*
G02X9167Y20723I155J127*
G01X9131Y20798*
G02X9111Y20885I180J87*
G01Y20961*
G02X9187Y21118I200J0*
G03X11135Y27978I-3787J4782*
G02X11182Y28188I188J68*
G01X13442Y30447*
G03X13500Y30589I-141J141*
G01Y34923*
G02X13559Y35064I200J-1*
G01X18236Y39741*
G02X18377Y39800I142J-140*
G01X61927*
G02X62004Y39784I-1J-200*
G01X62109Y39741*
X62137Y39713*
G03X64600Y38700I2463J2487*
X67087Y39737I0J3500*
X67063Y44687I-2487J2463*
X64600Y45700I-2463J-2487*
X62137Y44687I0J-3500*
G01X62109Y44659*
X62003Y44616*
G02X61927Y44600I-79J184*
G01X16389*
X16388*
G03X16247Y44542I0J-200*
G01X11025Y39320*
G02X10884Y39261I-142J140*
G01X10875*
X10866Y39262*
X10565Y39289*
X10442Y39347*
X10414Y39375*
X10404Y39389*
G03X9319Y40574I-5002J-3491*
G01X9305Y40586*
X9298Y40592*
X9284Y40606*
G02X9226Y40747I141J141*
G01Y41054*
X9237Y41102*
G02X9290Y41200I195J-42*
G01X9298Y41208*
X9305Y41214*
X9319Y41226*
G03Y50574I-3919J4674*
G01X9305Y50586*
X9298Y50592*
X9284Y50606*
G02X9226Y50747I141J141*
G01Y51054*
X9237Y51102*
G02X9290Y51200I195J-42*
G01X9298Y51208*
X9305Y51214*
X9319Y51226*
G03X9938Y59976I-3919J4674*
G01X9885Y60036*
X9889Y60195*
X10236Y60541*
G02X10377Y60600I142J-140*
G01X20869*
G02X21060Y60460I0J-200*
G01X21194Y60033*
X21152Y59909*
X21098Y59872*
G03X20634Y49568I3721J-5330*
X24819Y48042I4185J4974*
X30877Y52186I0J6500*
G02X30923Y52256I186J-72*
X32545Y53280I3102J-3116*
G03X32578Y53296I-70J187*
G01X32672Y53353*
X32696Y53368*
X32776Y53392*
G02X32802Y53397I51J-194*
X32833Y53400I35J-199*
G01X36811*
X36812*
G03X36953Y53458I0J200*
G01X39336Y55841*
G02X39477Y55900I142J-140*
G01X43576*
G02X43727Y55831I0J-200*
G01X43954Y55570*
X43979Y55485*
X43972Y55441*
X43971Y55437*
X43970Y55423*
G03X47891Y48549I6440J-882*
X50410Y48041I2519J5992*
X55546Y50557I0J6500*
X55493Y58593I-5136J3984*
G01X55472Y58620*
X55449Y58684*
Y58868*
Y58877*
G02X55462Y58940I200J-8*
G01X55468Y58954*
X55543Y59111*
G03X55555Y59144I-182J85*
G01X55562Y59170*
X55590Y59216*
X55618Y59244*
G02X55757Y59300I139J-145*
G01X60297*
G02X60439Y59241I0J-200*
G01X61922Y57758*
G03X62063Y57700I141J141*
G01X63906*
G02X64073Y57609I-1J-200*
G01X64256Y57330*
G02X64273Y57142I-167J-110*
G01X64266Y57126*
X64256Y57102*
G03X66210Y49433I5974J-2561*
X70230Y48041I4020J5108*
X74123Y49336I0J6500*
X76205Y57102I-3892J5206*
G01X76192Y57133*
X76188Y57141*
G02X76205Y57330I184J79*
G01X76388Y57609*
G02X76556Y57700I168J-109*
G01X80001*
G02X80144Y57639I-1J-200*
G01X80344Y57434*
G02X80387Y57368I-143J-140*
G01X80402Y57330*
X80401Y57290*
G03X81413Y54737I3499J-90*
G01X81440Y54709*
X81458Y54667*
G03X81471Y54641I185J76*
G01X81485Y54618*
X81500Y54565*
Y50789*
G03X81558Y50647I200J-1*
G01X85847Y46358*
G03X85988Y46300I141J141*
G01X85989*
X105227*
X105244Y46299*
G02X105288Y46290I-18J-199*
G01X105304Y46284*
X105409Y46240*
X105437Y46213*
G03X107900Y45200I2463J2487*
X110363Y46213I0J3500*
G01X110391Y46240*
X110433Y46258*
G03X110459Y46271I-76J185*
G01X110482Y46285*
X110535Y46300*
X122111*
X122112*
G03X122253Y46358I0J200*
G01X127109Y51214*
G02X127250Y51272I141J-141*
X127391Y51214I0J-199*
G01X132447Y46158*
G03X132588Y46100I141J141*
G01X132589*
X167411*
X167412*
G03X167553Y46158I0J200*
G01X172358Y50964*
G02X172499Y51022I141J-141*
X172576Y51007I1J-199*
G01X172632Y50984*
X172700Y50883*
Y50689*
G03X172758Y50547I200J-1*
G01X177047Y46258*
G03X177188Y46200I141J141*
G01X177189*
X217311*
X217312*
G03X217453Y46258I0J200*
G01X223042Y51847*
G03X223100Y51989I-141J141*
G01Y57407*
G02X223104Y57446I200J-1*
G01X223112Y57485*
G02X223123Y57522I196J-38*
G01X223159Y57609*
X223187Y57637*
G03X223163Y62587I-2487J2463*
X220700Y63600I-2463J-2487*
X218213Y62563I0J-3500*
Y57637I2487J-2463*
G01X218241Y57609*
X218284Y57503*
G02X218300Y57427I-184J-79*
G01Y53977*
G02X218241Y53836I-200J1*
G01X215464Y51059*
G02X215323Y51000I-142J140*
G01X212610*
G02X212439Y51096I0J200*
G01X212283Y51351*
G02X212254Y51455I171J104*
G01Y51534*
G02X212275Y51624I200J1*
G03X206466Y61042I-5809J2917*
X204444Y60720I-1J-6501*
G01X204430Y60715*
X204360Y60703*
X204314Y60710*
G02X203845Y60843I356J2150*
G01X203761Y60877*
X203752Y60880*
X203665Y60925*
G03X203626Y60941I-95J-176*
G01X203469Y60978*
X203441Y60985*
X203390Y61012*
X202119Y62283*
G03X201978Y62342I-142J-140*
G01X162533*
X162532*
G02X162391Y62400I0J200*
G01X160908Y63883*
G03X160767Y63942I-142J-140*
G01X114612*
G02X114471Y64001I1J200*
G01X112830Y65642*
G03X112689Y65700I-141J-141*
G01X112688*
X98934*
G02X98740Y65854I1J200*
G01X98652Y66221*
G02X98705Y66409I195J47*
G01X98754Y66457*
X98782Y66471*
G03X98780Y78046I-2960J5787*
G01X98738Y78068*
X98681Y78146*
X98623Y78516*
X98622Y78520*
G02X98680Y78685I199J23*
G01X100840Y80845*
G02X100981Y80904I142J-140*
G01X115432*
X115538Y80826*
X115557Y80763*
G03X116334Y79419I3343J1036*
G01X116355Y79397*
X116381Y79343*
X116385Y79314*
G02X116369Y79198I-198J-32*
G01X116211Y78862*
G02X116030Y78748I-181J86*
G01X116023*
X116013*
X116010*
X116008*
X115643Y78758*
G03X109315Y73744I0J-6500*
X113080Y66284I6328J-1486*
X115643Y65758I2562J5974*
X121081Y68697I0J6500*
X120094Y76995I-5438J3561*
X119314Y77622I-4450J-4738*
G01Y77623*
G02X119241Y77714I113J165*
X119231Y77831I186J75*
G01X119311Y78193*
G02X119369Y78295I195J-43*
X119474Y78347I137J-146*
G03X121992Y80159I-574J3453*
G01X122016Y80206*
X122106Y80262*
X122457Y80278*
X122466*
G02X122561Y80254I0J-200*
G01X122657Y80202*
X122693Y80170*
X122706Y80150*
G03X124774Y79055I2068J1405*
G01X124775*
X131865*
G03X134359Y81376I0J2500*
G01X134360Y81400*
X134383Y81470*
X134391Y81495*
G02X135854Y82618I2271J-1444*
G01X135870Y82624*
G03X135900Y82640I-79J184*
G01X135909Y82645*
X135921Y82652*
X135960Y82670*
G02X135986Y82680I84J-181*
G01X136025Y82692*
X136059Y82700*
X157451*
G02X157507Y82692I0J-200*
G01X157589Y82667*
X157613Y82652*
X157633Y82640*
X157679Y82618*
G02X159142Y81495I-809J-2569*
G01X159150Y81470*
X159173Y81400*
X159174Y81376*
G03X160283Y79474I2494J180*
G01X160288Y79470*
X160312Y79451*
X160374Y79390*
G02X160428Y79206I-141J-141*
G01X160352Y78856*
G02X160184Y78700I-195J42*
G01X160183*
G03X154559Y72519I871J-6442*
X159669Y65907I6495J-261*
X161054Y65757I1388J6351*
X167068Y69791I0J6501*
X164528Y77753I-6014J2468*
X163511Y78276I-3470J-5497*
G01X163492Y78284*
G02X163371Y78508I75J185*
G01X163446Y78893*
G02X163642Y79055I196J-38*
G01X168758*
G03X171252Y81376I0J2500*
G01X171254Y81400*
X171277Y81470*
G02X171285Y81490I189J-64*
X171299Y81517I184J-78*
X172748Y82618I2257J-1467*
G01X172794Y82640*
X172814Y82652*
X172838Y82667*
X172919Y82692*
G02X172946Y82698I57J-192*
X172974Y82700I28J-198*
G01X172976*
X194344*
X194345*
G02X194401Y82692I0J-200*
G01X194456Y82676*
X194468Y82670*
X194506Y82652*
X194518Y82645*
X194521Y82643*
X194524Y82641*
G03X194557Y82624I108J169*
G01X194573Y82618*
G02X196036Y81495I-808J-2567*
G01X196044Y81470*
X196066Y81400*
X196068Y81376*
G03X198562Y79055I2494J179*
G01X203951*
X204062Y78961*
X204075Y78891*
Y78887*
X204146Y78527*
G02X204149Y78488I-197J-35*
G01Y78468*
G02X204024Y78282I-200J-1*
G01X204021Y78281*
G03X200110Y70896I2445J-6023*
X206466Y65758I6356J1362*
G01X206704Y65762*
G03X212905Y71364I-238J6496*
X208465Y78443I-6439J894*
X207179Y78719I-2000J-6185*
G01X207116Y78726*
X207021Y78810*
X207006Y78872*
X206905Y79301*
X206953Y79419*
X207006Y79453*
G03X208152Y81555I-1354J2102*
G01Y88645*
G03X206950Y90782I-2500J0*
G01X206938Y90790*
X206912Y90804*
X206880Y90834*
X206868Y90851*
Y90852*
G02X206835Y90930I164J115*
G01X206772Y91268*
X206782Y91310*
X206793Y91352*
X206820Y91386*
G03X206583Y99096I-4713J3714*
X202108Y101100I-4476J-3996*
X198950Y100202I-1J-6000*
X196377Y93322I3158J-5102*
G02X196381Y93219I-191J-59*
X196229Y92816I-1495J334*
G01X196212Y92773*
X196170Y92603*
X196164Y92575*
X196137Y92524*
X193972Y90359*
G02X193830Y90300I-142J140*
G01X179977*
G02X179836Y90359I1J200*
G01X179259Y90936*
G02X179200Y91077I140J142*
G01Y92127*
X179201Y92144*
G02X179210Y92188I199J-18*
G01X179216Y92204*
X179260Y92309*
X179287Y92337*
G03X179662Y96815I-2487J2463*
G01X179638Y96849*
X179621Y96931*
X179700Y97300*
X179725Y97334*
X179749Y97368*
X179792Y97394*
X179806Y97402*
G03X180829Y102460I-1806J2998*
X178000Y103900I-2830J-2060*
X175537Y102887I0J-3500*
G01X175509Y102860*
X175467Y102842*
G03X175441Y102829I76J-185*
G01X175418Y102815*
X175365Y102800*
X161089*
X161088*
G03X160947Y102742I0J-200*
G01X158364Y100159*
G02X158223Y100100I-142J140*
G01X154377*
G02X154236Y100159I1J200*
G01X153559Y100836*
G02X153500Y100977I140J142*
G01Y102927*
X153501Y102944*
G02X153510Y102988I199J-18*
G01X153516Y103004*
X153560Y103109*
X153587Y103137*
G03X154123Y107365I-2487J2463*
X151100Y109100I-3023J-1765*
X150221Y108988I0J-3502*
G01X150220*
X150208Y108985*
X150181Y108981*
G02X150155Y108979I-28J198*
X150059Y109004I1J200*
G01X149994Y109037*
G02X149968Y109052I87J180*
X149936Y109081I118J162*
G01X149866Y109159*
X149851Y109198*
X149850Y109200*
G03X146600Y111401I-3250J-1300*
X145792Y111306I2J-3500*
G01X145769Y111300*
X145680*
G02X145485Y111454I0J200*
G01X145469Y111522*
X145528Y111648*
X145606Y111687*
X145616Y111690*
G03X148257Y113769I-2016J5278*
G01X148270Y113789*
X148310Y113824*
G02X148372Y113862I134J-149*
G01X148406Y113875*
X148757*
X148798Y113868*
G02X148895Y113820I-37J-197*
G01X148930Y113789*
X148943Y113769*
G03X153600Y111318I4657J3199*
X157193Y112608I0J5650*
X157631Y120927I-3593J4360*
X153600Y122618I-4031J-3959*
X149305Y120638I1J-5650*
X148943Y120168I4289J-3678*
G01X148930Y120148*
X148890Y120112*
G02X148758Y120062I-132J150*
G01X148757*
X148443*
X148442*
G02X148310Y120112I0J200*
G01X148270Y120148*
X148257Y120168*
G03X143600Y122619I-4657J-3199*
X138943Y120168I0J-5650*
G01X138930Y120148*
X138890Y120112*
G02X138758Y120062I-132J150*
G01X138757*
X138443*
X138442*
G02X138310Y120112I0J200*
G01X138270Y120148*
X138257Y120168*
G03X133600Y122619I-4657J-3199*
X128943Y120168I0J-5650*
G01X128930Y120148*
X128890Y120112*
G02X128758Y120062I-132J150*
G01X128757*
X128443*
X128442*
G02X128310Y120112I0J200*
G01X128270Y120148*
X128257Y120168*
G03X123600Y122619I-4657J-3199*
X118943Y120168I0J-5650*
G01X118930Y120148*
X118890Y120112*
G02X118758Y120062I-132J150*
G01X118757*
X118443*
X118442*
G02X118310Y120112I0J200*
G01X118270Y120148*
X118257Y120168*
G03X113600Y122618I-4656J-3200*
X109670Y121027I0J-5650*
G01X109635Y120993*
X109541Y120965*
X109124Y121045*
X109047Y121105*
X109027Y121150*
G03X106750Y122618I-2277J-1032*
G01X106184*
G02X105999Y122742I0J200*
G01X105976Y122798*
X106000Y122917*
X116124Y133041*
G02X116265Y133100I142J-140*
G01X185257*
X185274Y133097*
X185292Y133094*
G02X185434Y132992I-34J-197*
G01X185449Y132965*
X185455Y132935*
G03X188889Y130111I3434J676*
G01X189076Y130116*
X189263Y130131*
G03X192383Y133407I-374J3480*
G01X192387Y133466*
X192456Y133561*
X192853Y133712*
G02X192923Y133725I71J-187*
X193065Y133666I0J-200*
G01X193204Y133527*
G02X193263Y133385I-140J-142*
G01Y133383*
G03X195547Y130081I3500J-20*
X196763Y129863I1216J3282*
X199289Y130940I0J3500*
G01X199316Y130969*
X199390Y131001*
X199717Y131004*
X199719*
G02X199860Y130946I0J-200*
G01X199984Y130821*
G03X200125Y130763I141J141*
G01X200126*
X201964*
G02X202041Y130747I-1J-200*
G01X202146Y130704*
X202174Y130676*
G03X204637Y129663I2463J2487*
X207176Y130754I0J3500*
G01X207180Y130758*
X207182Y130760*
G02X207323Y130819I142J-140*
X207465Y130760I0J-200*
G01X207477Y130747*
G03X207618Y130689I141J141*
G01X209838*
G02X209915Y130673I-1J-200*
G01X210020Y130630*
X210048Y130602*
G03X212511Y129589I2463J2487*
X214006Y129924I1J3500*
X216010Y133194I-1495J3165*
G01X216009Y133197*
Y133200*
G02X216209Y133400I200J0*
G01X216210*
X216393*
G02X216534Y133341I-1J-200*
G01X216826Y133049*
G02X216885Y132907I-140J-142*
G01Y132905*
G03X220385Y129385I3500J-20*
X221272Y129499I1J3500*
X223505Y134472I-887J3386*
G01X223491Y134499*
X223483Y134515*
G02X223489Y134710I178J92*
G01X223666Y135003*
G02X223837Y135100I171J-103*
G01X225200*
G03X226900Y136800J1700*
G01Y139800*
G03X225200Y141500I-1700J0*
G01X222200*
X222199*
G03X221251Y141211I0J-1700*
G01X221220Y141190*
X221147Y141174*
X220993Y141197*
G02X220859Y141280I30J198*
G01X220585Y141762*
X220584Y141764*
X220580Y141772*
X220579Y141774*
Y141775*
X220389Y142094*
X220370Y142119*
X220336Y142218*
X220328Y142252*
Y142348*
X220336Y142382*
X220370Y142480*
X220389Y142506*
G03X220731Y143528I-1358J1023*
G01Y147071*
G03X219031Y148772I-1701J0*
G01X216669*
G03X214969Y147071I0J-1700*
G01Y146600*
G02X214769Y146400I-200*
G01X214631*
G02X214431Y146600J200*
G01Y147071*
G03X214001Y148202I-1700J1*
G02X213950Y148335I149J133*
G01Y153161*
G03X213892Y153303I-200J1*
G01X213736Y153458*
G02X213693Y153676I141J141*
G01X213716Y153732*
X213817Y153800*
X214097*
X214106*
G02X214291Y153648I-9J-200*
G03X217709Y150901I3418J753*
X219532Y151413I0J3500*
G01X219540Y151418*
X219677Y151493*
X219811Y151453*
X219834Y151438*
G03X221699Y150900I1865J2962*
X223800Y151600I1J3500*
G01X223919Y151640*
G02X224006Y151620I0J-201*
G01X224009Y151619*
X224330Y151459*
G02X224440Y151280I-90J-179*
G01Y149692*
G02X224435Y149646I-200J-2*
G01X224419Y149580*
X224409Y149561*
G03X224240Y148821I1531J-739*
G01Y145820*
G03X225940Y144120I1700*
G01X228940*
G03X230640Y145820J1700*
G01Y148821*
G03X230471Y149561I-1700J1*
G01X230461Y149580*
X230446Y149646*
G02X230440Y149692I195J49*
G01Y150989*
G02X230499Y151130I200J-1*
G01X232810Y153441*
G02X232951Y153500I142J-140*
G01X235477*
G02X235632Y153426I0J-200*
G03X236797Y152807I1318J1074*
G01X236812Y152805*
X236843Y152798*
X236862Y152790*
X236960Y152744*
X236986Y152718*
X237043Y152659*
G02X237100Y152519I-143J-140*
G01Y145881*
G02X237043Y145741I-200J0*
G01X236986Y145682*
X236984Y145680*
G02X236934Y145644I-141J142*
G01X236926Y145640*
X236832Y145596*
X236797Y145593*
G03X235250Y143900I153J-1693*
G01Y139900*
G03X236950Y138200I1700*
G01X242450*
G03X243768Y138826I0J1700*
G02X243923Y138900I155J-126*
G01X244849*
G02X244999Y138832I0J-200*
G01X245198Y138608*
X245204Y138601*
G02X245246Y138451I-156J-125*
G03X246571Y133846I6054J-751*
G01X246598Y133814*
X246620Y133733*
X246614Y133692*
X246574Y133401*
G02X246546Y133325I-198J30*
G01X246524Y133289*
X246489Y133265*
G03X245200Y130800I1712J-2465*
G01Y124600*
G03X248200Y121600I3000*
G01X254400*
X254404*
X254623Y121608*
X254841Y121632*
X254884Y121639*
X254968Y121615*
X255230Y121388*
G02X255300Y121237I-130J-152*
G01Y103600*
G02X255100Y103400I-200J0*
G01X254050*
G02X253870Y103513I0J200*
G01X253712Y103837*
G02X253735Y104048I180J87*
G03X254100Y105100I-1335J1052*
G01Y114100*
G03X252400Y115800I-1700J0*
G01X237400*
G03X235700Y114100I0J-1700*
G01Y105100*
G03X237400Y103400I1700J0*
G01X238517*
G02X238702Y103276J-200*
G01X238725Y103220*
X238701Y103101*
X236458Y100859*
G03X236400Y100717I141J-141*
G01Y77921*
G02X236293Y77744I-200J0*
G01X235978Y77579*
G02X235886Y77557I-91J178*
G01X235873*
X235817Y77561*
X235771Y77593*
G03X232057Y78759I-3715J-5334*
X227449Y76843I0J-6500*
X226743Y68517I4608J-4584*
X232057Y65759I5315J3742*
X234819Y66376I-2J6500*
X235771Y66924I-2755J5887*
G02X235872Y66960I115J-163*
G01X235929Y66963*
X236293Y66773*
G02X236400Y66596I-93J-177*
G01Y60204*
G02X236293Y60027I-200J0*
G01X235978Y59863*
G02X235884Y59840I-93J177*
G01X235873*
X235817Y59844*
X235771Y59876*
G03X232057Y61042I-3715J-5334*
X227449Y59126I0J-6500*
X226743Y50800I4608J-4584*
X232057Y48042I5315J3742*
X234819Y48659I-2J6500*
X235771Y49208I-2759J5885*
G02X235872Y49243I114J-164*
G01X235929Y49247*
X236293Y49056*
G02X236400Y48879I-93J-177*
G01Y1700*
G02X236200Y1500I-200*
G37*
%LPC*%
G36*
X16722Y88913D02*
G01X16789Y89000D01*
X16830Y88947*
X16831*
X20726Y93121*
G03X22425Y90635I6787J2815*
X22426Y90636I0J1*
G01Y93126*
G03X20726Y94826I-1700J0*
G01X12852*
G03X11152Y93126I0J-1700*
G01Y90148*
X11153Y90147*
Y90148*
G03X12852Y92522I-4211J4809*
G01X16721Y88913*
X16722*
G37*
G36*
X22426Y83874D02*
G01Y86364D01*
G03X22425Y86365I-1J0*
X20726Y83879I5088J-5301*
G01X20716Y83890*
X20715*
X20714*
Y83889*
X20726Y83874*
G03X18767Y82175I3395J-5893*
X18768Y82174I1J0*
G01X20726*
G03X22426Y83874I0J1700*
G37*
G36*
X65319Y167183D02*
G01Y168951D01*
G03X63619Y170651I-1700J0*
G01X61968*
G03X61967Y170650I0J-1*
X63619Y168951I3998J2235*
X65318Y167182I4423J2547*
X65319Y167183I0J1*
G37*
G36*
X59102Y181523D02*
G01X59111Y181575D01*
X59177Y181657*
X59593Y181822*
X59697Y181808*
X59739Y181776*
G03X60769Y181428I1031J1352*
G01X63131*
G03X64831Y183128I-1J1701*
G01Y183129*
Y184530*
G02X64819Y184501I-930J368*
G03X63131Y183129I1010J-2967*
X62101Y181959I1315J-2196*
G01X61799*
G03X60769Y183129I-2344J-1025*
G01X61760Y184825*
X61700Y184900*
X61760Y184975*
X60769Y186671*
G03X61799Y187841I-1315J2196*
G01X62101*
G03X63131Y186671I2345J1026*
X64819Y185299I2698J1595*
G02X64831Y185270I-919J-397*
G01Y186671*
G03X64470Y187719I-1701J0*
G01X64428Y187842*
Y187958*
X64470Y188081*
G03X64831Y189128I-1339J1048*
G01Y189129*
Y190530*
G02X64819Y190501I-930J368*
G03X63131Y189129I1010J-2967*
X62101Y187959I1315J-2196*
G01X61799*
G03X60769Y189129I-2344J-1025*
G01X61760Y190825*
X61700Y190900*
X61760Y190975*
X60769Y192671*
G03X61799Y193841I-1315J2196*
G01X62101*
G03X63131Y192671I2345J1026*
X64819Y191299I2698J1595*
G02X64831Y191270I-919J-397*
G01Y192671*
Y192672*
G03X63131Y194372I-1700J0*
G01X60769*
G03X59742Y194026I1J-1701*
G01X59696Y193991*
X59582Y193981*
X59158Y194195*
X59099Y194293*
X59100Y194350*
Y194400*
G03X55600Y197900I-3500J0*
X54178Y197598I0J-3500*
G01X54121Y197573*
X53999Y197596*
X53338Y198256*
X53312Y198366*
X53329Y198420*
G03X53423Y198771I-3329J1080*
X53500Y199500I-3423J730*
X51024Y202847I-3500J0*
X50000Y203000I-1024J-3347*
X46755Y200812I0J-3500*
X46500Y199500I3245J-1311*
X48410Y196382I3500J0*
G02X48461Y196345I-90J-178*
G01X52591Y192214*
G02X52650Y192073I-141J-142*
G01Y183958*
Y183957*
G02X52623Y183857I-200J0*
G03X52150Y182100I3027J-1757*
X54482Y178801I3500J0*
X55650Y178600I1169J3299*
X59102Y181523I0J3500*
G37*
G36*
X65319Y163041D02*
G01Y164810D01*
G03X65318Y164811I-1J0*
X63619Y163041I2726J-4317*
X61967Y161342I2345J-3933*
X61968Y161341I1J0*
G01X63619*
G03X65319Y163041J1700*
G37*
G36*
X147732Y72145D02*
G03X141233Y78758I-6499J113D01*
X134734Y72371I0J-6500*
X141233Y65758I6499J-113*
X147732Y72145I0J6500*
G37*
G36*
X227799Y102874D02*
G03X230366Y107041I-2099J4167D01*
X229668Y109495I-4666J-1*
G02X229638Y109600I170J105*
X229668Y109705I200J0*
G03X230366Y112159I-3968J2455*
X228252Y116065I-4666J0*
G01X228196Y116101*
X228151Y116226*
X228279Y116657*
G02X228471Y116800I192J-57*
G01X229560*
G03X229701Y116858I0J199*
G01X230854Y118011*
G02X230991Y118070I142J-141*
G01X231307Y118076*
X231379Y118049*
X231407Y118023*
G03X232928Y117431I1521J1658*
G01X232996Y117432*
X233065Y117436*
X233201Y117448*
G02X233225Y117449I20J-199*
X233275Y117443I1J-200*
G03X234400Y117300I1125J4358*
X237953Y119038I0J4501*
X238901Y121800I-3553J2763*
X238211Y124194I-4501J-1*
G02X238181Y124300I169J105*
X238211Y124406I200J1*
G03X238447Y124831I-3811J2394*
X238900Y126800I-4048J1968*
X237350Y130199I-4501J1*
X234400Y131300I-2949J-3400*
X231880Y130529I-1J-4501*
X229900Y126800I2521J-3728*
X230146Y125331I4501J-1*
G01X230162Y125285*
X230148Y125189*
X229931Y124884*
G02X229768Y124800I-163J116*
G01X229240*
G03X229099Y124742I0J-199*
G01X227216Y122859*
G02X227074Y122800I-142J141*
G01X224340*
G03X224199Y122742I0J-199*
G01X223980Y122522*
X223861Y122499*
X223805Y122522*
G02X223681Y122707I76J185*
G01Y124281*
G03X221981Y125981I-1700J0*
G01X220004*
G03X221981Y124281I4141J2816*
X223150Y123251I2196J1314*
G02X223161Y123100I-990J-148*
X223150Y122949I-1001J-3*
G03X221981Y121919I1026J-2343*
G01X219124Y122941*
X218930Y122850*
X218736Y122941*
X215879Y121919*
G03X214710Y122949I-2196J-1314*
G02X214699Y123100I989J148*
X214710Y123251I1000J3*
G03X215879Y124281I-1027J2344*
X217856Y125981I-2164J4516*
G01X215879*
G03X214179Y124281I0J-1700*
G01Y121919*
G03X214605Y120793I1700J0*
G02X214655Y120661I-150J-132*
G01Y120539*
G02X214605Y120407I-200J0*
G03X214179Y119281I1274J-1126*
G01Y116919*
G03X214605Y115793I1700J0*
G02X214655Y115661I-150J-132*
G01Y115539*
G02X214605Y115407I-200J0*
G03X214179Y114281I1274J-1126*
G01Y111919*
G03X214605Y110793I1700J0*
G02X214655Y110661I-150J-132*
G01Y110539*
G02X214605Y110407I-200J0*
G03X214179Y109281I1274J-1126*
G01Y106919*
G03X215879Y105219I1700J0*
G01X221274*
G02X221456Y105102I0J-200*
G03X225700Y102375I4244J1939*
X227799Y102874I0J4666*
G37*
G36*
X195157Y105073D02*
G02X195257Y105100I100J-173D01*
G01X195258*
X197670*
G03X198481Y105212I-1J3000*
G01X198508Y105219*
X200721*
G03X202421Y106919J1700*
G01Y109281*
Y109298*
Y125781*
G03X202221Y125981I-200J0*
G01X193119*
G03X192919Y125781I0J-200*
G01Y124966*
G02X192851Y124815I-201J0*
G01X192592Y124588*
X192509Y124563*
X192466Y124569*
X192233Y124592*
X192117Y124598*
X192000Y124600*
G03X188750Y122401I0J-3500*
X188500Y121100I3250J-1299*
X189902Y118298I3500J0*
G01X189937Y118272*
X189979Y118195*
X190005Y117805*
X189974Y117724*
X189943Y117693*
G03X188900Y115200I2457J-2493*
X191484Y111822I3500*
G01X191542Y111806*
X191621Y111716*
X191689Y111233*
X191638Y111125*
X191586Y111094*
G03X189900Y108101I1814J-2993*
X190373Y106343I3500J-1*
X193400Y104600I3027J1757*
X195157Y105073I0J3500*
G37*
G36*
X184990Y112640D02*
G03X186000Y115100I-2490J2460D01*
X184960Y117590I-3500J0*
G01X184931Y117618*
X184900Y117692*
Y118508*
X184931Y118582*
X184960Y118610*
G03X186000Y121100I-2460J2490*
X184960Y123590I-3500J0*
X182500Y124600I-2460J-2490*
X180010Y123560I0J-3500*
X179000Y121100I2490J-2460*
X180040Y118610I3500J0*
G01X180069Y118582*
X180100Y118508*
Y117692*
X180069Y117618*
X180040Y117590*
G03X179000Y115100I2460J-2490*
X180040Y112610I3500J0*
X182500Y111600I2460J2490*
X184990Y112640I0J3500*
G37*
G36*
X234380Y136800D02*
G01Y139800D01*
G03X232680Y141500I-1700J0*
G01X229680*
G03X227980Y139800I0J-1700*
G01Y136800*
G03X229680Y135100I1700*
G01X232680*
G03X234380Y136800J1700*
G37*
G36*
X193144Y72145D02*
G03X186645Y78758I-6499J113D01*
X180146Y72371I0J-6500*
X186645Y65758I6499J-113*
X193144Y72145I0J6500*
G37*
%LPD*%
G36*
X51500Y197100D02*
G01X51100D01*
X50000Y198200*
X49958Y199591*
X51500Y199500*
G03Y197100I2880J-1200*
G37*
G36*
X54539Y193339D02*
G03X53762Y194117I-1323J-544D01*
G02X53645Y194400I283J283*
X53762Y194683I400J0*
G03X54539Y195461I-545J1322*
G01X55700Y194400*
X54539Y193339*
G37*
G36*
X55801Y187959D02*
G01X55499D01*
G03X54469Y189129I-2344J-1025*
G01X55504Y190900*
X54469Y192671*
G03X55499Y193841I-1315J2196*
G01X55801*
G03X56831Y192671I2344J1025*
G01X55796Y190900*
X56831Y189129*
G03X55801Y187959I1315J-2196*
G37*
G36*
Y181959D02*
G01X55499D01*
G03X54469Y183129I-2344J-1025*
G01X55504Y184900*
X54469Y186671*
G03X55499Y187841I-1315J2196*
G01X55801*
G03X56831Y186671I2344J1025*
G01X55796Y184900*
X56831Y183129*
G03X55801Y181959I1315J-2196*
G37*
G36*
X192329Y115129D02*
G01X192400Y116700D01*
G03X192950Y116590I550J1320*
X193500Y116700I0J1430*
G02X193900Y116300I0J-400*
G03X193790Y115750I1320J-550*
X193900Y115200I1431J0*
G01X192329Y115129*
G37*
G36*
X182500Y119145D02*
G02X182217Y119262I0J400D01*
G03X181439Y120039I-1322J-545*
G01X182500Y121200*
X183561Y120039*
G03X182783Y119262I544J-1322*
G02X182500Y119145I-283J283*
G37*
G36*
Y115000D02*
G01X181439Y116161D01*
G03X182217Y116938I-544J1322*
G02X182500Y117055I283J-283*
X182783Y116938I0J-400*
G03X183561Y116161I1322J545*
G01X182500Y115000*
G37*
G36*
X193061Y120039D02*
G01X191900Y121100D01*
X193061Y122161*
G03X193838Y121383I1322J544*
G02X193955Y121100I-284J-283*
X193838Y120817I-401J0*
G03X193061Y120039I545J-1322*
G37*
G36*
X232986Y120386D02*
G03X232279Y121093I-1202J-495D01*
G02X231986Y121800I707J707*
X232279Y122507I1000J0*
G03X232986Y123214I-495J1202*
G01X234650Y121800*
X232986Y120386*
G37*
G36*
X194619Y106919D02*
G03X193450Y107949I-2196J-1314D01*
G02X193439Y108100I989J148*
X193450Y108251I1000J3*
G03X194619Y109281I-1027J2344*
G01X197920Y108100*
X194619Y106919*
G37*
G36*
X221981Y116919D02*
G01X218680Y118100D01*
X221981Y119281*
G03X223150Y118251I2196J1314*
G02X223161Y118100I-990J-148*
X223150Y117949I-1001J-3*
G03X221981Y116919I1026J-2343*
G37*
G36*
X235814Y125386D02*
G01X234419Y126572D01*
X234400Y126550*
X234381Y126572*
X232986Y125386*
G03X232279Y126093I-1202J-495*
G02X231986Y126800I707J707*
X232279Y127507I1000J0*
G03X232986Y128214I-495J1202*
X233693Y128921I-495J1202*
G02X234400Y129214I707J-707*
X235107Y128921I0J-1000*
G03X235814Y128214I1202J495*
X236521Y127507I1202J495*
G02X236814Y126800I-707J-707*
X236521Y126093I-1000J0*
G03X235814Y125386I495J-1202*
G37*
G36*
X224169Y110628D02*
G03X222504Y112555I-3722J-1533D01*
X221981Y111919I1231J-1545*
G01X218830Y113100*
X221981Y114281*
G03X222893Y113403I1755J910*
G01X222933*
G03X224396Y113803I0J2874*
G01X225796Y112133*
X224169Y110628*
G37*
G36*
Y105510D02*
G03X222456Y107516I-3923J-1616D01*
X221981Y106919I1279J-1505*
G01X218830Y108100*
X221981Y109281*
G03X223008Y108353I1755J910*
G01X223039*
G03X224419Y108688I0J3010*
G01X225796Y107012*
X224169Y105510*
G37*
G36*
X232680Y136800D02*
G01X231198Y138071D01*
X231180Y138050*
X231162Y138071*
X229680Y136800*
G03X228231Y137984I-2405J-1465*
G02X228180Y138300I949J315*
X228231Y138616I1000J1*
G03X229680Y139800I-956J2649*
X230864Y141249I-1464J2405*
G02X231180Y141300I315J-950*
X231496Y141249I1J-1001*
G03X232680Y139800I2649J956*
X234128Y138616I2405J1464*
G02X234179Y138300I-950J-315*
X234128Y137984I-1001J-1*
G03X232680Y136800I957J-2648*
G37*
G36*
X186645Y67016D02*
G02X185938Y67309I0J1000D01*
G03X183817Y69430I-3607J-1486*
X181695Y71551I-3607J-1486*
G02X181402Y72258I707J707*
X181695Y72965I1000J0*
G03X183817Y75087I-1485J3607*
X185938Y77208I-1486J3607*
G02X186645Y77501I707J-707*
X187352Y77208I0J-1000*
G03X189473Y75087I3607J1486*
X191595Y72965I3607J1485*
G02X191888Y72258I-707J-707*
X191595Y71551I-1000J0*
G03X189473Y69430I1485J-3607*
X187352Y67309I1486J-3607*
G02X186645Y67016I-707J707*
G37*
G36*
X141233D02*
G02X140526Y67309I0J1000D01*
G03X138405Y69430I-3607J-1486*
X136283Y71551I-3607J-1486*
G02X135990Y72258I707J707*
X136283Y72965I1000J0*
G03X138405Y75087I-1485J3607*
X140526Y77208I-1486J3607*
G02X141233Y77501I707J-707*
X141940Y77208I0J-1000*
G03X144061Y75087I3607J1486*
X146183Y72965I3607J1485*
G02X146476Y72258I-707J-707*
X146183Y71551I-1000J0*
G03X144061Y69430I1485J-3607*
X141940Y67309I1486J-3607*
G02X141233Y67016I-707J707*
G37*
G54D11*
X5400Y5900D03*
X6300Y207421D03*
X251300Y127700D03*
G54D23*
X55650Y184900D03*
Y190900D03*
X77650Y176100D03*
X83950D03*
X77650Y182100D03*
X83950D03*
X78650Y170100D03*
X61950Y184900D03*
X76550Y190800D03*
X70250D03*
X61950Y190900D03*
X84950Y170100D03*
X211550Y145300D03*
X217850D03*
Y139300D03*
X211550D03*
G54D10*
X5400Y35900D03*
Y25900D03*
Y15900D03*
Y55900D03*
Y45900D03*
Y85900D03*
Y75900D03*
Y65900D03*
X6300Y187421D03*
Y177421D03*
Y197421D03*
X251300Y137700D03*
Y157700D03*
Y147700D03*
Y187700D03*
Y177700D03*
Y167700D03*
Y207700D03*
Y197700D03*
G54D134*
X103600Y116968D03*
G54D130*
X5941Y103004D03*
Y165996D03*
X29563Y103004D03*
X21689D03*
X13815D03*
Y165996D03*
X21689D03*
X29563D03*
X53185Y103004D03*
X45311D03*
X37437D03*
Y165996D03*
X45311D03*
X53185D03*
X61059Y103004D03*
Y165996D03*
G54D18*
X239700Y156500D03*
Y141900D03*
G54D131*
X103600Y156968D03*
X133600Y116968D03*
X123600D03*
X113600D03*
Y156968D03*
X123600D03*
X133600D03*
X153600Y116968D03*
X143600D03*
Y156968D03*
X153600D03*
G54D75*
X6000Y108000D03*
G54D16*
X91100Y186550D03*
X97100D03*
X91100Y192850D03*
X97100D03*
X200100Y145050D03*
Y151350D03*
X194100Y145050D03*
Y151350D03*
X197300Y184750D03*
X191300D03*
X185300D03*
X197300Y191050D03*
X191300D03*
X185300D03*
G54D12*
X3395Y127406D03*
Y115500D03*
X5941Y157441D03*
X3600Y150600D03*
Y140300D03*
X15600Y3700D03*
X17800Y7200D03*
X17200Y35900D03*
X14600Y28100D03*
X24200Y35400D03*
X29900Y34900D03*
X19700Y47100D03*
X13200Y58900D03*
X31100Y47600D03*
X31669Y60469D03*
X28800Y87900D03*
X31950Y84550D03*
X16789Y79389D03*
X14100Y70100D03*
Y75000D03*
X28800Y92700D03*
X10300Y95000D03*
X13815Y108585D03*
X15206Y113606D03*
Y127500D03*
X33800Y120200D03*
X9400Y129300D03*
X34300Y154000D03*
X33600Y143700D03*
X11400Y150300D03*
X11800Y139900D03*
X32700Y161126D03*
X33500Y171000D03*
X17563Y187236D03*
X20300Y184600D03*
X18150Y200800D03*
X11850Y207100D03*
X46700Y3700D03*
X38800Y26400D03*
X34600D03*
X45700Y35600D03*
X56200Y34800D03*
X46900Y18400D03*
X45600Y47200D03*
X56900Y48300D03*
X38850Y79200D03*
X38900Y82700D03*
X57500Y77000D03*
X34500Y63600D03*
X41300Y97300D03*
X38250D03*
X46900Y96600D03*
X58600Y106200D03*
X53185Y106285D03*
X42500Y112800D03*
X40900Y109000D03*
X34700Y135100D03*
X35800Y123900D03*
X59300Y116200D03*
X44500Y128100D03*
X43869Y116459D03*
X53650Y130650D03*
X50200Y145100D03*
X47200D03*
X57305Y160705D03*
X39500Y154100D03*
X39600Y143800D03*
X44500Y138400D03*
X37300Y162500D03*
X55650Y182100D03*
X53200Y169800D03*
X50000Y199500D03*
X55600Y194400D03*
X52000Y189000D03*
X40700Y193100D03*
X42800Y209300D03*
X49500Y205500D03*
X42900Y202800D03*
X52600Y210200D03*
X57300Y210100D03*
X81500Y3400D03*
X68700Y35100D03*
X84000Y35800D03*
X81900Y18900D03*
X83900Y57200D03*
X77300Y47700D03*
X64600Y42200D03*
X71000Y80400D03*
X74700Y79600D03*
X60900Y66100D03*
X81700Y68300D03*
X75700Y107100D03*
X74000Y93800D03*
X71600Y91200D03*
X61200Y111200D03*
X72600Y101600D03*
X70000Y97800D03*
X75500Y115000D03*
X75300Y129300D03*
X59669Y123565D03*
X64447Y120800D03*
X62200Y126400D03*
X74438Y125123D03*
X78000Y123800D03*
X82100Y145100D03*
X82250Y161150D03*
X68200Y162400D03*
X66996Y165996D03*
X72400Y182100D03*
X75500Y170100D03*
X67300Y188100D03*
X61200Y178400D03*
X63900Y173800D03*
X71900Y165100D03*
X69100Y184400D03*
X66400Y179800D03*
X68900Y170700D03*
X71300Y175700D03*
X81200Y186400D03*
X66700Y192900D03*
X76990Y196910D03*
X61242Y209658D03*
X65400Y210400D03*
X73329Y194400D03*
X70400Y197400D03*
X65179Y197900D03*
X81200Y192200D03*
X107600Y26700D03*
X100700Y34400D03*
X107900Y48700D03*
X101500Y43700D03*
X102200Y79500D03*
X102700Y67600D03*
X85000Y77400D03*
X85300Y66400D03*
X88900Y107900D03*
X99300Y95500D03*
X102800Y92600D03*
X109073Y101281D03*
X92991Y106000D03*
X97400Y110450D03*
X103506Y102924D03*
X88800Y117100D03*
X87950Y144750D03*
X85200Y140500D03*
X105950Y142850D03*
X86300Y171800D03*
X84950Y179500D03*
X87900Y163900D03*
X100300Y177600D03*
X102400Y180900D03*
X100900Y173800D03*
X88500Y168400D03*
X98100Y196700D03*
X88400Y197100D03*
X86500Y189400D03*
X106839Y193100D03*
X117400Y3500D03*
X132600Y34700D03*
X113700Y35000D03*
X117300Y19600D03*
X129700Y57200D03*
X114300Y42600D03*
X127200Y44200D03*
X125700Y66000D03*
X123000Y77300D03*
X118900Y81800D03*
X112900Y96400D03*
X111050Y104550D03*
X130000Y105900D03*
X113100Y124500D03*
X118600Y122300D03*
X129800Y150100D03*
X113800Y149500D03*
X116700Y152100D03*
X126900Y161900D03*
X112700Y173500D03*
X118300Y166000D03*
X110600Y165000D03*
X114700Y165100D03*
X124700Y187900D03*
X122500Y184400D03*
X116600Y195400D03*
X122000Y192800D03*
X118100Y191300D03*
X132220Y205510D03*
X123200Y204000D03*
X125600Y196900D03*
X149400Y3900D03*
X149100Y34700D03*
X149400Y19400D03*
X143700Y42800D03*
X136400Y80800D03*
X155800Y80200D03*
X150700Y65900D03*
X151100Y105600D03*
X158500Y108000D03*
X144300Y91900D03*
X142500Y99700D03*
X134900Y91200D03*
X139000Y95800D03*
X146600Y107900D03*
X144000Y149400D03*
X140400Y151500D03*
X144700Y186000D03*
X149600Y168700D03*
X144012Y168676D03*
X148500Y172400D03*
X142800Y172419D03*
X158200Y200200D03*
X150400Y209300D03*
X159300Y210200D03*
X155400Y203200D03*
X144700Y191000D03*
X145400Y204100D03*
X139500Y208800D03*
X143000Y210400D03*
X135700Y207200D03*
X150300Y196500D03*
X147300Y199300D03*
X177600Y4000D03*
X165900Y34900D03*
X177700Y19700D03*
X175100Y57100D03*
X161700Y43500D03*
X176700Y42100D03*
X173200Y80400D03*
X184100Y80600D03*
X178000Y100400D03*
X180100Y109100D03*
X180500Y104500D03*
X175400Y112000D03*
X162700Y105000D03*
X176800Y94800D03*
X182500Y121100D03*
Y115100D03*
X173141Y124949D03*
X171200Y116000D03*
X182100Y152300D03*
X180871Y149023D03*
X166100Y146300D03*
X163500Y166000D03*
X163100Y178400D03*
X166600D03*
X177000Y186700D03*
X172100D03*
X166211Y192311D03*
X160700Y204400D03*
X181015Y197615D03*
X166700Y196700D03*
X167400Y188900D03*
X202100Y4300D03*
X196100Y26700D03*
X192900D03*
X205000Y22100D03*
X203700Y31900D03*
X186000Y35500D03*
X199500Y19800D03*
X203500Y40400D03*
X186900Y43100D03*
X193400Y108100D03*
X208600Y102400D03*
X205200Y112200D03*
X196600Y101900D03*
X205900Y122100D03*
X192000Y121100D03*
X192400Y115200D03*
X196763Y133363D03*
X188889Y133611D03*
X204637Y133163D03*
X207500Y140800D03*
X207300Y147500D03*
X205200Y144100D03*
X190615Y145200D03*
X203600Y151300D03*
X204800Y184641D03*
Y188141D03*
X184900Y204400D03*
X184700Y210200D03*
X193900D03*
X201900Y210400D03*
X199100Y205500D03*
X189000Y200100D03*
X214500Y3700D03*
X232400Y32800D03*
X233500Y20300D03*
X218100Y19600D03*
X220700Y60100D03*
X224800Y47000D03*
X233200Y44400D03*
X216900Y42100D03*
X211300Y85800D03*
X231400Y85500D03*
X220300Y72700D03*
X233500Y102300D03*
X227700Y99500D03*
X216400Y99900D03*
X211200Y110000D03*
X228259Y134959D03*
X211600Y120900D03*
X220385Y132885D03*
X212511Y133089D03*
X231180Y143020D03*
X232200Y149800D03*
X223200Y143700D03*
X215300Y150000D03*
X225400Y157500D03*
X217709Y154402D03*
X221886Y160302D03*
X221700Y154400D03*
X224700Y165600D03*
X216700Y186600D03*
X221400D03*
X217300Y170800D03*
X224300Y170900D03*
X214200Y206000D03*
X231800Y195000D03*
X244900Y112600D03*
X250900D03*
X238900D03*
Y106600D03*
X244900D03*
X250900D03*
X238000Y135300D03*
X242500Y122400D03*
X245000Y119000D03*
X252600Y118800D03*
X245500Y161414D03*
X235000Y147000D03*
X240600Y189900D03*
X242300Y200600D03*
X240400Y209500D03*
X237100Y197800D03*
X235400Y189600D03*
G54D138*
X197670Y108100D03*
Y123100D03*
Y118100D03*
Y113100D03*
X218930Y108100D03*
Y113100D03*
Y118100D03*
Y123100D03*
G54D158*
X30010Y8414D03*
Y205214D03*
X226810Y8414D03*
Y205214D03*
G54D41*
X24819Y54542D03*
Y72258D03*
X50410Y54542D03*
Y72258D03*
X70231Y54542D03*
Y72258D03*
X95821Y54542D03*
Y72258D03*
X115642Y54542D03*
Y72258D03*
X141233Y54542D03*
X161054D03*
X141233Y72258D03*
X161054D03*
X186645Y54542D03*
X206466D03*
X186645Y72258D03*
X206466D03*
X232057Y54542D03*
Y72258D03*
G54D136*
X199990Y168500D03*
X236210D03*
G54D139*
X16789Y88500D03*
X40411D03*
G54D128*
X225700Y107041D03*
Y112159D03*
G54D129*
X54532Y85100D03*
X91426D03*
X128320D03*
X165213D03*
X202107D03*
G54D35*
X223700Y138300D03*
X231180D03*
X227440Y147320D03*
G54D125*
X54532Y95100D03*
X91426D03*
X128320D03*
X165213D03*
X202107D03*
G54D137*
X244900Y109600D03*
G54D39*
X234400Y121800D03*
Y126800D03*
G54D36*
X64600Y42200D02*
G01X17300D01*
X11100Y36000*
Y31500*
X5500Y25900*
X5400*
X85300Y66400D02*
G01X83800Y64900D01*
X66700*
X62800Y68800*
X58981*
X55081Y64900*
X37019*
X35619Y66300*
X33381*
X30081Y63000*
X9300*
X6700Y60400*
Y57200*
X5400Y55900*
X81700Y68300D02*
G01X79900Y66500D01*
X67363*
X63463Y70400*
X58319*
X54419Y66500*
X37681*
X36281Y67900*
X32719*
X29419Y64600*
X12300*
X11000Y65900*
X5400*
X6300Y177421D02*
G01X12200Y183321D01*
Y197500*
X15500Y200800*
X18150*
X6300Y197421D02*
G01X11850Y202971D01*
Y207100*
X50410Y54542D02*
G01Y55390D01*
X47500Y58300*
X38400*
X35900Y55800*
X26077*
X24819Y54542*
X31669Y60469D02*
G01X35322D01*
X36553Y61700*
X61374*
X62974Y60100*
X110084*
X115642Y54542*
X42500Y112800D02*
G01X36900D01*
X32000Y107900*
X23133*
X21689Y106456*
Y103004*
X40900Y109000D02*
G01X35559D01*
X29563Y103004*
X44500Y128100D02*
G01X23100D01*
X16200Y135000*
Y159200*
X13815Y161585*
Y165996*
X17563Y187236D02*
G01X17300Y186973D01*
Y182181*
X17800Y181681*
Y135663*
X23763Y129700*
X41568*
X42668Y130800*
X53500*
X53650Y130650*
X32700Y161126D02*
G01Y162859D01*
X29563Y165996*
X20300Y184600D02*
G01Y177200D01*
X21689Y175811*
Y165996*
X91426Y85100D02*
G01X54532D01*
X34500Y63600D02*
G01X34800Y63300D01*
X62037*
X63637Y61700*
X110747*
X112362Y60085*
X112559Y59942*
X155654*
X161054Y54542*
X109073Y101281D02*
G01X107892Y100100D01*
X89496*
X86526Y97130*
Y89926*
X83500Y86900*
X62732*
X54532Y95100*
X53185Y103004D02*
G01Y106285D01*
X45311Y103004D02*
G01Y115017D01*
X43869Y116459*
X44500Y138400D02*
G01X49300Y133600D01*
X54519*
X56719Y131400*
X70837*
X73137Y133700*
X77263*
X79563Y131400*
X97474*
X103250Y137176*
Y143969*
X105981Y146700*
X161900*
X164200Y149000*
X167219*
X171119Y145100*
X184600*
X186000Y146500*
Y150544*
X189956Y154500*
X209300*
X211550Y152250*
Y145300*
X33500Y171000D02*
G01X40307D01*
X45311Y165996*
X53200Y169800D02*
G01Y166011D01*
X53185Y165996*
X37300Y162500D02*
G01Y165859D01*
X37437Y165996*
X55600Y194400D02*
G01X53800D01*
X50000Y198200*
Y199500*
X132220Y205510D02*
G01Y205900D01*
X131420Y206700*
X70044*
X67844Y204500*
X60523*
X59827Y204991*
X57418Y207400*
X55400*
X52600Y210200*
X135700Y207200D02*
G01X134800D01*
X133700Y208300*
X69381*
X67181Y206100*
X61031*
X60862Y206220*
X57300Y209781*
Y210100*
X60900Y66100D02*
G01X61700D01*
X64500Y63300*
X111777*
X113535Y61542*
X159856*
X161313Y60085*
X161510Y59942*
X201066*
X206466Y54542*
X61059Y103004D02*
G01Y103741D01*
X58600Y106200*
X111050Y104550D02*
G01X107050D01*
X105976Y105624*
X102387*
X100063Y103300*
X86674*
X82774Y99400*
X74800*
X72600Y101600*
X103506Y102924D02*
G01X102282Y101700D01*
X87337*
X83437Y97800*
X70000*
X220385Y132885D02*
G01X217470Y135800D01*
X208081*
X206418Y137463*
X201263*
X196826Y141900*
X112500*
X98800Y128200*
X76500*
X75400Y129300*
X75300*
X196763Y133363D02*
G01X193026Y137100D01*
X114526*
X100826Y123400*
X81419*
X79119Y121100*
X73881*
X70381Y124600*
X64300*
X63300Y123600*
X59735*
X59700Y123565*
X59669*
X188889Y133611D02*
G01Y133711D01*
X187100Y135500*
X115188*
X101488Y121800*
X82081*
X79781Y119500*
X73219*
X69719Y123000*
X66647*
X64447Y120800*
X62200Y126400D02*
G01X62600Y126800D01*
X68500*
X73800Y132100*
X76600*
X78900Y129800*
X98137*
X111837Y143500*
X186100*
X187600Y145000*
Y149881*
X189069Y151350*
X194100*
X74438Y125123D02*
G01X74523D01*
X76000Y126600*
X99500*
X113200Y140300*
X196163*
X200600Y135863*
X205756*
X208530Y133089*
X212511*
X78000Y123800D02*
G01X79200Y125000D01*
X100163*
X113863Y138700*
X195500*
X201037Y133163*
X204637*
X77650Y176100D02*
G01X80622Y173129D01*
X84972*
X86300Y171800*
X122500Y184400D02*
G01X102000D01*
X99700Y182100*
X88600*
X85600Y185100*
X82500*
X81200Y186400*
X76550Y190800D02*
G01Y196470D01*
X76990Y196910*
X139500Y208800D02*
G01X138700D01*
X137600Y209900*
X68719*
X66519Y207700*
X63200*
X61242Y209658*
X143000Y210400D02*
G01X142200D01*
X141100Y211500*
X66500*
X65400Y210400*
X73329Y194400D02*
G01Y200139D01*
X75090Y201900*
X118837*
X121037Y199700*
X141337*
X143337Y197700*
X144800*
X145900Y196600*
X150200*
X150300Y196500*
X147300Y199300D02*
G01X144000D01*
X142000Y201300*
X121700*
X119500Y203500*
X73200*
X70400Y200700*
Y197400*
X65179Y197900D02*
G01X72379Y205100D01*
X122100*
X123200Y204000*
X124700Y187900D02*
G01X121600D01*
X119700Y186000*
X101337*
X99506Y184169*
X99469*
X99000Y183700*
X89263*
X86263Y186700*
X85000*
X81200Y190500*
Y192200*
X83900Y57200D02*
G01Y51700D01*
X86900Y48700*
X107900*
X128320Y85100D02*
G01X91426D01*
X118900Y81800D02*
G01X117396Y83304D01*
X99904*
X95200Y78600*
X86200*
X85000Y77400*
X92991Y106000D02*
G01X93000D01*
X93300Y106300*
X93700*
X94650Y107250*
X128650*
X130000Y105900*
X97400Y110450D02*
G01X98950Y108900D01*
X145600*
X146600Y107900*
X116700Y152100D02*
G01X116400Y152400D01*
X108168*
X103600Y156968*
X166100Y146300D02*
G01X164900Y145100D01*
X111174*
X108924Y142850*
X105950*
X86300Y171800D02*
G01Y171450D01*
X84950Y170100*
X83950Y176100D02*
G01Y178500D01*
X84950Y179500*
X83950Y182100D02*
G01Y180500D01*
X84950Y179500*
X251300Y167700D02*
G01X246900Y172100D01*
Y175200*
X243700Y178400*
X228051*
X224551Y174900*
X189751*
X183951Y169100*
X159249*
X153149Y175200*
X121763*
X115563Y169000*
X108063*
X105063Y166000*
X90000*
X87900Y163900*
X100300Y177600D02*
G01X104637D01*
X107037Y180000*
X155137*
X161237Y173900*
X181963*
X187763Y179700*
X222563*
X226063Y183200*
X244500*
X246600Y185300*
Y193000*
X251300Y197700*
X102400Y180900D02*
G01X103100Y181600D01*
X155800*
X161900Y175500*
X181300*
X187100Y181300*
X221900*
X225400Y184800*
X243200*
X245000Y186600*
Y193663*
X246600Y195263*
Y203000*
X251300Y207700*
X100900Y173800D02*
G01X103100D01*
X107700Y178400*
X154474*
X160574Y172300*
X182626*
X188426Y178100*
X223226*
X226726Y181600*
X245200*
X251300Y187700*
X88500Y168400D02*
G01X90989D01*
X91789Y167600*
X104400*
X107400Y170600*
X114900*
X121100Y176800*
X153812*
X159912Y170700*
X183288*
X189088Y176500*
X223888*
X227388Y180000*
X244800*
X247100Y177700*
X251300*
X106839Y193100D02*
G01X105900Y194039D01*
Y198500*
X107500Y200100*
X118374*
X121574Y196900*
X125600*
X175100Y57100D02*
G01X166500Y48500D01*
X133500*
X129700Y52300*
Y57200*
Y57200D02*
G01X121200Y48700D01*
X107900*
X165213Y85100D02*
G01X128320D01*
X129800Y150100D02*
G01X128000Y148300D01*
X115000*
X113800Y149500*
X144000Y149400D02*
G01X142900Y148300D01*
X131600*
X129800Y150100*
X126900Y161900D02*
G01X128150Y160650D01*
Y155950*
X132600Y151500*
X140400*
X178000Y100400D02*
G01X162000D01*
X159300Y97700*
X153300*
X151100Y99900*
Y105600*
X139000Y95800D02*
G01Y89600D01*
X141000Y87600*
X157713*
X165213Y95100*
X217709Y154402D02*
G01X217702D01*
X215903Y156200*
X161000*
X152800Y164400*
X147819*
X144012Y168207*
Y168676*
X149600Y168700D02*
G01X153026D01*
X162326Y159400*
X218800*
X220700Y157500*
X225400*
X148500Y172400D02*
G01X151588D01*
X162988Y161000*
X221188*
X221886Y160302*
X142800Y172419D02*
G01X144281D01*
X146900Y169800*
Y167581*
X148481Y166000*
X153463*
X161663Y157800*
X218137*
X221537Y154400*
X221700*
X220700Y60100D02*
G01Y52900D01*
X216400Y48600*
X178100*
X175100Y51600*
Y57100*
X202107Y85100D02*
G01X165213D01*
X176800Y94800D02*
G01Y90000D01*
X178900Y87900*
X194907*
X202107Y95100*
X182500Y121100D02*
G01Y115100D01*
X192000Y121100D02*
G01X193600D01*
X195600Y123100*
X197670*
Y118100D02*
G01X195300D01*
X192400Y115200*
X190615Y145200D02*
G01X193950D01*
X194100Y145050*
X203600Y151300D02*
G01X200150D01*
X200100Y151350*
Y145050D02*
G01X199650D01*
X196900Y147800*
Y149500*
X195050Y151350*
X194100*
X218930Y108100D02*
G01X224641D01*
X225700Y107041*
X218930Y113100D02*
G01X224759D01*
X225700Y112159*
X223700Y138300D02*
G01X218850D01*
X217850Y139300*
Y139300D02*
G01Y145300D01*
X231800Y195000D02*
G01X220200D01*
X214200Y201000*
Y206000*
G54D38*
X24819Y72258D02*
G01X31519D01*
X24819D02*
G01Y78959D01*
X34600Y26400D02*
G01X34300Y26700D01*
X34600Y26400D02*
G01X38800D01*
X50410Y72258D02*
G01X52758D01*
X57500Y77000*
X45200Y77400D02*
G01X50342Y72258D01*
X50410*
X37437Y103004D02*
G01Y98113D01*
X38250Y97300*
Y97300D02*
G01X41300D01*
X82100Y145100D02*
G01X50200D01*
Y145100D02*
G01X47200D01*
X55650Y182100D02*
G01Y184900D01*
Y184900D02*
G01Y190900D01*
Y190900D02*
G01Y194400D01*
X55600*
X70231Y72258D02*
G01X76931D01*
X70231D02*
G01Y79631D01*
Y79631D02*
G01X71000Y80400D01*
X82100Y145100D02*
G01Y156000D01*
X78686Y159414*
Y163486*
X80100Y164900*
X82700*
X84950Y167150*
Y170100*
X78650D02*
G01X75500D01*
X61950Y190900D02*
G01Y184900D01*
X77650Y182100D02*
G01X72400D01*
X70250Y190800D02*
G01Y185550D01*
X61950Y184900D02*
G01X65833D01*
X61950D02*
G01Y179150D01*
X70250Y185550D02*
G01X69100Y184400D01*
X65833Y184900D02*
G01X66333Y184400D01*
X69100*
X61950Y179150D02*
G01X61200Y178400D01*
X61950Y190900D02*
G01X64700D01*
Y190900D02*
G01X66700Y192900D01*
X64700Y190900D02*
G01X64800Y190800D01*
X70000*
Y190800D02*
G01X67300Y188100D01*
X70250Y190800D02*
G01X70000D01*
X60600Y196000D02*
G01X61950Y194650D01*
Y194650D02*
G01Y190900D01*
X95821Y72258D02*
G01X89121D01*
X95821D02*
G01X102522D01*
X112700Y173500D02*
G01X106800D01*
X103100Y169800*
X92700*
X90727Y171773*
X87064*
X86741Y171450*
X86650*
X86300Y171800*
X84950Y170100D02*
G01Y170450D01*
X86300Y171800*
X97100Y186550D02*
G01X91100D01*
X97100D02*
G01X98650D01*
X100900Y188800*
X86700Y189400D02*
G01X89550Y186550D01*
X91100*
X97100Y192850D02*
G01X91100D01*
X88400Y197100D02*
G01Y195650D01*
X91100Y192950*
Y192850*
X98111Y196689D02*
G01Y193861D01*
X97100Y192850*
X98111Y196689D02*
G01X98100Y196700D01*
X98150Y195831D02*
G01Y196650D01*
X98111Y196689*
X86500Y189400D02*
G01X86700D01*
X100900Y188800D02*
G01X115600D01*
X118100Y191300*
X115642Y72258D02*
G01X108942D01*
X115642D02*
G01X122343D01*
X115642D02*
G01Y65558D01*
Y72258D02*
G01Y78959D01*
X141233Y72258D02*
G01X134533D01*
X141233D02*
G01Y78959D01*
Y72258D02*
G01X147933D01*
X141233D02*
G01Y65558D01*
X161054Y72258D02*
G01X154354D01*
X161054Y65046D02*
G01Y72258D01*
X168258D02*
G01X161054D01*
X186645D02*
G01X179945D01*
X163500Y166000D02*
G01X164000Y165500D01*
X193100*
X196100Y168500*
X199990*
X185300Y184750D02*
G01X178950Y178400D01*
X185300Y191050D02*
G01X181628D01*
X186645Y72258D02*
G01Y78478D01*
Y72258D02*
G01Y65558D01*
Y72258D02*
G01X193345D01*
X206466D02*
G01X199766D01*
X206466D02*
G01Y65558D01*
Y72258D02*
G01X213166D01*
X197670Y108100D02*
G01X193400D01*
X211550Y139300D02*
G01X209000D01*
X207500Y140800*
X224700Y165600D02*
G01X202890D01*
X199990Y168500*
X204800Y188141D02*
G01Y184641D01*
X197300Y184750D02*
G01X204691D01*
X204800Y184641*
X191300Y184750D02*
G01X197300D01*
X185300D02*
G01X191300D01*
Y191050D02*
G01X185300D01*
Y191050D02*
G01Y194131D01*
X191300Y191050D02*
G01Y194500D01*
X197300Y191050D02*
G01X191300D01*
X197300D02*
G01X200972D01*
X197300D02*
G01Y194600D01*
X232057Y72258D02*
G01Y78959D01*
Y72258D02*
G01X225356D01*
X232057D02*
G01Y65558D01*
X218930Y123100D02*
G01Y126181D01*
Y123100D02*
G01X213979D01*
X231180Y137880D02*
G01Y134900D01*
X228259Y134959D02*
G01X231180Y137880D01*
X218930Y123100D02*
G01X222700D01*
X224400Y124800*
X234400Y126800D02*
G01X230200D01*
X234400Y121800D02*
G01X230400D01*
X228400Y119800*
X225500*
X223800Y118100*
X218930*
X231180Y138300D02*
G01Y143020D01*
Y138300D02*
G01X227780D01*
X231180D02*
G01X234580D01*
X231180Y137880D02*
G01Y138300D01*
X239700Y156500D02*
G01X231626D01*
X227440Y152314*
Y147320*
X244900Y109600D02*
G01Y112600D01*
X235500Y109600D02*
G01X244900D01*
X254300D02*
G01X244900D01*
Y112600D02*
G01Y116500D01*
X234400Y126800D02*
G01X238600D01*
X234400D02*
G01Y131000D01*
X245500Y161414D02*
G01Y143600D01*
X243800Y141900*
X239700*
Y156500D02*
G01X238400Y157800D01*
Y166310*
X236210Y168500*
G54D12*
X14600Y26700D02*
G01X5400Y17500D01*
Y15900*
X5941Y165996D02*
G01Y157441D01*
X14600Y28100D02*
G01Y26700D01*
X16600Y70000D02*
G01X18858Y72258D01*
X24819*
X16789Y88500D02*
G01X10952D01*
X16789D02*
G01X28200D01*
Y88500D02*
G01X28800Y87900D01*
X61059Y165996D02*
G01Y161141D01*
Y165996D02*
G01X66996D01*
X61059D02*
G01Y170851D01*
X163100Y178400D02*
G01X166600D01*
X178950D02*
G01X166600D01*
G54D40*
X34300Y26700D02*
G01X24600D01*
X15700Y17800*
X34300Y26700D02*
G01X107600D01*
Y26700D02*
G01X192900D01*
X196100D02*
G01X192900D01*
G54D39*
X15700Y17800D02*
G01Y13600D01*
X8000Y5900*
X5400*
X5941Y103004D02*
G01Y107941D01*
X6000Y108000*
X16789Y88500D02*
G01Y79389D01*
Y88500D02*
G01Y88511D01*
X10300Y95000*
X13815Y103004D02*
G01Y108585D01*
X38850Y79200D02*
G01Y86939D01*
X40411Y88500*
M02*
