G04 CAM350/DFMSTREAM V12.1 (Build 1022) Date:  Fri Aug 29 15:05:19 2025 *
G04 Database: (Untitled) *
G04 Layer 1: BOTTOM.art *
%FSLAX25Y25*%
%MOIN*%
%SFA1.000B1.000*%

%MIA0B0*%
%IPPOS*%
%ADD10C,0.09449*%
%ADD11C,0.03000*%
%ADD12C,0.06200*%
%ADD13C,0.07700*%
%ADD14C,0.07600*%
%ADD15R,0.03000X0.03000*%
%ADD16R,0.09450X0.07480*%
%ADD17R,0.07700X0.07700*%
%ADD18R,0.06900X0.14800*%
%ADD19R,0.16800X0.06900*%
%ADD20R,0.14800X0.06900*%
%ADD21R,0.03540X0.02360*%
%ADD22R,0.05000X0.06000*%
%ADD23R,0.06100X0.02360*%
%ADD24R,0.08860X0.13580*%
%ADD25R,0.07480X0.09450*%
%ADD26R,0.05500X0.04000*%
%ADD27R,0.05310X0.02170*%
%ADD28R,0.02360X0.03540*%
%ADD29R,0.04000X0.05500*%
%ADD30R,0.02360X0.06100*%
%ADD31C,0.04330*%
%ADD32R,0.05906X0.08661*%
%ADD33R,0.06000X0.05000*%
%ADD34R,0.15000X0.07900*%
%ADD35O,0.04134X0.08465*%
%ADD36O,0.04134X0.07283*%
%ADD37R,0.08000X0.12000*%
%ADD38C,0.02756*%
%ADD39C,0.03300*%
%ADD40C,0.00800*%
%ADD41C,0.01000*%
%ADD42C,0.02000*%
%ADD43C,0.04000*%
%ADD44C,0.05000*%
%ADD45C,0.01500*%
%ADD46C,0.02500*%
%ADD47C,0.09000*%
%LNBOTTOM.art*%
%LPD*%
G36*
X250686Y85386D02*
G75*
G03X250136Y85496I-550J-1321D01*
X249586Y85386I0J-1430*
G01X249515Y86956*
X251086Y86886*
G03X250976Y86336I1321J-550*
X251086Y85786I1431J0*
G02X250686Y85386I-400J0*
G37*
G36*
X253500Y98129D02*
G01X253571Y99700D01*
G03X254121Y99590I550J1320*
X254671Y99700I0J1430*
G02X255071Y99300I0J-400*
G03X254961Y98750I1320J-550*
X255071Y98200I1431J0*
G01X253500Y98129*
G37*
G36*
X296580Y196050D02*
G03X296030Y196160I-550J-1321D01*
X295480Y196050I0J-1430*
G01X295409Y197621*
X296980Y197550*
G03X296870Y197000I1321J-550*
X296980Y196450I1431J0*
G02X296580Y196050I-400J0*
G37*
G36*
X259213Y178450D02*
G03X258663Y178560I-550J-1321D01*
X258113Y178450I0J-1430*
G01X258042Y180021*
X259613Y179950*
G03X259503Y179400I1321J-550*
X259613Y178850I1431J0*
G02X259213Y178450I-400J0*
G37*
G36*
X258642Y98029D02*
G01X257071Y98100D01*
G03X257181Y98650I-1321J550*
X257071Y99200I-1431J0*
G02X257471Y99600I400J0*
G03X258021Y99490I550J1320*
X258571Y99600I0J1431*
G01X258642Y98029*
G37*
G36*
X294601Y86829D02*
G01X293030Y86900D01*
G03X293140Y87450I-1321J550*
X293030Y88000I-1431J0*
G02X293430Y88400I400J0*
G03X293980Y88290I550J1320*
X294530Y88400I0J1431*
G01X294601Y86829*
G37*
G36*
X294030Y203800D02*
G03X293480Y203910I-550J-1321D01*
X292930Y203800I0J-1431*
G02X292530Y204200J400*
G03X292640Y204750I-1322J550*
X292530Y205300I-1431J0*
G01X294101Y205371*
X294030Y203800*
G37*
G36*
X243347Y178450D02*
G03X242797Y178560I-550J-1321D01*
X242247Y178450I0J-1431*
G02X241847Y178850I0J400*
G03X241957Y179400I-1322J550*
X241847Y179950I-1431J0*
G01X243418Y180021*
X243347Y178450*
G37*
G36*
X189530Y139200D02*
G03X188980Y139310I-550J-1321D01*
X188430Y139200I0J-1431*
G02X188030Y139600I0J400*
G03X188140Y140150I-1322J550*
X188030Y140700I-1431J0*
G01X189601Y140771*
X189530Y139200*
G37*
G36*
X251068Y207225D02*
G01X249730Y207300D01*
X249230Y207800*
Y208800*
G03X250030Y208640I800J1920*
X250830Y208800I0J2080*
G01X251068Y207225*
G37*
G36*
X224749Y58943D02*
G01X223180Y59183D01*
G03Y60920I-2085J869*
G01X224180*
X224680Y60420*
X224749Y58943*
G37*
G36*
X211659Y86650D02*
G01X210952D01*
X210245Y87357*
G03X211039Y88152I-557J1350*
G01X212333Y87180*
X211659Y86650*
G37*
G36*
X287996Y217239D02*
G03X287288Y217946I-1202J-496D01*
G02X287141Y218300I354J355*
X287288Y218654I501J0*
G03X287996Y219361I-494J1203*
G01X289181Y218300*
X287996Y217239*
G37*
G36*
X193130Y140745D02*
G02X192847Y140862I0J400D01*
G03X192069Y141639I-1322J-546*
G01X193130Y142800*
X194190Y141639*
G03X193413Y140862I545J-1322*
G02X193130Y140745I-283J283*
G37*
G36*
X249300Y98945D02*
G02X249017Y99062I0J400D01*
G03X248239Y99839I-1322J-546*
G01X249300Y101000*
X250361Y99839*
G03X249583Y99062I544J-1323*
G02X249300Y98945I-283J283*
G37*
G36*
X298571Y156900D02*
G01X297510Y158061D01*
G03X298288Y158838I-544J1322*
G02X298571Y158955I283J-284*
X298854Y158838I0J-401*
G03X299632Y158061I1322J546*
G01X298571Y156900*
G37*
G36*
X290630Y84600D02*
G01X289569Y85761D01*
G03X290347Y86538I-544J1322*
G02X290630Y86655I283J-284*
X290913Y86538I0J-401*
G03X291691Y85761I1322J546*
G01X290630Y84600*
G37*
G36*
X282241Y18500D02*
G01X281180Y19661D01*
G03X281958Y20438I-544J1322*
G02X282241Y20555I283J-284*
X282524Y20438I0J-401*
G03X283302Y19661I1322J546*
G01X282241Y18500*
G37*
G36*
X323669Y193039D02*
G03X322892Y193817I-1323J-544D01*
G02X322775Y194100I284J283*
X322892Y194383I400J0*
G03X323669Y195161I-546J1322*
G01X324830Y194100*
X323669Y193039*
G37*
G36*
X225741Y48278D02*
G01X224580Y49339D01*
X225741Y50400*
G03X226518Y49622I1323J544*
G02X226635Y49339I-284J-283*
X226518Y49056I-401J0*
G03X225741Y48278I545J-1322*
G37*
G36*
Y43356D02*
G01X224580Y44417D01*
X225741Y45478*
G03X226518Y44700I1323J544*
G02X226635Y44417I-284J-283*
X226518Y44134I-401J0*
G03X225741Y43356I545J-1322*
G37*
G36*
X211950Y106900D02*
G01X211863Y106904D01*
G02X210954Y107813I87J996*
G01X210951Y107856*
X210950Y107878*
Y107900*
G02X211691Y108866I1000J0*
G03X211870Y108854I180J1342*
X212695Y109135I0J1352*
G02X212798Y109149I105J-387*
X213199Y108748I1J-400*
X213185Y108645I-402J2*
G03X212904Y107820I1070J-825*
X212916Y107641I1357J1*
G02X211950Y106900I-966J259*
G37*
G36*
X296349Y206139D02*
G03X294771Y207717I-2682J-1104D01*
G01X295054Y208000*
X296610*
X297504Y207168*
X296349Y206139*
G37*
G36*
X214100Y103330D02*
G02X213334Y103687I0J1000D01*
X213100Y104330I766J643*
X213334Y104973I1000J0*
X214100Y105330I766J-643*
X214600Y105196I0J-1001*
G03X215500Y104676I1074J821*
G02X215700Y104330I-200J-346*
X215500Y103984I-400J0*
G03X214600Y103464I175J-1341*
G02X214100Y103330I-500J866*
G37*
G36*
X182869Y137839D02*
G03X182042Y138667I-1408J-579D01*
G02X181934Y138862I282J284*
G01X181738Y138950*
X181934Y139038*
G02X182060Y139250I390J-88*
G03X182888Y139978I-461J1359*
G01X183256Y139630*
X183257*
X183608Y139787*
G03X184260Y139073I1268J503*
G02X184279Y138950I-382J-122*
X184260Y138827I-401J-1*
G03X183608Y138113I615J-1216*
G01X183315Y138244*
X183314*
X182869Y137839*
G37*
G36*
X253630Y177556D02*
G02X253347Y177673I0J400D01*
G03X252130Y178889I-2068J-853*
G01X253169Y180048*
X254354Y179065*
G03X254003Y178050I1292J-1015*
X254015Y177848I1649J-3*
G02X253630Y177556I-385J108*
G37*
G36*
X249037Y71431D02*
G03X248065Y71737I-973J-1393D01*
G01X247988Y71735*
X247911Y71730*
G03X247759Y71709I157J-1695*
G02X247445Y72100I86J391*
X247562Y72383I400J0*
G03X248839Y73661I-896J2172*
G01X249997Y72624*
X249037Y71431*
G37*
G36*
X279690Y216239D02*
G01X278514Y217252D01*
X279630Y218300*
X281044*
X281398Y217946*
G03X279690Y216239I1194J-2903*
G37*
G36*
X139418Y131570D02*
G03X138305Y132530I-1754J-908D01*
G02X138239Y132750I334J220*
X138305Y132970I400J0*
G03X139418Y133930I-641J1868*
G01X141288Y132750*
X139418Y131570*
G37*
G36*
X180068Y131470D02*
G03X178955Y132430I-1754J-908D01*
G02X178889Y132650I334J220*
X178955Y132870I400J0*
G03X180068Y133830I-641J1868*
G01X181938Y132650*
X180068Y131470*
G37*
G36*
X98860Y131570D02*
G03X97746Y132530I-1754J-909D01*
G02X97680Y132750I334J220*
X97746Y132970I400J0*
G03X98860Y133930I-640J1869*
G01X100730Y132750*
X98860Y131570*
G37*
G36*
X58377Y131370D02*
G03X57263Y132330I-1754J-909D01*
G02X57197Y132550I334J220*
X57263Y132770I400J0*
G03X58377Y133730I-640J1869*
G01X60247Y132550*
X58377Y131370*
G37*
G36*
X202150Y43450D02*
G01X200970Y45470D01*
G03X201999Y46638I-1315J2196*
G01X202301*
G03X203330Y45470I2345J1028*
G01X202150Y43450*
G37*
G36*
X243400Y166970D02*
G01X241380Y168150D01*
X243400Y169330*
G03X244568Y168301I2196J1315*
G02X244579Y168150I-991J-148*
X244568Y167999I-1002J-3*
G03X243400Y166970I1028J-2344*
G37*
G36*
X229500Y158270D02*
G01X227480Y159450D01*
X229500Y160630*
G03X230668Y159601I2196J1315*
G02X230679Y159450I-991J-148*
X230668Y159299I-1002J-3*
G03X229500Y158270I1028J-2344*
G37*
G36*
X242570Y45770D02*
G01X240550Y46950D01*
X242570Y48130*
G03X243739Y47101I2196J1316*
G02X243750Y46950I-991J-148*
X243739Y46799I-1002J-3*
G03X242570Y45770I1027J-2345*
G37*
G36*
X143319Y137989D02*
G03X143195Y138225I-1322J-544D01*
G01X143194*
X142958Y137870*
X141088Y139050*
X142958Y140230*
X143194Y139875*
X143195*
G03X143319Y140111I-1198J780*
G01X144480Y139050*
X143319Y137989*
G37*
G36*
X102819D02*
G03X102669Y138263I-1322J-546D01*
G01X102668*
G03X102400Y137870I1486J-1301*
G01X100530Y139050*
X102400Y140230*
G03X102668Y139837I1754J908*
G01X102669*
G03X102819Y140111I-1172J820*
G01X103980Y139050*
X102819Y137989*
G37*
G36*
X62369Y137789D02*
G01X62205Y138084D01*
X62204*
X62203*
G03X61917Y137670I1469J-1320*
G01X60047Y138850*
X61917Y140030*
G03X62203Y139616I1755J906*
G01X62204*
X62205*
X62369Y139911*
X63530Y138850*
X62369Y137789*
G37*
G36*
X204241Y100000D02*
G01X202710Y101781D01*
G03X203534Y102605I-577J1401*
G02X204241Y102898I707J-707*
X204948Y102605I0J-1000*
G03X205772Y101781I1401J577*
G01X204241Y100000*
G37*
G36*
X209359D02*
G01X207828Y101781D01*
G03X208652Y102605I-577J1401*
G02X209359Y102898I707J-707*
X210066Y102605I0J-1000*
G03X210890Y101781I1401J577*
G01X209359Y100000*
G37*
G36*
X48647Y129700D02*
G01X47047Y131200D01*
X48647Y132700*
G03X50054Y131434I2258J1095*
G02X50130Y131200I-324J-235*
X50054Y130966I-400J1*
G03X48647Y129700I851J-2361*
G37*
G36*
X89130Y129900D02*
G01X87530Y131400D01*
X89130Y132900*
G03X90552Y131636I2263J1114*
G02X90629Y131400I-323J-236*
X90552Y131164I-400J0*
G03X89130Y129900I841J-2378*
G37*
G36*
X129688D02*
G01X128088Y131400D01*
X129688Y132900*
G03X131111Y131636I2263J1114*
G02X131188Y131400I-323J-236*
X131111Y131164I-400J0*
G03X129688Y129900I840J-2378*
G37*
G36*
X170338Y129800D02*
G01X168738Y131300D01*
X170338Y132800*
G03X171761Y131536I2263J1114*
G02X171838Y131300I-323J-236*
X171761Y131064I-400J0*
G03X170338Y129800I840J-2378*
G37*
G36*
X226100Y104205D02*
G01X224920Y107380D01*
G03X225850Y108493I-958J1746*
G02X226100Y108560I250J-433*
X226350Y108493I0J-500*
G03X227280Y107380I1888J632*
G01X226100Y104205*
G37*
G36*
X207450Y210420D02*
G01X204212Y211600D01*
X207450Y212780*
G03X208584Y211857I1857J1124*
G01X208629Y211600*
X208584Y211343*
G03X207450Y210420I723J-2047*
G37*
G36*
X231251Y100112D02*
G01X230949D01*
G03X229920Y101280I-2344J-1028*
G01X231100Y104580*
X232280Y101280*
G03X231251Y100112I1316J-2196*
G37*
G36*
X241630Y174350D02*
G01X239860Y175630D01*
G03X241385Y177316I-1293J2702*
G02X241630Y177400I245J-316*
X241875Y177316I0J-400*
G03X243400Y175630I2818J1016*
G01X241630Y174350*
G37*
G36*
X253630D02*
G01X251860Y175630D01*
G03X253385Y177316I-1293J2702*
G02X253630Y177400I245J-316*
X253875Y177316I0J-400*
G03X255400Y175630I2818J1016*
G01X253630Y174350*
G37*
G36*
X259630D02*
G01X257860Y175630D01*
G03X259385Y177316I-1293J2702*
G02X259630Y177400I245J-316*
X259875Y177316I0J-400*
G03X261400Y175630I2818J1016*
G01X259630Y174350*
G37*
G36*
X288030Y107850D02*
G01X286260Y109130D01*
G03X287785Y110816I-1293J2702*
G02X288030Y110900I245J-316*
X288275Y110816I0J-400*
G03X289800Y109130I2818J1016*
G01X288030Y107850*
G37*
G36*
X294030D02*
G01X292260Y109130D01*
G03X293785Y110816I-1293J2702*
G02X294030Y110900I245J-316*
X294275Y110816I0J-400*
G03X295800Y109130I2818J1016*
G01X294030Y107850*
G37*
G36*
X240800Y53150D02*
G01X239030Y54430D01*
G03X240555Y56116I-1293J2702*
G02X240800Y56200I245J-316*
X241045Y56116I0J-400*
G03X242570Y54430I2818J1016*
G01X240800Y53150*
G37*
G36*
X238230Y70330D02*
G01X236950Y72100D01*
X238230Y73870*
G03X239916Y72345I2702J1293*
G02X240000Y72100I-316J-245*
X239916Y71855I-400J0*
G03X238230Y70330I1016J-2818*
G37*
G36*
X197730Y207400D02*
G02X197355Y207500I-1J750D01*
G03X195960Y209170I-2833J-949*
G01X197730Y210538*
X199500Y209170*
G03X198104Y207500I1436J-2619*
G02X197730Y207400I-374J650*
G37*
G36*
X239460Y215230D02*
G01X238030Y217000D01*
X239460Y218770*
G03X241147Y217399I2696J1594*
G02X241230Y217000I-918J-399*
X241147Y216601I-1001J0*
G03X239460Y215230I1009J-2965*
G37*
G36*
X228710Y200420D02*
G01X225560Y201600D01*
X228710Y202780*
G03X229110Y202250I1754J908*
G01X229111*
G03X229369Y202661I-1065J955*
G01X230530Y201600*
X229369Y200539*
G03X229111Y200950I-1323J-544*
G01X229110*
G03X228710Y200420I1354J-1438*
G37*
G36*
X216101Y69862D02*
G01X215799D01*
G03X214770Y71030I-2345J-1028*
G01X215804Y72800*
X214770Y74570*
G03X215799Y75738I-1315J2196*
G01X216101*
G03X217130Y74570I2345J1028*
G01X216096Y72800*
X217130Y71030*
G03X216101Y69862I1316J-2196*
G37*
G36*
X136958Y131570D02*
G01X135188Y132687D01*
X133418Y131570*
G03X132305Y132530I-1754J-908*
G02X132239Y132750I334J220*
X132305Y132970I400J0*
G03X133418Y133930I-641J1868*
G01X135188Y132813*
X136958Y133930*
G03X138072Y132970I1753J908*
G02X138138Y132750I-334J-220*
X138072Y132530I-400J0*
G03X136958Y131570I639J-1868*
G37*
G36*
X177608Y131470D02*
G01X175838Y132587D01*
X174068Y131470*
G03X172955Y132430I-1754J-908*
G02X172889Y132650I334J220*
X172955Y132870I400J0*
G03X174068Y133830I-641J1868*
G01X175838Y132713*
X177608Y133830*
G03X178722Y132870I1753J908*
G02X178788Y132650I-334J-220*
X178722Y132430I-400J0*
G03X177608Y131470I639J-1868*
G37*
G36*
X55917Y131370D02*
G01X54147Y132487D01*
X52377Y131370*
G03X51263Y132330I-1754J-909*
G02X51197Y132550I334J220*
X51263Y132770I400J0*
G03X52377Y133730I-640J1869*
G01X54147Y132613*
X55917Y133730*
G03X57030Y132770I1754J908*
G02X57096Y132550I-334J-220*
X57030Y132330I-400J0*
G03X55917Y131370I641J-1868*
G37*
G36*
X96400Y131570D02*
G01X94630Y132687D01*
X92860Y131570*
G03X91746Y132530I-1754J-909*
G02X91680Y132750I334J220*
X91746Y132970I400J0*
G03X92860Y133930I-640J1869*
G01X94630Y132813*
X96400Y133930*
G03X97514Y132970I1753J908*
G02X97580Y132750I-334J-220*
X97514Y132530I-400J0*
G03X96400Y131570I639J-1868*
G37*
G36*
X288600Y243870D02*
G01X286830Y244904D01*
X285060Y243870*
G03X283891Y244899I-2196J-1316*
G02X283880Y245050I989J148*
X283891Y245201I1000J3*
G03X285060Y246230I-1027J2345*
G01X286830Y245196*
X288600Y246230*
G03X289768Y245201I2196J1315*
G02X289779Y245050I-991J-148*
X289768Y244899I-1002J-3*
G03X288600Y243870I1028J-2344*
G37*
G36*
X249400Y166970D02*
G01X247630Y168004D01*
X245860Y166970*
G03X244691Y167999I-2196J-1316*
G02X244680Y168150I989J148*
X244691Y168301I1000J3*
G03X245860Y169330I-1027J2345*
G01X247630Y168296*
X249400Y169330*
G03X250568Y168301I2196J1315*
G02X250579Y168150I-991J-148*
X250568Y167999I-1002J-3*
G03X249400Y166970I1028J-2344*
G37*
G36*
X255400D02*
G01X253630Y168004D01*
X251860Y166970*
G03X250691Y167999I-2196J-1316*
G02X250680Y168150I989J148*
X250691Y168301I1000J3*
G03X251860Y169330I-1027J2345*
G01X253630Y168296*
X255400Y169330*
G03X256568Y168301I2196J1315*
G02X256579Y168150I-991J-148*
X256568Y167999I-1002J-3*
G03X255400Y166970I1028J-2344*
G37*
G36*
X261400D02*
G01X259630Y168004D01*
X257860Y166970*
G03X256691Y167999I-2196J-1316*
G02X256680Y168150I989J148*
X256691Y168301I1000J3*
G03X257860Y169330I-1027J2345*
G01X259630Y168296*
X261400Y169330*
G03X262568Y168301I2196J1315*
G02X262579Y168150I-991J-148*
X262568Y167999I-1002J-3*
G03X261400Y166970I1028J-2344*
G37*
G36*
X248570Y45770D02*
G01X246800Y46804D01*
X245030Y45770*
G03X243862Y46799I-2196J-1316*
G02X243851Y46950I989J148*
X243862Y47101I1000J3*
G03X245030Y48130I-1028J2345*
G01X246800Y47096*
X248570Y48130*
G03X249739Y47101I2196J1316*
G02X249750Y46950I-991J-148*
X249739Y46799I-1002J-3*
G03X248570Y45770I1027J-2345*
G37*
G36*
X272876Y241667D02*
G01X270845Y242823D01*
X271172Y246050*
G03X272122Y245860I950J2280*
X273072Y246050I0J2470*
G02X274072Y245050I0J-1000*
X274009Y244700I-1002J0*
G03X272873Y241824I3073J-2876*
G01X272876Y241667*
G37*
G36*
X303184D02*
G01X303187Y241824D01*
G03X302051Y244700I-4209J0*
G02X301988Y245050I938J349*
X302988Y246050I1000J0*
G03X303938Y245860I950J2280*
X304888Y246050I0J2471*
G01X305215Y242823*
X303184Y241667*
G37*
G36*
X230750Y66200D02*
G01X229570Y68070D01*
G03X229781Y68196I-905J1756*
X229780Y68198I-1J1*
G01X229689Y68239*
X230516Y69143*
Y69144*
X230530Y69184*
X230555Y69199*
G03Y69201J1*
G01X230530Y69216*
G03X230260Y69736I-1868J-640*
G01X229960Y70065*
G03X229570Y70330I-1297J-1490*
G01X230750Y72200*
X231930Y70330*
G03X231540Y70064I910J-1753*
G01X231240Y69736*
G03X230970Y69216I1598J-1160*
G01X230945Y69201*
G03Y69199J-1*
G01X230970Y69184*
X230984Y69144*
X231811Y68239*
X231720Y68198*
G03Y68196J-1*
X231930Y68070I1119J1627*
G01X230750Y66200*
G37*
G36*
X211039Y91148D02*
G03X209945Y92243I-1861J-766D01*
G01X210083Y92381*
G03Y92383J1*
G01X210082*
G03X209570Y91770I1684J-1927*
G01X207550Y92950*
X209570Y94130*
G03X210739Y93101I2196J1316*
G02X210750Y92951I-991J-148*
G01X210751Y92950*
X211359*
X212323Y92095*
X211039Y91148*
G37*
G36*
X211519Y48278D02*
G03X210731Y49268I-2106J-868D01*
G01X210730*
G03X209630Y48030I1602J-2531*
G01X208350Y49800*
X209630Y51570*
G03X210975Y50192I2702J1292*
G01X210976*
G03X211703Y50504I-274J1641*
G01X212677Y49317*
X211519Y48278*
G37*
G36*
X209630Y41930D02*
G01X208350Y43700D01*
X209630Y45470*
G03X210609Y44313I2702J1294*
G01X210610*
G03X211519Y45478I-1633J2211*
G01X212675Y44447*
X211786Y43240*
G03X211194Y43408I-820J-1764*
G01X211193*
G03X209630Y41930I1139J-2770*
G37*
G36*
X288571Y96800D02*
G01X287510Y97961D01*
G03X288192Y98547I-544J1323*
G01Y98548*
G03X286260Y100470I-3591J-1678*
G01X288013Y101748*
X289800Y100470*
G03X288921Y98598I2148J-2151*
X289632Y97961I1255J685*
G01X288571Y96800*
G37*
G36*
X293571D02*
G01X292510Y97961D01*
G03X293228Y98610I-543J1323*
X292260Y100470I-2988J-373*
G01X294045Y101749*
X295800Y100470*
G03X293929Y98584I1604J-3462*
X294632Y97961I1247J699*
G01X293571Y96800*
G37*
G36*
X237050Y63350D02*
G02X236830Y63416I0J400D01*
G03X235870Y64530I-1869J-640*
G01X236970Y66273*
Y66274*
X236950Y66300*
X238230Y67936*
G03X239635Y66519I2438J1012*
G02X239700Y66300I-336J-219*
X239635Y66081I-401J0*
G03X238230Y64664I1033J-2430*
G01X237803Y65209*
X237802*
Y65208*
X238230Y64530*
G03X237270Y63416I908J-1754*
G02X237050Y63350I-220J334*
G37*
G36*
X228710Y215420D02*
G01X225560Y216591D01*
X228710Y217780*
X228775Y217728*
X228776*
X228777Y217729*
G03X228969Y218061I-1131J875*
G01X229758Y217340*
X229933Y217329*
G03X230800Y218336I-1100J1824*
G01X231076Y218048*
X231077*
X231091Y218061*
X231114Y218008*
X231762Y217332*
X231868Y217283*
X231968Y217117*
X232080Y217000*
X231968Y216883*
X231868Y216717*
X231762Y216668*
X231114Y215992*
Y215991*
X231091Y215939*
X231077Y215952*
X231076*
X230800Y215664*
G03X229958Y216656I-1968J-817*
G01X229957*
G03X228710Y215420I1144J-2402*
G37*
G36*
X216101Y75862D02*
G01X215799D01*
G03X214770Y77030I-2345J-1028*
G01X215760Y78725*
Y78726*
X215700Y78800*
X217130Y80570*
G03X218817Y79199I2696J1594*
G02X218900Y78800I-918J-399*
X218817Y78401I-1001J0*
G03X217130Y77030I1010J-2966*
X216101Y75862I1316J-2196*
G37*
G36*
X236100Y78841D02*
G02X235880Y78907I0J400D01*
G03X234920Y80020I-1868J-641*
G01X236062Y83070*
X234920Y86120*
G03X235880Y87234I-908J1754*
G02X236100Y87300I220J-334*
X236320Y87234I0J-400*
G03X237280Y86120I1869J640*
G01X236138Y83070*
X237280Y80020*
G03X236320Y78907I908J-1754*
G02X236100Y78841I-220J334*
G37*
G36*
X207450Y205420D02*
G01X204400Y206531D01*
X201350Y205420*
G03X200216Y206343I-1858J-1124*
G01X200171Y206600*
X200216Y206857*
G03X201350Y207780I-724J2047*
G01X204400Y206669*
X207450Y207780*
G03X208584Y206857I1857J1124*
G01X208629Y206600*
X208584Y206343*
G03X207450Y205420I723J-2047*
G37*
G36*
X247630Y174350D02*
G01X245860Y175630D01*
G03X247385Y177316I-1293J2702*
G02X247497Y177377I245J-316*
G01Y177378*
G02X247232Y177716I133J377*
G03X247313Y178258I-1772J542*
X247093Y179133I-1851J0*
G01X248297Y180046*
X249330Y178889*
G03X247913Y177473I991J-2409*
G01X247763Y177379*
G03Y177377J-1*
G02X247875Y177316I-133J-377*
G03X249400Y175630I2818J1016*
G01X247630Y174350*
G37*
G36*
X231100Y78841D02*
G02X230880Y78907I0J400D01*
G03X229920Y80020I-1868J-641*
G01X231059Y83061*
X229920Y86120*
G03X231164Y87523I-1101J2230*
G02X231400Y87600I236J-323*
X231710Y87453I0J-400*
G03X232280Y86120I1948J45*
G01X231134Y83079*
X232280Y80020*
G03X231320Y78907I908J-1754*
G02X231100Y78841I-220J334*
G37*
G36*
X195030Y116300D02*
G02X194631Y116383I0J1000D01*
G03X193260Y118070I-2965J-1009*
X192233Y119050I-1739J-795*
G02X192179Y119250I346J201*
X192233Y119450I400J-1*
G03X193260Y120430I-712J1775*
G01X194900Y119395*
X195030Y119500*
X195104Y119440*
X195105*
X196800Y120430*
G03X197968Y119401I2196J1315*
G02X197979Y119250I-991J-148*
X197968Y119099I-1002J-3*
G03X196800Y118070I1029J-2345*
X195429Y116383I1594J-2696*
G02X195030Y116300I-399J917*
G37*
G36*
X274470Y169926D02*
G01X273513Y172133D01*
Y174133*
X274470Y176340*
G03X276970Y173840I4250J1750*
G02X277263Y173133I-707J-707*
X276970Y172426I-1001J0*
G03X274470Y169926I1750J-4250*
G37*
G36*
X203530Y167425D02*
G03X201560Y169437I-3490J-1447D01*
G02X201466Y169800I656J363*
X201560Y170163I750J0*
G03X203530Y172175I-1520J3459*
G01X206717Y169800*
X203530Y167425*
G37*
G36*
X219920Y101280D02*
G03X217111Y104076I-4777J-1990D01*
G02X217020Y104330I309J254*
X217111Y104584I400*
G03X219920Y107380I-1969J4787*
G01X221200Y104330*
X219920Y101280*
G37*
G36*
X218560Y192048D02*
G01X217842Y193950D01*
Y195450*
X218560Y197352*
G03X220477Y195321I3607J1485*
G01X220478*
G03X221600Y196470I-1498J2585*
G01X222967Y194700*
X221600Y192930*
G03X220478Y194079I-2620J-1436*
G01X220477*
G03X218560Y192048I1691J-3516*
G37*
G36*
X160716Y173548D02*
G02X159655Y173987I0J1501D01*
G03X158029Y175613I-2766J-1140*
G01X160716Y178675*
X163403Y175613*
G03X161777Y173987I1140J-2766*
G02X160716Y173548I-1061J1062*
G37*
G36*
X217530Y167300D02*
G01X214342Y169800D01*
X217530Y172300*
G03X219838Y170219I3727J1813*
G02X219966Y169800I-622J-419*
X219838Y169381I-750J0*
G03X217530Y167300I1419J-3894*
G37*
G36*
X106300Y153377D02*
G02X105239Y153816I0J1501D01*
G03X103578Y155478I-2825J-1162*
G01X106300Y158575*
X109022Y155478*
G03X107361Y153816I1165J-2825*
G02X106300Y153377I-1061J1062*
G37*
G36*
X146670Y157825D02*
G01X143948Y160922D01*
G03X145609Y162584I-1164J2825*
G02X146670Y163023I1061J-1062*
X147731Y162584I0J-1501*
G03X149392Y160922I2825J1162*
G01X146670Y157825*
G37*
G36*
X238280Y220570D02*
G02X237219Y221009I0J1500D01*
G03X234719Y223509I-4251J-1751*
G01X236780Y224944*
X239780*
X241841Y223509*
G03X239341Y221009I1751J-4251*
G02X238280Y220570I-1061J1061*
G37*
G36*
X162216Y168994D02*
G01X159216D01*
X157155Y170430*
G03X159655Y172930I-1751J4251*
G02X160716Y173369I1061J-1062*
X161777Y172930I0J-1501*
G03X164277Y170430I4250J1750*
G01X162216Y168994*
G37*
G36*
X202301Y46862D02*
G01X201999D01*
G03X200970Y48030I-2345J-1028*
G01X202004Y49800*
X200970Y51570*
G03X201999Y52738I-1315J2196*
G01X202126*
Y52739*
X201900Y53261*
Y55261*
X202857Y57468*
G03X205357Y54968I4250J1750*
G02X205650Y54261I-707J-707*
X205357Y53554I-1001J0*
G03X203170Y51675I1751J-4250*
G01Y51674*
X203330Y51570*
X202296Y49800*
X203330Y48030*
G03X202301Y46862I1316J-2196*
G37*
G36*
X225660Y206500D02*
G01X222610Y207780D01*
G03X224470Y209099I-1990J4777*
Y209100I-1J1*
X222610Y210420I-3851J-3456*
G01X225660Y211700*
X225729Y211671*
X228710Y212686*
G03X229829Y211391I2518J1045*
G01X229830*
G03X230800Y212536I-1309J2093*
G01X232080Y211000*
X230800Y209464*
G03X229706Y210682I-2279J-947*
G01X229705*
X229645Y210683*
X229583Y210682*
X229582*
X228769Y209939*
G03X228523Y210337I-1323J-543*
G01X228522*
G03X226849Y209101I2176J-4696*
Y209099J-1*
X228710Y207780I3850J3459*
G01X225660Y206500*
G37*
G36*
X187040Y153377D02*
G02X185979Y153816I0J1501D01*
G03X184318Y155478I-2825J-1162*
G01X186690Y158177*
Y158178*
X186665Y158200*
X186690Y158222*
Y158223*
X184318Y160922*
G03X185979Y162584I-1164J2825*
G02X187040Y163023I1061J-1062*
X188101Y162584I0J-1501*
G03X189762Y160922I2825J1162*
X191424Y159261I2825J1164*
G02X191863Y158200I-1062J-1061*
X191424Y157139I-1501J0*
G03X189762Y155478I1162J-2825*
X188101Y153816I1165J-2825*
G02X187040Y153377I-1061J1062*
G37*
G36*
X165098Y140160D02*
G02X164384Y140341I0J1500D01*
G03X160477Y144160I-6720J-2967*
G01X165035Y148275*
X169628Y144199*
G03X165832Y140352I2909J-6667*
G02X165098Y140160I-734J1308*
G37*
G36*
X43407D02*
G02X42693Y140341I0J1500D01*
G03X38785Y144160I-6720J-2968*
G01X43356Y148275*
X47955Y144191*
G03X44136Y140349I2889J-6691*
G02X43407Y140160I-729J1311*
G37*
G36*
X124448D02*
G02X123724Y140346I0J1500D01*
G03X119874Y144180I-6713J-2891*
G01X124480Y148275*
X129069Y144160*
G03X125162Y140341I2813J-6786*
G02X124448Y140160I-714J1319*
G37*
G36*
X83889D02*
G02X83166Y140346I0J1500D01*
G03X79313Y144179I-6712J-2894*
G01X83921Y148275*
X88511Y144160*
G03X84603Y140341I2812J-6787*
G02X83889Y140160I-714J1319*
G37*
G36*
X200716Y173237D02*
G02X200186Y173456I0J750D01*
G03X198029Y175613I-3667J-1510*
G01X200548Y178308*
Y178309*
X197822Y180469*
G03X198201Y182151I-4196J1829*
X196630Y183950I-3146J-1162*
G01X198474Y186659*
Y186660*
X198442Y186700*
X200630Y189450*
G03X201029Y188789I4141J2049*
G01X201030Y188788*
X201031Y188789*
G03X201430Y189450I-3742J2710*
X203032Y191336I-1574J2961*
G02X203430Y191450I398J-636*
X203827Y191336I-1J-750*
G03X205430Y189450I3177J1076*
G01X203585Y186740*
X203586Y186739*
X203617Y186700*
X203586Y186660*
X203585*
X203586*
X205430Y183950*
G03X203827Y182064I1573J-2961*
G02X203430Y181950I-397J636*
X203032Y182064I-1J750*
G03X201430Y183950I-3177J-1075*
X201031Y184611I-4141J-2049*
G01X201030Y184612*
X201029Y184611*
G03X200630Y183950I3742J-2710*
X199798Y183325I1574J-2961*
G01Y183324*
G03X202680Y180987I5345J3646*
G01X200896Y178297*
G03Y178296I1J0*
G01X203403Y175613*
G03X201246Y173456I1511J-3668*
G02X200716Y173237I-530J531*
G37*
G36*
X220716D02*
G02X220186Y173456I0J750D01*
G03X218029Y175613I-3667J-1510*
G01X220537Y178297*
G03X220538Y178298I0J1*
G01X220329Y178621*
X218030Y180986*
Y181949*
G03X218029Y181950I-1J0*
G02X217632Y182064I1J750*
G03X216030Y183950I-3177J-1075*
G01X217902Y186700*
X216030Y189450*
G03X217632Y191336I-1574J2961*
G02X218030Y191450I397J-636*
X218427Y191336I0J-750*
G03X220030Y189450I3177J1076*
G01X218158Y186700*
X220030Y183950*
G03X219023Y183131I1572J-2962*
G01Y183130*
G03X220220Y181798I4690J3011*
G01X220221*
G03X221669Y183317I-3873J5142*
G01Y183318*
G03X220830Y183950I-2412J-2330*
G01X222830Y186888*
X224830Y183950*
G03X223249Y182127I1573J-2961*
X223615Y180464I4549J129*
G01X220884Y178309*
Y178308*
X223403Y175613*
G03X221246Y173456I1511J-3668*
G02X220716Y173237I-530J531*
G37*
G36*
X221748Y57061D02*
G01X215780D01*
G02X215580Y57261J200*
G01Y59183*
G03X212580Y62183I-3000J0*
X209580Y59183I0J-3000*
G01Y57261*
G02X209380Y57061I-200J0*
G01X208268*
G02X208114Y57134I0J200*
G03X206973Y58115I-3463J-2873*
X206906Y58141I-105J-170*
G02X206094Y58801I201J1077*
G01X205584Y60039*
G03X205478Y60146I-185J-77*
G01X205071Y60323*
G02X204950Y60507I79J184*
G01Y61857*
G02X205009Y61999I200*
G01X206751Y63741*
G02X206893Y63800I142J-140*
G01X215027*
G03X215168Y63858I0J200*
G01X218692Y67382*
G03X218750Y67523I-141J141*
G01Y75800*
G02X218950Y76000I200J0*
G01X220177*
G03X220318Y76058I0J200*
G01X222722Y78461*
G02X222863Y78520I142J-140*
G01X225426*
G02X225610Y78396I-1J-200*
G01X225634Y78340*
X225610Y78222*
X224258Y76870*
G03X224200Y76729I141J-141*
G01Y76728*
Y62240*
X224111Y62130*
X224042Y62115*
G03X221680Y59183I639J-2932*
X222093Y57664I3001J0*
G01X222120Y57617*
X222121Y57510*
X221922Y57162*
G02X221748Y57061I-174J99*
G37*
G36*
X174849Y151700D02*
G01X171370D01*
X171257Y151796*
X171246Y151870*
G03X169763Y153140I-1483J-231*
G01X164548*
G02X164407Y153199I1J200*
G01X162949Y154657*
G02X162890Y154798I140J142*
G01Y162050*
G03X160890Y164050I-2000J0*
G01X153190*
X153189*
G03X151288Y162670I0J-2000*
G01X151272Y162621*
X151198Y162551*
X150773Y162440*
X150674Y162465*
X150637Y162500*
X150054Y162972*
G02X149970Y163135I116J163*
G01Y164920*
G02X150029Y165061I200J-1*
G01X150978Y166011*
G02X151119Y166069I141J-141*
G01X151120*
X157229*
G02X157343Y166033I0J-200*
G01X158065Y165530*
G03X158179Y165494I114J164*
G01X158180*
X163252*
G03X163366Y165530I0J200*
G01X164089Y166033*
G02X164203Y166069I114J-164*
G01X182590*
X182591*
G02X182732Y166011I0J-200*
G01X183681Y165061*
G02X183740Y164920I-140J-142*
G01Y163135*
G02X183655Y162972I-200J1*
G03X182664Y154317I3385J-4772*
G01X182717Y154258*
X182712Y154099*
X181812Y153199*
G02X181670Y153140I-142J140*
G01X176455*
G03X174973Y151870I0J-1500*
G01X174961Y151796*
X174849Y151700*
G37*
G36*
X220885Y200215D02*
G01X220709Y200282D01*
G02X220580Y200469I71J187*
G01Y211074*
G03X220522Y211215I-200J0*
G01X217645Y214092*
G03X217504Y214150I-141J-141*
G01X217503*
X209139*
G02X208969Y214246I1J200*
G01X208764Y214582*
X208760Y214687*
X208784Y214733*
G03X208950Y215419I-1335J686*
G01Y215420*
Y217780*
G03X207847Y219227I-1500J0*
G01X207782Y219244*
X207700Y219352*
Y221069*
G02X207879Y221268I200J0*
G01X207886Y221269*
X231909*
G02X232073Y221183I0J-200*
G01X232401Y220712*
G03X232490Y220642I163J115*
G01X232523Y220628*
X232590Y220502*
X232577Y220432*
G02X232380Y220270I-197J38*
G01X230800*
X230797*
X230750Y220269*
X230703Y220267*
X230608Y220258*
G02X230583Y220256I-28J198*
X230551Y220259I3J200*
G01X230030Y220300*
G03X227701Y219338I0J-3301*
G02X227560Y219280I-141J142*
G01X222610*
G03X221110Y217780I0J-1500*
G01Y215420*
G03X221531Y214378I1500*
G01X221558Y214350*
X221587Y214278*
Y213922*
X221558Y213850*
X221531Y213822*
G03X221110Y212780I1079J-1042*
G01Y210420*
G03X221531Y209378I1500*
G01X221558Y209350*
X221587Y209278*
Y208922*
X221558Y208850*
X221531Y208822*
G03X221110Y207780I1079J-1042*
G01Y205420*
G03X221531Y204378I1500*
G01X221558Y204350*
X221587Y204278*
Y203922*
X221558Y203850*
X221531Y203822*
G03X221110Y202780I1079J-1042*
G01Y200420*
G02X221023Y200255I-200J0*
G01X220983Y200227*
X220885Y200215*
G37*
G36*
X130836Y134400D02*
G01X129711D01*
X129688*
X126688*
X126665*
X122231*
X122208*
X119208*
X119185*
X103903*
X103802Y134466*
X103779Y134521*
G03X102400Y135430I-1379J-591*
G01X101930*
G02X101730Y135630I0J200*
G01Y135790*
G02X101827Y135961I200J0*
G01X102167Y136165*
X102273Y136167*
X102319Y136142*
G03X103880Y135750I1560J2908*
X107015Y138018I0J3300*
X104625Y142265I-3135J1032*
G01X104557Y142281*
X104470Y142390*
Y142460*
G02X104670Y142660I200J0*
G01X104786*
G03X106286Y144160I0J1500*
G01Y148706*
G02X106344Y148847I200J0*
G01X109542Y152044*
G03X109600Y152186I-141J141*
G01Y153265*
G02X109684Y153428I200J0*
G01X110267Y153900*
X110304Y153935*
X110403Y153960*
X110828Y153849*
X110902Y153779*
X110918Y153730*
G03X112820Y152350I1902J620*
G01X115279*
G02X115420Y152291I-1J-200*
G01X118195Y149517*
G02X118253Y149375I-141J-141*
G01Y144160*
G03X119536Y142676I1500J0*
G02X119596Y142657I-30J-198*
X121088Y141593I-2585J-5202*
X121148Y141450I-139J-143*
G01Y140420*
G03X121431Y139083I3300J0*
G01X121448Y139045*
Y138920*
G03X122948Y137420I1500*
G01X123073*
X123111Y137403*
G03X124448Y137120I1337J3017*
X125785Y137403I0J3300*
G01X125824Y137420*
X125948*
G03X127448Y138920I0J1500*
G01Y139045*
X127465Y139083*
G03X127748Y140420I-3017J1337*
G01Y141424*
G02X127809Y141567I200J-1*
X129392Y142663I4074J-4192*
X129445Y142679I84J-182*
G03X130686Y143930I-242J1481*
G01X130697Y144004*
X130810Y144100*
X134289*
X134402Y144004*
X134413Y143930*
G03X135895Y142660I1483J231*
G01X142539*
G02X142732Y142511I0J-200*
G01X142849Y142072*
X142797Y141947*
X142738Y141913*
X142504Y141766*
G02X142391Y141730I-115J165*
G01X139418*
X139417*
G03X138447Y141374I0J-1500*
G01X138420Y141350*
X138353Y141326*
X138023*
X137957Y141350*
X137929Y141374*
G03X136959Y141730I-970J-1145*
G01X136958*
X135658*
Y141729*
G03X136958Y140230I2895J1197*
G01X135188Y138800*
X135114Y138860*
X135113*
X133418Y137870*
G03X132250Y138899I-2196J-1316*
G02X132239Y139050I989J148*
X132250Y139201I1000J3*
G03X133418Y140230I-1028J2345*
X134718Y141729I-1595J2696*
X134717Y141730I-1J0*
G01X133418*
G03X131918Y140230I0J-1500*
G01Y137870*
G03X133418Y136370I1500*
G01X133888*
G02X134088Y136170I0J-200*
G01Y135630*
G02X133888Y135430I-200*
G01X133418*
G03X132374Y135007I0J-1500*
G02X132234Y134950I-140J142*
G01X131551*
G03X131410Y134892I0J-200*
G01X130977Y134459*
G02X130836Y134400I-142J140*
G37*
G36*
X171636D02*
G01X144461D01*
X144361Y134466*
X144337Y134521*
G03X142958Y135430I-1379J-591*
G01X142488*
G02X142288Y135630J200*
G01Y135759*
G02X142384Y135930I200J0*
G01X142720Y136135*
X142825Y136139*
X142871Y136115*
G03X144380Y135750I1509J2935*
X147435Y137803I0J3300*
X145125Y142265I-3056J1247*
G01X145057Y142281*
X144970Y142390*
Y142460*
G02X145170Y142660I200J0*
G01X145345*
X145346*
G03X146846Y144160I0J1500*
G01Y149375*
G02X146904Y149517I200J1*
G01X149912Y152524*
G03X149970Y152665I-141J141*
G01Y153314*
X150015Y153400*
X150054Y153428*
X150637Y153900*
X150674Y153935*
X150773Y153960*
X151198Y153849*
X151272Y153779*
X151288Y153730*
G03X153190Y152350I1902J620*
G01X155839*
G02X155980Y152291I-1J-200*
G01X158755Y149517*
G02X158813Y149375I-141J-141*
G01Y144160*
G03X160110Y142674I1500J0*
G02X160168Y142656I-30J-198*
X161737Y141567I-2504J-5283*
X161798Y141424I-138J-144*
G01Y140320*
G03X162081Y138983I3300J0*
G01X162098Y138945*
Y138820*
G03X163598Y137320I1500*
G01X163723*
X163761Y137303*
G03X165098Y137020I1337J3017*
X166435Y137303I0J3300*
G01X166474Y137320*
X166598*
G03X168098Y138820J1500*
G01Y138945*
X168115Y138983*
G03X168398Y140320I-3017J1337*
G01Y141476*
G02X168457Y141618I200J0*
X169859Y142648I4080J-4084*
X169930Y142669I91J-178*
G03X171246Y143930I-166J1491*
G01X171257Y144004*
X171370Y144100*
X174849*
X174961Y144004*
X174973Y143930*
G03X176455Y142660I1482J230*
G01X185905*
X185907*
X185962Y142661*
X186017Y142664*
X186126Y142676*
X186180Y142684*
X186283Y142642*
X186559Y142270*
X186570Y142160*
X186546Y142110*
G03X186420Y141804I2985J-1408*
G01X186404Y141760*
X186337Y141695*
X185945Y141569*
X185853Y141582*
X185814Y141609*
G03X183929Y142200I-1885J-2709*
X182125Y141663I0J-3300*
G02X182015Y141630I-110J166*
G01X180068*
G03X179097Y141273I0J-1500*
G01X179070Y141250*
X179003Y141226*
X178673*
X178607Y141250*
X178579Y141273*
G03X177608Y141630I-972J-1144*
G01X176308*
Y141629*
G03X177608Y140130I2895J1197*
G01X175838Y138700*
X175764Y138760*
X175763*
X174068Y137770*
G03X172900Y138799I-2196J-1316*
G02X172889Y138950I989J148*
X172900Y139101I1000J3*
G03X174068Y140130I-1028J2345*
X175368Y141629I-1595J2696*
X175367Y141630I-1J0*
G01X174068*
G03X172568Y140130I0J-1500*
G01Y137770*
G03X174068Y136270I1500*
G01X174538*
G02X174738Y136070I0J-200*
G01Y135530*
G02X174538Y135330I-200*
G01X174068*
G03X173024Y134907I0J-1500*
G02X172884Y134850I-140J142*
G01X172251*
G03X172110Y134792I0J-200*
G01X171777Y134459*
G02X171636Y134400I-142J140*
G37*
G36*
X218730Y123700D02*
G01X213530D01*
X213130Y124100*
Y134600*
X212830Y134900*
X204530*
X203730Y135700*
Y155000*
X205930Y157200*
X222330*
X225230Y154300*
X235530*
X235830Y154000*
Y147000*
X235230Y146400*
X230030*
X228830Y145200*
Y135700*
X228030Y134900*
X219330*
X219030Y134600*
Y124000*
X218730Y123700*
G37*
G36*
X296631Y175591D02*
G01X296515Y175607D01*
X296470Y175645*
G03X294329Y176434I-2141J-2511*
G01X291129*
G03X289430Y175962I2J-3300*
G02X289328Y175934I-102J172*
G01X289327*
X279881*
G02X279727Y176006I0J200*
G03X278586Y176988I-3464J-2872*
X278520Y177013I-103J-171*
G02X277707Y177673I200J1077*
G01X277197Y178912*
G03X277092Y179019I-185J-76*
G01X276684Y179196*
G02X276563Y179379I79J184*
G01Y191277*
G03X276505Y191418I-200J0*
G01X272982Y194942*
G03X272841Y195000I-141J-141*
G01X272840*
X266573*
G02X266431Y195059J200*
G01X264789Y196701*
G02X264730Y196843I140J142*
G01Y199497*
G02X264759Y199600I200J-1*
G03X265230Y201300I-2829J1699*
X264759Y203000I-3301J1*
G01X264745Y203023*
X264730Y203076*
Y204357*
G02X264789Y204499I200J0*
G01X268426Y208136*
X268477Y208164*
X268506Y208170*
G03X270870Y210115I-675J3230*
G01X270889Y210161*
X270966Y210224*
X271341Y210297*
G02X271380Y210301I40J-196*
X271521Y210242I-1J-200*
G01X273204Y208558*
G03X273345Y208500I141J141*
G01X273346*
X289735*
G02X289920Y208376I0J-200*
G01X289943Y208320*
X289920Y208201*
X288688Y206970*
G03X288630Y206829I141J-141*
G01Y206828*
Y195172*
Y195171*
G03X288688Y195030I200J0*
G01X292660Y191058*
G03X292801Y191000I141J141*
G01X296930*
G02X297130Y190800I0J-200*
G01Y175949*
G02X297014Y175768I-200J0*
G01X296631Y175591*
G37*
G36*
X280936Y97500D02*
G01X262266D01*
G02X262121Y97563I1J200*
G01X261893Y97803*
X261864Y97881*
X261866Y97922*
G03X259192Y101341I-3295J178*
G01X259122Y101355*
X259030Y101466*
Y108629*
G03X258972Y108770I-200J0*
G01X253300Y114442*
G03X253159Y114500I-141J-141*
G01X253158*
X197930*
G02X197730Y114700J200*
G01Y116800*
G02X197797Y116949I200J0*
G01X197830Y116980*
G02X197966Y117034I137J-146*
G01X197968*
X198092*
X198093*
G02X198230Y116980I0J-200*
G03X199260Y116570I1030J1090*
G01X200559*
G03X200560Y116571I0J1*
X199260Y118070I-2895J-1197*
X198091Y119099I-2196J-1317*
G02X198080Y119250I989J148*
X198091Y119401I1000J3*
G03X199260Y120430I-1027J2345*
G01X200955Y119440*
X200956*
X201030Y119500*
X201104Y119440*
X201105*
X202800Y120430*
G03X203968Y119401I2196J1315*
G02X203979Y119250I-991J-148*
X203968Y119099I-1002J-3*
G03X202800Y118070I1029J-2345*
X201500Y116571I1595J-2696*
X201501Y116570I1J0*
G01X202800*
G03X204300Y118070J1500*
G01Y120430*
G03X203797Y121551I-1500J0*
G01X203750Y121592*
X203721Y121713*
X203876Y122121*
G02X204063Y122250I187J-71*
G01X205454*
X205455*
G03X205596Y122308I0J200*
G01X205798Y122511*
G02X205939Y122569I141J-141*
G01X209628*
G02X209769Y122511I0J-200*
G01X212022Y120258*
G03X212163Y120200I141J141*
G01X220097*
G03X220238Y120258I0J200*
G01X222491Y122511*
G02X222632Y122569I141J-141*
G01X223812*
G03X223813Y122570I0J1*
X222177Y124069I-4182J-2922*
G01X224832Y128300*
Y128301*
X224755Y128400*
X228083Y132668*
G03X229582Y130437I6264J2590*
X229583Y130438I0J1*
G01Y131420*
G02X229642Y131562I200J0*
G01X232272Y134192*
G03X232330Y134333I-141J141*
G01Y142700*
G02X232530Y142900I200J0*
G01X236597*
G03X236738Y142958I0J200*
G01X239221Y145441*
G02X239363Y145500I142J-140*
G01X286795*
G03X286936Y145558I0J200*
G01X290088Y148710*
G02X290230Y148769I142J-140*
X290306Y148754I0J-199*
G01X290362Y148731*
X290430Y148630*
Y119694*
G02X290371Y119553I-200J1*
G01X281688Y110870*
G03X281630Y110729I141J-141*
G01Y98194*
G02X281571Y98053I-200J1*
G01X281077Y97559*
G02X280936Y97500I-142J140*
G37*
G36*
X353131Y1000D02*
G01X208913D01*
G02X208771Y1059I0J200*
G01X197788Y12041*
G02X197730Y12183I141J141*
G01Y108300*
G02X197930Y108500I200J0*
G01X201241*
G02X201441Y108300I0J-200*
G01Y102687*
X201396Y102561*
G03X201691Y97617I2845J-2311*
X204241Y96584I2551J2632*
X206668Y97503I0J3665*
G02X206800Y97553I132J-150*
X206932Y97503I0J-200*
G03X209015Y96601I2427J2747*
G01X209072Y96596*
X209164Y96524*
X209326Y96074*
X209301Y95961*
X209300Y95960*
Y95950*
G02X209100Y95750I-200J0*
G01X207800*
G03X207016Y95638J-2800*
G01X206988Y95630*
X206030*
G03X204530Y94130I0J-1500*
G01Y91770*
G03X205845Y90281I1500J0*
G01X205966Y90219*
X206047Y90132*
G02X206100Y89996I-147J-136*
G01Y89604*
G02X206047Y89468I-200J0*
G01X205966Y89381*
X205845Y89319*
G03X204530Y87830I185J-1489*
G01Y85470*
G03X206030Y83970I1500J0*
G01X207329*
G03X207330Y83971I0J1*
X206030Y85470I-2895J-1197*
X204861Y86499I-2196J-1317*
G02X204850Y86650I989J148*
X204861Y86801I1000J3*
G03X206030Y87830I-1027J2345*
G01X207725Y86840*
X207726*
X207800Y86900*
X207874Y86840*
X207875*
X209570Y87830*
G03X210739Y86801I2196J1316*
G02X210750Y86650I-991J-148*
X210739Y86499I-1002J-3*
G03X209570Y85470I1027J-2346*
X208270Y83971I1595J-2696*
X208271Y83970I1J0*
G01X209570*
G03X210576Y84357I0J1500*
G02X210710Y84409I134J-148*
X210797Y84389I0J-200*
G03X212100Y84091I1303J2702*
X214535Y85339I0J3000*
X214076Y89349I-2435J1753*
G01X214043Y89377*
X214007Y89456*
Y89844*
X214043Y89922*
X214076Y89951*
G03X214913Y93253I-1975J2258*
G01X214900Y93287*
Y93557*
G02X214959Y93699I200J0*
G01X215201Y93941*
G02X215343Y94000I142J-140*
G01X230177*
G03X230318Y94058I0J200*
G01X233842Y97582*
G03X233900Y97723I-141J141*
G01Y99484*
G02X233984Y99646I200J-1*
G01X234289Y99864*
X234385Y99878*
X234431Y99862*
G03X234920Y99780I489J1418*
G01X237280*
G03X238780Y101280J1500*
G01Y103212*
G03X238779Y103213I-1J0*
X237280Y101280I2988J-3865*
X236251Y100112I1316J-2196*
G01X235949*
G03X234920Y101280I-2344J-1028*
G01X235941Y104135*
Y104136*
X235850Y104330*
X237280Y107380*
G03X238779Y105447I4486J1931*
X238780Y105448I0J1*
G01Y107380*
G03X238668Y107948I-1500J-1*
G01X238649Y107995*
X238659Y108094*
X238872Y108411*
G02X239038Y108500I167J-111*
G01X250577*
G02X250718Y108441I-1J-200*
G01X252941Y106218*
G02X253000Y106077I-140J-142*
G01Y101544*
X252912Y101434*
X252844Y101419*
X252778Y101404*
X252605Y101513*
G02X252517Y101637I107J169*
G03X249300Y104200I-3217J-737*
X247755Y103817I-2J-3300*
X247037Y98498I1545J-2916*
G02X247100Y98352I-137J-146*
G01Y97472*
G03X247158Y97330I200J-1*
G01X248247Y96242*
G02X248290Y96024I-141J-141*
G01X248267Y95968*
X248166Y95900*
X234672*
X234671*
G03X234530Y95842I0J-200*
G01X229258Y90570*
G03X229200Y90428I141J-141*
G01Y87550*
G02X229108Y87382I-200J0*
G01X229091Y87370*
X228837Y87506*
X228780Y87601*
Y87619*
G03X228779Y87620I-1J0*
G01X218620*
G03X218420Y87420I0J-200*
G01Y83882*
X218412Y83855*
G03X218300Y83070I2688J-784*
G01Y82043*
G02X218241Y81901I-200J0*
G01X218146Y81806*
X218005Y81791*
X217946Y81829*
G03X217130Y82070I-816J-1259*
G01X214770*
G03X213274Y80685I0J-1500*
G01X213268Y80607*
X213153Y80500*
X212447*
X212332Y80607*
X212326Y80685*
G03X210830Y82070I-1496J-115*
G01X208470*
G03X206970Y80570I0J-1500*
G01Y79270*
X206971*
G03X208470Y80570I-1197J2895*
X209499Y81738I-1316J2197*
G01X209801*
G03X210830Y80570I2345J1028*
G01X209840Y78875*
Y78874*
X209900Y78800*
X209840Y78726*
Y78725*
X210830Y77030*
G03X209801Y75862I1316J-2196*
G01X209499*
G03X208470Y77030I-2344J-1028*
X206971Y78330I-2697J-1595*
X206970Y78329I0J-1*
G01Y77030*
G03X207326Y76059I1500J-1*
G01X207350Y76032*
X207374Y75965*
Y75635*
X207350Y75568*
X207326Y75541*
G03X206970Y74570I1145J-970*
G01Y73270*
X206971*
G03X208470Y74570I-1197J2895*
X209499Y75738I-1316J2197*
G01X209801*
G03X210830Y74570I2345J1028*
G01X209840Y72875*
Y72874*
X209900Y72800*
X208470Y71030*
G03X206971Y72330I-2696J-1595*
X206970Y72329I0J-1*
G01Y71030*
G03X207326Y70059I1500J-1*
G01X207364Y70014*
X207380Y69899*
X207203Y69516*
G02X207022Y69400I-182J84*
G01X204573*
G03X204432Y69342I0J-200*
G01X199408Y64318*
G03X199350Y64177I141J-141*
G01Y58220*
G02X199333Y58140I-200J1*
G01X198416Y56025*
G03X198400Y55946I184J-78*
G01Y52576*
G03X198416Y52497I200J-1*
G01X199333Y50382*
G02X199350Y50302I-184J-81*
G01Y43700*
G03X199462Y42916I2800*
G01X199470Y42888*
Y41930*
G03X200970Y40430I1500J0*
G01X203330*
G03X204830Y41930J1500*
G01Y42400*
G02X205030Y42600I200J0*
G01X205570*
G02X205770Y42400I0J-200*
G01Y41930*
G03X207270Y40430I1500J0*
G01X209630*
G03X210983Y41282I0J1500*
G01X211047Y41402*
G02X211219Y41500I172J-102*
G01X211332*
G02X211416Y41481I-1J-200*
G01X211418Y41480*
G03X211945Y41363I528J1133*
X212304Y41416I-1J1250*
G02X212362Y41424I56J-193*
G01X212368*
X212375*
X212580Y41417*
G03X215322Y43201I-1J3000*
X214650Y46588I-2743J1216*
G01X214620Y46617*
X214588Y46692*
Y47064*
X214620Y47139*
X214650Y47168*
G03X215167Y50858I-2071J2171*
G01X215140Y50905*
X215139Y51012*
X215338Y51360*
G02X215512Y51461I174J-99*
G01X221748*
G02X221922Y51360I0J-200*
G01X222121Y51012*
X222120Y50905*
X222093Y50858*
G03X222610Y47168I2587J-1519*
G01X222639Y47139*
X222672Y47064*
Y46692*
X222639Y46617*
X222610Y46588*
G03X222047Y42979I2070J-2171*
X224680Y41417I2633J1438*
X225264Y41474I2J3000*
G02X225302Y41478I40J-196*
X225367Y41467I0J-200*
G03X225772Y41400I404J1183*
X226695Y41807I0J1250*
G01X227010Y42152*
G02X227158Y42217I148J-135*
G01X228545*
X228546*
G03X228687Y42275I0J200*
G01X231342Y44930*
G03X231400Y45072I-141J141*
G01Y62830*
G02X231600Y63030I200J0*
G01X231930*
G03X233430Y64530J1500*
G01Y65000*
G02X233630Y65200I200J0*
G01X234170*
G02X234370Y65000I0J-200*
G01Y64530*
G03X234793Y63485I1500J-1*
G02X234850Y63346I-142J-140*
G01Y42522*
G03X234908Y42380I200J-1*
G01X237430Y39858*
G03X237571Y39800I141J141*
G01X237572*
X248380*
G02X248580Y39600I0J-200*
G01Y23122*
G03X248638Y22980I200J-1*
G01X251860Y19758*
G03X252001Y19700I141J141*
G01X278608*
G02X278762Y19627I-1J-200*
G01X278987Y19355*
X279009Y19268*
X279000Y19224*
G03X281064Y15517I3241J-624*
X282241Y15299I1180J3083*
X285073Y16905I0J3301*
X284504Y21002I-2832J1695*
G01X284474Y21030*
X284441Y21106*
Y21728*
G03X284382Y21870I-200J0*
G01X282211Y24042*
G03X282070Y24100I-141J-141*
G01X282069*
X253824*
G02X253683Y24159I1J200*
G01X253039Y24803*
G02X252980Y24944I140J142*
G01Y42028*
G03X252922Y42170I-200J1*
G01X252083Y43008*
G02X252040Y43226I141J141*
G01X252063Y43282*
X252164Y43350*
X254300*
G03X255800Y44850J1500*
G01Y47117*
G02X255859Y47259I200J0*
G01X255941Y47341*
G03X256000Y47483I-140J142*
G01Y52183*
X255800Y52383*
Y53800*
G03X255799Y53801I-1J0*
G01X255798Y53800*
X255749Y53514*
G03X254300Y52330I956J-2648*
G01X252818Y53600*
X252817*
X252800Y53580*
X252685Y53714*
Y53715*
X252550Y53830*
X252570Y53847*
Y53848*
X251300Y55330*
G03X252484Y56778I-1464J2405*
G02X252762Y56828I314J-950*
G03Y56830J1*
G01X251300*
G03X249915Y55907I0J-1500*
G01X249898Y55866*
X249834Y55807*
X249464Y55685*
X249378Y55695*
X249340Y55717*
G03X248570Y55930I-770J-1287*
G01X247271*
G03X247270Y55929I0J-1*
X248570Y54430I2895J1198*
X249739Y53401I2195J1316*
G02X249750Y53250I-991J-148*
X249739Y53099I-1002J-3*
G03X248570Y52070I1027J-2345*
G01X246875Y53060*
X246874*
X246800Y53000*
X245030Y54430*
G03X246330Y55929I-1594J2696*
X246329Y55930I-1J0*
G01X245030*
X245029*
G03X244059Y55574I0J-1500*
G01X244032Y55550*
X243965Y55526*
X243635*
X243568Y55550*
X243541Y55574*
X243218Y55783*
X243098Y55847*
G02X243000Y56019I102J172*
G01Y62606*
G02X243059Y62747I200J-1*
G01X244142Y63830*
G03X244200Y63972I-141J141*
G01Y67689*
X244211Y67700*
X251928*
X251929*
G03X252070Y67758I0J200*
G01X254742Y70430*
G03X254800Y70572I-141J141*
G01Y84700*
G03X254742Y84841I-200J0*
G01X252914Y86669*
X252883Y86746*
X252884Y86787*
G03X251921Y89217I-3299J98*
G01X251878Y89260*
X251855Y89379*
X252019Y89776*
G02X252204Y89900I185J-76*
G01X286006*
G02X286147Y89841I-1J-200*
G01X288371Y87617*
G02X288430Y87476I-140J-142*
G01Y87206*
X288397Y87130*
X288367Y87102*
G03X288896Y81892I2263J-2402*
X290630Y81400I1734J2808*
X293715Y83528I0J3300*
G02X293902Y83656I187J-72*
X293938Y83653I1J-200*
G03X294530Y83599I595J3247*
X297816Y86593I0J3301*
X294530Y90200I-3286J306*
G01X294432Y90199*
X294390Y90198*
X294314Y90228*
X290716Y93825*
G02X290658Y93974I141J141*
G01X290670Y94307*
X290705Y94382*
X290737Y94410*
X290801Y94467*
X290829Y94492*
X290898Y94520*
X291244*
X291314Y94492*
X291341Y94467*
G03X293571Y93600I2230J2433*
X295800Y94466I0J3300*
X296332Y98709I-2229J2434*
G02X296305Y98868I167J110*
G01X296357Y99073*
X296430Y99109*
G03X297300Y100470I-630J1361*
G01Y102830*
G03X295800Y104330I-1500J0*
G01X295330*
G02X295130Y104530J200*
G01Y105070*
G02X295330Y105270I200J0*
G01X295800*
G03X297300Y106770I0J1500*
G01Y109130*
G03X296447Y110483I-1500J0*
G01X296328Y110547*
G02X296230Y110719I102J172*
G01Y114506*
G02X296289Y114647I200J-1*
G01X297972Y116330*
G03X298030Y116472I-141J141*
G01Y153302*
G02X298091Y153447I200J1*
G01X298328Y153675*
X298405Y153704*
X298445Y153702*
X298571Y153700*
G03X301322Y158824I0J3300*
G02X301347Y159076I167J111*
G01X306296Y164025*
G03X306355Y164166I-140J142*
G01Y191700*
G02X306555Y191900I200J0*
G01X322182*
G02X322328Y191837I0J-200*
G03X324730Y190800I2402J2263*
X326993Y191698I0J3300*
X327132Y196363I-2263J2402*
X324730Y197400I-2402J-2263*
X322328Y196363I0J-3300*
G02X322182Y196300I-146J137*
G01X304086*
X304013Y196270*
X303992Y196249*
X301700Y198542*
G03X301559Y198600I-141J-141*
G01X301558*
X298749*
G02X298562Y198729I0J200*
G03X295480Y200850I-3082J-1179*
G01X295379Y200849*
X295279Y200844*
X295079Y200826*
X295036Y200820*
X294954Y200846*
X294698Y201073*
G02X294630Y201223I132J150*
G01Y201962*
X294716Y202071*
X294784Y202087*
G03X296970Y203800I-754J3213*
G02X297148Y203910I179J-90*
G01X297163Y203909*
X297286Y203902*
X297348Y203900*
X297410*
G03X300611Y208002I0J3300*
G01X300600Y208047*
X300619Y208138*
X300841Y208423*
G02X300999Y208500I158J-123*
G01X306914*
G03X307055Y208558I0J200*
G01X311638Y213141*
G02X311780Y213200I142J-140*
G01X313830*
G03X317130Y216500I0J3300*
X313830Y219800I-3300J0*
G01X310330*
X310329*
G03X307996Y218834I0J-3300*
G01X304322Y215159*
G02X304180Y215100I-142J140*
G01X291476*
X291475*
G02X291288Y215230I0J200*
G01X291136Y215641*
X291167Y215762*
X291214Y215803*
G03X291553Y220458I-2158J2497*
X289057Y221600I-2497J-2158*
X286747Y220657I0J-3300*
G02X286607Y220600I-140J143*
G01X278613*
X278596*
G03X275376Y216748I34J-3300*
G01X275387Y216683*
X275329Y216567*
X274932Y216362*
G02X274840Y216340I-91J178*
X274699Y216398I0J200*
G01X270850Y220248*
G02X270805Y220463I140J142*
G01X270963Y220860*
X271061Y220929*
X271121Y220930*
G03X274589Y224496I-99J3566*
G01Y225804*
G02X274690Y225978I200J0*
G01X275038Y226177*
X275146Y226176*
X275192Y226149*
G03X276652Y225751I1460J2481*
X278996Y226959I0J2879*
X278521Y230820I-2344J1671*
X276652Y231509I-1869J-2190*
X274638Y230687I0J-2879*
G01X274606Y230655*
X274521Y230626*
X274123Y230671*
X274047Y230718*
X274022Y230756*
X273863Y230984*
X273822Y231105*
Y239147*
X273863Y239268*
G03X274589Y241425I-2841J2157*
G01Y242050*
G02X274789Y242250I200J0*
G01X284930*
G02X285130Y242050I0J-200*
G01Y241703*
G02X285076Y241568I-200J2*
G01X284996Y241481*
X284874Y241419*
G03X283560Y239930I186J-1488*
G01Y237570*
G03X285060Y236070I1500*
G01X286359*
G03X286360Y236071I0J1*
X285060Y237570I-2895J-1197*
X283891Y238599I-2196J-1317*
G02X283880Y238750I989J148*
X283891Y238901I1000J3*
G03X285060Y239930I-1027J2345*
G01X286755Y238940*
X286756*
X286830Y239000*
X286904Y238940*
X286905*
X288600Y239930*
G03X289768Y238901I2196J1315*
G02X289779Y238750I-991J-148*
X289768Y238599I-1002J-3*
G03X288600Y237570I1029J-2345*
X287300Y236071I1595J-2696*
X287301Y236070I1J0*
G01X288600*
G03X290100Y237570I0J1500*
G01Y239930*
G03X288785Y241419I-1500J0*
G01X288663Y241481*
X288583Y241568*
G02X288530Y241703I147J136*
G01Y242050*
G02X288730Y242250I200J0*
G01X301271*
G02X301471Y242050I0J-200*
G01Y241425*
G03X302197Y239268I3567J0*
G01X302238Y239147*
Y231105*
X302197Y230984*
X302038Y230756*
X302013Y230718*
X301937Y230671*
X301539Y230626*
X301454Y230655*
X301421Y230687*
G03X299408Y231508I-2013J-2057*
X297534Y230815I-1J-2878*
X297068Y226954I1874J-2185*
X299408Y225751I2340J1675*
X300868Y226149I0J2878*
G01X300914Y226176*
X301022Y226177*
X301370Y225978*
G02X301471Y225804I-99J-174*
G01Y224496*
G03X305038Y220929I3567J0*
X308605Y224496I0J3567*
G01Y228827*
G03X307879Y230984I-3567J0*
G01X307838Y231105*
Y239147*
X307879Y239268*
G03X308605Y241425I-2841J2157*
G01Y244575*
G03X305038Y248143I-3567J1*
X303661Y247866I1J-3567*
G02X303584Y247850I-78J184*
G01X272476*
G02X272398Y247866I0J200*
G03X271022Y248142I-1376J-3291*
X267455Y244575I0J-3567*
G01Y241425*
G03X268181Y239268I3567J0*
G01X268222Y239147*
Y231105*
X268181Y230984*
G03X267455Y228827I2841J-2157*
G01Y224496*
G03X267474Y224126I3567J-2*
G01X267479Y224080*
X267449Y223995*
X267417Y223963*
G02X267275Y223904I-142J140*
X267134Y223963I1J199*
G01X263286Y227811*
G03X263145Y227870I-142J-140*
G01X241767*
X241766*
G02X241653Y227905I0J200*
G01X240930Y228409*
G03X240816Y228445I-114J-164*
G01X235744*
X235743*
G03X235629Y228409I0J-200*
G01X234907Y227905*
G02X234794Y227870I-113J165*
G01X234793*
X210584*
G02X210398Y227997I0J200*
G01X210240Y228402*
X210268Y228522*
X210314Y228564*
G03X210800Y229670I-1014J1106*
G01Y232030*
G03X209300Y233530I-1500J0*
G01X208001*
G03X208000Y233529I0J-1*
X209300Y232030I2895J1198*
X210468Y231001I2196J1315*
G02X210479Y230850I-991J-148*
X210468Y230699I-1002J-3*
G03X209300Y229670I1028J-2344*
G01X207605Y230660*
X207604*
X207530Y230600*
X207456Y230660*
X207455*
X205760Y229670*
G03X204591Y230699I-2196J-1316*
G02X204580Y230850I989J148*
X204591Y231001I1000J3*
G03X205760Y232030I-1027J2345*
X207060Y233529I-1595J2696*
X207059Y233530I-1J0*
G01X205760*
X205759*
G03X204789Y233174I0J-1500*
G01X204762Y233150*
X204695Y233126*
X204365*
X204298Y233150*
X204271Y233174*
G03X203301Y233530I-970J-1145*
G01X203300*
X202001*
G03X202000Y233529I0J-1*
X203300Y232030I2895J1198*
X204468Y231001I2196J1315*
G02X204479Y230850I-991J-148*
X204468Y230699I-1002J-3*
G03X203300Y229670I1028J-2344*
G01X201605Y230660*
X201604*
X201530Y230600*
X201456Y230660*
X201455*
X199760Y229670*
G03X198591Y230699I-2196J-1316*
G02X198580Y230850I989J148*
X198591Y231001I1000J3*
G03X199760Y232030I-1027J2345*
X201060Y233529I-1595J2696*
X201059Y233530I-1J0*
G01X199760*
G03X198260Y232030I0J-1500*
G01Y229670*
G03X198763Y228549I1500J0*
G01X198809Y228508*
X198839Y228387*
X198684Y227979*
G02X198497Y227850I-187J71*
G01X197430*
G03X194130Y224550I0J-3300*
X197430Y221250I3300J0*
G01X200900*
G02X201100Y221050I0J-200*
G01Y220150*
G02X200900Y219950I-200*
G01X197730*
G03X195831Y219349I0J-3300*
G02X195744Y219314I-116J163*
G03X194460Y217830I216J-1484*
G01Y217093*
X194458Y217080*
G03Y216220I3272J-430*
G01X194460Y216207*
Y215470*
G03X195744Y213986I1500J0*
G02X195831Y213951I-29J-198*
G03X196504Y213586I1899J2699*
G02X196630Y213400I-74J-186*
G01Y213230*
G02X196430Y213030I-200*
G01X195960*
G03X194460Y211530I0J-1500*
G01Y209170*
G03X195095Y207944I1500J-1*
G02X195180Y207781I-115J-163*
G01Y207126*
G03X195238Y206985I200J0*
G01X198115Y204108*
G03X198256Y204050I141J141*
G01X199661*
G02X199831Y203954I-1J-200*
G01X200036Y203618*
X200040Y203513*
X200016Y203467*
G03X199850Y202780I1335J-686*
G01Y200420*
G03X201350Y198920I1500*
G01X203182*
Y198921*
G03X201350Y200420I-3997J-3016*
X200182Y201449I-2196J-1316*
G02X200171Y201600I989J148*
X200182Y201751I1000J3*
G03X201350Y202780I-1028J2345*
G01X204205Y201759*
X204206*
X204400Y201850*
X204594Y201759*
X204595*
X207450Y202780*
G03X208618Y201751I2196J1315*
G02X208629Y201600I-991J-148*
X208618Y201449I-1002J-3*
G03X207450Y200420I1028J-2344*
X205618Y198921I2165J-4515*
G01Y198920*
X207450*
G03X208950Y200420J1500*
G01Y202780*
G03X208784Y203467I-1500J1*
G01X208760Y203513*
X208764Y203618*
X208969Y203954*
G02X209139Y204050I171J-104*
G01X212813*
X212819Y204044*
Y197456*
X212813Y197450*
X205056*
G03X204915Y197392I0J-200*
G01X200938Y193415*
G03X200880Y193274I141J-141*
G01Y191234*
G02X200819Y191091I-200J1*
G01X200674Y190950*
X200630*
X196630*
X196629*
G03X195130Y189494I0J-1500*
G01X195128Y189413*
X195012Y189300*
X187648*
X187532Y189413*
X187529Y189494*
G03X186030Y190950I-1500J-45*
G01X182030*
G03X180530Y189450I0J-1500*
G01Y187781*
G03X180531Y187780I1J0*
X182030Y189450I-2575J3819*
G01X184280Y186700*
X184234Y186644*
Y186643*
X186030Y183950*
G03X185495Y183571I1716J-2989*
Y183570I1J0*
X186639Y182580I3656J3069*
G01X186640*
G03X187529Y183906I-610J1370*
G01X187532Y183987*
X187648Y184100*
X195012*
X195128Y183987*
X195130Y183906*
G03X195926Y182625I1500J44*
G01X195979Y182596*
G02X196080Y182422I-99J-174*
G01Y180895*
X196068Y180846*
X196056Y180824*
G03X196367Y175270I4660J-2525*
G02X196389Y175228I-165J-113*
G03X196639Y174858I933J361*
G01X196987Y174533*
X196989Y174531*
G03X198066Y173710I3726J3770*
G02X198166Y173537I-100J-173*
G01Y170326*
G03X198224Y170185I200J0*
G01X201101Y167308*
G03X201242Y167250I141J141*
G01X201820*
X201821*
G02X201992Y167153I0J-200*
G01X202035Y167078*
G02X202056Y167019I-176J-96*
G03X203530Y165800I1474J282*
G01X209530*
G03X210412Y166087I0J1500*
G02X210530Y166125I117J-162*
X210648Y166087I1J-200*
G03X211530Y165800I882J1213*
G01X217530*
G03X218879Y166644I0J1500*
G02X219224Y167178I2378J-1158*
X219378Y167250I154J-128*
G01X220189*
X220190*
G03X220331Y167308I0J200*
G01X223208Y170185*
G03X223266Y170326I-141J141*
G01Y173537*
G02X223366Y173710I200J0*
G03X224442Y174531I-2651J4590*
G01X224445Y174533*
X224793Y174858*
G03X225042Y175228I-685J730*
G02X225065Y175270I185J-74*
G03X225403Y180774I-4349J3029*
G01X225392Y180796*
X225380Y180843*
Y182422*
G02X225480Y182596I200J1*
G01X225534Y182625*
G03X226329Y183906I-705J1325*
G01X226332Y183987*
X226448Y184100*
X233812*
X233928Y183987*
X233930Y183906*
G03X235429Y182450I1499J44*
G01X235430*
X236822*
G03X236823Y182451I0J1*
X235430Y183950I-3107J-1490*
G01X237226Y186643*
Y186644*
X237180Y186700*
X237226Y186756*
Y186757*
X235430Y189450*
G03X236823Y190949I-1714J2990*
X236822Y190950I-1J0*
G01X235430*
X235429*
G03X233930Y189494I0J-1500*
G01X233928Y189413*
X233812Y189300*
X226448*
X226332Y189413*
X226329Y189494*
G03X224830Y190950I-1499J-44*
G01X222979*
G02X222789Y191087I0J200*
G01X222714Y191310*
X222812Y191386*
X222839Y191407*
X222903Y191430*
X223960*
G03X225460Y192930J1500*
G01Y193400*
G02X225660Y193600I200J0*
G01X226200*
G02X226400Y193400I0J-200*
G01Y192930*
G03X227900Y191430I1500*
G01X230260*
G03X231760Y192930J1500*
G01Y194229*
G03X231759Y194230I-1J0*
X230260Y192930I1197J-2895*
X229230Y191762I1314J-2197*
G01X228929*
G03X227900Y192930I-2345J-1028*
G01X228890Y194625*
Y194626*
X228830Y194700*
X230260Y196470*
G03X231759Y195170I2696J1594*
X231760Y195171I0J1*
G01Y196470*
G03X231129Y197693I-1500J0*
G01X231082Y197727*
X231038Y197835*
X231124Y198306*
X231204Y198391*
X231260Y198406*
G03X233720Y201863I-830J3194*
X230587Y204897I-3290J-262*
G01X230547Y204898*
X230474Y204933*
X230230Y205206*
X230204Y205282*
X230207Y205322*
X230210Y205420*
Y207622*
X230305Y207733*
X230377Y207745*
X230441Y207757*
G02X230460Y207760I41J-196*
X230479Y207761I20J-199*
X230516Y207757I-3J-201*
G03X230799Y207730I283J1473*
G01X230800*
X233160*
G03X234660Y209230J1500*
G01Y209700*
G02X234860Y209900I200J0*
G01X235400*
G02X235600Y209700I0J-200*
G01Y209230*
G03X237100Y207730I1500*
G01X239460*
G03X240960Y209230J1500*
G01Y210529*
G03X240959Y210530I-1J0*
X239460Y209230I1197J-2895*
X238430Y208062I1314J-2197*
G01X238129*
G03X237100Y209230I-2345J-1028*
G01X238090Y210925*
Y210926*
X238030Y211000*
X239460Y212770*
G03X240959Y211470I2696J1594*
X240960Y211471I0J1*
G01Y212770*
G03X240721Y213583I-1500J1*
G01X240691Y213629*
X240687Y213739*
X240881Y214096*
G02X241057Y214200I176J-97*
G01X244487*
G02X244629Y214141I0J-200*
G01X244871Y213899*
G02X244930Y213757I-140J-142*
G01Y208223*
G03X244988Y208082I200J0*
G01X248511Y204558*
G03X248652Y204500I141J141*
G01X248653*
X249054*
X249107Y204485*
X249130Y204471*
G03X250830Y204000I1699J2829*
X252878Y204712I0J3301*
G01X252914Y204740*
X253004Y204760*
X253356Y204674*
G02X253491Y204561I-48J-194*
G01X253555Y204418*
G03X253737Y204300I183J83*
G01X258930*
G02X259130Y204100I0J-200*
G01Y203076*
X259115Y203023*
X259101Y203000*
G03Y199600I2829J-1700*
G02X259130Y199497I-171J-104*
G01Y194523*
G03X259188Y194382I200J0*
G01X264111Y189458*
G03X264252Y189400I141J141*
G01X264253*
X270520*
G02X270662Y189341I0J-200*
G01X270904Y189099*
G02X270963Y188957I-140J-142*
G01Y177092*
G02X270946Y177012I-200J1*
G01X270030Y174898*
G03X270013Y174818I183J-81*
G01Y171448*
G03X270030Y171369I200J2*
G01X270090Y171230*
G02X270074Y171040I-183J-80*
G01X270046Y170998*
X269957Y170950*
X260930*
G02X260730Y171150J200*
G01Y171570*
G02X260930Y171770I200J0*
G01X261400*
G03X262900Y173270J1500*
G01Y175630*
G03X262713Y176356I-1500J1*
G01X262687Y176403*
X262688Y176508*
X262915Y176896*
X263006Y176949*
X263059Y176950*
G03X265939Y179197I-24J3000*
X264514Y182560I-2904J753*
X263035Y182950I-1479J-2610*
X260863Y182020I-1J-3000*
G01X260835Y181990*
X260760Y181958*
X260388*
X260313Y181990*
X260284Y182020*
G03X258113Y182950I-2172J-2070*
X255941Y182020I0J-3000*
G01X255913Y181990*
X255838Y181958*
X255466*
X255391Y181990*
X255362Y182020*
G03X253191Y182950I-2171J-2070*
X251019Y182020I-1J-3000*
G01X250991Y181990*
X250916Y181958*
X250544*
X250469Y181990*
X250440Y182020*
G03X248269Y182950I-2172J-2070*
X246097Y182020I0J-3000*
G01X246069Y181990*
X245994Y181958*
X245622*
X245547Y181990*
X245518Y182020*
G03X243347Y182950I-2172J-2070*
X240853Y181618I0J-3000*
G02X240775Y181550I-166J111*
G03X240076Y180371I550J-1123*
G01X240097Y179904*
G02X240039Y179753I-200J-10*
G01X239488Y179203*
G03X239430Y179062I141J-141*
G01Y177219*
G02X239332Y177047I-200J0*
G01X239212Y176983*
G03X238360Y175630I648J-1353*
G01Y173270*
G03X239860Y171770I1500*
G01X240330*
G02X240530Y171570I0J-200*
G01Y171030*
G02X240330Y170830I-200*
G01X239860*
G03X238360Y169330I0J-1500*
G01Y166970*
G03X239860Y165470I1500*
G01X240818*
X240846Y165462*
G03X241630Y165350I784J2688*
G01X272640*
X272652Y165323*
Y165322*
X272653*
X272677Y165333*
G02X272756Y165350I81J-184*
G01X272840*
X272841*
G03X272982Y165408I0J200*
G01X273056Y165482*
G02X273118Y165524I141J-142*
G01X277092Y167248*
G03X277197Y167355I-80J183*
G01X277707Y168594*
G02X278520Y169254I1013J-417*
G03X278586Y169279I-37J197*
X279727Y170261I-2324J3854*
G02X279881Y170333I154J-128*
G01X288381*
G02X288538Y170257I0J-200*
G03X288796Y169967I2590J2045*
G01X289371Y169392*
G02X289430Y169250I-140J-142*
G01Y168350*
G02X289371Y168208I-200J0*
G01X285269Y164106*
G03X285210Y163965I140J-142*
G01Y153250*
G02X285152Y153108I-200J-1*
G01X284202Y152159*
G02X284061Y152100I-142J140*
G01X239530*
G02X239330Y152300J200*
G01Y155367*
G03X239272Y155508I-200J0*
G01X237061Y157719*
X237033Y157823*
X237047Y157875*
G03X237100Y158270I-1447J395*
G01Y160630*
G03X235600Y162130I-1500J0*
G01X234301*
G03X234300Y162129I0J-1*
X235600Y160630I2895J1198*
X236768Y159601I2196J1315*
G02X236779Y159450I-991J-148*
X236768Y159299I-1002J-3*
G03X235600Y158270I1028J-2344*
G01X233905Y159260*
X233904*
X233830Y159200*
X233756Y159260*
X233755*
X232060Y158270*
G03X230891Y159299I-2196J-1316*
G02X230880Y159450I989J148*
X230891Y159601I1000J3*
G03X232060Y160630I-1027J2345*
X233360Y162129I-1595J2696*
X233359Y162130I-1J0*
G01X232060*
X232059*
G03X231049Y161739I0J-1500*
G01X231022Y161714*
X230952Y161687*
X230608*
X230538Y161714*
X230511Y161739*
G03X229501Y162130I-1010J-1110*
G01X229500*
X225960*
G03X224460Y160630I0J-1500*
G01Y160503*
G02X224336Y160318I-200J0*
G01X224280Y160295*
X224161Y160319*
X223838Y160642*
G03X223697Y160700I-141J-141*
G01X204563*
G03X204422Y160642I0J-200*
G01X202130Y158350*
G02X201989Y158291I-142J140*
X201847Y158350I0J199*
G01X198756Y161442*
G03X198615Y161500I-141J-141*
G01X198614*
X191975*
G02X191812Y161584I0J200*
G03X190424Y162972I-4772J-3384*
G02X190340Y163135I116J163*
G01Y167654*
G03X190282Y167795I-200J0*
G01X185466Y172611*
G03X185324Y172670I-142J-140*
G01X182982*
G02X182786Y172829I0J200*
G01X182692Y173282*
X182758Y173408*
X182823Y173437*
G03X184744Y181746I-2106J4863*
G01X184743*
X184338Y181671*
Y181670*
G02X184516Y181100I-823J-570*
G03X184236Y179700I3360J-1400*
X184516Y178300I3641J0*
G01X180785Y178134*
X180784*
X178029Y175613*
G03X176049Y177593I-3366J-1386*
G02X175756Y178300I707J707*
X176049Y179007I1000J0*
G03X178029Y180987I-1387J3367*
G01X180562Y178669*
X180563*
Y178670*
X180716Y182100*
G03X182116Y181820I1400J3360*
X183516Y182100I0J3640*
G01X183567Y182099*
G03X183568Y182100I0J1*
X182030Y183950I-3252J-1139*
X180531Y185620I-4075J-2150*
X180530Y185619I0J-1*
G01Y183950*
X180531Y183883*
G02X180484Y183744I-200J-10*
G01X180405Y183651*
G02X180270Y183581I-153J129*
G03X175500Y179236I447J-5281*
X178609Y173437I5216J-936*
G01X178674Y173408*
X178739Y173282*
X178645Y172829*
G02X178450Y172670I-196J41*
G01X167087*
X167086*
G02X166922Y172755I0J200*
G01X166594Y173227*
G03X166506Y173297I-163J-115*
G01X165610Y173666*
G02X164944Y174508I417J1014*
G03X164915Y174585I-198J-31*
G01X164761Y174809*
X164768Y174815*
G03X165054Y175242I-660J752*
G02X165079Y175290I188J-68*
G03X164438Y182074I-4363J3010*
X160716Y183601I-3722J-3774*
X157646Y182621I1J-5301*
X155928Y176027I3070J-4321*
X156353Y175290I4790J2271*
G02X156378Y175242I-164J-116*
G03X156664Y174815I946J324*
G01X156671Y174809*
X156517Y174585*
G03X156488Y174508I168J-107*
G02X155822Y173666I-1083J172*
G01X154926Y173297*
G03X154838Y173227I75J-185*
G01X154509Y172755*
G02X154346Y172670I-163J115*
G01X154345*
X148386*
G03X148244Y172611I0J-200*
G01X143428Y167795*
G03X143370Y167654I141J-141*
G01Y163135*
G02X143285Y162972I-200J1*
G03X142209Y154415I3384J-4772*
G01X142259Y154356*
X142253Y154200*
X141252Y153199*
G02X141110Y153140I-142J140*
G01X135895*
G03X134413Y151870I0J-1500*
G01X134402Y151796*
X134289Y151700*
X130810*
X130697Y151796*
X130686Y151870*
G03X129204Y153140I-1482J-230*
G01X123989*
G02X123847Y153199J200*
G01X122579Y154467*
G02X122520Y154609I140J142*
G01Y162050*
G03X120520Y164050I-2000J0*
G01X112820*
X112819*
G03X110918Y162670I0J-2000*
G01X110902Y162621*
X110828Y162551*
X110403Y162440*
X110304Y162465*
X110267Y162500*
G03X106300Y164050I-3967J-4300*
X102000Y162167I0J-5850*
X102058Y154171I4300J-3967*
G01X102114Y154112*
X102112Y153949*
X101361Y153199*
G02X101220Y153140I-142J140*
G01X95336*
X95335*
G03X93853Y151870I0J-1500*
G01X93842Y151796*
X93729Y151700*
X90250*
X90138Y151796*
X90126Y151870*
G03X88644Y153140I-1482J-230*
G01X83429*
G02X83287Y153199J200*
G01X82150Y154336*
Y162050*
G03X80150Y164050I-2000J0*
G01X72450*
X72449*
G03X70548Y162670I0J-2000*
G01X70532Y162621*
X70458Y162551*
X70033Y162440*
X69934Y162465*
X69897Y162500*
G03X65930Y164050I-3967J-4300*
X61992Y162527I-1J-5850*
X61304Y154618I3938J-4327*
G01X61351Y154558*
X61341Y154408*
X60132Y153199*
G02X59991Y153140I-142J140*
G01X54776*
X54775*
G03X53293Y151870I0J-1500*
G01X53282Y151796*
X53170Y151700*
X49690*
X49578Y151796*
X49566Y151870*
G03X48084Y153140I-1483J-231*
G01X42869*
G02X42727Y153199J200*
G01X41805Y154121*
X41775Y154200*
X41777Y154243*
X41780Y154350*
Y162050*
G03X39780Y164050I-2000J0*
G01X32080*
G03X30080Y162050I0J-2000*
G01Y154350*
G03X32080Y152350I2000J0*
G01X34159*
G02X34301Y152291I0J-200*
G01X37075Y149517*
G02X37134Y149375I-140J-142*
G01Y144160*
G03X38415Y142676I1500J0*
G02X38471Y142659I-30J-198*
X40046Y141567I-2498J-5285*
X40106Y141424I-139J-143*
G01Y140220*
G03X40389Y138883I3300J0*
G01X40406Y138845*
Y138720*
G03X41906Y137220I1500*
G01X42031*
X42070Y137203*
G03X43407Y136920I1337J3017*
X44743Y137203I-1J3300*
G01X44782Y137220*
X44906*
X44907*
G03X46407Y138720I0J1500*
G01Y138845*
X46424Y138883*
G03X46707Y140220I-3017J1337*
G01Y141465*
G02X46766Y141607I200J0*
X48204Y142651I4079J-4106*
X48270Y142672I93J-177*
G03X49566Y143930I-187J1489*
G01X49578Y144004*
X49690Y144100*
X53170*
X53282Y144004*
X53293Y143930*
G03X54776Y142660I1483J231*
G01X64226*
G03X65726Y144160I0J1500*
G01Y149375*
G02X65785Y149517I200J0*
G01X69172Y152904*
G03X69230Y153045I-141J141*
G01Y153314*
X69275Y153400*
X69314Y153428*
X69897Y153900*
X69934Y153935*
X70033Y153960*
X70458Y153849*
X70532Y153779*
X70548Y153730*
G03X72450Y152350I1902J620*
G01X74719*
G02X74860Y152291I-1J-200*
G01X77635Y149517*
G02X77694Y149375I-140J-142*
G01Y144160*
G03X78974Y142676I1500J0*
G02X79033Y142657I-31J-198*
X80530Y141592I-2577J-5206*
X80590Y141449I-140J-143*
G01Y140420*
G03X80872Y139083I3300J-2*
G01X80890Y139045*
Y138920*
G03X82390Y137420I1500*
G01X82514*
X82553Y137403*
G03X83889Y137120I1337J3017*
X85226Y137403I0J3300*
G01X85265Y137420*
X85390*
G03X86890Y138920I0J1500*
G01Y139045*
X86907Y139083*
G03X87190Y140420I-3017J1337*
G01Y141424*
G02X87250Y141567I200J0*
X88835Y142663I4072J-4194*
X88887Y142680I88J-180*
G03X90126Y143930I-243J1480*
G01X90138Y144004*
X90250Y144100*
X93729*
X93842Y144004*
X93853Y143930*
G03X95335Y142660I1482J230*
G01X95336*
X102039*
G02X102232Y142511I0J-200*
G01X102349Y142072*
X102297Y141947*
X102238Y141913*
X102005Y141766*
G02X101891Y141730I-115J165*
G01X98860*
X98859*
G03X97889Y141374I0J-1500*
G01X97862Y141350*
X97795Y141326*
X97465*
X97398Y141350*
X97371Y141374*
G03X96401Y141730I-970J-1145*
G01X96400*
X95100*
Y141729*
G03X96400Y140230I2895J1197*
G01X94630Y138800*
X94556Y138860*
X94555*
X92860Y137870*
G03X91691Y138899I-2196J-1316*
G02X91680Y139050I989J148*
X91691Y139201I1000J3*
G03X92860Y140230I-1027J2345*
X94160Y141729I-1595J2696*
X94159Y141730I-1J0*
G01X92860*
G03X91360Y140230I0J-1500*
G01Y137870*
G03X92860Y136370I1500*
G01X93330*
G02X93530Y136170I0J-200*
G01Y135630*
G02X93330Y135430I-200*
G01X92860*
X92859*
G03X91815Y135007I0J-1500*
G02X91676Y134950I-140J142*
G01X91051*
G03X90910Y134892I0J-200*
G01X90477Y134459*
G02X90336Y134400I-142J140*
G01X89153*
X89130*
X86130*
X86107*
X81673*
X81650*
X78650*
X78627*
X63378*
G02X63206Y134498I0J200*
G03X61917Y135230I-1289J-768*
G01X61447*
G02X61247Y135430I0J200*
G01Y135608*
G02X61345Y135780I200J0*
G01X61687Y135982*
X61793Y135984*
X61840Y135958*
G03X63430Y135550I1590J2892*
X66002Y136782I0J3300*
X65913Y141024I-2572J2068*
X63430Y142151I-2484J-2173*
X61554Y141566I0J-3300*
G02X61441Y141530I-115J165*
G01X58377*
X58376*
G03X57406Y141174I0J-1500*
G01X57378Y141150*
X57312Y141126*
X56982*
X56915Y141150*
X56888Y141174*
G03X55918Y141530I-970J-1145*
G01X55917*
X54617*
Y141529*
G03X55917Y140030I2895J1197*
G01X54147Y138600*
X54073Y138660*
X54072*
X52377Y137670*
G03X51208Y138699I-2196J-1316*
G02X51197Y138850I989J148*
X51208Y139001I1000J3*
G03X52377Y140030I-1027J2345*
X53677Y141529I-1595J2696*
X53676Y141530I-1J0*
G01X52377*
X52376*
G03X50876Y140030I1J-1501*
G01Y137670*
G03X52376Y136170I1500*
G01X52377*
X52847*
G02X53047Y135970I0J-200*
G01Y135430*
G02X52847Y135230I-200*
G01X52377*
X52376*
G03X51332Y134807I0J-1500*
G02X51193Y134750I-140J142*
G01X50251*
G03X50110Y134692I0J-200*
G01X49877Y134459*
G02X49736Y134400I-142J140*
G01X8113*
G02X7971Y134459J200*
G01X1059Y141371*
G02X1000Y141513I140J142*
G01Y252720*
G02X1200Y252920I200J0*
G01X353131*
G02X353331Y252720I0J-200*
G01Y187220*
G02X353131Y187020I-200*
G01X314161*
G03X313961Y186820I0J-200*
G01Y67100*
G03X314161Y66900I200J0*
G01X353131*
G02X353331Y66700I0J-200*
G01Y1200*
G02X353131Y1000I-200*
G37*
%LPC*%
G36*
X229583Y124069D02*
G01Y126362D01*
G03X229582Y126363I-1J0*
X228083Y124132I4765J-4821*
G01X227891Y124378*
X227890Y124379*
Y124378*
G03X227889Y124377I0J-1*
G01X228083Y124069*
G03X226447Y122570I2546J-4421*
X226448Y122569I1J0*
G01X228083*
G03X229583Y124069J1500*
G37*
G36*
X335822Y8994D02*
G03X330730Y13800I-5092J-294D01*
X325638Y8406I0J-5100*
X330730Y3600I5092J294*
X335822Y8994I0J5100*
G37*
G36*
X303694Y26383D02*
G01Y38383D01*
G03X302396Y39870I-1500J0*
G02X302335Y39888I25J199*
X301051Y40820I2051J4177*
X300994Y40960I143J140*
G01Y41877*
G03X300935Y42018I-199J-1*
G01X297412Y45542*
G03X297271Y45600I-141J-142*
G01X272425*
G02X272263Y45682I0J200*
G03X271168Y46296I-1214J-882*
G02X271040Y46356I15J199*
G01X270957Y46441*
G02X270900Y46581I143J140*
G01Y53619*
G02X270957Y53759I199J0*
G01X271040Y53844*
G02X271168Y53904I143J-139*
G03X272263Y54518I-119J1495*
G02X272424Y54600I162J-118*
G01X272425*
X297271*
G03X297412Y54658I0J199*
G01X300935Y58182*
G03X300994Y58323I-141J142*
G01Y59240*
G02X301051Y59380I200J0*
X302335Y60311I3333J-3246*
X302396Y60330I89J-179*
G03X303694Y61816I-202J1486*
G01Y73816*
G03X302194Y75317I-1500J1*
G01X294194*
G03X292694Y73816I1J-1501*
G01Y61816*
G03X293041Y60856I1500J0*
G01X293078Y60811*
X293093Y60696*
X292915Y60315*
G02X292734Y60200I-181J85*
G01X272425*
G02X272263Y60283I0J200*
G03X271050Y60900I-1213J-883*
G01X268843*
G02X268701Y60959I0J199*
G01X265718Y63942*
G03X265577Y64000I-141J-142*
G01X261904*
G02X261766Y64056I1J200*
G03X260731Y64470I-1035J-1086*
G01X260730*
X258370*
G03X256870Y62970I0J-1500*
G01Y62500*
G02X256670Y62300I-200*
G01X256130*
G02X255930Y62500J200*
G01Y62970*
G03X254430Y64470I-1500J0*
G01X252070*
X252068*
G03X251582Y64389I0J-1501*
G02X251517Y64378I-65J189*
X251465Y64385I0J200*
G03X250601Y64500I-864J-3185*
G01X250600*
X247700*
G03X244400Y61200I0J-3300*
X247700Y57900I3300J0*
G01X250600*
X250601*
G03X251465Y58015I0J3300*
G02X251517Y58022I52J-193*
X251582Y58011I0J-200*
G03X252068Y57930I486J1419*
G01X252070*
X254430*
G03X255930Y59430J1500*
G01Y59900*
G02X256130Y60100I200J0*
G01X256670*
G02X256870Y59900I0J-200*
G01Y59430*
G03X258370Y57930I1500J0*
G01X260730*
G03X261766Y58345I0J1500*
G02X261904Y58400I138J-145*
G01X263257*
G02X263399Y58341I0J-199*
G01X263991Y57749*
G02X264050Y57607I-141J-142*
G01Y55400*
G03X265432Y53904I1501J0*
G02X265560Y53844I-15J-199*
G01X265643Y53759*
G02X265700Y53619I-143J-140*
G01Y46581*
G02X265643Y46441I-199J0*
G01X265560Y46356*
G02X265432Y46296I-143J139*
G03X265132Y46241I119J-1496*
G01X265086Y46228*
X264994Y46244*
X264700Y46465*
G02X264620Y46625I120J160*
G01Y47790*
G02X264644Y47884I200J-1*
G03X264820Y48590I-1324J705*
G01Y51590*
G03X263320Y53090I-1500J0*
G01X260320*
G03X258820Y51590I0J-1500*
G01Y48590*
G03X258996Y47884I1500J-1*
G02X259020Y47790I-176J-95*
G01Y43137*
G03X259078Y42996I199J0*
G01X262016Y40058*
G03X262157Y40000I141J142*
G01X264175*
G02X264337Y39918I0J-200*
G03X265550Y39300I1213J882*
G01X271050*
G03X272263Y39918I0J1500*
G02X272424Y40000I162J-118*
G01X272425*
X292734*
G02X292915Y39885I0J-200*
G01X293093Y39504*
X293078Y39388*
X293041Y39344*
G03X292694Y38383I1153J-959*
G01Y26383*
G03X294194Y24883I1500J0*
G01X302194*
G03X303694Y26383I0J1500*
G37*
G36*
X347230Y39515D02*
G03X344081Y42592I-3149J-73D01*
X340932Y39369I0J-3150*
X344081Y36292I3149J73*
X347230Y39515I0J3150*
G37*
G36*
Y48571D02*
G03X344081Y51648I-3149J-73D01*
X340932Y48425I0J-3150*
X344081Y45348I3149J73*
X347230Y48571I0J3150*
G37*
G36*
X255800Y53860D02*
G01Y55330D01*
G03X254300Y56830I-1500J0*
G01X252839*
G03Y56828J-1*
G02X253116Y56778I-37J-1000*
G03X254300Y55330I2649J958*
X255749Y54146I2405J1464*
G01X255798Y53860*
X255799Y53859*
G03X255800Y53860I0J1*
G37*
G36*
X92547Y169703D02*
G03X95030Y173600I-1817J3897D01*
G01Y181600*
G03X90730Y185900I-4300J0*
G01X90683*
X90682*
G03X87642Y184641I0J-4301*
G01X84484Y181482*
G02X84343Y181424I-141J142*
G01X84342*
X76678*
X76677*
G02X76536Y181482I0J199*
G01X75089Y182930*
G02X75030Y183071I141J142*
G01Y204950*
G02X75230Y205150I200J0*
G01X76493*
G02X76693Y204950I0J-200*
G01Y200720*
G03X76893Y200520I200*
G01X77743*
G02X77943Y200320I0J-200*
G01Y197502*
G03X78002Y197361I199J1*
G01X81204Y194158*
G03X81345Y194100I141J142*
G01X81346*
X82397*
G02X82584Y193971I0J-200*
G01X82739Y193563*
X82709Y193442*
X82663Y193401*
G03X82160Y192280I997J-1121*
G01Y189920*
G03X83660Y188420I1500J0*
G01X84961*
G03X83660Y189920I-2895J-1196*
X82491Y190949I-2196J-1316*
G02X82480Y191100I989J148*
X82491Y191251I1000J3*
G03X83660Y192280I-1027J2345*
G01X85355Y191290*
X85430Y191350*
X87200Y189920*
G03X85899Y188420I1594J-2697*
G01X87200*
X87201*
G03X88171Y188776I0J1501*
G01X88198Y188800*
X88265Y188824*
X88595*
X88662Y188800*
X88689Y188776*
G03X89444Y188436I970J1145*
G02X89531Y188401I-29J-198*
G03X91430Y187800I1899J2699*
G01X99180*
G02X99322Y187741I0J-199*
G01X101496Y185566*
G03X103829Y184600I2333J2334*
X105225Y184909I2J3300*
X107130Y187900I-1395J2991*
G01Y191100*
G03X103830Y194400I-3300J0*
G01X100463*
G02X100276Y194529I0J200*
G01X100121Y194937*
X100150Y195058*
X100197Y195099*
G03X100700Y196220I-997J1121*
G01Y196957*
X100702Y196970*
X100723Y197185*
X100728Y197292*
X100730Y197400*
X100728Y197508*
X100723Y197615*
X100702Y197830*
X100700Y197843*
Y198580*
G03X99416Y200064I-1500J0*
G02X99329Y200099I29J198*
G01X99246Y200156*
G02X99156Y200323I110J167*
X99166Y200385I200J0*
X99356Y200522I190J-63*
G01X99367*
X99453Y200520*
X101286*
G03X99453Y202020I-3998J-3015*
X98285Y203049I-2196J-1316*
G02X98274Y203200I989J148*
X98285Y203351I1000J3*
G03X99453Y204380I-1028J2345*
G01X102309Y203359*
X102503Y203450*
X102697Y203359*
X105553Y204380*
G03X106722Y203351I2195J1316*
G02X106733Y203200I-991J-148*
X106722Y203049I-1002J-3*
G03X105553Y202020I1027J-2345*
X103720Y200520I2165J-4515*
G01X105615*
X105720Y200445*
X105740Y200385*
G03X107159Y199370I1419J485*
G01X107160*
X108461*
G03X107160Y200870I-2895J-1196*
X106082Y201982I-2287J-1139*
G01X106080Y202050*
X106082Y202118*
G03X107160Y203230I-1209J2251*
G01X108855Y202240*
X108930Y202300*
X109005Y202240*
X110700Y203230*
G03X111868Y202201I2196J1315*
G02X111879Y202050I-991J-148*
X111868Y201899I-1002J-3*
G03X110700Y200870I1028J-2344*
X109399Y199370I1594J-2697*
G01X110700*
G03X112200Y200870I0J1500*
G01Y202428*
G02X112180Y202629I980J199*
X112200Y202830I1000J2*
G01Y203230*
G03X110885Y204719I-1501J0*
G01X110763Y204781*
X110683Y204868*
G02X110630Y205003I147J136*
G01Y205397*
G02X110683Y205532I200J-1*
G01X110763Y205619*
X110885Y205681*
G03X112200Y207170I-185J1489*
G01Y209530*
Y209532*
G03X112179Y209782I-1500J0*
G01X112171Y209826*
X112194Y209911*
X112420Y210179*
G02X112573Y210250I153J-129*
G01X114057*
G03X114198Y210308I0J199*
G01X114231Y210341*
X114350Y210365*
X114406Y210342*
G02X114530Y210157I-76J-185*
G01Y208960*
X114433Y208848*
X114360Y208837*
G03X113090Y207355I230J-1482*
G01Y207354*
Y203544*
G03X114590Y205454I-2647J3622*
G01X118297Y202829*
X118330Y202879*
X118348Y202852*
X122070Y205944*
G03X123570Y203909I4878J2025*
G01Y207354*
G03X122299Y208837I-1501J0*
G01X122226Y208848*
X122130Y208960*
Y212440*
X122226Y212552*
X122299Y212563*
G03X123570Y214045I-229J1482*
G01Y214046*
Y223496*
G03X122777Y224819I-1501J0*
G01X122776*
G02X121689Y225628I2287J4208*
X121630Y225770I141J142*
G01Y227552*
G02X121689Y227693I199J-1*
X123351Y228843I3975J-3969*
G03X124233Y230210I-618J1367*
G01Y243790*
G03X122733Y245290I-1500J0*
G01X119103*
X119102*
G02X118950Y245360J200*
G03X109130Y249897I-9820J-8360*
X99309Y245360I-1J-12897*
G02X99157Y245290I-152J130*
G01X95527*
G03X94027Y243790I0J-1500*
G01Y235820*
G02X93968Y235678I-199J0*
G01X93688Y235399*
G03X93630Y235258I142J-141*
G01Y235257*
Y228700*
G03X96930Y225400I3300J0*
G01X102930*
X102931*
G03X103360Y225428I0J3300*
G02X103385Y225430I28J-198*
X103473Y225409I-1J-200*
G03X109130Y224102I5657J11590*
X112726Y224614I-2J12897*
G01X112781Y224630*
X112892Y224598*
X113210Y224243*
X113229Y224129*
X113206Y224076*
G03X113090Y223498I1384J-578*
G01Y223496*
Y217203*
G02X113031Y217061I-199J0*
G01X111879Y215909*
G02X111737Y215850I-142J141*
G01X110830*
G02X110630Y216050I0J200*
G01Y216396*
G02X110683Y216532I200J0*
G01X110763Y216619*
X110885Y216681*
G03X112200Y218170I-185J1489*
G01Y220530*
G03X110700Y222030I-1500J0*
G01X109399*
G03X110700Y220530I2895J1197*
G01X108930Y219100*
X107160Y220530*
G03X108461Y222030I-1594J2696*
G01X107160*
G03X105740Y221015I0J-1500*
G01X105720Y220955*
X105615Y220880*
X103985*
X103938Y220892*
X103917Y220903*
G03X102504Y221250I-1413J-2703*
G01X102503*
X75610*
G02X75458Y221321I1J200*
X75046Y221919I2707J2306*
G03X73730Y222700I-1316J-719*
G01X68730*
G03X67230Y221200I0J-1500*
G01Y215200*
G03X67517Y214318I1500J0*
G02X67555Y214200I-162J-117*
X67517Y214082I-200J-1*
G03X67230Y213200I1213J-882*
G01Y207200*
Y207199*
G03X67406Y206494I1501J0*
G02X67430Y206400I-176J-95*
G01Y179923*
G03X67488Y179782I199J0*
G01X73388Y173882*
G03X73529Y173823I142J141*
G01X84342*
X84343*
G02X84484Y173765I0J-199*
G01X87689Y170559*
G03X90729Y169300I3040J3041*
X92547Y169703I0J4300*
G37*
G36*
X50438Y171458D02*
G01X52672Y173692D01*
G03X52730Y173833I-142J141*
G01Y181267*
G02X52789Y181409I199J0*
G01X54621Y183241*
G02X54763Y183300I142J-141*
G01X57297*
G03X57438Y183358I0J199*
G01X61072Y186992*
G03X61130Y187133I-142J141*
G01Y202667*
G03X61072Y202808I-199J0*
G01X58038Y205842*
G03X57897Y205900I-141J-142*
G01X39363*
G03X39222Y205842I0J-199*
G01X36888Y203508*
G03X36830Y203367I142J-141*
G01Y174433*
G03X36888Y174292I199J0*
G01X39722Y171458*
G03X39863Y171400I141J142*
G01X50297*
G03X50438Y171458I0J199*
G37*
G36*
X22162Y178520D02*
G03X23630Y182100I-3632J3580D01*
X21780Y186031I-5100J1*
X18530Y187200I-3249J-3931*
X14331Y184995I0J-5100*
G02X14002Y184822I-329J227*
X13673Y184995I0J400*
G03X13357Y185407I-4200J-2894*
X9474Y187200I-3883J-3307*
X5841Y185680I-1J-5100*
X4374Y182100I3633J-3579*
X6224Y178169I5100J-1*
X9474Y177000I3249J3931*
X13673Y179205I0J5100*
G02X14002Y179378I329J-227*
X14331Y179205I0J-400*
G03X14647Y178793I4200J2894*
X18530Y177000I3883J3307*
X22162Y178520I0J5100*
G37*
G36*
X240930Y183950D02*
G01Y185619D01*
G03X240929Y185620I-1J0*
X239430Y183950I2576J-3820*
X238037Y182451I1714J-2990*
X238038Y182450I1J0*
G01X239430*
G03X240930Y183950J1500*
G37*
G36*
Y187781D02*
G01Y189450D01*
G03X239430Y190950I-1500J0*
G01X238038*
G03X238037Y190949I0J-1*
X239430Y189450I3108J1491*
X240929Y187780I4074J2149*
X240930Y187781I0J1*
G37*
G36*
X186321Y193215D02*
G01Y195385D01*
G03X185822Y196502I-1500J0*
G02X185756Y196651I134J148*
G01Y196949*
G02X185822Y197098I200J0*
G03X186321Y198215I-1001J1117*
G01Y199975*
G02X186385Y200121I200J0*
G01X186630Y200349*
X186709Y200377*
X186750Y200374*
X186860Y200370*
X189087*
G02X189261Y200269I0J-200*
G03X192130Y198600I2869J1631*
X193350Y198833I2J3300*
X195362Y202569I-1220J3067*
X192130Y205200I-3232J-670*
G01X192032Y205199*
X191945Y205196*
X191922Y205220*
X191848Y205250*
X191584*
G02X191445Y205307I1J199*
G03X190401Y205730I-1044J-1077*
G01X190400*
X189930*
G02X189730Y205930J200*
G01Y206470*
G02X189930Y206670I200J0*
G01X190400*
G03X191900Y208170J1500*
G01Y210530*
G03X190400Y212030I-1500J0*
G01X189031*
X188930Y212098*
X188907Y212154*
G02X188950Y212372I184J77*
G01X190572Y213993*
G03X190630Y214134I-142J141*
G01Y227128*
G03X190572Y227270I-199J1*
G01X189289Y228553*
G02X189230Y228694I141J142*
G01Y229681*
G02X189328Y229853I200J0*
G01X189447Y229917*
G03X190300Y231270I-647J1353*
G01Y233630*
G03X188800Y235130I-1500J0*
G01X188330*
G02X188130Y235330J200*
G01Y235870*
G02X188330Y236070I200J0*
G01X188800*
G03X190300Y237570J1500*
G01Y239930*
G03X189937Y240909I-1500J0*
G01X189888Y241039*
Y241161*
X189937Y241292*
G03X190300Y242270I-1137J979*
G01Y244630*
G03X188800Y246130I-1500J0*
G01X188330*
G02X188130Y246330J200*
G01Y246870*
G02X188330Y247070I200J0*
G01X188800*
G03X190300Y248570J1500*
G01Y250930*
G03X188800Y252430I-1500J0*
G01X185260*
G03X184289Y252073I1J-1501*
G01X184262Y252050*
X184195Y252026*
X183865*
X183798Y252050*
X183771Y252073*
G03X182800Y252430I-971J-1143*
G01X179260*
G03X177760Y250930I0J-1500*
G01Y248570*
G03X179260Y247070I1500*
G01X179730*
G02X179930Y246870I0J-200*
G01Y246330*
G02X179730Y246130I-200*
G01X179260*
G03X177760Y244630I0J-1500*
G01Y242270*
G03X178123Y241292I1501J1*
G01X178172Y241161*
Y241039*
X178123Y240909*
G03X177760Y239930I1137J-978*
G01Y237804*
X177692Y237703*
X177636Y237680*
G02X177559Y237665I-76J184*
X177418Y237723I0J199*
G01X176950Y238192*
G03X176809Y238250I-141J-142*
G01X176808*
X176084*
G02X175945Y238307I1J199*
G03X174901Y238730I-1044J-1077*
G01X174900*
X171360*
X171359*
G03X170646Y238550I0J-1501*
G01X170613Y238532*
X170538Y238522*
X170202Y238608*
X170140Y238653*
X170120Y238684*
G03X168860Y239370I-1260J-814*
G01X166500*
G03X165000Y237870I0J-1500*
G01Y237400*
G02X164800Y237200I-200*
G01X164630*
G02X164444Y237326J200*
G03X164079Y237999I-3064J-1226*
G02X164044Y238086I163J116*
G03X162560Y239370I-1484J-216*
G01X161823*
X161810Y239372*
X161595Y239393*
X161488Y239398*
X161380Y239400*
G03X160950Y239372I-1J-3300*
G01X160936Y239370*
X160200*
X160199*
G03X158715Y238086I0J-1500*
G02X158681Y237999I-198J27*
G03X158080Y236100I2699J-1899*
G01Y232950*
G02X157880Y232750I-200*
G01X153930*
G03X150630Y229450I0J-3300*
X153930Y226150I3300J0*
G01X157174*
G02X157328Y226077I0J-200*
G01X157553Y225804*
X157575Y225717*
X157566Y225673*
G03X157539Y225385I1473J-283*
G01Y223215*
G03X157724Y222493I1500J0*
G01X157749Y222446*
X157748Y222340*
X157545Y221998*
G02X157373Y221900I-172J102*
G01X155589*
G02X155389Y222097I0J200*
G01X155382Y222556*
G03X155253Y222740I-200J-3*
G01X153803Y223287*
G03X153732Y223300I-71J-187*
G01X151728*
G03X151657Y223287I0J-200*
G01X150207Y222740*
G03X150078Y222556I71J-187*
G01X150070Y222097*
G02X149870Y221900I-200J3*
G01X149717*
G02X149559Y221977I0J200*
G01X149338Y222338*
G03X147980Y223200I-1358J-638*
G01X142480*
G03X141122Y222338I0J-1501*
G01X140901Y221977*
G02X140743Y221900I-158J123*
G01X137901*
G03X137760Y221842I0J-199*
G01X135588Y219670*
G03X135530Y219528I142J-141*
G01Y218319*
G02X135432Y218147I-200J0*
G01X135312Y218083*
G03X134460Y216730I648J-1353*
G01Y214370*
G03X135774Y212881I1500J-1*
G01X135896Y212819*
X135976Y212732*
G02X136030Y212597I-145J-136*
G01Y212204*
G02X135976Y212068I-200J1*
G01X135896Y211981*
X135774Y211919*
G03X134460Y210430I186J-1488*
G01Y208070*
G03X135960Y206570I1500*
G01X137261*
G03X135960Y208070I-2895J-1197*
X134791Y209099I-2196J-1316*
G02X134780Y209250I989J148*
X134791Y209401I1000J3*
G03X135960Y210430I-1027J2345*
G01X137655Y209440*
X137730Y209500*
X139500Y208070*
G03X138199Y206570I1594J-2697*
G01X139500*
G03X140352Y206836I-1J1500*
G01X140398Y206867*
X140510Y206874*
X140873Y206684*
G02X140980Y206507I-93J-177*
G01Y203100*
G03X142480Y201600I1500*
G01X147980*
G03X148954Y201959I0J1500*
G01X149085Y202062*
G02X149202Y202100I117J-162*
G01X149870*
G02X150070Y201903I0J-200*
G01X150078Y201444*
G03X150207Y201260I200J3*
G01X151657Y200713*
G03X151728Y200700I71J187*
G01X153732*
G03X153803Y200713I0J200*
G01X155253Y201260*
G03X155382Y201444I-71J187*
G01X155389Y201903*
G02X155589Y202100I200J-3*
G01X157961*
X157962*
X158088Y202055*
X158128Y202023*
G02X158207Y201864I-121J-159*
G01Y201736*
G02X158128Y201577I-200J0*
G03X157539Y200385I911J-1192*
G01Y198215*
G03X158038Y197098I1500J0*
G02X158104Y196949I-134J-148*
G01Y196651*
G02X158038Y196502I-200J0*
G03X157539Y195385I1001J-1117*
G01Y193215*
G03X159039Y191715I1500*
G01X164349*
G03X165299Y192055I-1J1500*
G01X165425Y192100*
X165426*
X166658*
X166659*
G03X166800Y192158I0J199*
G01X175331Y200690*
X175450Y200713*
X175506Y200690*
G02X175630Y200505I-76J-185*
G01Y199472*
G03X175688Y199330I199J-1*
G01X177860Y197158*
G03X178001Y197100I141J142*
G01X178434*
X178560Y197055*
X178601Y197023*
G02X178679Y196864I-122J-158*
G01Y196736*
G02X178601Y196577I-200J-1*
G03X178011Y195385I910J-1192*
G01Y193215*
G03X179511Y191715I1500*
G01X184821*
G03X186321Y193215J1500*
G37*
G36*
X123570Y197904D02*
G01Y201350D01*
G03X122070Y199315I3378J-4060*
G01X119012Y201855*
X121644Y197904*
G03X119609Y196404I2026J-4879*
G01X122070*
G03X123570Y197904I0J1500*
G37*
G36*
X115016D02*
G01X117792Y202071D01*
X114590Y199804*
G03X113090Y201714I-4147J-1713*
G01Y197904*
G03X114590Y196404I1500J0*
G01X117050*
G03X115016Y197904I-4062J-3379*
G37*
G36*
X36076Y202811D02*
G01Y208239D01*
G03X33576Y204882I5332J-6580*
G01X31375Y207852*
X33576Y202811*
G03X31237Y200311I3145J-5287*
G01X33576*
G03X36076Y202811J2500*
G37*
G36*
X26676D02*
G01X28877Y207852D01*
X26676Y204882*
G03X24176Y208239I-7833J-3224*
G01Y202811*
G03X26676Y200311I2500*
G01X29015*
G03X26676Y202811I-5483J-2786*
G37*
G36*
X347230Y205497D02*
G03X344081Y208574I-3149J-73D01*
X340932Y205351I0J-3150*
X344081Y202274I3149J73*
X347230Y205497I0J3150*
G37*
G36*
Y214552D02*
G03X344081Y217629I-3149J-73D01*
X340932Y214406I0J-3150*
X344081Y211329I3149J73*
X347230Y214552I0J3150*
G37*
G36*
X36076Y217611D02*
G03X33576Y220111I-2500J0D01*
G01X31237*
G03X33576Y217611I5484J2786*
G01X31375Y212570*
X33576Y215540*
G03X36076Y212183I7833J3224*
G01Y217611*
G37*
G36*
X26676Y215540D02*
G01X28878Y212570D01*
X26676Y217611*
G03X29015Y220111I-3145J5286*
G01X26676*
G03X24176Y217611I0J-2500*
G01Y212183*
G03X26676Y215540I-5333J6581*
G37*
G36*
X58530Y218572D02*
G01Y220911D01*
G03X56030Y218572I2786J-5483*
G01X50988Y220774*
X53958Y218572*
G03X50601Y216072I3224J-7832*
G01X56030*
G03X58530Y218572J2500*
G37*
G36*
X43302D02*
G01X46272Y220774D01*
X41230Y218572*
G03X38730Y220911I-5287J-3145*
G01Y218572*
G03X41230Y216072I2500*
G01X46658*
G03X43302Y218572I-6581J-5332*
G37*
G36*
X58530Y225472D02*
G03X56030Y227972I-2500J0D01*
G01X50601*
G03X53958Y225472I6581J5332*
G01X50988Y223270*
X56030Y225472*
G03X58530Y223133I5286J3145*
G01Y225472*
G37*
G36*
X41230D02*
G01X46272Y223270D01*
X43302Y225472*
G03X46658Y227972I-3225J7832*
G01X41230*
G03X38730Y225472I0J-2500*
G01Y223133*
G03X41230Y225472I-2786J5484*
G37*
G36*
X350555Y244023D02*
G03X344331Y250145I-6224J-103D01*
X338107Y243817I0J-6225*
X344331Y237695I6224J103*
X350555Y244023I0J6225*
G37*
G36*
X16224D02*
G03X10000Y250145I-6224J-103D01*
X3776Y243817I0J-6225*
X10000Y237695I6224J103*
X16224Y244023I0J6225*
G37*
G36*
X350555Y10103D02*
G03X344331Y16225I-6224J-103D01*
X338107Y9897I0J-6225*
X344331Y3775I6224J103*
X350555Y10103I0J6225*
G37*
%LPD*%
G36*
X171630Y205200D02*
G03X171080Y205310I-550J-1320D01*
X170530Y205200I0J-1430*
G02X170130Y205600I0J400*
G03X170240Y206150I-1321J550*
X170130Y206700I-1431J0*
G01X171701Y206771*
X171630Y205200*
G37*
G36*
X169001Y212129D02*
G01X167430Y212200D01*
G03X167540Y212750I-1321J550*
X167430Y213300I-1431J0*
G02X167830Y213700I400J0*
G03X168380Y213590I550J1320*
X168930Y213700I0J1430*
G01X169001Y212129*
G37*
G36*
X176401Y221929D02*
G01X174830Y222000D01*
G03X174940Y222550I-1321J550*
X174830Y223100I-1431J0*
G02X175230Y223500I400J0*
G03X175780Y223390I550J1320*
X176330Y223500I0J1430*
G01X176401Y221929*
G37*
G36*
X153130Y204200D02*
G01X152330D01*
X151316Y204583*
G03X152447Y205714I-793J1924*
G02X152730Y205831I283J-284*
X153013Y205714I0J-401*
G03X154144Y204583I1924J793*
G01X153130Y204200*
G37*
G36*
X167831Y227161D02*
G01X167529D01*
G03X166500Y228330I-2345J-1027*
G01X167680Y230350*
X168860Y228330*
G03X167831Y227161I1316J-2196*
G37*
G36*
X179511Y198215D02*
G03X178491Y199087I-1607J-847D01*
G02X178430Y199300I339J212*
X178491Y199513I400J1*
G03X179511Y200385I-587J1719*
G01X182266Y199300*
X179511Y198215*
G37*
G36*
Y213215D02*
G03X178488Y214086I-1607J-851D01*
G02X178426Y214300I338J214*
X178488Y214514I400J0*
G03X179511Y215385I-584J1722*
G01X182266Y214300*
X179511Y213215*
G37*
G36*
Y223215D02*
G03X178488Y224086I-1607J-851D01*
G02X178426Y224300I338J214*
X178488Y224514I400J0*
G03X179511Y225385I-584J1722*
G01X182266Y224300*
X179511Y223215*
G37*
G36*
X164349Y198215D02*
G01X161594Y199300D01*
X164349Y200385*
G03X165372Y199514I1607J851*
G02X165434Y199300I-338J-214*
X165372Y199086I-400J0*
G03X164349Y198215I584J-1722*
G37*
G36*
Y208215D02*
G01X161594Y209300D01*
X164349Y210385*
G03X165372Y209514I1607J851*
G02X165434Y209300I-338J-214*
X165372Y209086I-400J0*
G03X164349Y208215I584J-1722*
G37*
G36*
Y213215D02*
G01X161594Y214300D01*
X164349Y215385*
G03X165372Y214514I1607J851*
G02X165434Y214300I-338J-214*
X165372Y214086I-400J0*
G03X164349Y213215I584J-1722*
G37*
G36*
Y193215D02*
G01X161594Y194300D01*
X164349Y195385*
G03X165372Y194514I1607J851*
G02X165434Y194300I-338J-214*
X165372Y194086I-400J0*
G03X164349Y193215I584J-1722*
G37*
G36*
X192201Y201829D02*
G01X190630Y201900D01*
G03X190740Y202438I-1321J550*
X190400Y201904I1341J-1229*
G01X188530Y203050*
X190400Y204196*
G03X191052Y203391I1681J695*
X191580Y203290I528J1329*
X192130Y203400I0J1430*
G01X192201Y201829*
G37*
G36*
X159039Y218215D02*
G03X157631Y219464I-2238J-1105D01*
G02X157554Y219700I323J236*
X157740Y220038I400J0*
G03X157953Y220025I217J1806*
X159039Y220385I0J1819*
G01X161793Y219289*
X159039Y218215*
G37*
G36*
X261820Y47091D02*
G02X261504Y47142I-1J1001D01*
G03X260320Y48590I-2648J-957*
G01X261820Y50340*
X263320Y48590*
G03X262136Y47142I1464J-2405*
G02X261820Y47091I-315J950*
G37*
G36*
X152730Y206300D02*
G02X152485Y206384I0J400D01*
G03X150960Y208070I-2818J-1016*
G01X152730Y209350*
X154500Y208070*
G03X152975Y206384I1293J-2702*
G02X152730Y206300I-245J316*
G37*
G36*
X187030Y229500D02*
G02X186785Y229584I0J400D01*
G03X185260Y231270I-2818J-1016*
G01X187030Y232550*
X188800Y231270*
G03X187275Y229584I1293J-2702*
G02X187030Y229500I-245J316*
G37*
G36*
X181030D02*
G02X180785Y229584I0J400D01*
G03X179260Y231270I-2818J-1016*
G01X181030Y232550*
X182800Y231270*
G03X181275Y229584I1293J-2702*
G02X181030Y229500I-245J316*
G37*
G36*
X137730Y215450D02*
G01X135960Y216730D01*
G03X137485Y218416I-1293J2702*
G02X137730Y218500I245J-316*
X137975Y218416I0J-400*
G03X139500Y216730I2818J1016*
G01X137730Y215450*
G37*
G36*
X252070Y59430D02*
G03X250383Y60801I-2696J-1594D01*
G02X250300Y61200I917J399*
X250383Y61599I1000J0*
G03X252070Y62970I-1009J2965*
G01X253500Y61200*
X252070Y59430*
G37*
G36*
X260730D02*
G01X259300Y61200D01*
X260730Y62970*
G03X262417Y61599I2696J1594*
G02X262500Y61200I-918J-399*
X262417Y60801I-1001J0*
G03X260730Y59430I1009J-2965*
G37*
G36*
X188800Y248570D02*
G01X187030Y249604D01*
X185260Y248570*
G03X184091Y249599I-2196J-1316*
G02X184080Y249749I989J148*
X184091Y249900I1000J3*
G03X185260Y250930I-1028J2345*
G01X187030Y249896*
X188800Y250930*
G03X189968Y249900I2197J1314*
G02X189979Y249749I-991J-148*
X189968Y249599I-1002J-2*
G03X188800Y248570I1028J-2344*
G37*
G36*
X182800D02*
G01X181030Y249604D01*
X179260Y248570*
G03X178091Y249599I-2196J-1316*
G02X178080Y249749I989J148*
X178091Y249900I1000J3*
G03X179260Y250930I-1028J2345*
G01X181030Y249896*
X182800Y250930*
G03X183968Y249900I2197J1314*
G02X183979Y249749I-991J-148*
X183968Y249599I-1002J-2*
G03X182800Y248570I1028J-2344*
G37*
G36*
X152730Y215450D02*
G01X150960Y216730D01*
G03X152441Y218301I-1293J2702*
X151316Y219417I-1918J-808*
G01X152330Y219800*
X153130*
X154144Y219417*
G03X153019Y218301I793J-1924*
X154500Y216730I2774J1131*
G01X152730Y215450*
G37*
G36*
X164349Y203215D02*
G01X161694Y204261D01*
X159039Y203215*
G03X158016Y204087I-1608J-850*
G02X157954Y204301I338J214*
X158016Y204514I400J-1*
G03X159039Y205385I-584J1722*
G01X161694Y204339*
X164349Y205385*
G03X165372Y204514I1607J851*
G02X165434Y204301I-338J-214*
X165372Y204087I-400J0*
G03X164349Y203215I585J-1722*
G37*
G36*
X184821Y218215D02*
G01X182166Y219261D01*
X179511Y218215*
G03X178488Y219086I-1607J-851*
G02X178426Y219300I338J214*
X178488Y219514I400J0*
G03X179511Y220385I-584J1722*
G01X182166Y219339*
X184821Y220385*
G03X185844Y219514I1607J851*
G02X185906Y219300I-338J-214*
X185844Y219086I-400J0*
G03X184821Y218215I584J-1722*
G37*
G36*
X105553Y207020D02*
G01X102253Y208200D01*
X105553Y209380*
G03X106241Y208627I2196J1315*
X107160Y209530I-1350J2293*
G01X109179Y208368*
X107160Y207170*
G03X106252Y207781I-1826J-1733*
X105553Y207020I1497J-2076*
G37*
G36*
X187030Y238625D02*
G01X185260Y239930D01*
G03X186505Y241100I-1326J2658*
X185260Y242270I-2570J-1488*
G01X187030Y243575*
X188800Y242270*
G03X187554Y241100I1324J-2659*
X188800Y239930I2570J1488*
G01X187030Y238625*
G37*
G36*
X181030D02*
G01X179260Y239930D01*
G03X180505Y241100I-1326J2658*
X179260Y242270I-2570J-1488*
G01X181030Y243575*
X182800Y242270*
G03X181554Y241100I1324J-2659*
X182800Y239930I2570J1488*
G01X181030Y238625*
G37*
G36*
X271050Y55400D02*
G01X268050Y57400D01*
X271050Y59400*
G03X272944Y57847I2989J1714*
G02X273050Y57400I-894J-448*
X272944Y56953I-1000J1*
G03X271050Y55400I1095J-3267*
G37*
G36*
X147980Y203100D02*
G01X145131Y205115D01*
X147980Y207100*
G03X150684Y204560I4418J1994*
G02X150780Y204300I-305J-260*
X150559Y203942I-400J0*
G03X150291Y203952I-267J-3549*
X147980Y203100I0J-3559*
G37*
G36*
X110700Y211870D02*
G01X108943Y212896D01*
X107160Y211870*
G03X106241Y212773I-2269J-1390*
X105553Y212020I1508J-2068*
G01X102253Y213200*
X105553Y214380*
G03X106252Y213619I2196J1315*
X107160Y214230I-917J2343*
G01X108916Y213188*
X110700Y214230*
G03X111868Y213201I2196J1315*
G02X111879Y213050I-991J-148*
X111868Y212899I-1002J-3*
G03X110700Y211870I1028J-2344*
G37*
G36*
X71230Y204700D02*
G02X70838Y204739I1J2001D01*
G03X68730Y207200I-4807J-1984*
G01X71230Y210700*
X73730Y207200*
G03X71622Y204739I2699J-4445*
G02X71230Y204700I-393J1961*
G37*
G36*
X174900Y234870D02*
G01X173132Y235986D01*
X171360Y234870*
G03X170396Y235796I-1831J-942*
X168860Y234330I1166J-2759*
G01X167580Y236100*
X168860Y237870*
G03X170399Y236402I2702J1292*
X171360Y237230I-730J1819*
G01X173128Y236112*
X174900Y237230*
G03X176014Y236270I1753J908*
G02X176080Y236050I-334J-220*
X176014Y235830I-400J0*
G03X174900Y234870I639J-1868*
G37*
G36*
X81243Y212950D02*
G01X78193Y214380D01*
G03X79820Y215700I-2335J4540*
X78193Y217020I-3961J-3220*
G01X81243Y218450*
X84293Y217020*
G03X82667Y215700I2336J-4539*
X84293Y214380I3962J3219*
G01X81243Y212950*
G37*
G36*
X73730Y215200D02*
G01X70917Y218200D01*
X73730Y221200*
G03X76560Y218830I4438J2424*
G02X76730Y218200I-1081J-630*
X76560Y217570I-1251J0*
G03X73730Y215200I1608J-4794*
G37*
G36*
X271050Y40800D02*
G01X268300Y42633D01*
X265550Y40800*
G03X263656Y42353I-2989J-1714*
G02X263550Y42800I894J448*
X263656Y43247I1000J-1*
G03X265550Y44800I-1095J3267*
G01X268300Y42967*
X271050Y44800*
G03X272944Y43247I2989J1714*
G02X273050Y42800I-894J-448*
X272944Y42353I-1000J1*
G03X271050Y40800I1095J-3267*
G37*
G36*
X147980Y217700D02*
G01X145230Y219630D01*
X142480Y217700*
G03X140568Y219450I-3081J-1447*
G02X140480Y219700I312J250*
X140568Y219950I400J0*
G03X142480Y221700I-1169J3197*
G01X145230Y219770*
X147980Y221700*
G03X149892Y219950I3081J1447*
G02X149980Y219700I-312J-250*
X149892Y219450I-400J0*
G03X147980Y217700I1169J-3197*
G37*
G36*
X330730Y4730D02*
G02X330023Y5023I0J1000D01*
G03X328538Y6508I-2524J-1039*
X327053Y7993I-2524J-1039*
G02X326760Y8700I707J707*
X327053Y9407I1000J0*
G03X328538Y10892I-1039J2524*
X330023Y12377I-1039J2524*
G02X330730Y12670I707J-707*
X331437Y12377I0J-1000*
G03X332922Y10892I2524J1039*
G01X330966Y8713*
X330980Y8700*
X330966Y8687*
X332922Y6508*
G03X331437Y5023I1039J-2524*
G02X330730Y4730I-707J707*
G37*
G36*
X182166Y204200D02*
G01X179511Y205385D01*
G03X181277Y206800I-1895J4174*
X179511Y208215I-3660J-2759*
G01X182166Y209400*
X182238Y209368*
X184821Y210385*
G03X185758Y209546I1607J852*
X186860Y210530I-729J1926*
G01X188730Y209352*
X186860Y208170*
G03X185749Y209051I-1691J-991*
X184821Y208215I679J-1687*
X183055Y206800I1895J-4174*
X184821Y205385I3661J2759*
G01X182166Y204200*
G37*
G36*
X9474Y178130D02*
G02X8767Y178423I0J1000D01*
G03X7282Y179908I-2524J-1039*
X5797Y181393I-2524J-1039*
G02X5504Y182100I707J707*
X5797Y182807I1000J0*
G03X7282Y184292I-1039J2524*
X8767Y185777I-1039J2524*
G02X9474Y186070I707J-707*
X10181Y185777I0J-1000*
G03X11666Y184292I2525J1040*
X13151Y182807I2524J1039*
G02X13444Y182100I-707J-707*
X13151Y181393I-1000J0*
G03X11666Y179908I1039J-2524*
X10181Y178423I1039J-2524*
G02X9474Y178130I-707J707*
G37*
G36*
X18530D02*
G02X17823Y178423I0J1000D01*
G03X16338Y179908I-2524J-1039*
X14853Y181393I-2524J-1039*
G02X14560Y182100I707J707*
X14853Y182807I1000J0*
G03X16338Y184292I-1039J2524*
X17823Y185777I-1039J2524*
G02X18530Y186070I707J-707*
X19237Y185777I0J-1000*
G03X20722Y184292I2525J1040*
X22207Y182807I2524J1039*
G02X22500Y182100I-707J-707*
X22207Y181393I-1000J0*
G03X20722Y179908I1039J-2524*
X19237Y178423I1039J-2524*
G02X18530Y178130I-707J707*
G37*
G36*
X298194Y58400D02*
G02X297660Y58554I-1J1001D01*
G03X294363Y61816I-5658J-2421*
G01X298194Y68066*
X302024Y61816*
G03X298727Y58554I2360J-5683*
G02X298194Y58400I-533J847*
G37*
G36*
Y32133D02*
G01X294363Y38383D01*
G03X297660Y41646I-2361J5683*
G02X298194Y41800I533J-847*
X298727Y41646I0J-1001*
G03X302024Y38383I5658J2420*
G01X298194Y32133*
G37*
G36*
X169059Y215498D02*
G01X169019Y215499D01*
X168832*
X168790Y215498*
X168714Y215528*
X167800Y216442*
G03X167659Y216500I-141J-141*
G01X167658*
X165426*
X165299Y216546*
X165259Y216577*
G02X165180Y216736I121J159*
G01Y216864*
G02X165259Y217023I200J0*
G03X165849Y218215I-910J1192*
G01Y220385*
G03X165350Y221502I-1500J0*
G02X165283Y221651I133J150*
G01Y221949*
G02X165350Y222098I200J0*
G03X165849Y223215I-1001J1117*
G01Y225385*
G03X164818Y226810I-1500J0*
G01X164756Y226830*
X164680Y226935*
Y227067*
G02X164809Y227254I200J0*
G01X165217Y227409*
X165338Y227380*
X165379Y227333*
G03X166500Y226830I1121J997*
G01X168860*
G03X169954Y227304I0J1500*
G01X169979Y227331*
X170045Y227363*
X170381Y227395*
X170451Y227376*
X170481Y227354*
G03X171359Y227070I878J1216*
G01X171360*
X172730*
G02X172930Y226870I0J-200*
G01Y222372*
Y222371*
G03X172988Y222230I200J0*
G01X173002Y222216*
X173032Y222140*
X173031Y222098*
Y221911*
X173032Y221870*
X173003Y221795*
X172774Y221561*
G02X172631Y221500I-144J139*
G01X172301*
G03X172160Y221442I0J-200*
G01X169488Y218770*
G03X169430Y218629I141J-141*
G01Y218628*
Y215899*
G02X169369Y215756I-200J1*
G01X169135Y215527*
X169059Y215498*
G37*
G36*
X118330Y218396D02*
G01X114590Y223496D01*
G03X117451Y226727I-2992J5531*
X113873Y230210I-6479J-3076*
G01X118302Y237375*
X122733Y230210*
G03X119209Y226726I2929J-6487*
X122070Y223496I5852J2301*
G01X118330Y218396*
G37*
G36*
X97817Y200678D02*
G01X97761Y200684D01*
G03X97436Y200700I-325J-3285*
G01X97430*
X85993*
G02X85793Y200900I0J200*
G01Y210796*
X85731Y210859*
G02X85696Y210906I141J142*
G01X85598Y211090*
G02X85574Y211184I176J95*
X85600Y211282I200J-1*
G03X85794Y212020I-1306J738*
G01Y214380*
G03X85765Y214672I-1500J-2*
G01X85756Y214716*
X85778Y214803*
X86003Y215077*
G02X86157Y215150I155J-127*
G01X97589*
G02X97744Y215077I0J-200*
G01X97968Y214803*
X97990Y214716*
X97982Y214672*
G03X97953Y214380I1471J-294*
G01Y212020*
G03X98374Y210978I1500*
G01X98401Y210950*
X98430Y210878*
Y210522*
X98401Y210450*
X98374Y210422*
G03X97953Y209380I1079J-1042*
G01Y207020*
G03X98374Y205978I1500*
G01X98401Y205950*
X98430Y205878*
Y205522*
X98401Y205450*
X98374Y205422*
G03X97953Y204380I1079J-1042*
G01Y202020*
G03X98149Y201279I1500J0*
G01X98176Y201230*
X98173Y201118*
X97918Y200726*
X97817Y200678*
G37*
G36*
X48930Y174900D02*
G01X41230D01*
X40330Y175800*
Y202000*
X40730Y202400*
X56530*
X57630Y201300*
Y188500*
X55930Y186800*
X53230*
X49230Y182800*
Y175200*
X48930Y174900*
G37*
G54D10*
X10000Y10000D03*
Y243920D03*
X344331Y10000D03*
Y243920D03*
G54D11*
X10030Y143000D03*
X21130Y142800D03*
X5230Y159600D03*
X5430Y148800D03*
X11130Y165800D03*
Y155000D03*
X15530Y148200D03*
X23830Y157800D03*
X24030Y167700D03*
X5430Y171900D03*
X40944Y83186D03*
X41232Y112898D03*
X46878Y107252D03*
X33530Y143000D03*
X45430Y161200D03*
X45630Y155900D03*
X44230Y168400D03*
X31630Y168700D03*
X26730Y148200D03*
X41930Y189300D03*
Y183300D03*
X42130Y177000D03*
X49030Y189200D03*
X47130Y183200D03*
X45230Y192800D03*
X41630Y211000D03*
X58030Y87100D03*
Y78014D03*
X52431Y101699D03*
X58030Y96100D03*
X68430Y143000D03*
X74430D03*
X63430Y138850D03*
X65530Y169400D03*
X57330Y161100D03*
X57030Y155700D03*
X51330Y159200D03*
X54830Y169600D03*
X64430Y194100D03*
X64630Y185600D03*
X52430Y192800D03*
X54930Y189300D03*
X64330Y203200D03*
X58930Y210700D03*
X50030Y210800D03*
X62630Y217000D03*
X71830Y228700D03*
X63230Y225800D03*
X80944Y83556D03*
X97330Y87800D03*
Y78714D03*
X81865Y112635D03*
X87765Y106735D03*
X97330Y97170D03*
X92547Y101952D03*
X85730Y161200D03*
X97130Y161000D03*
X85830Y155500D03*
X97030Y155600D03*
X91630Y165500D03*
X76530Y169400D03*
X91430Y157500D03*
X98530Y176100D03*
X97730Y183700D03*
X77930Y193100D03*
X78030Y186900D03*
X90730Y177624D03*
Y181600D03*
Y173600D03*
X92930Y212400D03*
X93030Y205100D03*
X89430Y223100D03*
X89030Y233100D03*
X88630Y244100D03*
X81030Y240300D03*
X81230Y229500D03*
X96930Y228700D03*
X94530Y250400D03*
X80930Y250800D03*
X122350Y82520D03*
X122055Y112815D03*
X110530Y143100D03*
X116330Y143200D03*
X103880Y139050D03*
X118730Y193300D03*
X110330Y170100D03*
X101730D03*
X103830Y191100D03*
Y187900D03*
X110930Y196400D03*
X99930Y228700D03*
X102930D03*
X109230Y251400D03*
X140430Y85800D03*
Y78586D03*
X128448Y106422D03*
X134798Y100072D03*
X140430Y94440D03*
X149530Y143300D03*
X144380Y139050D03*
X125830Y161300D03*
X126030Y155200D03*
X137330Y155100D03*
X136830Y161500D03*
X132030Y157800D03*
X134230Y191600D03*
X126830D03*
X149530Y190700D03*
X149630Y182200D03*
Y174800D03*
X131130Y169500D03*
X139230Y169800D03*
X126830Y211200D03*
X127030Y201500D03*
X134030Y201300D03*
X149430Y198000D03*
X148730Y241000D03*
X137630D03*
X126430Y240800D03*
X126530Y231100D03*
X126730Y221400D03*
X148530Y250700D03*
X137430D03*
X126230Y250500D03*
X162485Y82755D03*
X163285Y111955D03*
X169835Y105405D03*
X155930Y143200D03*
X167030Y161400D03*
X167230Y155200D03*
X155030Y148400D03*
X172430Y158500D03*
X163730Y188900D03*
X171730Y188700D03*
X171330Y181500D03*
X170930Y175400D03*
X171630Y206700D03*
X168930Y212200D03*
X169430Y224400D03*
X167630Y221000D03*
X149930Y224400D03*
X172130Y241000D03*
X161030D03*
X153930Y229450D03*
X156930D03*
X171930Y250700D03*
X160830D03*
X199800Y38200D03*
Y23800D03*
X199600Y69200D03*
X199700Y78500D03*
Y88800D03*
X183916Y91324D03*
Y83000D03*
X199800Y97000D03*
X199500Y106200D03*
X176985Y98255D03*
X189530Y140700D03*
X193130Y142700D03*
X183930Y138900D03*
X178230Y161100D03*
Y155500D03*
X188230Y192600D03*
X198030Y193200D03*
X178330Y188600D03*
X188030Y173800D03*
X188330Y180900D03*
X175130Y195800D03*
X188330Y197800D03*
X198730Y197600D03*
X192630Y219400D03*
X175530Y216500D03*
X192130Y201900D03*
X193930Y240400D03*
X176330Y222000D03*
X197430Y224550D03*
X193730Y250100D03*
X200130Y16200D03*
X207730Y8100D03*
X216330Y3900D03*
X221530D03*
X219530Y15400D03*
Y7900D03*
X213230Y8200D03*
X210630Y4100D03*
X213930Y12700D03*
X215830Y18100D03*
X209430Y17600D03*
X208330Y13100D03*
X203400Y11600D03*
X200130Y30300D03*
X219230Y21100D03*
X222530Y23000D03*
X220430Y27700D03*
X215330Y25000D03*
X211430Y21300D03*
X207830Y28500D03*
X219830Y32300D03*
X207800Y37300D03*
X216700Y38900D03*
X213500Y32100D03*
X205000Y21200D03*
X212580Y44417D03*
Y49339D03*
Y54261D03*
Y59183D03*
X212100Y92209D03*
Y87091D03*
X223230Y137400D03*
X220130D03*
X217130D03*
X208030Y162700D03*
X214730D03*
X220930Y162600D03*
X211530Y219000D03*
X218330Y218900D03*
X210730Y201200D03*
X216530Y230700D03*
X205030Y240400D03*
X204400Y224500D03*
X204830Y250100D03*
X239530Y3400D03*
X245530Y3500D03*
X247430Y7600D03*
X243030Y6200D03*
X227630Y23900D03*
X233130Y23600D03*
X236230Y22800D03*
X240330Y21700D03*
X246430Y21100D03*
Y25200D03*
X242530Y26900D03*
X239330Y28000D03*
X234730Y29000D03*
X230130Y29700D03*
X225330Y29200D03*
X245030Y33000D03*
X237030Y33700D03*
X232900Y38700D03*
X226400Y38100D03*
X240700Y37400D03*
X224680Y44417D03*
Y49339D03*
Y54261D03*
Y59183D03*
X247700Y61200D03*
X245800Y66000D03*
X233200Y60800D03*
X233000Y48500D03*
X239300Y66300D03*
X225700Y89800D03*
X228000Y92200D03*
X249586Y86886D03*
X230750Y69300D03*
X226500Y117500D03*
X232000Y117600D03*
X248100Y106500D03*
X249300Y100900D03*
X231930Y130100D03*
X245130Y142200D03*
Y134100D03*
Y127300D03*
Y119500D03*
X231900Y124100D03*
X245730Y154600D03*
X243347Y179950D03*
X248269D03*
X237630Y193900D03*
X248930Y189300D03*
X228830Y180100D03*
X234130Y180800D03*
X235735Y176186D03*
X229135D03*
X238030Y205600D03*
X237630Y199300D03*
X248930Y201700D03*
X248630Y196700D03*
X230430Y201600D03*
X230030Y217000D03*
X229830Y211000D03*
X227630Y230700D03*
X237630Y230300D03*
X228430Y242300D03*
X233330Y235200D03*
X248630Y243300D03*
X248030Y235600D03*
X238330Y241900D03*
X228830Y250900D03*
X236830Y250000D03*
X252130Y3400D03*
X255430Y7300D03*
X258130Y3000D03*
X256630Y27100D03*
X267930Y26600D03*
X262930Y34100D03*
X274430Y33900D03*
X257000Y42400D03*
X256500Y34800D03*
X250600Y61200D03*
X270000Y64500D03*
X253300Y66300D03*
X257900Y66600D03*
X268100Y70000D03*
X258200Y70200D03*
X249900Y72600D03*
X254530Y118400D03*
X264130Y118200D03*
X273530Y117700D03*
X273330Y110600D03*
X264530Y110000D03*
X264330Y102900D03*
X273130Y103200D03*
X269030Y99300D03*
X259130Y113600D03*
X251200Y105600D03*
X253571Y98200D03*
X258571Y98100D03*
X254830Y141600D03*
X254630Y134500D03*
X264730Y141600D03*
X264530Y134500D03*
X254730Y125500D03*
X264330Y125300D03*
X272666Y138377D03*
Y132866D03*
Y127354D03*
X255430Y154300D03*
X264430Y154100D03*
X273830Y154300D03*
X263035Y179950D03*
X253191D03*
X258113D03*
X268430Y187500D03*
X269030Y184000D03*
X267830Y211400D03*
X264930D03*
X261930Y201300D03*
X250830Y207300D03*
X265330Y237500D03*
X266230Y234100D03*
X264930Y242500D03*
X255530Y242700D03*
X253130Y231100D03*
X254030Y238100D03*
X266830Y250900D03*
X299130Y2700D03*
X282241Y18600D03*
X288430Y21700D03*
X299030Y21800D03*
X287030Y34300D03*
X280200Y37600D03*
X299200Y48300D03*
X289800Y62300D03*
X288300Y66800D03*
X279200Y62900D03*
X278700Y69400D03*
X294530Y86900D03*
X290630Y84700D03*
X279030Y114000D03*
X279130Y106200D03*
Y99200D03*
X283830Y117700D03*
X288571Y96900D03*
X293571D03*
X287830Y122400D03*
X278177Y138377D03*
X283689D03*
X278177Y132866D03*
X283689D03*
X278177Y127354D03*
X283689D03*
X282330Y154300D03*
X298571Y157000D03*
X291129Y173133D03*
X294329D03*
X292730Y170700D03*
X279430Y185300D03*
X283530Y185200D03*
X290030Y189600D03*
X294730Y188800D03*
X275630Y204300D03*
X283430Y204500D03*
X275630Y196700D03*
X279430Y200600D03*
X283230Y196600D03*
X278630Y217300D03*
X289056Y218300D03*
X295480Y197550D03*
X294030Y205300D03*
X297410Y207200D03*
X278130Y240400D03*
X275930Y237600D03*
X277630Y250700D03*
X297530Y250400D03*
X288030Y250600D03*
X308030Y2700D03*
X316230D03*
X323630Y2500D03*
X306230Y15700D03*
X306330Y7900D03*
X314430Y15500D03*
X314530Y8200D03*
X323030Y15300D03*
X319730Y24100D03*
X324430Y30500D03*
X320500Y43500D03*
X323930Y64600D03*
X323830Y54300D03*
X321330Y59900D03*
X314300Y48200D03*
X307100Y46100D03*
X303000Y57000D03*
X311130Y84900D03*
X311230Y77400D03*
X306800Y69300D03*
X305500Y78900D03*
X311230Y100600D03*
X311030Y107800D03*
Y115700D03*
X305330Y100400D03*
X305130Y107600D03*
Y115500D03*
X310830Y137900D03*
X310730Y130300D03*
X310830Y123000D03*
X304930Y137700D03*
X304830Y130100D03*
X304930Y122800D03*
X311030Y153200D03*
Y145000D03*
X305130Y153000D03*
Y144800D03*
X309530Y186200D03*
X312130Y184200D03*
X324730Y194100D03*
X313530Y210500D03*
X321530Y210700D03*
X304930Y218400D03*
X310330Y216500D03*
X313830D03*
X311430Y223600D03*
X313930Y221900D03*
X321630Y243300D03*
X311730Y243200D03*
X311430Y250000D03*
X321430Y249900D03*
X325630Y41100D03*
X348930Y44000D03*
X333330Y28800D03*
X339330Y23400D03*
X347430Y23000D03*
X328630Y21800D03*
X343530Y64800D03*
X333630Y64600D03*
X330830Y58300D03*
X337830D03*
X326200Y50900D03*
X337000Y45800D03*
X344130Y189100D03*
X336930Y189200D03*
X326430Y218300D03*
X349430Y210200D03*
X325430Y206500D03*
X335430Y209900D03*
X328330Y225900D03*
X328430Y234600D03*
X336930Y230300D03*
X345530Y230400D03*
X332130Y242900D03*
X334430Y224300D03*
X332430Y249600D03*
X350930Y34700D03*
X351230Y53400D03*
X351130Y62600D03*
X350930Y190900D03*
X350830Y218600D03*
Y201600D03*
G54D20*
X48630Y222022D03*
G54D21*
X60147Y132550D03*
Y138850D03*
X54147Y132550D03*
Y138850D03*
X94630Y132750D03*
Y139050D03*
X91430Y191100D03*
X97430D03*
X85430D03*
X91430Y197400D03*
X97430D03*
X85430D03*
X100630Y132750D03*
Y139050D03*
X108930Y208350D03*
Y202050D03*
Y213050D03*
Y219350D03*
X141188Y132750D03*
Y139050D03*
X135188Y132750D03*
Y139050D03*
X137730Y215550D03*
Y209250D03*
X152730Y215550D03*
Y209250D03*
X173130Y229750D03*
Y236050D03*
X195030Y125550D03*
Y119250D03*
X181838Y132650D03*
Y138950D03*
X175838Y132650D03*
Y138950D03*
X197730Y216650D03*
Y210350D03*
X188630Y203050D03*
Y209350D03*
X187030Y232450D03*
Y238750D03*
X181030Y232450D03*
Y238750D03*
X187030Y243450D03*
X181030D03*
X187030Y249750D03*
X181030D03*
X207800Y92950D03*
Y86650D03*
X201030Y125550D03*
Y119250D03*
X207530Y224550D03*
Y230850D03*
X201530Y224550D03*
Y230850D03*
X240800Y53250D03*
Y46950D03*
X246800D03*
Y53250D03*
X233830Y153150D03*
Y159450D03*
X227730Y153150D03*
Y159450D03*
X241630Y168150D03*
X247630D03*
X241630Y174450D03*
X247630D03*
X253630Y168150D03*
X259630D03*
X253630Y174450D03*
X259630D03*
X294030Y101650D03*
Y107950D03*
X288030Y101650D03*
Y107950D03*
X286830Y238750D03*
Y245050D03*
G54D30*
X221100Y83070D03*
Y104330D03*
X236100Y83070D03*
X231100D03*
X226100D03*
Y104330D03*
X231100D03*
X236100D03*
G54D12*
X9474Y182100D03*
X18530D03*
X330730Y8700D03*
G54D31*
X209359Y100250D03*
X204241D03*
G54D13*
X35930Y88200D03*
Y118200D03*
X76300Y88200D03*
Y118200D03*
X65930Y158200D03*
X116670Y88200D03*
Y118200D03*
X106300Y158200D03*
X146670D03*
X157040Y88200D03*
Y118200D03*
X187040Y158200D03*
G54D22*
X71230Y218200D03*
Y210200D03*
G54D32*
X207020Y128400D03*
X216075D03*
X225130D03*
G54D23*
X81243Y203200D03*
Y208200D03*
Y213200D03*
Y218200D03*
X102503D03*
Y213200D03*
Y208200D03*
Y203200D03*
X204400Y201600D03*
Y206600D03*
Y211600D03*
Y216600D03*
X225660D03*
Y211600D03*
Y206600D03*
Y201600D03*
G54D14*
X40944Y75100D03*
X60944D03*
X100944D03*
X80944D03*
X123916D03*
X143916D03*
X163916D03*
X160716Y178300D03*
X183916Y75100D03*
X180716Y178300D03*
X200716D03*
X220716D03*
G54D15*
X47147Y131200D03*
X39667D03*
X43406Y140220D03*
X87630Y131400D03*
X80150D03*
X83890Y140420D03*
X120708Y131400D03*
X124448Y140420D03*
X128188Y131400D03*
X168838Y131300D03*
X161358D03*
X165098Y140320D03*
X252800Y46350D03*
Y53830D03*
X261820Y50090D03*
G54D24*
X99957Y237000D03*
X118303D03*
G54D33*
X206530Y169800D03*
X214530D03*
G54D16*
X43359Y147900D03*
X59501D03*
X100061D03*
X83919D03*
X124479D03*
X140620D03*
X165038D03*
X181180D03*
G54D25*
X118330Y218771D03*
Y202629D03*
G54D34*
X216075Y153203D03*
G54D35*
X271022Y226661D03*
X305038D03*
G54D17*
X35930Y158200D03*
X76300D03*
X116670D03*
X157040D03*
G54D26*
X145230Y205100D03*
Y219700D03*
X268300Y42800D03*
Y57400D03*
G54D36*
X271022Y243000D03*
X305038D03*
G54D27*
X161694Y214300D03*
Y209300D03*
Y204300D03*
Y199300D03*
Y194300D03*
Y224300D03*
Y219300D03*
X182166Y194300D03*
Y199300D03*
Y204300D03*
Y209300D03*
Y214300D03*
Y219300D03*
Y224300D03*
G54D18*
X30126Y210211D03*
G54D28*
X161380Y230100D03*
X167680D03*
X161380Y236100D03*
X167680D03*
X202150Y43700D03*
X208450D03*
X202150Y49800D03*
X208450D03*
X215950Y78800D03*
X209650D03*
Y72800D03*
X215950D03*
X222780Y194700D03*
X230750Y66300D03*
X237050D03*
Y72100D03*
X230750D03*
X238280Y217000D03*
X231980D03*
Y211000D03*
X238280D03*
X229080Y194700D03*
X253250Y61200D03*
X259550D03*
G54D19*
X48630Y198400D03*
G54D37*
X298194Y32383D03*
Y67816D03*
G54D38*
X276652Y228630D03*
X299408D03*
G54D29*
X184030Y186700D03*
X198630D03*
X222830D03*
X203430D03*
X218030D03*
X237430D03*
G54D39*
X344081Y39442D03*
Y48498D03*
Y214479D03*
Y205424D03*
G54D11*
X39667Y131200D02*
G01Y135263D01*
X43406Y140220D02*
G01Y147852D01*
X43359Y147900*
X35930Y158200D02*
G01Y155329D01*
X43359Y147900*
X65930Y158200D02*
G01Y154329D01*
X59501Y147900*
X80150Y131400D02*
G01Y134800D01*
X83890Y140420D02*
G01Y147871D01*
X83919Y147900*
X76300Y158200D02*
G01Y155519D01*
X83919Y147900*
X97430Y191100D02*
G01X91430D01*
X100630D02*
G01X97430D01*
Y197400D02*
G01X91430D01*
Y197400D02*
G01X85430D01*
X81243Y203200D02*
G01Y198787D01*
X82630Y197400*
X85430*
X99930Y228700D02*
G01X96930D01*
Y228700D02*
G01Y233973D01*
X99930Y236973*
X120708Y131400D02*
G01Y134800D01*
X116670Y158200D02*
G01Y155709D01*
X124479Y147900*
X106300Y158200D02*
G01Y153470D01*
X100730Y147900*
X100061*
X103830Y187900D02*
G01Y191100D01*
Y191100D02*
G01X100630D01*
Y191100D02*
G01X103830Y187900D01*
X102930Y228700D02*
G01X99930D01*
X102930D02*
G01Y234027D01*
X99957Y237000*
X99930Y236973D02*
G01X99957Y237000D01*
X99930Y228700D02*
G01Y236973D01*
X118330Y218771D02*
G01Y236973D01*
X118303Y237000*
X124448Y140420D02*
G01Y147870D01*
X124479Y147900*
X146670Y158200D02*
G01Y153949D01*
X140620Y147900*
X160716Y169370D02*
G01X149670D01*
X146670Y166370*
Y158200*
X161358Y131300D02*
G01Y134700D01*
X165098Y140320D02*
G01Y147840D01*
X165038Y147900*
X157040Y158200D02*
G01Y155898D01*
X165038Y147900*
X160716Y178300D02*
G01X160416Y178000D01*
X160716Y178300D02*
G01Y169370D01*
X187040Y158200D02*
G01Y166370D01*
X184040Y169370*
X160716*
X153930Y229450D02*
G01X156930D01*
X161380Y230100D02*
G01Y224614D01*
X161694Y224300*
X161380Y230100D02*
G01Y236100D01*
X156930Y229450D02*
G01X160730D01*
X161380Y230100*
X195030Y125550D02*
G01Y131500D01*
X198930Y135400*
Y156600*
X197330Y158200*
X187040*
X195030Y125550D02*
G01X201030D01*
X187040Y158200D02*
G01Y153760D01*
X181180Y147900*
X197730Y216650D02*
G01X204350D01*
X204400Y216600*
X201530Y224550D02*
G01X197430D01*
X201030Y125550D02*
G01X204170D01*
X207020Y128400*
X204400Y224500D02*
G01Y216600D01*
X201530Y224550D02*
G01X204350D01*
X204400Y224500*
Y224500D02*
G01X204450Y224550D01*
X207530*
X238280Y224569D02*
G01X207549D01*
X207530Y224550*
X225130Y128400D02*
G01Y122169D01*
X231930Y130100D02*
G01X230230Y128400D01*
Y128400D02*
G01X225130D01*
X228200Y148800D02*
G01X285511D01*
X288511Y151800*
Y162681*
X292730Y166900*
Y170700*
X238280Y217000D02*
G01Y224569D01*
X310330Y216500D02*
G01X305630Y211800D01*
X274630*
X261861Y224569*
X238280*
X291129Y173133D02*
G01Y172300D01*
X292730Y170700*
X291129Y173133D02*
G01X294329D01*
Y173133D02*
G01Y172299D01*
X292730Y170700*
X310330Y216500D02*
G01X313830D01*
G54D40*
X47147Y131200D02*
G01X49730D01*
X51080Y132550*
X54147*
X60147Y138850D02*
G01X63430D01*
X54147Y132550D02*
G01X60147D01*
X94630Y132750D02*
G01X100630D01*
X87630Y131400D02*
G01X90530D01*
X91880Y132750*
X94630*
X100630Y139050D02*
G01X103880D01*
X135188Y132750D02*
G01X141188D01*
X128188Y131400D02*
G01X131030D01*
X132380Y132750*
X135188*
X141188Y139050D02*
G01X144380D01*
X145230Y219700D02*
G01X138730D01*
X137730Y218700*
Y215550*
X145230Y205100D02*
G01X146030Y204300D01*
X152730*
X145230Y219700D02*
G01X152730D01*
X168838Y131300D02*
G01X171730D01*
X173080Y132650*
X175838*
X152730Y215550D02*
G01Y219700D01*
X165830Y204300D02*
G01X161694D01*
X171630Y206700D02*
G01X169230Y204300D01*
X165830*
X165822Y204293D02*
G01X165830Y204300D01*
X152730D02*
G01X161694D01*
X152730Y209250D02*
G01Y204300D01*
X175530Y216500D02*
G01X174430Y215400D01*
Y205500*
X168230Y199300*
X161694*
X182166Y219300D02*
G01X173130D01*
X171630Y217800*
Y210700*
X170230Y209300*
X161694*
Y194300D02*
G01X165830D01*
X176230Y204700*
Y212700*
X177830Y214300*
X182166*
X168930Y212200D02*
G01X166830Y214300D01*
X161694*
X152730Y219700D02*
G01X161294D01*
X161694Y219300*
X167680Y236100D02*
G01X173080D01*
X173130Y236050*
X199030Y108100D02*
G01X195100D01*
X186630Y116570*
Y141800*
X186930Y142100*
X253571Y98200D02*
G01X255200Y99829D01*
Y107071*
X251571Y110700*
X195000*
X188300Y117400*
Y137900*
X188330Y137930*
Y139500*
X189530Y140700*
X258571Y98100D02*
G01X256830Y99841D01*
Y107800*
X252330Y112300*
X195730*
X189930Y118100*
Y137200*
X193130Y140400*
Y142700*
X186930Y142100D02*
G01X188630Y143800D01*
X190330*
X191930Y145400*
X194330*
X195830Y143900*
Y140800*
X191530Y136500*
Y120300*
X192580Y119250*
X195030*
X181130Y142100D02*
G01X186930D01*
X175838Y132650D02*
G01X181838D01*
Y138950D02*
G01X183880D01*
X183930Y138900*
X182166Y199300D02*
G01X178830D01*
X177830Y200300*
Y211200*
X178530Y211900*
X185367*
X188430Y214963*
Y226300*
X187030Y227700*
Y232450*
X188630Y203050D02*
G01X190980D01*
X192130Y201900*
X182166Y209300D02*
G01Y204300D01*
Y209300D02*
G01X188580D01*
X188630Y209350*
X181030Y232450D02*
G01Y228300D01*
X182030Y227300*
X185130*
X186830Y225600*
Y220300*
X185830Y219300*
X182166*
X176330Y222000D02*
G01X175130Y223200D01*
Y228400*
X173780Y229750*
X173130*
X182166Y224300D02*
G01X178530D01*
X176830Y226000*
Y235200*
X175980Y236050*
X173130*
X208450Y49800D02*
G01X212119D01*
X212580Y49339*
X208450Y43700D02*
G01X211863D01*
X212580Y44417*
X225300Y109000D02*
G01X225200Y109100D01*
X213150*
X211950Y107900*
X214100Y104330D02*
G01X221100D01*
X282241Y18600D02*
G01Y20900D01*
X281241Y21900*
X252830*
X250780Y23950*
Y41200*
X249980Y42000*
X238400*
X237050Y43350*
Y66300*
X249586Y86886D02*
G01X252600Y83871D01*
Y71400*
X251100Y69900*
X243300*
X242000Y68600*
Y64800*
X240800Y63600*
Y53250*
X239300Y66300D02*
G01X237050D01*
X230750D02*
G01Y69300D01*
X224680Y49339D02*
G01X226800D01*
X227600Y50139*
Y61700*
X226400Y62900*
Y75900*
X228300Y77800*
X230300*
X231100Y78600*
Y83070*
X224680Y44417D02*
G01X227717D01*
X229200Y45900*
Y62400*
X228000Y63600*
Y75200*
X229000Y76200*
X233200*
X236100Y79100*
Y83070*
X237050Y72100D02*
G01X249400D01*
X249900Y72600*
X230750Y69300D02*
G01Y72100D01*
X294530Y86900D02*
G01X287730Y93700D01*
X235500*
X231400Y89600*
Y83370*
X231100Y83070*
X290630Y84700D02*
G01Y88470D01*
X287000Y92100*
X239100*
X236100Y89100*
Y83070*
X243347Y179950D02*
G01X241630Y178233D01*
Y174450*
X248269Y179950D02*
G01X247630Y179311D01*
Y174450*
X225660Y201600D02*
G01X230430D01*
X231980Y217000D02*
G01X230030D01*
Y217000D02*
G01X226060D01*
X225660Y216600*
Y211600D02*
G01X226260Y211000D01*
X229830*
Y211000D02*
G01X231980D01*
X225660Y206600D02*
G01Y211600D01*
X261100Y88700D02*
G01X259734Y90066D01*
X256300*
Y90066D02*
G01X255866D01*
X255300Y89500*
Y89500D02*
G01X254200D01*
X255300D02*
G01X255734D01*
X254200D02*
G01X255200Y90500D01*
X260100*
X261100Y89500*
X255734D02*
G01X256300Y90066D01*
X249300Y100900D02*
G01Y98300D01*
X252300Y95300*
X281930*
X283830Y97200*
Y109900*
X292630Y118700*
Y160370*
X299330Y167070*
Y192400*
X298530Y193200*
X293630*
X290830Y196000*
Y206000*
X292830Y208000*
X296610*
X297410Y207200*
X253191Y179950D02*
G01X253630Y179511D01*
Y174450*
X258113Y179950D02*
G01X259630Y178433D01*
Y174450*
X294030Y107950D02*
G01Y115500D01*
X295830Y117300*
Y158970*
X302530Y165670*
Y194600*
X300730Y196400*
X296630*
X295480Y197550*
X288030Y107950D02*
G01Y111800D01*
X294230Y118000*
Y159670*
X300930Y166370*
Y193900*
X300030Y194800*
X294330*
X292430Y196700*
Y203700*
X294030Y205300*
X288571Y96900D02*
G01Y101109D01*
X288030Y101650*
X293571Y96900D02*
G01Y101191D01*
X294030Y101650*
X298571Y157000D02*
G01Y159411D01*
X304155Y164995*
Y193300*
X304955Y194100*
X324730*
G54D41*
X187030Y243450D02*
G01Y238750D01*
X181030Y243450D02*
G01Y238750D01*
X226100Y104330D02*
G01Y108200D01*
X225300Y109000*
X278630Y217300D02*
G01X279630Y218300D01*
X289056*
G54D42*
X9474Y182100D02*
G01Y188400D01*
Y182100D02*
G01X3174D01*
X9474D02*
G01Y175800D01*
X18530Y182100D02*
G01Y188400D01*
Y182100D02*
G01X24830D01*
X18530D02*
G01Y175800D01*
X9474Y182100D02*
G01X18530D01*
X54147Y138850D02*
G01X50476D01*
X54147D02*
G01Y141930D01*
X90960Y139050D02*
G01X94630D01*
Y139050D02*
G01Y142130D01*
X85430Y191100D02*
G01Y188020D01*
Y191100D02*
G01X81760D01*
X97130Y203200D02*
G01X102503D01*
X81243Y218200D02*
G01Y213200D01*
X102503Y203200D02*
G01Y200120D01*
X108930Y202050D02*
G01Y198970D01*
Y202050D02*
G01X112600D01*
X118330Y202629D02*
G01Y196004D01*
Y202629D02*
G01X123970D01*
X108930Y202050D02*
G01X107080D01*
X105930Y203200*
X102503*
X112600Y202050D02*
G01X117751D01*
X118330Y202629*
X112600Y202050D02*
G01X113179Y202629D01*
X118330*
X102503Y213200D02*
G01X108780D01*
X108930Y213050*
X118330Y218771D02*
G01Y218400D01*
X112980Y213050*
X108930*
X102503Y208200D02*
G01X108780D01*
X108930Y208350*
Y219350D02*
G01Y222430D01*
X135188Y139050D02*
G01X131518D01*
X135188D02*
G01Y142130D01*
X137730Y209250D02*
G01X134060D01*
X137730D02*
G01Y206170D01*
X175838Y138950D02*
G01X172168D01*
X167680Y230100D02*
G01Y224550D01*
X181030Y249750D02*
G01X172580D01*
X198158Y115500D02*
G01X196330D01*
X195030Y116800*
Y119250*
X175838Y138950D02*
G01Y142030D01*
X195030Y119250D02*
G01X201030D01*
X180716Y178300D02*
G01X174216D01*
X184030Y186700D02*
G01Y181614D01*
Y181614D02*
G01X190044D01*
X184030D02*
G01X180716Y178300D01*
X178330Y188600D02*
G01X180230Y186700D01*
Y186700D02*
G01X184030D01*
X177130Y194300D02*
G01X182166D01*
Y194300D02*
G01X186721D01*
X201530Y230850D02*
G01X197860D01*
X181030Y249750D02*
G01X187030D01*
Y249750D02*
G01X193680D01*
X202150Y43700D02*
G01Y49800D01*
Y49800D02*
G01Y54261D01*
Y54261D02*
G01X212580D01*
X202150D02*
G01Y63100D01*
X205650Y66600*
X213950*
X215950Y68600*
Y72800*
X212580Y54261D02*
G01X224680D01*
X212580Y59183D02*
G01X209380D01*
X212580D02*
G01Y62383D01*
Y59183D02*
G01X215780D01*
X224680D02*
G01X219983D01*
X222300Y62800D02*
G01X224680Y60420D01*
Y59183*
X215950Y72800D02*
G01Y78800D01*
Y78800D02*
G01X219100D01*
X221100Y80800*
Y83070*
X207800Y86650D02*
G01X211659D01*
X212100Y87091*
Y87091D02*
G01Y83891D01*
Y87091D02*
G01X215300D01*
X207800Y86650D02*
G01X204330D01*
X207800D02*
G01Y83770D01*
X209650Y78800D02*
G01Y72800D01*
Y72800D02*
G01X205400D01*
X209650Y78800D02*
G01X206770D01*
X209650D02*
G01Y82270D01*
X212100Y92209D02*
G01X211359Y92950D01*
X207800*
X212100Y92209D02*
G01Y94800D01*
X214100Y96800*
X229100*
X231100Y98800*
Y104330*
X201030Y119250D02*
G01Y116170D01*
X211950Y107900D02*
G01X205000D01*
X204241Y107141*
Y100250*
X209359D02*
G01Y103530D01*
X210159Y104330*
X214100*
X201030Y119250D02*
G01X204700D01*
X223530Y162300D02*
G01X226380Y159450D01*
X227730*
X204400Y201600D02*
G01Y198520D01*
X198830Y201600D02*
G01X204400D01*
Y201600D02*
G01X209350D01*
X201530Y230850D02*
G01X207530D01*
Y230850D02*
G01Y233930D01*
Y230850D02*
G01X211200D01*
X201530D02*
G01Y233930D01*
X250600Y61200D02*
G01X247700D01*
X246800Y53250D02*
G01Y56600D01*
X252800Y53830D02*
G01X252220Y53250D01*
X246800*
X252800Y46350D02*
G01X252200Y46950D01*
X246800*
Y46950D02*
G01X240800D01*
X236100Y104330D02*
G01Y99580D01*
Y104330D02*
G01X238980D01*
X227730Y159450D02*
G01X233830D01*
Y159450D02*
G01Y162530D01*
Y159450D02*
G01X237500D01*
X227730Y160200D02*
G01Y163100D01*
Y160200D02*
G01Y159450D01*
X224930Y163000D02*
G01X227730Y160200D01*
X247630Y168150D02*
G01X253630D01*
X241630D02*
G01X247630D01*
X229080Y194700D02*
G01Y191030D01*
X237430Y186700D02*
G01Y191350D01*
Y186700D02*
G01Y182050D01*
X242630Y186700D02*
G01X237430D01*
X238280Y211000D02*
G01Y207330D01*
Y211000D02*
G01X241360D01*
X229080Y194700D02*
G01X232160D01*
X250830Y207300D02*
G01X249730D01*
X247730Y209300*
Y215000*
X245730Y217000*
X238280*
X268300Y42800D02*
G01X263234D01*
X261820Y44214*
Y50090*
X253250Y61200D02*
G01X250600D01*
X252800Y53830D02*
G01Y57230D01*
Y53830D02*
G01X256200D01*
X298194Y32383D02*
G01Y40800D01*
X296194Y42800*
X268300*
X259550Y61200D02*
G01X264500D01*
X268300Y57400*
X298194Y67816D02*
G01Y59400D01*
X296194Y57400*
X268300*
X259630Y168150D02*
G01X271763D01*
X273763Y170150*
Y173133*
X253630Y168150D02*
G01X259630D01*
X273763Y173133D02*
G01Y190200D01*
X271763Y192200*
X265330*
X261930Y195600*
Y201300*
X263035Y179950D02*
G01Y184150D01*
Y179950D02*
G01X267235D01*
X267730Y211400D02*
G01X264930D01*
X267730D02*
G01X264930Y208600D01*
X267830Y211400D02*
G01X267730D01*
X264930Y208600D02*
G01X261930Y205600D01*
Y201300*
X264930Y208600D02*
G01Y211400D01*
X286830Y245050D02*
G01X273072D01*
X271022Y243000*
Y226661D02*
G01Y243000D01*
X291129Y173133D02*
G01X273763D01*
X282980Y238750D02*
G01X286830D01*
Y238750D02*
G01Y235670D01*
Y238750D02*
G01X290500D01*
X286830Y245050D02*
G01X302988D01*
X305038Y243000*
Y226661D02*
G01Y243000D01*
X330730Y8700D02*
G01Y15000D01*
Y8700D02*
G01X324430D01*
X330730D02*
G01Y2400D01*
G54D43*
X30126Y210211D02*
G01X22976D01*
X30126D02*
G01Y221311D01*
Y210211D02*
G01Y199111D01*
Y210211D02*
G01X37276D01*
X48630Y222022D02*
G01Y214872D01*
Y222022D02*
G01X37530D01*
X48630D02*
G01X59730D01*
X48630D02*
G01Y229172D01*
X86706Y177624D02*
G01X75021D01*
X71230Y181414*
Y210200*
G54D44*
X90730Y173600D02*
G01Y177624D01*
Y177624D02*
G01Y181600D01*
Y173600D02*
G01X86706Y177624D01*
Y177624D02*
G01X90730D01*
Y181600D02*
G01X90683D01*
X86706Y177624*
G54D45*
X204400Y206600D02*
G01X199230D01*
X197730Y208100*
Y210350*
X218030Y186700D02*
G01Y180986D01*
X220716Y178300*
X222830Y186700D02*
G01Y180414D01*
X220716Y178300*
X214530Y169800D02*
G01X219216D01*
X220716Y171300*
Y178300*
X218030Y186700D02*
G01Y194700D01*
X203430Y186700D02*
G01X198630D01*
Y186700D02*
G01Y180386D01*
X200716Y178300*
X203430Y186700D02*
G01Y181014D01*
X200716Y178300*
X206530Y169800D02*
G01X202216D01*
X200716Y171300*
Y178300*
X203430Y186700D02*
G01Y192300D01*
X206030Y194900*
X213869*
X215369Y196400*
Y205100*
X213869Y206600*
X204400*
X218030Y194700D02*
G01Y210100D01*
X216530Y211600*
X204400*
X218030Y194700D02*
G01X222780D01*
G54D46*
X81243Y208200D02*
G01X73230D01*
X71230Y210200*
X81243Y218200D02*
G01X71230D01*
X81243D02*
G01X102503D01*
G54D47*
X40944Y75100D02*
G01Y83186D01*
Y83186D02*
G01X35930Y88200D01*
Y118200D02*
G01X41232Y112898D01*
Y112898D02*
G01X46878Y107252D01*
Y107252D02*
G01X52431Y101699D01*
Y101699D02*
G01X58030Y96100D01*
Y78014D02*
G01X60944Y75100D01*
X58030Y78014D02*
G01Y87100D01*
Y87100D02*
G01Y96100D01*
X80944Y83556D02*
G01X76300Y88200D01*
Y118200D02*
G01X81865Y112635D01*
X80944Y75100D02*
G01Y83556D01*
X100944Y75100D02*
G01X97330Y78714D01*
Y97170D02*
G01X92547Y101952D01*
X97330Y87800D02*
G01Y97170D01*
Y78714D02*
G01Y87800D01*
X87765Y106735D02*
G01X81865Y112635D01*
X92547Y101952D02*
G01X87765Y106735D01*
X116670Y88200D02*
G01X122350Y82520D01*
Y82520D02*
G01X123916Y80954D01*
Y75100*
X116670Y118200D02*
G01X122055Y112815D01*
Y112815D02*
G01X128448Y106422D01*
Y106422D02*
G01X134798Y100072D01*
Y100072D02*
G01X140430Y94440D01*
Y94440D02*
G01Y85800D01*
Y85800D02*
G01Y78586D01*
Y78586D02*
G01X143916Y75100D01*
X157040Y88200D02*
G01X162485Y82755D01*
Y82755D02*
G01X163916Y81324D01*
Y75100*
X157040Y118200D02*
G01X163285Y111955D01*
Y111955D02*
G01X169835Y105405D01*
X183916Y91324D02*
G01X176985Y98255D01*
Y98255D02*
G01X169835Y105405D01*
X183916Y75100D02*
G01Y83000D01*
Y83000D02*
G01Y91324D01*
M02*
