M48
INCH,LZ
VER,1
FMAT,2
T01C0.015F1B1S6H2000
T02C0.02F1B1S6H2000
T03C0.023598F1B1S6H2000
T04C0.032F1B1S6H2000
T05C0.042F1B1S6H2000
T06C0.052F1B1S6H2000
T07C0.054F1B1S6H2000
T08C0.082677F1B1S6H2000
T09C0.027559F1B1S6H2000
DETECT,ON
ATC,ON
%
T01
X020013Y00162
X02034Y00116
X020773Y00081
X020833Y00131
X020943Y00176
X021063Y00041
X021323Y00082
X021393Y00127
X021583Y00181
X021633Y00039
X021953Y00079
Y00154
X022153Y00039
X023953Y00034
X024303Y00062
X024553Y00035
X024743Y00076
X025213Y00034
X025543Y00073
X025813Y0003
X028224Y00186
X029913Y00027
X030623Y00157
X030633Y00079
X030803Y00027
X031443Y00155
X031453Y00082
X031623Y00027
X032303Y00153
X032363Y00025
X035093Y00347
X034743Y0023
X033933Y00234
X033333Y00288
X032863Y00218
X032443Y00305
X031973Y00241
X029903Y00218
X028843Y00217
X028703Y00343
X02802Y00376
X027443Y00339
X026793Y00266
X026293Y00341
X025663Y00271
X02565Y00348
X024643Y00252
Y00211
X024503Y0033
X024253Y00269
X02407Y00374
X024033Y00217
X023933Y0028
X023703Y00337
X023623Y00228
X023473Y0029
X023313Y00236
X02329Y00387
X023013Y00297
X022763Y00239
X02264Y00381
X022533Y00292
X022253Y0023
X022043Y00277
X021983Y00323
X021923Y00211
X02167Y00389
X021533Y0025
X02135Y00321
X021143Y00213
X02078Y00373
X020783Y00285
X0205Y00212
X020013Y00303
X01998Y00382
Y00238
X0233Y00485
X0257Y00424
X02992Y00483
X0303Y0057
X03071Y00461
X03143Y00482
X03205Y00435
X032133Y00599
X032383Y00543
X032563Y00411
X03262Y00509
X033083Y00583
X0337Y00458
X033783Y00583
X034893Y0044
X035123Y00534
X035113Y00626
X034353Y00648
X033363Y00646
X032393
X031123Y00774
X03068Y00693
X03055Y00789
X02898Y00623
X02883Y00668
X02792Y00629
X02787Y00694
X027Y00645
X02681Y007
X02582Y00702
X02579Y00666
X02533Y00663
X02506Y00612
X02499Y00726
X02477Y00612
X02458Y0066
X02393Y00663
X02332Y00608
X023075Y00693
X01997Y00785
X01996Y00692
X014043Y007859
X009733Y007871
X005803Y007801
X004094Y008319
X005803Y00871
Y00961
X008094Y008356
X009733Y00878
Y009717
X012235Y008252
X014043Y00858
Y009444
X016248Y008276
X017698Y009826
X018392Y0083
Y009132
X01997Y00888
X01998Y0097
X02257Y00898
X0228Y00922
X024959Y008689
X025357Y00982
X025857Y00981
X026903Y00993
X027913Y00992
X028857Y00969
X029063Y00847
X029357Y00969
X029453Y00869
X031113Y00849
X031123Y01006
X031103Y01157
Y01078
X030533Y01004
X030513Y01155
Y01076
X028383Y01177
X027913Y01062
X027903Y0114
X027353Y01177
X027333Y01106
X027313Y01032
X026453Y011
X026433Y01029
X026413Y01182
X025913Y01136
X025453Y01184
X02512Y01056
X02493Y01009
X02481Y01065
X024513Y01195
X0232Y01176
X02265Y01175
X01995Y01062
X016983Y01054
X016328Y011196
X01348Y010007
X012845Y010642
X012205Y011282
X009255Y010195
X008776Y010674
X008186Y011264
X005243Y01017
X004688Y010725
X004123Y01129
X006343Y013885
X010388Y013905
X014438
X018393Y01389
X021713Y01374
X022013
X022323
X02319Y01241
X023193Y01301
X024513Y01273
Y01341
X025463Y01345
X025473Y01255
X026433Y01253
X026453Y01345
X027267Y012735
Y013287
Y013838
X027818Y012735
Y013286
Y013837
X028369Y012735
Y013286
Y013837
X028783Y01224
X030483Y01301
X030493Y01228
Y01377
X031073Y01303
X031083Y0123
Y01379
X031103Y01532
Y0145
X030513Y0153
Y01448
X029857Y0157
X028233Y01543
X027383
X026473Y01416
X026443Y01541
X025543Y01543
X025483Y01416
X024573Y01546
X024513Y01422
X019313Y01427
X018953Y01407
X017823Y01555
X017243Y01585
X016723Y01552
X015593Y01432
X015503Y01484
X014953Y01433
X013733Y01551
X013203Y01578
X012603Y01552
X011633Y01432
X011053Y01431
X009703Y01556
X009143Y01575
X008583Y01555
X007443Y0143
X006843
X005703Y01557
X005133Y01592
X004563Y01559
X003353Y0143
X002673Y01482
X002383Y01578
X002113Y01428
X001553Y01482
X001113Y0155
X001003Y0143
X000543Y01488
X000523Y01596
X000543Y01719
X001113Y01658
X002403Y01677
X003163Y01687
X004213Y0177
X004423Y01684
X004543Y01612
X005483Y01696
X005733Y01611
X006553Y01694
X007653
X008573Y01612
X009073Y01736
Y017762
X009163Y01655
X009713Y0161
X009853Y01761
X010173Y01701
X011033
X012583Y01613
X013113Y01695
X013683Y01615
X013923Y01698
X014963Y01748
X016703Y01614
X017093Y01754
X017823Y01611
X018803Y01738
X020803Y01627
X021473
X022093Y01626
X022913Y017619
X023573
X029113Y017313
X029273Y01707
X029433Y017313
X035093Y01909
X034413Y01891
X033693Y01892
X032473Y01941
X031213Y01842
X030953Y01862
X029548Y019755
X029473Y01888
X029003Y01896
X028353Y01852
X028323Y01966
X027943Y01853
X027563Y01967
X026903Y0184
X026843Y01875
X024893Y01893
X024863Y01967
X023763Y01993
Y01939
X023413Y01808
X022883Y01801
X019873Y01976
X019803Y01932
X018833Y01978
Y01809
X018823Y01926
X017833Y01886
X017513Y01958
X017173Y01887
X017133Y01815
X016373Y01889
X014963Y01822
X014953Y01907
X014943Y0198
X013423Y01916
X012683
X011873Y01933
X011093Y01964
X010383Y01911
Y01879
X009773Y01837
X009073Y01816
X007803Y01869
X007793Y01931
X006463Y01856
X006443Y01941
X005493Y01893
X005243Y01928
X004903Y01892
X004713Y01832
X004523Y01928
X004193Y01893
Y01833
X004163Y0211
X005003Y02108
X005893Y02107
X006263Y0217
X006433Y02032
X009293Y02124
X009303Y02051
X012683Y02112
X012703Y02015
X013403Y02013
X016893Y02122
X017163Y02067
X017553Y02165
X019213Y02019
X019263Y02194
X021073Y02012
X021153Y0219
X021833Y02189
X022983Y0211
X023003Y0217
X023043Y02016
X023803Y02056
X024893Y02017
X025083Y02073
X026193Y02013
X026493Y02114
X026783
X027563Y02043
X027863Y02173
X027943Y02006
X028343Y02045
X028906Y02183
X029403Y02053
X029741Y02072
X030493Y02184
X031033Y02165
X031353Y02105
X031383Y02165
X032153Y02107
X032543Y02065
X032643Y02183
X033543Y02099
X034943Y02102
X035083Y02016
Y02186
X034553Y02304
X033693Y02303
X033443Y02243
X032843Y02346
X032833Y02259
X031393Y02219
X031143Y02236
X027593Y02376
X026623Y02341
X026533Y02375
X025403Y02381
X025313Y02311
X024803Y02356
X023763Y02303
X023333Y02352
X022763Y02307
X021653
X02044Y02245
X019743Y022455
X017633Y0222
X016943Y02244
X016763Y0221
X015693Y022945
X015393
X014993Y02244
X012673Y02214
X012653Y02311
X010293Y02287
X009993
X009693
X008943Y02231
X008903Y02331
X008123Y02295
X007183Y02287
X006323Y02258
X008093Y02508
X008103Y02403
X008863Y02441
X009453Y02504
X010923Y02514
X012623Y02505
X012643Y02408
X013743Y02507
X013763Y0241
X014853Y02507
X014873Y0241
X016083Y02507
X016103Y0241
X017193Y02507
X017213Y0241
X019373Y02501
X019393Y02404
X020483Y02501
X020503Y02404
X022843Y02423
X022883Y02509
X023683Y025
X023833Y02419
X024863Y02433
X025553Y02427
X026493Y02425
X026683Y02509
X027763Y02507
X027813Y02404
X028803Y02506
X029753Y02504
X031143Y025
X031173Y02432
X032143Y02499
X032163Y02433
X033213Y02429
X033243Y02496
T02
X021258Y004442
Y004934
Y005426
Y005918
X022468Y004442
Y004934
Y005426
Y005918
X02121Y008709
Y009221
X024335Y017995
X024827
X025319
X025811
X026303
T03
X020424Y010025
X020936
T04
X034408Y003944
Y00485
Y020542
Y021448
T05
X033073Y00087
X001853Y01821
X000947
T06
X003593Y00882
X00763
X011667
X015704
Y01182
X011667
X00763
X003593
Y01582
X006593
X00763
X01063
X011667
X014667
X015704
X018704
T07
X004094Y00751
X006094
X008094
X010094
X012392
X014392
X016392
X018392
X016072Y01783
X018072
X020072
X022072
T08
X001Y001
Y024392
X034433
Y001
T09
X027665Y022863
X029941
M30
