G04 CAM350/DFMSTREAM V12.1 (Build 1022) Date:  Fri Aug 29 15:05:25 2025 *
G04 Database: (Untitled) *
G04 Layer 3: PASTEMASK_BOTTOM.art *
%FSLAX25Y25*%
%MOIN*%
%SFA1.000B1.000*%

%MIA0B0*%
%IPPOS*%
%ADD12C,0.06200*%
%ADD14C,0.07600*%
%ADD15R,0.03000X0.03000*%
%ADD16R,0.09450X0.07480*%
%ADD21R,0.03540X0.02360*%
%ADD22R,0.05000X0.06000*%
%ADD23R,0.06100X0.02360*%
%ADD24R,0.08860X0.13580*%
%ADD25R,0.07480X0.09450*%
%ADD26R,0.05500X0.04000*%
%ADD27R,0.05310X0.02170*%
%ADD28R,0.02360X0.03540*%
%ADD29R,0.04000X0.05500*%
%ADD30R,0.02360X0.06100*%
%ADD32R,0.05906X0.08661*%
%ADD33R,0.06000X0.05000*%
%ADD34R,0.15000X0.07900*%
%ADD37R,0.08000X0.12000*%
%LNPASTEMASK_BOTTOM.art*%
%LPD*%
G54D12*
X9474Y182100D03*
X18530D03*
X330730Y8700D03*
G54D27*
X161694Y214300D03*
Y209300D03*
Y204300D03*
Y199300D03*
Y194300D03*
Y224300D03*
Y219300D03*
X182166Y194300D03*
Y199300D03*
Y204300D03*
Y209300D03*
Y214300D03*
Y219300D03*
Y224300D03*
G54D14*
X40944Y75100D03*
X60944D03*
X100944D03*
X80944D03*
X123916D03*
X143916D03*
X163916D03*
X160716Y178300D03*
X183916Y75100D03*
X180716Y178300D03*
X200716D03*
X220716D03*
G54D28*
X161380Y230100D03*
X167680D03*
X161380Y236100D03*
X167680D03*
X202150Y43700D03*
X208450D03*
X202150Y49800D03*
X208450D03*
X215950Y78800D03*
X209650D03*
Y72800D03*
X215950D03*
X222780Y194700D03*
X230750Y66300D03*
X237050D03*
Y72100D03*
X230750D03*
X238280Y217000D03*
X231980D03*
Y211000D03*
X238280D03*
X229080Y194700D03*
X253250Y61200D03*
X259550D03*
G54D15*
X47147Y131200D03*
X39667D03*
X43406Y140220D03*
X87630Y131400D03*
X80150D03*
X83890Y140420D03*
X120708Y131400D03*
X124448Y140420D03*
X128188Y131400D03*
X168838Y131300D03*
X161358D03*
X165098Y140320D03*
X252800Y46350D03*
Y53830D03*
X261820Y50090D03*
G54D16*
X43359Y147900D03*
X59501D03*
X100061D03*
X83919D03*
X124479D03*
X140620D03*
X165038D03*
X181180D03*
G54D29*
X184030Y186700D03*
X198630D03*
X222830D03*
X203430D03*
X218030D03*
X237430D03*
G54D21*
X60147Y132550D03*
Y138850D03*
X54147Y132550D03*
Y138850D03*
X94630Y132750D03*
Y139050D03*
X91430Y191100D03*
X97430D03*
X85430D03*
X91430Y197400D03*
X97430D03*
X85430D03*
X100630Y132750D03*
Y139050D03*
X108930Y208350D03*
Y202050D03*
Y213050D03*
Y219350D03*
X141188Y132750D03*
Y139050D03*
X135188Y132750D03*
Y139050D03*
X137730Y215550D03*
Y209250D03*
X152730Y215550D03*
Y209250D03*
X173130Y229750D03*
Y236050D03*
X195030Y125550D03*
Y119250D03*
X181838Y132650D03*
Y138950D03*
X175838Y132650D03*
Y138950D03*
X197730Y216650D03*
Y210350D03*
X188630Y203050D03*
Y209350D03*
X187030Y232450D03*
Y238750D03*
X181030Y232450D03*
Y238750D03*
X187030Y243450D03*
X181030D03*
X187030Y249750D03*
X181030D03*
X207800Y92950D03*
Y86650D03*
X201030Y125550D03*
Y119250D03*
X207530Y224550D03*
Y230850D03*
X201530Y224550D03*
Y230850D03*
X240800Y53250D03*
Y46950D03*
X246800D03*
Y53250D03*
X233830Y153150D03*
Y159450D03*
X227730Y153150D03*
Y159450D03*
X241630Y168150D03*
X247630D03*
X241630Y174450D03*
X247630D03*
X253630Y168150D03*
X259630D03*
X253630Y174450D03*
X259630D03*
X294030Y101650D03*
Y107950D03*
X288030Y101650D03*
Y107950D03*
X286830Y238750D03*
Y245050D03*
G54D30*
X221100Y83070D03*
Y104330D03*
X236100Y83070D03*
X231100D03*
X226100D03*
Y104330D03*
X231100D03*
X236100D03*
G54D32*
X207020Y128400D03*
X216075D03*
X225130D03*
G54D22*
X71230Y218200D03*
Y210200D03*
G54D23*
X81243Y203200D03*
Y208200D03*
Y213200D03*
Y218200D03*
X102503D03*
Y213200D03*
Y208200D03*
Y203200D03*
X204400Y201600D03*
Y206600D03*
Y211600D03*
Y216600D03*
X225660D03*
Y211600D03*
Y206600D03*
Y201600D03*
G54D33*
X206530Y169800D03*
X214530D03*
G54D24*
X99957Y237000D03*
X118303D03*
G54D34*
X216075Y153203D03*
G54D25*
X118330Y218771D03*
Y202629D03*
G54D37*
X298194Y32383D03*
Y67816D03*
G54D26*
X145230Y205100D03*
Y219700D03*
X268300Y42800D03*
Y57400D03*
M02*
