G04 CAM350/DFMSTREAM V12.1 (Build 1022) Date:  Fri Aug 29 15:05:26 2025 *
G04 Database: (Untitled) *
G04 Layer 6: SILK_SCREEN_TOP.art *
%FSLAX25Y25*%
%MOIN*%
%SFA1.000B1.000*%

%MIA0B0*%
%IPPOS*%
%ADD70C,0.00400*%
%ADD40C,0.00800*%
%ADD41C,0.01000*%
%ADD64C,0.00600*%
%ADD65C,0.00700*%
%ADD66C,0.00591*%
%ADD67C,0.00787*%
%ADD68C,0.00591*%
%ADD69C,0.00984*%
%ADD74C,0.00787*%
%ADD77C,0.01969*%
%ADD79C,0.00300*%
%ADD80C,0.00500*%
%LNSILK_SCREEN_TOP.art*%
%LPD*%
G36*
X288966Y211000D02*
G75*
G02X289844Y211848I849J-1D01*
X290664Y211000I-29J-849*
X289786Y210151I-849J0*
X288966Y211000I29J849*
G37*
G36*
X148040Y154700D02*
G01Y161700D01*
X151540Y158200*
X148040Y154700*
G37*
G36*
X107670D02*
G01Y161700D01*
X111170Y158200*
X107670Y154700*
G37*
G36*
X67300D02*
G01Y161700D01*
X70800Y158200*
X67300Y154700*
G37*
G36*
X26930D02*
G01Y161700D01*
X30430Y158200*
X26930Y154700*
G37*
G36*
X45130Y189900D02*
G01X48630Y193900D01*
X52130Y189900*
X45130*
G37*
G36*
X30930Y244800D02*
G01Y252300D01*
X38430*
X30930Y244800*
G37*
G36*
X221356Y5694D02*
G01Y9238D01*
X225686*
G03X225687Y9239I0J1*
G01Y13961*
G03X225686Y13962I-1J0*
G01X221356*
Y17506*
G02X223324Y19474I1968J0*
G01X224505*
Y15144*
G03X224506Y15143I1J0*
G01X233953*
G03X233954Y15144I0J1*
G01Y19474*
X235135*
G02X237104Y17506I0J-1969*
G01Y13962*
X232774*
G03X232773Y13961I0J-1*
G01Y9239*
G03X232774Y9238I1J0*
G01X237104*
Y5694*
G02X235135Y3726I-1968J0*
G01X233954*
Y8056*
G03X233953Y8057I-1J0*
G01X224506*
G03X224505Y8056I0J-1*
G01Y3726*
X223324*
G02X221356Y5694I0J1968*
G37*
G36*
X337057Y196368D02*
G01Y199428D01*
X342001*
G03X342002Y199429I0J1*
G01Y204155*
G03X342001Y204156I-1J0*
G01X339069*
Y215656*
X341922*
G03X341923Y215657I0J1*
G01Y220466*
G03X341922Y220467I-1J0*
G01X337057*
Y223624*
X338156Y224723*
X341160*
Y221377*
G03X341161Y221376I1J0*
G01X348057*
Y198538*
X341157*
G03X341156Y198537I0J-1*
G01Y194936*
X338490*
X337057Y196368*
G37*
G36*
Y30387D02*
G01Y33446D01*
X342001*
G03X342002Y33447I0J1*
G01Y38174*
G03X342001Y38175I-1J0*
G01X339069*
Y49675*
X341922*
G03X341923Y49676I0J1*
G01Y54485*
G03X341922Y54486I-1J0*
G01X337057*
Y57643*
X338156Y58742*
X341160*
Y55396*
G03X341161Y55395I1J0*
G01X348057*
Y32557*
X341157*
G03X341156Y32556I0J-1*
G01Y28954*
X338490*
X337057Y30387*
G37*
G36*
X276750Y167522D02*
G01Y174081D01*
X284682*
G03X284683Y174082I0J1*
G01Y181863*
G03X284682Y181864I-1J0*
G01X276750*
Y188388*
X294266*
X297616Y185038*
Y181872*
X289680*
G03X289679Y181871I0J-1*
G01Y174086*
G03X289680Y174085I1J0*
G01X297616*
Y170868*
X294270Y167522*
X276750*
G37*
G36*
X102883Y183320D02*
G01Y208159D01*
X115280*
Y196987*
G03X115281Y196986I1J0*
G01X122504*
G03X122505Y196987I0J1*
G01Y208195*
X135343*
Y183328*
X127131Y175116*
X122505*
Y186186*
G03X122504Y186187I-1J0*
G01X115281*
G03X115280Y186186I0J-1*
G01Y175124*
X115268Y175112*
X111091*
X102883Y183320*
G37*
G36*
X68950D02*
G01Y208159D01*
X81347*
Y196987*
G03X81348Y196986I1J0*
G01X88571*
G03X88572Y196987I0J1*
G01Y208195*
X101410*
Y183328*
X93198Y175116*
X88572*
Y186186*
G03X88571Y186187I-1J0*
G01X81348*
G03X81347Y186186I0J-1*
G01Y175124*
X81335Y175112*
X77158*
X68950Y183320*
G37*
G36*
X238934Y26015D02*
G01Y73259D01*
X301926*
Y18141*
X246808*
Y22078*
X242871Y26015*
X238934*
G37*
G36*
X30944Y1100D02*
G01Y35100D01*
X45030*
Y28601*
G03X45031Y28600I1J0*
G01X54829*
G03X54830Y28601I0J1*
G01Y35100*
X84830*
Y28601*
G03X84831Y28600I1J0*
G01X95929*
G03X95930Y28601I0J1*
G01Y35100*
X128130*
Y28601*
G03X128131Y28600I1J0*
G01X138329*
G03X138330Y28601I0J1*
G01Y35100*
X168630*
Y28601*
G03X168631Y28600I1J0*
G01X178829*
G03X178830Y28601I0J1*
G01Y35100*
X219930*
Y1100*
X30944*
G37*
G36*
X58830Y252300D02*
G01X66329D01*
G03X66330Y252301I0J1*
G01Y252900*
X238330*
Y240601*
G03X238331Y240600I1J0*
G01X265129*
G03X265130Y240601I0J1*
G01Y252900*
X324331*
Y238700*
X308630*
Y250499*
G03X308629Y250500I-1J0*
G01X268131*
G03X268130Y250499I0J-1*
G01Y221000*
X263730*
Y229199*
G03X263729Y229200I-1J0*
G01X238331*
G03X238330Y229199I0J-1*
G01Y218316*
X150630*
Y239099*
G03X150629Y239100I-1J0*
G01X139431*
G03X139430Y239099I0J-1*
G01Y231400*
X119031*
G03X119030Y231399I0J-1*
G01Y218316*
X66330*
Y244800*
X58830Y252300*
G37*
%LPC*%
G36*
X104730Y18300D02*
G01Y25400D01*
X75830*
Y18300*
X104730*
G37*
G36*
X148430Y18400D02*
G01Y25400D01*
X119330*
Y18400*
X148430*
G37*
G36*
X187630Y18300D02*
G01Y25300D01*
X159330*
Y18300*
X187630*
G37*
G36*
X64130D02*
G01Y25400D01*
X36130*
Y18300*
X64130*
G37*
G36*
X223630Y225800D02*
G01Y234800D01*
X155330*
Y225800*
X223630*
G37*
%LPD*%
G54D79*
X148699Y229450D02*
G03X148699Y229450I-2236D01*
G54D74*
X14921Y10000D02*
G03X14921Y10000I-4921D01*
Y243920D02*
G03X14921Y243920I-4921D01*
X80958Y208135D02*
G01X68950D01*
Y183328*
X77166Y175112*
X80958*
X89402Y208135D02*
G01X101410D01*
Y183328*
X93194Y175112*
X89402*
X114890Y208135D02*
G01X102883D01*
Y183328*
X111099Y175112*
X114890*
X123335Y208135D02*
G01X135343D01*
Y183328*
X127127Y175112*
X123335*
X318332Y35430D02*
G01X320694D01*
Y64170*
X318332*
X306128Y35430D02*
G01X303765D01*
Y64170*
X306128*
X308965Y166330D02*
G03X308965Y166330I-394D01*
X305324Y220900D02*
G03X305324Y220900I-394D01*
X349252Y10000D02*
G03X349252Y10000I-4921D01*
X337073Y49529D02*
G01Y38568D01*
X335435Y39584D02*
G01X335880Y40029D01*
X335014Y41009D02*
G01X334459Y40454D01*
Y40454D02*
G01Y40135D01*
X335459Y41009D02*
G01X335014D01*
X336124Y40344D02*
G01X335459Y41009D01*
X335309Y40470D02*
G01X335049Y40730D01*
X335309Y39285D02*
G01Y40470D01*
X334459Y40135D02*
G01X335309Y39285D01*
X335880Y40029D02*
G01X336124D01*
Y40029D02*
G01Y40344D01*
X335435Y48474D02*
G01X335975Y47935D01*
X336927Y44954D02*
G01X337668D01*
X338408Y44214D02*
G01X337888D01*
X335549Y47974D02*
G01X335160Y47584D01*
X335549Y48549D02*
G01Y47974D01*
X335049Y48549D02*
G01X335549D01*
X334475Y47974D02*
G01X335049Y48549D01*
X335309Y47139D02*
G01X334475Y47974D01*
X335975Y47935D02*
G01X336104D01*
Y47785D02*
G01X335459Y47139D01*
Y47139D02*
G01X335309D01*
X336104Y47935D02*
G01Y47785D01*
X336931Y45222D02*
G01X336927D01*
X337817Y44068D02*
G01X336931Y44954D01*
X336778Y43104D02*
G01X337742Y44068D01*
Y44068D02*
G01X337817D01*
X337668Y44954D02*
G01X338408Y44214D01*
Y43769D02*
G01X337742Y43104D01*
Y43104D02*
G01X336778D01*
X338408Y44214D02*
G01Y43769D01*
X337888Y44214D02*
G01X337742Y44068D01*
X335435Y214455D02*
G01X335975Y213916D01*
X337073Y215510D02*
G01Y204550D01*
X336927Y210936D02*
G01X337668D01*
X338408Y210195D02*
G01X337888D01*
X335435Y205565D02*
G01X335880Y206010D01*
X335549Y213955D02*
G01X335160Y213565D01*
X335549Y214530D02*
G01Y213955D01*
X335049Y214530D02*
G01X335549D01*
X334475Y213955D02*
G01X335049Y214530D01*
X335309Y213120D02*
G01X334475Y213955D01*
X335975Y213916D02*
G01X336104D01*
Y213766D02*
G01X335459Y213120D01*
Y213120D02*
G01X335309D01*
X336104Y213916D02*
G01Y213766D01*
X336931Y211203D02*
G01X336927D01*
X337817Y210050D02*
G01X336931Y210936D01*
X336778Y209085D02*
G01X337742Y210050D01*
Y210050D02*
G01X337817D01*
X337668Y210936D02*
G01X338408Y210195D01*
Y209750D02*
G01X337742Y209085D01*
Y209085D02*
G01X336778D01*
X338408Y210195D02*
G01Y209750D01*
X337888Y210195D02*
G01X337742Y210050D01*
X335014Y206991D02*
G01X334459Y206436D01*
Y206436D02*
G01Y206117D01*
X335459Y206991D02*
G01X335014D01*
X336124Y206325D02*
G01X335459Y206991D01*
X335309Y206451D02*
G01X335049Y206711D01*
X335309Y205266D02*
G01Y206451D01*
X334459Y206117D02*
G01X335309Y205266D01*
X335880Y206010D02*
G01X336124D01*
Y206010D02*
G01Y206325D01*
X349252Y243920D02*
G03X349252Y243920I-4921D01*
X351416Y49502D02*
G01Y38541D01*
X349801Y40982D02*
G01X349356D01*
X350467Y40317D02*
G01X349801Y40982D01*
X349356D02*
G01X348801Y40427D01*
X349652Y40442D02*
G01X349392Y40702D01*
X349778Y39557D02*
G01X350223Y40002D01*
Y40002D02*
G01X350467D01*
X348801Y40108D02*
G01X349652Y39257D01*
Y39257D02*
G01Y40442D01*
X348801Y40427D02*
G01Y40108D01*
X350467Y40002D02*
G01Y40317D01*
X349892Y47946D02*
G01X349502Y47557D01*
X349892Y48521D02*
G01Y47946D01*
X349392Y48521D02*
G01X349892D01*
X349778Y48446D02*
G01X350317Y47907D01*
X350447Y47757D02*
G01X349801Y47112D01*
X350317Y47907D02*
G01X350447D01*
X348817Y47946D02*
G01X349392Y48521D01*
X349652Y47112D02*
G01X348817Y47946D01*
X350447Y47907D02*
G01Y47757D01*
X349801Y47112D02*
G01X349652D01*
X351274Y45194D02*
G01X351270D01*
X352085Y43076D02*
G01X351120D01*
X352750Y44186D02*
G01X352230D01*
Y44186D02*
G01X352085Y44041D01*
X352750Y43742D02*
G01X352085Y43076D01*
Y44041D02*
G01X352160D01*
X351120Y43076D02*
G01X352085Y44041D01*
X352010Y44927D02*
G01X352750Y44186D01*
X351270Y44927D02*
G01X352010D01*
X352160Y44041D02*
G01X351274Y44927D01*
X352750Y44186D02*
G01Y43742D01*
X349892Y213928D02*
G01X349502Y213538D01*
X349892Y214502D02*
G01Y213928D01*
X349392Y214502D02*
G01X349892D01*
X349778Y214428D02*
G01X350317Y213888D01*
X350447Y213739D02*
G01X349801Y213093D01*
X350317Y213888D02*
G01X350447D01*
X348817Y213928D02*
G01X349392Y214502D01*
X349652Y213093D02*
G01X348817Y213928D01*
X350447Y213888D02*
G01Y213739D01*
X351416Y215483D02*
G01Y204522D01*
X349801Y213093D02*
G01X349652D01*
X351274Y211176D02*
G01X351270D01*
X352085Y209057D02*
G01X351120D01*
X352750Y210168D02*
G01X352230D01*
Y210168D02*
G01X352085Y210022D01*
X352750Y209723D02*
G01X352085Y209057D01*
Y210022D02*
G01X352160D01*
X351120Y209057D02*
G01X352085Y210022D01*
X352010Y210908D02*
G01X352750Y210168D01*
X351270Y210908D02*
G01X352010D01*
X352160Y210022D02*
G01X351274Y210908D01*
X352750Y210168D02*
G01Y209723D01*
X349801Y206963D02*
G01X349356D01*
X350467Y206298D02*
G01X349801Y206963D01*
X349356D02*
G01X348801Y206408D01*
X349652Y206424D02*
G01X349392Y206684D01*
X349778Y205538D02*
G01X350223Y205983D01*
Y205983D02*
G01X350467D01*
X348801Y206089D02*
G01X349652Y205239D01*
Y205239D02*
G01Y206424D01*
X348801Y206408D02*
G01Y206089D01*
X350467Y205983D02*
G01Y206298D01*
G54D70*
X228291Y41750D02*
G01X221066D01*
X221148D02*
G01X221066D01*
X219580Y43236*
Y45000*
X220980Y46400*
X219605Y47775*
X219580*
Y50300*
X220980Y51700*
X219601Y53079*
X219580*
Y55300*
X220980Y56700*
X219591Y58089*
X219580*
Y60503*
X220927Y61850*
X228430*
X216191Y41750D02*
G01X208966D01*
X216191D02*
G01X217677Y43236D01*
X216109Y41750D02*
G01X216191D01*
X209048D02*
G01X208966D01*
X207480Y43236*
Y45000*
X208880Y46400*
X207505Y47775*
X207480*
Y50300*
X208880Y51700*
X207501Y53079*
X207480*
Y55300*
X208880Y56700*
X207491Y58089*
X207480*
Y60503*
X208827Y61850*
X216330*
X217677Y58089D02*
G01Y60503D01*
X217666Y58089D02*
G01X217677D01*
Y60503D02*
G01X216330Y61850D01*
X216277Y56700D02*
G01X217666Y58089D01*
X217677Y55300D02*
G01X216277Y56700D01*
X217677Y53079D02*
G01Y55300D01*
X217656Y53079D02*
G01X217677D01*
X216277Y51700D02*
G01X217656Y53079D01*
X217677Y50300D02*
G01X216277Y51700D01*
X217677Y47775D02*
G01Y50300D01*
X217652Y47775D02*
G01X217677D01*
Y43236D02*
G01Y45000D01*
X216277Y46400D02*
G01X217652Y47775D01*
X217677Y45000D02*
G01X216277Y46400D01*
X218399Y81918D02*
G01X205801D01*
Y97327*
X218399*
Y81918*
X208163Y84355D02*
G01X205801D01*
X208163Y94591D02*
G01Y84355D01*
X205801Y94591D02*
G01X208163D01*
X228291Y41750D02*
G01X229777Y43236D01*
X228209Y41750D02*
G01X228291D01*
X229777Y58089D02*
G01Y60503D01*
X229766Y58089D02*
G01X229777D01*
Y60503D02*
G01X228430Y61850D01*
X228377Y56700D02*
G01X229766Y58089D01*
X229777Y55300D02*
G01X228377Y56700D01*
X229777Y53079D02*
G01Y55300D01*
X229756Y53079D02*
G01X229777D01*
X228377Y51700D02*
G01X229756Y53079D01*
X229777Y50300D02*
G01X228377Y51700D01*
X229777Y47775D02*
G01Y50300D01*
X229752Y47775D02*
G01X229777D01*
Y43236D02*
G01Y45000D01*
X228377Y46400D02*
G01X229752Y47775D01*
X229777Y45000D02*
G01X228377Y46400D01*
X240680Y176339D02*
G01Y183564D01*
X246705Y174853D02*
G01X249230D01*
X246705Y174878D02*
G01Y174853D01*
X242166D02*
G01X243930D01*
X245330Y176253D02*
G01X246705Y174878D01*
X243930Y174853D02*
G01X245330Y176253D01*
X240680Y176339D02*
G01X242166Y174853D01*
X240680Y176421D02*
G01Y176339D01*
Y183482D02*
G01Y183564D01*
X242166Y185050*
X243930*
X245330Y183650*
X246705Y185025*
Y185050*
X249230*
X250630Y183650*
X252009Y185029*
Y185050*
X254230*
X255630Y183650*
X257019Y185039*
Y185050*
X259433*
X260780Y183703*
X272215Y190800D02*
G01X269615D01*
Y193400*
X260780Y176306D02*
G01X262169Y174916D01*
X260780Y183703D02*
G01X262169Y185092D01*
Y185103D02*
G01X264583D01*
Y185103D02*
G01X265930Y183755D01*
Y183755D02*
G01Y176253D01*
X262169Y174906D02*
G01X264583D01*
Y174906D02*
G01X265930Y176253D01*
X257019Y174853D02*
G01X259433D01*
X257019Y174864D02*
G01Y174853D01*
X259433D02*
G01X260780Y176200D01*
X255630Y176253D02*
G01X257019Y174864D01*
X254230Y174853D02*
G01X255630Y176253D01*
X252009Y174853D02*
G01X254230D01*
X252009Y174874D02*
G01Y174853D01*
X250630Y176253D02*
G01X252009Y174874D01*
X249230Y174853D02*
G01X250630Y176253D01*
X272215Y210400D02*
G01X269615D01*
Y210400D02*
G01Y207800D01*
X289215Y193400D02*
G01Y190800D01*
X286615*
X289215Y207700D02*
G01Y208700D01*
X287515Y210400*
X286515*
G54D41*
X90944Y35100D02*
G01X30944D01*
Y83100*
Y83100D02*
G01X90944D01*
X46601Y173600D02*
G01X62101D01*
X46701Y181600D02*
G01X62201D01*
X110944Y35100D02*
G01X50944D01*
X70944Y40100D02*
G01X90944D01*
X50944Y35100D02*
G01Y40100D01*
X70944*
X50944Y83100D02*
G01X110944D01*
X51901Y173600D02*
G01X55901D01*
Y181600*
X51901*
X90944Y40100D02*
G01Y35100D01*
X110974Y83084D02*
G01Y35084D01*
X173916Y35100D02*
G01X113916D01*
Y83100*
Y83100D02*
G01X173916D01*
X193916Y35100D02*
G01X133916D01*
Y35100D02*
G01Y40100D01*
X153916*
X133916Y83100D02*
G01X193916D01*
X144530Y191700D02*
G01X137530D01*
Y198700*
X144530Y191700D02*
G01X145530D01*
Y198700*
Y200700D02*
G01Y207700D01*
X137530*
Y200700*
X153916Y40100D02*
G01X173916D01*
X210716Y170300D02*
G01X150716D01*
X150686Y170316D02*
G01Y218316D01*
X230716Y170300D02*
G01X170716D01*
Y213300D02*
G01Y218300D01*
X190716Y213300D02*
G01X170716D01*
X150716Y218300D02*
G01X210716D01*
X170716D02*
G01X230716D01*
Y170300*
X193946Y83084D02*
G01Y35084D01*
X173916Y40100D02*
G01Y35100D01*
X210716Y218300D02*
G01Y213300D01*
X190716*
X326930Y208700D02*
G01Y195200D01*
X322930*
Y208700*
X326930*
X299930Y195200D02*
G01Y208700D01*
X303930*
Y195200*
X299930*
X314630Y231700D02*
G01Y216200D01*
X322630Y231600D02*
G01Y216100D01*
X314630Y226400D02*
G01Y222400D01*
X322630*
Y226400*
G54D80*
X237666Y101428D02*
G01Y91527D01*
X240540*
Y162393D02*
G01X237666D01*
Y152492*
X270432Y232173D02*
G01Y238079D01*
X305628Y247921D02*
G01Y253236D01*
X270432*
Y247921*
X311603Y162393D02*
G01X313256D01*
Y91527*
X311603*
X305628Y232173D02*
G01Y238079D01*
G54D77*
X243658Y22570D02*
G03X243658Y22570I-984D01*
G54D64*
X43201Y174000D02*
G01X45401D01*
X44301Y173000D02*
G01Y174900D01*
X63501Y173800D02*
G01X65401D01*
X314830Y214800D02*
G01Y212900D01*
X315030Y235100D02*
G01Y232900D01*
X314030Y234000D02*
G01X315930D01*
G54D65*
X320830Y45000D02*
G01X303730D01*
G54D40*
X11280Y174600D02*
G01X12113D01*
Y173550*
X11863Y173200*
X11572Y172967*
X11155Y172850*
X10738Y172967*
X10447Y173200*
X10197Y173550*
X10030Y173958*
X9947Y174425*
Y174833*
X10030Y175183*
X10197Y175592*
X10447Y175942*
X10696Y176175*
X11030Y176350*
X11322*
X11655Y176233*
X11905Y176000*
X12672Y172850D02*
G01Y176350D01*
X14588Y172850*
Y176350*
X15313Y172850D02*
G01Y176350D01*
X16146*
X16480Y176175*
X16730Y175942*
X16938Y175592*
X17105Y175183*
X17147Y174600*
X17105Y174017*
X16938Y173608*
X16730Y173258*
X16480Y173025*
X16146Y172850*
X15313*
X8074Y189253D02*
G01Y185753D01*
X7116Y189253D02*
G01X9032D01*
X9757Y186278D02*
G01X10007Y185986D01*
X10299Y185811*
X10674Y185753*
X11049Y185870*
X11340Y186103*
X11549Y186511*
X11591Y186978*
X11507Y187445*
X11299Y187736*
X11007Y187970*
X10716Y188028*
X10424Y187970*
X10049Y187736*
X10174Y189253*
X11299*
X17130D02*
G01Y185753D01*
X16172Y189253D02*
G01X18088D01*
X18938Y187211D02*
G01X19230Y187620D01*
X19480Y187853*
X19813Y187970*
X20105Y187853*
X20313Y187620*
X20480Y187270*
X20522Y186861*
X20480Y186511*
X20313Y186161*
X20063Y185870*
X19772Y185753*
X19438Y185870*
X19147Y186220*
X18980Y186745*
X18938Y187328*
X19022Y188086*
X19147Y188495*
X19355Y188903*
X19646Y189195*
X19938Y189253*
X20230Y189136*
X20438Y188845*
X48497Y32808D02*
G01X48246Y32983D01*
X47955Y33100*
X47622*
X47246Y32925*
X46955Y32633*
X46747Y32283*
X46580Y31700*
X46538Y31175*
X46622Y30650*
X46747Y30300*
X46997Y29950*
X47288Y29717*
X47580Y29600*
X47872*
X48163Y29717*
X48413Y29892*
X48622Y30125*
X49305Y29600D02*
G01Y33100D01*
X51055D02*
G01Y29600D01*
Y31350D02*
G01X49305D01*
X52780Y29600D02*
G01Y33100D01*
X52280Y32400*
Y29600D02*
G01X53280D01*
X38480Y20000D02*
G01X38146Y20058D01*
X37855Y20292*
X37605Y20642*
X37438Y21050*
X37355Y21517*
Y21983*
X37438Y22450*
X37605Y22858*
X37855Y23208*
X38146Y23442*
X38480Y23500*
X38813Y23442*
X39105Y23208*
X39355Y22858*
X39522Y22450*
X39605Y21983*
Y21517*
X39522Y21050*
X39355Y20642*
X39105Y20292*
X38813Y20058*
X38480Y20000*
X40163Y23500D02*
G01Y20992D01*
X40330Y20467*
X40663Y20117*
X41080Y20000*
X41497Y20117*
X41830Y20467*
X41997Y20992*
Y23500*
X43680D02*
G01Y20000D01*
X42722Y23500D02*
G01X44638D01*
X25097Y37150D02*
G01X25305Y36800D01*
X25555Y36567*
X25846Y36450*
X26180Y36567*
X26430Y36800*
X26680Y37150*
X26763Y37617*
Y39950*
X27613Y36975D02*
G01X27863Y36683D01*
X28155Y36508*
X28530Y36450*
X28905Y36567*
X29196Y36800*
X29405Y37208*
X29447Y37675*
X29363Y38142*
X29155Y38433*
X28863Y38667*
X28572Y38725*
X28280Y38667*
X27905Y38433*
X28030Y39950*
X29155*
X38930Y84184D02*
G01X70615D01*
Y162924*
X31245*
Y162924D02*
G01Y84184D01*
X32930*
X32347Y164800D02*
G01Y168300D01*
X33388*
X33722Y168125*
X33930Y167892*
X34013Y167425*
X33930Y166958*
X33680Y166667*
X33388Y166492*
X32347*
X33388D02*
G01X34013Y164800D01*
X34863Y165500D02*
G01X35113Y165092D01*
X35446Y164858*
X35822Y164800*
X36155Y164858*
X36488Y165150*
X36697Y165500*
X36738Y165850*
X36655Y166258*
X36363Y166550*
X36072Y166667*
X35696*
X36072D02*
G01X36322Y166842D01*
X36530Y167133*
X36613Y167483*
X36530Y167833*
X36322Y168125*
X35947Y168300*
X35572Y168242*
X35197Y168008*
X37588Y166258D02*
G01X37880Y166667D01*
X38130Y166900*
X38463Y167017*
X38755Y166900*
X38963Y166667*
X39130Y166317*
X39172Y165908*
X39130Y165558*
X38963Y165208*
X38713Y164917*
X38422Y164800*
X38088Y164917*
X37797Y165267*
X37630Y165792*
X37588Y166375*
X37672Y167133*
X37797Y167542*
X38005Y167950*
X38296Y168242*
X38588Y168300*
X38880Y168183*
X39088Y167892*
X30497Y191950D02*
G01X30705Y191600D01*
X30955Y191367*
X31246Y191250*
X31580Y191367*
X31830Y191600*
X32080Y191950*
X32163Y192417*
Y194750*
X33138Y194167D02*
G01X33388Y194517D01*
X33680Y194692*
X34013Y194750*
X34430Y194633*
X34722Y194342*
X34805Y193992*
X34763Y193642*
X34596Y193350*
X33763Y192767*
X33388Y192358*
X33138Y191775*
X33055Y191250*
X34805*
X23013Y208950D02*
G01X23263Y208542D01*
X23596Y208308*
X23972Y208250*
X24305Y208308*
X24638Y208600*
X24847Y208950*
X24888Y209300*
X24805Y209708*
X24513Y210000*
X24222Y210117*
X23846*
X24222D02*
G01X24472Y210292D01*
X24680Y210583*
X24763Y210933*
X24680Y211283*
X24472Y211575*
X24097Y211750*
X23722Y211692*
X23347Y211458*
X30930Y202000D02*
G01Y197800D01*
X39230*
X57930Y197900D02*
G01X66330D01*
Y252300*
X30930*
Y218300*
X58780Y23600D02*
G01X59780D01*
X59280D02*
G01Y20100D01*
X58780D02*
G01X59780D01*
X60922D02*
G01Y23600D01*
X62838Y20100*
Y23600*
X71615Y162924D02*
G01Y84184D01*
X73300*
X72717Y164800D02*
G01Y168300D01*
X73758*
X74092Y168125*
X74300Y167892*
X74383Y167425*
X74300Y166958*
X74050Y166667*
X73758Y166492*
X72717*
X73758D02*
G01X74383Y164800D01*
X76650D02*
G01Y168300D01*
X75108Y165792*
X77192*
X77958Y167717D02*
G01X78208Y168067D01*
X78500Y168242*
X78833Y168300*
X79250Y168183*
X79542Y167892*
X79625Y167542*
X79583Y167192*
X79416Y166900*
X78583Y166317*
X78208Y165908*
X77958Y165325*
X77875Y164800*
X79625*
X79300Y84184D02*
G01X110985D01*
Y162924*
X71615*
X52313Y168150D02*
G01Y171650D01*
X53147*
X53480Y171475*
X53730Y171242*
X53938Y170892*
X54105Y170483*
X54147Y169900*
X54105Y169317*
X53938Y168908*
X53730Y168558*
X53480Y168325*
X53147Y168150*
X52313*
X55830D02*
G01X56122Y168208D01*
X56455Y168383*
X56663Y168675*
X56747Y169083*
X56663Y169492*
X56413Y169842*
X56038Y170017*
X55622*
X55372Y170133*
X55163Y170425*
X55080Y170833*
X55205Y171242*
X55497Y171533*
X55830Y171650*
X56163Y171533*
X56455Y171242*
X56580Y170833*
X56497Y170425*
X56288Y170133*
X56038Y170017*
X55622*
X55247Y169842*
X54997Y169492*
X54913Y169083*
X54997Y168675*
X55205Y168383*
X55538Y168208*
X55830Y168150*
X53401Y179900D02*
G01X55801Y177500D01*
X53301Y175000*
Y179900*
X50701Y177500D02*
G01X58101D01*
X71794Y213008D02*
G01X71544Y213183D01*
X71252Y213300*
X70919*
X70544Y213125*
X70252Y212833*
X70044Y212483*
X69877Y211900*
X69835Y211375*
X69919Y210850*
X70044Y210500*
X70294Y210150*
X70586Y209917*
X70877Y209800*
X71169*
X71460Y209917*
X71710Y210092*
X71919Y210325*
X72560Y210500D02*
G01X72810Y210092D01*
X73144Y209858*
X73519Y209800*
X73852Y209858*
X74186Y210150*
X74394Y210500*
X74435Y210850*
X74352Y211258*
X74060Y211550*
X73769Y211667*
X73394*
X73769D02*
G01X74019Y211842D01*
X74227Y212133*
X74310Y212483*
X74227Y212833*
X74019Y213125*
X73644Y213300*
X73269Y213242*
X72894Y213008*
X76077Y209800D02*
G01Y213300D01*
X75577Y212600*
Y209800D02*
G01X76577D01*
X88597Y32808D02*
G01X88346Y32983D01*
X88055Y33100*
X87722*
X87346Y32925*
X87055Y32633*
X86847Y32283*
X86680Y31700*
X86638Y31175*
X86722Y30650*
X86847Y30300*
X87097Y29950*
X87388Y29717*
X87680Y29600*
X87972*
X88263Y29717*
X88513Y29892*
X88722Y30125*
X89405Y29600D02*
G01Y33100D01*
X91155D02*
G01Y29600D01*
Y31350D02*
G01X89405D01*
X92088Y32517D02*
G01X92338Y32867D01*
X92630Y33042*
X92963Y33100*
X93380Y32983*
X93672Y32692*
X93755Y32342*
X93713Y31992*
X93547Y31700*
X92713Y31117*
X92338Y30708*
X92088Y30125*
X92005Y29600*
X93755*
X78480Y20000D02*
G01X78147Y20058D01*
X77855Y20292*
X77605Y20642*
X77438Y21050*
X77355Y21517*
Y21983*
X77438Y22450*
X77605Y22858*
X77855Y23208*
X78147Y23442*
X78480Y23500*
X78813Y23442*
X79105Y23208*
X79355Y22858*
X79522Y22450*
X79605Y21983*
Y21517*
X79522Y21050*
X79355Y20642*
X79105Y20292*
X78813Y20058*
X78480Y20000*
X80163Y23500D02*
G01Y20992D01*
X80330Y20467*
X80663Y20117*
X81080Y20000*
X81497Y20117*
X81830Y20467*
X81997Y20992*
Y23500*
X83680D02*
G01Y20000D01*
X82722Y23500D02*
G01X84638D01*
X98780Y23600D02*
G01X99780D01*
X99280D02*
G01Y20100D01*
X98780D02*
G01X99780D01*
X100922D02*
G01Y23600D01*
X102838Y20100*
Y23600*
X121980Y20200D02*
G01X121646Y20258D01*
X121355Y20492*
X121105Y20842*
X120938Y21250*
X120855Y21717*
Y22183*
X120938Y22650*
X121105Y23058*
X121355Y23408*
X121646Y23642*
X121980Y23700*
X122313Y23642*
X122605Y23408*
X122855Y23058*
X123022Y22650*
X123105Y22183*
Y21717*
X123022Y21250*
X122855Y20842*
X122605Y20492*
X122313Y20258*
X121980Y20200*
X123663Y23700D02*
G01Y21192D01*
X123830Y20667*
X124163Y20317*
X124580Y20200*
X124997Y20317*
X125330Y20667*
X125497Y21192*
Y23700*
X127180D02*
G01Y20200D01*
X126222Y23700D02*
G01X128138D01*
X119670Y84184D02*
G01X151355D01*
Y162924*
X111985*
Y162924D02*
G01Y84184D01*
X113670*
X113087Y164800D02*
G01Y168300D01*
X114128*
X114462Y168125*
X114670Y167892*
X114753Y167425*
X114670Y166958*
X114420Y166667*
X114128Y166492*
X113087*
X114128D02*
G01X114753Y164800D01*
X115603Y165500D02*
G01X115853Y165092D01*
X116186Y164858*
X116562Y164800*
X116895Y164858*
X117228Y165150*
X117437Y165500*
X117478Y165850*
X117395Y166258*
X117103Y166550*
X116812Y166667*
X116437*
X116812D02*
G01X117062Y166842D01*
X117270Y167133*
X117353Y167483*
X117270Y167833*
X117062Y168125*
X116687Y168300*
X116312Y168242*
X115937Y168008*
X118412Y165208D02*
G01X118703Y164917D01*
X119037Y164800*
X119370Y164917*
X119662Y165267*
X119870Y165792*
X119953Y166317*
Y166958*
X119870Y167483*
X119662Y167950*
X119412Y168183*
X119120Y168300*
X118786Y168183*
X118537Y167950*
X118370Y167600*
X118287Y167133*
X118370Y166725*
X118578Y166317*
X118828Y166083*
X119120Y166025*
X119453Y166142*
X119703Y166433*
X119953Y166958*
X105727Y213008D02*
G01X105477Y213183D01*
X105185Y213300*
X104852*
X104477Y213125*
X104185Y212833*
X103977Y212483*
X103810Y211900*
X103768Y211375*
X103852Y210850*
X103977Y210500*
X104227Y210150*
X104518Y209917*
X104810Y209800*
X105102*
X105393Y209917*
X105643Y210092*
X105852Y210325*
X107410Y209800D02*
G01Y213300D01*
X106910Y212600*
Y209800D02*
G01X107910D01*
X109927D02*
G01X110010Y210558D01*
X110135Y211200*
X110302Y211783*
X110510Y212425*
X110843Y213300*
X109177*
X122947Y217958D02*
G01X122696Y218133D01*
X122405Y218250*
X122072*
X121696Y218075*
X121405Y217783*
X121197Y217433*
X121030Y216850*
X120988Y216325*
X121072Y215800*
X121197Y215450*
X121447Y215100*
X121738Y214867*
X122030Y214750*
X122322*
X122613Y214867*
X122863Y215042*
X123072Y215275*
X124630Y214750D02*
G01Y218250D01*
X124130Y217550*
Y214750D02*
G01X125130D01*
X126522Y215158D02*
G01X126813Y214867D01*
X127146Y214750*
X127480Y214867*
X127772Y215217*
X127980Y215742*
X128063Y216267*
Y216908*
X127980Y217433*
X127772Y217900*
X127522Y218133*
X127230Y218250*
X126896Y218133*
X126647Y217900*
X126480Y217550*
X126397Y217083*
X126480Y216675*
X126688Y216267*
X126938Y216033*
X127230Y215975*
X127563Y216092*
X127813Y216383*
X128063Y216908*
X131397Y32908D02*
G01X131146Y33083D01*
X130855Y33200*
X130522*
X130146Y33025*
X129855Y32733*
X129647Y32383*
X129480Y31800*
X129438Y31275*
X129522Y30750*
X129647Y30400*
X129897Y30050*
X130188Y29817*
X130480Y29700*
X130772*
X131063Y29817*
X131313Y29992*
X131522Y30225*
X132205Y29700D02*
G01Y33200D01*
X133955D02*
G01Y29700D01*
Y31450D02*
G01X132205D01*
X134763Y30400D02*
G01X135013Y29992D01*
X135346Y29758*
X135722Y29700*
X136055Y29758*
X136388Y30050*
X136597Y30400*
X136638Y30750*
X136555Y31158*
X136263Y31450*
X135972Y31567*
X135596*
X135972D02*
G01X136222Y31742D01*
X136430Y32033*
X136513Y32383*
X136430Y32733*
X136222Y33025*
X135847Y33200*
X135472Y33142*
X135097Y32908*
X142280Y23800D02*
G01X143280D01*
X142780D02*
G01Y20300D01*
X142280D02*
G01X143280D01*
X144422D02*
G01Y23800D01*
X146338Y20300*
Y23800*
X139647Y171858D02*
G01X139396Y172033D01*
X139105Y172150*
X138772*
X138396Y171975*
X138105Y171683*
X137897Y171333*
X137730Y170750*
X137688Y170225*
X137772Y169700*
X137897Y169350*
X138147Y169000*
X138438Y168767*
X138730Y168650*
X139022*
X139313Y168767*
X139563Y168942*
X139772Y169175*
X141330Y168650D02*
G01Y172150D01*
X140830Y171450*
Y168650D02*
G01X141830D01*
X143930D02*
G01X144222Y168708D01*
X144555Y168883*
X144763Y169175*
X144847Y169583*
X144763Y169992*
X144513Y170342*
X144138Y170517*
X143722*
X143472Y170633*
X143263Y170925*
X143180Y171333*
X143305Y171742*
X143596Y172033*
X143930Y172150*
X144263Y172033*
X144555Y171742*
X144680Y171333*
X144596Y170925*
X144388Y170633*
X144138Y170517*
X143722*
X143347Y170342*
X143097Y169992*
X143013Y169583*
X143097Y169175*
X143305Y168883*
X143638Y168708*
X143930Y168650*
X138530Y189700D02*
G01X145530D01*
Y182700*
X138530Y189700D02*
G01X137530D01*
Y182700*
Y180700D02*
G01Y173700D01*
X145530*
Y180700*
Y216700D02*
G01Y209700D01*
X138530*
X145530Y216700D02*
G01Y217700D01*
X138530*
X136530D02*
G01X129530D01*
Y209700*
X136530*
X149980Y200833D02*
G01X146480D01*
Y199167*
X149397Y198192D02*
G01X149746Y197942D01*
X149922Y197650*
X149980Y197317*
X149863Y196900*
X149572Y196608*
X149222Y196525*
X148872Y196567*
X148580Y196733*
X147997Y197567*
X147588Y197942*
X147005Y198192*
X146480Y198275*
Y196525*
X141772Y234017D02*
G01X142772D01*
X142230Y234775D02*
G01Y233258D01*
X143913Y233375D02*
G01X144163Y233083D01*
X144455Y232908*
X144830Y232850*
X145205Y232967*
X145496Y233200*
X145705Y233608*
X145747Y234075*
X145663Y234542*
X145455Y234833*
X145163Y235067*
X144872Y235125*
X144580Y235067*
X144205Y234833*
X144330Y236350*
X145455*
X146388D02*
G01X147430Y232850D01*
X148472Y236350*
X126347Y222808D02*
G01X126096Y222983D01*
X125805Y223100*
X125472*
X125096Y222925*
X124805Y222633*
X124597Y222283*
X124430Y221700*
X124388Y221175*
X124472Y220650*
X124597Y220300*
X124847Y219950*
X125138Y219717*
X125430Y219600*
X125722*
X126013Y219717*
X126263Y219892*
X126472Y220125*
X127238Y222517D02*
G01X127488Y222867D01*
X127780Y223042*
X128113Y223100*
X128530Y222983*
X128822Y222692*
X128905Y222342*
X128863Y221992*
X128696Y221700*
X127863Y221117*
X127488Y220708*
X127238Y220125*
X127155Y219600*
X128905*
X130630Y223100D02*
G01X130296Y222983D01*
X130047Y222692*
X129880Y222342*
X129755Y221875*
X129713Y221350*
X129755Y220825*
X129880Y220358*
X130047Y220008*
X130296Y219717*
X130630Y219600*
X130963Y219717*
X131213Y220008*
X131380Y220358*
X131505Y220825*
X131547Y221350*
X131505Y221875*
X131380Y222342*
X131213Y222692*
X130963Y222983*
X130630Y223100*
X126347Y228808D02*
G01X126096Y228983D01*
X125805Y229100*
X125472*
X125096Y228925*
X124805Y228633*
X124597Y228283*
X124430Y227700*
X124388Y227175*
X124472Y226650*
X124597Y226300*
X124847Y225950*
X125138Y225717*
X125430Y225600*
X125722*
X126013Y225717*
X126263Y225892*
X126472Y226125*
X127238Y228517D02*
G01X127488Y228867D01*
X127780Y229042*
X128113Y229100*
X128530Y228983*
X128822Y228692*
X128905Y228342*
X128863Y227992*
X128696Y227700*
X127863Y227117*
X127488Y226708*
X127238Y226125*
X127155Y225600*
X128905*
X130630D02*
G01Y229100D01*
X130130Y228400*
Y225600D02*
G01X131130D01*
X171997Y32708D02*
G01X171746Y32883D01*
X171455Y33000*
X171122*
X170746Y32825*
X170455Y32533*
X170247Y32183*
X170080Y31600*
X170038Y31075*
X170122Y30550*
X170247Y30200*
X170497Y29850*
X170788Y29617*
X171080Y29500*
X171372*
X171663Y29617*
X171913Y29792*
X172122Y30025*
X172805Y29500D02*
G01Y33000D01*
X174555D02*
G01Y29500D01*
Y31250D02*
G01X172805D01*
X176780Y29500D02*
G01Y33000D01*
X175238Y30492*
X177322*
X161580Y20100D02*
G01X161246Y20158D01*
X160955Y20392*
X160705Y20742*
X160538Y21150*
X160455Y21617*
Y22083*
X160538Y22550*
X160705Y22958*
X160955Y23308*
X161246Y23542*
X161580Y23600*
X161913Y23542*
X162205Y23308*
X162455Y22958*
X162622Y22550*
X162705Y22083*
Y21617*
X162622Y21150*
X162455Y20742*
X162205Y20392*
X161913Y20158*
X161580Y20100*
X163263Y23600D02*
G01Y21092D01*
X163430Y20567*
X163763Y20217*
X164180Y20100*
X164597Y20217*
X164930Y20567*
X165097Y21092*
Y23600*
X166780D02*
G01Y20100D01*
X165822Y23600D02*
G01X167738D01*
X160040Y84184D02*
G01X191725D01*
Y162924*
X152355*
Y162924D02*
G01Y84184D01*
X154040*
X153457Y164800D02*
G01Y168300D01*
X154498*
X154832Y168125*
X155040Y167892*
X155123Y167425*
X155040Y166958*
X154790Y166667*
X154498Y166492*
X153457*
X154498D02*
G01X155123Y164800D01*
X157390D02*
G01Y168300D01*
X155848Y165792*
X157932*
X158573Y165325D02*
G01X158823Y165033D01*
X159115Y164858*
X159490Y164800*
X159865Y164917*
X160156Y165150*
X160365Y165558*
X160407Y166025*
X160323Y166492*
X160115Y166783*
X159823Y167017*
X159532Y167075*
X159240Y167017*
X158865Y166783*
X158990Y168300*
X160115*
X163838Y231333D02*
G01X162838D01*
X163380Y230575D02*
G01Y232092D01*
X161697Y231975D02*
G01X161447Y232267D01*
X161155Y232442*
X160780Y232500*
X160405Y232383*
X160113Y232150*
X159905Y231742*
X159863Y231275*
X159947Y230808*
X160155Y230517*
X160447Y230283*
X160738Y230225*
X161030Y230283*
X161405Y230517*
X161280Y229000*
X160155*
X159222D02*
G01X158180Y232500D01*
X157138Y229000*
X181880Y23700D02*
G01X182880D01*
X182380D02*
G01Y20200D01*
X181880D02*
G01X182880D01*
X184022D02*
G01Y23700D01*
X185938Y20200*
Y23700*
X195297Y36650D02*
G01X195505Y36300D01*
X195755Y36067*
X196046Y35950*
X196380Y36067*
X196630Y36300*
X196880Y36650*
X196963Y37117*
Y39450*
X198646Y35950D02*
G01X198730Y36708D01*
X198855Y37350*
X199022Y37933*
X199230Y38575*
X199563Y39450*
X197897*
X197217Y53400D02*
G01Y56900D01*
X198258*
X198592Y56725*
X198800Y56492*
X198883Y56025*
X198800Y55558*
X198550Y55267*
X198258Y55092*
X197217*
X198258D02*
G01X198883Y53400D01*
X199858Y56317D02*
G01X200108Y56667D01*
X200400Y56842*
X200733Y56900*
X201150Y56783*
X201442Y56492*
X201525Y56142*
X201483Y55792*
X201317Y55500*
X200483Y54917*
X200108Y54508*
X199858Y53925*
X199775Y53400*
X201525*
X202542Y53808D02*
G01X202833Y53517D01*
X203167Y53400*
X203500Y53517*
X203792Y53867*
X204000Y54392*
X204083Y54917*
Y55558*
X204000Y56083*
X203792Y56550*
X203542Y56783*
X203250Y56900*
X202917Y56783*
X202667Y56550*
X202500Y56200*
X202417Y55733*
X202500Y55325*
X202708Y54917*
X202958Y54683*
X203250Y54625*
X203583Y54742*
X203833Y55033*
X204083Y55558*
X197167Y58150D02*
G01Y61650D01*
X198208*
X198542Y61475*
X198750Y61242*
X198833Y60775*
X198750Y60308*
X198500Y60017*
X198208Y59842*
X197167*
X198208D02*
G01X198833Y58150D01*
X199683Y58850D02*
G01X199933Y58442D01*
X200267Y58208*
X200642Y58150*
X200975Y58208*
X201308Y58500*
X201517Y58850*
X201558Y59200*
X201475Y59608*
X201183Y59900*
X200892Y60017*
X200517*
X200892D02*
G01X201142Y60192D01*
X201350Y60483*
X201433Y60833*
X201350Y61183*
X201142Y61475*
X200767Y61650*
X200392Y61592*
X200017Y61358*
X203200Y61650D02*
G01X202867Y61533D01*
X202617Y61242*
X202450Y60892*
X202325Y60425*
X202283Y59900*
X202325Y59375*
X202450Y58908*
X202617Y58558*
X202867Y58267*
X203200Y58150*
X203533Y58267*
X203783Y58558*
X203950Y58908*
X204075Y59375*
X204117Y59900*
X204075Y60425*
X203950Y60892*
X203783Y61242*
X203533Y61533*
X203200Y61650*
X183130Y230650D02*
G01X182296D01*
Y231700*
X182547Y232050*
X182838Y232283*
X183255Y232400*
X183672Y232283*
X183963Y232050*
X184213Y231700*
X184380Y231292*
X184463Y230825*
Y230417*
X184380Y230067*
X184213Y229658*
X183963Y229308*
X183713Y229075*
X183380Y228900*
X183088*
X182755Y229017*
X182505Y229250*
X181738Y232400D02*
G01Y228900D01*
X179822Y232400*
Y228900*
X179097Y232400D02*
G01Y228900D01*
X178263*
X177930Y229075*
X177680Y229308*
X177472Y229658*
X177305Y230067*
X177263Y230650*
X177305Y231233*
X177472Y231642*
X177680Y231992*
X177930Y232225*
X178263Y232400*
X179097*
X221813Y25450D02*
G01Y22942D01*
X221980Y22417*
X222313Y22067*
X222730Y21950*
X223147Y22067*
X223480Y22417*
X223647Y22942*
Y25450*
X224413Y22475D02*
G01X224663Y22183D01*
X224955Y22008*
X225330Y21950*
X225705Y22067*
X225997Y22300*
X226205Y22708*
X226247Y23175*
X226163Y23642*
X225955Y23933*
X225663Y24167*
X225372Y24225*
X225080Y24167*
X224705Y23933*
X224830Y25450*
X225955*
X222798Y36985D02*
G01X223006Y36635D01*
X223256Y36402*
X223548Y36285*
X223881Y36402*
X224131Y36635*
X224381Y36985*
X224465Y37452*
Y39785*
X225315Y36985D02*
G01X225565Y36577D01*
X225898Y36344*
X226273Y36285*
X226606Y36344*
X226940Y36635*
X227148Y36985*
X227190Y37335*
X227106Y37743*
X226815Y38035*
X226523Y38152*
X226148*
X226523D02*
G01X226773Y38327D01*
X226981Y38618*
X227065Y38968*
X226981Y39318*
X226773Y39610*
X226398Y39785*
X226023Y39727*
X225648Y39494*
X210698Y36985D02*
G01X210906Y36635D01*
X211156Y36402*
X211448Y36285*
X211781Y36402*
X212031Y36635*
X212281Y36985*
X212365Y37452*
Y39785*
X214631Y36285D02*
G01Y39785D01*
X213090Y37277*
X215173*
X219767Y82750D02*
G01X219975Y82400D01*
X220225Y82167*
X220517Y82050*
X220850Y82167*
X221100Y82400*
X221350Y82750*
X221433Y83217*
Y85550*
X222492Y82458D02*
G01X222783Y82167D01*
X223117Y82050*
X223450Y82167*
X223742Y82517*
X223950Y83042*
X224033Y83567*
Y84208*
X223950Y84733*
X223742Y85200*
X223492Y85433*
X223200Y85550*
X222867Y85433*
X222617Y85200*
X222450Y84850*
X222367Y84383*
X222450Y83975*
X222658Y83567*
X222908Y83333*
X223200Y83275*
X223533Y83392*
X223783Y83683*
X224033Y84208*
X207500Y110250D02*
G01Y105650D01*
X207400Y110250D02*
G01Y105650D01*
X207200Y110250D02*
G01Y105650D01*
X206900Y110250D02*
G01Y105650D01*
X206700Y110250D02*
G01Y105650D01*
X206400Y110250D02*
G01Y105650D01*
X206100Y110250D02*
G01Y105650D01*
X208900Y108150D02*
G01X210100D01*
X208900Y110450D02*
G01Y105650D01*
X204700Y108150D02*
G01Y105650D01*
X203100Y108150D02*
G01X204700D01*
Y110450*
X209400Y102750D02*
G01Y103450D01*
X204200Y102650D02*
G01Y103450D01*
X203000D02*
G01X210500D01*
X211700Y104650*
Y127350*
X201900*
Y104550*
X203000Y103450*
X205200Y129150D02*
G01Y130725D01*
X204367Y132650*
X206033D02*
G01X205200Y130725D01*
X207800Y129150D02*
G01Y132650D01*
X207300Y131950*
Y129150D02*
G01X208300D01*
X201722Y232500D02*
G01X200680Y229000D01*
X199638Y232500*
X200013Y231275D02*
G01X201347D01*
X220247Y230633D02*
G01X220080Y230458D01*
X219955Y230167*
X219872Y229758*
X219955Y229408*
X220122Y229175*
X220413Y229000*
X221538*
Y232500*
X220163*
X219872Y232267*
X219705Y231917*
X219622Y231508*
X219705Y231100*
X219955Y230750*
X220247Y230633*
X221538*
X230825Y42917D02*
G01X231158Y42625D01*
X231533Y42450*
X231867*
X232200Y42625*
X232450Y42917*
X232575Y43325*
X232492Y43733*
X232283Y44083*
X231908Y44317*
X231408Y44433*
X231117Y44667*
X230992Y45075*
X231075Y45483*
X231283Y45775*
X231575Y45950*
X231867*
X232158Y45833*
X232408Y45542*
X233383Y42450D02*
G01Y45950D01*
X234217*
X234550Y45775*
X234800Y45542*
X235008Y45192*
X235175Y44783*
X235217Y44200*
X235175Y43617*
X235008Y43208*
X234800Y42858*
X234550Y42625*
X234217Y42450*
X233383*
X235858D02*
G01X236900Y45950D01*
X237942Y42450*
X237567Y43675D02*
G01X236233D01*
X230825Y48017D02*
G01X231158Y47725D01*
X231533Y47550*
X231867*
X232200Y47725*
X232450Y48017*
X232575Y48425*
X232492Y48833*
X232283Y49183*
X231908Y49417*
X231408Y49533*
X231117Y49767*
X230992Y50175*
X231075Y50583*
X231283Y50875*
X231575Y51050*
X231867*
X232158Y50933*
X232408Y50642*
X235217Y50758D02*
G01X234967Y50933D01*
X234675Y51050*
X234342*
X233967Y50875*
X233675Y50583*
X233467Y50233*
X233300Y49650*
X233258Y49125*
X233342Y48600*
X233467Y48250*
X233717Y47900*
X234008Y47667*
X234300Y47550*
X234592*
X234883Y47667*
X235133Y47842*
X235342Y48075*
X236067Y51050D02*
G01Y47550D01*
X237733*
X230458Y55950D02*
G01X231500Y52450D01*
X232542Y55950*
X235017Y55658D02*
G01X234767Y55833D01*
X234475Y55950*
X234142*
X233767Y55775*
X233475Y55483*
X233267Y55133*
X233100Y54550*
X233058Y54025*
X233142Y53500*
X233267Y53150*
X233517Y52800*
X233808Y52567*
X234100Y52450*
X234392*
X234683Y52567*
X234933Y52742*
X235142Y52975*
X237617Y55658D02*
G01X237367Y55833D01*
X237075Y55950*
X236742*
X236367Y55775*
X236075Y55483*
X235867Y55133*
X235700Y54550*
X235658Y54025*
X235742Y53500*
X235867Y53150*
X236117Y52800*
X236408Y52567*
X236700Y52450*
X236992*
X237283Y52567*
X237533Y52742*
X237742Y52975*
X231950Y59300D02*
G01X232783D01*
Y58250*
X232533Y57900*
X232242Y57667*
X231825Y57550*
X231408Y57667*
X231117Y57900*
X230867Y58250*
X230700Y58658*
X230617Y59125*
Y59533*
X230700Y59883*
X230867Y60292*
X231117Y60642*
X231367Y60875*
X231700Y61050*
X231992*
X232325Y60933*
X232575Y60700*
X233342Y57550D02*
G01Y61050D01*
X235258Y57550*
Y61050*
X235983Y57550D02*
G01Y61050D01*
X236817*
X237150Y60875*
X237400Y60642*
X237608Y60292*
X237775Y59883*
X237817Y59300*
X237775Y58717*
X237608Y58308*
X237400Y57958*
X237150Y57725*
X236817Y57550*
X235983*
X232913Y72850D02*
G01Y70342D01*
X233080Y69817*
X233413Y69467*
X233830Y69350*
X234247Y69467*
X234580Y69817*
X234747Y70342*
Y72850*
X235638Y70808D02*
G01X235930Y71217D01*
X236180Y71450*
X236513Y71567*
X236805Y71450*
X237013Y71217*
X237180Y70867*
X237222Y70458*
X237180Y70108*
X237013Y69758*
X236763Y69467*
X236472Y69350*
X236138Y69467*
X235847Y69817*
X235680Y70342*
X235638Y70925*
X235722Y71683*
X235847Y72092*
X236055Y72500*
X236347Y72792*
X236638Y72850*
X236930Y72733*
X237138Y72442*
X230113Y162850D02*
G01Y160342D01*
X230280Y159817*
X230613Y159467*
X231030Y159350*
X231447Y159467*
X231780Y159817*
X231947Y160342*
Y162850*
X232713Y160050D02*
G01X232963Y159642D01*
X233297Y159408*
X233672Y159350*
X234005Y159408*
X234338Y159700*
X234547Y160050*
X234588Y160400*
X234505Y160808*
X234213Y161100*
X233922Y161217*
X233546*
X233922D02*
G01X234172Y161392D01*
X234380Y161683*
X234463Y162033*
X234380Y162383*
X234172Y162675*
X233797Y162850*
X233422Y162792*
X233047Y162558*
X235413Y177567D02*
G01X235580Y177742D01*
X235705Y178033*
X235788Y178442*
X235705Y178792*
X235538Y179025*
X235247Y179200*
X234122*
Y175700*
X235497*
X235788Y175933*
X235955Y176283*
X236038Y176692*
X235955Y177100*
X235705Y177450*
X235413Y177567*
X234122*
X237680Y179200D02*
G01Y175700D01*
X236722Y179200D02*
G01X238638D01*
X242980Y170600D02*
G01Y174100D01*
X242480Y173400*
Y170600D02*
G01X243480D01*
X247088Y173517D02*
G01X247338Y173867D01*
X247630Y174042*
X247963Y174100*
X248380Y173983*
X248672Y173692*
X248755Y173342*
X248713Y172992*
X248546Y172700*
X247713Y172117*
X247338Y171708*
X247088Y171125*
X247005Y170600*
X248755*
X243697Y187850D02*
G01Y191350D01*
X244738*
X245072Y191175*
X245280Y190942*
X245363Y190475*
X245280Y190008*
X245030Y189717*
X244738Y189542*
X243697*
X244738D02*
G01X245363Y187850D01*
X247130D02*
G01Y191350D01*
X246630Y190650*
Y187850D02*
G01X247630D01*
X249647D02*
G01X249730Y188608D01*
X249855Y189250*
X250022Y189833*
X250230Y190475*
X250563Y191350*
X248897*
X232847Y181200D02*
G01X233055Y180850D01*
X233305Y180617*
X233597Y180500*
X233930Y180617*
X234180Y180850*
X234430Y181200*
X234513Y181667*
Y184000*
X236280Y180500D02*
G01Y184000D01*
X235780Y183300*
Y180500D02*
G01X236780D01*
X238880Y184000D02*
G01X238547Y183883D01*
X238297Y183592*
X238130Y183242*
X238005Y182775*
X237963Y182250*
X238005Y181725*
X238130Y181258*
X238297Y180908*
X238547Y180617*
X238880Y180500*
X239213Y180617*
X239463Y180908*
X239630Y181258*
X239755Y181725*
X239797Y182250*
X239755Y182775*
X239630Y183242*
X239463Y183592*
X239213Y183883*
X238880Y184000*
X245747Y221208D02*
G01X245496Y221383D01*
X245205Y221500*
X244872*
X244497Y221325*
X244205Y221033*
X243997Y220683*
X243830Y220100*
X243788Y219575*
X243872Y219050*
X243997Y218700*
X244247Y218350*
X244538Y218117*
X244830Y218000*
X245122*
X245413Y218117*
X245663Y218292*
X245872Y218525*
X247430Y218000D02*
G01Y221500D01*
X246930Y220800*
Y218000D02*
G01X247930D01*
X250030Y221500D02*
G01X249697Y221383D01*
X249447Y221092*
X249280Y220742*
X249155Y220275*
X249113Y219750*
X249155Y219225*
X249280Y218758*
X249447Y218408*
X249697Y218117*
X250030Y218000*
X250363Y218117*
X250613Y218408*
X250780Y218758*
X250905Y219225*
X250947Y219750*
X250905Y220275*
X250780Y220742*
X250613Y221092*
X250363Y221383*
X250030Y221500*
X245747Y197208D02*
G01X245496Y197383D01*
X245205Y197500*
X244872*
X244497Y197325*
X244205Y197033*
X243997Y196683*
X243830Y196100*
X243788Y195575*
X243872Y195050*
X243997Y194700*
X244247Y194350*
X244538Y194117*
X244830Y194000*
X245122*
X245413Y194117*
X245663Y194292*
X245872Y194525*
X247430Y194000D02*
G01Y197500D01*
X246930Y196800*
Y194000D02*
G01X247930D01*
X249113Y194700D02*
G01X249363Y194292D01*
X249697Y194058*
X250072Y194000*
X250405Y194058*
X250738Y194350*
X250947Y194700*
X250988Y195050*
X250905Y195458*
X250613Y195750*
X250322Y195867*
X249947*
X250322D02*
G01X250572Y196042D01*
X250780Y196333*
X250863Y196683*
X250780Y197033*
X250572Y197325*
X250197Y197500*
X249822Y197442*
X249447Y197208*
X243697Y206150D02*
G01Y209650D01*
X244738*
X245072Y209475*
X245280Y209242*
X245363Y208775*
X245280Y208308*
X245030Y208017*
X244738Y207842*
X243697*
X244738D02*
G01X245363Y206150D01*
X247130D02*
G01Y209650D01*
X246630Y208950*
Y206150D02*
G01X247630D01*
X248938Y207608D02*
G01X249230Y208017D01*
X249480Y208250*
X249813Y208367*
X250105Y208250*
X250313Y208017*
X250480Y207667*
X250522Y207258*
X250480Y206908*
X250313Y206558*
X250063Y206267*
X249772Y206150*
X249438Y206267*
X249147Y206617*
X248980Y207142*
X248938Y207725*
X249022Y208483*
X249147Y208892*
X249355Y209300*
X249647Y209592*
X249938Y209650*
X250230Y209533*
X250438Y209242*
X243997Y212000D02*
G01Y215500D01*
X245038*
X245372Y215325*
X245580Y215092*
X245663Y214625*
X245580Y214158*
X245330Y213867*
X245038Y213692*
X243997*
X245038D02*
G01X245663Y212000D01*
X247430D02*
G01Y215500D01*
X246930Y214800*
Y212000D02*
G01X247930D01*
X250030D02*
G01X250322Y212058D01*
X250655Y212233*
X250863Y212525*
X250947Y212933*
X250863Y213342*
X250613Y213692*
X250238Y213867*
X249822*
X249572Y213983*
X249363Y214275*
X249280Y214683*
X249405Y215092*
X249697Y215383*
X250030Y215500*
X250363Y215383*
X250655Y215092*
X250780Y214683*
X250696Y214275*
X250488Y213983*
X250238Y213867*
X249822*
X249447Y213692*
X249197Y213342*
X249113Y212933*
X249197Y212525*
X249405Y212233*
X249738Y212058*
X250030Y212000*
X243647Y200100D02*
G01Y203600D01*
X244688*
X245022Y203425*
X245230Y203192*
X245313Y202725*
X245230Y202258*
X244980Y201967*
X244688Y201792*
X243647*
X244688D02*
G01X245313Y200100D01*
X247080D02*
G01Y203600D01*
X246580Y202900*
Y200100D02*
G01X247580D01*
X248972Y200508D02*
G01X249263Y200217D01*
X249596Y200100*
X249930Y200217*
X250222Y200567*
X250430Y201092*
X250513Y201617*
Y202258*
X250430Y202783*
X250222Y203250*
X249972Y203483*
X249680Y203600*
X249346Y203483*
X249097Y203250*
X248930Y202900*
X248847Y202433*
X248930Y202025*
X249138Y201617*
X249388Y201383*
X249680Y201325*
X250013Y201442*
X250263Y201733*
X250513Y202258*
X232247Y213000D02*
G01X232455Y212650D01*
X232705Y212417*
X232996Y212300*
X233330Y212417*
X233580Y212650*
X233830Y213000*
X233913Y213467*
Y215800*
X234888Y213758D02*
G01X235180Y214167D01*
X235430Y214400*
X235763Y214517*
X236055Y214400*
X236263Y214167*
X236430Y213817*
X236472Y213408*
X236430Y213058*
X236263Y212708*
X236013Y212417*
X235722Y212300*
X235388Y212417*
X235097Y212767*
X234930Y213292*
X234888Y213875*
X234972Y214633*
X235097Y215042*
X235305Y215450*
X235597Y215742*
X235888Y215800*
X236180Y215683*
X236388Y215392*
X245747Y227208D02*
G01X245496Y227383D01*
X245205Y227500*
X244872*
X244497Y227325*
X244205Y227033*
X243997Y226683*
X243830Y226100*
X243788Y225575*
X243872Y225050*
X243997Y224700*
X244247Y224350*
X244538Y224117*
X244830Y224000*
X245122*
X245413Y224117*
X245663Y224292*
X245872Y224525*
X247430Y224000D02*
G01Y227500D01*
X246930Y226800*
Y224000D02*
G01X247930D01*
X250030D02*
G01Y227500D01*
X249530Y226800*
Y224000D02*
G01X250530D01*
X243263Y242300D02*
G01Y245800D01*
X244097*
X244430Y245625*
X244680Y245392*
X244888Y245042*
X245055Y244633*
X245097Y244050*
X245055Y243467*
X244888Y243058*
X244680Y242708*
X244430Y242475*
X244097Y242300*
X243263*
X246780D02*
G01Y245800D01*
X246280Y245100*
Y242300D02*
G01X247280D01*
X249380Y245800D02*
G01X249047Y245683D01*
X248797Y245392*
X248630Y245042*
X248505Y244575*
X248463Y244050*
X248505Y243525*
X248630Y243058*
X248797Y242708*
X249047Y242417*
X249380Y242300*
X249713Y242417*
X249963Y242708*
X250130Y243058*
X250255Y243525*
X250297Y244050*
X250255Y244575*
X250130Y245042*
X249963Y245392*
X249713Y245683*
X249380Y245800*
X257697Y4650D02*
G01Y8150D01*
X258738*
X259072Y7975*
X259280Y7742*
X259363Y7275*
X259280Y6808*
X259030Y6517*
X258738Y6342*
X257697*
X258738D02*
G01X259363Y4650D01*
X260338Y7567D02*
G01X260588Y7917D01*
X260880Y8092*
X261213Y8150*
X261630Y8033*
X261922Y7742*
X262005Y7392*
X261963Y7042*
X261797Y6750*
X260963Y6167*
X260588Y5758*
X260338Y5175*
X260255Y4650*
X262005*
X262813Y5350D02*
G01X263063Y4942D01*
X263397Y4708*
X263772Y4650*
X264105Y4708*
X264438Y5000*
X264647Y5350*
X264688Y5700*
X264605Y6108*
X264313Y6400*
X264022Y6517*
X263646*
X264022D02*
G01X264272Y6692D01*
X264480Y6983*
X264563Y7333*
X264480Y7683*
X264272Y7975*
X263897Y8150*
X263522Y8092*
X263147Y7858*
X252163Y171300D02*
G01X252413Y170892D01*
X252747Y170658*
X253122Y170600*
X253455Y170658*
X253788Y170950*
X253997Y171300*
X254038Y171650*
X253955Y172058*
X253663Y172350*
X253372Y172467*
X252997*
X253372D02*
G01X253622Y172642D01*
X253830Y172933*
X253913Y173283*
X253830Y173633*
X253622Y173925*
X253247Y174100*
X252872Y174042*
X252497Y173808*
X258080Y170500D02*
G01Y174000D01*
X256538Y171492*
X258622*
X263630Y172150D02*
G01X264463D01*
Y171100*
X264213Y170750*
X263922Y170517*
X263505Y170400*
X263088Y170517*
X262797Y170750*
X262547Y171100*
X262380Y171508*
X262296Y171975*
Y172383*
X262380Y172733*
X262547Y173142*
X262797Y173492*
X263046Y173725*
X263380Y173900*
X263672*
X264005Y173783*
X264255Y173550*
X270352Y171902D02*
G01X270102Y172078D01*
X269810Y172194*
X269477*
X269102Y172019*
X268810Y171728*
X268602Y171378*
X268435Y170794*
X268394Y170269*
X268477Y169744*
X268602Y169394*
X268852Y169044*
X269144Y168811*
X269436Y168694*
X269727*
X270019Y168811*
X270269Y168986*
X270477Y169219*
X271244Y171611D02*
G01X271494Y171961D01*
X271786Y172136*
X272119Y172194*
X272536Y172078*
X272827Y171786*
X272910Y171436*
X272869Y171086*
X272702Y170794*
X271869Y170211*
X271494Y169802*
X271244Y169219*
X271160Y168694*
X272910*
X273927Y169102D02*
G01X274219Y168811D01*
X274552Y168694*
X274886Y168811*
X275177Y169161*
X275386Y169686*
X275469Y170211*
Y170852*
X275386Y171378*
X275177Y171844*
X274927Y172078*
X274636Y172194*
X274302Y172078*
X274052Y171844*
X273886Y171494*
X273802Y171028*
X273886Y170619*
X274094Y170211*
X274344Y169978*
X274636Y169919*
X274969Y170036*
X275219Y170328*
X275469Y170852*
X254147Y242300D02*
G01Y245800D01*
X255188*
X255522Y245625*
X255730Y245392*
X255813Y244925*
X255730Y244458*
X255480Y244167*
X255188Y243992*
X254147*
X255188D02*
G01X255813Y242300D01*
X256663Y243000D02*
G01X256913Y242592D01*
X257247Y242358*
X257622Y242300*
X257955Y242358*
X258288Y242650*
X258497Y243000*
X258538Y243350*
X258455Y243758*
X258163Y244050*
X257872Y244167*
X257497*
X257872D02*
G01X258122Y244342D01*
X258330Y244633*
X258413Y244983*
X258330Y245333*
X258122Y245625*
X257747Y245800*
X257372Y245742*
X256997Y245508*
X259388Y245217D02*
G01X259638Y245567D01*
X259930Y245742*
X260263Y245800*
X260680Y245683*
X260972Y245392*
X261055Y245042*
X261013Y244692*
X260847Y244400*
X260013Y243817*
X259638Y243408*
X259388Y242825*
X259305Y242300*
X261055*
X289397Y4450D02*
G01Y7950D01*
X290438*
X290772Y7775*
X290980Y7542*
X291063Y7075*
X290980Y6608*
X290730Y6317*
X290438Y6142*
X289397*
X290438D02*
G01X291063Y4450D01*
X292038Y7367D02*
G01X292288Y7717D01*
X292580Y7892*
X292913Y7950*
X293330Y7833*
X293622Y7542*
X293705Y7192*
X293663Y6842*
X293496Y6550*
X292663Y5967*
X292288Y5558*
X292038Y4975*
X291955Y4450*
X293705*
X295930D02*
G01Y7950D01*
X294388Y5442*
X296472*
X295230Y191950D02*
G01X294896Y192008D01*
X294605Y192242*
X294355Y192592*
X294188Y193000*
X294105Y193467*
Y193933*
X294188Y194400*
X294355Y194808*
X294605Y195158*
X294896Y195392*
X295230Y195450*
X295563Y195392*
X295855Y195158*
X296105Y194808*
X296272Y194400*
X296355Y193933*
Y193467*
X296272Y193000*
X296105Y192592*
X295855Y192242*
X295563Y192008*
X295230Y191950*
X295563Y192883D02*
G01X296063Y191950D01*
X297038Y194867D02*
G01X297288Y195217D01*
X297580Y195392*
X297913Y195450*
X298330Y195333*
X298622Y195042*
X298705Y194692*
X298663Y194342*
X298497Y194050*
X297663Y193467*
X297288Y193058*
X297038Y192475*
X296955Y191950*
X298705*
X293113Y210150D02*
G01Y207642D01*
X293280Y207117*
X293613Y206767*
X294030Y206650*
X294447Y206767*
X294780Y207117*
X294947Y207642*
Y210150*
X297130Y206650D02*
G01Y210150D01*
X295588Y207642*
X297672*
X277597Y215350D02*
G01Y218850D01*
X278638*
X278972Y218675*
X279180Y218442*
X279263Y217975*
X279180Y217508*
X278930Y217217*
X278638Y217042*
X277597*
X278638D02*
G01X279263Y215350D01*
X281530D02*
G01Y218850D01*
X279988Y216342*
X282072*
X282922Y215758D02*
G01X283213Y215467D01*
X283546Y215350*
X283880Y215467*
X284172Y215817*
X284380Y216342*
X284463Y216867*
Y217508*
X284380Y218033*
X284172Y218500*
X283922Y218733*
X283630Y218850*
X283296Y218733*
X283047Y218500*
X282880Y218150*
X282797Y217683*
X282880Y217275*
X283088Y216867*
X283338Y216633*
X283630Y216575*
X283963Y216692*
X284213Y216983*
X284463Y217508*
X319530Y8750D02*
G01X320363D01*
Y7700*
X320113Y7350*
X319822Y7117*
X319405Y7000*
X318988Y7117*
X318697Y7350*
X318447Y7700*
X318280Y8108*
X318197Y8575*
Y8983*
X318280Y9333*
X318447Y9742*
X318697Y10092*
X318946Y10325*
X319280Y10500*
X319572*
X319905Y10383*
X320155Y10150*
X320922Y7000D02*
G01Y10500D01*
X322838Y7000*
Y10500*
X323563Y7000D02*
G01Y10500D01*
X324396*
X324730Y10325*
X324980Y10092*
X325188Y9742*
X325355Y9333*
X325397Y8750*
X325355Y8167*
X325188Y7758*
X324980Y7408*
X324730Y7175*
X324396Y7000*
X323563*
X308238Y16633D02*
G01X308413Y16883D01*
X308530Y17175*
Y17508*
X308355Y17883*
X308063Y18175*
X307713Y18383*
X307130Y18550*
X306605Y18592*
X306080Y18508*
X305730Y18383*
X305380Y18133*
X305147Y17842*
X305030Y17550*
Y17258*
X305147Y16967*
X305322Y16717*
X305555Y16508*
X305030Y14950D02*
G01X308530D01*
X307830Y15450*
X305030D02*
G01Y14450D01*
Y11850D02*
G01X308530D01*
X306022Y13392*
Y11308*
X314238Y16633D02*
G01X314413Y16883D01*
X314530Y17175*
Y17508*
X314355Y17883*
X314063Y18175*
X313713Y18383*
X313130Y18550*
X312605Y18592*
X312080Y18508*
X311730Y18383*
X311380Y18133*
X311147Y17842*
X311030Y17550*
Y17258*
X311147Y16967*
X311322Y16717*
X311555Y16508*
X311030Y14950D02*
G01X314530D01*
X313830Y15450*
X311030D02*
G01Y14450D01*
X311555Y13267D02*
G01X311263Y13017D01*
X311088Y12725*
X311030Y12350*
X311147Y11975*
X311380Y11683*
X311788Y11475*
X312255Y11433*
X312722Y11517*
X313013Y11725*
X313246Y12017*
X313305Y12308*
X313246Y12600*
X313013Y12975*
X314530Y12850*
Y11725*
X323880Y41233D02*
G01X327380D01*
Y40192*
X327205Y39858*
X326972Y39650*
X326505Y39567*
X326038Y39650*
X325747Y39900*
X325572Y40192*
Y41233*
Y40192D02*
G01X323880Y39567D01*
Y37800D02*
G01X327380D01*
X326680Y38300*
X323880D02*
G01Y37300D01*
X326797Y35992D02*
G01X327146Y35742D01*
X327322Y35450*
X327380Y35117*
X327263Y34700*
X326972Y34408*
X326622Y34325*
X326272Y34367*
X325980Y34533*
X325397Y35367*
X324988Y35742*
X324405Y35992*
X323880Y36075*
Y34325*
X327188Y49183D02*
G01X327363Y49433D01*
X327480Y49725*
Y50058*
X327305Y50433*
X327013Y50725*
X326663Y50933*
X326080Y51100*
X325555Y51142*
X325030Y51058*
X324680Y50933*
X324330Y50683*
X324096Y50392*
X323980Y50100*
Y49808*
X324096Y49517*
X324272Y49267*
X324505Y49058*
X324388Y48208D02*
G01X324096Y47917D01*
X323980Y47583*
X324096Y47250*
X324447Y46958*
X324972Y46750*
X325497Y46667*
X326138*
X326663Y46750*
X327130Y46958*
X327363Y47208*
X327480Y47500*
X327363Y47833*
X327130Y48083*
X326780Y48250*
X326313Y48333*
X325905Y48250*
X325497Y48042*
X325263Y47792*
X325205Y47500*
X325322Y47167*
X325613Y46917*
X326138Y46667*
X306347Y71658D02*
G01X306097Y71833D01*
X305805Y71950*
X305472*
X305096Y71775*
X304805Y71483*
X304597Y71133*
X304430Y70550*
X304388Y70025*
X304472Y69500*
X304597Y69150*
X304847Y68800*
X305138Y68567*
X305430Y68450*
X305722*
X306013Y68567*
X306263Y68742*
X306472Y68975*
X308030Y68450D02*
G01Y71950D01*
X307530Y71250*
Y68450D02*
G01X308530D01*
X309838Y69908D02*
G01X310130Y70317D01*
X310380Y70550*
X310713Y70667*
X311005Y70550*
X311213Y70317*
X311380Y69967*
X311422Y69558*
X311380Y69208*
X311213Y68858*
X310963Y68567*
X310672Y68450*
X310338Y68567*
X310047Y68917*
X309880Y69442*
X309838Y70025*
X309922Y70783*
X310047Y71192*
X310255Y71600*
X310546Y71892*
X310838Y71950*
X311130Y71833*
X311338Y71542*
X304097Y185608D02*
G01X303847Y185783D01*
X303555Y185900*
X303222*
X302846Y185725*
X302555Y185433*
X302347Y185083*
X302180Y184500*
X302138Y183975*
X302222Y183450*
X302347Y183100*
X302597Y182750*
X302888Y182517*
X303180Y182400*
X303472*
X303763Y182517*
X304013Y182692*
X304222Y182925*
X304988Y183858D02*
G01X305280Y184267D01*
X305530Y184500*
X305863Y184617*
X306155Y184500*
X306363Y184267*
X306530Y183917*
X306572Y183508*
X306530Y183158*
X306363Y182808*
X306113Y182517*
X305822Y182400*
X305488Y182517*
X305197Y182867*
X305030Y183392*
X304988Y183975*
X305072Y184733*
X305197Y185142*
X305405Y185550*
X305697Y185842*
X305988Y185900*
X306280Y185783*
X306488Y185492*
X304047Y190458D02*
G01X303796Y190633D01*
X303505Y190750*
X303172*
X302796Y190575*
X302505Y190283*
X302297Y189933*
X302130Y189350*
X302088Y188825*
X302172Y188300*
X302297Y187950*
X302547Y187600*
X302838Y187367*
X303130Y187250*
X303422*
X303713Y187367*
X303963Y187542*
X304172Y187775*
X305646Y187250D02*
G01X305730Y188008D01*
X305855Y188650*
X306022Y189233*
X306230Y189875*
X306563Y190750*
X304897*
X310497Y192150D02*
G01Y195650D01*
X311538*
X311872Y195475*
X312080Y195242*
X312163Y194775*
X312080Y194308*
X311830Y194017*
X311538Y193842*
X310497*
X311538D02*
G01X312163Y192150D01*
X313930D02*
G01Y195650D01*
X313430Y194950*
Y192150D02*
G01X314430D01*
X315613Y192675D02*
G01X315863Y192383D01*
X316155Y192208*
X316530Y192150*
X316905Y192267*
X317196Y192500*
X317405Y192908*
X317447Y193375*
X317363Y193842*
X317155Y194133*
X316863Y194367*
X316572Y194425*
X316280Y194367*
X315905Y194133*
X316030Y195650*
X317155*
X322430Y189650D02*
G01X322096Y189708D01*
X321805Y189942*
X321555Y190292*
X321388Y190700*
X321305Y191167*
Y191633*
X321388Y192100*
X321555Y192508*
X321805Y192858*
X322096Y193092*
X322430Y193150*
X322763Y193092*
X323055Y192858*
X323305Y192508*
X323472Y192100*
X323555Y191633*
Y191167*
X323472Y190700*
X323305Y190292*
X323055Y189942*
X322763Y189708*
X322430Y189650*
X322763Y190583D02*
G01X323263Y189650D01*
X325030D02*
G01Y193150D01*
X324530Y192450*
Y189650D02*
G01X325530D01*
X309997Y208650D02*
G01Y212150D01*
X311038*
X311372Y211975*
X311580Y211742*
X311663Y211275*
X311580Y210808*
X311330Y210517*
X311038Y210342*
X309997*
X311038D02*
G01X311663Y208650D01*
X313430D02*
G01Y212150D01*
X312930Y211450*
Y208650D02*
G01X313930D01*
X316530D02*
G01Y212150D01*
X314988Y209642*
X317072*
X303697Y215450D02*
G01Y218950D01*
X304738*
X305072Y218775*
X305280Y218542*
X305363Y218075*
X305280Y217608*
X305030Y217317*
X304738Y217142*
X303697*
X304738D02*
G01X305363Y215450D01*
X307630D02*
G01Y218950D01*
X306088Y216442*
X308172*
X309730Y215450D02*
G01X310022Y215508D01*
X310355Y215683*
X310563Y215975*
X310647Y216383*
X310563Y216792*
X310313Y217142*
X309938Y217317*
X309522*
X309272Y217433*
X309063Y217725*
X308980Y218133*
X309105Y218542*
X309397Y218833*
X309730Y218950*
X310063Y218833*
X310355Y218542*
X310480Y218133*
X310396Y217725*
X310188Y217433*
X309938Y217317*
X309522*
X309147Y217142*
X308897Y216792*
X308813Y216383*
X308897Y215975*
X309105Y215683*
X309438Y215508*
X309730Y215450*
X320930Y224900D02*
G01X318530Y222500D01*
X316030Y225000*
X320930*
X318530Y227600D02*
G01Y220200D01*
X306947Y234000D02*
G01X307155Y233650D01*
X307405Y233417*
X307697Y233300*
X308030Y233417*
X308280Y233650*
X308530Y234000*
X308613Y234467*
Y236800*
X310380Y233300D02*
G01X310672Y233358D01*
X311005Y233533*
X311213Y233825*
X311297Y234233*
X311213Y234642*
X310963Y234992*
X310588Y235167*
X310172*
X309922Y235283*
X309713Y235575*
X309630Y235983*
X309755Y236392*
X310046Y236683*
X310380Y236800*
X310713Y236683*
X311005Y236392*
X311130Y235983*
X311046Y235575*
X310838Y235283*
X310588Y235167*
X310172*
X309797Y234992*
X309547Y234642*
X309463Y234233*
X309547Y233825*
X309755Y233533*
X310088Y233358*
X310380Y233300*
X329330Y17050D02*
G01Y13550D01*
X328372Y17050D02*
G01X330288D01*
X331846Y13550D02*
G01X331930Y14308D01*
X332055Y14950*
X332222Y15533*
X332430Y16175*
X332763Y17050*
X331097*
X340655Y22917D02*
G01X340988Y22625D01*
X341363Y22450*
X341697*
X342030Y22625*
X342280Y22917*
X342405Y23325*
X342322Y23733*
X342113Y24083*
X341738Y24317*
X341238Y24433*
X340947Y24667*
X340822Y25075*
X340905Y25483*
X341113Y25775*
X341405Y25950*
X341697*
X341988Y25833*
X342238Y25542*
X342880Y25950D02*
G01X343463Y22450D01*
X344130Y25950*
X344797Y22450*
X345380Y25950*
X346730Y22450D02*
G01Y25950D01*
X346230Y25250*
Y22450D02*
G01X347230D01*
X335097Y188250D02*
G01Y191750D01*
X336138*
X336472Y191575*
X336680Y191342*
X336763Y190875*
X336680Y190408*
X336430Y190117*
X336138Y189942*
X335097*
X336138D02*
G01X336763Y188250D01*
X338530D02*
G01Y191750D01*
X338030Y191050*
Y188250D02*
G01X339030D01*
X341130D02*
G01Y191750D01*
X340630Y191050*
Y188250D02*
G01X341630D01*
X332188Y218783D02*
G01X332363Y219033D01*
X332480Y219325*
Y219658*
X332305Y220033*
X332013Y220325*
X331663Y220533*
X331080Y220700*
X330555Y220742*
X330030Y220658*
X329680Y220533*
X329330Y220283*
X329097Y219992*
X328980Y219700*
Y219408*
X329097Y219117*
X329272Y218867*
X329505Y218658*
X328980Y217100D02*
G01X329038Y216808D01*
X329213Y216475*
X329505Y216267*
X329913Y216183*
X330322Y216267*
X330672Y216517*
X330847Y216892*
Y217308*
X330963Y217558*
X331255Y217767*
X331663Y217850*
X332072Y217725*
X332363Y217433*
X332480Y217100*
X332363Y216767*
X332072Y216475*
X331663Y216350*
X331255Y216433*
X330963Y216642*
X330847Y216892*
Y217308*
X330672Y217683*
X330322Y217933*
X329913Y218017*
X329505Y217933*
X329213Y217725*
X329038Y217392*
X328980Y217100*
X343047Y236275D02*
G01X342755Y235942D01*
X342580Y235567*
Y235233*
X342755Y234900*
X343047Y234650*
X343455Y234525*
X343863Y234608*
X344213Y234817*
X344447Y235192*
X344563Y235692*
X344797Y235983*
X345205Y236108*
X345613Y236025*
X345905Y235817*
X346080Y235525*
Y235233*
X345963Y234942*
X345672Y234692*
X346080Y234050D02*
G01X342580Y233467D01*
X346080Y232800*
X342580Y232133*
X346080Y231550*
X345497Y230992D02*
G01X345847Y230742D01*
X346022Y230450*
X346080Y230117*
X345963Y229700*
X345672Y229408*
X345322Y229325*
X344972Y229367*
X344680Y229533*
X344097Y230367*
X343688Y230742*
X343105Y230992*
X342580Y231075*
Y229325*
X324313Y221850D02*
G01Y225350D01*
X325146*
X325480Y225175*
X325730Y224942*
X325938Y224592*
X326105Y224183*
X326147Y223600*
X326105Y223017*
X325938Y222608*
X325730Y222258*
X325480Y222025*
X325146Y221850*
X324313*
X327747D02*
G01X327830Y222608D01*
X327955Y223250*
X328122Y223833*
X328330Y224475*
X328663Y225350*
X326997*
G54D66*
X251548Y247335D02*
G01Y246941D01*
X241312*
Y247335*
X251548Y251862D02*
G01Y252059D01*
X241312*
Y251665*
X245249Y247728D02*
G01Y251272D01*
X247414Y247728D02*
G01X245643Y249500D01*
X247414Y251272*
Y247728*
X247020Y248122*
Y250484*
X246627Y250091*
Y248713*
X246233Y249106*
Y249697*
G54D67*
X138986Y220100D02*
G01Y223100D01*
X137774Y220100D02*
G01Y223100D01*
X137593Y221600D02*
G01X136805D01*
X139955D02*
G01X139167D01*
X138986Y226100D02*
G01Y229100D01*
X137774Y226100D02*
G01Y229100D01*
X137593Y227600D02*
G01X136805D01*
X139955D02*
G01X139167D01*
X258086Y193800D02*
G01Y196800D01*
X256874Y193800D02*
G01Y196800D01*
X256693Y195300D02*
G01X255905D01*
X259055D02*
G01X258267D01*
X258086Y217800D02*
G01Y220800D01*
X256874Y217800D02*
G01Y220800D01*
X256693Y219300D02*
G01X255905D01*
X259055D02*
G01X258267D01*
X258086Y223800D02*
G01Y226800D01*
X256874Y223800D02*
G01Y226800D01*
X256693Y225300D02*
G01X255905D01*
X259055D02*
G01X258267D01*
X307730Y25606D02*
G01X304730D01*
X307730Y24394D02*
G01X304730D01*
X306230Y24213D02*
G01Y23425D01*
Y26575D02*
G01Y25787D01*
X313730Y25606D02*
G01X310730D01*
X313730Y24394D02*
G01X310730D01*
X312230Y24213D02*
G01Y23425D01*
Y26575D02*
G01Y25787D01*
X306624Y174600D02*
G01Y171600D01*
X307836Y174600D02*
G01Y171600D01*
X308017Y173100D02*
G01X308805D01*
X305655D02*
G01X306443D01*
X306624Y180600D02*
G01Y177600D01*
X307836Y180600D02*
G01Y177600D01*
X308017Y179100D02*
G01X308805D01*
X305655D02*
G01X306443D01*
X329730Y48794D02*
G01X332730D01*
X329730Y50006D02*
G01X332730D01*
X331230Y50187D02*
G01Y50975D01*
Y47825D02*
G01Y48613D01*
X329345Y209357D02*
G01X332345D01*
X329345Y210569D02*
G01X332345D01*
X330845Y210750D02*
G01Y211538D01*
Y208388D02*
G01Y209176D01*
G54D68*
X143498Y219828D02*
G01Y219041D01*
X133262*
Y219828*
X143498Y223372D02*
G01Y224159D01*
X133262*
Y223372*
X143498Y225828D02*
G01Y225041D01*
X133262*
Y225828*
X143498Y229372D02*
G01Y230159D01*
X133262*
Y229372*
X196682Y41338D02*
G01Y41141D01*
X206918*
Y41535*
X196682Y51865D02*
G01Y52259D01*
X206918*
Y51865*
X196682Y47338D02*
G01Y47141D01*
X206918*
Y47535*
X196682Y45865D02*
G01Y46259D01*
X206918*
Y45865*
X266312Y8365D02*
G01Y8759D01*
X276548*
Y8365*
X266312Y3838D02*
G01Y3641D01*
X276548*
Y4035*
X252362Y191465D02*
G01Y191859D01*
X262598*
Y191465*
X252362Y186938D02*
G01Y186741D01*
X262598*
Y187135*
Y217528D02*
G01Y216741D01*
X252362*
Y217528*
X262598Y193528D02*
G01Y192741D01*
X252362*
Y193528*
X262598Y197072D02*
G01Y197859D01*
X252362*
Y197072*
Y209465D02*
G01Y209859D01*
X262598*
Y209465*
X252362Y204938D02*
G01Y204741D01*
X262598*
Y205135*
Y211135D02*
G01Y210741D01*
X252362*
Y211135*
X262598Y215662D02*
G01Y215859D01*
X252362*
Y215465*
Y203465D02*
G01Y203859D01*
X262598*
Y203465*
X252362Y198938D02*
G01Y198741D01*
X262598*
Y199135*
X276448Y214835D02*
G01Y214441D01*
X266212*
Y214835*
X262598Y221072D02*
G01Y221859D01*
X252362*
Y221072*
X262598Y223528D02*
G01Y222741D01*
X252362*
Y223528*
X262598Y227072D02*
G01Y227859D01*
X252362*
Y227072*
X276448Y219362D02*
G01Y219559D01*
X266212*
Y219165*
X262548Y247335D02*
G01Y246941D01*
X252312*
Y247335*
X262548Y251862D02*
G01Y252059D01*
X252312*
Y251665*
X277312Y8365D02*
G01Y8759D01*
X287548*
Y8365*
X277312Y3838D02*
G01Y3641D01*
X287548*
Y4035*
X292212Y214638D02*
G01Y214441D01*
X302448*
Y214835*
X292212Y219165D02*
G01Y219559D01*
X302448*
Y219165*
X308002Y30118D02*
G01X308789D01*
Y19882*
X308002*
X304458Y30118D02*
G01X303671D01*
Y19882*
X304458*
X314002Y30118D02*
G01X314789D01*
Y19882*
X314002*
X310458Y30118D02*
G01X309671D01*
Y19882*
X310458*
X302112Y174872D02*
G01Y175659D01*
X312348*
Y174872*
X302112Y171328D02*
G01Y170541D01*
X312348*
Y171328*
X302112Y180872D02*
G01Y181659D01*
X312348*
Y180872*
X302112Y177328D02*
G01Y176541D01*
X312348*
Y177328*
X308312Y207265D02*
G01Y207659D01*
X318548*
Y207265*
X308312Y202738D02*
G01Y202541D01*
X318548*
Y202935*
X308312Y201265D02*
G01Y201659D01*
X318548*
Y201265*
X308312Y196738D02*
G01Y196541D01*
X318548*
Y196935*
X333395Y43518D02*
G01X333789D01*
Y33282*
X333395*
X328868Y43518D02*
G01X328671D01*
Y33282*
X329065*
X329458Y44282D02*
G01X328671D01*
Y54518*
X329458*
X333002Y44282D02*
G01X333789D01*
Y54518*
X333002*
X333010Y199081D02*
G01X333404D01*
Y188845*
X333010*
X328483Y199081D02*
G01X328286D01*
Y188845*
X328680*
X329073Y204845D02*
G01X328286D01*
Y215081*
X329073*
X332617Y204845D02*
G01X333404D01*
Y215081*
X332617*
G54D69*
X80304Y170734D02*
G03X80304Y170734I-492D01*
X114237D02*
G03X114237Y170734I-492D01*
X200599Y100250D02*
G03X200599Y100250I-492D01*
X238835Y12432D02*
G03X238835Y12432I-492D01*
X312722Y32083D02*
G03X312722Y32083I-492D01*
M02*
