G04 CAM350/DFMSTREAM V12.1 (Build 1022) Date:  Fri Aug 29 15:05:26 2025 *
G04 Database: (Untitled) *
G04 Layer 5: SILK_SCREEN_BOTTOM.art *
%FSLAX25Y25*%
%MOIN*%
%SFA1.000B1.000*%

%MIA0B0*%
%IPPOS*%
%ADD70C,0.00400*%
%ADD40C,0.00800*%
%ADD41C,0.01000*%
%ADD64C,0.00600*%
%ADD65C,0.00700*%
%ADD66C,0.00591*%
%ADD67C,0.00787*%
%ADD68C,0.00591*%
%ADD69C,0.00984*%
%ADD74C,0.00787*%
%ADD75C,0.00984*%
%ADD76C,0.01181*%
%ADD77C,0.01969*%
%LNSILK_SCREEN_BOTTOM.art*%
%LPD*%
G36*
X130430Y10500D02*
G01X75430D01*
Y17500*
X130430*
Y10500*
G37*
G36*
X109130Y224834D02*
G75*
G02X99180Y230000I0J12166D01*
G01X104629*
G03X104630Y230001I0J1*
G01Y243999*
G03X104629Y244000I-1J0*
G01X99180*
G02X109130Y249166I9950J-7000*
X119080Y244000I0J-12166*
G01X113631*
G03X113630Y243999I0J-1*
G01Y230001*
G03X113631Y230000I1J0*
G01X119080*
G02X109130Y224834I-9950J7000*
G37*
%LPC*%
G36*
X119630Y17200D02*
G01X84430D01*
Y11000*
X119630*
Y17200*
G37*
%LPD*%
G54D70*
X104030Y223100D02*
G01X105330D01*
X106330Y222100*
Y220700*
G54D41*
X50147Y137700D02*
G01X36647D01*
Y133700*
X50147*
Y137700*
X90630Y137900D02*
G01X77130D01*
Y133900*
X90630*
Y137900*
X131188D02*
G01X117688D01*
Y133900*
X131188*
Y137900*
X149230Y215000D02*
G01Y211000D01*
X141230*
Y215000*
Y220200D02*
G01Y204700D01*
X171838Y137800D02*
G01X158338D01*
Y133800*
X171838*
Y137800*
X149230Y220300D02*
G01Y204800D01*
X188730Y190700D02*
G01X192730D01*
Y182700*
X188730*
X183430Y190700D02*
G01X198930D01*
X183530Y182700D02*
G01X199030D01*
X229130Y147900D02*
G01X203130D01*
Y133400*
X229130*
Y147900*
X238030Y182700D02*
G01X222530D01*
X237930Y190700D02*
G01X222430D01*
X208130D02*
G01X212130D01*
Y182700*
X208130*
X202830Y190700D02*
G01X218330D01*
X202930Y182700D02*
G01X218430D01*
X232730D02*
G01X228730D01*
Y190700*
X232730*
X264300Y42200D02*
G01Y57700D01*
X259300Y43350D02*
G01Y56850D01*
X255300*
Y43350*
X259300*
X264300Y47500D02*
G01Y51500D01*
X272300*
Y47500*
Y42300D02*
G01Y57800D01*
G54D64*
X149030Y203400D02*
G01Y201500D01*
X148830Y223700D02*
G01Y221500D01*
X149830Y222600D02*
G01X147930D01*
X264700Y38800D02*
G01Y41000D01*
X263700Y39900D02*
G01X265600D01*
X264500Y59100D02*
G01Y61000D01*
G54D76*
X293272Y53683D02*
G01Y49982D01*
X293154Y49864*
X303666*
X303863Y50061*
Y53840*
X303824Y53879*
X293469*
X293272Y53683*
Y49982D02*
G01Y49785D01*
X290005Y46517*
X306894*
Y46635*
X303666Y49864*
G54D65*
X75430Y10500D02*
G01X130430D01*
X75430Y17500D02*
G01Y10500D01*
X95430Y17500D02*
G01X75430D01*
Y29500D02*
G01Y35500D01*
Y23500D02*
G01Y17500D01*
X130430Y35500D02*
G01X95430D01*
X75430Y29500D02*
G01X110430D01*
Y23500D02*
G01X75430D01*
Y23500D02*
G01Y29500D01*
Y35500D02*
G01X95430D01*
X130430Y17500D02*
G01X95430D01*
X110430D02*
G01Y23500D01*
Y29500D02*
G01Y35500D01*
Y29500D02*
G01X130430D01*
X110430Y23500D02*
G01Y29500D01*
X130430Y23500D02*
G01X110430D01*
X130430Y10500D02*
G01Y17500D01*
Y17500D02*
G01Y23500D01*
Y29500D02*
G01Y23500D01*
Y29500D02*
G01Y35500D01*
G54D77*
X95220Y216409D02*
G03X95220Y216409I-984D01*
X175276Y222489D02*
G03X175276Y222489I-984D01*
X223876Y96062D02*
G03X223876Y96062I-984D01*
X218376Y214809D02*
G03X218376Y214809I-984D01*
G54D40*
X33530Y133850D02*
G01X33863Y133908D01*
X34155Y134142*
X34405Y134492*
X34572Y134900*
X34655Y135367*
Y135833*
X34572Y136300*
X34405Y136708*
X34155Y137058*
X33863Y137292*
X33530Y137350*
X33197Y137292*
X32905Y137058*
X32655Y136708*
X32488Y136300*
X32405Y135833*
Y135367*
X32488Y134900*
X32655Y134492*
X32905Y134142*
X33197Y133908*
X33530Y133850*
X33197Y134783D02*
G01X32697Y133850D01*
X30430D02*
G01Y137350D01*
X31972Y134842*
X29888*
X54447Y154853D02*
G01Y158353D01*
X53613*
X53280Y158178*
X53030Y157945*
X52822Y157595*
X52655Y157186*
X52613Y156603*
X52655Y156020*
X52822Y155611*
X53030Y155261*
X53280Y155028*
X53613Y154853*
X54447*
X50930D02*
G01Y158353D01*
X51430Y157653*
Y154853D02*
G01X50430D01*
X49122Y157770D02*
G01X48872Y158120D01*
X48580Y158295*
X48246Y158353*
X47830Y158236*
X47538Y157945*
X47455Y157595*
X47497Y157245*
X47663Y156953*
X48497Y156370*
X48872Y155961*
X49122Y155378*
X49205Y154853*
X47455*
X48630Y203300D02*
G01Y206800D01*
X49130Y206100*
Y203300D02*
G01X48130D01*
X37047Y210300D02*
G01X36797Y209892D01*
X36463Y209658*
X36088Y209600*
X35755Y209658*
X35422Y209950*
X35213Y210300*
X35172Y210650*
X35255Y211058*
X35547Y211350*
X35838Y211467*
X36213*
X35838D02*
G01X35588Y211642D01*
X35380Y211933*
X35297Y212283*
X35380Y212633*
X35588Y212925*
X35963Y213100*
X36338Y213042*
X36713Y212808*
X49422Y230317D02*
G01X49172Y230667D01*
X48880Y230842*
X48546Y230900*
X48130Y230783*
X47838Y230492*
X47755Y230142*
X47797Y229792*
X47963Y229500*
X48797Y228917*
X49172Y228508*
X49422Y227925*
X49505Y227400*
X47755*
X61847Y129283D02*
G01X58347D01*
Y128242*
X58522Y127908*
X58755Y127700*
X59222Y127617*
X59688Y127700*
X59980Y127950*
X60155Y128242*
Y129283*
Y128242D02*
G01X61847Y127617D01*
X61147Y126767D02*
G01X61555Y126517D01*
X61788Y126183*
X61847Y125808*
X61788Y125475*
X61497Y125142*
X61147Y124933*
X60797Y124892*
X60388Y124975*
X60097Y125267*
X59980Y125558*
Y125933*
Y125558D02*
G01X59805Y125308D01*
X59513Y125100*
X59163Y125017*
X58813Y125100*
X58522Y125308*
X58347Y125683*
X58405Y126058*
X58638Y126433*
X61847Y123333D02*
G01X61088Y123250D01*
X60447Y123125*
X59863Y122958*
X59222Y122750*
X58347Y122417*
Y124083*
X55847Y129283D02*
G01X52347D01*
Y128242*
X52522Y127908*
X52755Y127700*
X53222Y127617*
X53688Y127700*
X53980Y127950*
X54155Y128242*
Y129283*
Y128242D02*
G01X55847Y127617D01*
X55147Y126767D02*
G01X55555Y126517D01*
X55788Y126183*
X55847Y125808*
X55788Y125475*
X55497Y125142*
X55147Y124933*
X54797Y124892*
X54388Y124975*
X54097Y125267*
X53980Y125558*
Y125933*
Y125558D02*
G01X53805Y125308D01*
X53513Y125100*
X53163Y125017*
X52813Y125100*
X52522Y125308*
X52347Y125683*
X52405Y126058*
X52638Y126433*
X55847Y123250D02*
G01X55788Y122958D01*
X55613Y122625*
X55322Y122417*
X54913Y122333*
X54505Y122417*
X54155Y122667*
X53980Y123042*
Y123458*
X53863Y123708*
X53572Y123917*
X53163Y124000*
X52755Y123875*
X52463Y123583*
X52347Y123250*
X52463Y122917*
X52755Y122625*
X53163Y122500*
X53572Y122583*
X53863Y122792*
X53980Y123042*
Y123458*
X54155Y123833*
X54505Y124083*
X54913Y124167*
X55322Y124083*
X55613Y123875*
X55788Y123542*
X55847Y123250*
X73780Y133800D02*
G01X74113Y133858D01*
X74405Y134092*
X74655Y134442*
X74822Y134850*
X74905Y135317*
Y135783*
X74822Y136250*
X74655Y136658*
X74405Y137008*
X74113Y137242*
X73780Y137300*
X73447Y137242*
X73155Y137008*
X72905Y136658*
X72738Y136250*
X72655Y135783*
Y135317*
X72738Y134850*
X72905Y134442*
X73155Y134092*
X73447Y133858*
X73780Y133800*
X73447Y134733D02*
G01X72947Y133800D01*
X71972Y135258D02*
G01X71680Y135667D01*
X71430Y135900*
X71096Y136017*
X70805Y135900*
X70597Y135667*
X70430Y135317*
X70388Y134908*
X70430Y134558*
X70597Y134208*
X70847Y133917*
X71138Y133800*
X71472Y133917*
X71763Y134267*
X71930Y134792*
X71972Y135375*
X71888Y136133*
X71763Y136542*
X71555Y136950*
X71263Y137242*
X70972Y137300*
X70680Y137183*
X70472Y136892*
X53360Y147950D02*
G01X49360Y144200D01*
X54160Y147950D02*
G01X48660D01*
X49360Y151700D02*
G01X53360Y147950D01*
Y144200D02*
G01Y151700D01*
X49360D02*
G01Y144200D01*
X68230Y206200D02*
G01X75230D01*
Y213200*
X68230Y206200D02*
G01X67230D01*
Y213200*
Y215200D02*
G01Y222200D01*
X75230*
Y215200*
X74463Y223650D02*
G01Y227150D01*
X73422*
X73088Y226975*
X72880Y226742*
X72797Y226275*
X72880Y225808*
X73130Y225517*
X73422Y225342*
X74463*
X73422D02*
G01X72797Y223650D01*
X71822Y226567D02*
G01X71572Y226917D01*
X71280Y227092*
X70946Y227150*
X70530Y227033*
X70238Y226742*
X70155Y226392*
X70197Y226042*
X70363Y225750*
X71197Y225167*
X71572Y224758*
X71822Y224175*
X71905Y223650*
X70155*
X69222Y225108D02*
G01X68930Y225517D01*
X68680Y225750*
X68347Y225867*
X68055Y225750*
X67847Y225517*
X67680Y225167*
X67638Y224758*
X67680Y224408*
X67847Y224058*
X68097Y223767*
X68388Y223650*
X68722Y223767*
X69013Y224117*
X69180Y224642*
X69222Y225225*
X69138Y225983*
X69013Y226392*
X68805Y226800*
X68513Y227092*
X68222Y227150*
X67930Y227033*
X67722Y226742*
X118447Y12500D02*
G01Y16000D01*
X117614*
X117281Y15825*
X117031Y15592*
X116822Y15242*
X116656Y14833*
X116614Y14250*
X116656Y13667*
X116822Y13258*
X117031Y12908*
X117281Y12675*
X117614Y12500*
X118447*
X115556Y14075D02*
G01X114222D01*
X114347Y14483*
X114556Y14717*
X114847Y14833*
X115139Y14775*
X115389Y14600*
X115556Y14192*
X115639Y13842*
Y13492*
X115556Y13142*
X115347Y12792*
X115097Y12558*
X114806Y12500*
X114514Y12617*
X114222Y12967*
X112956Y12908D02*
G01X112747Y12675D01*
X112456Y12500*
X112206*
X111956Y12617*
X111789Y12792*
X111706Y13025*
X111747Y13375*
X111914Y13550*
X112664Y13900*
X112831Y14308*
X112747Y14600*
X112581Y14775*
X112330Y14833*
X112080Y14775*
X111831Y14600*
X109731Y14833D02*
G01Y12500D01*
Y15767D02*
G01X109814Y15825D01*
Y15942*
X109731Y16000*
X109647Y15942*
Y15825*
X109731Y15767*
X107714Y11625D02*
G01X107422Y11392D01*
X107089Y11333*
X106797Y11392*
X106547Y11683*
X106381Y12092*
Y14833*
Y14367D02*
G01X106547Y14600D01*
X106797Y14775*
X107089Y14833*
X107422Y14717*
X107630Y14483*
X107797Y14075*
X107880Y13667*
X107839Y13317*
X107672Y12908*
X107422Y12617*
X107089Y12500*
X106839Y12558*
X106547Y12792*
X106381Y13025*
X105239Y12500D02*
G01Y14833D01*
Y14250D02*
G01X105072Y14542D01*
X104822Y14775*
X104489Y14833*
X104197Y14775*
X103947Y14542*
X103822Y14133*
Y12500*
X100080D02*
G01Y16000D01*
Y14250D02*
G01X99872Y14600D01*
X99622Y14775*
X99372Y14833*
X98997Y14717*
X98747Y14483*
X98580Y14075*
Y13608*
X98664Y13142*
X98830Y12792*
X99122Y12558*
X99372Y12500*
X99622Y12558*
X99872Y12733*
X100080Y13025*
X97606Y11450D02*
G01X97356Y11333D01*
X97022Y11450*
X96814Y11683*
X96647Y11975*
X96397Y12908*
X95856Y14833*
X97189D02*
G01X96397Y12908D01*
X92406Y12500D02*
G01Y16000D01*
X90656D02*
G01Y12500D01*
Y14250D02*
G01X92406D01*
X88930Y16000D02*
G01Y12500D01*
X89889Y16000D02*
G01X87972D01*
X87164Y12500D02*
G01Y16000D01*
X86122*
X85789Y15825*
X85580Y15592*
X85497Y15125*
X85580Y14658*
X85830Y14367*
X86122Y14192*
X87164*
X86122D02*
G01X85497Y12500D01*
X100047Y32450D02*
G01X99214D01*
Y31400*
X99464Y31050*
X99756Y30817*
X100172Y30700*
X100589Y30817*
X100881Y31050*
X101131Y31400*
X101297Y31808*
X101381Y32275*
Y32683*
X101297Y33033*
X101131Y33442*
X100881Y33792*
X100631Y34025*
X100297Y34200*
X100006*
X99672Y34083*
X99422Y33850*
X98739Y30700D02*
G01X97697Y34200D01*
X96656Y30700*
X97031Y31925D02*
G01X98364D01*
X95097Y34200D02*
G01Y30700D01*
X96056Y34200D02*
G01X94139D01*
X91664Y30700D02*
G01X93331D01*
Y34200*
X91664*
X92331Y32508D02*
G01X93331D01*
X91147Y34200D02*
G01X90564Y30700D01*
X89897Y34200*
X89231Y30700*
X88647Y34200*
X88339Y30700D02*
G01X87297Y34200D01*
X86256Y30700*
X86631Y31925D02*
G01X87964D01*
X84697Y30700D02*
G01Y32275D01*
X85531Y34200*
X83864D02*
G01X84697Y32275D01*
X105816Y27717D02*
G01X105566Y28067D01*
X105274Y28242*
X104941Y28300*
X104524Y28183*
X104233Y27892*
X104149Y27542*
X104191Y27192*
X104358Y26900*
X105191Y26317*
X105566Y25908*
X105816Y25325*
X105899Y24800*
X104149*
X103133Y25208D02*
G01X102841Y24917D01*
X102508Y24800*
X102175Y24917*
X101883Y25267*
X101674Y25792*
X101591Y26317*
Y26958*
X101674Y27483*
X101883Y27950*
X102133Y28183*
X102424Y28300*
X102758Y28183*
X103008Y27950*
X103174Y27600*
X103258Y27133*
X103174Y26725*
X102966Y26317*
X102716Y26083*
X102424Y26025*
X102091Y26142*
X101841Y26433*
X101591Y26958*
X100575Y24683D02*
G01X99074Y28300D01*
X97224D02*
G01X97558Y28183D01*
X97808Y27892*
X97974Y27542*
X98100Y27075*
X98141Y26550*
X98100Y26025*
X97974Y25558*
X97808Y25208*
X97558Y24917*
X97224Y24800*
X96891Y24917*
X96641Y25208*
X96475Y25558*
X96350Y26025*
X96308Y26550*
X96350Y27075*
X96475Y27542*
X96641Y27892*
X96891Y28183*
X97224Y28300*
X94624Y24800D02*
G01X94333Y24858D01*
X94000Y25033*
X93791Y25325*
X93708Y25733*
X93791Y26142*
X94041Y26492*
X94416Y26667*
X94833*
X95083Y26783*
X95291Y27075*
X95374Y27483*
X95250Y27892*
X94958Y28183*
X94624Y28300*
X94291Y28183*
X94000Y27892*
X93874Y27483*
X93958Y27075*
X94166Y26783*
X94416Y26667*
X94833*
X95208Y26492*
X95458Y26142*
X95541Y25733*
X95458Y25325*
X95250Y25033*
X94916Y24858*
X94624Y24800*
X92774Y24683D02*
G01X91274Y28300D01*
X90216Y27717D02*
G01X89966Y28067D01*
X89674Y28242*
X89341Y28300*
X88924Y28183*
X88633Y27892*
X88550Y27542*
X88591Y27192*
X88758Y26900*
X89591Y26317*
X89966Y25908*
X90216Y25325*
X90300Y24800*
X88550*
X86824Y28300D02*
G01X87158Y28183D01*
X87408Y27892*
X87574Y27542*
X87700Y27075*
X87741Y26550*
X87700Y26025*
X87574Y25558*
X87408Y25208*
X87158Y24917*
X86824Y24800*
X86491Y24917*
X86241Y25208*
X86074Y25558*
X85950Y26025*
X85908Y26550*
X85950Y27075*
X86074Y27542*
X86241Y27892*
X86491Y28183*
X86824Y28300*
X85016Y27717D02*
G01X84766Y28067D01*
X84474Y28242*
X84141Y28300*
X83724Y28183*
X83433Y27892*
X83350Y27542*
X83391Y27192*
X83558Y26900*
X84391Y26317*
X84766Y25908*
X85016Y25325*
X85100Y24800*
X83350*
X82541Y25325D02*
G01X82291Y25033D01*
X82000Y24858*
X81624Y24800*
X81250Y24917*
X80958Y25150*
X80750Y25558*
X80708Y26025*
X80791Y26492*
X81000Y26783*
X81291Y27017*
X81583Y27075*
X81874Y27017*
X82250Y26783*
X82124Y28300*
X81000*
X95986Y19500D02*
G01X95736Y19092D01*
X95402Y18858*
X95027Y18800*
X94694Y18858*
X94361Y19150*
X94152Y19500*
X94111Y19850*
X94194Y20258*
X94486Y20550*
X94778Y20667*
X95152*
X94778D02*
G01X94527Y20842D01*
X94319Y21133*
X94236Y21483*
X94319Y21833*
X94527Y22125*
X94902Y22300*
X95277Y22242*
X95652Y22008*
X92469Y18683D02*
G01X92552Y18742D01*
Y18858*
X92469Y18917*
X92386Y18858*
Y18742*
X92469Y18683*
X90786Y19500D02*
G01X90536Y19092D01*
X90202Y18858*
X89827Y18800*
X89494Y18858*
X89161Y19150*
X88952Y19500*
X88911Y19850*
X88994Y20258*
X89286Y20550*
X89578Y20667*
X89952*
X89578D02*
G01X89327Y20842D01*
X89119Y21133*
X89036Y21483*
X89119Y21833*
X89327Y22125*
X89702Y22300*
X90077Y22242*
X90452Y22008*
X96230Y129383D02*
G01X92730D01*
Y128342*
X92905Y128008*
X93138Y127800*
X93605Y127717*
X94072Y127800*
X94363Y128050*
X94538Y128342*
Y129383*
Y128342D02*
G01X96230Y127717D01*
Y125450D02*
G01X92730D01*
X95238Y126992*
Y124908*
X96230Y122850D02*
G01X92730D01*
X95238Y124392*
Y122308*
X95006Y154853D02*
G01Y158353D01*
X94173*
X93840Y158178*
X93590Y157945*
X93381Y157595*
X93215Y157186*
X93173Y156603*
X93215Y156020*
X93381Y155611*
X93590Y155261*
X93840Y155028*
X94173Y154853*
X95006*
X91490D02*
G01Y158353D01*
X91990Y157653*
Y154853D02*
G01X90990D01*
X88390D02*
G01Y158353D01*
X89931Y155845*
X87848*
X93919Y147950D02*
G01X89919Y144200D01*
X94719Y147950D02*
G01X89219D01*
X89919Y151700D02*
G01X93919Y147950D01*
Y144200D02*
G01Y151700D01*
X89919D02*
G01Y144200D01*
X89922Y186283D02*
G01X89746Y186533D01*
X89630Y186825*
Y187158*
X89805Y187533*
X90097Y187825*
X90447Y188033*
X91030Y188200*
X91555Y188242*
X92080Y188158*
X92430Y188033*
X92780Y187783*
X93013Y187492*
X93130Y187200*
Y186908*
X93013Y186617*
X92838Y186367*
X92605Y186158*
X90213Y185392D02*
G01X89863Y185142D01*
X89688Y184850*
X89630Y184517*
X89746Y184100*
X90038Y183808*
X90388Y183725*
X90738Y183767*
X91030Y183933*
X91613Y184767*
X92022Y185142*
X92605Y185392*
X93130Y185475*
Y183725*
X92430Y182917D02*
G01X92838Y182667D01*
X93072Y182333*
X93130Y181958*
X93072Y181625*
X92780Y181292*
X92430Y181083*
X92080Y181042*
X91672Y181125*
X91380Y181417*
X91263Y181708*
Y182083*
Y181708D02*
G01X91088Y181458D01*
X90797Y181250*
X90447Y181167*
X90097Y181250*
X89805Y181458*
X89630Y181833*
X89688Y182208*
X89922Y182583*
X99130Y188033D02*
G01X95630D01*
Y186992*
X95805Y186658*
X96038Y186450*
X96505Y186367*
X96972Y186450*
X97263Y186700*
X97438Y186992*
Y188033*
Y186992D02*
G01X99130Y186367D01*
X96213Y185392D02*
G01X95863Y185142D01*
X95688Y184850*
X95630Y184517*
X95746Y184100*
X96038Y183808*
X96388Y183725*
X96738Y183767*
X97030Y183933*
X97613Y184767*
X98022Y185142*
X98605Y185392*
X99130Y185475*
Y183725*
Y182083D02*
G01X98372Y182000D01*
X97730Y181875*
X97147Y181708*
X96505Y181500*
X95630Y181167*
Y182833*
X87280Y187733D02*
G01X83780D01*
Y186692*
X83955Y186358*
X84188Y186150*
X84655Y186067*
X85122Y186150*
X85413Y186400*
X85588Y186692*
Y187733*
Y186692D02*
G01X87280Y186067D01*
X84363Y185092D02*
G01X84013Y184842D01*
X83838Y184550*
X83780Y184217*
X83896Y183800*
X84188Y183508*
X84538Y183425*
X84888Y183467*
X85180Y183633*
X85763Y184467*
X86172Y184842*
X86755Y185092*
X87280Y185175*
Y183425*
Y181700D02*
G01X87222Y181408D01*
X87047Y181075*
X86755Y180867*
X86347Y180783*
X85938Y180867*
X85588Y181117*
X85413Y181492*
Y181908*
X85297Y182158*
X85005Y182367*
X84597Y182450*
X84188Y182325*
X83896Y182033*
X83780Y181700*
X83896Y181367*
X84188Y181075*
X84597Y180950*
X85005Y181033*
X85297Y181242*
X85413Y181492*
Y181908*
X85588Y182283*
X85938Y182533*
X86347Y182617*
X86755Y182533*
X87047Y182325*
X87222Y181992*
X87280Y181700*
X101851Y224541D02*
G01X102152Y224488D01*
X102441Y224364*
X102676Y224128*
X102818Y223739*
Y223327*
X102718Y222932*
X102423Y222402*
X102081Y222001*
X101651Y221689*
X101315Y221530*
X100891Y221459*
X100520Y221500*
X100231Y221624*
X100025Y221830*
X99901Y222119*
X99848Y222420*
X99866Y222732*
X101015Y224965D02*
G01X101085Y225389D01*
X101003Y225720*
X100808Y225996*
X100431Y226208*
X100019*
X99712Y226020*
X99494Y225743*
X99406Y225419*
X99583Y224417*
X99559Y223863*
X99323Y223274*
X99011Y222844*
X97774Y224081*
X99176Y226804D02*
G01X99247Y227228D01*
X99164Y227558*
X98970Y227835*
X98593Y228047*
X98180*
X97874Y227858*
X97656Y227582*
X97567Y227257*
X97744Y226256*
X97721Y225702*
X97485Y225112*
X97173Y224682*
X95935Y225920*
X85147Y225450D02*
G01Y222942D01*
X84980Y222417*
X84647Y222067*
X84230Y221950*
X83813Y222067*
X83480Y222417*
X83313Y222942*
Y225450*
X81713Y221950D02*
G01X81630Y222708D01*
X81505Y223350*
X81338Y223933*
X81130Y224575*
X80797Y225450*
X82463*
X123889Y30900D02*
G01Y34400D01*
X121972Y30900*
Y34400*
X119580Y30900D02*
G01Y33233D01*
Y32825D02*
G01X119747Y33058D01*
X119997Y33175*
X120289Y33233*
X120580Y33117*
X120831Y32883*
X120997Y32533*
X121081Y32067*
X120997Y31600*
X120831Y31250*
X120580Y31017*
X120289Y30900*
X119997Y30958*
X119747Y31133*
X119580Y31367*
X118980Y30900D02*
G01Y33233D01*
Y32592D02*
G01X118856Y32883D01*
X118647Y33117*
X118356Y33233*
X118064Y33117*
X117856Y32883*
X117730Y32592*
Y30900*
Y32592D02*
G01X117606Y32883D01*
X117397Y33117*
X117106Y33233*
X116814Y33117*
X116606Y32883*
X116481Y32533*
Y30900*
X115756Y32475D02*
G01X114422D01*
X114547Y32883*
X114756Y33117*
X115047Y33233*
X115339Y33175*
X115589Y33000*
X115756Y32592*
X115839Y32242*
Y31892*
X115756Y31542*
X115547Y31192*
X115297Y30958*
X115006Y30900*
X114714Y31017*
X114422Y31367*
X124147Y24700D02*
G01Y28200D01*
X123314*
X122980Y28025*
X122731Y27792*
X122522Y27442*
X122356Y27033*
X122314Y26450*
X122356Y25867*
X122522Y25458*
X122731Y25108*
X122980Y24875*
X123314Y24700*
X124147*
X119881D02*
G01Y27033D01*
Y26625D02*
G01X120047Y26858D01*
X120297Y26975*
X120589Y27033*
X120881Y26917*
X121131Y26683*
X121297Y26333*
X121380Y25867*
X121297Y25400*
X121131Y25050*
X120881Y24817*
X120589Y24700*
X120297Y24758*
X120047Y24933*
X119881Y25167*
X118031Y28200D02*
G01Y24700D01*
X118614Y27033D02*
G01X117447D01*
X116056Y26275D02*
G01X114722D01*
X114847Y26683*
X115056Y26917*
X115347Y27033*
X115639Y26975*
X115889Y26800*
X116056Y26392*
X116139Y26042*
Y25692*
X116056Y25342*
X115847Y24992*
X115597Y24758*
X115306Y24700*
X115014Y24817*
X114722Y25167*
X122372Y22300D02*
G01X121331Y18800D01*
X120289Y22300*
X119356Y20375D02*
G01X118022D01*
X118147Y20783*
X118356Y21017*
X118647Y21133*
X118939Y21075*
X119189Y20900*
X119356Y20492*
X119439Y20142*
Y19792*
X119356Y19442*
X119147Y19092*
X118897Y18858*
X118606Y18800*
X118314Y18917*
X118022Y19267*
X116714Y18800D02*
G01Y21133D01*
Y20667D02*
G01X116506Y20900D01*
X116297Y21075*
X116006Y21133*
X115797Y21075*
X115547Y20900*
X102230Y129383D02*
G01X98730D01*
Y128342*
X98905Y128008*
X99138Y127800*
X99605Y127717*
X100072Y127800*
X100363Y128050*
X100538Y128342*
Y129383*
Y128342D02*
G01X102230Y127717D01*
Y125450D02*
G01X98730D01*
X101238Y126992*
Y124908*
X101530Y124267D02*
G01X101938Y124017D01*
X102172Y123683*
X102230Y123308*
X102172Y122975*
X101880Y122642*
X101530Y122433*
X101180Y122392*
X100772Y122475*
X100480Y122767*
X100363Y123058*
Y123433*
Y123058D02*
G01X100188Y122808D01*
X99897Y122600*
X99547Y122517*
X99197Y122600*
X98905Y122808*
X98730Y123183*
X98788Y123558*
X99022Y123933*
X114338Y133800D02*
G01X114672Y133858D01*
X114963Y134092*
X115213Y134442*
X115380Y134850*
X115463Y135317*
Y135783*
X115380Y136250*
X115213Y136658*
X114963Y137008*
X114672Y137242*
X114338Y137300*
X114005Y137242*
X113713Y137008*
X113463Y136658*
X113297Y136250*
X113213Y135783*
Y135317*
X113297Y134850*
X113463Y134442*
X113713Y134092*
X114005Y133858*
X114338Y133800*
X114005Y134733D02*
G01X113505Y133800D01*
X112655Y134325D02*
G01X112405Y134033D01*
X112113Y133858*
X111738Y133800*
X111363Y133917*
X111072Y134150*
X110863Y134558*
X110822Y135025*
X110905Y135492*
X111113Y135783*
X111405Y136017*
X111697Y136075*
X111988Y136017*
X112363Y135783*
X112238Y137300*
X111113*
X107372Y196783D02*
G01X107196Y197033D01*
X107080Y197325*
Y197658*
X107255Y198033*
X107547Y198325*
X107897Y198533*
X108480Y198700*
X109005Y198742*
X109530Y198658*
X109880Y198533*
X110230Y198283*
X110463Y197992*
X110580Y197700*
Y197408*
X110463Y197117*
X110288Y196867*
X110055Y196658*
X107663Y195892D02*
G01X107313Y195642D01*
X107138Y195350*
X107080Y195017*
X107196Y194600*
X107488Y194308*
X107838Y194225*
X108188Y194267*
X108480Y194433*
X109063Y195267*
X109472Y195642*
X110055Y195892*
X110580Y195975*
Y194225*
Y192000D02*
G01X107080D01*
X109588Y193542*
Y191458*
X119847Y191950D02*
G01Y195450D01*
X119013*
X118680Y195275*
X118430Y195042*
X118222Y194692*
X118055Y194283*
X118013Y193700*
X118055Y193117*
X118222Y192708*
X118430Y192358*
X118680Y192125*
X119013Y191950*
X119847*
X117038Y192358D02*
G01X116747Y192067D01*
X116413Y191950*
X116080Y192067*
X115788Y192417*
X115580Y192942*
X115497Y193467*
Y194108*
X115580Y194633*
X115788Y195100*
X116038Y195333*
X116330Y195450*
X116663Y195333*
X116913Y195100*
X117080Y194750*
X117163Y194283*
X117080Y193875*
X116872Y193467*
X116622Y193233*
X116330Y193175*
X115997Y193292*
X115747Y193583*
X115497Y194108*
X118280Y212630D02*
G01X122030Y208630D01*
X118280Y213430D02*
G01Y207930D01*
X114530Y208630D02*
G01X118280Y212630D01*
X122030D02*
G01X114530D01*
Y208630D02*
G01X122030D01*
X99630Y229500D02*
G03X118630Y229500I9500J7281D01*
Y244500D02*
G03X99630Y244500I-9500J-7750D01*
X142788Y129383D02*
G01X139288D01*
Y128342*
X139463Y128008*
X139697Y127800*
X140163Y127717*
X140630Y127800*
X140922Y128050*
X141097Y128342*
Y129383*
Y128342D02*
G01X142788Y127717D01*
Y125450D02*
G01X139288D01*
X141797Y126992*
Y124908*
X139288Y123350D02*
G01X139405Y123683D01*
X139697Y123933*
X140047Y124100*
X140513Y124225*
X141038Y124267*
X141563Y124225*
X142030Y124100*
X142380Y123933*
X142672Y123683*
X142788Y123350*
X142672Y123017*
X142380Y122767*
X142030Y122600*
X141563Y122475*
X141038Y122433*
X140513Y122475*
X140047Y122600*
X139697Y122767*
X139405Y123017*
X139288Y123350*
X136788Y129383D02*
G01X133288D01*
Y128342*
X133463Y128008*
X133697Y127800*
X134163Y127717*
X134630Y127800*
X134922Y128050*
X135097Y128342*
Y129383*
Y128342D02*
G01X136788Y127717D01*
Y125450D02*
G01X133288D01*
X135797Y126992*
Y124908*
X136788Y123350D02*
G01X133288D01*
X133988Y123850*
X136788D02*
G01Y122850D01*
X135566Y154853D02*
G01Y158353D01*
X134733*
X134399Y158178*
X134150Y157945*
X133941Y157595*
X133774Y157186*
X133733Y156603*
X133774Y156020*
X133941Y155611*
X134150Y155261*
X134399Y155028*
X134733Y154853*
X135566*
X132050D02*
G01Y158353D01*
X132550Y157653*
Y154853D02*
G01X131550D01*
X130366Y155553D02*
G01X130116Y155145D01*
X129783Y154911*
X129408Y154853*
X129074Y154911*
X128741Y155203*
X128533Y155553*
X128491Y155903*
X128574Y156311*
X128866Y156603*
X129158Y156720*
X129533*
X129158D02*
G01X128908Y156895D01*
X128699Y157186*
X128616Y157536*
X128699Y157886*
X128908Y158178*
X129283Y158353*
X129658Y158295*
X130033Y158061*
X134479Y147950D02*
G01X130479Y144200D01*
X135279Y147950D02*
G01X129779D01*
X130479Y151700D02*
G01X134479Y147950D01*
Y144200D02*
G01Y151700D01*
X130479D02*
G01Y144200D01*
X136172Y203483D02*
G01X135996Y203733D01*
X135880Y204025*
Y204358*
X136055Y204733*
X136347Y205025*
X136697Y205233*
X137280Y205400*
X137805Y205442*
X138330Y205358*
X138680Y205233*
X139030Y204983*
X139263Y204692*
X139380Y204400*
Y204108*
X139263Y203817*
X139088Y203567*
X138855Y203358*
X139380Y201300D02*
G01X135880D01*
X138388Y202842*
Y200758*
X147280Y200417D02*
G01X143780D01*
Y199583*
X143955Y199250*
X144188Y199000*
X144538Y198792*
X144947Y198625*
X145530Y198583*
X146113Y198625*
X146522Y198792*
X146872Y199000*
X147105Y199250*
X147280Y199583*
Y200417*
Y196400D02*
G01X143780D01*
X146288Y197942*
Y195858*
X142930Y213500D02*
G01X145330Y211100D01*
X147830Y213600*
X142930*
X145330Y216200D02*
G01Y208800D01*
X129763Y239850D02*
G01Y236350D01*
X128097*
X126330D02*
G01Y239850D01*
X126830Y239150*
Y236350D02*
G01X125830D01*
X154988Y133700D02*
G01X155322Y133758D01*
X155613Y133992*
X155863Y134342*
X156030Y134750*
X156113Y135217*
Y135683*
X156030Y136150*
X155863Y136558*
X155613Y136908*
X155322Y137142*
X154988Y137200*
X154655Y137142*
X154363Y136908*
X154113Y136558*
X153947Y136150*
X153863Y135683*
Y135217*
X153947Y134750*
X154113Y134342*
X154363Y133992*
X154655Y133758*
X154988Y133700*
X154655Y134633D02*
G01X154155Y133700D01*
X152472D02*
G01X152388Y134458D01*
X152263Y135100*
X152097Y135683*
X151888Y136325*
X151555Y137200*
X153222*
X176126Y154853D02*
G01Y158353D01*
X175293*
X174959Y158178*
X174709Y157945*
X174501Y157595*
X174334Y157186*
X174293Y156603*
X174334Y156020*
X174501Y155611*
X174709Y155261*
X174959Y155028*
X175293Y154853*
X176126*
X172609D02*
G01Y158353D01*
X173109Y157653*
Y154853D02*
G01X172109D01*
X170926Y155378D02*
G01X170676Y155086D01*
X170384Y154911*
X170009Y154853*
X169634Y154970*
X169343Y155203*
X169134Y155611*
X169093Y156078*
X169176Y156545*
X169384Y156836*
X169676Y157070*
X169968Y157128*
X170259Y157070*
X170634Y156836*
X170509Y158353*
X169384*
X175039Y147950D02*
G01X171039Y144200D01*
X175839Y147950D02*
G01X170339D01*
X171039Y151700D02*
G01X175039Y147950D01*
X171039Y151700D02*
G01Y144200D01*
X169247Y189550D02*
G01Y187042D01*
X169080Y186517*
X168747Y186167*
X168330Y186050*
X167913Y186167*
X167580Y186517*
X167413Y187042*
Y189550*
X166522Y188967D02*
G01X166272Y189317D01*
X165980Y189492*
X165646Y189550*
X165230Y189433*
X164938Y189142*
X164855Y188792*
X164897Y188442*
X165063Y188150*
X165897Y187567*
X166272Y187158*
X166522Y186575*
X166605Y186050*
X164855*
X154780Y205233D02*
G01X151280D01*
Y204192*
X151455Y203858*
X151688Y203650*
X152155Y203567*
X152622Y203650*
X152913Y203900*
X153088Y204192*
Y205233*
Y204192D02*
G01X154780Y203567D01*
Y201883D02*
G01X154022Y201800D01*
X153380Y201675*
X152797Y201508*
X152155Y201300*
X151280Y200967*
Y202633*
X156363Y231608D02*
G01X156613Y231783D01*
X156905Y231900*
X157238*
X157613Y231725*
X157905Y231433*
X158113Y231083*
X158280Y230500*
X158322Y229975*
X158238Y229450*
X158113Y229100*
X157863Y228750*
X157572Y228517*
X157280Y228400*
X156988*
X156697Y228517*
X156447Y228692*
X156238Y228925*
X155597Y229100D02*
G01X155347Y228692D01*
X155013Y228458*
X154638Y228400*
X154305Y228458*
X153972Y228750*
X153763Y229100*
X153722Y229450*
X153805Y229858*
X154097Y230150*
X154388Y230267*
X154763*
X154388D02*
G01X154138Y230442D01*
X153930Y230733*
X153847Y231083*
X153930Y231433*
X154138Y231725*
X154513Y231900*
X154888Y231842*
X155263Y231608*
X158113Y234400D02*
G01Y237900D01*
X157072*
X156738Y237725*
X156530Y237492*
X156447Y237025*
X156530Y236558*
X156780Y236267*
X157072Y236092*
X158113*
X157072D02*
G01X156447Y234400D01*
X155472Y235858D02*
G01X155180Y236267D01*
X154930Y236500*
X154596Y236617*
X154305Y236500*
X154097Y236267*
X153930Y235917*
X153888Y235508*
X153930Y235158*
X154097Y234808*
X154347Y234517*
X154638Y234400*
X154972Y234517*
X155263Y234867*
X155430Y235392*
X155472Y235975*
X155388Y236733*
X155263Y237142*
X155055Y237550*
X154763Y237842*
X154472Y237900*
X154180Y237783*
X153972Y237492*
X174680Y245833D02*
G01X171180D01*
Y244792*
X171355Y244458*
X171588Y244250*
X172055Y244167*
X172522Y244250*
X172813Y244500*
X172988Y244792*
Y245833*
Y244792D02*
G01X174680Y244167D01*
X171763Y243192D02*
G01X171413Y242942D01*
X171238Y242650*
X171180Y242317*
X171296Y241900*
X171588Y241608*
X171938Y241525*
X172288Y241567*
X172580Y241733*
X173163Y242567*
X173572Y242942*
X174155Y243192*
X174680Y243275*
Y241525*
X171180Y239800D02*
G01X171296Y240133D01*
X171588Y240383*
X171938Y240550*
X172405Y240675*
X172930Y240717*
X173455Y240675*
X173922Y240550*
X174272Y240383*
X174563Y240133*
X174680Y239800*
X174563Y239467*
X174272Y239217*
X173922Y239050*
X173455Y238925*
X172930Y238883*
X172405Y238925*
X171938Y239050*
X171588Y239217*
X171296Y239467*
X171180Y239800*
X198583Y41500D02*
G01Y45000D01*
X197542*
X197208Y44825*
X197000Y44592*
X196917Y44125*
X197000Y43658*
X197250Y43367*
X197542Y43192*
X198583*
X197542D02*
G01X196917Y41500D01*
X196067Y42200D02*
G01X195817Y41792D01*
X195483Y41558*
X195108Y41500*
X194775Y41558*
X194442Y41850*
X194233Y42200*
X194192Y42550*
X194275Y42958*
X194567Y43250*
X194858Y43367*
X195233*
X194858D02*
G01X194608Y43542D01*
X194400Y43833*
X194317Y44183*
X194400Y44533*
X194608Y44825*
X194983Y45000*
X195358Y44942*
X195733Y44708*
X192550Y41500D02*
G01Y45000D01*
X193050Y44300*
Y41500D02*
G01X192050D01*
X198583Y47600D02*
G01Y51100D01*
X197542*
X197208Y50925*
X197000Y50692*
X196917Y50225*
X197000Y49758*
X197250Y49467*
X197542Y49292*
X198583*
X197542D02*
G01X196917Y47600D01*
X196067Y48125D02*
G01X195817Y47833D01*
X195525Y47658*
X195150Y47600*
X194775Y47717*
X194483Y47950*
X194275Y48358*
X194233Y48825*
X194317Y49292*
X194525Y49583*
X194817Y49817*
X195108Y49875*
X195400Y49817*
X195775Y49583*
X195650Y51100*
X194525*
X192050Y47600D02*
G01Y51100D01*
X193592Y48592*
X191508*
X193322Y113033D02*
G01X193146Y113283D01*
X193030Y113575*
Y113908*
X193205Y114283*
X193497Y114575*
X193847Y114783*
X194430Y114950*
X194955Y114992*
X195480Y114908*
X195830Y114783*
X196180Y114533*
X196413Y114242*
X196530Y113950*
Y113658*
X196413Y113367*
X196238Y113117*
X196005Y112908*
X193613Y112142D02*
G01X193263Y111892D01*
X193088Y111600*
X193030Y111267*
X193146Y110850*
X193438Y110558*
X193788Y110475*
X194138Y110517*
X194430Y110683*
X195013Y111517*
X195422Y111892*
X196005Y112142*
X196530Y112225*
Y110475*
X196005Y109667D02*
G01X196297Y109417D01*
X196472Y109125*
X196530Y108750*
X196413Y108375*
X196180Y108083*
X195772Y107875*
X195305Y107833*
X194838Y107917*
X194547Y108125*
X194313Y108417*
X194255Y108708*
X194313Y109000*
X194547Y109375*
X193030Y109250*
Y108125*
X183438Y129283D02*
G01X179938D01*
Y128242*
X180113Y127908*
X180347Y127700*
X180813Y127617*
X181280Y127700*
X181572Y127950*
X181747Y128242*
Y129283*
Y128242D02*
G01X183438Y127617D01*
Y125350D02*
G01X179938D01*
X182447Y126892*
Y124808*
X181980Y124042D02*
G01X181572Y123750D01*
X181338Y123500*
X181222Y123167*
X181338Y122875*
X181572Y122667*
X181922Y122500*
X182330Y122458*
X182680Y122500*
X183030Y122667*
X183322Y122917*
X183438Y123208*
X183322Y123542*
X182972Y123833*
X182447Y124000*
X181863Y124042*
X181105Y123958*
X180697Y123833*
X180288Y123625*
X179997Y123333*
X179938Y123042*
X180055Y122750*
X180347Y122542*
X177438Y129283D02*
G01X173938D01*
Y128242*
X174113Y127908*
X174347Y127700*
X174813Y127617*
X175280Y127700*
X175572Y127950*
X175747Y128242*
Y129283*
Y128242D02*
G01X177438Y127617D01*
Y125350D02*
G01X173938D01*
X176447Y126892*
Y124808*
X177438Y123333D02*
G01X176680Y123250D01*
X176038Y123125*
X175455Y122958*
X174813Y122750*
X173938Y122417*
Y124083*
X200947Y141450D02*
G01Y138942D01*
X200780Y138417*
X200447Y138067*
X200030Y137950*
X199613Y138067*
X199280Y138417*
X199113Y138942*
Y141450*
X197430Y137950D02*
G01X197138Y138008D01*
X196805Y138183*
X196597Y138475*
X196513Y138883*
X196597Y139292*
X196847Y139642*
X197222Y139817*
X197638*
X197888Y139933*
X198097Y140225*
X198180Y140633*
X198055Y141042*
X197763Y141333*
X197430Y141450*
X197097Y141333*
X196805Y141042*
X196680Y140633*
X196763Y140225*
X196972Y139933*
X197222Y139817*
X197638*
X198013Y139642*
X198263Y139292*
X198347Y138883*
X198263Y138475*
X198055Y138183*
X197722Y138008*
X197430Y137950*
X175039Y144200D02*
G01Y151700D01*
X194497Y192300D02*
G01Y195800D01*
X193663*
X193330Y195625*
X193080Y195392*
X192872Y195042*
X192705Y194633*
X192663Y194050*
X192705Y193467*
X192872Y193058*
X193080Y192708*
X193330Y192475*
X193663Y192300*
X194497*
X190980D02*
G01Y195800D01*
X191480Y195100*
Y192300D02*
G01X190480D01*
X189172Y193758D02*
G01X188880Y194167D01*
X188630Y194400*
X188296Y194517*
X188005Y194400*
X187797Y194167*
X187630Y193817*
X187588Y193408*
X187630Y193058*
X187797Y192708*
X188047Y192417*
X188338Y192300*
X188672Y192417*
X188963Y192767*
X189130Y193292*
X189172Y193875*
X189088Y194633*
X188963Y195042*
X188755Y195450*
X188463Y195742*
X188172Y195800*
X187880Y195683*
X187672Y195392*
X190230Y184400D02*
G01X192630Y186800D01*
X190130Y189300*
Y184400*
X187530Y186800D02*
G01X194930D01*
X194180Y217633D02*
G01X190680D01*
Y216592*
X190855Y216258*
X191088Y216050*
X191555Y215967*
X192022Y216050*
X192313Y216300*
X192488Y216592*
Y217633*
Y216592D02*
G01X194180Y215967D01*
X193480Y215117D02*
G01X193888Y214867D01*
X194122Y214533*
X194180Y214158*
X194122Y213825*
X193830Y213492*
X193480Y213283*
X193130Y213242*
X192722Y213325*
X192430Y213617*
X192313Y213908*
Y214283*
Y213908D02*
G01X192138Y213658D01*
X191847Y213450*
X191497Y213367*
X191147Y213450*
X190855Y213658*
X190680Y214033*
X190738Y214408*
X190972Y214783*
X195780Y207133D02*
G01X192280D01*
Y206092*
X192455Y205758*
X192688Y205550*
X193155Y205467*
X193622Y205550*
X193913Y205800*
X194088Y206092*
Y207133*
Y206092D02*
G01X195780Y205467D01*
X192863Y204492D02*
G01X192513Y204242D01*
X192338Y203950*
X192280Y203617*
X192396Y203200*
X192688Y202908*
X193038Y202825*
X193388Y202867*
X193680Y203033*
X194263Y203867*
X194672Y204242*
X195255Y204492*
X195780Y204575*
Y202825*
Y201100D02*
G01X192280D01*
X192980Y201600*
X195780D02*
G01Y200600D01*
X196063Y226708D02*
G01X196313Y226883D01*
X196605Y227000*
X196938*
X197313Y226825*
X197605Y226533*
X197813Y226183*
X197980Y225600*
X198022Y225075*
X197938Y224550*
X197813Y224200*
X197563Y223850*
X197272Y223617*
X196980Y223500*
X196688*
X196397Y223617*
X196147Y223792*
X195938Y224025*
X195172Y226417D02*
G01X194922Y226767D01*
X194630Y226942*
X194296Y227000*
X193880Y226883*
X193588Y226592*
X193505Y226242*
X193547Y225892*
X193713Y225600*
X194547Y225017*
X194922Y224608*
X195172Y224025*
X195255Y223500*
X193505*
X201113Y234000D02*
G01Y237500D01*
X200072*
X199738Y237325*
X199530Y237092*
X199447Y236625*
X199530Y236158*
X199780Y235867*
X200072Y235692*
X201113*
X200072D02*
G01X199447Y234000D01*
X197680D02*
G01X197388Y234058D01*
X197055Y234233*
X196847Y234525*
X196763Y234933*
X196847Y235342*
X197097Y235692*
X197472Y235867*
X197888*
X198138Y235983*
X198347Y236275*
X198430Y236683*
X198305Y237092*
X198013Y237383*
X197680Y237500*
X197347Y237383*
X197055Y237092*
X196930Y236683*
X197013Y236275*
X197222Y235983*
X197472Y235867*
X197888*
X198263Y235692*
X198513Y235342*
X198597Y234933*
X198513Y234525*
X198305Y234233*
X197972Y234058*
X197680Y234000*
X195113D02*
G01Y237500D01*
X194072*
X193738Y237325*
X193530Y237092*
X193447Y236625*
X193530Y236158*
X193780Y235867*
X194072Y235692*
X195113*
X194072D02*
G01X193447Y234000D01*
X192388Y234408D02*
G01X192097Y234117D01*
X191763Y234000*
X191430Y234117*
X191138Y234467*
X190930Y234992*
X190847Y235517*
Y236158*
X190930Y236683*
X191138Y237150*
X191388Y237383*
X191680Y237500*
X192013Y237383*
X192263Y237150*
X192430Y236800*
X192513Y236333*
X192430Y235925*
X192222Y235517*
X191972Y235283*
X191680Y235225*
X191347Y235342*
X191097Y235633*
X190847Y236158*
X200997Y244100D02*
G01Y247600D01*
X200163*
X199830Y247425*
X199580Y247192*
X199372Y246842*
X199205Y246433*
X199163Y245850*
X199205Y245267*
X199372Y244858*
X199580Y244508*
X199830Y244275*
X200163Y244100*
X200997*
X198397Y244625D02*
G01X198147Y244333D01*
X197855Y244158*
X197480Y244100*
X197105Y244217*
X196813Y244450*
X196605Y244858*
X196563Y245325*
X196647Y245792*
X196855Y246083*
X197147Y246317*
X197438Y246375*
X197730Y246317*
X198105Y246083*
X197980Y247600*
X196855*
X194997Y244100D02*
G01Y247600D01*
X194163*
X193830Y247425*
X193580Y247192*
X193371Y246842*
X193205Y246433*
X193163Y245850*
X193205Y245267*
X193371Y244858*
X193580Y244508*
X193830Y244275*
X194163Y244100*
X194997*
X192272Y245558D02*
G01X191980Y245967D01*
X191730Y246200*
X191396Y246317*
X191105Y246200*
X190897Y245967*
X190730Y245617*
X190688Y245208*
X190730Y244858*
X190897Y244508*
X191147Y244217*
X191438Y244100*
X191772Y244217*
X192063Y244567*
X192230Y245092*
X192272Y245675*
X192188Y246433*
X192063Y246842*
X191855Y247250*
X191563Y247542*
X191272Y247600*
X190980Y247483*
X190772Y247192*
X205383Y80258D02*
G01X205633Y80433D01*
X205925Y80550*
X206258*
X206633Y80375*
X206925Y80083*
X207133Y79733*
X207300Y79150*
X207342Y78625*
X207258Y78100*
X207133Y77750*
X206883Y77400*
X206592Y77167*
X206300Y77050*
X206008*
X205717Y77167*
X205467Y77342*
X205258Y77575*
X204617Y77750D02*
G01X204367Y77342D01*
X204033Y77108*
X203658Y77050*
X203325Y77108*
X202992Y77400*
X202783Y77750*
X202742Y78100*
X202825Y78508*
X203117Y78800*
X203408Y78917*
X203783*
X203408D02*
G01X203158Y79092D01*
X202950Y79383*
X202867Y79733*
X202950Y80083*
X203158Y80375*
X203533Y80550*
X203908Y80492*
X204283Y80258*
X201100Y80550D02*
G01X201433Y80433D01*
X201683Y80142*
X201850Y79792*
X201975Y79325*
X202017Y78800*
X201975Y78275*
X201850Y77808*
X201683Y77458*
X201433Y77167*
X201100Y77050*
X200767Y77167*
X200517Y77458*
X200350Y77808*
X200225Y78275*
X200183Y78800*
X200225Y79325*
X200350Y79792*
X200517Y80142*
X200767Y80433*
X201100Y80550*
X205183Y74258D02*
G01X205433Y74433D01*
X205725Y74550*
X206058*
X206433Y74375*
X206725Y74083*
X206933Y73733*
X207100Y73150*
X207142Y72625*
X207058Y72100*
X206933Y71750*
X206683Y71400*
X206392Y71167*
X206100Y71050*
X205808*
X205517Y71167*
X205267Y71342*
X205058Y71575*
X204417Y71750D02*
G01X204167Y71342D01*
X203833Y71108*
X203458Y71050*
X203125Y71108*
X202792Y71400*
X202583Y71750*
X202542Y72100*
X202625Y72508*
X202917Y72800*
X203208Y72917*
X203583*
X203208D02*
G01X202958Y73092D01*
X202750Y73383*
X202667Y73733*
X202750Y74083*
X202958Y74375*
X203333Y74550*
X203708Y74492*
X204083Y74258*
X201692Y73967D02*
G01X201442Y74317D01*
X201150Y74492*
X200817Y74550*
X200400Y74433*
X200108Y74142*
X200025Y73792*
X200067Y73442*
X200233Y73150*
X201067Y72567*
X201442Y72158*
X201692Y71575*
X201775Y71050*
X200025*
X200642Y91283D02*
G01X200467Y91533D01*
X200350Y91825*
Y92158*
X200525Y92533*
X200817Y92825*
X201167Y93033*
X201750Y93200*
X202275Y93242*
X202800Y93158*
X203150Y93033*
X203500Y92783*
X203733Y92492*
X203850Y92200*
Y91908*
X203733Y91617*
X203558Y91367*
X203325Y91158*
X203150Y90517D02*
G01X203558Y90267D01*
X203792Y89933*
X203850Y89558*
X203792Y89225*
X203500Y88892*
X203150Y88683*
X202800Y88642*
X202392Y88725*
X202100Y89017*
X201983Y89308*
Y89683*
Y89308D02*
G01X201808Y89058D01*
X201517Y88850*
X201167Y88767*
X200817Y88850*
X200525Y89058*
X200350Y89433*
X200408Y89808*
X200642Y90183*
X203150Y87917D02*
G01X203558Y87667D01*
X203792Y87333*
X203850Y86958*
X203792Y86625*
X203500Y86292*
X203150Y86083*
X202800Y86042*
X202392Y86125*
X202100Y86417*
X201983Y86708*
Y87083*
Y86708D02*
G01X201808Y86458D01*
X201517Y86250*
X201167Y86167*
X200817Y86250*
X200525Y86458*
X200350Y86833*
X200408Y87208*
X200642Y87583*
X199322Y113033D02*
G01X199146Y113283D01*
X199030Y113575*
Y113908*
X199205Y114283*
X199497Y114575*
X199847Y114783*
X200430Y114950*
X200955Y114992*
X201480Y114908*
X201830Y114783*
X202180Y114533*
X202413Y114242*
X202530Y113950*
Y113658*
X202413Y113367*
X202238Y113117*
X202005Y112908*
X199613Y112142D02*
G01X199263Y111892D01*
X199088Y111600*
X199030Y111267*
X199146Y110850*
X199438Y110558*
X199788Y110475*
X200138Y110517*
X200430Y110683*
X201013Y111517*
X201422Y111892*
X202005Y112142*
X202530Y112225*
Y110475*
X201072Y109542D02*
G01X200663Y109250D01*
X200430Y109000*
X200313Y108667*
X200430Y108375*
X200663Y108167*
X201013Y108000*
X201422Y107958*
X201772Y108000*
X202122Y108167*
X202413Y108417*
X202530Y108708*
X202413Y109042*
X202063Y109333*
X201538Y109500*
X200955Y109542*
X200197Y109458*
X199788Y109333*
X199380Y109125*
X199088Y108833*
X199030Y108542*
X199146Y108250*
X199438Y108042*
X217417Y98950D02*
G01Y96442D01*
X217250Y95917*
X216917Y95567*
X216500Y95450*
X216083Y95567*
X215750Y95917*
X215583Y96442*
Y98950*
X214608Y95858D02*
G01X214317Y95567D01*
X213983Y95450*
X213650Y95567*
X213358Y95917*
X213150Y96442*
X213067Y96967*
Y97608*
X213150Y98133*
X213358Y98600*
X213608Y98833*
X213900Y98950*
X214233Y98833*
X214483Y98600*
X214650Y98250*
X214733Y97783*
X214650Y97375*
X214442Y96967*
X214192Y96733*
X213900Y96675*
X213567Y96792*
X213317Y97083*
X213067Y97608*
X208005Y119950D02*
G01X207755Y119542D01*
X207421Y119308*
X207046Y119250*
X206713Y119308*
X206380Y119600*
X206171Y119950*
X206130Y120300*
X206213Y120708*
X206505Y121000*
X206796Y121117*
X207171*
X206796D02*
G01X206546Y121292D01*
X206338Y121583*
X206255Y121933*
X206338Y122283*
X206546Y122575*
X206921Y122750*
X207296Y122692*
X207671Y122458*
X216148Y122167D02*
G01X215898Y122517D01*
X215606Y122692*
X215272Y122750*
X214856Y122633*
X214564Y122342*
X214481Y121992*
X214523Y121642*
X214689Y121350*
X215523Y120767*
X215898Y120358*
X216148Y119775*
X216231Y119250*
X214481*
X212563Y161050D02*
G01Y164550D01*
X211522*
X211188Y164375*
X210980Y164142*
X210897Y163675*
X210980Y163208*
X211230Y162917*
X211522Y162742*
X212563*
X211522D02*
G01X210897Y161050D01*
X209130D02*
G01Y164550D01*
X209630Y163850*
Y161050D02*
G01X208630D01*
X218530Y166800D02*
G01Y173800D01*
X211530*
X218530Y166800D02*
G01Y165800D01*
X211530*
X209530D02*
G01X202530D01*
Y173800*
X209530*
X213897Y192300D02*
G01Y195800D01*
X213063*
X212730Y195625*
X212480Y195392*
X212272Y195042*
X212105Y194633*
X212063Y194050*
X212105Y193467*
X212272Y193058*
X212480Y192708*
X212730Y192475*
X213063Y192300*
X213897*
X210380D02*
G01Y195800D01*
X210880Y195100*
Y192300D02*
G01X209880D01*
X207780D02*
G01X207488Y192358D01*
X207155Y192533*
X206947Y192825*
X206863Y193233*
X206947Y193642*
X207197Y193992*
X207572Y194167*
X207988*
X208238Y194283*
X208447Y194575*
X208530Y194983*
X208405Y195392*
X208113Y195683*
X207780Y195800*
X207447Y195683*
X207155Y195392*
X207030Y194983*
X207113Y194575*
X207322Y194283*
X207572Y194167*
X207988*
X208363Y193992*
X208613Y193642*
X208697Y193233*
X208613Y192825*
X208405Y192533*
X208072Y192358*
X207780Y192300*
X209630Y184400D02*
G01X212030Y186800D01*
X209530Y189300*
Y184400*
X206930Y186800D02*
G01X214330D01*
X213563Y226208D02*
G01X213813Y226383D01*
X214105Y226500*
X214438*
X214813Y226325*
X215105Y226033*
X215313Y225683*
X215480Y225100*
X215522Y224575*
X215438Y224050*
X215313Y223700*
X215063Y223350*
X214772Y223117*
X214480Y223000*
X214188*
X213897Y223117*
X213647Y223292*
X213438Y223525*
X211880Y223000D02*
G01Y226500D01*
X212380Y225800*
Y223000D02*
G01X211380D01*
X224747Y225150D02*
G01Y222642D01*
X224580Y222117*
X224247Y221767*
X223830Y221650*
X223413Y221767*
X223080Y222117*
X222913Y222642*
Y225150*
X221230Y221650D02*
G01Y225150D01*
X221730Y224450*
Y221650D02*
G01X220730D01*
X242650Y43733D02*
G01X239150D01*
Y42692*
X239325Y42358*
X239558Y42150*
X240025Y42067*
X240492Y42150*
X240783Y42400*
X240958Y42692*
Y43733*
Y42692D02*
G01X242650Y42067D01*
X241950Y41217D02*
G01X242358Y40967D01*
X242592Y40633*
X242650Y40258*
X242592Y39925*
X242300Y39592*
X241950Y39383*
X241600Y39342*
X241192Y39425*
X240900Y39717*
X240783Y40008*
Y40383*
Y40008D02*
G01X240608Y39758D01*
X240317Y39550*
X239967Y39467*
X239617Y39550*
X239325Y39758*
X239150Y40133*
X239208Y40508*
X239442Y40883*
X242650Y37200D02*
G01X239150D01*
X241658Y38742*
Y36658*
X248550Y43533D02*
G01X245050D01*
Y42492*
X245225Y42158*
X245458Y41950*
X245925Y41867*
X246392Y41950*
X246683Y42200*
X246858Y42492*
Y43533*
Y42492D02*
G01X248550Y41867D01*
X247850Y41017D02*
G01X248258Y40767D01*
X248492Y40433*
X248550Y40058*
X248492Y39725*
X248200Y39392*
X247850Y39183*
X247500Y39142*
X247092Y39225*
X246800Y39517*
X246683Y39808*
Y40183*
Y39808D02*
G01X246508Y39558D01*
X246217Y39350*
X245867Y39267*
X245517Y39350*
X245225Y39558*
X245050Y39933*
X245108Y40308*
X245342Y40683*
X248025Y38417D02*
G01X248317Y38167D01*
X248492Y37875*
X248550Y37500*
X248433Y37125*
X248200Y36833*
X247792Y36625*
X247325Y36583*
X246858Y36667*
X246567Y36875*
X246333Y37167*
X246275Y37458*
X246333Y37750*
X246567Y38125*
X245050Y38000*
Y36875*
X246933Y64850D02*
G01Y68350D01*
X245892*
X245558Y68175*
X245350Y67942*
X245267Y67475*
X245350Y67008*
X245600Y66717*
X245892Y66542*
X246933*
X245892D02*
G01X245267Y64850D01*
X244292Y67767D02*
G01X244042Y68117D01*
X243750Y68292*
X243417Y68350*
X243000Y68233*
X242708Y67942*
X242625Y67592*
X242667Y67242*
X242833Y66950*
X243667Y66367*
X244042Y65958*
X244292Y65375*
X244375Y64850*
X242625*
X241817Y65375D02*
G01X241567Y65083D01*
X241275Y64908*
X240900Y64850*
X240525Y64967*
X240233Y65200*
X240025Y65608*
X239983Y66075*
X240067Y66542*
X240275Y66833*
X240567Y67067*
X240858Y67125*
X241150Y67067*
X241525Y66833*
X241400Y68350*
X240275*
X246933Y70850D02*
G01Y74350D01*
X245892*
X245558Y74175*
X245350Y73942*
X245267Y73475*
X245350Y73008*
X245600Y72717*
X245892Y72542*
X246933*
X245892D02*
G01X245267Y70850D01*
X244292Y73767D02*
G01X244042Y74117D01*
X243750Y74292*
X243417Y74350*
X243000Y74233*
X242708Y73942*
X242625Y73592*
X242667Y73242*
X242833Y72950*
X243667Y72367*
X244042Y71958*
X244292Y71375*
X244375Y70850*
X242625*
X241692Y73767D02*
G01X241442Y74117D01*
X241150Y74292*
X240817Y74350*
X240400Y74233*
X240108Y73942*
X240025Y73592*
X240067Y73242*
X240233Y72950*
X241067Y72367*
X241442Y71958*
X241692Y71375*
X241775Y70850*
X240025*
X224804Y119250D02*
G01Y122750D01*
X225304Y122050*
Y119250D02*
G01X224304D01*
X231922Y168433D02*
G01X231747Y168683D01*
X231630Y168975*
Y169308*
X231805Y169683*
X232097Y169975*
X232447Y170183*
X233030Y170350*
X233555Y170392*
X234080Y170308*
X234430Y170183*
X234780Y169933*
X235013Y169642*
X235130Y169350*
Y169058*
X235013Y168767*
X234838Y168517*
X234605Y168308*
X232213Y167542D02*
G01X231863Y167292D01*
X231688Y167000*
X231630Y166667*
X231747Y166250*
X232038Y165958*
X232388Y165875*
X232738Y165917*
X233030Y166083*
X233613Y166917*
X234022Y167292*
X234605Y167542*
X235130Y167625*
Y165875*
Y164233D02*
G01X234372Y164150D01*
X233730Y164025*
X233147Y163858*
X232505Y163650*
X231630Y163317*
Y164983*
X225822Y168433D02*
G01X225647Y168683D01*
X225530Y168975*
Y169308*
X225705Y169683*
X225997Y169975*
X226347Y170183*
X226930Y170350*
X227455Y170392*
X227980Y170308*
X228330Y170183*
X228680Y169933*
X228913Y169642*
X229030Y169350*
Y169058*
X228913Y168767*
X228738Y168517*
X228505Y168308*
X226113Y167542D02*
G01X225763Y167292D01*
X225588Y167000*
X225530Y166667*
X225647Y166250*
X225938Y165958*
X226288Y165875*
X226638Y165917*
X226930Y166083*
X227513Y166917*
X227922Y167292*
X228505Y167542*
X229030Y167625*
Y165875*
Y164150D02*
G01X228972Y163858D01*
X228797Y163525*
X228505Y163317*
X228097Y163233*
X227688Y163317*
X227338Y163567*
X227163Y163942*
Y164358*
X227047Y164608*
X226755Y164817*
X226347Y164900*
X225938Y164775*
X225647Y164483*
X225530Y164150*
X225647Y163817*
X225938Y163525*
X226347Y163400*
X226755Y163483*
X227047Y163692*
X227163Y163942*
Y164358*
X227338Y164733*
X227688Y164983*
X228097Y165067*
X228505Y164983*
X228797Y164775*
X228972Y164442*
X229030Y164150*
X243230Y165183D02*
G01X239730D01*
Y164142*
X239905Y163808*
X240138Y163600*
X240605Y163517*
X241072Y163600*
X241363Y163850*
X241538Y164142*
Y165183*
Y164142D02*
G01X243230Y163517D01*
X242705Y162667D02*
G01X242997Y162417D01*
X243172Y162125*
X243230Y161750*
X243113Y161375*
X242880Y161083*
X242472Y160875*
X242005Y160833*
X241538Y160917*
X241247Y161125*
X241013Y161417*
X240955Y161708*
X241013Y162000*
X241247Y162375*
X239730Y162250*
Y161125*
Y159150D02*
G01X239847Y159483D01*
X240138Y159733*
X240488Y159900*
X240955Y160025*
X241480Y160067*
X242005Y160025*
X242472Y159900*
X242822Y159733*
X243113Y159483*
X243230Y159150*
X243113Y158817*
X242822Y158567*
X242472Y158400*
X242005Y158275*
X241480Y158233*
X240955Y158275*
X240488Y158400*
X240138Y158567*
X239847Y158817*
X239730Y159150*
X249230Y165183D02*
G01X245730D01*
Y164142*
X245905Y163808*
X246138Y163600*
X246605Y163517*
X247072Y163600*
X247363Y163850*
X247538Y164142*
Y165183*
Y164142D02*
G01X249230Y163517D01*
X248705Y162667D02*
G01X248997Y162417D01*
X249172Y162125*
X249230Y161750*
X249113Y161375*
X248880Y161083*
X248472Y160875*
X248005Y160833*
X247538Y160917*
X247247Y161125*
X247013Y161417*
X246955Y161708*
X247013Y162000*
X247247Y162375*
X245730Y162250*
Y161125*
X249230Y159150D02*
G01X245730D01*
X246430Y159650*
X249230D02*
G01Y158650D01*
X236363Y193050D02*
G01Y196550D01*
X235322*
X234988Y196375*
X234780Y196142*
X234697Y195675*
X234780Y195208*
X235030Y194917*
X235322Y194742*
X236363*
X235322D02*
G01X234697Y193050D01*
X233847Y193575D02*
G01X233597Y193283D01*
X233305Y193108*
X232930Y193050*
X232555Y193167*
X232263Y193400*
X232055Y193808*
X232013Y194275*
X232097Y194742*
X232305Y195033*
X232597Y195267*
X232888Y195325*
X233180Y195267*
X233555Y195033*
X233430Y196550*
X232305*
X248647Y185250D02*
G01Y188750D01*
X247813*
X247480Y188575*
X247230Y188342*
X247022Y187992*
X246855Y187583*
X246813Y187000*
X246855Y186417*
X247022Y186008*
X247230Y185658*
X247480Y185425*
X247813Y185250*
X248647*
X245130D02*
G01Y188750D01*
X245630Y188050*
Y185250D02*
G01X244630D01*
X242613D02*
G01X242530Y186008D01*
X242405Y186650*
X242238Y187233*
X242030Y187875*
X241697Y188750*
X243363*
X231230Y189000D02*
G01X228830Y186600D01*
X231330Y184100*
Y189000*
X233930Y186600D02*
G01X226530D01*
X246013Y215000D02*
G01Y218500D01*
X244972*
X244638Y218325*
X244430Y218092*
X244347Y217625*
X244430Y217158*
X244680Y216867*
X244972Y216692*
X246013*
X244972D02*
G01X244347Y215000D01*
X243372Y217917D02*
G01X243122Y218267D01*
X242830Y218442*
X242497Y218500*
X242080Y218383*
X241788Y218092*
X241705Y217742*
X241747Y217392*
X241913Y217100*
X242747Y216517*
X243122Y216108*
X243372Y215525*
X243455Y215000*
X241705*
X245913Y209100D02*
G01Y212600D01*
X244872*
X244538Y212425*
X244330Y212192*
X244247Y211725*
X244330Y211258*
X244580Y210967*
X244872Y210792*
X245913*
X244872D02*
G01X244247Y209100D01*
X241980D02*
G01Y212600D01*
X243522Y210092*
X241438*
X258000Y37350D02*
G01X258333Y37408D01*
X258625Y37642*
X258875Y37992*
X259042Y38400*
X259125Y38867*
Y39333*
X259042Y39800*
X258875Y40208*
X258625Y40558*
X258333Y40792*
X258000Y40850*
X257667Y40792*
X257375Y40558*
X257125Y40208*
X256958Y39800*
X256875Y39333*
Y38867*
X256958Y38400*
X257125Y37992*
X257375Y37642*
X257667Y37408*
X258000Y37350*
X257667Y38283D02*
G01X257167Y37350D01*
X256317Y38050D02*
G01X256067Y37642D01*
X255733Y37408*
X255358Y37350*
X255025Y37408*
X254692Y37700*
X254483Y38050*
X254442Y38400*
X254525Y38808*
X254817Y39100*
X255108Y39217*
X255483*
X255108D02*
G01X254858Y39392D01*
X254650Y39683*
X254567Y40033*
X254650Y40383*
X254858Y40675*
X255233Y40850*
X255608Y40792*
X255983Y40558*
X270050Y36817D02*
G01X266550D01*
Y35983*
X266725Y35650*
X266958Y35400*
X267308Y35192*
X267717Y35025*
X268300Y34983*
X268883Y35025*
X269292Y35192*
X269642Y35400*
X269875Y35650*
X270050Y35983*
Y36817*
Y33300D02*
G01X266550D01*
X267250Y33800*
X270050D02*
G01Y32800D01*
Y30700D02*
G01X266550D01*
X267250Y31200*
X270050D02*
G01Y30200D01*
X259533Y65350D02*
G01Y68850D01*
X258492*
X258158Y68675*
X257950Y68442*
X257867Y67975*
X257950Y67508*
X258200Y67217*
X258492Y67042*
X259533*
X258492D02*
G01X257867Y65350D01*
X257017Y66050D02*
G01X256767Y65642D01*
X256433Y65408*
X256058Y65350*
X255725Y65408*
X255392Y65700*
X255183Y66050*
X255142Y66400*
X255225Y66808*
X255517Y67100*
X255808Y67217*
X256183*
X255808D02*
G01X255558Y67392D01*
X255350Y67683*
X255267Y68033*
X255350Y68383*
X255558Y68675*
X255933Y68850*
X256308Y68792*
X256683Y68558*
X254417Y66050D02*
G01X254167Y65642D01*
X253833Y65408*
X253458Y65350*
X253125Y65408*
X252792Y65700*
X252583Y66050*
X252542Y66400*
X252625Y66808*
X252917Y67100*
X253208Y67217*
X253583*
X253208D02*
G01X252958Y67392D01*
X252750Y67683*
X252667Y68033*
X252750Y68383*
X252958Y68675*
X253333Y68850*
X253708Y68792*
X254083Y68558*
X270600Y49000D02*
G01X268200Y51400D01*
X265700Y48900*
X270600*
X268200Y46300D02*
G01Y53700D01*
X255230Y165183D02*
G01X251730D01*
Y164142*
X251905Y163808*
X252138Y163600*
X252605Y163517*
X253072Y163600*
X253363Y163850*
X253538Y164142*
Y165183*
Y164142D02*
G01X255230Y163517D01*
X254705Y162667D02*
G01X254997Y162417D01*
X255172Y162125*
X255230Y161750*
X255113Y161375*
X254880Y161083*
X254472Y160875*
X254005Y160833*
X253538Y160917*
X253247Y161125*
X253013Y161417*
X252955Y161708*
X253013Y162000*
X253247Y162375*
X251730Y162250*
Y161125*
X252313Y159942D02*
G01X251963Y159692D01*
X251788Y159400*
X251730Y159067*
X251847Y158650*
X252138Y158358*
X252488Y158275*
X252838Y158317*
X253130Y158483*
X253713Y159317*
X254122Y159692*
X254705Y159942*
X255230Y160025*
Y158275*
X261230Y165183D02*
G01X257730D01*
Y164142*
X257905Y163808*
X258138Y163600*
X258605Y163517*
X259072Y163600*
X259363Y163850*
X259538Y164142*
Y165183*
Y164142D02*
G01X261230Y163517D01*
X260705Y162667D02*
G01X260997Y162417D01*
X261172Y162125*
X261230Y161750*
X261113Y161375*
X260880Y161083*
X260472Y160875*
X260005Y160833*
X259538Y160917*
X259247Y161125*
X259013Y161417*
X258955Y161708*
X259013Y162000*
X259247Y162375*
X257730Y162250*
Y161125*
X260530Y160067D02*
G01X260938Y159817D01*
X261172Y159483*
X261230Y159108*
X261172Y158775*
X260880Y158442*
X260530Y158233*
X260180Y158192*
X259772Y158275*
X259480Y158567*
X259363Y158858*
Y159233*
Y158858D02*
G01X259188Y158608D01*
X258897Y158400*
X258547Y158317*
X258197Y158400*
X257905Y158608*
X257730Y158983*
X257788Y159358*
X258022Y159733*
X277483Y35867D02*
G01X277308Y35700D01*
X277017Y35575*
X276608Y35492*
X276258Y35575*
X276025Y35742*
X275850Y36033*
Y37158*
X279350*
Y35783*
X279117Y35492*
X278767Y35325*
X278358Y35242*
X277950Y35325*
X277600Y35575*
X277483Y35867*
Y37158*
X279350Y33600D02*
G01X275850D01*
X276550Y34100*
X279350D02*
G01Y33100D01*
X295730Y98383D02*
G01X292230D01*
Y97342*
X292405Y97008*
X292638Y96800*
X293105Y96717*
X293572Y96800*
X293863Y97050*
X294038Y97342*
Y98383*
Y97342D02*
G01X295730Y96717D01*
Y94950D02*
G01X292230D01*
X292930Y95450*
X295730D02*
G01Y94450D01*
X292230Y92350D02*
G01X292346Y92683D01*
X292638Y92933*
X292988Y93100*
X293455Y93225*
X293980Y93267*
X294505Y93225*
X294972Y93100*
X295322Y92933*
X295613Y92683*
X295730Y92350*
X295613Y92017*
X295322Y91767*
X294972Y91600*
X294505Y91475*
X293980Y91433*
X293455Y91475*
X292988Y91600*
X292638Y91767*
X292346Y92017*
X292230Y92350*
X289730Y98383D02*
G01X286230D01*
Y97342*
X286405Y97008*
X286638Y96800*
X287105Y96717*
X287572Y96800*
X287863Y97050*
X288038Y97342*
Y98383*
Y97342D02*
G01X289730Y96717D01*
Y94950D02*
G01X286230D01*
X286930Y95450*
X289730D02*
G01Y94450D01*
X289030Y93267D02*
G01X289438Y93017D01*
X289672Y92683*
X289730Y92308*
X289672Y91975*
X289380Y91642*
X289030Y91433*
X288680Y91392*
X288272Y91475*
X287980Y91767*
X287863Y92058*
Y92433*
Y92058D02*
G01X287688Y91808D01*
X287397Y91600*
X287047Y91517*
X286697Y91600*
X286405Y91808*
X286230Y92183*
X286288Y92558*
X286522Y92933*
X285172Y233483D02*
G01X284996Y233733D01*
X284880Y234025*
Y234358*
X285055Y234733*
X285347Y235025*
X285697Y235233*
X286280Y235400*
X286805Y235442*
X287330Y235358*
X287680Y235233*
X288030Y234983*
X288263Y234692*
X288380Y234400*
Y234108*
X288263Y233817*
X288088Y233567*
X287855Y233358*
X288380Y231800D02*
G01X284880D01*
X285580Y232300*
X288380D02*
G01Y231300D01*
X285463Y229992D02*
G01X285113Y229742D01*
X284938Y229450*
X284880Y229117*
X284996Y228700*
X285288Y228408*
X285638Y228325*
X285988Y228367*
X286280Y228533*
X286863Y229367*
X287272Y229742*
X287855Y229992*
X288380Y230075*
Y228325*
X349387Y47217D02*
G01X349212Y47050D01*
X348920Y46925*
X348512Y46842*
X348162Y46925*
X347928Y47092*
X347753Y47383*
Y48508*
X351253*
Y47133*
X351020Y46842*
X350670Y46675*
X350262Y46592*
X349853Y46675*
X349503Y46925*
X349387Y47217*
Y48508*
X351253Y44950D02*
G01X351195Y45283D01*
X350962Y45575*
X350612Y45825*
X350203Y45992*
X349737Y46075*
X349270*
X348803Y45992*
X348395Y45825*
X348045Y45575*
X347812Y45283*
X347753Y44950*
X347812Y44617*
X348045Y44325*
X348395Y44075*
X348803Y43908*
X349270Y43825*
X349737*
X350203Y43908*
X350612Y44075*
X350962Y44325*
X351195Y44617*
X351253Y44950*
Y42350D02*
G01X351195Y42683D01*
X350962Y42975*
X350612Y43225*
X350203Y43392*
X349737Y43475*
X349270*
X348803Y43392*
X348395Y43225*
X348045Y42975*
X347812Y42683*
X347753Y42350*
X347812Y42017*
X348045Y41725*
X348395Y41475*
X348803Y41308*
X349270Y41225*
X349737*
X350203Y41308*
X350612Y41475*
X350962Y41725*
X351195Y42017*
X351253Y42350*
X347753Y39750D02*
G01X351253D01*
X347753Y40708D02*
G01Y38792D01*
X351178Y215483D02*
G01X347678D01*
Y214442*
X347853Y214108*
X348086Y213900*
X348552Y213817*
X349019Y213900*
X349311Y214150*
X349486Y214442*
Y215483*
Y214442D02*
G01X351178Y213817D01*
Y211217D02*
G01Y212883D01*
X347678*
Y211217*
X349369Y211883D02*
G01Y212883D01*
X350711Y210325D02*
G01X351002Y209992D01*
X351178Y209617*
Y209283*
X351002Y208950*
X350711Y208700*
X350302Y208575*
X349894Y208658*
X349544Y208867*
X349311Y209242*
X349194Y209742*
X348961Y210033*
X348552Y210158*
X348144Y210075*
X347853Y209867*
X347678Y209575*
Y209283*
X347794Y208992*
X348086Y208742*
X351178Y206017D02*
G01Y207683D01*
X347678*
Y206017*
X349369Y206683D02*
G01Y207683D01*
X347678Y204250D02*
G01X351178D01*
X347678Y205208D02*
G01Y203292D01*
G54D66*
X189195Y241482D02*
G01X189589D01*
Y251718*
X189195*
X184668Y241482D02*
G01X184471D01*
Y251718*
X184864*
X183195Y241482D02*
G01X183589D01*
Y251718*
X183195*
X178668Y241482D02*
G01X178471D01*
Y251718*
X178864*
X188802Y247781D02*
G01X185258D01*
X188802Y245616D02*
G01X187030Y247387D01*
X185258Y245616*
X188802*
X188408Y246009*
X186046*
X186439Y246403*
X187817*
X187424Y246797*
X186833*
X182802Y247781D02*
G01X179258D01*
X182802Y245616D02*
G01X181030Y247387D01*
X179258Y245616*
X182802*
X182408Y246009*
X180046*
X180439Y246403*
X181817*
X181424Y246797*
X180833*
G54D67*
X61666Y142585D02*
G01X41194D01*
X61666Y153215D02*
G01X41194D01*
X102225Y142585D02*
G01X81754D01*
X102225Y153215D02*
G01X81754D01*
X92930Y193644D02*
G01X89930D01*
X92930Y194856D02*
G01X89930D01*
X91430Y195037D02*
G01Y195825D01*
Y192675D02*
G01Y193463D01*
X142785Y142585D02*
G01X122314D01*
X142785Y153215D02*
G01X122314D01*
X107430Y205806D02*
G01X110430D01*
X107430Y204594D02*
G01X110430D01*
X108930Y204413D02*
G01Y203625D01*
Y206775D02*
G01Y205987D01*
X110430Y215594D02*
G01X107430D01*
X110430Y216806D02*
G01X107430D01*
X108930Y216987D02*
G01Y217775D01*
Y214625D02*
G01Y215413D01*
X113015Y220936D02*
G01Y200464D01*
X136230Y213006D02*
G01X139230D01*
X136230Y211794D02*
G01X139230D01*
X137730Y211613D02*
G01Y210825D01*
Y213975D02*
G01Y213187D01*
X123645Y220936D02*
G01Y200464D01*
X183345Y142585D02*
G01X162874D01*
X183345Y153215D02*
G01X162874D01*
X163924Y228600D02*
G01Y231600D01*
X165136Y228600D02*
G01Y231600D01*
X165317Y230100D02*
G01X166105D01*
X162955D02*
G01X163743D01*
X193530Y123006D02*
G01X196530D01*
X193530Y121794D02*
G01X196530D01*
X195030Y121613D02*
G01Y120825D01*
Y123975D02*
G01Y123187D01*
X213406Y80300D02*
G01Y77300D01*
X212194Y80300D02*
G01Y77300D01*
X212013Y78800D02*
G01X211225D01*
X214375D02*
G01X213587D01*
X212194Y71300D02*
G01Y74300D01*
X213406Y71300D02*
G01Y74300D01*
X213587Y72800D02*
G01X214375D01*
X211225D02*
G01X212013D01*
X206300Y90406D02*
G01X209300D01*
X206300Y89194D02*
G01X209300D01*
X207800Y89013D02*
G01Y88225D01*
Y91375D02*
G01Y90587D01*
X199530Y123006D02*
G01X202530D01*
X199530Y121794D02*
G01X202530D01*
X201030Y121613D02*
G01Y120825D01*
Y123975D02*
G01Y123187D01*
X209030Y227094D02*
G01X206030D01*
X209030Y228306D02*
G01X206030D01*
X207530Y228487D02*
G01Y229275D01*
Y226125D02*
G01Y226913D01*
X203030Y227094D02*
G01X200030D01*
X203030Y228306D02*
G01X200030D01*
X201530Y228487D02*
G01Y229275D01*
Y226125D02*
G01Y226913D01*
X235330Y155694D02*
G01X232330D01*
X235330Y156906D02*
G01X232330D01*
X233830Y157087D02*
G01Y157875D01*
Y154725D02*
G01Y155513D01*
X229230Y155694D02*
G01X226230D01*
X229230Y156906D02*
G01X226230D01*
X227730Y157087D02*
G01Y157875D01*
Y154725D02*
G01Y155513D01*
X285330Y241294D02*
G01X288330D01*
X286830Y241113D02*
G01Y240325D01*
X285330Y242506D02*
G01X288330D01*
X286830Y243475D02*
G01Y242687D01*
G54D68*
X62312Y130582D02*
G01X62706D01*
Y140818*
X62312*
X57785Y130582D02*
G01X57588D01*
Y140818*
X57982*
X56312Y130582D02*
G01X56706D01*
Y140818*
X56312*
X51785Y130582D02*
G01X51588D01*
Y140818*
X51982*
X96795Y130782D02*
G01X97189D01*
Y141018*
X96795*
X92268Y130782D02*
G01X92071D01*
Y141018*
X92465*
X93202Y189132D02*
G01X93989D01*
Y199368*
X93202*
X89658Y189132D02*
G01X88871D01*
Y199368*
X89658*
X95068Y189132D02*
G01X94871D01*
Y199368*
X95265*
X83265D02*
G01X82871D01*
Y189132*
X83265*
X87792Y199368D02*
G01X87989D01*
Y189132*
X87595*
X102795Y130782D02*
G01X103189D01*
Y141018*
X102795*
X98268Y130782D02*
G01X98071D01*
Y141018*
X98465*
X99595Y189132D02*
G01X99989D01*
Y199368*
X99595*
X107158Y210318D02*
G01X106371D01*
Y200082*
X107158*
X110702Y210318D02*
G01X111489D01*
Y200082*
X110702*
Y211082D02*
G01X111489D01*
Y221318*
X110702*
X107158Y211082D02*
G01X106371D01*
Y221318*
X107158*
X143353Y130782D02*
G01X143747D01*
Y141018*
X143353*
X138826Y130782D02*
G01X138629D01*
Y141018*
X139023*
X137353Y130782D02*
G01X137747D01*
Y141018*
X137353*
X132826Y130782D02*
G01X132629D01*
Y141018*
X133023*
X135958Y217518D02*
G01X135171D01*
Y207282*
X135958*
X139502Y217518D02*
G01X140289D01*
Y207282*
X139502*
X150565Y217518D02*
G01X150171D01*
Y207282*
X150565*
X155092Y217518D02*
G01X155289D01*
Y207282*
X154895*
X159412Y228328D02*
G01Y227541D01*
X169648*
Y228328*
X159412Y231872D02*
G01Y232659D01*
X169648*
Y231872*
X159412Y233935D02*
G01Y233541D01*
X169648*
Y233935*
X159412Y238462D02*
G01Y238659D01*
X169648*
Y238265*
X170768Y227782D02*
G01X170571D01*
Y238018*
X170965*
X193258Y127518D02*
G01X192471D01*
Y117282*
X193258*
X196802Y127518D02*
G01X197589D01*
Y117282*
X196802*
X184003Y130682D02*
G01X184397D01*
Y140918*
X184003*
X179477Y130682D02*
G01X179279D01*
Y140918*
X179673*
X178003Y130682D02*
G01X178397D01*
Y140918*
X178003*
X173476Y130682D02*
G01X173279D01*
Y140918*
X173673*
X195565Y218618D02*
G01X195171D01*
Y208382*
X195565*
X190795Y201082D02*
G01X191189D01*
Y211318*
X190795*
X186268Y201082D02*
G01X186071D01*
Y211318*
X186465*
X189195Y230482D02*
G01X189589D01*
Y240718*
X189195*
X184668Y230482D02*
G01X184471D01*
Y240718*
X184865*
X183195Y230482D02*
G01X183589D01*
Y240718*
X183195*
X178668Y230482D02*
G01X178471D01*
Y240718*
X178865*
X175295Y227782D02*
G01X175689D01*
Y238018*
X175295*
X200182Y41535D02*
G01Y41141D01*
X210418*
Y41535*
X200182Y46062D02*
G01Y46259D01*
X210418*
Y45865*
X200182Y47635D02*
G01Y47241D01*
X210418*
Y47635*
X200182Y52162D02*
G01Y52359D01*
X210418*
Y51965*
X217918Y80572D02*
G01Y81359D01*
X207682*
Y80572*
X217918Y77028D02*
G01Y76241D01*
X207682*
Y77028*
Y71028D02*
G01Y70241D01*
X217918*
Y71028*
X207682Y74572D02*
G01Y75359D01*
X217918*
Y74572*
X206028Y94918D02*
G01X205241D01*
Y84682*
X206028*
X209572Y94918D02*
G01X210359D01*
Y84682*
X209572*
X199258Y127518D02*
G01X198471D01*
Y117282*
X199258*
X202802Y127518D02*
G01X203589D01*
Y117282*
X202802*
X220812Y192535D02*
G01Y192141D01*
X231048*
Y192535*
X200092Y218618D02*
G01X200289D01*
Y208382*
X199895*
X220812Y197062D02*
G01Y197259D01*
X231048*
Y196865*
X209302Y222582D02*
G01X210089D01*
Y232818*
X209302*
X205758Y222582D02*
G01X204971D01*
Y232818*
X205758*
X203302Y222582D02*
G01X204089D01*
Y232818*
X203302*
X199758Y222582D02*
G01X198971D01*
Y232818*
X199758*
X228782Y64135D02*
G01Y63741D01*
X239018*
Y64135*
X238635Y55218D02*
G01X238241D01*
Y44982*
X238635*
X243162Y55218D02*
G01X243359D01*
Y44982*
X242965*
X244438D02*
G01X244241D01*
Y55218*
X244635*
X239018Y74265D02*
G01Y74659D01*
X228782*
Y74265*
X239018Y69738D02*
G01Y69541D01*
X228782*
Y69935*
Y68662D02*
G01Y68859D01*
X239018*
Y68465*
X235602Y151182D02*
G01X236389D01*
Y161418*
X235602*
X232058Y151182D02*
G01X231271D01*
Y161418*
X232058*
X229502Y151182D02*
G01X230289D01*
Y161418*
X229502*
X225958Y151182D02*
G01X225171D01*
Y161418*
X225958*
X243795Y166182D02*
G01X244189D01*
Y176418*
X243795*
X239268Y166182D02*
G01X239071D01*
Y176418*
X239465*
X245268Y166182D02*
G01X245071D01*
Y176418*
X245465*
X240248Y214638D02*
G01Y214441D01*
X230012*
Y214835*
Y208835D02*
G01Y208441D01*
X240248*
Y208835*
X230012Y213362D02*
G01Y213559D01*
X240248*
Y213165*
Y219165D02*
G01Y219559D01*
X230012*
Y219165*
X251282Y59035D02*
G01Y58641D01*
X261518*
Y59035*
X251282Y63562D02*
G01Y63759D01*
X261518*
Y63365*
X248965Y44982D02*
G01X249359D01*
Y55218*
X248965*
X249795Y166182D02*
G01X250189D01*
Y176418*
X249795*
X255795Y166182D02*
G01X256189D01*
Y176418*
X255795*
X251268Y166182D02*
G01X251071D01*
Y176418*
X251465*
X261795Y166182D02*
G01X262189D01*
Y176418*
X261795*
X257268Y166182D02*
G01X257071D01*
Y176418*
X257465*
X296195Y99682D02*
G01X296589D01*
Y109918*
X296195*
X291668Y99682D02*
G01X291471D01*
Y109918*
X291865*
X290195Y99682D02*
G01X290589D01*
Y109918*
X290195*
X285668Y99682D02*
G01X285471D01*
Y109918*
X285865*
X285058Y247018D02*
G01X284271D01*
Y236782*
X285058*
X288602Y247018D02*
G01X289389D01*
Y236782*
X288602*
G54D69*
X127339Y245858D02*
G03X127339Y245858I-492D01*
X184233Y227410D02*
G03X184233Y227410I-492D01*
X218265Y106298D02*
G03X218265Y106298I-492D01*
X228120Y219927D02*
G03X228120Y219927I-492D01*
G54D74*
X98172Y201054D02*
G01Y220346D01*
X85574*
Y201054*
X98172*
X178229Y192174D02*
G01Y226426D01*
X165631*
Y192174*
X178229*
X238246Y99999D02*
G01X218954D01*
Y87401*
X238246*
Y99999*
X221329Y199454D02*
G01Y218746D01*
X208731*
Y199454*
X221329*
X293076Y68289D02*
G03X282525Y60690I4832J-17834D01*
X282524D02*
G01X273548D01*
Y39588*
X282485*
Y39588D02*
G03X293194Y31832I16853J11998D01*
X303194Y31872D02*
G03X303076Y68328I-5354J18211D01*
G54D75*
X66686Y147900D02*
G03X66686Y147900I-492D01*
X107245D02*
G03X107245Y147900I-492D01*
X118822Y225464D02*
G03X118822Y225464I-492D01*
X147805Y147900D02*
G03X147805Y147900I-492D01*
X188365D02*
G03X188365Y147900I-492D01*
M02*
