G04 CAM350/DFMSTREAM V12.1 (Build 1022) Date:  Fri Aug 29 15:05:26 2025 *
G04 Database: (Untitled) *
G04 Layer 8: SOLDERMASK_TOP.art *
%FSLAX25Y25*%
%MOIN*%
%SFA1.000B1.000*%

%MIA0B0*%
%IPPOS*%
%ADD10C,0.09449*%
%ADD31C,0.04330*%
%ADD90R,0.15300X0.07400*%
%ADD91R,0.07400X0.15300*%
%ADD92R,0.17300X0.07400*%
%ADD95R,0.06100X0.04600*%
%ADD96R,0.04600X0.06100*%
%ADD97R,0.06500X0.05500*%
%ADD98C,0.03400*%
%ADD99R,0.05500X0.06500*%
%ADD100C,0.03600*%
%ADD101C,0.08100*%
%ADD102C,0.07200*%
%ADD103C,0.08200*%
%ADD104R,0.03500X0.03500*%
%ADD105R,0.08200X0.08200*%
%ADD106O,0.04921X0.09252*%
%ADD109O,0.04921X0.08071*%
%ADD110R,0.03740X0.02560*%
%ADD111R,0.02560X0.03740*%
%ADD113R,0.06800X0.16500*%
%ADD114R,0.09600X0.15600*%
%ADD115R,0.12205X0.07480*%
%ADD116R,0.01600X0.04100*%
%ADD117R,0.04100X0.01600*%
%ADD118R,0.13600X0.13600*%
%ADD119R,0.06800X0.04400*%
%ADD120R,0.04600X0.04600*%
%ADD121R,0.04331X0.04331*%
%ADD122R,0.09450X0.08070*%
%ADD123C,0.04130*%
%ADD124R,0.02756X0.05315*%
%ADD125R,0.05720X0.06510*%
%ADD126R,0.01575X0.04921*%
%ADD127R,0.08820X0.04610*%
%ADD128R,0.06693X0.04331*%
%ADD129R,0.04331X0.06693*%
%LNSOLDERMASK_TOP.art*%
%LPD*%
G36*
X220130Y9300D02*
G01Y13962D01*
X225687*
Y9300*
X220130*
G37*
G36*
X269130Y125000D02*
G01Y140900D01*
G75*
G02X270130Y141900I1000J0*
G01X286130*
G02X287130Y140900I0J-1000*
G01Y125000*
G02X286130Y124000I-1000*
G01X270130*
G02X269130Y125000I0J1000*
G37*
G54D10*
X10000Y10000D03*
Y243920D03*
X344331Y10000D03*
Y243920D03*
G54D102*
X9474Y182100D03*
X18530D03*
X330730Y8700D03*
G54D99*
X141530Y177700D03*
Y185700D03*
Y195700D03*
Y203700D03*
G54D129*
X248571Y92511D03*
X243571D03*
Y161409D03*
X248571D03*
X273571Y92511D03*
X268571D03*
X263571D03*
X258571D03*
X253571D03*
X268571Y161409D03*
X273571D03*
X253571D03*
X258571D03*
X263571D03*
X298571Y92511D03*
X293571D03*
X288571D03*
X283571D03*
X278571D03*
Y161409D03*
X283571D03*
X288571D03*
X293571D03*
X298571D03*
X308571Y92511D03*
X303571D03*
Y161409D03*
X308571D03*
G54D103*
X35930Y88200D03*
Y118200D03*
X76300Y88200D03*
Y118200D03*
X65930Y158200D03*
X116670Y88200D03*
Y118200D03*
X106300Y158200D03*
X146670D03*
X157040Y88200D03*
Y118200D03*
X187040Y158200D03*
G54D97*
X133530Y213700D03*
X141530D03*
G54D128*
X238650Y104460D03*
Y109460D03*
Y114460D03*
Y119460D03*
Y124460D03*
Y129460D03*
Y134460D03*
Y139460D03*
Y144460D03*
Y149460D03*
G54D111*
X141530Y221600D03*
X135230D03*
X141530Y227600D03*
X135230D03*
X198650Y43700D03*
Y49700D03*
X204950Y43700D03*
Y49700D03*
X243280Y249500D03*
X268280Y6200D03*
X254330Y189300D03*
X260630D03*
Y219300D03*
X254330D03*
X260630Y195300D03*
X254330D03*
Y207300D03*
X260630D03*
Y213300D03*
X254330D03*
Y201300D03*
X260630D03*
X274480Y217000D03*
X268180D03*
X260630Y225300D03*
X254330D03*
X260580Y249500D03*
X254280D03*
X249580D03*
X274580Y6200D03*
X279280D03*
X285580D03*
X294180Y217000D03*
X304080Y173100D03*
X310380D03*
X304080Y179100D03*
X310380D03*
X310280Y205100D03*
X316580D03*
X310280Y199100D03*
X316580D03*
X300480Y217000D03*
G54D126*
X294920Y224398D03*
X290983D03*
X285077D03*
X281140D03*
X283109D03*
X287046D03*
X289014D03*
X292951D03*
G54D101*
X40944Y75100D03*
X60944D03*
X100944D03*
X80944D03*
X123916D03*
X143916D03*
X163916D03*
X160716Y178300D03*
X183916Y75100D03*
X180716Y178300D03*
X200716D03*
X220716D03*
G54D124*
X278581Y224398D03*
X297479D03*
X275432D03*
X300628D03*
G54D123*
X146463Y229450D03*
G54D121*
X272666Y127354D03*
Y132866D03*
Y138377D03*
X278177Y127354D03*
Y132866D03*
Y138377D03*
X283689Y127354D03*
Y132866D03*
Y138377D03*
G54D105*
X35930Y158200D03*
X76300D03*
X116670D03*
X157040D03*
G54D110*
X306230Y28150D03*
Y21850D03*
X312230Y28150D03*
Y21850D03*
X331230Y41550D03*
Y35250D03*
Y46250D03*
Y52550D03*
X330845Y190813D03*
Y206813D03*
Y213113D03*
Y197113D03*
G54D98*
X212580Y44417D03*
Y49339D03*
Y54261D03*
Y59183D03*
X212100Y92209D03*
Y87091D03*
X224680Y44417D03*
Y49339D03*
Y54261D03*
Y59183D03*
X243347Y179950D03*
X248269D03*
X263035D03*
X253191D03*
X258113D03*
G54D96*
X47201Y177600D03*
X61801D03*
G54D115*
X278522Y177955D03*
X295844D03*
G54D122*
X312230Y37989D03*
Y61611D03*
G54D117*
X269966Y194694D03*
Y196663D03*
Y198631D03*
Y200600D03*
Y202569D03*
Y204537D03*
Y206506D03*
X288864D03*
Y204537D03*
Y202569D03*
Y200600D03*
Y198631D03*
Y196663D03*
Y194694D03*
G54D114*
X206800Y119450D03*
G54D91*
X30126Y210211D03*
G54D31*
X209359Y100250D03*
X204241D03*
G54D106*
X271022Y226661D03*
X305038D03*
G54D95*
X318630Y216500D03*
Y231100D03*
G54D92*
X48630Y198400D03*
G54D125*
X242871Y14204D03*
Y77196D03*
X274367Y14204D03*
X266493D03*
X258619D03*
X250745D03*
Y77196D03*
X258619D03*
X266493D03*
X274367D03*
X297989Y14204D03*
X290115D03*
X282241D03*
Y77196D03*
X290115D03*
X297989D03*
G54D109*
X271022Y243000D03*
X305038D03*
G54D119*
X338372Y35801D03*
X344672Y30190D03*
X338372Y52139D03*
X344672Y57750D03*
X338372Y218120D03*
Y201782D03*
X344672Y196172D03*
Y223731D03*
G54D90*
X48630Y222022D03*
G54D120*
X235135Y11600D03*
G54D100*
X344081Y39442D03*
Y48498D03*
Y214479D03*
Y205424D03*
G54D116*
X273509Y191151D03*
X275478D03*
X277446D03*
X279415D03*
X281384D03*
X283352D03*
X285321D03*
X273509Y210049D03*
X275478D03*
X277446D03*
X279415D03*
X281384D03*
X283352D03*
X285321D03*
G54D113*
X84930Y177624D03*
Y205576D03*
X118863Y177624D03*
Y205576D03*
G54D127*
X229230Y5694D03*
Y17506D03*
G54D118*
X279415Y200600D03*
G54D104*
X297410Y201940D03*
X320430Y205700D03*
Y198220D03*
X306430Y198200D03*
Y205680D03*
X329450Y201960D03*
M02*
