M48
INCH,LZ
VER,1
FMAT,2
T01C0.015F1B1S6H2000
T02C0.027559F1B1S6H2000
DETECT,ON
ATC,ON
%
T01
X00562Y03143
X00555Y03194
X00595Y03326
Y03397
X00597Y03463
X00598Y03526
X00546Y03636
X00592Y03653
X00563Y037
X00619Y03704
X0064Y03307
X00778Y03191
X0061Y03186
X00626Y03137
X0076Y03134
X008135Y031495
X00853Y03257
X0094Y0332
X00944Y03356
X00898Y03397
X008583Y03412
X00955Y03499
X00872Y03578
X00914Y03598
X00863Y03613
X01186Y03709
X0113
X0108
X01144Y03431
X01107Y03413
X01184Y03403
X01079Y03301
X01161Y033
X01121Y0326
X01162Y03221
X0108Y0322
X01252Y03131
X01286Y03132
X013058Y032112
X01266Y03256
X01293Y03291
X01225Y0349
X01538Y03585
X01503
X01525Y03426
X01583Y03424
X01463Y03411
X01541Y03372
X01467Y03365
X01584Y03349
X0151Y03331
X01432Y0333
X01562Y03154
X01614Y0317
X016585Y031895
X01613Y03296
X01788Y03339
X01747Y03369
X01754Y03427
X0162Y034955
X01681
X0162Y03597
X01826Y0364
X01951Y03602
X01986Y03582
X01995Y03406
X018775Y033935
X01831Y03372
X01859Y0333
X01992Y03304
X01975Y03255
X01991Y03216
X02134Y03605
X02074Y03575
X02128Y0356
X02033Y03409
X02135Y03384
X02111Y03359
X02043Y0331
X02058Y03209
X02195Y03205
X02332Y03136
X02294Y03151
X02308Y03191
X02293Y0323
X02252Y03384
X02324Y03508
X02288Y0351
X02334Y03551
X02285Y03558
X02377Y03601
X02378Y03691
X02452
X024155
X02453Y03601
X024155
T02
X007607Y033072
Y035347
M30
