G04 CAM350/DFMSTREAM V12.1 (Build 1022) Date:  Tue Nov 25 16:45:30 2025 *
G04 Database: (Untitled) *
G04 Layer 4: PASTEMASK_TOP.art *
%FSLAX25Y25*%
%MOIN*%
%SFA1.000B1.000*%

%MIA0B0*%
%IPPOS*%
%ADD14R,0.05500X0.04000*%
%ADD15R,0.04000X0.05500*%
%ADD16R,0.02360X0.03540*%
%ADD71R,0.15000X0.07900*%
%ADD22R,0.06000X0.05000*%
%ADD23R,0.01200X0.03740*%
%ADD24R,0.11000X0.04500*%
%ADD25R,0.03740X0.01200*%
%ADD26R,0.03000X0.03000*%
%ADD27R,0.06100X0.02360*%
%ADD28R,0.02170X0.05310*%
%ADD29R,0.04528X0.01181*%
%ADD72R,0.04528X0.02362*%
%ADD73R,0.03540X0.02360*%
%ADD30R,0.05906X0.08661*%
%LNPASTEMASK_TOP.art*%
%LPD*%
G36*
X115446Y329246D02*
G01Y332396D01*
X118596*
Y329246*
X115446*
G37*
G36*
Y324325D02*
G01Y327475D01*
X118596*
Y324325*
X115446*
G37*
G36*
Y319404D02*
G01Y322554D01*
X118596*
Y319404*
X115446*
G37*
G36*
X110525Y329246D02*
G01Y332396D01*
X113675*
Y329246*
X110525*
G37*
G36*
Y324325D02*
G01Y327475D01*
X113675*
Y324325*
X110525*
G37*
G36*
Y319404D02*
G01Y322554D01*
X113675*
Y319404*
X110525*
G37*
G36*
X105604Y329246D02*
G01Y332396D01*
X108754*
Y329246*
X105604*
G37*
G36*
Y324325D02*
G01Y327475D01*
X108754*
Y324325*
X105604*
G37*
G36*
Y319404D02*
G01Y322554D01*
X108754*
Y319404*
X105604*
G37*
G54D16*
X66550Y318200D03*
X72850D03*
X143450Y327400D03*
Y321400D03*
X149750Y327400D03*
Y321400D03*
X217850Y342700D03*
X224150D03*
Y360700D03*
X217850D03*
X224150Y366700D03*
X217850D03*
Y354700D03*
X224150D03*
X217850Y348700D03*
X224150D03*
G54D73*
X97000Y314950D03*
X85000D03*
X91000D03*
X89600Y335150D03*
Y328850D03*
X95500Y341050D03*
X97000Y321250D03*
X85000D03*
X91000D03*
X89600Y347050D03*
Y353350D03*
X95500Y347350D03*
X101500Y341050D03*
Y347350D03*
X109818Y368450D03*
Y362150D03*
X115818Y368450D03*
Y362150D03*
X116100Y348250D03*
Y354550D03*
X110100Y348250D03*
Y354550D03*
X163900Y334350D03*
Y340650D03*
X169900Y334350D03*
Y340650D03*
X171300Y326250D03*
Y319950D03*
X165000Y363650D03*
X158900Y349550D03*
Y355850D03*
X164900Y349550D03*
Y355850D03*
X159000Y363650D03*
X171000D03*
X165000Y369950D03*
X159000D03*
X171000D03*
X195100Y335450D03*
Y341750D03*
X186300Y319950D03*
Y326250D03*
X177000Y363650D03*
Y369950D03*
X207200Y342150D03*
Y335850D03*
G54D26*
X139600Y320700D03*
Y328180D03*
X130580Y324440D03*
X153600Y328200D03*
Y320720D03*
X162620Y324460D03*
G54D29*
X80302Y339143D03*
Y335206D03*
Y337175D03*
Y341112D03*
Y348986D03*
Y345049D03*
Y343080D03*
Y347017D03*
G54D27*
X192970Y315500D03*
Y330500D03*
Y325500D03*
Y320500D03*
X214230Y315500D03*
Y320500D03*
Y325500D03*
Y330500D03*
G54D72*
X80302Y332647D03*
Y329498D03*
Y351545D03*
Y354694D03*
G54D14*
X178800Y315800D03*
Y330400D03*
G54D28*
X197600Y347664D03*
X192600D03*
X187600D03*
X182600D03*
Y368136D03*
X187600D03*
X192600D03*
X197600D03*
X212600Y347664D03*
X207600D03*
X202600D03*
Y368136D03*
X207600D03*
X212600D03*
G54D15*
X78700Y367600D03*
X93300D03*
G54D23*
X106194Y316451D03*
X108163D03*
X110131D03*
X112100D03*
X114069D03*
X116037D03*
X118006D03*
X106194Y335349D03*
X108163D03*
X110131D03*
X112100D03*
X114069D03*
X116037D03*
X118006D03*
G54D24*
X241550Y315096D03*
Y324096D03*
Y333096D03*
Y342096D03*
Y351096D03*
Y360096D03*
Y369096D03*
G54D25*
X121549Y331806D03*
Y329837D03*
Y327869D03*
Y325900D03*
Y323931D03*
Y321963D03*
Y319994D03*
X102651D03*
Y321963D03*
Y323931D03*
Y325900D03*
Y327869D03*
Y329837D03*
Y331806D03*
G54D30*
X123490Y366100D03*
X132545D03*
X141600D03*
G54D22*
X102100Y355107D03*
Y368493D03*
X151118Y364193D03*
Y350807D03*
G54D71*
X132545Y341297D03*
M02*
