G04 CAM350/DFMSTREAM V12.1 (Build 1022) Date:  Tue Nov 25 16:45:31 2025 *
G04 Database: (Untitled) *
G04 Layer 8: SOLDERMASK_TOP.art *
%FSLAX25Y25*%
%MOIN*%
%SFA1.000B1.000*%

%MIA0B0*%
%IPPOS*%
%ADD39R,0.11400X0.04900*%
%ADD40R,0.06100X0.04600*%
%ADD41R,0.04600X0.06100*%
%ADD43O,0.09252X0.04921*%
%ADD44O,0.08071X0.04921*%
%ADD45R,0.02560X0.03740*%
%ADD46R,0.02560X0.05710*%
%ADD47R,0.15500X0.08400*%
%ADD48R,0.01600X0.04100*%
%ADD49R,0.04100X0.01600*%
%ADD50R,0.13600X0.13600*%
%ADD51R,0.06500X0.05500*%
%ADD52R,0.03500X0.03500*%
%ADD53R,0.06300X0.02560*%
%ADD54R,0.05315X0.02756*%
%ADD55R,0.04921X0.01575*%
%ADD56R,0.03740X0.02560*%
%ADD57R,0.06299X0.09055*%
%LNSOLDERMASK_TOP.art*%
%LPD*%
G54D45*
X66550Y318200D03*
X72850D03*
X143450Y327400D03*
Y321400D03*
X149750Y327400D03*
Y321400D03*
X217850Y342700D03*
X224150D03*
Y360700D03*
X217850D03*
X224150Y366700D03*
X217850D03*
Y354700D03*
X224150D03*
X217850Y348700D03*
X224150D03*
G54D57*
X123490Y366100D03*
X132545D03*
X141600D03*
G54D44*
X61700Y325088D03*
Y359104D03*
G54D56*
X97000Y314950D03*
X85000D03*
X91000D03*
X89600Y335150D03*
Y328850D03*
X95500Y341050D03*
X97000Y321250D03*
X85000D03*
X91000D03*
X89600Y347050D03*
Y353350D03*
X95500Y347350D03*
X101500Y341050D03*
Y347350D03*
X109818Y368450D03*
Y362150D03*
X115818Y368450D03*
Y362150D03*
X116100Y348250D03*
Y354550D03*
X110100Y348250D03*
Y354550D03*
X163900Y334350D03*
Y340650D03*
X169900Y334350D03*
Y340650D03*
X171300Y326250D03*
Y319950D03*
X165000Y363650D03*
X158900Y349550D03*
Y355850D03*
X164900Y349550D03*
Y355850D03*
X159000Y363650D03*
X171000D03*
X165000Y369950D03*
X159000D03*
X171000D03*
X195100Y335450D03*
Y341750D03*
X186300Y319950D03*
Y326250D03*
X177000Y363650D03*
Y369950D03*
X207200Y342150D03*
Y335850D03*
G54D51*
X102100Y355107D03*
Y368493D03*
X151118Y364193D03*
Y350807D03*
G54D43*
X78039Y325088D03*
Y359104D03*
G54D47*
X132545Y341297D03*
G54D55*
X80302Y339143D03*
Y335206D03*
Y337175D03*
Y341112D03*
Y348986D03*
Y345049D03*
Y343080D03*
Y347017D03*
G54D52*
X139600Y320700D03*
Y328180D03*
X130580Y324440D03*
X153600Y328200D03*
Y320720D03*
X162620Y324460D03*
G54D54*
X80302Y332647D03*
Y329498D03*
Y351545D03*
Y354694D03*
G54D53*
X192970Y315500D03*
Y330500D03*
Y325500D03*
Y320500D03*
X214230Y315500D03*
Y320500D03*
Y325500D03*
Y330500D03*
G54D41*
X78700Y367600D03*
X93300D03*
G54D40*
X178800Y315800D03*
Y330400D03*
G54D48*
X106194Y316451D03*
X108163D03*
X110131D03*
X112100D03*
X114069D03*
X116037D03*
X118006D03*
X106194Y335349D03*
X108163D03*
X110131D03*
X112100D03*
X114069D03*
X116037D03*
X118006D03*
G54D46*
X197600Y347664D03*
X192600D03*
X187600D03*
X182600D03*
Y368136D03*
X187600D03*
X192600D03*
X197600D03*
X212600Y347664D03*
X207600D03*
X202600D03*
Y368136D03*
X207600D03*
X212600D03*
G54D49*
X121549Y331806D03*
Y329837D03*
Y327869D03*
Y325900D03*
Y323931D03*
Y321963D03*
Y319994D03*
X102651D03*
Y321963D03*
Y323931D03*
Y325900D03*
Y327869D03*
Y329837D03*
Y331806D03*
G54D39*
X241550Y315096D03*
Y324096D03*
Y333096D03*
Y342096D03*
Y351096D03*
Y360096D03*
Y369096D03*
G54D50*
X112100Y325900D03*
M02*
