G04 CAM350/DFMSTREAM V12.1 (Build 1022) Date:  Thu Nov 21 21:04:09 2024 *
G04 Database: (Untitled) *
G04 Layer 1: BOTTOM.art *
%FSLAX25Y25*%
%MOIN*%
%SFA1.000B1.000*%

%MIA0B0*%
%IPPOS*%
%ADD10R,0.05910X0.05120*%
%ADD11C,0.08200*%
%ADD12C,0.03000*%
%ADD13C,0.06200*%
%ADD14R,0.05120X0.05910*%
%ADD15R,0.06200X0.06200*%
%ADD16R,0.03543X0.02362*%
%ADD17O,0.05000X0.01000*%
%ADD18C,0.05315*%
%ADD19R,0.09449X0.07480*%
%ADD20O,0.01000X0.05000*%
%ADD21R,0.02362X0.03543*%
%ADD22R,0.02362X0.06102*%
%ADD23R,0.07900X0.15000*%
%ADD24R,0.05000X0.06000*%
%ADD25R,0.08661X0.05905*%
%ADD26R,0.15000X0.15000*%
%ADD27C,0.03937*%
%ADD28C,0.11000*%
%ADD29R,0.06102X0.02362*%
%ADD30R,0.03000X0.03000*%
%ADD31C,0.07700*%
%ADD32R,0.07700X0.07700*%
%ADD33C,0.00800*%
%ADD34C,0.01000*%
%ADD35C,0.02000*%
%ADD36C,0.04000*%
%ADD37C,0.05000*%
%ADD38C,0.09000*%
%LNBOTTOM.art*%
%LPD*%
G36*
X54422Y11937D02*
G01X54492Y13508D01*
G75*
G03X55042Y13398I550J1320*
X55592Y13508I0J1430*
G02X55992Y13108I0J-400*
G03X55882Y12558I1320J-550*
X55992Y12008I1431J0*
G01X54422Y11937*
G37*
G36*
X145600Y57300D02*
G03X145050Y57410I-550J-1320D01*
X144500Y57300I0J-1430*
G01X144429Y58871*
X146000Y58800*
G03X145890Y58250I1321J-550*
X146000Y57700I1430J0*
G02X145600Y57300I-400J0*
G37*
G36*
X44100Y97500D02*
G03X43550Y97610I-550J-1320D01*
X43000Y97500I0J-1430*
G01X42929Y99071*
X44500Y99000*
G03X44390Y98450I1321J-550*
X44500Y97900I1430J0*
G02X44100Y97500I-400J0*
G37*
G36*
X135929Y131129D02*
G01X136000Y132700D01*
G03X136550Y132590I550J1320*
X137100Y132700I0J1430*
G02X137500Y132300I0J-400*
G03X137390Y131750I1320J-550*
X137500Y131200I1431J0*
G01X135929Y131129*
G37*
G36*
X125688Y64070D02*
G01X125759Y65641D01*
G03X126309Y65531I550J1320*
X126859Y65641I0J1430*
G02X127259Y65241I0J-400*
G03X127149Y64691I1320J-550*
X127259Y64141I1431J0*
G01X125688Y64070*
G37*
G36*
X98829Y34729D02*
G01X98900Y36300D01*
G03X99450Y36190I550J1320*
X100000Y36300I0J1430*
G02X100400Y35900I0J-400*
G03X100290Y35350I1320J-550*
X100400Y34800I1431J0*
G01X98829Y34729*
G37*
G36*
X46829Y13429D02*
G01X46900Y15000D01*
G03X47450Y14890I550J1320*
X48000Y15000I0J1430*
G02X48400Y14600I0J-400*
G03X48290Y14050I1320J-550*
X48400Y13500I1431J0*
G01X46829Y13429*
G37*
G36*
X55429Y5629D02*
G01X55500Y7200D01*
G03X56050Y7090I550J1320*
X56600Y7200I0J1430*
G02X57000Y6800I0J-400*
G03X56890Y6250I1320J-550*
X57000Y5700I1431J0*
G01X55429Y5629*
G37*
G36*
X51171Y118229D02*
G01X49600Y118300D01*
G03X49710Y118850I-1321J550*
X49600Y119400I-1431J0*
G02X50000Y119800I400J0*
G03X50550Y119690I550J1320*
X51100Y119800I0J1431*
G01X51171Y118229*
G37*
G36*
X125571Y68029D02*
G01X124000Y68100D01*
G03X124110Y68650I-1321J550*
X124000Y69200I-1431J0*
G02X124400Y69600I400J0*
G03X124950Y69490I550J1320*
X125500Y69600I0J1431*
G01X125571Y68029*
G37*
G36*
X9271Y51829D02*
G01X7700Y51900D01*
G03X7810Y52450I-1321J550*
X7700Y53000I-1431J0*
G02X8100Y53400I400J0*
G03X8650Y53290I550J1320*
X9200Y53400I0J1431*
G01X9271Y51829*
G37*
G36*
X84071Y29103D02*
G01X82500Y29174D01*
G03X82610Y29724I-1321J550*
X82500Y30274I-1431J0*
G02X82900Y30674I400J0*
G03X83450Y30564I550J1320*
X84000Y30674I0J1431*
G01X84071Y29103*
G37*
G36*
X60900Y120984D02*
G01X60879D01*
X60858Y120986*
G03X60169Y121162I-689J-1262*
X59758Y121102I0J-1438*
G01X59733Y122674*
X61300Y122600*
G03X61178Y121991I1461J-609*
X61300Y121383I1582J1*
G02X60900Y120984I-400J1*
G37*
G36*
X7800Y29063D02*
G02X7400Y29463J400D01*
G03X7534Y30131I-1604J669*
X7400Y30800I-1738J0*
G01X8644Y31190*
X8802Y29723*
G03X8042Y29145I313J-1200*
G02X7800Y29063I-243J318*
G37*
G36*
X35207Y114700D02*
G01X34500D01*
X33769Y115296*
X35061Y116261*
G03X35914Y115407I1451J597*
G01X35207Y114700*
G37*
G36*
X65144Y122946D02*
G01X63615Y123097D01*
X63700Y124650*
G03X64575Y124475I875J2100*
X65450Y124650I0J2275*
G02X65851Y124250I1J-400*
X65795Y124046I-401J0*
G03X65144Y122946I994J-1331*
G37*
G36*
X86039Y51830D02*
G03X85262Y52608I-1323J-544D01*
G02X85145Y52891I283J283*
X85262Y53173I400J-1*
G03X86039Y53951I-545J1322*
G01X87200Y52891*
X86039Y51830*
G37*
G36*
X154800Y98045D02*
G02X154517Y98162I0J400D01*
G03X153739Y98939I-1322J-545*
G01X154800Y100100*
X155861Y98939*
G03X155083Y98162I544J-1323*
G02X154800Y98045I-283J283*
G37*
G36*
X12700Y31445D02*
G02X12417Y31562I0J400D01*
G03X11639Y32339I-1322J-545*
G01X12700Y33500*
X13761Y32339*
G03X12983Y31562I544J-1322*
G02X12700Y31445I-283J283*
G37*
G36*
X39550Y17800D02*
G01X38489Y18961D01*
G03X39267Y19738I-544J1322*
G02X39550Y19855I283J-283*
X39833Y19738I0J-400*
G03X40611Y18961I1322J546*
G01X39550Y17800*
G37*
G36*
X87100Y37745D02*
G02X86817Y37862I0J400D01*
G03X86039Y38639I-1322J-545*
G01X87100Y39800*
X88161Y38639*
G03X87383Y37862I544J-1322*
G02X87100Y37745I-283J283*
G37*
G36*
X39550Y33645D02*
G02X39267Y33762I0J400D01*
G03X38489Y34539I-1322J-545*
G01X39550Y35700*
X40611Y34539*
G03X39833Y33762I544J-1322*
G02X39550Y33645I-283J283*
G37*
G36*
X218856Y55877D02*
G01X217795Y57038D01*
G03X218573Y57815I-544J1322*
G02X218856Y57932I283J-283*
X219139Y57815I0J-400*
G03X219917Y57038I1322J546*
G01X218856Y55877*
G37*
G36*
X114439Y60039D02*
G03X113662Y60817I-1323J-544D01*
G02X113545Y61100I283J283*
X113662Y61383I400J0*
G03X114439Y62161I-545J1322*
G01X115600Y61100*
X114439Y60039*
G37*
G36*
X28739Y59039D02*
G03X27962Y59817I-1323J-544D01*
G02X27845Y60100I283J283*
X27962Y60383I400J0*
G03X28739Y61161I-546J1322*
G01X29900Y60100*
X28739Y59039*
G37*
G36*
X93939Y33839D02*
G03X93162Y34617I-1323J-544D01*
G02X93045Y34900I283J283*
X93162Y35183I400J0*
G03X93939Y35961I-545J1322*
G01X95100Y34900*
X93939Y33839*
G37*
G36*
X78889Y1989D02*
G03X78112Y2767I-1323J-544D01*
G02X77995Y3050I283J283*
X78112Y3333I400J0*
G03X78889Y4111I-545J1322*
G01X80050Y3050*
X78889Y1989*
G37*
G36*
X97861Y66539D02*
G01X96700Y67600D01*
X97861Y68661*
G03X98638Y67883I1322J544*
G02X98755Y67600I-284J-283*
X98638Y67317I-401J0*
G03X97861Y66539I545J-1322*
G37*
G36*
X85510Y2988D02*
G03X84710Y3988I-1600J-460D01*
G02X84601Y4300I391J312*
X85100Y4800I500J0*
G03X86000Y4620I900J2160*
X86900Y4800I0J2341*
G01X87009Y3239*
X85510Y2988*
G37*
G36*
X74368Y113900D02*
G01X71600D01*
X73368Y115668*
X74368*
G03Y113900I2122J-884*
G37*
G36*
X56668Y29132D02*
G01X55668D01*
X53900Y30900*
X56668*
G03Y29132I2122J-884*
G37*
G36*
X60861Y117239D02*
G01X59701Y118289D01*
X60781Y119422*
G03X61759Y118844I1182J884*
G02X61955Y118500I-204J-344*
X61838Y118217I-401J0*
G03X60861Y117239I685J-1662*
G37*
G36*
X17539Y43139D02*
G03X16462Y44217I-1833J-754D01*
G02X16344Y44500I282J284*
X16582Y44866I400J0*
G03X17660Y45343I-34J1533*
G01X18699Y44184*
X17539Y43139*
G37*
G36*
X84895Y58000D02*
G02X84548Y58200I-1J400D01*
G03X84029Y59100I-1341J-174*
G02X83895Y59601I866J500*
X84251Y60366I1000J0*
X84894Y60600I643J-766*
X85537Y60366I0J-1000*
X85894Y59600I-643J-766*
X85760Y59100I-1001J0*
G03X85241Y58200I821J-1073*
G02X84895Y58000I-346J200*
G37*
G36*
X12720Y47202D02*
G01X11541Y48200D01*
G03X11925Y49243I-1225J1043*
G01X11923Y49310*
X11919Y49378*
G02X12300Y49655I381J-123*
X12583Y49538I0J-400*
G03X13761Y48361I2002J826*
G01X12720Y47202*
G37*
G36*
X170939Y46439D02*
G03X169162Y48217I-3022J-1244D01*
G01X169444Y48500*
X171200*
X172093Y47464*
X170939Y46439*
G37*
G36*
X51071Y124204D02*
G01X50039Y125361D01*
G03X51484Y126805I-1011J2456*
G02X51767Y126922I283J-283*
X52166Y126553I0J-400*
G03X52071Y125963I1789J-591*
X52276Y125108I1885J0*
G01X51071Y124204*
G37*
G36*
X88039Y45239D02*
G03X86577Y46702I-2488J-1024D01*
G02X86460Y46985I283J283*
X86834Y47384I400J0*
G03X87454Y47280I621J1801*
X88297Y47477I-1J1905*
G01X89196Y46271*
X88039Y45239*
G37*
G36*
X225850Y86800D02*
G01X224669Y88671D01*
G03X225662Y89653I-733J1734*
G01X225850Y89700*
X226038Y89653*
G03X227031Y88671I1726J752*
G01X225850Y86800*
G37*
G36*
X230550Y118548D02*
G02X230329Y118614I-1J401D01*
G03X229369Y119729I-1870J-639*
G01X230550Y121600*
X231731Y119729*
G03X230771Y118614I910J-1755*
G02X230550Y118548I-220J335*
G37*
G36*
X219550Y83948D02*
G02X219329Y84014I-1J401D01*
G03X218369Y85129I-1870J-639*
G01X219550Y87000*
X220731Y85129*
G03X219771Y84014I910J-1755*
G02X219550Y83948I-220J335*
G37*
G36*
X225850Y77948D02*
G02X225629Y78014I-1J401D01*
G03X224669Y79129I-1870J-639*
G01X225850Y81000*
X227031Y79129*
G03X226071Y78014I910J-1755*
G02X225850Y77948I-220J335*
G37*
G36*
X219550Y71948D02*
G02X219329Y72014I-1J401D01*
G03X218369Y73129I-1870J-639*
G01X219550Y75000*
X220731Y73129*
G03X219771Y72014I910J-1755*
G02X219550Y71948I-220J335*
G37*
G36*
Y80800D02*
G01X218369Y82671D01*
G03X219329Y83786I-910J1755*
G02X219550Y83852I220J-335*
X219771Y83786I1J-401*
G03X220731Y82671I1870J639*
G01X219550Y80800*
G37*
G36*
X225850Y68800D02*
G01X224669Y70671D01*
G03X225629Y71786I-910J1755*
G02X225850Y71852I220J-335*
X226071Y71786I1J-401*
G03X227031Y70671I1870J639*
G01X225850Y68800*
G37*
G36*
X234150Y10000D02*
G01X232969Y11871D01*
G03X233929Y12986I-910J1755*
G02X234150Y13052I220J-335*
X234371Y12986I1J-401*
G03X235331Y11871I1870J639*
G01X234150Y10000*
G37*
G36*
X165829Y89869D02*
G03X164714Y90829I-1755J-910D01*
G02X164648Y91050I335J220*
X164714Y91271I401J1*
G03X165829Y92231I-639J1870*
G01X167700Y91050*
X165829Y89869*
G37*
G36*
X137805Y123259D02*
G01X137503D01*
G03X136473Y124429I-2344J-1025*
G01X137654Y126450*
X138835Y124429*
G03X137805Y123259I1315J-2196*
G37*
G36*
X200029Y89869D02*
G03X198859Y90899I-2196J-1315D01*
G02X198848Y91050I989J148*
X198859Y91201I1000J3*
G03X200029Y92231I-1025J2344*
G01X202050Y91050*
X200029Y89869*
G37*
G36*
X99933Y111369D02*
G03X98763Y112399I-2196J-1315D01*
G02X98752Y112550I989J148*
X98763Y112701I1000J3*
G03X99933Y113731I-1025J2344*
G01X101954Y112550*
X99933Y111369*
G37*
G36*
Y94069D02*
G03X98763Y95099I-2196J-1315D01*
G02X98752Y95250I989J148*
X98763Y95401I1000J3*
G03X99933Y96431I-1025J2344*
G01X101954Y95250*
X99933Y94069*
G37*
G36*
X153829Y89869D02*
G03X152659Y90899I-2196J-1315D01*
G02X152648Y91050I989J148*
X152659Y91201I1000J3*
G03X153829Y92231I-1025J2344*
G01X155850Y91050*
X153829Y89869*
G37*
G36*
X145529Y6469D02*
G03X144359Y7499I-2196J-1315D01*
G02X144348Y7650I989J148*
X144359Y7801I1000J3*
G03X145529Y8831I-1025J2344*
G01X147550Y7650*
X145529Y6469*
G37*
G36*
X93071Y128269D02*
G01X91050Y129450D01*
X93071Y130631*
G03X94241Y129601I2195J1314*
G02X94252Y129450I-991J-148*
X94241Y129299I-1002J-3*
G03X93071Y128269I1025J-2344*
G37*
G36*
X207800Y90950D02*
G01X206265Y92231D01*
G03X207586Y93538I-946J2277*
G02X207800Y93600I214J-338*
X208014Y93538I0J-400*
G03X209335Y92231I2268J971*
G01X207800Y90950*
G37*
G36*
X180081Y73715D02*
G01X176930Y74800D01*
X180081Y75885*
G03X180961Y74973I1593J657*
G02X181000Y74800I-362J-172*
X180961Y74627I-401J-1*
G03X180081Y73715I713J-1569*
G37*
G36*
X67515Y73804D02*
G01X66408Y76859D01*
G03X67339Y77759I-671J1625*
G01X67515Y77800*
X67691Y77759*
G03X68622Y76859I1602J725*
G01X67515Y73804*
G37*
G36*
X117901Y31471D02*
G01X112031D01*
G02X111831Y31671I0J200*
G01Y32774*
G02X112031Y32974I200J0*
G01X114733*
G02X114810Y32958I-1J-200*
G03X115733Y32773I924J2215*
G01X117852*
G02X117991Y32717I0J-200*
G01X118219Y32496*
X118250Y32425*
X118252Y32386*
G03X118296Y31936I3498J115*
G01X118303Y31892*
X118279Y31807*
X118053Y31542*
G02X117901Y31471I-153J128*
G37*
G36*
X181931Y56665D02*
G01X180650Y58400D01*
X181931Y60135*
G03X183432Y58624I2597J1079*
G02X183501Y58400I-332J-225*
X183432Y58176I-401J1*
G03X181931Y56665I1096J-2590*
G37*
G36*
X189479Y97669D02*
G03X188793Y98422I-1755J-910D01*
X188242Y97822I737J-1230*
G01X187100Y98903*
X188261Y99961*
G03X188805Y99286I1408J578*
X189479Y100031I-1080J1655*
G01X191350Y98850*
X189479Y97669*
G37*
G36*
X20200Y111400D02*
G03X18850Y111670I-1350J-3240D01*
X17500Y111400I0J-3510*
G01X17429Y114571*
X20600Y114500*
G03X20330Y113150I3241J-1350*
X20600Y111800I3510J0*
G02X20200Y111400I-400J0*
G37*
G36*
X180081Y68619D02*
G01X176930Y69800D01*
X180081Y70981*
G03X181195Y70021I1755J910*
G02X181261Y69800I-335J-220*
X181195Y69579I-401J-1*
G03X180081Y68619I640J-1869*
G37*
G36*
X92562Y8502D02*
G01X92344Y11390D01*
G03X92490Y11383I148J1571*
X93501Y11750I0J1576*
G02X93946Y11817I443J-1433*
X95446Y10318I0J-1500*
G03X95294Y9559I1822J-760*
X95446Y8800I1975J1*
G01X92562Y8502*
G37*
G36*
X80714Y73183D02*
G03X79700Y74590I-2574J-786D01*
G01Y74599*
G02X79761Y74943I1000J0*
G03X81186Y75931I-740J2589*
G01X81609Y75549*
X81761Y75661*
G03X82163Y75049I1784J734*
G01X82347Y74882*
G03X82810Y74611I1197J1513*
G01X82733Y74534*
X83504Y73838*
X80714Y73183*
G37*
G36*
X173979Y63619D02*
G03X172811Y64650I-2198J-1313D01*
G02X172800Y64800I989J148*
X172811Y64950I1000J2*
G03X173979Y65981I-1029J2343*
G01X177280Y64800*
X173979Y63619*
G37*
G36*
X207979D02*
G03X206810Y64649I-2196J-1314D01*
G02X206799Y64800I989J148*
X206810Y64951I1000J3*
G03X207979Y65981I-1027J2344*
G01X211280Y64800*
X207979Y63619*
G37*
G36*
X192821Y78619D02*
G01X189520Y79800D01*
X192821Y80981*
G03X193990Y79951I2196J1314*
G02X194001Y79800I-990J-148*
X193990Y79649I-1001J-3*
G03X192821Y78619I1026J-2343*
G37*
G36*
X9600Y101400D02*
G03X8550Y101610I-1050J-2520D01*
X7500Y101400I0J-2730*
G01X7323Y104677*
X10600Y104500*
G03X10390Y103450I2521J-1050*
X10600Y102400I2730J0*
G02X9600Y101400I-1000J0*
G37*
G36*
X189700Y27300D02*
G01X187929Y28581D01*
G03X189455Y30268I-1294J2704*
G02X189700Y30352I245J-316*
X189945Y30268I0J-400*
G03X191471Y28581I2820J1017*
G01X189700Y27300*
G37*
G36*
X120569Y21729D02*
G03X118882Y23255I-2704J-1294D01*
G02X118798Y23500I316J245*
X118882Y23745I400J0*
G03X120569Y25271I-1017J2820*
G01X121850Y23500*
X120569Y21729*
G37*
G36*
X8163Y20286D02*
G01X5108Y21589D01*
X8163Y22892*
G03X9248Y21786I1916J795*
G02X9300Y21589I-348J-197*
X9248Y21392I-400J0*
G03X8163Y20286I832J-1901*
G37*
G36*
X91300Y135500D02*
G01X89529Y136931D01*
G03X90901Y138619I-1595J2698*
G02X91300Y138702I399J-917*
X91699Y138619I0J-1000*
G03X93071Y136931I2967J1010*
G01X91300Y135500*
G37*
G36*
X194769Y56729D02*
G03X193828Y57860I-2705J-1293D01*
X193561Y57439I1055J-964*
G01X192400Y58500*
X193561Y59561*
G03X193828Y59140I1322J543*
X194769Y60271I-1764J2424*
G01X196050Y58500*
X194769Y56729*
G37*
G36*
X173600Y55000D02*
G01X172044D01*
X171762Y55283*
G03X173339Y56861I-1105J2682*
G01X173446Y56910*
X174450Y58500*
X175631Y56629*
G03X174670Y55516I907J-1755*
G02X174450Y55450I-220J334*
X174230Y55516I0J400*
G01X174211Y55568*
X173600Y55000*
G37*
G36*
X225850Y71948D02*
G02X225629Y72014I-1J401D01*
G03X224669Y73129I-1870J-639*
G01X225787Y74900*
X224669Y76671*
G03X225629Y77786I-910J1755*
G02X225850Y77852I220J-335*
X226071Y77786I1J-401*
G03X227031Y76671I1870J639*
G01X225913Y74900*
X227031Y73129*
G03X226071Y72014I910J-1755*
G02X225850Y71948I-220J335*
G37*
G36*
X219550Y65948D02*
G02X219329Y66014I-1J401D01*
G03X218369Y67129I-1870J-639*
G01X219487Y68900*
X218369Y70671*
G03X219329Y71786I-910J1755*
G02X219550Y71852I220J-335*
X219771Y71786I1J-401*
G03X220731Y70671I1870J639*
G01X219613Y68900*
X220731Y67129*
G03X219771Y66014I910J-1755*
G02X219550Y65948I-220J335*
G37*
G36*
X151371Y89869D02*
G01X149600Y90904D01*
X147829Y89869*
G03X146659Y90899I-2196J-1315*
G02X146648Y91050I989J148*
X146659Y91201I1000J3*
G03X147829Y92231I-1025J2344*
G01X149600Y91196*
X151371Y92231*
G03X152541Y91201I2195J1314*
G02X152552Y91050I-990J-148*
X152541Y90899I-1001J-3*
G03X151371Y89869I1025J-2344*
G37*
G36*
X191571D02*
G01X189800Y90904D01*
X188029Y89869*
G03X186859Y90899I-2196J-1315*
G02X186848Y91050I989J148*
X186859Y91201I1000J3*
G03X188029Y92231I-1025J2344*
G01X189800Y91196*
X191571Y92231*
G03X192741Y91201I2195J1314*
G02X192752Y91050I-990J-148*
X192741Y90899I-1001J-3*
G03X191571Y89869I1025J-2344*
G37*
G36*
X197571D02*
G01X195800Y90904D01*
X194029Y89869*
G03X192859Y90899I-2196J-1315*
G02X192848Y91050I989J148*
X192859Y91201I1000J3*
G03X194029Y92231I-1025J2344*
G01X195800Y91196*
X197571Y92231*
G03X198741Y91201I2195J1314*
G02X198752Y91050I-990J-148*
X198741Y90899I-1001J-3*
G03X197571Y89869I1025J-2344*
G37*
G36*
X191571Y83569D02*
G01X189800Y84604D01*
X188029Y83569*
G03X186859Y84599I-2196J-1315*
G02X186848Y84750I989J148*
X186859Y84901I1000J3*
G03X188029Y85931I-1025J2344*
G01X189800Y84896*
X191571Y85931*
G03X192741Y84901I2195J1314*
G02X192752Y84750I-990J-148*
X192741Y84599I-1001J-3*
G03X191571Y83569I1025J-2344*
G37*
G36*
X151371D02*
G01X149600Y84604D01*
X148222Y83799*
X148061Y83540*
X147940Y83634*
X147829Y83569*
G03X147583Y83912I-2196J-1315*
G01X146760Y84552*
X146659Y84599*
G02X146648Y84750I989J148*
X146659Y84901I1000J3*
G03X147309Y85311I-1025J2345*
G01X147728Y85881*
X147772Y85841*
X147829Y85931*
X149600Y84896*
X151371Y85931*
G03X152541Y84901I2195J1314*
G02X152552Y84750I-990J-148*
X152541Y84599I-1001J-3*
G03X151371Y83569I1025J-2344*
G37*
G36*
X138792Y14308D02*
G01X137300Y15700D01*
X138792Y17092*
G03X139241Y16421I1885J776*
X139439Y16761I-1125J883*
G01X140500Y15791*
X141561Y16761*
G03X142338Y15983I1322J544*
G02X142455Y15700I-284J-283*
X142338Y15417I-401J0*
G03X141561Y14639I545J-1322*
G01X140500Y15609*
X139439Y14639*
G03X139241Y14979I-1323J-543*
X138792Y14308I1436J-1447*
G37*
G36*
X163371Y89869D02*
G01X161623Y90972D01*
X161600Y90950*
X160265Y92231*
G03X161400Y93347I-816J1965*
G02X161600Y93400I199J-348*
X161800Y93347I1J-401*
G03X162935Y92231I1951J849*
G01X162097Y91427*
X163371Y92231*
G03X164486Y91271I1754J910*
G02X164552Y91050I-335J-220*
X164486Y90829I-401J-1*
G03X163371Y89869I639J-1869*
G37*
G36*
X75389Y69411D02*
G02X75167Y69478I0J400D01*
G03X73685Y70949I-2540J-1077*
G01X75389Y74004*
X77093Y70949*
G03X75611Y69478I1057J-2547*
G02X75389Y69411I-222J333*
G37*
G36*
X117404Y86020D02*
G01X116223Y89321D01*
X116329Y89388*
G03X115439Y90039I-1771J-1487*
G01X116378Y91318*
X117214Y90404*
X117253Y90490*
X117555*
G03X118585Y89321I2344J1027*
G01X117404Y86020*
G37*
G36*
X191250Y105050D02*
G01X189479Y106331D01*
G03X190729Y107450I-1295J2704*
X189479Y108569I-2545J-1585*
G01X191250Y109850*
X193021Y108569*
G03X191771Y107450I1295J-2704*
X193021Y106331I2545J1585*
G01X191250Y105050*
G37*
G36*
X65245Y51274D02*
G03X63670Y52858I-2720J-1129D01*
G02X63599Y53085I330J228*
X63670Y53312I401J-1*
G03X65245Y54896I-1145J2714*
G01X68300Y53085*
X65245Y51274*
G37*
G36*
X189700Y16300D02*
G01X187929Y17581D01*
G03X189210Y18750I-1294J2704*
X187929Y19919I-2575J-1535*
G01X189700Y21200*
X191471Y19919*
G03X190190Y18750I1294J-2704*
X191471Y17581I2575J1535*
G01X189700Y16300*
G37*
G36*
X201069Y119729D02*
G03X199900Y121010I-2704J-1294D01*
X198731Y119729I1535J-2575*
G01X197450Y121500*
X198731Y123271*
G03X199900Y121990I2704J1294*
X201069Y123271I-1535J2575*
G01X202350Y121500*
X201069Y119729*
G37*
G36*
X212069D02*
G03X210900Y121010I-2704J-1294D01*
X209731Y119729I1535J-2575*
G01X208450Y121500*
X209731Y123271*
G03X210900Y121990I2704J1294*
X212069Y123271I-1535J2575*
G01X213350Y121500*
X212069Y119729*
G37*
G36*
X223069D02*
G03X221900Y121010I-2704J-1294D01*
X220731Y119729I1535J-2575*
G01X219450Y121500*
X220731Y123271*
G03X221900Y121990I2704J1294*
X223069Y123271I-1535J2575*
G01X224350Y121500*
X223069Y119729*
G37*
G36*
X205769Y56729D02*
G03X204600Y58010I-2704J-1294D01*
X203431Y56729I1535J-2575*
G01X202150Y58500*
X203431Y60271*
G03X204600Y58990I2704J1294*
X205769Y60271I-1535J2575*
G01X207050Y58500*
X205769Y56729*
G37*
G36*
X204669Y8329D02*
G03X203500Y9610I-2704J-1294D01*
X202331Y8329I1535J-2575*
G01X201050Y10100*
X202331Y11871*
G03X203500Y10590I2704J1294*
X204669Y11871I-1535J2575*
G01X205950Y10100*
X204669Y8329*
G37*
G36*
X215669D02*
G03X214500Y9610I-2704J-1294D01*
X213331Y8329I1535J-2575*
G01X212050Y10100*
X213331Y11871*
G03X214500Y10590I2704J1294*
X215669Y11871I-1535J2575*
G01X216950Y10100*
X215669Y8329*
G37*
G36*
X226669D02*
G03X225500Y9610I-2704J-1294D01*
X224331Y8329I1535J-2575*
G01X223050Y10100*
X224331Y11871*
G03X225500Y10590I2704J1294*
X226669Y11871I-1535J2575*
G01X227950Y10100*
X226669Y8329*
G37*
G36*
X177717Y88162D02*
G03X175965Y89928I-3022J-1246D01*
G01X175958Y89922*
X175952Y89934*
X175939Y89939*
X175946Y89947*
G03X175682Y90308I-1276J-656*
X175271Y89769I1342J-1450*
G01X173400Y90950*
X175271Y92131*
G03X175657Y91615I1755J910*
X175939Y92061I-1126J1024*
G01X177100Y91003*
X177073Y90978*
X178000Y90000*
Y88444*
X177717Y88162*
G37*
G36*
X19692Y122308D02*
G01X17400Y124500D01*
X19692Y126692*
G03X21601Y124783I3246J1337*
G02X21718Y124500I-284J-283*
X21601Y124217I-401J0*
G03X19692Y122308I1337J-3246*
G37*
G36*
X193669Y8329D02*
G03X192265Y9736I-2704J-1294D01*
X191471Y8919I960J-1727*
G01X189600Y10100*
X191471Y11281*
G03X192265Y10464I1754J911*
X193669Y11871I-1300J2701*
G01X194950Y10100*
X193669Y8329*
G37*
G36*
X195800Y81798D02*
G02X195401Y81881I0J1000D01*
G03X194029Y83569I-2967J-1010*
X192859Y84599I-2196J-1315*
G02X192848Y84750I989J148*
X192859Y84901I1000J3*
G03X194029Y85931I-1025J2344*
G01X195725Y84940*
X195800Y85000*
X197571Y83569*
G03X196199Y81881I1595J-2698*
G02X195800Y81798I-399J917*
G37*
G36*
X191250Y115950D02*
G01X189479Y117231D01*
G03X190957Y118794I-1294J2704*
X190069Y119729I-1798J-819*
G01X191250Y121600*
X192431Y119729*
G03X191543Y118794I911J-1754*
X193021Y117231I2772J1141*
G01X191250Y115950*
G37*
G36*
X121901Y32559D02*
G01X121599D01*
G03X120569Y33729I-2344J-1025*
X118612Y34869I-2369J-1816*
G02X118471Y35174I259J305*
X118560Y35425I400J-1*
G03X120569Y37271I-1235J3360*
G01X121717Y35693*
X121750Y35750*
X122931Y33729*
G03X121901Y32559I1315J-2196*
G37*
G36*
X120569Y27729D02*
G03X118530Y28750I-2264J-1975D01*
G02X118369Y29071I239J321*
X118459Y29324I400J0*
G03X120569Y31271I-1305J3531*
X121599Y32441I-1315J2196*
G01X121901*
G03X122931Y31271I2344J1025*
G01X121750Y29250*
X121709Y29319*
X120569Y27729*
G37*
G36*
X69400Y131041D02*
G02X69147Y131131I0J400D01*
G03X66334Y133941I-4796J-1988*
G01X67482Y136991*
X69996Y134313*
G03X69592Y132589I3476J-1724*
X69792Y131360I3879J0*
G02X69400Y131041I-392J81*
G37*
G36*
X213250Y54900D02*
G01X212189Y56061D01*
G03X212604Y56323I-545J1322*
X212069Y56729I-1445J-1348*
G01X213170Y58473*
X213150Y58500*
X214431Y60271*
G03X216118Y58745I2704J1294*
G02X216202Y58500I-316J-245*
X216118Y58255I-400J0*
G03X214431Y56729I1017J-2820*
X213896Y56323I910J-1755*
X214311Y56061I960J1060*
G01X213250Y54900*
G37*
G36*
X71155Y36045D02*
G01X68105Y37306D01*
X70796Y39793*
G03X72627Y39335I1830J3429*
X73748Y39500I1J3887*
G02X74055Y39111I-93J-389*
X73965Y38858I-401J0*
G03X71155Y36045I1988J-4796*
G37*
G36*
X146804Y129250D02*
G03X145485Y130811I-3497J-1617D01*
G01X145035Y130529*
X143757Y132323*
X145035Y134071*
G03X146680Y132174I4034J1837*
G01X146804Y132250*
X147167Y131904*
X147512Y131758*
G02X147607Y131500I-305J-259*
G01X147606Y131486*
X148402Y130728*
X146804Y129250*
G37*
G36*
X19692Y102308D02*
G01X17402Y104481D01*
X19544Y106786*
G03X22161Y105771I2617J2866*
G01X22354Y105776*
G02X22618Y105400I-136J-376*
X22501Y105117I-401J0*
G03X19692Y102308I1967J-4776*
G37*
G36*
X143628Y6500D02*
G01X141380D01*
X141379*
G02X141215Y6586I0J200*
G01X141000Y6898*
X140988Y6996*
X141006Y7042*
G03X141401Y9200I-5706J2159*
X140863Y11704I-6100J-1*
G01X140844Y11746*
X140846Y11838*
X141034Y12198*
X141108Y12253*
X141153Y12261*
G03X142990Y13240I-653J3439*
G01X143018Y13269*
X143092Y13300*
X143628*
G02X143828Y13100I0J-200*
G01Y12769*
G03X143982Y12063I1700J1*
G01X144000Y12023*
Y10600*
G03X144200Y10400I200J0*
G01X144211*
X144301Y10176*
G02X144315Y10102I-187J-74*
X144264Y9968I-201J0*
G03X143828Y8831I1265J-1137*
G01Y6700*
G02X143628Y6500I-200J0*
G37*
G36*
X78200Y19050D02*
G03X77400Y19210I-800J-1920D01*
X76600Y19050I0J-2080*
G02X76100Y19550I0J500*
X76171Y19807I500J0*
G03X76771Y20807I-900J1220*
G01X77495Y20717*
G03X78629Y21731I-1062J2328*
G01X80400Y20696*
X82171Y21731*
G03X83250Y20743I2195J1314*
X84329Y21731I-1116J2302*
G01X86350Y20550*
X84329Y19369*
G03X83250Y20357I-2196J-1315*
X82171Y19369I1116J-2302*
G01X80400Y20404*
X78629Y19369*
G03X78254Y19853I-2196J-1314*
G01X78200Y19050*
G37*
G36*
X162269Y56629D02*
G03X161100Y57910I-2704J-1294D01*
X159931Y56629I1535J-2575*
G01X158650Y58400*
X158670Y58427*
X157569Y60171*
G03X158529Y61286I-910J1755*
G02X158750Y61352I220J-335*
X158971Y61286I1J-401*
G03X159931Y60171I1870J639*
X161100Y58890I2704J1294*
X162269Y60171I-1535J2575*
G01X163550Y58400*
X162269Y56629*
G37*
G36*
X95704Y90400D02*
G01X93933Y91831D01*
G03X95042Y92944I-1595J2698*
X93933Y94069I-2713J-1566*
G01X95704Y95500*
X95779Y95440*
X97475Y96431*
G03X98645Y95401I2195J1314*
G02X98656Y95250I-991J-148*
X98645Y95099I-1002J-3*
G03X97475Y94069I1025J-2344*
X96363Y92950I1596J-2698*
X97475Y91831I2708J1579*
G01X95704Y90400*
G37*
G36*
X51767Y131382D02*
G02X51509Y131476I0J400D01*
G03X49207Y133941I-4131J-1550*
G01X51767Y136996*
X54327Y133941*
G03X52025Y131476I1829J-4015*
G02X51767Y131382I-258J306*
G37*
G36*
X65245Y11155D02*
G03X62780Y13457I-4015J-1829D01*
G02X62686Y13715I306J258*
X62780Y13973I400J0*
G03X65245Y16275I-1551J4131*
G01X68300Y13715*
X65245Y11155*
G37*
G36*
X43893Y68389D02*
G02X43635Y68483I0J400D01*
G03X41333Y70949I-4131J-1549*
G01X43893Y74004*
X46453Y70949*
G03X44151Y68483I1829J-4015*
G02X43893Y68389I-258J306*
G37*
G36*
X51767D02*
G02X51509Y68483I0J400D01*
G03X49207Y70949I-4131J-1549*
G01X51767Y74004*
X54327Y70949*
G03X52025Y68483I1829J-4015*
G02X51767Y68389I-258J306*
G37*
G36*
X59641D02*
G02X59383Y68483I0J400D01*
G03X57081Y70949I-4131J-1549*
G01X59641Y74004*
X62201Y70949*
G03X59899Y68483I1829J-4015*
G02X59641Y68389I-258J306*
G37*
G36*
X101704Y101300D02*
G01X99933Y102731D01*
G03X101074Y103900I-1595J2698*
X99933Y105069I-2736J-1529*
G01X101704Y106500*
X101779Y106440*
X103475Y107431*
G03X104645Y106401I2195J1314*
G02X104656Y106250I-990J-148*
X104645Y106099I-1001J-3*
G03X103475Y105069I1025J-2344*
X102334Y103900I1595J-2698*
X103475Y102731I2736J1529*
G01X101704Y101300*
G37*
G36*
X7986Y42701D02*
G01X5109Y45224D01*
X8163Y47566*
G03X10973Y44753I4798J1983*
G02X11063Y44500I-310J-253*
X10886Y44168I-400J0*
G03X7986Y42701I324J-4240*
G37*
G36*
X103475Y83069D02*
G01X101713Y84099D01*
X99933Y83069*
G03X98675Y84136I-2239J-1365*
G02X98654Y84283I977J215*
G01X98645Y84199*
G03X97475Y83169I1025J-2344*
G01X95704Y84204*
X93933Y83169*
G03X92763Y84199I-2196J-1315*
G02X92752Y84350I989J148*
X92763Y84501I1000J3*
G03X93933Y85531I-1025J2344*
G01X95704Y84496*
X97475Y85531*
G03X98645Y84501I2195J1314*
G01X98654Y84417*
G02X98684Y84601I998J-68*
G03X99933Y85431I-713J2427*
G01X101695Y84391*
X103475Y85431*
G03X104645Y84401I2195J1314*
G02X104656Y84250I-990J-148*
X104645Y84099I-1001J-3*
G03X103475Y83069I1025J-2344*
G37*
G36*
X8163Y34777D02*
G01X4958Y37337D01*
X8163Y39897*
G03X10577Y37857I3787J2033*
G02X10723Y37337I-854J-520*
X10577Y36817I-1000J0*
G03X8163Y34777I1373J-4073*
G37*
G36*
X25585Y133941D02*
G03X22784Y136234I-4424J-2547D01*
G02X22630Y136897I1346J662*
X22784Y137559I1500J0*
G03X25585Y139851I-1622J4840*
G01X28520Y136896*
X25585Y133941*
G37*
G36*
X18199Y131801D02*
G01X14949Y134569D01*
X17496Y136896*
X21173*
X22234Y135835*
G03X18199Y131801I2824J-6860*
G37*
G36*
X113850Y66348D02*
G02X113629Y66414I-1J401D01*
G03X112669Y67529I-1870J-639*
G01X113705Y69170*
X113600Y69300*
X113660Y69375*
X112669Y71071*
G03X113681Y72200I-1314J2196*
X112669Y73329I-2326J-1067*
G01X113850Y75350*
X115031Y73329*
G03X114019Y72200I1314J-2196*
X115031Y71071I2326J1067*
X115561Y70403I2697J1596*
G01X115579Y70417*
X115627Y70342*
G03X116719Y69699I2103J2323*
G02X116802Y69300I-918J-399*
X116719Y68901I-1001J0*
G03X115031Y67529I1010J-2967*
X114071Y66414I910J-1755*
G02X113850Y66348I-220J335*
G37*
G36*
X148304Y135230D02*
G02X147988Y135281I-1J1001D01*
G03X146804Y136730I-2649J-956*
X146035Y137568I-2474J-1498*
X145035Y136529I1698J-2635*
G01X143604Y138300*
X145035Y140071*
G03X146060Y139015I2699J1594*
X146804Y139730I-1522J2328*
G01X148283Y138455*
X148304Y138480*
X148322Y138459*
X149804Y139730*
G03X151253Y138546I2405J1464*
G02X151304Y138230I-950J-315*
X151253Y137914I-1001J-1*
G03X149804Y136730I956J-2649*
X148620Y135281I1465J-2405*
G02X148304Y135230I-315J950*
G37*
G36*
X19692Y92308D02*
G01X17433Y94336D01*
X14400Y94500*
G03X14610Y95550I-2521J1050*
X14400Y96600I-2731J0*
G02X15400Y97600I1000J0*
G03X16450Y97390I1050J2520*
X17500Y97600I0J2731*
G01X17648Y94857*
X19692Y96692*
G03X21177Y95207I2524J1039*
G02X21470Y94500I-707J-707*
X21177Y93793I-1000J0*
G03X19692Y92308I1039J-2524*
G37*
G36*
X174300Y80898D02*
G02X174042Y80992I0J400D01*
G03X171729Y83469I-4150J-1557*
X170518Y84523I-1911J-974*
G01X170500Y84552*
X170486Y84529*
G03X169371Y83569I639J-1869*
G01X167500Y84750*
X169371Y85931*
G03X170486Y84971I1754J910*
G01X170500Y84948*
G02X170538Y85003I347J-199*
G03X171729Y85831I-439J1902*
G01X173460Y84735*
X173477Y84747*
X175271Y83469*
G03X174636Y81564I2539J-1905*
G01X174643Y81349*
X174665Y81134*
G02X174300Y80898I-365J164*
G37*
G36*
X211030Y79700D02*
G01X207979Y80981D01*
G03X210658Y83525I-1991J4779*
X210085Y84198I-1835J-982*
X209571Y83569I1240J-1538*
G01X207700Y84750*
X209571Y85931*
G03X210686Y84971I1754J910*
G02X210740Y84850I-334J-222*
G01X211430*
X212444Y84467*
G03X211401Y83524I792J-1925*
X214081Y80981I4669J2237*
G01X211030Y79700*
G37*
G36*
X137492Y7008D02*
G01X135355Y8927D01*
X133108Y7008*
G03X131977Y8139I-1923J-792*
G02X131538Y9200I1061J1061*
X131977Y10261I1500J0*
G03X132314Y10437I-790J1924*
X132200Y10800I-2034J-439*
G02X133700Y12300I1500J0*
G03X134500Y12140I800J1920*
X135300Y12300I0J2081*
G01X135512Y9614*
X137492Y11392*
G03X138977Y9907I2524J1039*
G02X139270Y9200I-707J-707*
X138977Y8493I-1000J0*
G03X137492Y7008I1039J-2524*
G37*
G36*
X128392D02*
G01X126227Y8857D01*
X126200Y8825*
X126173Y8857*
X124008Y7008*
G03X122877Y8139I-1923J-792*
G02X122438Y9200I1061J1061*
X122877Y10261I1500J0*
G03X124008Y11392I-792J1923*
X125139Y12523I-792J1923*
G02X126200Y12962I1061J-1062*
X127261Y12523I0J-1501*
G03X128392Y11392I1924J793*
X129523Y10261I1923J792*
G02X129962Y9200I-1062J-1061*
X129523Y8139I-1501J0*
G03X128392Y7008I792J-1923*
G37*
G36*
X129231Y116437D02*
G01X124525Y119390D01*
X129231Y122343*
G03X132029Y120052I4420J2545*
G02X132183Y119390I-1347J-662*
X132029Y118728I-1501J0*
G03X129231Y116437I1622J-4835*
G37*
G36*
X158821Y68619D02*
G01X155849Y69733D01*
X155770Y69700*
X152719Y70981*
G03X154580Y72300I-1989J4779*
X152719Y73619I-3850J-3460*
G01X155770Y74900*
X158821Y73619*
G03X156961Y72300I1991J-4779*
X158821Y70981I3851J3460*
X159936Y70021I1755J910*
G02X160002Y69800I-335J-220*
X159936Y69579I-401J-1*
G03X158821Y68619I639J-1869*
G37*
G36*
X122555Y103310D02*
G01X122253D01*
G03X121223Y104479I-2344J-1027*
X119904Y106105I-4541J-2336*
X118585Y104479I3222J-3962*
G01X117154Y107530*
X118585Y110581*
G03X119904Y108955I4541J2336*
X121223Y110581I-3222J3962*
G01X122654Y107530*
X122563Y107336*
X123585Y104479*
G03X122555Y103310I1314J-2196*
G37*
G36*
X9401Y2901D02*
G03X8647Y3950I-2594J-1069D01*
X8163Y3281I3993J-3398*
G01X4708Y5841*
X8163Y8401*
G03X8657Y7720I4477J2728*
X9440Y8737I-1712J2128*
G01X12800Y5793*
X9401Y2901*
G37*
G36*
X111333Y33271D02*
G01X102633D01*
G02X102473Y33352I1J200*
G01X102253Y33648*
X102237Y33741*
X102250Y33787*
G03X102400Y34801I-3350J1014*
G01Y34822*
Y34862*
X102430Y34936*
X106115Y38621*
G02X106256Y38679I141J-141*
G01X106257*
X111333*
G02X111533Y38479I0J-200*
G01Y33471*
G02X111333Y33271I-200J0*
G37*
G36*
X152719Y78619D02*
G03X151550Y79649I-2196J-1314D01*
G02X151539Y79800I989J148*
X151550Y79951I1000J3*
G03X152719Y80981I-1027J2344*
X154579Y82951I-2615J4332*
X153829Y83569I-2344J-2081*
X152659Y84599I-2196J-1315*
G02X152648Y84750I989J148*
X152659Y84901I1000J3*
G03X153829Y85931I-1025J2344*
G01X155525Y84940*
X155600Y85000*
X157371Y83569*
G03X156655Y82989I1594J-2699*
X158821Y80981I4610J2800*
G01X155783Y79550*
X155583Y79644*
X152719Y78619*
G37*
G36*
X166669Y59500D02*
G01X166531D01*
G02X166331Y59700J200*
G01Y60171*
Y60172*
G03X164631Y61872I-1701J-1*
G01X162269*
G03X161687Y61769I1J-1700*
G01X161641Y61752*
X161544Y61765*
X161236Y61981*
G02X161150Y62145I114J164*
G01Y64361*
Y64362*
G03X161092Y64503I-200J0*
G01X160580Y65014*
G02X160521Y65156I140J142*
G01Y65981*
Y65982*
G03X160308Y66806I-1700J0*
G01X160282Y66852*
X160283Y66959*
X160485Y67301*
G02X160658Y67400I173J-101*
G01X162923*
G02X163064Y67341I-1J-200*
G01X168022Y62384*
G02X168081Y62243I-140J-142*
X168077Y62204I-199J1*
G01X168005Y61830*
X167943Y61753*
X167897Y61733*
G03X166869Y60171I672J-1562*
G01Y59700*
G02X166669Y59500I-200J0*
G37*
G36*
X9200Y89800D02*
G01X4200D01*
X3600Y90400*
Y98400*
X4000Y98800*
X8500*
X11300Y96000*
Y91900*
X9200Y89800*
G37*
G36*
X131900Y97100D02*
G01X129028Y100052D01*
X129101Y100129*
X126900Y103100*
G03X128843Y105493I-2316J3865*
G02X129400Y105600I556J-1394*
X129957Y105493I1J-1501*
G03X131900Y103100I4259J1473*
X135129Y101688I3487J3576*
G02X135500Y100700I-1130J-988*
X135296Y99944I-1501J-1*
G03X131900Y97100I1929J-5753*
G37*
G36*
X133060Y133240D02*
G01X132640Y133383D01*
G02X132504Y133572I64J189*
G01Y134100*
G03X132304Y134300I-200J0*
G01X131130*
G02X130930Y134500I0J200*
G01Y134503*
Y134505*
X130931Y134547*
Y136420*
G03X129231Y134547I2688J-4148*
G01X124650Y137500*
X129231Y140453*
G03X130931Y138580I4388J2275*
G01Y140300*
G02X131131Y140500I200J0*
G01X134273*
G02X134416Y140440I0J-200*
G01X134644Y140209*
X134674Y140135*
X134673Y140094*
Y140071*
Y136529*
Y136528*
G03X135034Y135481I1700J0*
G01X135076Y135358*
Y135242*
X135034Y135119*
G03X134741Y134548I1339J-1048*
G02X134627Y134420I-192J56*
G03X133222Y133329I1374J-3220*
G01X133182Y133278*
X133060Y133240*
G37*
G36*
X122404Y86020D02*
G01X121223Y89321D01*
G03X122253Y90490I-1314J2196*
G01X122419*
X122154Y91100*
Y93100*
X123111Y95307*
G03X125023Y93100I4250J1750*
X126900Y95100I-2584J4305*
G01X129650Y92100*
X126900Y89100*
G03X125023Y91100I-4460J-2305*
X123387Y89452I2338J-3957*
X123585Y89321I1509J2066*
G01X122404Y86020*
G37*
G36*
X86258Y6741D02*
G01X86165Y6771D01*
X84494Y8442*
G03X84353Y8500I-141J-141*
G01X81118*
G02X80977Y8559I1J200*
G01X79159Y10377*
G02X79100Y10518I140J142*
G01Y11169*
G02X79300Y11369I200J0*
G01X80030*
X80001Y11381*
G03X78629Y13069I-2967J-1010*
G01X80400Y14500*
X80475Y14440*
X82171Y15431*
G03X83250Y14443I2195J1314*
X84329Y15431I-1116J2302*
G01X86025Y14440*
X86100Y14500*
X86175Y14440*
X87871Y15431*
G03X89041Y14401I2195J1314*
G02X89052Y14250I-991J-148*
X89041Y14099I-1002J-3*
G03X87871Y13069I1025J-2344*
X86499Y11381I1595J-2698*
G01X86470Y11369*
X87348*
G02X87513Y11281I-1J-200*
G01X87727Y10966*
X87738Y10867*
X87719Y10821*
G03X87541Y7302I5070J-2020*
G01X87554Y7255*
X87535Y7159*
X87268Y6828*
X87179Y6789*
X87130Y6793*
X86903Y6800*
G03X86306Y6749I-2J-3501*
G01X86258Y6741*
G37*
G36*
X138436Y79132D02*
G01X138316Y79189D01*
X138106Y79585*
G02X138082Y79679I176J95*
X138141Y79821I200J0*
G01X142742Y84422*
G03X142800Y84563I-141J141*
G01Y88997*
G02X142859Y89139I200J0*
G01X145061Y91341*
G02X145203Y91400I142J-140*
G01X145928*
G02X146128Y91200I0J-200*
G01Y89869*
G03X146586Y88709I1700J1*
G01X146623Y88669*
X146647Y88562*
X146502Y88124*
X146420Y88052*
X146366Y88042*
G03X143500Y84600I634J-3442*
X144470Y82182I3500J0*
G01X144517Y82132*
X144531Y81995*
X144287Y81609*
G02X144117Y81515I-170J107*
X144055Y81525I1J201*
X142721Y82330I1096J3325*
G03X142582Y82386I-139J-144*
G01X142464*
X142463*
G03X142322Y82328I0J-200*
G01X139976Y79982*
G03X139917Y79841I140J-142*
X139932Y79765I199J0*
G01X140010Y79571*
G02X140025Y79495I-185J-76*
X139900Y79310I-200J0*
G01X139867Y79297*
X139831Y79296*
G03X138500Y79145I267J-8296*
G01X138436Y79132*
G37*
G36*
X27828Y87500D02*
G01X25100D01*
X24980Y87540*
X24939Y87570*
G03X24852Y87606I-118J-162*
G02X23563Y88244I366J2361*
X23508Y88339I139J144*
G03X22311Y90065I-2908J-739*
G01X22276Y90089*
X22232Y90160*
X22180Y90533*
X22202Y90614*
X22229Y90646*
G03X23600Y94500I-4730J3853*
X21398Y99192I-6101J0*
G01X21364Y99221*
X21326Y99302*
Y99698*
X21364Y99779*
X21398Y99808*
G03X23181Y102278I-3898J4692*
G01X23266Y102378*
G02X23750Y102594I1199J-2037*
G03X23787Y102611I-65J190*
X24280Y102953I-1569J2788*
G01X24409Y103000*
X27317*
G02X27471Y102928I0J-200*
G01X27696Y102658*
X27719Y102572*
X27711Y102528*
G03X27654Y101900I3443J-629*
G01Y99300*
G03X28127Y97543I3500J0*
G02X28154Y97443I-173J-100*
G01Y87826*
G02X28095Y87684I-200J0*
G01X27970Y87559*
G02X27828Y87500I-142J140*
G37*
G36*
X8400Y119700D02*
G01X1900D01*
X1500Y120100*
Y130000*
X2200Y130700*
X7000*
X11400Y126300*
Y122700*
X8400Y119700*
G37*
G36*
X17500Y78300D02*
G02X16939Y78472I0J1000D01*
G03X14400Y81400I-4907J-1690*
X11415Y83831I-4907J-2977*
G02X11300Y84500I1885J668*
X11415Y85169I2000J1*
G03X14400Y87600I-1922J5408*
G01X17611Y84834*
X20600Y87600*
G03X23528Y85061I4618J2367*
G02X23700Y84500I-828J-561*
X23528Y83939I-1000J0*
G03X20600Y81400I1690J-4907*
X18061Y78472I2367J-4618*
G02X17500Y78300I-561J828*
G37*
G36*
X162923Y97800D02*
G01X158260D01*
G02X158089Y97896I0J200*
G01X157884Y98234*
X157881Y98338*
X157905Y98385*
G03X154800Y103500I-3105J1615*
G01X154229Y103453*
X154165Y103443*
X154048Y103501*
X153844Y103898*
G02X153881Y104131I178J91*
G01X154791Y105041*
G02X154933Y105100I142J-140*
G01X173400*
G02X173600Y104900I0J-200*
G01Y101800*
G02X173400Y101600I-200J0*
G01X166889*
X166888*
G03X166747Y101542I0J-200*
G01X163064Y97859*
G02X162923Y97800I-142J140*
G37*
G36*
X206817Y46800D02*
G01X192300D01*
G02X192100Y47000J200*
G01Y54600*
G02X192159Y54741I200J-1*
G01X192387Y54969*
X192460Y55000*
X192500*
X192502*
G03X193788Y55245I0J3500*
G02X193862Y55259I74J-186*
X193957Y55235I0J-200*
G03X194769Y55028I813J1493*
G01X195600*
Y55000*
X207500*
Y55028*
X208131*
G03X208915Y55220I-1J1700*
G01X208962Y55244*
X209067Y55241*
X209404Y55036*
G02X209500Y54865I-104J-171*
G01Y49483*
G02X209441Y49341I-200J0*
G01X206959Y46859*
G02X206817Y46800I-142J140*
G37*
G36*
X255400Y61100D02*
G01X242800D01*
G02X241800Y62100J1000*
G01Y71100*
G02X242800Y72100I1000J0*
G01X255400*
G02X256400Y71100I0J-1000*
G01Y62100*
G02X255400Y61100I-1000J0*
G37*
G36*
X130823Y83900D02*
G01X125485D01*
G02X125285Y84100I0J200*
G01Y85433*
X125292Y85459*
X125388Y85954*
X125393Y86008*
X125457Y86095*
X125732Y86214*
G03X125838Y86322I-79J183*
G01X126282Y87402*
X126415Y87469*
X126488Y87451*
G03X126900Y87400I413J1649*
X128030Y87830I0J1700*
G01X128058Y87854*
X128124Y87880*
X133153Y87951*
G03X133600Y89100I-1253J1149*
G01Y95100*
Y95101*
G03X133346Y95995I-1700J0*
G02X133316Y96100I170J105*
X133346Y96205I200J0*
G01X133392Y96285*
G02X133998Y97135I3834J-2092*
X134146Y97200I148J-135*
G01X139123*
G02X139307Y97076I-1J-200*
G01X139331Y97020*
X139307Y96901*
X134858Y92453*
G03X134800Y92312I141J-141*
G01Y92311*
Y87877*
G02X134741Y87736I-200J1*
G01X130964Y83959*
G02X130823Y83900I-142J140*
G37*
G36*
X107662Y66059D02*
G02X107229Y66308I-1J500D01*
G03X106796Y67058I-1117J-145*
G02X106662Y67559I866J500*
X106793Y68053I1000J-1*
G01X106369Y67529*
G03X104681Y68901I-2698J-1595*
G02X104598Y69300I917J399*
G01X104599Y69348*
X104469Y69300*
X104040*
G02X103898Y69359J200*
G01X101716Y71542*
G03X101575Y71600I-141J-141*
G01X101574*
X100196*
G02X100054Y71659J200*
G01X99071Y72642*
G03X98930Y72700I-141J-141*
G01X93403*
G02X93261Y72759J200*
G01X92159Y73861*
G02X92100Y74003I140J142*
G01Y77100*
G02X92300Y77300I200J0*
G01X104269*
G02X104412Y77240I0J-200*
G01X104640Y77009*
X104670Y76934*
X104669Y76894*
Y76871*
Y75470*
X104681Y75499*
G03X106369Y76871I-1010J2967*
G01X107800Y75100*
X107740Y75025*
X108731Y73329*
G03X107719Y72200I1314J-2196*
X108731Y71071I2326J1067*
G01X107740Y69375*
X107800Y69300*
X106996Y68304*
X107018Y68324*
G02X107661Y68558I643J-766*
X108304Y68324I0J-1000*
X108661Y67558I-643J-766*
X108527Y67058I-1001J0*
G03X108094Y66308I684J-895*
G02X107662Y66059I-432J251*
G37*
G36*
X77475Y53322D02*
G01X75200D01*
G02X75000Y53522I0J200*
G01Y57211*
Y57212*
G03X74942Y57353I-200J0*
G01X72914Y59381*
G02X72855Y59522I140J142*
G01Y60052*
G03X71155Y58399I2233J-3997*
G01X68200Y60671*
X65245Y58399*
G03X62799Y60385I-3933J-2345*
G02X62685Y60959I1386J574*
X62799Y61533I1500J0*
G03X65245Y63519I-1487J4331*
G01X68200Y61247*
X71155Y63519*
G03X72855Y61866I3933J2344*
G01Y63000*
G02X73055Y63200I200J0*
G01X81122*
G02X81280Y63122I0J-200*
G01X81502Y62835*
X81520Y62744*
X81509Y62698*
X81476Y62562*
G02X81434Y62477I-195J43*
G03X80394Y59600I3460J-2877*
G01X80397Y59442*
X80399Y59401*
X80370Y59325*
X80142Y59089*
G02X79998Y59028I-144J139*
G01X77875*
G03X77675Y58828I0J-200*
G01Y53522*
G02X77475Y53322I-200J0*
G37*
G36*
X194726Y61971D02*
G01X194582Y62112D01*
G02X194521Y62255I139J144*
G01Y76600*
G02X194721Y76800I200J0*
G01X194960*
G03X195101Y76858I0J200*
G01X198742Y80499*
G03X198800Y80640I-141J141*
G01Y81900*
G02X199000Y82100I200J0*
G01X199145*
X199194Y82088*
X199216Y82076*
G03X200029Y81869I813J1493*
G01X203571*
G03X204384Y82076I0J1700*
G01X204406Y82088*
X204455Y82100*
X205145*
X205194Y82088*
X205216Y82076*
G03X206029Y81869I813J1493*
G01X206208*
G02X206408Y81669I0J-200*
G01Y81631*
X206394Y81596*
G03X206279Y80981I1586J-615*
G01Y78619*
Y78602*
Y65998*
Y65981*
Y63619*
G03X206760Y62434I1700J0*
G01X206817Y62375*
X206816Y62211*
X206664Y62059*
G02X206523Y62000I-142J140*
G01X195600*
Y61972*
X194769*
X194726Y61971*
G37*
G36*
X172099Y65190D02*
G01X171980Y65214D01*
X165053Y72142*
G03X164912Y72200I-141J-141*
G01X164911*
X160658*
G02X160485Y72299I0J200*
G01X160283Y72642*
X160282Y72748*
X160308Y72794*
G03X160521Y73618I-1488J824*
G01Y73619*
Y75981*
G03X160095Y77107I-1700J0*
G02X160045Y77239I150J132*
G01Y77361*
G02X160095Y77493I200J0*
G03X160521Y78619I-1274J1126*
G01Y80981*
Y80983*
X160475Y81376*
X160464Y81421*
X160484Y81510*
X160707Y81793*
G02X160864Y81869I157J-124*
G01X161230*
X161201Y81881*
G03X159829Y83569I-2967J-1010*
G01X161600Y85000*
X163371Y83569*
G03X161999Y81881I1595J-2698*
G01X161970Y81869*
X163371*
X163372*
G03X164419Y82230I0J1700*
G01X164542Y82272*
X164658*
X164781Y82230*
G03X165829Y81869I1048J1340*
G01X169371*
X169372*
G03X170370Y82193I0J1700*
G02X170487Y82231I117J-162*
G01X170618Y82182*
G03X171030Y81919I1111J1287*
G01X171031*
G02X171843Y81348I-1140J-2484*
X171900Y81208I-143J-140*
G01Y79689*
Y79688*
G03X171958Y79547I200J0*
G01X172220Y79286*
G02X172279Y79144I-140J-142*
G01Y78619*
G03X172705Y77493I1700J0*
G02X172755Y77361I-150J-132*
G01Y77239*
G02X172705Y77107I-200J0*
G03X172279Y75981I1274J-1126*
G01Y73619*
G03X172705Y72493I1700J0*
G02X172755Y72361I-150J-132*
G01Y72239*
G02X172705Y72107I-200J0*
G03X172279Y70981I1274J-1126*
G01Y68619*
G03X172705Y67493I1700J0*
G02X172755Y67361I-150J-132*
G01Y67239*
G02X172705Y67107I-200J0*
G03X172279Y65981I1274J-1126*
G01Y65399*
G02X172155Y65214I-200J0*
G01X172099Y65190*
G37*
G36*
X315700Y83500D02*
G01X298900D01*
G02X297900Y84500I0J1000*
G01Y96200*
G02X298900Y97200I1000J0*
G01X315700*
G02X316700Y96214I0J-1000*
G01Y84486*
G02X315700Y83500I-1000J14*
G37*
G36*
X97031Y37793D02*
G02X96921Y37826I0J200D01*
G03X95568Y38354I-1921J-2926*
G01X95495Y38366*
X95400Y38478*
Y41560*
G02X95459Y41702I200*
G01X95842Y42084*
G03X95900Y42225I-141J141*
G01Y42226*
Y49993*
G03X95842Y50134I-200J0*
G01X94159Y51817*
G02X94100Y51958I140J142*
G01Y54560*
G02X94159Y54702I200*
G01X94198Y54741*
G02X94340Y54800I142J-140*
G01X98594*
G03X98735Y54858I0J200*
G01X99718Y55841*
G02X99859Y55900I142J-140*
G01X111333*
G02X111533Y55700I0J-200*
G01Y43680*
G02X111333Y43480I-200J0*
G01X104268*
G03X104127Y43421I1J-200*
G01X99036Y38330*
X98962Y38300*
X98922*
X98900*
G03X97132Y37821I-1J-3500*
G02X97031Y37793I-102J172*
G37*
G36*
X69567Y116900D02*
G01X67578D01*
G02X67393Y117023I0J200*
G01Y117024*
G02X67436Y117242I185J77*
G01X74942Y124747*
G03X75000Y124888I-141J141*
G01Y129200*
G02X75200Y129400I200J0*
G01X79711*
X79712*
G03X79853Y129458I0J200*
G01X82577Y132182*
G02X82718Y132241I142J-140*
G01X85823*
G03X87523Y133941I0J1700*
G01Y133976*
G02X87723Y134176I200J0*
G01X87788*
X87893Y134100*
X87913Y134038*
G03X89341Y132879I1615J531*
G01X89342*
X89466Y132817*
X89546Y132731*
G02X89600Y132594I-146J-137*
G01Y132568*
X89572Y132497*
X89466Y132383*
X89342Y132321*
X89341*
G03X87828Y130631I187J-1690*
G01Y128269*
G03X89528Y126569I1700J0*
G01X89529*
X90463*
X90489Y126562*
G03X91300Y126450I812J2888*
G01X93004*
G02X93204Y126250I0J-200*
G01Y122500*
G02X93004Y122300I-200J0*
G01X79840*
G03X79699Y122242I0J-200*
G01X77616Y120159*
G02X77474Y120100I-142J140*
G01X76631*
X76580Y120114*
X76557Y120127*
G03X74800Y120600I-1757J-3027*
X71976Y119168I0J-3500*
G01X71935Y119112*
X71881Y119074*
X71849Y119065*
G03X71764Y119014I57J-192*
G01X69709Y116959*
G02X69567Y116900I-142J140*
G37*
G36*
X178500Y1600D02*
G01X154200D01*
X153400Y2400*
Y19900*
X178900*
X179800Y19000*
Y2900*
X178500Y1600*
G37*
G36*
X167900Y26400D02*
G01X149800D01*
X148400Y27800*
Y36600*
X143300Y41700*
Y44300*
X145600Y46600*
X167100*
X168800Y44900*
Y27300*
X167900Y26400*
G37*
G36*
X116604Y116300D02*
G01X108904D01*
X106204Y119000*
X97304*
X96704Y119600*
Y137000*
X100204Y140500*
X117104*
X117804Y139800*
Y132500*
X119104Y131200*
X128404*
X128804Y130800*
X129004*
Y126400*
X128504Y125900*
X119104*
X118104Y124900*
Y117800*
X116604Y116300*
G37*
G36*
X148933Y109165D02*
G02X148860Y109179I0J199D01*
G01X148463Y109335*
X148394Y109433*
X148392Y109492*
G03X145820Y115200I-8295J-304*
G01X145776Y115242*
X145750Y115362*
X145911Y115764*
G02X146096Y115890I186J-74*
G01X167960*
G03X168101Y115948I0J200*
G01X169075Y116922*
G03X169772Y120876I-2475J2475*
X166600Y122898I-3173J-1478*
G01X166382Y122891*
X166376Y122890*
X146900*
X146899*
G02X146724Y122994I0J200*
G01X146530Y123351*
X146534Y123461*
X146564Y123507*
G03X146835Y124429I-1430J921*
G01Y125830*
X146823Y125801*
G03X145135Y124429I1010J-2967*
G01X143704Y126200*
X145135Y127971*
G03X146823Y126599I2698J1595*
G01X146835Y126570*
Y127350*
G02X147035Y127550I200J0*
G01X149804*
G03X151504Y129250J1700*
G01Y132250*
G03X149804Y133950I-1700J0*
G01X147246*
G02X147102Y134011I0J200*
X146649Y134639I1967J1896*
X146658Y134840I177J93*
G01X146780Y135030*
X146804*
X149804*
G03X151504Y136730J1700*
G01Y139730*
G03X151478Y140029I-1700J3*
G01X151470Y140073*
X151493Y140159*
X151718Y140428*
G02X151871Y140500I153J-127*
G01X155560*
G02X155725Y140413I0J-200*
G01X155939Y140101*
X155951Y140002*
X155933Y139956*
G03X155700Y138700I3267J-1256*
G01Y137899*
G02X155641Y137757I-200J0*
G01X155576Y137692*
X155523Y137664*
X155494Y137658*
G03X154124Y135990I330J-1668*
G01Y135909*
X154108Y135871*
G03Y133110I3216J-1380*
G01X154124Y133072*
Y132990*
G03X155824Y131290I1700*
G01X155906*
X155944Y131274*
G03X157325Y130990I1381J3216*
X158705Y131274I-1J3500*
G01X158742Y131290*
X158824*
G03X160492Y132660I0J1700*
G01X160498Y132689*
X160526Y132742*
X162642Y134858*
G03X162700Y134999I-141J141*
G01Y135100*
G02X162900Y135300I200J0*
G01X180200*
G02X180400Y135100I0J-200*
G01Y123683*
G02X180341Y123541I-200J0*
G01X173659Y116859*
G03X173600Y116717I140J-142*
G01Y112300*
G02X173400Y112100I-200J0*
G01X152033*
G03X151892Y112042I0J-200*
G01X149074Y109224*
G02X148933Y109165I-142J140*
G37*
G36*
X36400Y38600D02*
G01X34759D01*
X34708Y38614*
X34686Y38627*
G03X32929Y39100I-1757J-3027*
X31171Y38627I-1J-3500*
G01X31148Y38614*
X31098Y38600*
X29431*
X29380Y38614*
X29357Y38627*
G03X27600Y39100I-1757J-3027*
X25843Y38627I0J-3500*
G02X25743Y38600I-100J173*
G01X25742*
X19326*
G02X19184Y38659I0J200*
G01X17564Y40279*
G03X17423Y40337I-141J-141*
G01X9998*
G02X9835Y40421I0J200*
X9664Y40695I2114J1510*
G01Y40696*
X9447Y41012*
X9423Y41039*
X9398Y41107*
Y41441*
X9423Y41509*
X9447Y41536*
G03X9718Y41963I-1284J1115*
G02X9789Y42048I183J-81*
G01X9818Y42068*
G02X9927Y42100I109J-168*
G01X15702*
G02X15858Y42024I-1J-200*
G03X18600Y40699I2742J2176*
X20529Y41279I-1J3501*
X21678Y45867I-1929J2921*
X18600Y47701I-3078J-1667*
X17208Y47412I1J-3501*
X16798Y47201I1393J-3211*
G01X16754Y47174*
X16649Y47171*
X16254Y47379*
X16197Y47466*
X16193Y47519*
G03X14781Y50114I-3493J-219*
G02X14700Y50275I119J161*
G01Y57011*
G03X14642Y57153I-200J1*
G01X11153Y60642*
G03X11012Y60700I-141J-141*
G01X11011*
X10063*
G02X9863Y60900J200*
G01Y63519*
G03X8163Y65219I-1700J0*
G01X2253*
X2252*
X2109Y65213*
X1967Y65195*
X1924Y65188*
X1839Y65211*
X1571Y65437*
G02X1500Y65590I129J153*
G01Y73200*
G02X1700Y73400I200J0*
G01X11000*
G02X11200Y73200I0J-200*
G01Y63388*
G03X11258Y63247I200J0*
G01X16747Y57758*
G03X16888Y57700I141J141*
G01X27167*
G02X27310Y57640I0J-200*
G03X29800Y56600I2490J2460*
X32819Y58329I0J3500*
G01X32843Y58370*
X32920Y58421*
X33280Y58467*
G02X33306Y58469I28J-198*
X33447Y58410I-1J-200*
G01X36541Y55316*
G02X36600Y55174I-140J-142*
G01Y38800*
G02X36400Y38600I-200J0*
G37*
G36*
X315900Y1500D02*
G01X258700D01*
X256100Y4100*
Y16700*
X261100Y21700*
X313400*
X316700Y18400*
Y2300*
X315900Y1500*
G37*
G36*
X253800Y91000D02*
G01X243700D01*
X241700Y93000*
Y109500*
X251300Y119100*
X282200*
X299300Y136200*
X311700*
X315400Y132500*
Y115600*
X303800Y104000*
X265800*
X255000Y93200*
Y92200*
X253800Y91000*
G37*
G36*
X92032Y83700D02*
G01X91665D01*
G02X91524Y83759I1J200*
G01X89941Y85342*
G03X89800Y85400I-141J-141*
G01X52500*
G02X52300Y85600I0J200*
G01Y101411*
G03X52242Y101553I-200J1*
G01X42853Y110942*
G03X42712Y111000I-141J-141*
G01X42711*
X27377*
G02X27236Y111059I1J200*
G01X25659Y112636*
G02X25600Y112777I140J142*
G01Y123911*
G03X25542Y124053I-200J1*
G01X24475Y125119*
X24448Y125169*
X24442Y125197*
G03X22988Y127230I-3123J-697*
G02X22915Y127308I104J171*
G03X20862Y129590I-5415J-2807*
G01X20827Y129614*
X20781Y129685*
X20724Y130064*
X20747Y130146*
X20774Y130178*
G03X22024Y132421I-5475J4521*
G02X22085Y132510I189J-64*
X23300Y133246I2971J-3534*
G01X23448Y133307*
X23594Y133374*
X23615Y133385*
X23661Y133396*
X23811*
G02X23976Y133308I-1J-200*
G01X24111Y133093*
G03X25584Y132241I1473J848*
G01X25585*
X30705*
X30706*
G03X31820Y132657I0J1700*
G01X31847Y132681*
X31915Y132706*
X32249*
X32317Y132681*
X32344Y132657*
G03X33458Y132241I1114J1285*
G01X33459*
X35112*
G03X33459Y133941I-3997J-2233*
G01X36019Y137271*
X38579Y133941*
G03X36926Y132241I2345J-3934*
G01X38579*
X38580*
G03X39694Y132657I0J1700*
G01X39721Y132681*
X39789Y132706*
X40123*
X40191Y132681*
X40218Y132657*
G03X41332Y132241I1114J1285*
G01X41333*
X44882*
G02X45023Y132182I-1J-200*
G01X45941Y131264*
G02X46000Y131123I-140J-142*
G01Y120089*
G03X46058Y119947I200J-1*
G01X47570Y118436*
X47600Y118362*
Y118322*
X47604Y118121*
X47606Y118080*
X47578Y118003*
X47350Y117762*
G02X47205Y117700I-145J138*
G01X41519*
G02X41334Y117824J200*
G01X41311Y117880*
X41334Y117999*
X43222Y119886*
G03X43340Y122585I-1414J1414*
X41807Y123300I-1532J-1285*
X40611Y122903I0J-2000*
G01X34885Y118626*
X34800Y118608*
X34757Y118617*
G03X34000Y118700I-758J-3417*
X32628Y118420I0J-3500*
G02X32550Y118404I-78J184*
X32472Y118420I0J200*
G03X31100Y118700I-1372J-3220*
X28345Y117359I0J-3500*
X28302Y113097I2755J-2159*
X31100Y111700I2798J2103*
X32472Y111980I0J3500*
G02X32550Y111996I78J-184*
X32628Y111980I0J-200*
G03X33102Y111817I1372J3219*
G01X33128Y111810*
X33173Y111784*
X33199Y111758*
G03X33340Y111700I141J141*
G01X54174*
G02X54316Y111641I0J-200*
G01X54999Y110958*
G03X55140Y110900I141J141*
G01X63167*
G02X63352Y110776J-200*
G01X63375Y110720*
X63351Y110601*
X63435Y110400*
X74368*
Y110407*
X74574*
X74580*
X74800Y110400*
G03X78183Y113002I0J3500*
G01X78190Y113027*
X78216Y113073*
X79184Y114041*
G02X79326Y114100I142J-140*
G01X79960*
G03X80101Y114158I0J200*
G01X82184Y116241*
G02X82326Y116300I142J-140*
G01X94971*
G02X95113Y116241I0J-200*
G01X95796Y115558*
G03X95937Y115500I141J141*
G01X98340*
G02X98522Y115383I0J-200*
G01X98698Y115000*
X98681Y114884*
X98643Y114839*
G03X98232Y113731I1289J-1108*
G01Y111369*
G03X99932Y109669I1700J0*
G01X99933*
X100404*
G02X100604Y109469I0J-200*
G01Y109331*
G02X100404Y109131I-200J0*
G01X99933*
X99932*
G03X98232Y107431I1J-1701*
G01Y105069*
G03X98247Y104849I1700J5*
G01X98253Y104802*
X98221Y104711*
X97918Y104423*
X97826Y104395*
X97779Y104404*
G03X97477Y104431I-302J-1673*
G01X97475*
X96074*
X96103Y104419*
G03X97475Y102731I2967J1010*
G01X95704Y101300*
X95629Y101360*
X93933Y100369*
G03X92763Y101399I-2196J-1315*
G02X92752Y101550I989J148*
X92763Y101701I1000J3*
G03X93933Y102731I-1026J2344*
X95305Y104419I-1595J2698*
G01X95334Y104431*
X93933*
X93932*
G03X92232Y102731I1J-1701*
G01Y100369*
G03X93745Y98679I1700J0*
G01X93870Y98617*
X93950Y98531*
G02X94004Y98394I-146J-137*
G01Y98368*
X93976Y98297*
X93870Y98183*
X93745Y98121*
G03X92232Y96431I187J-1690*
G01Y94069*
G03X92256Y93789I1700J5*
G02X92255Y93720I-197J-32*
G03X92284Y92336I3445J-620*
G02X92283Y92243I-195J-44*
G03X92232Y91831I1649J-413*
G01Y89469*
G03X93745Y87779I1700J0*
G01X93870Y87717*
X93950Y87631*
G02X94004Y87494I-146J-137*
G01Y87468*
X93976Y87397*
X93870Y87283*
X93745Y87221*
G03X92232Y85531I187J-1690*
G01Y83900*
G02X92032Y83700I-200J0*
G37*
G36*
X63663Y1500D02*
G01X18706D01*
G02X18532Y1602I0J200*
G01X18335Y1953*
X18337Y2062*
X18365Y2108*
G03X17844Y10236I-6065J3692*
X12300Y12900I-5544J-4436*
X10372Y12633I1J-7100*
G01X10326Y12621*
X10234Y12638*
X9948Y12854*
G03X8163Y11155I2148J-4044*
G01X4833Y13715*
X8163Y16275*
G03X9863Y14622I3933J2345*
G01Y16275*
G03X9447Y17390I-1700J1*
G01X9423Y17417*
X9398Y17485*
Y17819*
X9423Y17887*
X9447Y17914*
G03X9863Y19029I-1285J1114*
G01Y19075*
G02X9922Y19216I200J-1*
G01X12042Y21336*
G03X12100Y21478I-141J141*
G01Y24704*
G02X12159Y24846I200J0*
G01X15042Y27729*
G03X15100Y27870I-141J141*
G01Y30767*
G02X15160Y30910I200J0*
G03X16068Y32447I-2460J2490*
G01X16082Y32499*
X16159Y32573*
X16544Y32673*
G02X16595Y32679I49J-194*
X16736Y32621J-200*
G01X16757Y32600*
X25742*
X25743*
G02X25843Y32573I0J-200*
G03X27600Y32100I1757J3027*
X29357Y32573I0J3500*
G01X29380Y32586*
X29431Y32600*
X31098*
X31148Y32586*
X31171Y32573*
G03X32929Y32100I1757J3027*
X34686Y32573I0J3500*
G02X34786Y32600I100J-173*
G01X36950*
G02X37150Y32400I0J-200*
G01Y20533*
G02X37090Y20390I-200J0*
G03X37060Y15440I2460J-2490*
X39550Y14400I2490J2460*
X42010Y15410I0J3500*
Y20390I-2460J2490*
G02X41950Y20533I139J143*
G01Y31324*
G02X42074Y31509I200J0*
G01X42130Y31532*
X42249Y31508*
X44502Y29255*
X44513Y29238*
G03X47011Y27900I2498J1662*
G01X51867*
G02X52009Y27841I0J-200*
G01X54160Y25690*
G03X54301Y25632I141J142*
G01X54321*
X54380Y25571*
G03X56900Y24500I2520J2429*
X58321Y24801I1J3500*
X60400Y28000I-1421J3199*
G01Y30900*
G03X56900Y34400I-3500J0*
G01X56681Y34393*
X56481Y34381*
X56480Y34400*
X47926*
G02X47784Y34459I0J200*
G01X43651Y38592*
G03X43510Y38650I-141J-141*
G01X42800*
G02X42600Y38850I0J200*
G01Y57660*
G03X42542Y57801I-200J0*
G01X33701Y66642*
G03X33560Y66700I-141J-141*
G01X20826*
G02X20684Y66759J200*
G01X20559Y66884*
G02X20500Y67026I140J142*
G01Y76900*
X20540Y77020*
X20570Y77061*
G03X20606Y77148I-162J118*
G02X21110Y78285I2361J-366*
X21209Y78351I156J-126*
G03X21830Y78659I-565J1919*
G02X21864Y78679I118J-162*
G03X23321Y80136I-1264J2721*
G02X23341Y80170I181J-84*
G03X23649Y80791I-1611J1186*
G02X23715Y80890I192J-57*
X24852Y81394I1503J-1857*
G03X24939Y81430I-31J198*
G01X24980Y81460*
X25100Y81500*
X30314*
G03X30455Y81558I0J200*
G01X34096Y85199*
G03X34154Y85340I-141J141*
G01Y97443*
G02X34181Y97543I200J0*
G03X34654Y99300I-3027J1757*
G01Y101900*
G03X34597Y102528I-3500J-1*
G01X34589Y102572*
X34612Y102658*
X34837Y102928*
G02X34991Y103000I154J-128*
G01X39397*
G02X39539Y102941I0J-200*
G01X40482Y101998*
G02X40541Y101858I-140J-142*
G01X40544Y101538*
X40514Y101465*
X40487Y101436*
G03X42527Y95532I2513J-2436*
G01X42601Y95522*
X42700Y95409*
Y84677*
G02X42641Y84536I-200J1*
G01X36723Y78618*
G02X36582Y78559I-142J140*
G01X33459*
X33458*
G03X32344Y78143I0J-1700*
G01X32317Y78119*
X32249Y78094*
X31915*
X31847Y78119*
X31820Y78143*
G03X30706Y78559I-1114J-1285*
G01X30705*
X29052*
G03X30705Y76859I3997J2233*
G01X28471Y73953*
X28520Y73904*
X28471Y73855*
X30705Y70949*
G03X29052Y69249I2344J-3933*
G01X30705*
X30706*
G03X31820Y69665I0J1700*
G01X31847Y69689*
X31915Y69714*
X32249*
X32317Y69689*
X32344Y69665*
G03X33458Y69249I1114J1285*
G01X33459*
X38579*
X38580*
G03X39694Y69665I0J1700*
G01X39721Y69689*
X39789Y69714*
X40123*
X40191Y69689*
X40218Y69665*
G03X40634Y69399I1114J1285*
G01X40635*
G02X41435Y68838I-1131J-2464*
X41493Y68697I-141J-141*
G01Y67396*
G03X41551Y67254I200J-1*
G01X44977Y63829*
G03X45118Y63770I142J140*
G01X49090*
G02X49231Y63711I-1J-200*
G01X51284Y61658*
G03X51425Y61600I141J141*
G01X51426*
X57100*
G02X57300Y61400I0J-200*
G01Y57088*
G03X57358Y56946I200J-1*
G01X59447Y54857*
G03X59588Y54799I141J141*
G01X59589*
X61837*
G02X62021Y54675I-1J-200*
G01X62045Y54619*
X62021Y54500*
X60858Y53338*
G03X60800Y53196I141J-141*
G01Y41589*
G03X60858Y41447I200J-1*
G01X63486Y38819*
G02X63545Y38678I-140J-142*
G01Y35497*
G02X63486Y35356I-200J1*
G01X61704Y33573*
G03X61645Y33432I140J-142*
G01Y20422*
G02X61586Y20281I-200J1*
G01X59364Y18059*
G02X59223Y18000I-142J140*
G01X48089*
X48088*
G03X47947Y17942I0J-200*
G01X47036Y17030*
X46962Y17000*
X46922*
X46900*
G03X43415Y13827I0J-3500*
X46271Y10057I3485J-327*
X46900Y10000I629J3443*
X50275Y12573I0J3500*
X50368Y13027I-3375J928*
G01X50378Y13101*
X50491Y13200*
X50674*
G02X50829Y13126I0J-200*
G01X51053Y12850*
X51074Y12763*
X51065Y12718*
G03X52961Y8860I3427J-711*
G01X53005Y8839*
X53063Y8760*
X53130Y8340*
X53099Y8248*
X53064Y8213*
G03X52442Y3997I2436J-2513*
X55500Y2200I3058J1703*
X56353Y2306I-2J3500*
X59000Y5722I-853J3394*
G01Y5762*
X59030Y5836*
X60536Y7341*
G02X60677Y7400I142J-140*
G01X63345*
G02X63545Y7200I0J-200*
G01Y6748*
G03X65245Y8401I-2233J3997*
G01X68575Y5841*
X65245Y3281*
G03X63545Y4934I-3933J-2344*
G01Y3281*
G03X63964Y2163I1700J0*
G01X64003Y2119*
X64020Y2002*
X63845Y1617*
G02X63663Y1500I-182J83*
G37*
G36*
X120120Y6500D02*
G01X98330D01*
G02X98167Y6584I0J200*
G01X97950Y6888*
X97936Y6984*
X97952Y7030*
G03X98241Y9042I-5164J1768*
G01X98240Y9083*
X98268Y9160*
X98496Y9398*
G02X98641Y9460I145J-137*
G01X103253*
X103254*
G03X104938Y10927I0J1701*
G01X104948Y11001*
X105061Y11100*
X108139*
X108252Y11001*
X108262Y10927*
G03X109946Y9460I1684J233*
G01X114392*
G03X111930Y11160I-5186J-4877*
G01X114323Y14881*
X114296Y14900*
X114356Y14942*
X111560Y18640*
G03X113772Y20340I-1867J4718*
G01X109946*
G03X108262Y18873I0J-1700*
G01X108252Y18799*
X108139Y18700*
X105061*
X104948Y18799*
X104938Y18873*
G03X103254Y20340I-1684J-233*
G01X103253*
X93805*
X93804*
G03X92104Y18640I1J-1701*
G01Y14314*
X92009Y14202*
X91936Y14191*
G03X90164Y13585I854J-5391*
G01X90118Y13560*
X90012Y13561*
X89670Y13764*
G02X89572Y13936I102J172*
G01Y15431*
G03X88059Y17121I-1700J0*
G01X87934Y17183*
X87854Y17269*
G02X87800Y17406I146J137*
G01Y17432*
X87828Y17503*
X87934Y17617*
X88059Y17679*
G03X89572Y19369I-187J1690*
G01Y19994*
G02X89630Y20136I200J1*
G01X90436Y20941*
G02X90577Y21000I142J-140*
G01X91711*
X91712*
G03X91853Y21058I0J200*
G01X95607Y24812*
G02X95748Y24871I142J-140*
G01X95752*
G02X95893Y24812I-1J-200*
G01X99547Y21158*
G03X99688Y21100I141J141*
G01X99689*
X114374*
G02X114671Y21130I299J-1470*
X114968Y21100I-2J-1500*
G01X118917*
X119014Y21039*
X119039Y20987*
X119069Y20928*
X119094Y20882*
X119091Y20777*
X118888Y20437*
G02X118717Y20340I-171J103*
G01X118716*
X115570*
G03X117782Y18640I4078J3018*
G01X115720Y15913*
X119395Y18526*
G03X121095Y16226I5365J2187*
G01Y18640*
G03X120895Y19440I-1700*
G01X120870Y19487*
X120873Y19592*
X121077Y19931*
G02X121248Y20028I172J-103*
G01X122931*
G03X124627Y21613I0J1700*
G01X124633Y21692*
X124748Y21800*
X125052*
X125167Y21692*
X125173Y21613*
G03X126869Y20028I1696J115*
G01X129231*
G03X130931Y21729I0J1700*
G01Y23130*
X130919Y23101*
G03X129231Y21729I1010J-2967*
X128201Y20559I1315J-2196*
G01X127899*
G03X126869Y21729I-2344J-1025*
G01X127860Y23425*
X127800Y23500*
X129231Y25271*
G03X130919Y23899I2698J1595*
G01X130931Y23870*
Y25271*
G03X130570Y26319I-1700J1*
G01X130528Y26442*
Y26558*
X130570Y26681*
G03X130931Y27729I-1340J1048*
G01Y31271*
G03X130570Y32319I-1700J1*
G01X130528Y32442*
Y32558*
X130570Y32681*
G03X130931Y33729I-1340J1048*
G01Y35130*
X130919Y35101*
G03X129231Y33729I1010J-2967*
G01X127800Y35500*
X127860Y35575*
X126869Y37271*
G03X127212Y37517I-1315J2196*
X126202Y38217I-2107J-1962*
G02X126085Y38500I283J283*
X126202Y38783I400J0*
G03X127212Y39483I-1097J2662*
X126869Y39729I-1658J-1949*
G01X127860Y41425*
X127800Y41500*
X127860Y41575*
X126869Y43271*
G03X127899Y44441I-1315J2196*
G01X128201*
G03X129231Y43271I2345J1026*
X130919Y41899I2698J1595*
G01X130931Y41870*
Y43271*
G03X129231Y44972I-1701J0*
G01X126869*
G03X126407Y44908I0J-1700*
G01X126380Y44900*
X123991*
X123959Y44868*
G02X123817Y44809I-142J140*
G01X123658*
X123619Y44826*
G03X122931Y44972I-689J-1554*
G01X122419*
X122360Y44990*
X122335Y45008*
X122196Y45099*
G02X122100Y45270I104J171*
G01Y49751*
G02X122159Y49892I200J-1*
G01X125142Y52875*
G03X125200Y53016I-141J141*
G01Y60244*
G02X125262Y60388I200J-1*
G01X125499Y60616*
X125576Y60645*
X125616Y60643*
X125759Y60640*
G03X129259Y64162I0J3500*
G01Y64203*
X129289Y64277*
X130642Y65629*
G03X130700Y65770I-141J141*
G01Y70311*
G03X130642Y70453I-200J1*
G01X128459Y72636*
G02X128400Y72777I140J142*
G01Y75523*
G02X128459Y75664I200J-1*
G01X128636Y75841*
G02X128777Y75900I142J-140*
G01X132651*
G02X132825Y75798I0J-200*
G01X133023Y75447*
X133021Y75339*
X132993Y75293*
G03X135201Y64297I7104J-4293*
X140097Y62700I4895J6703*
X146110Y65278I0J8300*
G01X146152Y65323*
X146272Y65349*
X146674Y65189*
G02X146800Y65003I-74J-186*
G01Y62206*
G02X146701Y62034I-200J1*
G01X146358Y61832*
X146252Y61831*
X146205Y61857*
G03X144500Y62300I-1704J-3057*
X141106Y59656I0J-3500*
X144500Y55300I3394J-856*
G01X144522*
X144562*
X144636Y55270*
X147247Y52658*
G03X147388Y52600I141J141*
G01X147389*
X172940*
X172941*
G02X173019Y52584I0J-200*
G03X174400Y52300I1381J3216*
X177829Y55098I0J3500*
G01X177840Y55150*
X177909Y55230*
X178333Y55378*
X178437Y55359*
X178478Y55325*
G03X179569Y54928I1092J1303*
G01X181931*
G03X183461Y55887J1700*
G01X183486Y55939*
X183583Y56000*
X183931*
X183932*
G03X184590Y56092I0J2400*
G01X184617Y56100*
X185523*
G02X185664Y56041I-1J-200*
G01X187241Y54464*
G02X187300Y54323I-140J-142*
G01Y47000*
G02X187100Y46800I-200J0*
G01X180110*
X180109*
X179979Y46848*
G03X177699Y47692I-2279J-2656*
X176082Y47296I0J-3500*
G01X176036Y47272*
X175934Y47274*
X175553Y47496*
X175500Y47584*
X175498Y47635*
G03X172000Y51001I-3498J-135*
X171192Y50906I2J-3501*
G01X171169Y50900*
X143189*
X143188*
G03X143047Y50842I0J-200*
G01X137755Y45550*
G03X137697Y45408I141J-141*
G01Y40904*
G02X137558Y40713I-200J-1*
G03X132756Y28938I2539J-7902*
X140097Y24510I7341J3872*
X144942Y26071I0J8300*
G01X145001Y26114*
X145148Y26102*
X148292Y22958*
G03X148433Y22900I141J141*
G01X148800*
G02X149000Y22700I0J-200*
G01Y17031*
G02X148800Y16831I-200*
G01X147446*
G02X147305Y16890I1J200*
G01X146153Y18042*
G03X146012Y18100I-141J-141*
G01X146011*
X143133*
G02X142990Y18160I0J200*
G03X140500Y19200I-2490J-2460*
X139228Y18961I-1J-3500*
G02X139155Y18947I-73J186*
X139065Y18969I1J200*
G03X137400Y19369I-1666J-3269*
X133756Y15277I0J-3669*
G02X133612Y15062I-199J-22*
G03X131030Y13556I1689J-5862*
G01X131002Y13529*
X130929Y13499*
X130571*
X130498Y13529*
X130470Y13556*
G03X126200Y15300I-4271J-4357*
X121785Y13409I0J-6101*
G01X121743Y13365*
X121623Y13339*
X121221Y13500*
X121118Y13593*
G03X119395Y11274I3642J-4506*
G01X118688Y11777*
G03X118118Y10763I5051J-3507*
X118290Y10679I745J1307*
G01X117908Y10221*
X117707Y9460*
X119395*
X119396*
X119520Y9465*
X119643Y9478*
X119685Y9484*
X119768Y9460*
X120063Y9210*
X120100Y9133*
X120101Y9090*
G03X120494Y7042I6099J109*
G01X120512Y6996*
X120500Y6898*
X120285Y6586*
G02X120120Y6500I-165J115*
G37*
%LPC*%
G36*
X85701Y11381D02*
G03X84329Y13069I-2967J-1010D01*
X83250Y14057I-2196J-1315*
X82171Y13069I1116J-2302*
X80799Y11381I1595J-2698*
G01X80770Y11369*
X82171*
X82172*
G03X83136Y11669I0J1700*
G02X83250Y11705I115J-165*
X83364Y11669I-1J-201*
G03X84328Y11369I964J1400*
G01X84329*
X85730*
X85701Y11381*
G37*
G36*
X104681Y69699D02*
G03X106369Y71071I-1010J2967D01*
X107381Y72200I-1314J2196*
X106369Y73329I-2326J-1067*
X104681Y74701I-2698J-1595*
G01X104669Y74730*
Y73329*
G03X105001Y72319I1700J-1*
G02Y72081I-161J-119*
G03X104669Y71071I1368J-1009*
G01Y69670*
X104681Y69699*
G37*
G36*
X25585Y70949D02*
G03X23885Y72719I-4423J-2547D01*
G01Y70949*
G03X25585Y69249I1700J0*
G01X27238*
G03X25585Y70949I-3997J-2233*
G37*
G36*
Y76859D02*
G03X27238Y78559I-2344J3933D01*
G01X25585*
G03X23885Y76859I0J-1700*
G01Y75089*
G03X25585Y76859I-2723J4317*
G37*
G36*
X53700Y38674D02*
G01Y49067D01*
G02X53759Y49209I199J0*
G01X54575Y50025*
G03X55600Y52500I-2475J2475*
X54575Y54975I-3500J0*
X52100Y56000I-2475J-2475*
X49625Y54975I0J-3500*
G01X47725Y53075*
G03X46700Y50600I2475J-2475*
G01Y38674*
G03X50200Y35174I3500*
X53700Y38674J3500*
G37*
G36*
X130931Y37271D02*
G03X130570Y38319I-1700J1D01*
G01X130528Y38442*
Y38558*
X130570Y38681*
G03X130931Y39729I-1340J1048*
G01Y41130*
X130919Y41101*
G03X129231Y39729I1010J-2967*
X128201Y38559I1315J-2196*
G01X128150*
Y38441*
X128201*
G03X129231Y37271I2345J1026*
X130919Y35899I2698J1595*
G01X130931Y35870*
Y37271*
G37*
%LPD*%
G54D10*
X5208Y13715D03*
Y5841D03*
Y37337D03*
Y29463D03*
Y21589D03*
Y60959D03*
Y53085D03*
Y45211D03*
X68200Y5841D03*
Y13715D03*
Y21589D03*
Y29463D03*
Y37337D03*
Y45211D03*
Y53085D03*
Y60959D03*
G54D11*
X12300Y5800D03*
X15300Y134700D03*
X257472Y37000D03*
X303928D03*
G54D20*
X107662Y29071D03*
X105693D03*
X103724D03*
X101756D03*
X99788D03*
X97819D03*
X95850D03*
X93882D03*
X91913D03*
X89945D03*
X87976D03*
Y62929D03*
X89945D03*
X91913D03*
X93882D03*
X95850D03*
X97819D03*
X99788D03*
X101756D03*
X103724D03*
X105693D03*
X107662D03*
X109630Y29071D03*
Y62929D03*
G54D21*
X107550Y69300D03*
Y75100D03*
X121750Y23500D03*
X128050D03*
X121750Y35500D03*
X128050D03*
X121750Y29500D03*
X128050D03*
X121750Y41500D03*
X128050D03*
X113850Y69300D03*
Y75100D03*
X152450Y58400D03*
X158750D03*
X137654Y126200D03*
X143954D03*
X137554Y132300D03*
X143854D03*
X137554Y138300D03*
X143854D03*
X163450Y58400D03*
X169750D03*
X180750D03*
X174450D03*
X205850Y10100D03*
X201150D03*
X194850D03*
X202250Y58500D03*
X195950D03*
X206950D03*
X208550Y121500D03*
X202250D03*
X197550D03*
X191250D03*
X234150Y10100D03*
X227850D03*
X223150D03*
X216850D03*
X212150D03*
X219550Y68900D03*
X225850D03*
X213250Y58500D03*
X225850Y74900D03*
X219550D03*
Y86900D03*
X225850D03*
X219550Y80900D03*
X225850D03*
X230550Y121500D03*
X224250D03*
X219550D03*
X213250D03*
G54D30*
X148304Y130750D03*
Y138230D03*
X157324Y134490D03*
G54D12*
X8600Y31100D03*
X9200Y51900D03*
X3400Y128300D03*
X3200Y124500D03*
X4000Y121200D03*
X33300Y14900D03*
X21500Y9500D03*
X33000Y9100D03*
X27300Y12700D03*
X27400Y3900D03*
X21800Y3400D03*
X32800Y3300D03*
X27600Y35600D03*
X32929D03*
X24800Y27800D03*
X30100Y25300D03*
X26900Y20000D03*
X27500Y41950D03*
X33500D03*
X18600Y44200D03*
X12700Y33400D03*
X22400Y68300D03*
X24500Y46500D03*
X16900Y50800D03*
X16600Y55800D03*
X28145Y68600D03*
X29800Y60100D03*
X12700Y47300D03*
X22200Y72500D03*
X31154Y99300D03*
X34000Y115200D03*
X31100D03*
X31154Y101900D03*
X26500Y97000D03*
X23700Y99000D03*
X27400Y119000D03*
X30600Y121200D03*
X39550Y17900D03*
X50000Y19500D03*
X46900Y13500D03*
X54492Y12008D03*
X55500Y5700D03*
X56900Y30900D03*
Y28000D03*
X39550Y35600D03*
X35300Y27900D03*
Y21500D03*
X44900Y25900D03*
X47200Y22200D03*
X44600Y40700D03*
X50200Y41400D03*
Y38674D03*
X59100Y51800D03*
X59300Y46200D03*
X45600Y52700D03*
X39900Y68000D03*
X37900Y65700D03*
X56700Y49000D03*
X50200Y50600D03*
X52100Y52500D03*
X55767Y109277D03*
X48900Y107600D03*
X54100Y100400D03*
X59200Y105200D03*
X53100D03*
X37800Y101400D03*
X37300Y97100D03*
X36700Y119800D03*
X44000Y119200D03*
X51100Y118300D03*
X43000Y99000D03*
X59800Y118300D03*
X44100Y130400D03*
X44300Y125000D03*
X38200Y124400D03*
X59800Y122600D03*
X51100Y124300D03*
X60800Y3200D03*
Y5500D03*
X82000Y10000D03*
X79950Y3050D03*
X78200Y20550D03*
X84000Y29174D03*
X84895Y61812D03*
X64000Y60959D03*
X74441D03*
X80700Y74600D03*
X71000Y87000D03*
X74800Y113900D03*
Y117100D03*
X71400Y102300D03*
X81900Y96800D03*
X76200Y100100D03*
X70700Y95600D03*
X76500Y94800D03*
X61767Y109177D03*
X62900Y100100D03*
X71700Y108600D03*
X65850Y129450D03*
X63850Y131450D03*
X76400Y125000D03*
X74600Y122300D03*
X63700Y123150D03*
X86900Y3300D03*
X85600Y9800D03*
X100200Y41600D03*
X97000Y39700D03*
X95800Y22200D03*
X109900Y37100D03*
X106800D03*
X97500Y43200D03*
X87100Y39700D03*
X98900Y34800D03*
X95000Y34900D03*
X96900Y53300D03*
X109700Y53900D03*
X96800Y67600D03*
X87100Y52891D03*
X89100Y46300D03*
X91400Y87500D03*
X98800Y84400D03*
X97800Y75600D03*
X94000D03*
X95700Y93100D03*
X85700Y114400D03*
X90600Y114200D03*
X85600Y108100D03*
X91000Y107500D03*
X91200Y98500D03*
X91300Y138100D03*
X131350Y16050D03*
X128900Y18300D03*
X121750Y32500D03*
X132700Y42900D03*
X116200Y69100D03*
X133100Y57300D03*
X132100Y65400D03*
X130200Y53900D03*
X125759Y64141D03*
X125500Y68100D03*
X115500Y61100D03*
X127400Y85500D03*
X130500Y85900D03*
X130100Y73400D03*
X116500Y91100D03*
Y93900D03*
X134690Y119390D03*
X132500Y138900D03*
X133100Y135900D03*
X140500Y15700D03*
X135900Y43800D03*
X153200Y28300D03*
X136500Y53900D03*
X139100Y57400D03*
X142900Y54000D03*
X144500Y58800D03*
X145700Y89600D03*
X147000Y84600D03*
X149600Y111900D03*
X135900Y95700D03*
X160000Y99500D03*
X158500Y103500D03*
X159600Y114200D03*
X148500Y114300D03*
X137700Y119390D03*
X154800Y100000D03*
X148600Y124600D03*
X159200Y127000D03*
X146044Y138300D03*
X152300Y134800D03*
X153000Y138800D03*
X159200Y138700D03*
X136000Y131200D03*
X177700Y44192D03*
Y41092D03*
X162600Y65500D03*
X170300Y69600D03*
X164800Y63400D03*
X177500Y51100D03*
X185100Y49800D03*
X181800Y53100D03*
X172000Y47500D03*
X174400Y55800D03*
X167800Y75000D03*
X170000Y79300D03*
X163554Y79807D03*
X163454Y74107D03*
X177000Y91000D03*
X171500Y103200D03*
X161500Y102200D03*
X171800Y114000D03*
X174474Y108600D03*
X177600D03*
X170600Y95600D03*
X166600Y119397D03*
X167300Y126900D03*
X171800Y125800D03*
X172200Y120000D03*
X162900Y124800D03*
X198200Y63700D03*
X196000Y67400D03*
X195200Y53500D03*
X207900Y50700D03*
X205700Y48400D03*
X193600Y51000D03*
X192500Y58500D03*
X186700Y91050D03*
X192800D03*
X196200Y73600D03*
X198500Y77700D03*
X198400Y70900D03*
X187200Y98900D03*
X218856Y55977D03*
X213250Y55000D03*
X233200Y132600D03*
X258500Y6800D03*
X258648Y13021D03*
X254700Y66900D03*
Y62800D03*
X243300Y62600D03*
X254700Y70400D03*
X243500Y70500D03*
X256500Y108800D03*
X251200Y103500D03*
X260400Y103000D03*
X244700Y107200D03*
X251900Y115100D03*
X255500Y98500D03*
X248500Y111300D03*
X280500Y8300D03*
X273148Y16621D03*
X283048Y16521D03*
X264348Y17021D03*
X264300Y10400D03*
X264500Y3500D03*
X270200Y111000D03*
X263300D03*
X282451D03*
X276326D03*
X292500Y8300D03*
X286600D03*
X298500D03*
X291848Y16721D03*
X303548Y16420D03*
X299700Y85400D03*
Y95100D03*
X290368Y111000D03*
X300150Y117550D03*
X295450Y112850D03*
X288400Y118500D03*
X303300Y109000D03*
X308000Y113300D03*
X295900Y126900D03*
X301700Y130900D03*
X306900Y133400D03*
X292400Y121900D03*
X314248Y16420D03*
X314500Y10300D03*
Y3500D03*
X314600Y89900D03*
Y85300D03*
Y95200D03*
X312000Y117500D03*
X311700Y130800D03*
X313300Y125000D03*
G54D22*
X107404Y86270D03*
Y107530D03*
X122404Y86270D03*
X117404D03*
X112404D03*
Y107530D03*
X117404D03*
X122404D03*
G54D31*
X247304Y66300D03*
Y96300D03*
X277304Y136300D03*
G54D13*
X7500Y94500D03*
Y84500D03*
Y114500D03*
Y104500D03*
Y124500D03*
X17500Y94500D03*
Y114500D03*
Y104500D03*
Y124500D03*
X126200Y9200D03*
X135300D03*
G54D14*
X28145Y73904D03*
Y136896D03*
X36019Y73904D03*
X43893D03*
X51767D03*
X59641D03*
Y136896D03*
X51767D03*
X43893D03*
X36019D03*
X67515Y73904D03*
X75389D03*
X83263D03*
Y136896D03*
X75389D03*
X67515D03*
G54D32*
X247304Y136300D03*
G54D23*
X100097Y128445D03*
G54D15*
X17500Y84500D03*
G54D24*
X129400Y92100D03*
Y100100D03*
G54D25*
X124900Y119390D03*
Y128445D03*
Y137500D03*
G54D16*
X80400Y14250D03*
Y20550D03*
X86100Y14250D03*
Y20550D03*
X101704Y90550D03*
Y84250D03*
X95704Y90650D03*
Y84350D03*
Y95250D03*
Y101550D03*
X101704Y95250D03*
Y101550D03*
Y106250D03*
Y112550D03*
X91300Y129450D03*
Y135750D03*
X147300Y13950D03*
Y7650D03*
X155600Y84750D03*
Y91050D03*
X149600Y84750D03*
Y91050D03*
X161600D03*
Y84750D03*
X173500Y90950D03*
Y84650D03*
X167600Y84750D03*
Y91050D03*
X189700Y10100D03*
Y16400D03*
Y21100D03*
Y27400D03*
X195800Y84750D03*
Y91050D03*
X189800Y84750D03*
Y91050D03*
X201800Y84750D03*
Y91050D03*
X207800Y84750D03*
Y91050D03*
X191250Y116050D03*
Y109750D03*
Y105150D03*
Y98850D03*
G54D26*
X160604Y12490D03*
Y33750D03*
G54D17*
X81875Y35174D03*
Y37142D03*
Y39111D03*
Y41080D03*
Y43048D03*
Y45017D03*
Y46985D03*
Y48954D03*
Y50922D03*
Y52891D03*
Y54859D03*
Y56828D03*
X115733Y41080D03*
Y39111D03*
Y37142D03*
Y35174D03*
Y56828D03*
Y54859D03*
Y52891D03*
Y50922D03*
Y48954D03*
Y46985D03*
Y45017D03*
Y43048D03*
G54D27*
X137400Y15700D03*
G54D18*
X92789Y8800D03*
X116411D03*
G54D19*
X98529Y14900D03*
X114671D03*
G54D28*
X140097Y32811D03*
Y71000D03*
Y109189D03*
X226711Y32811D03*
Y109189D03*
X273800Y8300D03*
X305200D03*
X289800Y67800D03*
X305900Y90150D03*
Y123300D03*
G54D29*
X155770Y64800D03*
Y69800D03*
Y74800D03*
Y79800D03*
X177030Y64800D03*
Y79800D03*
Y74800D03*
Y69800D03*
X211030Y64800D03*
X189770D03*
X211030Y79800D03*
Y74800D03*
Y69800D03*
X189770D03*
Y74800D03*
Y79800D03*
G54D12*
X14500Y18900D02*
G01X9315Y13715D01*
X5208*
X28145Y73904D02*
G01Y68600D01*
Y73904D02*
G01Y78759D01*
Y73904D02*
G01X23604D01*
Y73904D02*
G01X22200Y72500D01*
X15300Y134700D02*
G01X17496Y136896D01*
X28145*
X50200Y50600D02*
G01Y41400D01*
Y38674D02*
G01Y41400D01*
Y50600D02*
G01X52100Y52500D01*
X44000Y119200D02*
G01X37100D01*
X35500Y120800*
X36019Y136896D02*
G01Y130119D01*
X38200Y124400D02*
G01X38800D01*
X60800Y3200D02*
G01Y5500D01*
Y5500D02*
G01X62300D01*
X62641Y5841*
Y5841D02*
G01X68200D01*
Y60959D02*
G01X64000D01*
X74441D02*
G01X68200D01*
X155100Y3000D02*
G01X95789D01*
X92789Y6000*
Y8800*
Y8800D02*
G01Y9160D01*
X98529Y14900*
X105776Y84642D02*
G01X107404Y86270D01*
X114671Y14900D02*
G01Y19629D01*
X116411Y8800D02*
G01Y13160D01*
X114671Y14900*
X135300Y9200D02*
G01X126200D01*
Y9200D02*
G01Y16400D01*
X123400Y17400D02*
G01X120900Y14900D01*
X114671*
X135300Y9200D02*
G01X132200Y12300D01*
Y15200*
X126200Y9200D02*
G01X116811D01*
X132200Y15200D02*
G01X131350Y16050D01*
X116811Y9200D02*
G01X116411Y8800D01*
X112404Y107530D02*
G01Y111300D01*
X114404Y113300*
X126700*
X129400Y110600*
Y100100*
X174474Y108600D02*
G01X153400D01*
X145500Y100700*
X130000*
X129400Y100100*
X124900Y119390D02*
G01X134690D01*
X159200Y138700D02*
G01X159300Y138800D01*
X227000*
X233200Y132600*
X157324Y134490D02*
G01X159200Y136366D01*
Y138700*
X134690Y119390D02*
G01X137700D01*
Y119390D02*
G01X166593D01*
X166600Y119397*
X177700Y19690D02*
G01Y16200D01*
Y19690D02*
G01Y41092D01*
Y41092D02*
G01Y44192D01*
X174474Y108600D02*
G01X177600D01*
G54D33*
X8600Y31100D02*
G01Y30263D01*
X7800Y29463*
X5208*
X12700Y33400D02*
G01Y28781D01*
X9700Y25781*
Y22389*
X8900Y21589*
X5208*
Y53085D02*
G01X8015D01*
X9200Y51900*
X12700Y47300D02*
G01X12300Y47700D01*
Y56100*
X10100Y58300*
X8200*
X5541Y60959*
X5208*
X18600Y44200D02*
G01X18300Y44500D01*
X5919*
X5208Y45211*
X1900Y123200D02*
G01Y76600D01*
X2700Y75800*
X12400*
X13600Y74600*
Y64300*
X17800Y60100*
X29800*
X1900Y123200D02*
G01X3200Y124500D01*
Y124500D02*
G01X7500D01*
X17500Y104500D02*
G01X18400Y105400D01*
X40474*
X46700Y99174*
Y81500*
X48400Y79800*
X87563*
X89700Y77663*
Y72926*
X92326Y70300*
X98019*
X99119Y69200*
X100663*
X102963Y66900*
X104893*
X105693Y66100*
Y62929*
X17500Y114500D02*
G01X25000Y107000D01*
X41137*
X48300Y99837*
Y82600*
X49500Y81400*
X88226*
X89926Y79700*
X118400*
X119600Y78500*
Y58528*
X117900Y56828*
X115733*
X17500Y124500D02*
G01X21700D01*
X23200Y123000*
Y111700*
X26300Y108600*
X41800*
X49900Y100500*
Y83800*
X50700Y83000*
X88888*
X90588Y81300*
X119063*
X121200Y79163*
Y54591*
X119500Y52891*
X115733*
X46900Y13500D02*
G01X49000Y15600D01*
X60300*
X64045Y19345*
Y32520*
X65102Y33577*
X75677*
X77274Y35174*
X81875*
X54492Y12008D02*
G01X56200Y13715D01*
X68200*
X55500Y5700D02*
G01X59600Y9800D01*
X71600*
X72400Y10600*
Y23526*
X77374Y28500*
X77388*
X79162Y30274*
X82900*
X84000Y29174*
X39550Y17900D02*
G01Y35600D01*
X43893Y73904D02*
G01Y68307D01*
X46030Y66170*
X50167*
X52337Y64000*
X58900*
X59700Y63200*
Y57999*
X60500Y57199*
X71701*
X72600Y56300*
Y52245*
X73923Y50922*
X81875*
X51767Y73904D02*
G01Y66833D01*
X53000Y65600*
X87176*
X87976Y64800*
Y62929*
X43000Y99000D02*
G01X45100Y96900D01*
Y83600*
X36019Y74519*
Y73904*
X51100Y118300D02*
G01X48400Y121000D01*
Y132200*
X43893Y136707*
Y136896*
X51100Y124300D02*
G01X51767Y124967D01*
Y136896*
X79950Y3050D02*
G01X74800D01*
X74000Y3850*
Y22800*
X76000Y24800*
X88445*
X89945Y26300*
Y29071*
X81875Y39111D02*
G01X69974D01*
X68200Y37337*
Y53085D02*
G01X64000D01*
X63200Y52285*
Y42500*
X64603Y41097*
X71652*
X71670Y41080*
X81875*
Y45017D02*
G01X85602D01*
X89800Y40819*
Y38163*
X85111Y33474*
X77836*
X76063Y31700*
X69000*
X68200Y30900*
Y29463*
X81875Y37142D02*
G01X86142D01*
X87100Y38100*
Y39700*
X97819Y62929D02*
G01Y59600D01*
X97019Y58800*
X92600*
X90100Y56300*
Y50219*
X91900Y48419*
Y43800*
X91400Y43300*
Y37500*
X85774Y31874*
X78499*
X76726Y30100*
X76711*
X68200Y21589*
X84895Y59600D02*
G01Y57995D01*
X83728Y56828*
X81875*
Y54859D02*
G01X76641D01*
X81875Y43048D02*
G01X70364D01*
X68200Y45211*
X81875Y52891D02*
G01X87100D01*
X89945Y62929D02*
G01Y65506D01*
X88151Y67300*
X60900*
X59641Y68559*
Y73904*
X89100Y46300D02*
G01X89000D01*
X88315Y46985*
X81875*
X67515Y73904D02*
G01Y77400D01*
X68315Y78200*
X86900*
X88100Y77000*
Y72263*
X93882Y66481*
Y62929*
X91913D02*
G01Y66187D01*
X89200Y68900*
X76300*
X75389Y69811*
Y73904*
X59800Y122600D02*
G01X60127Y122273D01*
Y122156*
X61983Y120300*
X64700*
X71000Y126600*
Y132507*
X75389Y136896*
X83263D02*
G01Y136263D01*
X78800Y131800*
X73500*
X72600Y130900*
Y125800*
X65300Y118500*
X60000*
X59800Y118300*
X63700Y123150D02*
G01X64350D01*
X69400Y128200*
Y135011*
X67515Y136896*
X86100Y20550D02*
G01X86650D01*
X89500Y23400*
X90800*
X93882Y26482*
Y29071*
X95850Y23250D02*
G01Y29071D01*
X97819D02*
G01Y26281D01*
X100600Y23500*
X121750*
X98900Y34800D02*
G01X105180Y41080D01*
X115733*
X95000Y34900D02*
G01X93326D01*
X91913Y33488*
Y29071*
X87976D02*
G01Y31814D01*
X93000Y36837*
Y42637*
X93500Y43137*
Y49081*
X91700Y50881*
Y55637*
X93263Y57200*
X97682*
X98782Y58300*
X110900*
X113700Y61100*
X115500*
X96800Y67600D02*
G01X100000D01*
X101756Y65844*
Y62929*
X115733Y35174D02*
G01X121424D01*
X121750Y35500*
X109630Y29071D02*
G01X121321D01*
X121750Y29500*
X111000Y33700D02*
G01X112200Y32500D01*
X111100Y36000D02*
G01Y36300D01*
X131400Y35200D02*
G01X131100Y35500D01*
X128050Y38500D02*
G01X119757D01*
X119729Y38529*
X118342Y37142*
X115733*
X111100Y36300D02*
G01X111942Y37142D01*
X115733*
X128050Y29500D02*
G01Y28650D01*
X125800Y26400*
X123900*
X121750Y24250*
Y23500*
X115733Y43048D02*
G01X120950D01*
X121750Y42248*
Y41500*
X113850Y69300D02*
G01Y66250D01*
X113400Y65800*
X110700*
X109630Y64730*
Y62929*
X154800Y100000D02*
G01Y97800D01*
X154000Y97000*
X142800*
X137200Y91400*
Y86800*
X131900Y81500*
X126000*
X122800Y78300*
Y53928*
X119700Y50828*
Y45817*
X118900Y45017*
X115733*
X161600Y91050D02*
G01Y93000D01*
X160800Y93800*
X144126*
X140400Y90074*
Y85474*
X133226Y78300*
X127700*
X126000Y76600*
Y71700*
X128300Y69400*
Y66682*
X125759Y64141*
X207800Y91050D02*
G01Y93200D01*
X207000Y94000*
X185900*
X180700Y99200*
X167800*
X164000Y95400*
X143463*
X138800Y90737*
Y86137*
X132563Y79900*
X127037*
X124400Y77263*
Y69200*
X125500Y68100*
X137400Y15700D02*
G01X140500D01*
Y15700D02*
G01X145100D01*
X146850Y13950*
X147300*
X172000Y47500D02*
G01Y47700D01*
X171200Y48500*
X144100*
X140097Y44497*
Y32811*
X155770Y64800D02*
G01X157400D01*
X158750Y63450*
Y58400*
X144500Y58800D02*
G01X148300Y55000D01*
X173600*
X174400Y55800*
X155770Y74800D02*
G01Y69800D01*
Y69800D02*
G01X164000D01*
X173500Y60300*
Y59350*
X174450Y58400*
X143854Y132300D02*
G01Y132850D01*
X141504Y135200*
X140404*
X137554Y138050*
Y138300*
X143854Y132300D02*
G01X144654Y131500D01*
X147554*
X148304Y130750*
X136000Y131200D02*
G01X137100Y132300D01*
X137554*
X180750Y58400D02*
G01Y58950D01*
X182000Y60200*
Y69000*
X181200Y69800*
X177030*
X183100Y58400D02*
G01X180750D01*
X183931D02*
G01X183100D01*
X189700Y27400D02*
G01Y55400D01*
X186600Y58500*
X183200*
X183100Y58400*
X158750D02*
G01X163450D01*
X174400Y55800D02*
G01X174450Y55850D01*
Y58400*
X177000Y91000D02*
G01X176950Y90950D01*
X173500*
X177030Y74800D02*
G01X180600D01*
X181900Y76100*
Y81600*
X178000Y85500*
Y90000*
X177000Y91000*
X177030Y79800D02*
G01X175100D01*
X174300Y80600*
Y83850*
X173500Y84650*
X167600Y84750D02*
G01X173400D01*
X173500Y84650*
X161600Y91050D02*
G01X167600D01*
X205850Y10100D02*
G01X201150D01*
X194850D02*
G01X189700D01*
Y16400D02*
G01Y21100D01*
X202250Y58500D02*
G01X206950D01*
Y58500D02*
G01Y58950D01*
X209700Y61700*
X214800*
X215700Y62600*
Y67000*
X212800Y69900*
X211130*
X211030Y69800*
X192500Y58500D02*
G01X195950D01*
X207800Y84750D02*
G01X211030D01*
X201800D02*
G01X202250D01*
X203000Y85500*
X203500*
X204800Y86800*
Y88700*
X206400Y90300*
X207050*
X207800Y91050*
X187200Y98900D02*
G01X187250Y98850D01*
X191250*
Y121500D02*
G01Y116050D01*
Y105150D02*
G01Y109750D01*
X197550Y121500D02*
G01X202250D01*
X234150Y10100D02*
G01Y14950D01*
X226711Y22389*
Y32811*
X227850Y10100D02*
G01X223150D01*
X216850D02*
G01X212150D01*
X225850Y68900D02*
G01Y67750D01*
X221150Y63050*
Y61050*
X218856Y58756*
Y55977*
X213275Y58475D02*
G01X213250Y58500D01*
Y58500D02*
G01Y55000D01*
X219550Y68900D02*
G01Y62150D01*
X215900Y58500*
X213250*
X225850Y80900D02*
G01Y74900D01*
Y74900D02*
G01Y68900D01*
X219550D02*
G01Y74900D01*
Y86900D02*
G01Y80900D01*
Y80900D02*
G01Y80250D01*
X217200Y77900*
X216200*
X213100Y74800*
X211030*
X211100Y79870D02*
G01X211030Y79800D01*
Y84750D02*
G01Y79800D01*
X225850Y86900D02*
G01Y89300D01*
X225050Y90100*
X213800*
X213000Y89300*
Y85550*
X212200Y84750*
X211030*
X226711Y109189D02*
G01X230550Y113028D01*
Y121500*
X219550D02*
G01X224250D01*
X208550D02*
G01X213250D01*
G54D34*
X78200Y20550D02*
G01X77600D01*
X76600Y19550*
Y9400*
X80000Y6000*
X83400*
X86100Y3300*
X86900*
X107662Y62929D02*
G01Y67558D01*
X139600Y80600D02*
G01X137300Y78300D01*
X135800*
X132700Y75200*
Y75200D02*
G01X131800D01*
G54D35*
X5208Y37337D02*
G01X16263D01*
X18000Y35600*
X27600*
X7500Y104500D02*
G01X17500Y94500D01*
X32929Y35600D02*
G01X27600D01*
X32929D02*
G01X39550D01*
X17500Y84500D02*
G01Y65700D01*
X19500Y63700*
X32400*
X39600Y56500*
Y35650*
X31154Y99300D02*
G01Y86500D01*
X29154Y84500*
X17500*
X31100Y115200D02*
G01X34000D01*
X31154Y99300D02*
G01Y101900D01*
X71600Y113900D02*
G01X56300D01*
X55500Y114700*
X34500*
X34000Y115200*
X17500Y94500D02*
G01X23500D01*
X56900Y30900D02*
G01Y28000D01*
X39600Y35650D02*
G01X39550Y35600D01*
X56900Y30900D02*
G01X53900D01*
Y30900D02*
G01X47011D01*
Y30989*
X42350Y35650*
X39600*
X56900Y28000D02*
G01X56800D01*
X53900Y30900*
X82000Y10000D02*
G01X80400Y11600D01*
Y14250*
Y14250D02*
G01X86100D01*
X80400Y20550D02*
G01X78200D01*
X80400D02*
G01X86100D01*
X80700Y74600D02*
G01X81000D01*
X81696Y73904*
X83263*
X74800Y113900D02*
G01X78000Y117100D01*
Y117100D02*
G01X78800D01*
X81000Y119300*
X97000*
X103601Y125901*
X78000Y117100D02*
G01X74800D01*
Y113900D02*
G01X71600D01*
X74800Y117100D02*
G01Y113900D01*
X71600D02*
G01X74800Y117100D01*
X65850Y129450D02*
G01X63850Y131450D01*
Y131450D02*
G01X59641Y135659D01*
Y136896*
X86100Y14250D02*
G01X89772D01*
X85600Y9800D02*
G01X86100Y10300D01*
Y10300D02*
G01Y14250D01*
X84895Y61812D02*
G01Y59600D01*
X107662Y67558D02*
G01Y69188D01*
X107550Y69300*
X90800Y85800D02*
G01X92250Y84350D01*
X95704*
Y84350D02*
G01X101604D01*
X101704Y84250*
Y84250D02*
G01X105384D01*
X105776Y84642*
X103600Y71100D02*
G01X105400Y69300D01*
X107550*
Y75100D02*
G01X103600D01*
X107550D02*
G01Y69300D01*
X95704Y95250D02*
G01Y90650D01*
X95700Y93100D02*
G01Y95246D01*
X95704Y95250*
X101704Y90550D02*
G01X103450D01*
X104021Y91121*
X110404*
X112404Y89121*
Y86270*
X101704Y112550D02*
G01X97650D01*
X95704Y101550D02*
G01Y104631D01*
X92032Y101550D02*
G01X95704D01*
Y95250D02*
G01X101704D01*
Y106250D02*
G01Y101550D01*
Y106250D02*
G01X106124D01*
X107404Y107530*
X91300Y129450D02*
G01X97750D01*
X88500Y133000D02*
G01Y134414D01*
X89836Y135750*
X91300*
Y135750D02*
G01Y138100D01*
X121750Y35500D02*
G01Y32500D01*
Y32500D02*
G01Y29500D01*
X128050Y23500D02*
G01Y19828D01*
Y41500D02*
G01X131131D01*
X128050D02*
G01Y45172D01*
Y35500D02*
G01Y38500D01*
Y41500D02*
G01Y38500D01*
X131131Y23500D02*
G01X128050D01*
X131100Y35500D02*
G01X128050D01*
X113850Y75100D02*
G01Y69300D01*
X116200Y69100D02*
G01X114550D01*
X113850Y69300D02*
G01X116000D01*
X116200Y69100*
X122404Y107530D02*
G01Y92100D01*
Y92100D02*
G01Y86270D01*
X129400Y92100D02*
G01X122404D01*
X117404Y86270D02*
G01Y90196D01*
X116500Y91100*
Y91100D02*
G01Y93900D01*
X117404Y107530D02*
G01X122404D01*
X124900Y137500D02*
G01X132200D01*
X147300Y7650D02*
G01X143550D01*
X142000Y9200D02*
G01X135300D01*
X143550Y7650D02*
G01X142000Y9200D01*
X160604Y33750D02*
G01X158650D01*
Y33750D02*
G01X153200Y28300D01*
X152450Y58400D02*
G01X149800Y61050D01*
Y77800*
X151800Y79800*
X155770*
X149600Y91050D02*
G01X155600D01*
X145700Y89600D02*
G01X147150Y91050D01*
X149600*
Y84750D02*
G01X155600D01*
Y84750D02*
G01Y79970D01*
X155770Y79800*
X147000Y84600D02*
G01X147150Y84750D01*
X149600*
X143954Y126200D02*
G01X147704D01*
X143854Y138300D02*
G01X146044D01*
X148304Y138230D02*
G01Y134830D01*
Y138230D02*
G01X151704D01*
X146044Y138300D02*
G01X148234D01*
X148304Y138230*
X137654Y126200D02*
G01Y119397D01*
X134697*
X134690Y119390*
X171700Y66900D02*
G01X173800Y64800D01*
X177030*
X166900Y62200D02*
G01X169750Y59350D01*
Y58400*
X161600Y84750D02*
G01Y80600D01*
Y80600D02*
G01X162393Y79807D01*
X163554*
X189800Y84750D02*
G01X184000D01*
X182000Y86750*
Y92200*
X178600Y95600*
X170600*
X211030Y64800D02*
G01X205300D01*
X189800Y91050D02*
G01X192800D01*
X195800D02*
G01X201800D01*
X192800D02*
G01X195800D01*
X186700D02*
G01X189800D01*
X189770Y79800D02*
G01X193800D01*
X195800Y81800*
Y84750*
X189800D02*
G01X195800D01*
G54D36*
X5208Y5841D02*
G01X12259D01*
X12300Y5800*
X17500Y84500D02*
G01X7500D01*
Y114500D02*
G01Y104500D01*
X305900Y90150D02*
G01X276950D01*
X267000Y80200*
Y55700*
X263000Y51700*
X245600*
X226711Y32811*
G54D37*
X32600Y120800D02*
G01X43300D01*
G54D38*
X247304Y96300D02*
G01Y99604D01*
X251200Y103500*
X256500Y108800D02*
G01X251200Y103500D01*
X258700Y111000D02*
G01X256500Y108800D01*
X263300Y111000D02*
G01X258700D01*
X280500Y8300D02*
G01X273800D01*
X286600D02*
G01X280500D01*
X292500D02*
G01X286600D01*
X290368Y111000D02*
G01X282451D01*
X270200D02*
G01X263300D01*
X282451D02*
G01X276326D01*
Y111000D02*
G01X270200D01*
X305200Y8300D02*
G01X298500D01*
Y8300D02*
G01X292500D01*
X290368Y111000D02*
G01X293600D01*
X300150Y117550D02*
G01X305900Y123300D01*
X295450Y112850D02*
G01X300150Y117550D01*
X293600Y111000D02*
G01X295450Y112850D01*
M02*
