M48
INCH,LZ
VER,1
FMAT,2
T01C0.015F1B1S6H2000
T02C0.033461F1B1S6H2000
T03C0.042F1B1S6H2000
T04C0.052F1B1S6H2000
T05C0.06F1B1S6H2000
T06C0.08F1B1S6H2000
DETECT,ON
ATC,ON
%
T01
X00086Y00311
X00127Y00334
X00186Y00442
X00127Y00473
X00169Y00508
X00092Y00519
X00166Y00558
X0004Y01212
X00032Y01245
X00034Y01283
X00382Y01244
X00306Y01212
X00367Y01198
X00274Y0119
X0034Y01152
X00311
X003115Y01019
X00378Y01014
X003115Y00993
X00237Y0099
X00373Y00971
X00265Y0097
X00222Y00725
X002814Y00686
X00224Y00683
X00399Y0068
X00379Y00657
X00298Y00601
X00245Y00465
X00335Y004195
X00275
X003955Y00356
X003293
X00276
X00353Y00279
X00248Y00278
X00301Y00253
X00353Y00215
X00269Y002
X003955Y00179
X00333Y00149
X00273Y00127
X00215Y00095
X0033Y00091
X00274Y00039
X00218Y00034
X00328Y00033
X00555Y00057
X005449Y001201
X00469Y00135
X005Y00195
X00472Y00222
X00449Y00259
X00569Y0028
Y00309
X00502Y003867
X00446Y00407
X00502Y00414
X00593Y00462
X00567Y0049
X00502Y00506
X00591Y00518
X00521Y00525
X00456Y00527
X0043Y0099
X00541Y01004
X00531Y01052
X00592
X00489Y01076
X005577Y010928
X00511Y01183
X00598
X0044Y01192
X00598Y01226
X00511Y01243
X00443Y0125
X00441Y01304
X006385Y013145
X006585Y012945
X00764Y0125
X00637Y012315
X00746Y01223
X00748Y01171
Y01139
X006177Y010918
X00717Y01086
X00714Y01023
X00762Y01001
X00629
X00707Y00956
X00765Y00948
X0071Y0087
X007444Y006096
X0064
X00782Y002055
X00608Y00055
Y00032
X007995Y000305
X00869Y00033
X00856Y00098
X0082Y001
X00958Y00222
X0084Y002917
X00989Y00348
X0095Y00349
X00871Y00397
X0097
X00975Y00432
X00891Y00463
X00871Y005289
X00969Y00533
X008489Y006181
X00968Y00676
X00807Y00746
X0094Y00756
X00978
X00988Y00844
X00914Y00875
X00957Y00931
X00819Y00968
X00912Y00985
X0091Y01075
X00856Y01081
X00906Y01142
X00857Y01144
X00913Y01381
X01165Y00939
Y00911
X01162Y00691
X01155Y00611
X01097Y00539
X01002Y00416
X01099Y00371
X01068
X013135Y001605
X01289Y00183
X012175Y00325
X01327Y00429
X01359Y00438
X01302Y00539
X01365
X01331Y00573
X01391Y00574
X012576Y006414
X01321Y00654
X01255Y00681
X01301Y00734
X01274Y00855
X01305Y00859
X01359Y00957
X013469Y011939
X01377
X0136Y01312
X01331Y01359
X01325Y01389
X0153Y01388
X01592Y01387
X014604Y01383
X01523Y01348
X01592Y0127
X01486Y01246
X01485Y01143
X01596Y01142
X01496Y01119
X01585Y01035
X01548Y01
X01457Y00896
X0147Y00846
X01445Y00588
X01429Y0054
X01532Y00283
X01405Y00157
X01777Y004109
Y004419
X0172Y00475
X01775Y00511
X01744Y00558
X01648Y00634
X01626Y00655
X01703Y00696
X016345Y007411
X01678Y0075
X017Y00793
X016355Y007981
X0177Y0091
X01706Y00956
X016Y00995
X01615Y01022
X01715Y01032
X017447Y01086
X01776
X01718Y0114
X01666Y01194
X01722Y012
X01629Y01248
X01718Y01258
X01673Y01269
X01872Y00989
X01928Y009105
X01867
X01985Y00777
X01962Y00736
X01984Y00709
X0196Y00674
X01982Y00637
X01925Y00585
X01952Y00535
X01818Y00531
X01936Y0051
X01851Y00498
X02057Y00484
X02079Y00507
X021325Y0055
X021886Y005598
X02332Y01326
X02519Y01151
X02485Y01113
X02565Y01088
X02447Y01072
X02512Y01035
X02555Y00985
X02435Y00705
X02547Y00704
Y00669
Y00628
X02433Y00626
X025865Y001302
X02585Y00068
X02645Y00035
X02643Y00104
X027315Y001662
X026435Y001702
X02604Y0103
X02633Y0111
X02702
X027633
X02959Y01269
X02924Y01219
X02884Y01185
X029545Y011285
X029037Y0111
X028245
X02997Y00951
Y00854
X029185Y001672
X028305Y001652
X02985Y00083
X02925
X02866
X02805
X03145Y00035
Y00103
X030355Y001642
X031425
X03146Y00853
Y00899
Y00952
X03033Y0109
X0308Y01133
X0312Y01175
X030015Y011755
X03133Y0125
X03117Y01308
X03017Y01309
X03069Y01334
T02
X009279Y00088
X011641
T03
X00075Y00845
Y00945
Y01045
Y01145
Y01245
X00175
Y01145
Y01045
Y00945
Y00845
X01262Y00092
X01353
T04
X02473Y00663
Y00963
Y01363
X02773
T05
X00123Y00058
X00153Y01347
X025747Y0037
X030393
T06
X01401Y003281
Y0071
Y010919
X022671
Y003281
X02738Y00083
X03052
X02898Y00678
X03059Y009015
Y01233
M30
