G04 CAM350/DFMSTREAM V12.1 (Build 1022) Date:  Thu Nov 21 21:04:09 2024 *
G04 Database: (Untitled) *
G04 Layer 3: PASTEMASK_BOTTOM.art *
%FSLAX25Y25*%
%MOIN*%
%SFA1.000B1.000*%

%MIA0B0*%
%IPPOS*%
%ADD10R,0.05910X0.05120*%
%ADD11C,0.08200*%
%ADD13C,0.06200*%
%ADD14R,0.05120X0.05910*%
%ADD15R,0.06200X0.06200*%
%ADD16R,0.03543X0.02362*%
%ADD17O,0.05000X0.01000*%
%ADD19R,0.09449X0.07480*%
%ADD20O,0.01000X0.05000*%
%ADD21R,0.02362X0.03543*%
%ADD22R,0.02362X0.06102*%
%ADD23R,0.07900X0.15000*%
%ADD24R,0.05000X0.06000*%
%ADD25R,0.08661X0.05905*%
%ADD26R,0.15000X0.15000*%
%ADD27C,0.03937*%
%ADD28C,0.11000*%
%ADD29R,0.06102X0.02362*%
%ADD30R,0.03000X0.03000*%
%LNPASTEMASK_BOTTOM.art*%
%LPD*%
G54D10*
X5208Y13715D03*
Y5841D03*
Y37337D03*
Y29463D03*
Y21589D03*
Y60959D03*
Y53085D03*
Y45211D03*
X68200Y5841D03*
Y13715D03*
Y21589D03*
Y29463D03*
Y37337D03*
Y45211D03*
Y53085D03*
Y60959D03*
G54D22*
X107404Y86270D03*
Y107530D03*
X122404Y86270D03*
X117404D03*
X112404D03*
Y107530D03*
X117404D03*
X122404D03*
G54D11*
X12300Y5800D03*
X15300Y134700D03*
X257472Y37000D03*
X303928D03*
G54D13*
X7500Y94500D03*
Y84500D03*
Y114500D03*
Y104500D03*
Y124500D03*
X17500Y94500D03*
Y114500D03*
Y104500D03*
Y124500D03*
X126200Y9200D03*
X135300D03*
G54D23*
X100097Y128445D03*
G54D14*
X28145Y73904D03*
Y136896D03*
X36019Y73904D03*
X43893D03*
X51767D03*
X59641D03*
Y136896D03*
X51767D03*
X43893D03*
X36019D03*
X67515Y73904D03*
X75389D03*
X83263D03*
Y136896D03*
X75389D03*
X67515D03*
G54D24*
X129400Y92100D03*
Y100100D03*
G54D25*
X124900Y119390D03*
Y128445D03*
Y137500D03*
G54D15*
X17500Y84500D03*
G54D16*
X80400Y14250D03*
Y20550D03*
X86100Y14250D03*
Y20550D03*
X101704Y90550D03*
Y84250D03*
X95704Y90650D03*
Y84350D03*
Y95250D03*
Y101550D03*
X101704Y95250D03*
Y101550D03*
Y106250D03*
Y112550D03*
X91300Y129450D03*
Y135750D03*
X147300Y13950D03*
Y7650D03*
X155600Y84750D03*
Y91050D03*
X149600Y84750D03*
Y91050D03*
X161600D03*
Y84750D03*
X173500Y90950D03*
Y84650D03*
X167600Y84750D03*
Y91050D03*
X189700Y10100D03*
Y16400D03*
Y21100D03*
Y27400D03*
X195800Y84750D03*
Y91050D03*
X189800Y84750D03*
Y91050D03*
X201800Y84750D03*
Y91050D03*
X207800Y84750D03*
Y91050D03*
X191250Y116050D03*
Y109750D03*
Y105150D03*
Y98850D03*
G54D26*
X160604Y12490D03*
Y33750D03*
G54D27*
X137400Y15700D03*
G54D17*
X81875Y35174D03*
Y37142D03*
Y39111D03*
Y41080D03*
Y43048D03*
Y45017D03*
Y46985D03*
Y48954D03*
Y50922D03*
Y52891D03*
Y54859D03*
Y56828D03*
X115733Y41080D03*
Y39111D03*
Y37142D03*
Y35174D03*
Y56828D03*
Y54859D03*
Y52891D03*
Y50922D03*
Y48954D03*
Y46985D03*
Y45017D03*
Y43048D03*
G54D19*
X98529Y14900D03*
X114671D03*
G54D28*
X140097Y32811D03*
Y71000D03*
Y109189D03*
X226711Y32811D03*
Y109189D03*
X273800Y8300D03*
X305200D03*
X289800Y67800D03*
X305900Y90150D03*
Y123300D03*
G54D29*
X155770Y64800D03*
Y69800D03*
Y74800D03*
Y79800D03*
X177030Y64800D03*
Y79800D03*
Y74800D03*
Y69800D03*
X211030Y64800D03*
X189770D03*
X211030Y79800D03*
Y74800D03*
Y69800D03*
X189770D03*
Y74800D03*
Y79800D03*
G54D20*
X107662Y29071D03*
X105693D03*
X103724D03*
X101756D03*
X99788D03*
X97819D03*
X95850D03*
X93882D03*
X91913D03*
X89945D03*
X87976D03*
Y62929D03*
X89945D03*
X91913D03*
X93882D03*
X95850D03*
X97819D03*
X99788D03*
X101756D03*
X103724D03*
X105693D03*
X107662D03*
X109630Y29071D03*
Y62929D03*
G54D21*
X107550Y69300D03*
Y75100D03*
X121750Y23500D03*
X128050D03*
X121750Y35500D03*
X128050D03*
X121750Y29500D03*
X128050D03*
X121750Y41500D03*
X128050D03*
X113850Y69300D03*
Y75100D03*
X152450Y58400D03*
X158750D03*
X137654Y126200D03*
X143954D03*
X137554Y132300D03*
X143854D03*
X137554Y138300D03*
X143854D03*
X163450Y58400D03*
X169750D03*
X180750D03*
X174450D03*
X205850Y10100D03*
X201150D03*
X194850D03*
X202250Y58500D03*
X195950D03*
X206950D03*
X208550Y121500D03*
X202250D03*
X197550D03*
X191250D03*
X234150Y10100D03*
X227850D03*
X223150D03*
X216850D03*
X212150D03*
X219550Y68900D03*
X225850D03*
X213250Y58500D03*
X225850Y74900D03*
X219550D03*
Y86900D03*
X225850D03*
X219550Y80900D03*
X225850D03*
X230550Y121500D03*
X224250D03*
X219550D03*
X213250D03*
G54D30*
X148304Y130750D03*
Y138230D03*
X157324Y134490D03*
M02*
