G04 CAM350/DFMSTREAM V12.1 (Build 1022) Date:  Thu Nov 21 21:04:10 2024 *
G04 Database: (Untitled) *
G04 Layer 8: SOLDERMASK_TOP.art *
%FSLAX25Y25*%
%MOIN*%
%SFA1.000B1.000*%

%MIA0B0*%
%IPPOS*%
%ADD11C,0.08200*%
%ADD18C,0.05315*%
%ADD55C,0.11800*%
%ADD56R,0.10049X0.08080*%
%ADD60R,0.05500X0.06500*%
%ADD61C,0.07200*%
%ADD62C,0.09200*%
%ADD63R,0.03500X0.03500*%
%ADD64R,0.07200X0.07200*%
%ADD65R,0.08200X0.08200*%
%ADD66R,0.03062X0.06702*%
%ADD69R,0.03740X0.02559*%
%ADD74R,0.02559X0.03740*%
%ADD78R,0.09200X0.14000*%
%ADD79R,0.06800X0.16500*%
%ADD80R,0.16500X0.06800*%
%ADD81R,0.09500X0.19500*%
%ADD82R,0.05905X0.10236*%
%ADD83R,0.08080X0.10049*%
%ADD84R,0.04600X0.04600*%
%ADD85R,0.08661X0.05906*%
%ADD86R,0.08819X0.04606*%
%LNSOLDERMASK_TOP.art*%
%LPD*%
G36*
X36000Y130050D02*
G01Y134750D01*
X39800*
Y130050*
X36000*
G37*
G36*
X19400Y16800D02*
G01Y22300D01*
X24100*
Y16800*
X19400*
G37*
G54D84*
X7994Y19400D03*
X24694Y132300D03*
G54D62*
X12300Y5800D03*
X15300Y134700D03*
X257472Y37000D03*
X303928D03*
G54D83*
X56304Y76329D03*
Y92471D03*
X190800Y12129D03*
Y28271D03*
G54D69*
X5800Y35650D03*
Y41950D03*
X5300Y76450D03*
Y70150D03*
X24500Y35650D03*
Y41950D03*
X30500Y35650D03*
Y41950D03*
X12700Y35650D03*
Y41950D03*
X18600Y35650D03*
Y41950D03*
X17300Y76450D03*
Y70150D03*
X11300Y76450D03*
Y70150D03*
X27604Y92450D03*
Y86150D03*
X33604D03*
Y92450D03*
X36500Y35650D03*
Y41950D03*
X39604Y92450D03*
Y86150D03*
X68704Y129450D03*
Y135750D03*
X74704Y129450D03*
Y135750D03*
X80704Y129450D03*
Y135750D03*
G54D11*
X247304Y66300D03*
Y96300D03*
X277304Y136300D03*
G54D81*
X69254Y13650D03*
Y47650D03*
G54D65*
X247304Y136300D03*
G54D63*
X9900Y64350D03*
Y56870D03*
X18920Y60610D03*
G54D79*
X78804Y83524D03*
Y111476D03*
G54D18*
X92789Y8800D03*
X116411D03*
G54D61*
X7500Y94500D03*
Y84500D03*
Y114500D03*
Y104500D03*
Y124500D03*
X17500Y94500D03*
Y114500D03*
Y104500D03*
Y124500D03*
X126200Y9200D03*
X135300D03*
G54D86*
X13900Y13495D03*
Y25306D03*
X30600Y138206D03*
Y126394D03*
G54D82*
X102965Y16171D03*
Y50029D03*
X123043Y16171D03*
Y50029D03*
G54D66*
X24800Y56970D03*
X29800D03*
Y78230D03*
X24800D03*
X34800Y56970D03*
X39800D03*
Y78230D03*
X34800D03*
G54D56*
X105929Y76900D03*
X122071D03*
X180871Y134200D03*
X164729D03*
G54D64*
X17500Y84500D03*
G54D78*
X102631Y95000D03*
X120977D03*
G54D74*
X31154Y104000D03*
X24854D03*
X31154Y110000D03*
X24854D03*
X46854Y4100D03*
X53154D03*
Y10100D03*
X46854D03*
X34850Y50600D03*
X41150D03*
X52254Y118300D03*
X58554D03*
X52254Y136300D03*
X58554D03*
Y130300D03*
X52254D03*
Y124300D03*
X58554D03*
X80454Y65900D03*
Y71900D03*
X86754Y65900D03*
Y71900D03*
X184554Y4200D03*
X190854D03*
G54D80*
X92224Y123800D03*
X120176D03*
G54D85*
X145462Y5800D03*
Y15800D03*
X177746D03*
Y5800D03*
G54D60*
X39600Y14400D03*
Y6400D03*
X55504Y67000D03*
Y59000D03*
X46904D03*
Y67000D03*
X46404Y85700D03*
Y77700D03*
G54D55*
X140097Y32811D03*
Y71000D03*
Y109189D03*
X226711Y32811D03*
Y109189D03*
X273800Y8300D03*
X305200D03*
X289800Y67800D03*
X305900Y90150D03*
Y123300D03*
M02*
