G04 CAM350/DFMSTREAM V12.1 (Build 1022) Date:  Thu Nov 21 21:04:10 2024 *
G04 Database: (Untitled) *
G04 Layer 9: TOP.art *
%FSLAX25Y25*%
%MOIN*%
%SFA1.000B1.000*%

%MIA0B0*%
%IPPOS*%
%ADD11C,0.08200*%
%ADD12C,0.03000*%
%ADD13C,0.06200*%
%ADD15R,0.06200X0.06200*%
%ADD16R,0.03543X0.02362*%
%ADD18C,0.05315*%
%ADD19R,0.09449X0.07480*%
%ADD71R,0.07480X0.09449*%
%ADD21R,0.02362X0.03543*%
%ADD22R,0.02362X0.06102*%
%ADD24R,0.05000X0.06000*%
%ADD28C,0.11000*%
%ADD72R,0.09055X0.19094*%
%ADD73R,0.08858X0.13583*%
%ADD30R,0.03000X0.03000*%
%ADD31C,0.07700*%
%ADD32R,0.07700X0.07700*%
%ADD33C,0.00800*%
%ADD34C,0.01000*%
%ADD35C,0.02000*%
%ADD36C,0.04000*%
%ADD38C,0.09000*%
%ADD39R,0.06299X0.15945*%
%ADD40R,0.15945X0.06299*%
%ADD41R,0.04000X0.04000*%
%ADD42R,0.08661X0.04016*%
%ADD44R,0.05512X0.09843*%
%ADD87R,0.08268X0.05512*%
%LNTOP.art*%
%LPD*%
G36*
X58454Y118300D02*
G01X59734Y118931D01*
G75*
G03X60198Y118341I1068J363*
G01X60199Y118331*
X60200Y118320*
Y118300*
Y118280*
X60199Y118269*
X60198Y118259*
G03X59734Y117669I604J-953*
G01X58454Y118300*
G37*
G36*
X52992Y10908D02*
G03X53102Y11458I-1321J550D01*
X52992Y12008I-1431J0*
G01X54563Y12078*
X54492Y10508*
G03X53392I-550J-1320*
G02X52992Y10908I0J400*
G37*
G36*
X213179Y55071D02*
G01X214750Y55000D01*
G03X214640Y54450I1321J-550*
X214750Y53900I1430J0*
G02X214350Y53500I-400J0*
G03X213250I-550J-1320*
G01X213179Y55071*
G37*
G36*
X115429Y61029D02*
G01X115500Y62600D01*
G03X116600I550J1320*
G02X117000Y62200I0J-400*
G03X116890Y61650I1320J-550*
X117000Y61100I1431J0*
G01X115429Y61029*
G37*
G36*
X79879Y2979D02*
G01X79950Y4550D01*
G03X81050I550J1320*
G02X81450Y4150I0J-400*
G03X81340Y3600I1320J-550*
X81450Y3050I1431J0*
G01X79879Y2979*
G37*
G36*
X54000Y4600D02*
G03X54110Y5150I-1321J550D01*
X54000Y5700I-1431J0*
G01X55571Y5771*
X55500Y4200*
G03X54400I-550J-1320*
G02X54000Y4600I0J400*
G37*
G36*
X7700Y50800D02*
G03X7810Y51350I-1321J550D01*
X7700Y51900I-1431J0*
G01X9271Y51971*
X9200Y50400*
G03X8100I-550J-1320*
G02X7700Y50800J400*
G37*
G36*
X124000Y67000D02*
G03X124110Y67550I-1321J550D01*
X124000Y68100I-1431J0*
G01X125571Y68171*
X125500Y66600*
G03X124400I-550J-1320*
G02X124000Y67000J400*
G37*
G36*
X97400Y33700D02*
G03X97510Y34250I-1321J550D01*
X97400Y34800I-1431J0*
G01X98971Y34871*
X98900Y33300*
G03X97800I-550J-1320*
G02X97400Y33700J400*
G37*
G36*
X143000Y58800D02*
G03X143110Y59350I-1321J550D01*
X143000Y59900I-1431J0*
G02X143400Y60300I400J0*
G03X144500I550J1320*
G01X144571Y58729*
X143000Y58800*
G37*
G36*
X7100Y31100D02*
G03X7210Y31650I-1321J550D01*
X7100Y32200I-1431J0*
G02X7500Y32600I400J0*
G03X8600I550J1320*
G01X8671Y31029*
X7100Y31100*
G37*
G36*
X86812Y3388D02*
G01X88400Y3300D01*
G03X88300Y2800I1201J-500*
X88400Y2300I1300J0*
G02X87900Y1800I-500J0*
G03X86900I-500J-1200*
G01X86812Y3388*
G37*
G36*
X218780Y56043D02*
G01X220351Y56037D01*
X220308Y55686*
G03X220517Y54937I1446J0*
G02X220522Y54877I-397J-63*
X220122Y54477I-400J0*
G03X218856I-633J-1519*
G01X218780Y56043*
G37*
G36*
X58300Y122600D02*
G03X58455Y123377I-1866J776D01*
X58300Y124154I-2021J1*
G02X58853Y124524I400J0*
G03X59953Y124070I1095J1093*
G01X59858Y122518*
X58300Y122600*
G37*
G36*
X95300Y65100D02*
G03X95550Y66350I-3000J1250D01*
X95300Y67600I-3250*
G01X96840Y67692*
X96800Y66200*
X95700Y65100*
X95300*
G37*
G36*
X83900Y29174D02*
G01X85061Y30234D01*
G03X85838Y29456I1322J544*
G02X85955Y29173I-284J-283*
X85838Y28891I-401J1*
G03X85061Y28113I545J-1322*
G01X83900Y29174*
G37*
G36*
X123804Y64141D02*
G02X123921Y64424I400J0D01*
G03X124699Y65201I-544J1323*
G01X125859Y64141*
X124699Y63080*
G03X123921Y63858I-1322J-544*
G02X123804Y64141I283J283*
G37*
G36*
X88039Y47361D02*
G03X88817Y48138I-544J1322D01*
G02X89383I283J-283*
G03X90161Y47361I1322J545*
G01X89100Y46200*
X88039Y47361*
G37*
G36*
X86039Y53951D02*
G03X86817Y54729I-544J1322D01*
G02X87383I283J-283*
G03X88161Y53951I1322J544*
G01X87100Y52791*
X86039Y53951*
G37*
G36*
X170939Y46439D02*
G01X172000Y47600D01*
X173061Y46439*
G03X172283Y45662I544J-1323*
G02X171717I-283J283*
G03X170939Y46439I-1322J-545*
G37*
G36*
X86039Y38639D02*
G01X87100Y39800D01*
X88161Y38639*
G03X87383Y37862I544J-1322*
G02X86817I-283J283*
G03X86039Y38639I-1322J-545*
G37*
G36*
X11639Y46239D02*
G01X12700Y47400D01*
X13761Y46239*
G03X12983Y45462I544J-1322*
G02X12417I-283J283*
G03X11639Y46239I-1322J-545*
G37*
G36*
X93045Y34900D02*
G02X93162Y35183I400J0D01*
G03X93939Y35961I-545J1322*
G01X95100Y34900*
X93939Y33839*
G03X93162Y34617I-1323J-544*
G02X93045Y34900I283J283*
G37*
G36*
X62200Y123150D02*
G03X62405Y124175I-2461J1025D01*
X62200Y125200I-2666J0*
G02X62861Y125503I400J0*
G03X63961Y124553I1690J845*
G01X63747Y123062*
X62200Y123150*
G37*
G36*
X56682Y31021D02*
G01X58181Y31525D01*
G03X58581Y31025I800J230*
G02X58800Y30400I-781J-625*
X57800Y29400I-1000J0*
G03X56900I-450J-1080*
G01X56682Y31021*
G37*
G36*
X10165Y77631D02*
G03X11121Y78558I-687J1665D01*
G02X11479I179J-357*
G03X12435Y77631I1644J739*
G01X11300Y76350*
X10165Y77631*
G37*
G36*
X4665Y34469D02*
G01X5800Y35750D01*
X6935Y34469*
G03X5979Y33542I687J-1665*
G02X5621I-179J357*
G03X4665Y34469I-1644J-739*
G37*
G36*
X116259Y93967D02*
G01X117561Y94961D01*
G03X118189Y94333I1067J439*
G02X118482Y93626I-707J-707*
X117607Y92634I-1000J0*
G03X116979Y92554I-218J-793*
G01X116259Y93967*
G37*
G36*
X41939Y100061D02*
G03X43717Y101838I-1244J3022D01*
G01X44000Y101556*
Y100000*
X42964Y98907*
X41939Y100061*
G37*
G36*
X32265Y84969D02*
G01X33604Y86250D01*
X34943Y84969*
G03X33804Y83850I819J-1972*
G02X33404I-200J346*
G03X32265Y84969I-1958J-854*
G37*
G36*
X57373Y134529D02*
G01X58554Y136400D01*
X59735Y134529*
G03X58775Y133414I910J-1755*
G02X58333I-221J334*
G03X57373Y134529I-1870J-639*
G37*
G36*
X79273Y67671D02*
G03X80303Y68841I-1315J2196D01*
G01X80605*
G03X81635Y67671I2344J1026*
G01X80454Y65650*
X79273Y67671*
G37*
G36*
X77752Y129450D02*
G02X77763Y129601I1000J3D01*
G03X78933Y130631I-1025J2344*
G01X80954Y129450*
X78933Y128269*
G03X77763Y129299I-2196J-1315*
G02X77752Y129450I989J148*
G37*
G36*
X24250Y35650D02*
G01X26271Y36831D01*
G03X27441Y35801I2195J1314*
G02X27452Y35650I-991J-148*
X27441Y35499I-1002J-3*
G03X26271Y34469I1025J-2344*
G01X24250Y35650*
G37*
G36*
X38489Y16839D02*
G01X38643Y17007D01*
X38508Y17387*
G03X39373Y18259I-674J1534*
G02X39720Y18262I177J-359*
G03X40616Y17400I1541J705*
G01X40479Y16983*
X40611Y16839*
G03X40396Y16729I541J-1323*
G01X39601Y14300*
X38752Y16697*
G03X38489Y16839I-807J-1180*
G37*
G36*
X16965Y43131D02*
G03X18381Y44535I-1012J2437D01*
G02X18819I219J-335*
G03X20235Y43131I2428J1032*
G01X18600Y41850*
X16965Y43131*
G37*
G36*
X11065Y34469D02*
G01X12700Y35750D01*
X14335Y34469*
G03X12919Y33065I1012J-2437*
G02X12481I-219J335*
G03X11065Y34469I-2428J-1032*
G37*
G36*
X33619Y81281D02*
G03X34579Y82395I-910J1755D01*
G02X35021I221J-334*
G03X35981Y81281I1869J640*
G01X34800Y78130*
X33619Y81281*
G37*
G36*
X23619Y60021D02*
G03X24579Y61136I-910J1755D01*
G02X25021I221J-334*
G03X25981Y60021I1870J639*
G01X24800Y56870*
X23619Y60021*
G37*
G36*
X38619D02*
G03X39649Y61190I-1314J2196D01*
G01X39951*
G03X40981Y60021I2344J1027*
G01X39800Y56720*
X38619Y60021*
G37*
G36*
X7323Y104677D02*
G01X10600Y104500D01*
G03X10390Y103450I2521J-1050*
X10600Y102400I2730J0*
G02X9600Y101400I-1000J0*
G03X7500I-1050J-2520*
G01X7323Y104677*
G37*
G36*
X16829Y34469D02*
G01X18600Y35750D01*
X20371Y34469*
G03X18845Y32782I1294J-2704*
G02X18600Y32698I-245J316*
X18355Y32782I0J400*
G03X16829Y34469I-2820J-1017*
G37*
G36*
X15529Y68969D02*
G01X17300Y70250D01*
X19071Y68969*
G03X17545Y67282I1294J-2704*
G02X17300Y67198I-245J316*
X17055Y67282I0J400*
G03X15529Y68969I-2820J-1017*
G37*
G36*
X9529D02*
G01X11300Y70250D01*
X13071Y68969*
G03X11545Y67282I1294J-2704*
G02X11300Y67198I-245J316*
X11055Y67282I0J400*
G03X9529Y68969I-2820J-1017*
G37*
G36*
X10929Y43131D02*
G03X12455Y44818I-1294J2704D01*
G02X12700Y44902I245J-316*
X12945Y44818I0J-400*
G03X14471Y43131I2820J1017*
G01X12700Y41850*
X10929Y43131*
G37*
G36*
X4029D02*
G03X5555Y44818I-1294J2704D01*
G02X5800Y44902I245J-316*
X6045Y44818I0J-400*
G03X7571Y43131I2820J1017*
G01X5800Y41850*
X4029Y43131*
G37*
G36*
X49302Y136300D02*
G02X49386Y136545I400J0D01*
G03X51073Y138071I-1017J2820*
G01X52354Y136300*
X51073Y134529*
G03X49386Y136055I-2704J-1294*
G02X49302Y136300I316J245*
G37*
G36*
X21902Y110000D02*
G02X21986Y110245I400J0D01*
G03X23673Y111771I-1017J2820*
G01X24954Y110000*
X23673Y108229*
G03X21986Y109755I-2704J-1294*
G02X21902Y110000I316J245*
G37*
G36*
X37833Y84969D02*
G01X39597Y86250D01*
X41375Y84969*
G03X40082Y83118I1611J-2503*
G02X39551Y83089I-282J284*
G03X37833Y84969I-3144J-1148*
G37*
G36*
X159176Y41153D02*
G01X159182Y41284D01*
G02X160546Y42647I1494J-131*
X162125Y41541I130J-1494*
G03X162103Y41213I2458J-330*
X162619Y39700I2476J0*
G02X162633Y39597I-387J-105*
X162129Y39211I-400J0*
G03X160288Y39704I-1512J-1961*
G02X159176Y41153I388J1449*
G37*
G36*
X20158Y139974D02*
G01X20320Y140375D01*
G02X20505Y140500I185J-75*
G01X24371*
G02X24571Y140300I0J-200*
G01Y140295*
Y140291*
X24569Y140213*
Y137858*
G02X24446Y137673I-200J0*
G01X24390Y137650*
X24271Y137674*
X23803Y138142*
G03X23662Y138200I-141J-141*
G01X21593*
G02X21421Y138299I1J200*
G03X20228Y139812I-6121J-3599*
G01X20184Y139854*
X20158Y139974*
G37*
G36*
X45673Y11871D02*
G03X46162Y12229I-910J1755D01*
X45823Y12457I-961J-1063*
G01X46809Y13500*
X45839Y14561*
G03X46617Y15338I-544J1322*
G02X47183I283J-283*
G03X47961Y14561I1322J546*
G01X46993Y13501*
X47961Y12439*
G03X47571Y12205I575J-1401*
X48035Y11871I1374J1420*
G01X46854Y10000*
X45673Y11871*
G37*
G36*
X85573Y70129D02*
G01X86608Y71900D01*
X85573Y73671*
G03X86603Y74841I-1315J2196*
G01X86905*
G03X87935Y73671I2344J1026*
G01X86900Y71900*
X87935Y70129*
G03X86905Y68959I1315J-2196*
G01X86603*
G03X85573Y70129I-2344J-1025*
G37*
G36*
X29973Y102229D02*
G01X31008Y104000D01*
X29973Y105771*
G03X31003Y106941I-1315J2196*
G01X31305*
G03X32335Y105771I2344J1025*
G01X31300Y104000*
X32335Y102229*
G03X31305Y101059I1315J-2196*
G01X31003*
G03X29973Y102229I-2344J-1025*
G37*
G36*
X152999Y48830D02*
G01X156267Y51320D01*
G03X155841Y49191I5109J-2129*
X156267Y47062I5535J0*
G01X154767*
X152999Y48830*
G37*
G36*
X65752Y129450D02*
G02X65763Y129601I1000J3D01*
G03X66933Y130631I-1025J2344*
G01X68704Y129596*
X70475Y130631*
G03X71645Y129601I2195J1314*
G02X71656Y129450I-991J-148*
X71645Y129299I-1002J-3*
G03X70475Y128269I1025J-2344*
G01X68704Y129304*
X66933Y128269*
G03X65763Y129299I-2196J-1315*
G02X65752Y129450I989J148*
G37*
G36*
X33548Y41950D02*
G02X33559Y42101I1000J3D01*
G03X34729Y43131I-1025J2344*
G01X36500Y42096*
X38271Y43131*
G03X39441Y42101I2195J1314*
G02X39452Y41950I-991J-148*
X39441Y41799I-1002J-3*
G03X38271Y40769I1025J-2344*
G01X36500Y41804*
X34729Y40769*
G03X33559Y41799I-2196J-1315*
G02X33548Y41950I989J148*
G37*
G36*
X27548D02*
G02X27559Y42101I1000J3D01*
G03X28729Y43131I-1025J2344*
G01X30500Y42096*
X32271Y43131*
G03X33441Y42101I2195J1314*
G02X33452Y41950I-991J-148*
X33441Y41799I-1002J-3*
G03X32271Y40769I1025J-2344*
G01X30500Y41804*
X28729Y40769*
G03X27559Y41799I-2196J-1315*
G02X27548Y41950I989J148*
G37*
G36*
Y35650D02*
G02X27559Y35801I1000J3D01*
G03X28729Y36831I-1025J2344*
G01X30500Y35796*
X32271Y36831*
G03X33441Y35801I2195J1314*
G02X33452Y35650I-991J-148*
X33441Y35499I-1002J-3*
G03X32271Y34469I1025J-2344*
G01X30500Y35504*
X28729Y34469*
G03X27559Y35499I-2196J-1315*
G02X27548Y35650I989J148*
G37*
G36*
X71752Y129450D02*
G02X71763Y129601I1000J3D01*
G03X72933Y130631I-1025J2344*
G01X74704Y129596*
X76475Y130631*
G03X77645Y129601I2195J1314*
G02X77656Y129450I-990J-148*
X77645Y129299I-1001J-3*
G03X76475Y128269I1025J-2344*
G01X74704Y129304*
X72933Y128269*
G03X71763Y129299I-2196J-1315*
G02X71752Y129450I989J148*
G37*
G36*
X25833Y84969D02*
G01X27579Y86247D01*
X29375Y84969*
G03X28818Y83153I2683J-1816*
G01X28819Y83078*
X28821Y83003*
X28832Y82854*
G03X28873Y82558I3228J296*
G02X28241Y82397I-373J144*
G03X25833Y84969I-4311J-1623*
G37*
G36*
X29973Y108229D02*
G01X31011Y110005D01*
X29973Y111771*
G03X30896Y112985I-1467J2073*
G02X31287Y112989I206J-979*
G03X32335Y111771I2391J997*
G01X31303Y109995*
X32335Y108229*
G03X31305Y107059I1315J-2196*
G01X31003*
G03X29973Y108229I-2344J-1025*
G37*
G36*
X33548Y35650D02*
G02X33559Y35801I1000J3D01*
G03X34729Y36831I-1025J2344*
G01X36495Y35799*
X38271Y36831*
G03X39485Y35784I2214J1340*
G02X39502Y35600I-985J-184*
X39482Y35400I-1002J-1*
G03X38271Y34469I872J-2388*
G01X36505Y35507*
X34729Y34469*
G03X33559Y35499I-2196J-1315*
G02X33548Y35650I989J148*
G37*
G36*
X17281Y111536D02*
G01X17456Y114590D01*
X20100Y114000*
G03X19700Y112000I4800J-2000*
X20100Y110000I5199J0*
G02X19441Y109695I-400J0*
G03X17281Y111536I-3290J-1672*
G37*
G36*
X90132Y10958D02*
G02X92612Y12093I1500J0D01*
G03X93770Y11092I1779J888*
G01X92966Y8470*
X90132Y8800*
G03X90348Y9879I-2591J1080*
X90132Y10958I-2807J-1*
G37*
G36*
X273454Y133950D02*
G03X273689Y135125I-2821J1175D01*
X273454Y136300I-3056J0*
G01X277569Y136565*
X277304Y132450*
G03X274954I-1175J-2820*
G02X273454Y133950I0J1500*
G37*
G36*
X299828Y37000D02*
G03X300198Y38850I-4441J1850D01*
X299828Y40700I-4811J0*
G02X300228Y41100I400J0*
G03X303928I1850J4440*
G01X303999Y36929*
X299828Y37000*
G37*
G36*
X125825Y9200D02*
G01X128392Y11392D01*
G03X129523Y10261I1923J792*
G02X129962Y9200I-1062J-1061*
X129523Y8139I-1501J0*
G03X128392Y7008I792J-1923*
G01X125825Y9200*
G37*
G36*
X38619Y81281D02*
G03X39579Y82395I-910J1755D01*
G02X40021I221J-334*
G03X40981Y81281I1869J640*
G01X39833Y78219*
X40744Y75179*
G03X39949Y74429I570J-1401*
G02X39651I-149J371*
G03X38856Y75179I-1365J-650*
G01X39767Y78219*
X38619Y81281*
G37*
G36*
X138545Y15700D02*
G02X138662Y15983I400J0D01*
G03X139439Y16761I-545J1322*
G01X140301Y15973*
G03X141328Y17094I-1030J1975*
G01X145562Y15802*
X141352Y14374*
G03X140300Y15426I-1968J-916*
G01X139439Y14639*
G03X138662Y15417I-1322J-544*
G02X138545Y15700I283J283*
G37*
G36*
X84803Y61772D02*
G01X85195Y63012D01*
G03X86633Y62966I780J1871*
G02X86533Y63014I122J382*
G03X85573Y64129I-1870J-639*
G01X86648Y65832*
X85573Y67671*
G03X86603Y68841I-1315J2196*
G01X86905*
G03X87935Y67671I2344J1026*
G01X86860Y65832*
X87935Y64129*
G03X86975Y63014I910J-1755*
G02X86911Y62980I-219J335*
X87154Y62612I-157J-368*
X87042Y62334I-401J0*
G03X86277Y61540I571J-1316*
G01X84803Y61772*
G37*
G36*
X57373Y132071D02*
G03X58333Y133186I-910J1755D01*
G02X58775I221J-334*
G03X59735Y132071I1870J639*
G01X59150Y131145*
X59735Y131831*
G03X62213Y129348I4239J1753*
G02X62299Y129100I-314J-248*
X61988Y128710I-400J0*
G03X59362Y128530I-1094J-3278*
G01X58460Y130334*
X58465Y130340*
X57373Y132071*
G37*
G36*
X74993Y25130D02*
G01X77200Y26087D01*
X79200*
X81407Y25130*
G03X78907Y22630I1750J-4250*
G02X78200Y22337I-707J707*
X77493Y22630I0J1000*
G03X74993Y25130I-4250J-1750*
G37*
G36*
X6900Y56870D02*
G02X6951Y57186I1000J1D01*
G03X8400Y58370I-956J2649*
X9584Y59819I-1464J2405*
G02X10216I316J-949*
G03X11400Y58370I2649J956*
X12849Y57186I2405J1464*
G02X12900Y56870I-950J-315*
X12849Y56554I-1001J-1*
G03X11400Y55370I956J-2648*
G01X9918Y56641*
X9900Y56620*
X9882Y56641*
X8400Y55370*
G03X6951Y56554I-2405J-1465*
G02X6900Y56870I949J315*
G37*
G36*
X177646Y5800D02*
G01X181880Y7986D01*
G03X183821Y6038I3334J1381*
G02X183900Y5800I-321J-239*
X183821Y5562I-400J1*
G03X181880Y3614I1392J-3328*
G01X177646Y5800*
G37*
G36*
X102590Y50029D02*
G01X105720Y52701D01*
G03X107740Y50332I4254J1581*
G02X107771Y50029I-1470J-304*
X107740Y49726I-1501J1*
G03X105720Y47357I2234J-3951*
G01X102590Y50029*
G37*
G36*
X131538Y9200D02*
G02X131977Y10261I1500J0D01*
G03X132596Y10656I-792J1923*
X132650Y11450I-5796J793*
X132200Y13700I-5850J0*
G01X133700*
X135300Y12100*
X135403Y9432*
X135675Y9200*
X135421Y8983*
X135426Y8847*
X135280Y8863*
X133108Y7008*
G03X131977Y8139I-1923J-792*
G02X131538Y9200I1061J1061*
G37*
G36*
X95325Y112700D02*
G01Y115700D01*
X96761Y117761*
G03X99261Y115261I4250J1750*
G02X99700Y114200I-1062J-1061*
X99261Y113139I-1501J0*
G03X96761Y110639I1750J-4250*
G01X95325Y112700*
G37*
G36*
X184160Y32400D02*
G02X184496Y32795I400J0D01*
G03X187451Y32867I1390J3614*
G01X190883Y28216*
X187060Y29334*
G03X184250Y32147I-4798J-1983*
G02X184160Y32400I310J253*
G37*
G36*
X7330Y5800D02*
G02X7916Y7214I2000J0D01*
G03X9401Y8699I-1039J2524*
G01X12800Y5800*
X9401Y2901*
G03X7916Y4386I-2524J-1039*
G02X7330Y5800I1414J1414*
G37*
G36*
X14925Y134700D02*
G01X18199Y137599D01*
G03X20038Y135761I3125J1287*
G02X20477Y134700I-1062J-1061*
X20038Y133639I-1501J0*
G03X18199Y131801I1286J-3125*
G01X14925Y134700*
G37*
G36*
X251839Y37000D02*
G02X251956Y37283I400J0D01*
G03X254573Y39899I-1830J4448*
G01X257572Y37000*
X254573Y34101*
G03X251956Y36717I-4447J-1832*
G02X251839Y37000I283J283*
G37*
G36*
X17400Y104500D02*
G01X19692Y106692D01*
G03X21545Y104807I3246J1337*
G02X21577Y104831I256J-308*
G03X23673Y105771I-98J3025*
G01X24953Y103984*
X23673Y102229*
G03X21585Y104210I-3533J-1633*
X19692Y102308I1353J-3239*
G01X17400Y104500*
G37*
G36*
X39509Y6442D02*
G01X42100Y7166D01*
G03X44461Y4565I4798J1983*
X45673Y5871I-1492J2600*
G01X46954Y4100*
X45673Y2329*
G03X43986Y3855I-2704J-1294*
G01X43970Y3878*
G03X41725Y3523I-544J-3838*
G01X39509Y6442*
G37*
G36*
X100209Y21092D02*
G03X102427Y23691I-2153J4084D01*
G02X103502I538J-843*
G03X105720Y21092I4372J1485*
G01X102965Y15921*
X100209Y21092*
G37*
G36*
X14400Y94500D02*
G03X14610Y95550I-2521J1050D01*
X14400Y96600I-2731J0*
G02X15400Y97600I1000J0*
G03X17500I1050J2520*
G01X17653Y94774*
X19090Y96090*
X22059*
X22766Y95382*
G03X19692Y92308I2153J-5227*
G01X17353Y94340*
X14400Y94500*
G37*
G36*
X127499Y20300D02*
G02X127699Y20500I200J0D01*
G01X128923*
G02X129064Y20441I-1J-200*
G01X133778Y15728*
G02X133837Y15587I-140J-142*
X133830Y15536I-199J1*
G01X133731Y15151*
X133657Y15075*
X133606Y15060*
G03X131030Y13556I1694J-5860*
G01X131002Y13529*
X130929Y13499*
X130571*
X130498Y13529*
X130470Y13556*
G03X127652Y15125I-4271J-4355*
G01X127585Y15141*
X127499Y15250*
Y20300*
G37*
G36*
X187788Y7405D02*
G01X190799Y12229D01*
X193840Y7414*
G03X191957Y6014I2033J-4700*
G01X192035Y5971*
X190854Y4100*
X189673Y5971*
X189732Y6003*
G03X187788Y7405I-3927J-3396*
G37*
G36*
X118255Y80241D02*
G03X120248Y83824I-3436J4257D01*
G02X121516Y83983I730J-684*
G03X124891Y80640I5792J2473*
G01X122114Y76654*
X118255Y80241*
G37*
G36*
X122678Y50113D02*
G01X125799Y53451D01*
G03X129619Y49544I6786J2814*
G02X129799Y48831I-1320J-713*
X129360Y47770I-1500J-1*
G03X125098Y45626I580J-6460*
G01X122678Y50113*
G37*
G36*
X28739Y59039D02*
G01X29243Y59591D01*
X29155Y60021*
G03X29751Y60497I-373J1079*
G02X29849I49J-398*
G03X30445Y60021I969J602*
G01X30357Y59591*
X30661Y59258*
X30981Y60021*
G03X32300Y58161I4778J1991*
X33619Y60021I-3460J3851*
G01X34900Y56970*
X34867Y56891*
X35981Y53919*
G03X35190Y53171I910J-1755*
X36031Y52371I1783J1033*
G01X34852Y50500*
X33669Y52371*
G03X34417Y53159I-993J1692*
X33619Y53919I-1708J-994*
X32300Y55780I-4779J-1990*
X30981Y53919I3460J-3850*
G01X29700Y56970*
X29753Y57097*
X29513Y58271*
G03X28739Y59039I-1318J-554*
G37*
G36*
X1500Y90900D02*
G01Y97900D01*
X2400Y98800*
X8500*
X11300Y96000*
Y91900*
X9200Y89800*
X2600*
X1500Y90900*
G37*
G36*
X40900Y50600D02*
G01X42331Y52371D01*
G03X44019Y50999I2698J1595*
G01X44031Y50970*
Y52371*
Y52372*
G03X42823Y53999I-1700J0*
G01X42760Y54018*
X42681Y54124*
Y54369*
G02X42795Y54549I200J-1*
G01X43173Y54730*
X43288Y54716*
X43333Y54679*
G03X44404Y54300I1070J1321*
G01X46104*
G03X44404Y56000I-3698J-1998*
G01X46904Y59250*
X49404Y56000*
G03X47704Y54300I1998J-3698*
G01X48467*
G02X48652Y54176J-200*
G01X48675Y54120*
X48651Y54001*
X47725Y53075*
G03X46700Y50600I2475J-2475*
X46817Y49703I3500J0*
G01X46829Y49658*
X46810Y49566*
X46589Y49278*
G02X46430Y49200I-158J122*
G01X44231*
G02X44031Y49400I0J200*
G01Y50230*
X44019Y50201*
G03X42331Y48829I1010J-2967*
G01X40900Y50600*
G37*
G36*
X11300Y84500D02*
G02X11415Y85169I2000J1D01*
G03X14400Y87600I-1922J5408*
G01X18000Y84500*
X17855Y84375*
X20600Y81400*
G03X18017Y78654I2494J-4934*
X19071Y77631I2649J1675*
G01X17300Y76200*
X15529Y77631*
G03X16580Y78650I-1596J2698*
X14400Y81400I-4874J-1624*
X11415Y83831I-4907J-2977*
G02X11300Y84500I1885J668*
G37*
G36*
X1500Y120100D02*
G01Y130000D01*
X2200Y130700*
X7000*
X11400Y126300*
Y122700*
X8400Y119700*
X1900*
X1500Y120100*
G37*
G36*
X112869Y4680D02*
G01X112893Y4799D01*
X113642Y5547*
G03X113700Y5688I-141J141*
G01Y5689*
Y20300*
G02X113900Y20500I200J0*
G01X118387*
G02X118587Y20300I0J-200*
G01Y19177*
G03X121200Y20602I-1651J6135*
G01X123402Y16060*
X120288Y13179*
G03X118587Y15667I-6786J-2814*
G01Y11250*
G03X119943Y9585I1700J0*
G02X120102Y9389I-41J-196*
G01Y9383*
X120099Y9201*
G03X121625Y5165I6100J0*
G01X121664Y5120*
X121682Y5004*
X121507Y4618*
G02X121325Y4500I-182J82*
G01X113077*
G02X112893Y4624I1J200*
G01X112869Y4680*
G37*
G36*
X34438Y61901D02*
G01X34462Y62020D01*
X36242Y63800*
G03X36300Y63941I-141J141*
G01Y69923*
G02X36359Y70064I200J-1*
G01X36836Y70541*
G02X36977Y70600I142J-140*
G01X38911*
G03X39053Y70658I1J200*
G01X42019Y73625*
G02X42169Y73683I141J-141*
G01X42505Y73669*
X42580Y73633*
X42607Y73601*
G03X43904Y73000I1297J1099*
G01X48904*
G03X49146Y73017I2J1700*
G01X49190Y73023*
X49273Y72999*
X49534Y72772*
G02X49604Y72621I-130J-152*
G01Y71900*
G02X49404Y71700I-200J0*
G01X44404*
G03X42704Y70000I0J-1700*
G01Y68430*
G02X42645Y68288I-200J0*
G01X36858Y62501*
G03X36800Y62360I141J-141*
G01Y62079*
G02X36726Y61924I-200J0*
G01X36452Y61700*
X36364Y61678*
X36320Y61687*
G03X35981Y61721I-338J-1666*
G01X34646*
G02X34462Y61845I1J200*
G01X34438Y61901*
G37*
G36*
X18400Y73231D02*
G01Y73369D01*
G02X18600Y73569I200J0*
G01X19071*
X19072*
G03X20772Y75269I0J1700*
G01Y77631*
G03X20763Y77804I-1700J-2*
G01X20793Y77932*
G02X21201Y78430I2299J-1468*
X21293Y78481I140J-143*
G01X21367Y78500*
G02X21427Y78660I964J-270*
G03X23619Y80933I-1780J3910*
G01X23994Y80224*
X23619Y81281*
G03X24892Y82296I-907J2444*
G01X24918*
G03X25981Y81281I2193J1233*
G01X24950Y78419*
X25050Y78230*
X24954Y78049*
X25981Y75179*
G03X24951Y74010I1314J-2196*
G01X24649*
G03X23619Y75179I-2344J-1027*
G01X24002Y76249*
X24001*
X23619Y75526*
G03X21919Y77535I-3972J-1637*
G01Y75179*
G03X23619Y73479I1700J0*
G01X25981*
G03X27107Y73905I0J1700*
G02X27239Y73955I132J-150*
G01X27361*
G02X27493Y73905I0J-200*
G03X28619Y73479I1126J1274*
G01X29700*
G02X29900Y73279I0J-200*
G01Y67300*
G02X29700Y67100I-200J0*
G01X24388*
G03X24247Y67042I0J-200*
G01X20981Y63776*
X20880Y63748*
X20829Y63760*
X20420Y63810*
X19900*
G02X19700Y64010J200*
G01Y67317*
X19761Y67414*
X19813Y67439*
G03X20772Y68969I-741J1530*
G01Y71331*
G03X19072Y73031I-1700J0*
G01X19071*
X18600*
G02X18400Y73231J200*
G37*
G36*
X46154Y77700D02*
G01X48904Y80700D01*
G03X50753Y78716I4461J2304*
X53053Y80182I-1637J5105*
G01X56292Y76562*
X56304Y76579*
X56447Y76389*
Y76388*
X56548Y76276*
X56537Y76269*
X60044Y71605*
G03X57954Y70063I2504J-5581*
G01X58004Y70000*
X57161Y68921*
X56860Y68273*
G02X56546Y68134I-556J831*
G01X55703Y67055*
X55754Y67000*
X53004Y64000*
G03X51204Y65954I-4461J-2304*
X49404Y64000I2661J-4258*
G01X46654Y67000*
X49404Y70000*
G03X51204Y68046I4461J2303*
X53004Y70000I-2661J4258*
X54034Y70674I-2493J4934*
X52564Y71605I-3975J-4650*
G01X55658Y75720*
X52564Y73786*
G03X50437Y76474I-5816J-2417*
X48904Y74700I2927J-4079*
G01X46154Y77700*
G37*
G36*
X297900Y84500D02*
G01Y96200D01*
G02X298900Y97200I1000J0*
G01X315800*
G02X316700Y96636I0J-1000*
G01Y84064*
G02X315800Y83500I-900J436*
G01X298900*
G02X297900Y84500I0J1000*
G37*
G36*
X81531Y19473D02*
G01X81545Y19518D01*
G03X81699Y20443I-3345J1032*
G02X81741Y20560I200J-6*
G03X82054Y21015I-3544J2773*
X82080Y21081I-170J105*
G02X82740Y21894I1077J-200*
G01X83978Y22404*
G03X84086Y22509I-75J185*
G01X84176Y22717*
G02X84359Y22837I183J-80*
G01X88397*
G03X88539Y22896I0J200*
G01X89484Y23841*
G02X89626Y23900I142J-140*
G01X98160*
G03X98301Y23958I0J200*
G01X99623Y25280*
G02X99764Y25338I141J-141*
X99841Y25323I1J-199*
G01X99897Y25300*
X99964Y25199*
Y23064*
G02X99890Y22909I-200J0*
X99416Y22596I-1836J2265*
G03X98509Y21092I793J-1504*
G01Y11250*
Y11249*
G03X100209Y9549I1701J1*
G01X105720*
G03X107421Y11250I0J1701*
G01Y21092*
G03X106513Y22596I-1700J0*
G02X106039Y22909I1362J2579*
X105965Y23064I126J155*
G01Y23574*
Y23575*
G02X106023Y23716I200J0*
G01X107049Y24741*
G02X107190Y24800I142J-140*
G01X110123*
G02X110307Y24676I-1J-200*
G01X110331Y24620*
X110307Y24501*
X108958Y23153*
G03X108900Y23012I141J-141*
G01Y23011*
Y7677*
G02X108841Y7536I-200J1*
G01X107764Y6459*
G02X107623Y6400I-142J140*
G01X98295*
G02X98131Y6485I0J200*
G01X97915Y6794*
X97902Y6891*
X97919Y6937*
G03X98247Y8800I-5130J1864*
X94646Y13932I-5458J0*
G01X94610Y13945*
X94553Y13996*
X94443Y14212*
G03X92401Y15188I-2810J-3255*
G01X92371Y15194*
X92317Y15222*
X88597Y18942*
G03X88456Y19000I-141J-141*
G01X81927*
G02X81766Y19081I0J200*
G01X81546Y19379*
X81531Y19473*
G37*
G36*
X11734Y29540D02*
G01X11756Y29586D01*
X11862Y29830*
G02X12083Y29954I186J-73*
G03X15821Y31816I617J3445*
G01X15847Y31867*
X15943Y31926*
X16083*
X16200Y31809*
Y31806*
X18347Y29658*
G03X18489Y29600I141J141*
G01X37500*
G02X37700Y29400I0J-200*
G01Y22389*
Y22388*
G03X37758Y22247I200J0*
G01X38256Y21750*
G02X38314Y21609I-141J-141*
X38311Y21572I-199J-2*
G01X38241Y21199*
X38180Y21121*
X38135Y21101*
G03X36194Y18894I1415J-3201*
G01X36118Y18788*
G03X35400Y17400I982J-1388*
G01Y11400*
Y11399*
G03X35654Y10505I1700J0*
G02X35684Y10400I-170J-105*
X35654Y10295I-200J0*
G03X35400Y9401I1447J-894*
G01Y9400*
Y3400*
G03X35833Y2267I1700J0*
G01X35872Y2222*
X35890Y2106*
X35717Y1718*
G02X35534Y1600I-183J83*
G01X18766*
G02X18593Y1701I1J200*
G01X18394Y2049*
Y2156*
X18421Y2203*
G03X19400Y5801I-6121J3598*
X18489Y9280I-7100J0*
G01X18467Y9320*
X18461Y9410*
X18611Y9784*
X18678Y9846*
X18722Y9859*
G03X19931Y11487I-491J1628*
G01Y13014*
G03X18231Y11487I1710J-3614*
G01X13525Y13495*
X18231Y15502*
G03X19931Y13975I3411J2087*
G01Y15502*
Y15503*
G03X19467Y16670I-1700J0*
G02X19412Y16807I144J138*
G01Y21993*
G02X19467Y22130I200J-1*
G03X19931Y23297I-1237J1167*
G01Y23298*
Y27313*
Y27314*
G03X18231Y29014I-1701J-1*
G01X12117*
G02X11948Y29107I0J200*
G01X11740Y29437*
X11734Y29540*
G37*
G36*
X68228Y126249D02*
G02X68243Y126326I199J1D01*
G01X68266Y126382*
X68367Y126450*
X77700*
G02X77900Y126250I0J-200*
G01Y121349*
G02X77700Y121149I-200J0*
G01X75655*
G03X74427Y120625I0J-1700*
G01X74311Y120566*
G03X71300Y117100I489J-3466*
G01Y113900*
G03X73811Y110543I3500J0*
G01X73875Y110524*
X73954Y110417*
Y103504*
G03X75655Y101804I1700J0*
G01X80470*
G02X80612Y101745I0J-200*
G01X83695Y98662*
G02X83754Y98520I-140J-142*
G01Y93061*
G02X83635Y92879I-200J1*
G01X83248Y92705*
X83131Y92724*
X83087Y92763*
G03X81953Y93196I-1134J-1267*
G01X75655*
G03X73954Y91496I0J-1701*
G01Y75551*
G03X75655Y73851I1700J0*
G01X77373*
G02X77573Y73651I0J-200*
G01Y72270*
X77585Y72299*
G03X79273Y73671I-1010J2967*
X80215Y74660I-1315J2195*
G01X79362Y75130*
G03X79489Y75559I-665J430*
X79470Y75730I-793J-2*
G02X81161Y76260I984J-177*
G03X81761Y75661I1019J421*
G01X80825Y74440*
G03X81635Y73671I2124J1427*
G01X80644Y71975*
X80704Y71900*
X80644Y71825*
X81635Y70129*
G03X80605Y68959I1315J-2196*
G01X80303*
G03X79273Y70129I-2344J-1025*
X77585Y71501I-2698J-1595*
G01X77573Y71530*
Y70129*
Y70128*
G03X77934Y69081I1700J0*
G01X77976Y68958*
Y68842*
X77934Y68719*
G03X77573Y67671I1340J-1048*
G01Y67000*
G02X77373Y66800I-200J0*
G01X70677*
G02X70536Y66859I1J200*
G01X69259Y68136*
G02X69200Y68277I140J142*
G01Y125111*
Y125112*
G03X69142Y125253I-200J0*
G01X68286Y126108*
G02X68228Y126249I141J141*
G37*
G36*
X238000Y64900D02*
G01Y77300D01*
X238100Y77400*
X291500*
X296400Y72500*
Y64600*
X292900Y61100*
X241800*
X238000Y64900*
G37*
G36*
X256100Y4100D02*
G01Y16700D01*
X261000Y21600*
X313500*
X316700Y18400*
Y2300*
X315900Y1500*
X258700*
X256100Y4100*
G37*
G36*
X83654Y107272D02*
G01Y112000D01*
Y112001*
G02X83712Y112142I200J0*
G01X83842Y112271*
G03X83900Y112412I-141J141*
G01Y118669*
G02X83964Y118816I200J0*
G01X84054Y118898*
G02X84196Y118951I136J-147*
G01X84251Y118950*
X92000*
G02X92200Y118750I0J-200*
G01Y117400*
G02X92164Y117286I-200J0*
G01X91861Y116851*
G03X91825Y116737I164J-114*
G01Y116736*
Y111664*
Y111663*
G03X91861Y111549I200J0*
G01X92164Y111114*
G02X92200Y111000I-164J-114*
G01Y93100*
G03X95700Y89600I3500*
G01X96302*
G02X96502Y89400I0J-200*
G01Y88208*
G03X98202Y86508I1700J0*
G01X102513*
G02X102659Y86445I0J-200*
G03X105764Y84031I9143J8557*
G02X106570Y83896I165J-1491*
G01X106743Y83546*
G03X107845Y83120I5061J11454*
G01X107915Y83096*
X107991Y82971*
X107916Y82508*
G02X107719Y82340I-197J32*
G01X107575*
G03X109951Y80640I4809J4211*
G01X106299Y76904*
X106304Y76900*
X106274Y76878*
X105929Y76525*
X105872Y76583*
X101205Y73160*
G03X99504Y75372I-5519J-2484*
G01Y74100*
G02X99304Y73900I-200J0*
G01X93440*
G03X93299Y73842I0J-200*
G01X91716Y72259*
G02X91574Y72200I-142J140*
G01X89954*
G02X89754Y72400I0J200*
G01Y101006*
G03X89696Y101147I-200J0*
G01X83712Y107131*
G02X83654Y107272I141J141*
G37*
G36*
X1500Y20985D02*
G01Y67643D01*
G02X1633Y67831I200J0*
G01X2048Y67979*
X2170Y67945*
X2210Y67895*
G03X3529Y67269I1318J1074*
G01X4930*
X4901Y67281*
G03X3529Y68969I-2967J-1010*
G01X5300Y70400*
X7071Y68969*
G03X5699Y67281I1595J-2698*
G01X5670Y67269*
X6564*
G02X6736Y67170I-1J-200*
G01X6938Y66828*
X6939Y66721*
X6913Y66675*
G03X6700Y65851I1488J-824*
G01Y65850*
Y62850*
G03X8400Y61150I1700*
G01X11400*
G03X13100Y62850J1700*
G01Y63723*
G02X13159Y63864I200J-1*
G01X13642Y64347*
G03X13700Y64488I-141J141*
G01Y64489*
Y67317*
X13761Y67414*
X13813Y67439*
G03X14119Y67630I-742J1530*
G01X14242Y67672*
X14358*
X14481Y67630*
G03X14787Y67439I1048J1338*
G01X14839Y67414*
X14900Y67317*
Y61318*
G03X14958Y61177I200J0*
G01X15661Y60474*
G02X15720Y60333I-140J-142*
G01Y59110*
G03X17420Y57410I1700*
G01X17800*
G02X18000Y57210I0J-200*
G01Y51731*
Y51730*
G03X18058Y51589I200J0*
G01X21189Y48458*
G03X21331Y48400I141J141*
G01X26800*
G02X27000Y48200I0J-200*
G01Y45205*
G02X26930Y45053I-200J0*
G01X26665Y44827*
X26581Y44803*
X26537Y44810*
G03X26271Y44831I-266J-1679*
G01X24870*
X24899Y44819*
G03X26271Y43131I2967J1010*
X27441Y42101I2196J1315*
G02X27452Y41950I-991J-148*
X27441Y41799I-1002J-3*
G03X26271Y40769I1025J-2344*
G01X24575Y41760*
X24500Y41700*
X22729Y43131*
G03X24101Y44819I-1595J2698*
G01X24130Y44831*
X22729*
G03X22438Y44806I-1J-1700*
G01X22401Y44800*
X22328Y44814*
X22037Y45001*
X21993Y45061*
X21983Y45098*
G03X16798Y47201I-3383J-898*
G01X16754Y47174*
X16649Y47171*
X16254Y47379*
X16197Y47466*
X16193Y47519*
G03X13000Y50787I-3493J-219*
G01X12958Y50791*
X12884Y50832*
X12653Y51135*
X12633Y51217*
X12641Y51259*
G03X12685Y51578I-3442J637*
G01X12697Y51739*
X12700Y51900*
G03X12267Y53587I-3500J1*
G02X12242Y53684I175J97*
X12248Y53732I200J-1*
G01X12277Y53849*
G02X12358Y53966I194J-48*
G03X13100Y55370I-958J1404*
G01Y58370*
G03X11400Y60070I-1700J0*
G01X8400*
G03X6700Y58370I0J-1700*
G01Y55370*
Y55369*
G03X6847Y54677I1700J0*
G02X6864Y54595I-184J-81*
X6802Y54450I-201*
G03X5700Y51900I2398J-2550*
G01Y51878*
Y51838*
X5670Y51764*
X3458Y49553*
G03X3400Y49412I141J-141*
G01Y49411*
Y44783*
X3339Y44686*
X3287Y44661*
G03X2328Y43131I741J-1530*
G01Y40769*
G03X4029Y39069I1700*
G01X4500*
G02X4700Y38869I0J-200*
G01Y38731*
G02X4500Y38531I-200J0*
G01X4029*
G03X2328Y36831I0J-1701*
G01Y34469*
G03X3390Y32893I1700J0*
G01X3427Y32878*
X5070Y31236*
X5100Y31162*
Y31122*
Y31100*
G03X7730Y27710I3500J0*
G02X7880Y27516I-50J-194*
G01Y27506*
X7879Y27495*
G03X7869Y27313I1690J-184*
G01Y23600*
G02X7669Y23400I-200*
G01X4420*
G03X4279Y23342I0J-200*
G01X1842Y20904*
G02X1624Y20861I-141J141*
G01X1568Y20884*
X1500Y20985*
G37*
G36*
X39567Y39575D02*
G01X39581Y39684D01*
X39615Y39727*
G03X39972Y40769I-1343J1042*
G01Y42600*
G02X40172Y42800I200J0*
G01X46430*
G02X46589Y42722I0J-200*
G01X46810Y42434*
X46829Y42342*
X46817Y42297*
G03X46700Y41400I3383J-897*
G01Y25833*
G03X46758Y25692I200J0*
G01X56492Y15958*
G03X56633Y15900I141J141*
G01X62826*
G02X63026Y15700I0J-200*
G01Y4103*
G03X64726Y2403I1700*
G01X73782*
G03X75482Y4103I0J1700*
G01Y11800*
G02X75682Y12000I200J0*
G01X85556*
G02X85698Y11941I0J-200*
G01X87494Y10145*
X87496Y10132*
X87372Y9471*
X87341Y9136*
X87331Y8800*
Y8760*
X87301Y8687*
X87073Y8459*
G02X86931Y8400I-142J140*
G01X81989*
G03X81847Y8342I-1J-200*
G01X80086Y6580*
X80012Y6550*
X79972*
G03X76450Y3050I-22J-3500*
X76579Y2108I3500J-1*
G01X76592Y2062*
X76574Y1970*
X76353Y1679*
G02X76194Y1600I-159J121*
G01X56409*
G02X56257Y1670I0J200*
G01X56031Y1935*
X56007Y2019*
X56014Y2063*
X56019Y2097*
G02X56179Y2266I198J-27*
G03X58959Y5164I-679J3434*
G01X58990Y5431*
X58998Y5565*
X59000Y5700*
G03X57032Y8847I-3500J0*
G01X56988Y8869*
X56930Y8947*
X56863Y9367*
X56893Y9460*
X56928Y9494*
G03X57992Y12007I-2436J2513*
X56544Y14842I-3500J0*
X51325Y13496I-2052J-2835*
G01X51231Y13401*
G03X51022Y13281I740J-1531*
G01X50977Y13250*
X50868Y13244*
X50459Y13454*
X50400Y13546*
X50399Y13601*
G03X49360Y15990I-3499J-101*
G02X49300Y16133I139J143*
G01Y17411*
Y17412*
G03X49242Y17553I-200J0*
G01X42559Y24236*
G02X42500Y24377I140J142*
G01Y31611*
Y31612*
G03X42442Y31753I-200J0*
G01X41823Y32371*
G02X41765Y32512I141J141*
G01Y32520*
X41776Y32854*
X41812Y32929*
X41844Y32956*
G03X43051Y35600I-2293J2644*
X39892Y39084I-3500J0*
G01X39837Y39089*
X39749Y39153*
X39567Y39575*
G37*
G36*
X241700Y109500D02*
G01X251300Y119100D01*
X282200*
X299300Y136200*
X311700*
X315400Y132500*
Y115600*
X303800Y104000*
X265800*
X255000Y93200*
Y92200*
X253800Y91000*
X243700*
X241700Y93000*
Y109500*
G37*
G36*
X177686Y37391D02*
G02X177701Y37468I199J1D01*
G01X177724Y37524*
X177825Y37592*
X179967*
G03X180108Y37650I0J200*
G01X183091Y40633*
G02X183233Y40692I142J-140*
G01X195359*
G03X195500Y40750I0J200*
G01X207042Y52292*
G03X207100Y52433I-141J141*
G01Y96467*
G03X207042Y96608I-200J0*
G01X191608Y112042*
G03X191467Y112100I-141J-141*
G01X181300*
G02X181100Y112300J200*
G01Y116417*
G02X181224Y116602I200J0*
G01X181280Y116625*
X181399Y116601*
X183741Y114259*
G03X183883Y114200I142J140*
G01X192917*
G02X193059Y114141I0J-200*
G01X209441Y97759*
G02X209500Y97617I-140J-142*
G01Y8783*
G02X209441Y8641I-200J0*
G01X202359Y1559*
G02X202217Y1500I-142J140*
G01X194068*
X194067*
G02X193909Y1578I0J200*
G01X193687Y1865*
X193669Y1956*
X193680Y2001*
G03X193735Y2429I-1646J429*
G01Y5286*
G02X193815Y5446I200*
X194165Y5678I2061J-2729*
X194265Y5705I100J-173*
G01X194540*
G03X196240Y7405J1700*
G01Y16854*
G03X194773Y18538I-1700J0*
G01X194699Y18548*
X194600Y18661*
Y21739*
X194699Y21852*
X194773Y21862*
G03X196240Y23546I-233J1684*
G01Y32995*
Y32996*
G03X194540Y34696I-1701J-1*
G01X191182*
X191181*
G02X191040Y34754I0J200*
G01X191025Y34770*
X190951Y34800*
X180277*
G02X180136Y34859I1J200*
G01X177744Y37250*
G02X177686Y37391I141J141*
G37*
G36*
X93800Y38717D02*
G01Y42223D01*
G02X93859Y42364I200J-1*
G01X94242Y42747*
G03X94300Y42888I-141J141*
G01Y42889*
Y48198*
G02X94359Y48339I200J-1*
G01X95342Y49322*
G03X95400Y49463I-141J141*
G01Y56458*
G02X95459Y56599I200J-1*
G01X100542Y61682*
G02X100683Y61741I142J-140*
G01X111607*
G02X111753Y61678I0J-200*
G01X111981Y61435*
X112009Y61357*
X112007Y61316*
X112002Y61208*
X112001Y61154*
X112000Y61100*
G03X114681Y57697I3500J0*
X118811Y59965I819J3403*
G02X119000Y60100I189J-65*
G01X121723*
G02X121864Y60041I-1J-200*
G01X122847Y59058*
G03X122989Y59000I141J141*
G01X140883*
X141000Y58883*
Y58800*
G03X144500Y55300I3500*
X148000Y58800J3500*
X144478Y62300I-3500J0*
G01X144438*
X144364Y62330*
X143741Y62953*
G02X143682Y63094I140J142*
X143685Y63126I199J-3*
G01X143744Y63494*
X143800Y63572*
X143843Y63593*
G03X148397Y71000I-3746J7407*
X147149Y75377I-8300J0*
X135122Y77644I-7052J-4377*
X131797Y71000I4975J-6644*
X133912Y65465I8300J0*
X134919Y64513I6186J5535*
G01X134969Y64473*
X135004Y64351*
X134858Y63934*
G02X134670Y63800I-189J66*
G01X129659*
G02X129519Y63858I1J200*
G01X129290Y64082*
X129260Y64155*
X129259Y64194*
G03X128585Y66206I-3500J-54*
G02X128546Y66324I161J119*
X128571Y66420I200J-1*
G03X129001Y68100I-3071J1681*
X127517Y70961I-3501J0*
G01X127474Y70991*
X127429Y71086*
X127461Y71533*
X127519Y71621*
X127566Y71644*
G03X128495Y73159I-771J1515*
G01Y73160*
Y80640*
G03X126795Y82340I-1700J0*
G01X125306*
G02X125215Y82362I0J200*
X124035Y83226I2091J4094*
X123977Y83367I141J141*
G01Y86308*
G02X124177Y86508I200J0*
G01X125406*
G03X127106Y88208I0J1700*
G01Y91861*
G02X127230Y92046I200J0*
G01X127286Y92069*
X127405Y92045*
X138292Y81158*
G03X138433Y81100I141J141*
G01X147000*
G03X150500Y84600J3500*
X147000Y88100I-3500J0*
G01X141333*
G02X141191Y88159I0J200*
G01X133359Y95991*
G02X133300Y96133I140J142*
G01Y103292*
G02X133427Y103478I200J0*
G01X133832Y103636*
X133952Y103609*
X133994Y103563*
G03X136484Y101716I6103J5625*
G02X136597Y101536I-87J-180*
G01Y97533*
G03X136655Y97392I200J0*
G01X142588Y91458*
G03X142730Y91400I141J141*
G01X147167*
G02X147309Y91341I0J-200*
G01X153941Y84709*
G02X154000Y84567I-140J-142*
G01Y54864*
G02X153941Y54722I-200J0*
G01X151608Y52389*
G02X151466Y52330I-142J140*
G01X128621*
G02X128476Y52393I1J200*
X127520Y53771I4109J3872*
X127499Y53859I178J89*
G01Y54950*
Y54951*
G03X125799Y56651I-1701J-1*
G01X120287*
G03X118587Y54951I0J-1700*
G01Y54950*
Y45108*
G03X120287Y43408I1700*
G01X125799*
G03X127499Y45108I0J1700*
G01Y45130*
G02X127699Y45330I200J0*
G01X151466*
G02X151608Y45271I0J-200*
G01X155646Y41233*
X155676Y41160*
X155677Y41121*
G03X160345Y36163I5000J31*
G02X160424Y36141I-13J-200*
G03X162616Y35716I1807J3456*
G01X162660Y35720*
X162745Y35690*
X171541Y26894*
G02X171600Y26752I-140J-142*
G01Y15606*
Y1800*
G02X171400Y1600I-200*
G01X151419*
G02X151246Y1700I0J200*
G01X151045Y2045*
Y2152*
X151072Y2199*
G03X151297Y3044I-1475J845*
G01Y8556*
G03X151022Y9482I-1700J-1*
G01X150992Y9528*
X150988Y9638*
X151209Y10046*
X151248Y10069*
X151300Y10161*
Y11684*
X151205Y11779*
G02X151170Y11826I141J141*
G01X151072Y12009*
G02X151048Y12104I176J95*
X151074Y12203I200J0*
G03X151297Y13044I-1477J842*
G01Y18556*
G03X150132Y20170I-1700J0*
G01X150082Y20186*
X150012Y20263*
X149922Y20644*
G02X149917Y20691I195J45*
X149975Y20832I200J0*
G01X154027Y24884*
X154072Y24910*
X154098Y24917*
G03X156700Y28300I-898J3383*
G01X156697Y28449*
X156688Y28597*
G03X153513Y31786I-3488J-297*
X149817Y29198I-313J-3486*
G01X149810Y29172*
X149784Y29127*
X147016Y26359*
G02X146874Y26300I-142J140*
G01X146290*
G02X146105Y26423I0J200*
G01X145940Y26819*
X145962Y26938*
X146005Y26981*
G03X148397Y32811I-5908J5830*
X147257Y37009I-8300J0*
X137368Y40650I-7160J-4198*
G01X137314Y40631*
X137201Y40656*
X136616Y41242*
G03X136475Y41300I-141J-141*
G01X120033*
G02X119891Y41359I0J200*
G01X107779Y53471*
G03X107638Y53529I-141J-141*
G01X107621*
G02X107421Y53729I0J200*
G01Y54950*
G03X105720Y56651I-1701J0*
G01X100209*
G03X98509Y54951I0J-1700*
G01Y54950*
Y45108*
G03X100209Y43408I1700*
G01X105720*
G03X106905Y43888I1J1700*
G01X106933Y43915*
X107006Y43945*
X107326Y43942*
G02X107466Y43884I-1J-200*
G01X115508Y35842*
G02X115567Y35700I-140J-142*
X115552Y35624I-199J0*
G01X115529Y35568*
X115428Y35500*
X102420*
X102312Y35585*
X102295Y35652*
G03X97132Y37821I-3395J-852*
G02X96921Y37826I-101J173*
G03X94282Y38326I-1921J-2926*
G01X94238Y38316*
X94150Y38338*
X93874Y38562*
G02X93800Y38717I126J155*
G37*
G36*
X21326Y99302D02*
G01Y99632D01*
G02X21331Y99675I200J-1*
G01X21345Y99739*
X21364Y99779*
X21398Y99808*
G03X22323Y100765I-3898J4693*
G02X22453Y100841I158J-122*
G01X22610Y100863*
X22683Y100846*
X22714Y100825*
G03X23673Y100528I960J1403*
G01X26035*
G03X27022Y100844I0J1700*
G02X27229Y100859I116J-163*
G01X27546Y100696*
G02X27654Y100518I-92J-178*
G01Y99300*
G03X28236Y97368I3500J1*
G01X28268Y97354*
G02X28391Y97151I-355J-354*
G03X31154Y95800I2763J2149*
X34654Y99300I0J3500*
G01Y101900*
G03X34181Y103657I-3500J0*
G02X34154Y103757I173J100*
G01Y110000*
Y110004*
X34104Y110549*
X34100Y110567*
Y111512*
G02X34284Y111711I200J0*
G03X37501Y115200I-284J3489*
G01X37500Y115271*
X37498Y115342*
X37489Y115484*
G03X34000Y118700I-3489J-285*
G01X31100*
G03X27600Y115200I0J-3500*
X28073Y113443I3500J0*
G01X28086Y113420*
X28100Y113369*
Y113052*
Y113051*
G02X27964Y112862I-200J0*
G01X27606Y112740*
G02X27483Y112738I-65J189*
X27383Y112808I59J191*
G03X26035Y113472I-1348J-1036*
G01X23970*
X23968*
G02X23822Y113537I2J200*
G01X23623Y113757*
G02X23571Y113891I148J134*
G01Y113901*
X23572Y113910*
G03X23601Y114499I-6072J594*
X21398Y119192I-6101J0*
G02X21345Y119261I129J154*
G01X21326Y119302*
Y119632*
G02X21331Y119675I200J-1*
G01X21345Y119739*
X21364Y119779*
X21398Y119808*
G03X23600Y124500I-3898J4692*
X22358Y128189I-6100J0*
G01X22317Y128310*
G02X22344Y128410I200J0*
G01X22397Y128503*
G02X22409Y128521I172J-102*
X22584Y128603I162J-117*
G01X22694Y128600*
X24369*
G02X24569Y128400I0J-200*
G01Y126875*
G03X26269Y128402I-1711J3614*
G01X30379Y126648*
X30600Y126770*
X30821Y126648*
X34931Y128402*
G03X36631Y126875I3411J2087*
G01Y128402*
Y128403*
G03X36167Y129570I-1700J0*
G02X36112Y129707I144J138*
G01Y134893*
G02X36167Y135030I200J-1*
G03X36631Y136197I-1237J1167*
G01Y136198*
Y140213*
X36629Y140291*
Y140295*
Y140300*
G02X36829Y140500I200J0*
G01X155560*
G02X155725Y140413I0J-200*
G01X155939Y140101*
X155951Y140002*
X155933Y139956*
G03X155700Y138700I3267J-1256*
X156725Y136225I3500J0*
G01X158246Y134704*
G02X158304Y134563I-141J-141*
G01Y130460*
G03X160005Y128760I1700J0*
G01X169454*
G03X171138Y130227I0J1700*
G02X171336Y130400I198J-27*
G01X173900*
G02X174100Y130200I0J-200*
G01Y113259*
G02X174041Y113118I-200J1*
G01X171999Y111075*
G03X170974Y108600I2475J-2475*
X171185Y107403I3500J0*
X174474Y105100I3289J1197*
G01X188567*
G02X188709Y105041I0J-200*
G01X200041Y93709*
G02X200100Y93567I-140J-142*
G01Y55333*
G02X200041Y55191I-200J0*
G01X192601Y47751*
G02X192459Y47692I-142J140*
G01X177700*
G03X176082Y47296I-1J-3500*
G02X175889Y47300I-93J177*
G01X175597Y47470*
G02X175498Y47635I101J173*
G03X170677Y50741I-3498J-135*
X168500Y47500I1324J-3241*
X169540Y45010I3501J0*
G02X169600Y44867I-140J-143*
G01Y38689*
Y38688*
G03X169658Y38547I200J0*
G01X178147Y30058*
G03X178289Y30000I141J141*
G01X184462*
G02X184595Y29949I0J-200*
X185336Y29007I-2333J-2598*
X185360Y28913I-176J-95*
G01Y23546*
G03X186827Y21862I1700J0*
G02X187000Y21664I-27J-198*
G01Y20400*
G02X186800Y20200I-200*
G01X182338*
X182290Y20206*
X181880Y20256*
X176600*
G02X176400Y20456J200*
G01Y28740*
Y28741*
G03X176342Y28882I-200J0*
G01X166171Y39052*
G02X166124Y39126I141J142*
G01X166109Y39169*
X166114Y39214*
G03X166133Y39596I-3881J384*
X165688Y41405I-3900J0*
G02X165666Y41484I178J92*
G03X160708Y46152I-4989J-332*
G02X160568Y46211I2J200*
G01X159826Y46954*
G02X159767Y47095I140J142*
G01Y47722*
Y47723*
G03X159752Y47799I-200J0*
G01X159498Y48409*
G02X159341Y49191I1877J784*
X159498Y49974I2034J-1*
G01X159772Y50632*
G02X159815Y50696I185J-78*
G01X160942Y51823*
G03X161000Y51964I-141J141*
G01Y87467*
G03X160942Y87608I-200J0*
G01X150208Y98342*
G03X150067Y98400I-141J-141*
G01X145630*
G02X145488Y98459I0J200*
G01X143656Y100291*
G02X143597Y100433I140J142*
G01Y101537*
Y101542*
G02X143710Y101716I200J-6*
G03X148397Y109189I-3613J7473*
X148250Y110745I-8300J1*
X141212Y117414I-8153J-1556*
G01X141165Y117420*
X141127Y117447*
G02X141064Y117515I111J166*
G01X140908Y117794*
G02X140883Y117891I176J97*
X140900Y117972I201J0*
G03X141200Y119390I-3200J1418*
X137700Y122890I-3500J0*
G01X134690*
G03X131197Y119618I0J-3500*
G01X131195Y119581*
X131180Y119548*
G02X131139Y119489I-182J83*
G01X129409Y117759*
G02X129267Y117700I-142J140*
G01X101854*
G02X101713Y117758I0J200*
G03X100915Y118399I-3514J-3558*
G01X100838Y118428*
X100524Y118529*
G02X100413Y118708I89J179*
X100418Y118752I200J0*
G01X100439Y118846*
X100440Y118852*
G02X100588Y118996I193J-50*
G03X101896Y120650I-392J1654*
G01Y120651*
Y126949*
Y126950*
G03X100196Y128650I-1701J-1*
G01X84376*
G02X84176Y128850I0J200*
G01Y130631*
G03X82663Y132321I-1700J0*
G01X82662*
X82538Y132383*
X82458Y132469*
G02X82404Y132606I146J137*
G01Y132632*
X82432Y132703*
X82538Y132817*
X82662Y132879*
X82663*
G03X84176Y134569I-187J1690*
G01Y136931*
G03X82475Y138631I-1700J0*
G01X81074*
X81103Y138619*
G03X82475Y136931I2967J1010*
X83645Y135901I2196J1315*
G02X83656Y135750I-991J-148*
X83645Y135599I-1002J-3*
G03X82475Y134569I1025J-2344*
G01X80779Y135560*
X80704Y135500*
X80629Y135560*
X78933Y134569*
G03X77763Y135599I-2196J-1315*
G02X77752Y135750I989J148*
X77763Y135901I1000J3*
G03X78933Y136931I-1025J2344*
X80305Y138619I-1595J2698*
G01X80334Y138631*
X78932*
G03X77885Y138270I0J-1700*
G01X77859Y138250*
X77796Y138228*
X77612*
X77549Y138250*
X77523Y138270*
G03X76476Y138631I-1048J-1340*
G01X75074*
X75103Y138619*
G03X76475Y136931I2967J1010*
X77645Y135901I2196J1315*
G02X77656Y135750I-990J-148*
X77645Y135599I-1001J-3*
G03X76475Y134569I1025J-2344*
G01X74779Y135560*
X74704Y135500*
X74629Y135560*
X72933Y134569*
G03X71763Y135599I-2196J-1315*
G02X71752Y135750I989J148*
X71763Y135901I1000J3*
G03X72933Y136931I-1025J2344*
X74305Y138619I-1595J2698*
G01X74334Y138631*
X72932*
G03X71885Y138270I0J-1700*
G01X71859Y138250*
X71796Y138228*
X71612*
X71549Y138250*
X71523Y138270*
G03X70476Y138631I-1048J-1340*
G01X69074*
X69103Y138619*
G03X70475Y136931I2967J1010*
X71645Y135901I2196J1315*
G02X71656Y135750I-991J-148*
X71645Y135599I-1002J-3*
G03X70475Y134569I1025J-2344*
G01X68779Y135560*
X68704Y135500*
X68629Y135560*
X66933Y134569*
G03X65763Y135599I-2196J-1315*
G02X65752Y135750I989J148*
X65763Y135901I1000J3*
G03X66933Y136931I-1025J2344*
X68305Y138619I-1595J2698*
G01X68334Y138631*
X66933*
G03X65232Y136931I0J-1701*
G01Y135224*
Y135219*
G02X65155Y135067I-200J6*
G01Y135066*
X64904Y134873*
G02X64732Y134837I-123J157*
G03X61850Y134323I-883J-3387*
G02X61647Y134308I-114J164*
G01X61641Y134311*
X61540Y134365*
G02X61435Y134541I95J176*
G01Y138071*
Y138072*
G03X59735Y139772I-1701J-1*
G01X57373*
G03X55673Y138072I0J-1700*
G01Y138071*
Y137600*
G02X55473Y137400I-200*
G01X55335*
G02X55135Y137600I0J200*
G01Y138071*
Y138072*
G03X53435Y139772I-1701J-1*
G01X51073*
G03X49543Y138813I0J-1700*
G02X49363Y138700I-180J87*
G01X48689*
G03X48547Y138642I-1J-200*
G01X45958Y136053*
G03X45900Y135912I141J-141*
G01Y135911*
Y113877*
G02X45841Y113736I-200J1*
G01X41658Y109553*
G03X41600Y109412I141J-141*
G01Y109411*
Y102336*
G02X41486Y102156I-200J1*
G03X39500Y99000I1514J-3156*
X39724Y97767I3500J-1*
X43943Y95629I3276J1233*
X46501Y99000I-942J3371*
X46406Y99808I-3500J-2*
G01X46400Y99831*
Y107423*
G02X46459Y107564I200J-1*
G01X50642Y111747*
G03X50700Y111888I-141J141*
G01Y111889*
Y114400*
G02X50759Y114541I200J-1*
G01X50959Y114741*
G02X51100Y114800I142J-140*
G03X51534Y114827I0J3500*
G01X51547Y114828*
X53435*
G03X55135Y116528J1700*
G01Y116529*
Y117000*
G02X55335Y117200I200J0*
G01X55473*
G02X55673Y117000I0J-200*
G01Y116529*
Y116528*
G03X57373Y114828I1700J0*
G01X59353*
X59366Y114827*
G03X63300Y118300I434J3473*
X63273Y118730I-3500J-4*
X63194Y119154I-3474J-428*
G01X63183Y119200*
X63203Y119291*
X63462Y119614*
X63547Y119653*
X63594Y119651*
G03X63969Y119660I104J3499*
G02X64050Y119650I17J-199*
G01X64090Y119636*
X64336Y119408*
G02X64400Y119261I-136J-147*
G01Y66289*
Y66288*
G03X64458Y66147I200J0*
G01X68547Y62058*
G03X68689Y62000I141J141*
G01X75523*
G02X75664Y61941I-1J-200*
G01X80836Y56770*
G03X80977Y56712I141J141*
G01X84500*
G02X84700Y56512I0J-200*
G01Y55523*
G02X84640Y55381I-200J1*
G03X83600Y52891I2460J-2490*
X84594Y50447I3500J-1*
G01X84622Y50419*
X84636Y50382*
G02X84651Y50306I-185J-76*
G01X84649Y50025*
G02X84590Y49885I-200J2*
G01X84058Y49353*
G03X84000Y49212I141J-141*
G01Y43689*
Y43688*
G03X84058Y43547I200J0*
G01X84748Y42858*
G02X84806Y42717I-141J-141*
G01Y42712*
X84800Y42423*
G02X84735Y42280I-200J5*
G03X83600Y39700I2365J-2580*
X84640Y37210I3500J0*
G02X84700Y37067I-140J-143*
G01Y36095*
G02X84641Y35953I-200J0*
G01X84620Y35932*
G02X84479Y35874I-141J141*
G01X81307*
G03X81166Y35815I1J-200*
G01X78309Y32959*
G02X78168Y32900I-142J140*
G01X67077*
G02X66936Y32959I1J200*
G01X64154Y35740*
G02X64096Y35881I141J141*
X64117Y35970I199J0*
G01X64314Y36368*
X64428Y36428*
X64492Y36419*
G03X64725Y36403I233J1684*
G01X73782*
G03X75482Y38103I0J1700*
G01Y57197*
G03X73782Y58897I-1700J0*
G01X64726*
G03X63026Y57197I0J-1700*
G01Y38103*
Y38102*
G03X63042Y37869I1700J0*
G01X63051Y37805*
X62991Y37691*
X62594Y37493*
G02X62363Y37531I-89J179*
G01X61559Y38336*
G02X61500Y38477I140J142*
G01Y41574*
Y41575*
G03X61442Y41716I-200J0*
G01X53995Y49162*
G02X53936Y49304I140J142*
G01Y49343*
X53967Y49417*
X56442Y51892*
G03X56500Y52033I-141J141*
G01Y54100*
G02X56700Y54300I200J0*
G01X58004*
G03X59704Y56000J1700*
G01Y60400*
G02X59904Y60600I200J0*
G01X61204*
G03X61404Y60800J200*
G01Y70520*
G02X61440Y70634I200J0*
G03X61744Y71604I-1396J970*
G01Y71616*
Y71617*
Y81054*
G03X60277Y82738I-1700J0*
G02X60104Y82936I27J198*
G01Y85864*
G02X60277Y86062I200J0*
G03X61744Y87746I-233J1684*
G01Y90825*
G03X60044Y88449I4211J-4809*
G01X56308Y92101*
X56304Y92096*
X56300Y92101*
X52564Y88449*
G03X50864Y90825I-5911J-2433*
G01Y90106*
G02X50736Y89920I-200J1*
G01X50329Y89763*
X50208Y89792*
X50167Y89838*
G03X48904Y90400I-1263J-1139*
G01X47204*
G03X48904Y88700I3698J1998*
X50890Y86588I4445J2190*
G01X51139Y86683*
X51260Y86654*
X51301Y86608*
G03X52331Y86062I1263J1138*
G01X52405Y86052*
X52504Y85939*
Y82861*
X52405Y82748*
X52331Y82738*
G03X50918Y81478I233J-1684*
G02X50760Y81331I-194J50*
G01X50662Y81313*
G02X50450Y81414I-36J197*
G01X50415Y81480*
X50350Y81595*
G02X50320Y81700I170J105*
X50350Y81805I200J0*
G03X50604Y82699I-1447J894*
G01Y82700*
Y84636*
G03X48904Y82700I2745J-4125*
G01X46154Y85700*
X46185Y85734*
X43904Y88700*
G03X45604Y90400I-1998J3698*
G01X43904*
X43503Y90352*
X43502*
G02X43401Y90354I-47J194*
X43313Y90406I55J193*
G01X43035Y90688*
X43008Y90790*
X43021Y90841*
G03X43076Y91268I-1645J429*
G01Y93631*
G03X41375Y95331I-1700J0*
G01X37832*
G03X36785Y94970I0J-1700*
G01X36759Y94950*
X36696Y94928*
X36512*
X36449Y94950*
X36423Y94970*
G03X35376Y95331I-1048J-1340*
G01X33974*
X34003Y95319*
G03X35375Y93631I2967J1010*
G01X33604Y92200*
X31833Y93631*
G03X33205Y95319I-1595J2698*
G01X33234Y95331*
X31832*
G03X30785Y94970I0J-1700*
G01X30759Y94950*
X30696Y94928*
X30512*
X30449Y94950*
X30423Y94970*
G03X29376Y95331I-1048J-1340*
G01X25833*
G03X24132Y93631I-1J-1700*
G01Y91269*
G03X25833Y89569I1700J0*
G01X26304*
G02X26504Y89369I0J-200*
G01Y89231*
G02X26304Y89031I-200J0*
G01X25833*
G03X24132Y87331I-1J-1700*
G01Y84969*
G03X25136Y83418I1700J0*
G01X25137*
X25258Y83359*
G02X25367Y83181I-91J-178*
X25361Y83134I-200J2*
G01X25345Y83067*
X25236Y82981*
X23800*
G02X23600Y83181J200*
G01Y87600*
Y87601*
G03X22311Y90065I-3000J0*
G01X22310*
G02X22226Y90201I114J164*
G01X22186Y90492*
X22184Y90506*
Y90513*
Y90520*
G02X22191Y90573I200J1*
G01X22202Y90614*
X22229Y90646*
G03X23600Y94500I-4730J3853*
X21398Y99192I-6101J0*
G02X21345Y99261I129J154*
G01X21326Y99302*
G37*
%LPC*%
G36*
X30466Y58796D02*
G03X30087Y58271I940J-1078D01*
G01X29935Y57530*
X30466Y58796*
G37*
G36*
X101205Y80640D02*
G01X103685Y78821D01*
X101908Y80640*
G03X104283Y82340I-2435J5910*
G01X101205*
G03X99504Y80640I0J-1701*
G01Y78428*
G03X101205Y80640I-3817J4695*
G37*
G36*
X34931Y122686D02*
G03X36631Y124386J1700D01*
G01Y124387*
Y125914*
G03X34931Y124387I1711J-3614*
X32642Y122686I2969J-6386*
G01X34931*
G37*
G36*
X52564Y96492D02*
G01X54383Y94714D01*
X52564Y97195*
G03X54725Y98896I-2596J5521*
G01X52564*
G03X50864Y97196I0J-1700*
G01Y97195*
Y94117*
G03X52564Y96492I-4210J4810*
G37*
G36*
X60044Y97195D02*
G01X58224Y94714D01*
X60044Y96492*
G03X61744Y94117I5910J2434*
G01Y97195*
Y97196*
G03X60044Y98896I-1701J-1*
G01X57883*
G03X60044Y97195I4757J3820*
G37*
G36*
X112204Y118950D02*
G01X128149D01*
G03X129849Y120650I0J1700*
G01Y120651*
Y126949*
Y126950*
G03X128149Y128650I-1700J0*
G01X112204*
G03X110504Y126950I1J-1701*
G01Y126949*
Y120651*
Y120650*
G03X112204Y118950I1700J0*
G37*
G36*
X133540Y128710D02*
G03X138490Y128740I2460J2490D01*
G02X138633Y128800I143J-140*
G01X147323*
G02X147464Y128741I-1J-199*
G01X152341Y123864*
G02X152400Y123723I-141J-142*
G01Y102633*
G02X152340Y102490I-199J0*
G03X151300Y100000I2460J-2490*
X152340Y97510I3500J0*
X157290Y97540I2460J2490*
X158300Y100000I-2490J2460*
X157260Y102490I-3500J0*
G02X157200Y102633I140J143*
G01Y125711*
Y125712*
G03X157142Y125853I-199J0*
G01X149453Y133542*
G03X149311Y133600I-141J-142*
G01X138633*
G02X138490Y133660I0J199*
G03X133510I-2490J-2460*
X132500Y131200I2490J-2460*
X133540Y128710I3500J0*
G37*
G36*
X163099Y119172D02*
G01X163100Y119165D01*
Y98233*
G03X163158Y98092I199J0*
G01X168125Y93125*
G03X173075I2475J2475*
X174100Y95600I-2475J2475*
X173075Y98075I-3500J0*
G01X170159Y100991*
G02X170100Y101133I141J142*
G01Y119397*
G03X167797Y122686I-3500J0*
X164125Y121872I-1197J-3289*
G01X164118Y121865*
G03X163092Y119390I2474J-2476*
G01X163099Y119172*
G37*
G36*
X173119Y52543D02*
G03X174400Y52300I1281J3257D01*
X177899Y55710I0J3500*
G01X177900Y55749*
X177931Y55821*
X178159Y56043*
G02X178299Y56100I140J-143*
G01X189867*
G02X190010Y56040I0J-199*
G03X192500Y55000I2490J2460*
X194990Y56040I0J3500*
X196000Y58500I-2490J2460*
X194960Y60990I-3500J0*
X192500Y62000I-2460J-2490*
X190010Y60960I0J-3500*
G02X189867Y60900I-143J140*
G01X174589*
X174588*
G03X174447Y60842I0J-199*
G01X172050Y58444*
Y58395*
X171988Y58336*
G03X170900Y55800I2412J-2536*
X173119Y52543I3500J0*
G37*
G36*
X173500Y90978D02*
G03X177000Y87500I3500J22D01*
G01X177022*
G03X180500Y91000I-22J3500*
G01Y91022*
Y91062*
X180530Y91136*
X185271Y95876*
X185405Y95894*
X185464Y95861*
G03X187200Y95400I1736J3039*
X190079Y96910I0J3500*
X190700Y98900I-2879J1990*
X189434Y101595I-3500J1*
X187200Y102400I-2233J-2695*
X184710Y101360I0J-3500*
G01X184682Y101331*
X184608Y101300*
X183989*
X183988*
G03X183847Y101242I0J-199*
G01X177136Y94530*
X177062Y94500*
X177022*
X177000*
G03X173500Y91000I0J-3500*
G01Y90978*
G37*
G36*
X26269Y122686D02*
G01X28558D01*
G03X26269Y124387I-5258J-4686*
X24569Y125914I-3411J-2088*
G01Y124387*
Y124386*
G03X26269Y122686I1700J0*
G37*
%LPD*%
G36*
X176929Y90929D02*
G01X177000Y92500D01*
G03X178100I550J1320*
G02X178500Y92100I0J-400*
G03X178390Y91550I1320J-550*
X178500Y91000I1431J0*
G01X176929Y90929*
G37*
G36*
X153739Y101061D02*
G03X154517Y101838I-544J1322D01*
G02X155083I283J-283*
G03X155861Y101061I1322J545*
G01X154800Y99900*
X153739Y101061*
G37*
G36*
X185245Y98900D02*
G02X185362Y99183I400J0D01*
G03X186139Y99961I-545J1322*
G01X187300Y98900*
X186139Y97839*
G03X185362Y98617I-1323J-544*
G02X185245Y98900I283J283*
G37*
G36*
X190545Y58500D02*
G02X190662Y58783I400J0D01*
G03X191439Y59561I-545J1322*
G01X192600Y58500*
X191439Y57439*
G03X190662Y58217I-1323J-544*
G02X190545Y58500I283J283*
G37*
G36*
X135900Y131200D02*
G01X137061Y132261D01*
G03X137838Y131483I1322J543*
G02X137955Y131200I-284J-283*
X137838Y130917I-401J0*
G03X137061Y130139I545J-1322*
G01X135900Y131200*
G37*
G36*
X173339Y56861D02*
G03X174167Y57688I-579J1407D01*
G02X174750Y57670I283J-282*
G03X175478Y56842I1358J460*
G01X174397Y55700*
X173339Y56861*
G37*
G54D41*
X7994Y19400D03*
X24694Y132300D03*
G54D11*
X12300Y5800D03*
X15300Y134700D03*
X257472Y37000D03*
X303928D03*
G54D24*
X39600Y14400D03*
Y6400D03*
X55504Y67000D03*
Y59000D03*
X46904D03*
Y67000D03*
X46404Y85700D03*
Y77700D03*
G54D16*
X5800Y35650D03*
Y41950D03*
X5300Y76450D03*
Y70150D03*
X24500Y35650D03*
Y41950D03*
X30500Y35650D03*
Y41950D03*
X12700Y35650D03*
Y41950D03*
X18600Y35650D03*
Y41950D03*
X17300Y76450D03*
Y70150D03*
X11300Y76450D03*
Y70150D03*
X27604Y92450D03*
Y86150D03*
X33604D03*
Y92450D03*
X36500Y35650D03*
Y41950D03*
X39604Y92450D03*
Y86150D03*
X68704Y129450D03*
Y135750D03*
X74704Y129450D03*
Y135750D03*
X80704Y129450D03*
Y135750D03*
G54D71*
X56304Y76329D03*
Y92471D03*
X190800Y12129D03*
Y28271D03*
G54D28*
X140097Y32811D03*
Y71000D03*
Y109189D03*
X226711Y32811D03*
Y109189D03*
X273800Y8300D03*
X305200D03*
X289800Y67800D03*
X305900Y90150D03*
Y123300D03*
G54D31*
X247304Y66300D03*
Y96300D03*
X277304Y136300D03*
G54D12*
X8600Y31100D03*
X9200Y51900D03*
X3400Y128300D03*
X3200Y124500D03*
X4000Y121200D03*
X33300Y14900D03*
X21500Y9500D03*
X33000Y9100D03*
X27300Y12700D03*
X27400Y3900D03*
X21800Y3400D03*
X32800Y3300D03*
X27600Y35600D03*
X32929D03*
X24800Y27800D03*
X30100Y25300D03*
X26900Y20000D03*
X27500Y41950D03*
X33500D03*
X18600Y44200D03*
X12700Y33400D03*
X22400Y68300D03*
X24500Y46500D03*
X16900Y50800D03*
X16600Y55800D03*
X28145Y68600D03*
X29800Y60100D03*
X12700Y47300D03*
X22200Y72500D03*
X31154Y99300D03*
X34000Y115200D03*
X31100D03*
X31154Y101900D03*
X26500Y97000D03*
X23700Y99000D03*
X27400Y119000D03*
X30600Y121200D03*
X39550Y17900D03*
X50000Y19500D03*
X46900Y13500D03*
X54492Y12008D03*
X55500Y5700D03*
X56900Y30900D03*
Y28000D03*
X39550Y35600D03*
X35300Y27900D03*
Y21500D03*
X44900Y25900D03*
X47200Y22200D03*
X44600Y40700D03*
X50200Y41400D03*
Y38674D03*
X59100Y51800D03*
X59300Y46200D03*
X45600Y52700D03*
X39900Y68000D03*
X37900Y65700D03*
X56700Y49000D03*
X50200Y50600D03*
X52100Y52500D03*
X55767Y109277D03*
X48900Y107600D03*
X54100Y100400D03*
X59200Y105200D03*
X53100D03*
X37800Y101400D03*
X37300Y97100D03*
X36700Y119800D03*
X44000Y119200D03*
X51100Y118300D03*
X43000Y99000D03*
X59800Y118300D03*
X44100Y130400D03*
X44300Y125000D03*
X38200Y124400D03*
X59800Y122600D03*
X51100Y124300D03*
X60800Y3200D03*
Y5500D03*
X82000Y10000D03*
X79950Y3050D03*
X78200Y20550D03*
X84000Y29174D03*
X84895Y61812D03*
X64000Y60959D03*
X74441D03*
X80700Y74600D03*
X71000Y87000D03*
X74800Y113900D03*
Y117100D03*
X71400Y102300D03*
X81900Y96800D03*
X76200Y100100D03*
X70700Y95600D03*
X76500Y94800D03*
X61767Y109177D03*
X62900Y100100D03*
X71700Y108600D03*
X65850Y129450D03*
X63850Y131450D03*
X76400Y125000D03*
X74600Y122300D03*
X63700Y123150D03*
X86900Y3300D03*
X85600Y9800D03*
X100200Y41600D03*
X97000Y39700D03*
X95800Y22200D03*
X109900Y37100D03*
X106800D03*
X97500Y43200D03*
X87100Y39700D03*
X98900Y34800D03*
X95000Y34900D03*
X96900Y53300D03*
X109700Y53900D03*
X96800Y67600D03*
X87100Y52891D03*
X89100Y46300D03*
X91400Y87500D03*
X98800Y84400D03*
X97800Y75600D03*
X94000D03*
X95700Y93100D03*
X85700Y114400D03*
X90600Y114200D03*
X85600Y108100D03*
X91000Y107500D03*
X91200Y98500D03*
X91300Y138100D03*
X131350Y16050D03*
X128900Y18300D03*
X121750Y32500D03*
X132700Y42900D03*
X116200Y69100D03*
X133100Y57300D03*
X132100Y65400D03*
X130200Y53900D03*
X125759Y64141D03*
X125500Y68100D03*
X115500Y61100D03*
X127400Y85500D03*
X130500Y85900D03*
X130100Y73400D03*
X116500Y91100D03*
Y93900D03*
X134690Y119390D03*
X132500Y138900D03*
X133100Y135900D03*
X140500Y15700D03*
X135900Y43800D03*
X153200Y28300D03*
X136500Y53900D03*
X139100Y57400D03*
X142900Y54000D03*
X144500Y58800D03*
X145700Y89600D03*
X147000Y84600D03*
X149600Y111900D03*
X135900Y95700D03*
X160000Y99500D03*
X158500Y103500D03*
X159600Y114200D03*
X148500Y114300D03*
X137700Y119390D03*
X154800Y100000D03*
X148600Y124600D03*
X159200Y127000D03*
X146044Y138300D03*
X152300Y134800D03*
X153000Y138800D03*
X159200Y138700D03*
X136000Y131200D03*
X177700Y44192D03*
Y41092D03*
X162600Y65500D03*
X170300Y69600D03*
X164800Y63400D03*
X177500Y51100D03*
X185100Y49800D03*
X181800Y53100D03*
X172000Y47500D03*
X174400Y55800D03*
X167800Y75000D03*
X170000Y79300D03*
X163554Y79807D03*
X163454Y74107D03*
X177000Y91000D03*
X171500Y103200D03*
X161500Y102200D03*
X171800Y114000D03*
X174474Y108600D03*
X177600D03*
X170600Y95600D03*
X166600Y119397D03*
X167300Y126900D03*
X171800Y125800D03*
X172200Y120000D03*
X162900Y124800D03*
X198200Y63700D03*
X196000Y67400D03*
X195200Y53500D03*
X207900Y50700D03*
X205700Y48400D03*
X193600Y51000D03*
X192500Y58500D03*
X186700Y91050D03*
X192800D03*
X196200Y73600D03*
X198500Y77700D03*
X198400Y70900D03*
X187200Y98900D03*
X218856Y55977D03*
X213250Y55000D03*
X233200Y132600D03*
X258500Y6800D03*
X258648Y13021D03*
X254700Y66900D03*
Y62800D03*
X243300Y62600D03*
X254700Y70400D03*
X243500Y70500D03*
X256500Y108800D03*
X251200Y103500D03*
X260400Y103000D03*
X244700Y107200D03*
X251900Y115100D03*
X255500Y98500D03*
X248500Y111300D03*
X280500Y8300D03*
X273148Y16621D03*
X283048Y16521D03*
X264348Y17021D03*
X264300Y10400D03*
X264500Y3500D03*
X270200Y111000D03*
X263300D03*
X282451D03*
X276326D03*
X292500Y8300D03*
X286600D03*
X298500D03*
X291848Y16721D03*
X303548Y16420D03*
X299700Y85400D03*
Y95100D03*
X290368Y111000D03*
X300150Y117550D03*
X295450Y112850D03*
X288400Y118500D03*
X303300Y109000D03*
X308000Y113300D03*
X295900Y126900D03*
X301700Y130900D03*
X306900Y133400D03*
X292400Y121900D03*
X314248Y16420D03*
X314500Y10300D03*
Y3500D03*
X314600Y89900D03*
Y85300D03*
Y95200D03*
X312000Y117500D03*
X311700Y130800D03*
X313300Y125000D03*
G54D72*
X69254Y13650D03*
Y47650D03*
G54D32*
X247304Y136300D03*
G54D30*
X9900Y64350D03*
Y56870D03*
X18920Y60610D03*
G54D39*
X78804Y83524D03*
Y111476D03*
G54D18*
X92789Y8800D03*
X116411D03*
G54D13*
X7500Y94500D03*
Y84500D03*
Y114500D03*
Y104500D03*
Y124500D03*
X17500Y94500D03*
Y114500D03*
Y104500D03*
Y124500D03*
X126200Y9200D03*
X135300D03*
G54D44*
X102965Y16171D03*
Y50029D03*
X123043Y16171D03*
Y50029D03*
G54D42*
X13900Y13495D03*
Y25306D03*
X30600Y138206D03*
Y126394D03*
G54D22*
X24800Y56970D03*
X29800D03*
Y78230D03*
X24800D03*
X34800Y56970D03*
X39800D03*
Y78230D03*
X34800D03*
G54D19*
X105929Y76900D03*
X122071D03*
X180871Y134200D03*
X164729D03*
G54D15*
X17500Y84500D03*
G54D73*
X102631Y95000D03*
X120977D03*
G54D21*
X31154Y104000D03*
X24854D03*
X31154Y110000D03*
X24854D03*
X46854Y4100D03*
X53154D03*
Y10100D03*
X46854D03*
X34850Y50600D03*
X41150D03*
X52254Y118300D03*
X58554D03*
X52254Y136300D03*
X58554D03*
Y130300D03*
X52254D03*
Y124300D03*
X58554D03*
X80454Y65900D03*
Y71900D03*
X86754Y65900D03*
Y71900D03*
X184554Y4200D03*
X190854D03*
G54D40*
X92224Y123800D03*
X120176D03*
G54D87*
X145462Y5800D03*
Y15800D03*
X177746D03*
Y5800D03*
G54D12*
X13900Y13495D02*
G01X22194D01*
X26500Y97000D02*
G01X24400D01*
X23490Y96090*
X30600Y126394D02*
G01X36831D01*
X30600D02*
G01X24369D01*
X24400Y139000D02*
G01X29806D01*
X30600Y138206*
X38500Y139000D02*
G01X31394D01*
X30600Y138206*
Y121200D02*
G01Y126394D01*
X24694Y132300D02*
G01X22294Y134700D01*
X15300*
X69254Y13650D02*
G01Y16400D01*
X66254Y19400*
X58000*
X50200Y27200*
Y38674*
Y38674D02*
G01Y41400D01*
X55504Y59000D02*
G01X53000Y56496D01*
Y53400*
X52100Y52500*
Y52500D02*
G01X50200Y50600D01*
X56304Y92471D02*
G01Y99096D01*
Y92471D02*
G01X61944D01*
X56304D02*
G01X50664D01*
X92789Y8800D02*
G01Y9800D01*
X87089Y15500*
X71104*
X69254Y13650*
Y47650D02*
G01Y36203D01*
Y47650D02*
G01Y59097D01*
Y47650D02*
G01X75682D01*
X69254D02*
G01X62826D01*
X78804Y83524D02*
G01Y93396D01*
Y83524D02*
G01X73754D01*
X102965Y50029D02*
G01X106271D01*
X118500Y37800*
X135108*
X140097Y32811*
X105929Y76900D02*
G01Y82540D01*
X99400Y76900D02*
G01X105929D01*
X95700Y114200D02*
G01Y93100D01*
Y93100D02*
G01X100731D01*
X102631Y95000*
X95700Y114200D02*
G01Y121800D01*
X93700Y123800*
X92224*
X95700Y114200D02*
G01X130800D01*
X116411Y8800D02*
G01X122900D01*
X126200Y9200D02*
G01X135300D01*
Y9200D02*
G01Y12100D01*
X131350Y16050*
X116100Y17800D02*
G01X121414D01*
X123043Y16171*
Y16171D02*
G01X123200D01*
X122900Y8800D02*
G01X125800D01*
X126200Y9200*
X123200Y16171D02*
G01X126771D01*
X128900Y18300*
X123200Y16171D02*
G01Y9100D01*
X122900Y8800*
X152999Y48830D02*
G01X124242D01*
X123043Y50029*
X130800Y114200D02*
G01X129800Y113200D01*
Y94600*
X139800Y84600*
X147000*
X120176Y123800D02*
G01Y118750D01*
X130800Y114200D02*
G01X134690Y118090D01*
Y119390*
X120176Y123800D02*
G01Y128850D01*
Y123800D02*
G01X130049D01*
X120176D02*
G01X110304D01*
X160677Y41152D02*
G01X152999Y48830D01*
X140097Y109189D02*
G01Y98900D01*
X144097Y94900*
X148700*
X157500Y86100*
Y53331*
X152999Y48830*
X159200Y138700D02*
G01X163700Y134200D01*
X164729*
X137700Y119390D02*
G01X134690D01*
X177700Y44192D02*
G01Y41092D01*
Y41092D02*
G01X178600D01*
X181700Y44192*
Y44192D02*
G01X193992D01*
X203600Y53800*
Y95100*
X190100Y108600*
X177600*
X181700Y44192D02*
G01X177700D01*
X174474Y108600D02*
G01X177600D01*
X180871Y134200D02*
G01Y133571D01*
X177600Y130300*
Y111726*
Y111726D02*
G01Y108600D01*
X174474D02*
G01X177600Y111726D01*
X166593Y119390D02*
G01X166600Y119397D01*
Y119397D02*
G01Y99600D01*
X170600Y95600*
X247304Y136300D02*
G01X244604Y139000D01*
X183871*
X180871Y136000*
Y134200*
X233200Y132600D02*
G01X237500Y128300D01*
X269304*
X277304Y136300*
G54D33*
X9200Y51900D02*
G01X5800Y48500D01*
Y41950*
X8600Y31100D02*
G01X5800Y33900D01*
Y35650*
X5300Y76450D02*
G01X5750D01*
X8300Y73900*
Y72600*
X10750Y70150*
X11300*
X1900Y93100D02*
G01Y80400D01*
X3300Y79000*
X10500*
X11300Y78200*
Y76450*
X7500Y94500D02*
G01X3300D01*
X1900Y93100*
X13900Y29100D02*
G01X15200Y30400D01*
X18600Y35650D02*
G01Y32800D01*
X19400Y32000*
X38800*
X40100Y30700*
Y23300*
X46900Y16500*
Y13500*
X12700Y47300D02*
G01Y41950D01*
X18600Y44200D02*
G01Y41950D01*
X12700Y33400D02*
G01Y35650D01*
X9900Y64350D02*
G01X10250D01*
X11300Y65400*
Y70150*
X39800Y78230D02*
G01Y74800D01*
X38000Y73000*
X35900*
X33900Y71000*
Y64852*
X32148Y63100*
X26100*
X24800Y61800*
Y56970*
X87100Y39700D02*
G01Y35018D01*
X85556Y33474*
X82219*
X79245Y30500*
X66000*
X59100Y37400*
Y40663*
X52963Y46800*
X31800*
X31000Y47600*
Y50663*
X29263Y52400*
X23219*
X22000Y53619*
Y61400*
X25300Y64700*
X31485*
X32300Y65515*
Y81963*
X30576Y83687*
Y91224*
X29350Y92450*
X27604*
X29800Y56970D02*
G01X34800D01*
X29800D02*
G01Y60100D01*
X17300Y70150D02*
G01Y62230D01*
X18920Y60610*
X96800Y67600D02*
G01Y66200D01*
X89800Y59200*
Y51700*
X86400Y48300*
Y44600*
X89800Y41200*
Y35455*
X86219Y31874*
X82881*
X79908Y28900*
X65337*
X57500Y36737*
Y40000*
X52300Y45200*
X30200*
X29400Y46000*
Y50000*
X28600Y50800*
X22242*
X20400Y52642*
Y59130*
X18920Y60610*
X27604Y86150D02*
G01X28500Y85254D01*
Y81600*
X29800Y80300*
Y78230*
X17500Y104500D02*
G01X24354D01*
X24854Y104000*
X17500Y114500D02*
G01Y112200D01*
X19700Y110000*
X24854*
X24369Y138206D02*
G01X30600D01*
Y138206D02*
G01X36831D01*
X39600Y14400D02*
G01X39550Y14450D01*
Y17900*
X39600Y6400D02*
G01X41900Y4100D01*
X46854*
Y10100D02*
G01Y13454D01*
X46900Y13500*
X54492Y12008D02*
G01X53154Y10669D01*
Y10100*
X55500Y5700D02*
G01X53900Y4100D01*
X53154*
X34800Y56970D02*
G01Y50650D01*
X34850Y50600*
X39800Y78230D02*
G01Y85954D01*
X39604Y86150*
X33604D02*
G01X34050D01*
X36632Y88732*
Y90132*
X38950Y92450*
X39604*
X33604Y86150D02*
G01Y84196D01*
X34800Y83000*
Y78230*
X43000Y99000D02*
G01X44000Y100000D01*
Y108500*
X48300Y112800*
Y135000*
X49600Y136300*
X52254*
X51100Y118300D02*
G01X52254D01*
X51100Y124300D02*
G01X52254D01*
X63700Y123150D02*
G01Y124100D01*
X60528Y127272*
X54728*
X52254Y129746*
Y130300*
X79950Y3050D02*
G01X82900Y6000D01*
X88100*
X90100Y4000*
X108700*
X111300Y6600*
Y22100*
X112100Y22900*
X130000*
X137200Y15700*
X140500*
X64800Y35600D02*
G01X62400Y38000D01*
Y38300*
X58554Y130300D02*
G01Y129900D01*
X59354Y129100*
X61900*
X66800Y124200*
Y67200*
X69600Y64400*
X76600*
X81888Y59112*
X86013*
X87100Y58025*
Y52891*
X59800Y122600D02*
G01Y123054D01*
X58554Y124300*
Y118300D02*
G01X59800D01*
X58554Y136300D02*
G01Y130300D01*
X98900Y34800D02*
G01X96100Y32000D01*
X88800*
X85974Y29174*
X84000*
X125759Y64141D02*
G01X99606D01*
X93000Y57535*
Y50374*
X91900Y49274*
Y43800*
X91400Y43300*
Y36500*
X93000Y34900*
X95000*
X84895Y61812D02*
G01X85954D01*
X86754Y62612*
Y65900*
X89100Y46300D02*
G01Y48737D01*
X91400Y51037*
Y58381*
X98759Y65741*
X123141*
X125500Y68100*
X109600Y24600D02*
G01X130900D01*
X137000Y18500*
X115500Y61100D02*
G01X116900Y62500D01*
X122800*
X123900Y61400*
X141900*
X144500Y58800*
X140500Y15700D02*
G01X145362D01*
X145462Y15800*
X154800Y100000D02*
G01Y124800D01*
X148400Y131200*
X136000*
X177746Y5800D02*
G01X183500D01*
X184554Y4746*
Y4200*
X160677Y41152D02*
G01X174000Y27829D01*
Y16600*
X174800Y15800*
X177746*
X190800Y28271D02*
G01Y31600D01*
X190000Y32400*
X179200*
X172000Y39600*
Y47500*
X174400Y55800D02*
G01X174450Y55850D01*
Y57450*
X175500Y58500*
X192500*
X177000Y91000D02*
G01X184900Y98900D01*
X187200*
X190854Y4200D02*
G01Y12075D01*
X190800Y12129*
X303928Y37000D02*
G01X296928Y44000D01*
X239663*
X228964Y54699*
X220300*
X219022Y55977*
X218856*
X213250Y55000D02*
G01X215151Y53099D01*
X228301*
X244400Y37000*
X257472*
G54D34*
X26500Y97000D02*
G01X28100D01*
Y97000D02*
G01X29996Y95104D01*
X33604*
X145462Y5800D02*
G01X144400D01*
X140600Y2000*
X88200*
X86900Y3300*
G54D35*
X5300Y70150D02*
G01Y64600D01*
X9900Y56870D02*
G01X6500D01*
X7500Y104500D02*
G01X17500Y94500D01*
X27600Y35600D02*
G01X32929D01*
X30500Y35650D02*
G01X36500D01*
X24500D02*
G01X30500D01*
X24500Y41950D02*
G01X27500D01*
X30500D02*
G01X33500D01*
X24500D02*
G01Y46500D01*
X13900Y25306D02*
G01Y29100D01*
X27500Y41950D02*
G01X30500D01*
X33500D02*
G01X36500D01*
X9900Y56870D02*
G01Y60270D01*
Y56870D02*
G01X13300D01*
X17300Y76450D02*
G01Y84300D01*
X17500Y84500*
X24800Y73279D02*
G01Y78230D01*
X22330D02*
G01X24800D01*
X33604Y92450D02*
G01Y95104D01*
X24800Y78230D02*
G01X24904Y78334D01*
Y81296*
X23800Y82400*
Y95779*
X31100Y115200D02*
G01Y110054D01*
X31154Y110000*
Y104000D02*
G01Y110000D01*
Y101900D02*
G01Y104000D01*
Y99300D02*
G01Y101900D01*
X34000Y115200D02*
G01X31100D01*
X35100Y96600D02*
G01X33604Y95104D01*
X23490Y96090D02*
G01X19090D01*
X17500Y94500*
X23800Y95779D02*
G01X23490Y96090D01*
X56900Y28000D02*
G01Y30900D01*
X39550Y35600D02*
G01X36550D01*
X36500Y35650*
X56900Y28000D02*
G01X60200D01*
Y28000D02*
G01X57300Y30900D01*
X56900*
X36500Y41950D02*
G01X44250D01*
X41150Y50600D02*
G01X45300D01*
X46904Y59000D02*
G01Y54004D01*
X39800Y56970D02*
G01Y61200D01*
X45600Y67000*
X46904*
Y67000D02*
G01X55504D01*
X56304Y76329D02*
G01Y67800D01*
X55504Y67000*
X46404Y85700D02*
G01Y90600D01*
Y85700D02*
G01X50804D01*
Y85700D02*
G01Y90471D01*
X46404Y77700D02*
G01X54933D01*
X56304Y76329*
X60200Y28000D02*
G01X62363Y25837D01*
X78200*
Y20550D02*
G01Y25837D01*
X121750Y32500D02*
G01X102600D01*
X97000Y26900*
X88300*
X87237Y25837*
X78200*
X80454Y71900D02*
G01Y65900D01*
Y71900D02*
G01X76000D01*
X80454D02*
G01Y74354D01*
X78804Y83524D02*
G01X80454Y81874D01*
Y74354*
Y74354D02*
G01X80700Y74600D01*
Y129446D02*
G01X80900Y129246D01*
Y113572*
X78804Y111476*
X74800Y117100D02*
G01X76804D01*
X78804Y115100*
Y113480*
Y113480D02*
G01X76804Y115480D01*
X74800*
X78804Y111476D02*
G01Y113480D01*
X74800Y113900D02*
G01X76380D01*
X78804Y111476*
X74800Y115480D02*
G01Y113900D01*
Y117100D02*
G01Y115480D01*
X78804Y111476D02*
G01Y107796D01*
X86754Y99846*
Y71900*
X80700Y129446D02*
G01X80600Y129346D01*
X80704Y129450D02*
G01X80700Y129446D01*
X65850Y129450D02*
G01X68704D01*
X80704D02*
G01X74704D01*
Y129450D02*
G01X68704D01*
X63850Y131450D02*
G01X65850Y129450D01*
X74704Y135750D02*
G01X68704D01*
X80704D02*
G01X74704D01*
X68704Y139200D02*
G01Y135750D01*
X80704D02*
G01Y139200D01*
X74704Y139300D02*
G01Y135750D01*
X85350D02*
G01X80704D01*
X63850D02*
G01X68704D01*
X63800Y135800D02*
G01X63850Y135750D01*
X153200Y28300D02*
G01X148200Y23300D01*
X135900*
X131400Y27800*
X105865*
X102965Y24900*
Y16171*
X86754Y69200D02*
G01Y65900D01*
Y71900D02*
G01Y69200D01*
X116200Y69100D02*
G01X101100D01*
X99300Y70900*
X94600*
X92900Y69200*
X86754*
X116500Y91100D02*
G01Y93900D01*
Y93900D02*
G01X116774Y93626D01*
X119603*
X120977Y95000*
X116500Y91100D02*
G01X117700Y92300D01*
X118977*
X120977Y94300*
Y94300D02*
G01Y77994D01*
X122071Y76900*
X120977Y95000D02*
G01Y94300D01*
G54D36*
X12300Y5800D02*
G01X6200D01*
X3500Y8500*
Y16906*
X5994Y19400*
X7994*
X6694Y25306D02*
G01X13900D01*
X7500Y84500D02*
G01X17500D01*
X7500Y104500D02*
G01Y114500D01*
X20906Y25306D02*
G01X13900D01*
X240800Y74700D02*
G01X226711Y88789D01*
Y109189*
G54D38*
X247304Y96300D02*
G01Y99604D01*
X251200Y103500*
X256500Y108800D02*
G01X251200Y103500D01*
X258700Y111000D02*
G01X256500Y108800D01*
X263300Y111000D02*
G01X258700D01*
X273800Y8300D02*
G01X280500D01*
X286600D02*
G01X280500D01*
X292500D02*
G01X286600D01*
X290368Y111000D02*
G01X282451D01*
X270200D02*
G01X263300D01*
X282451D02*
G01X276326D01*
Y111000D02*
G01X270200D01*
X305200Y8300D02*
G01X298500D01*
Y8300D02*
G01X292500D01*
X290368Y111000D02*
G01X293600D01*
X300150Y117550D02*
G01X305900Y123300D01*
X295450Y112850D02*
G01X300150Y117550D01*
X293600Y111000D02*
G01X295450Y112850D01*
M02*
