G04 CAM350/DFMSTREAM V12.1 (Build 1022) Date:  Thu Oct 23 21:27:17 2025 *
G04 Database: (Untitled) *
G04 Layer 1: BOTTOM.art *
%FSLAX25Y25*%
%MOIN*%
%SFA1.000B1.000*%

%MIA0B0*%
%IPPOS*%
%ADD10C,0.06200*%
%ADD11R,0.06200X0.06200*%
%ADD12C,0.03000*%
%ADD13R,0.06000X0.05000*%
%ADD14C,0.09000*%
%ADD15C,0.15748*%
%ADD16R,0.03543X0.02362*%
%ADD17C,0.11000*%
%ADD18R,0.05500X0.04000*%
%ADD19R,0.02362X0.06102*%
%ADD20R,0.07480X0.09449*%
%ADD21R,0.02165X0.05315*%
%ADD22R,0.09843X0.04724*%
%ADD23R,0.02362X0.03543*%
%ADD24R,0.01181X0.05512*%
%ADD25R,0.05512X0.09843*%
%ADD26R,0.15000X0.15000*%
%ADD27C,0.03937*%
%ADD28R,0.09449X0.07480*%
%ADD29C,0.05315*%
%ADD30R,0.13583X0.08858*%
%ADD31R,0.05905X0.08661*%
%ADD32R,0.15000X0.07900*%
%ADD33C,0.07700*%
%ADD34R,0.07700X0.07700*%
%ADD35R,0.03000X0.03000*%
%ADD36C,0.00800*%
%ADD37C,0.01000*%
%ADD38C,0.02000*%
%ADD39C,0.04000*%
%ADD40C,0.06000*%
%ADD41C,0.08000*%
%LNBOTTOM.art*%
%LPD*%
G36*
X36186Y217483D02*
G75*
G03X37317Y218614I-793J1924D01*
G01X37600Y217200*
X36469*
X36186Y217483*
G37*
G36*
X207479Y186121D02*
G01X209050Y186050D01*
G03X208940Y185500I1321J-550*
X209050Y184950I1430J0*
G02X208650Y184550I-400J0*
G03X207550I-550J-1320*
G01X207479Y186121*
G37*
G36*
X44529Y210971D02*
G01X46100Y210900D01*
G03X45990Y210350I1321J-550*
X46100Y209800I1430J0*
G02X45700Y209400I-400J0*
G03X44600I-550J-1320*
G01X44529Y210971*
G37*
G36*
X4829Y235071D02*
G01X6400Y235000D01*
G03X6290Y234450I1321J-550*
X6400Y233900I1430J0*
G02X6000Y233500I-400J0*
G03X4900I-550J-1320*
G01X4829Y235071*
G37*
G36*
X38000Y198100D02*
G03X38110Y198650I-1321J550D01*
X38000Y199200I-1432J0*
G02X38400Y199600I400J0*
G03X39500I550J1321*
G01X39571Y198029*
X38000Y198100*
G37*
G36*
X60278Y238683D02*
G01X60868Y241539D01*
X61459Y238683*
G03X60991Y238112I581J-954*
G02X60746I-122J382*
G03X60278Y238683I-1049J-382*
G37*
G36*
X56341D02*
G01X56932Y241539D01*
X57522Y238683*
G03X57054Y238112I581J-954*
G02X56809I-122J382*
G03X56341Y238683I-1049J-382*
G37*
G36*
Y261517D02*
G03X56809Y262089I-582J953D01*
G02X57054I123J-382*
G03X57522Y261517I1050J381*
G01X56932Y258661*
X56341Y261517*
G37*
G36*
X58309D02*
G03X58777Y262089I-582J953D01*
G02X59023I123J-381*
G03X59491Y261517I1050J381*
G01X58900Y258661*
X58309Y261517*
G37*
G36*
X60278Y256005D02*
G01X60868Y258886D01*
X61459Y256005*
G03X60944Y255421I658J-1099*
G02X60793I-75J495*
G03X60278Y256005I-1172J-515*
G37*
G36*
X162939Y160839D02*
G01X164000Y162000D01*
X165061Y160839*
G03X164283Y160062I544J-1323*
G02X163717I-283J283*
G03X162939Y160839I-1322J-545*
G37*
G36*
X144589Y157411D02*
G03X145367Y158188I-544J1322D01*
G02X145933I283J-283*
G03X146711Y157411I1322J546*
G01X145650Y156250*
X144589Y157411*
G37*
G36*
X83845Y176200D02*
G02X83962Y176483I400J0D01*
G03X84739Y177261I-546J1322*
G01X85900Y176200*
X84739Y175139*
G03X83962Y175917I-1323J-544*
G02X83845Y176200I283J283*
G37*
G36*
X67145Y279600D02*
G02X67262Y279883I400J0D01*
G03X68039Y280661I-546J1322*
G01X69200Y279600*
X68039Y278539*
G03X67262Y279317I-1323J-544*
G02X67145Y279600I283J283*
G37*
G36*
X6100Y228700D02*
G01X7261Y229761D01*
G03X8038Y228983I1322J544*
G02X8155Y228700I-284J-283*
X8038Y228417I-401J0*
G03X7261Y227639I545J-1322*
G01X6100Y228700*
G37*
G36*
X204750Y182709D02*
G01X205911Y183761D01*
G03X206838Y182833I1577J649*
G02X206956Y182550I-282J-284*
X206780Y182219I-400J0*
G03X205852Y181591I290J-1428*
G01X204750Y182709*
G37*
G36*
X64000Y244800D02*
G02X64200Y245146I400J0D01*
G03X65100Y245666I-175J1341*
G02X66366Y245443I500J-866*
X66600Y244800I-766J-643*
X66366Y244157I-1000J0*
X65100Y243934I-766J643*
G03X64200Y244454I-1074J-821*
G02X64000Y244800I200J346*
G37*
G36*
X37999Y219500D02*
G02X38053Y219700I401J-1D01*
G03X39169Y220835I-849J1951*
G01X40450Y219500*
X39169Y218165*
G03X38053Y219300I-1965J-816*
G02X37999Y219500I347J201*
G37*
G36*
X144469Y162129D02*
G01X145650Y164000D01*
X146831Y162129*
G03X145871Y161014I911J-1755*
G02X145429I-221J334*
G03X144469Y162129I-1870J-639*
G37*
G36*
X78648Y268850D02*
G02X78714Y269071I401J1D01*
G03X79829Y270031I-639J1870*
G01X81700Y268850*
X79829Y267669*
G03X78714Y268629I-1755J-910*
G02X78648Y268850I335J220*
G37*
G36*
X72648Y275150D02*
G02X72714Y275371I401J1D01*
G03X73829Y276331I-639J1870*
G01X75700Y275150*
X73829Y273969*
G03X72714Y274929I-1755J-910*
G02X72648Y275150I335J220*
G37*
G36*
X75500Y268850D02*
G01X77371Y270031D01*
G03X78486Y269071I1754J910*
G02X78552Y268850I-335J-220*
X78486Y268629I-401J-1*
G03X77371Y267669I639J-1869*
G01X75500Y268850*
G37*
G36*
X69500Y275150D02*
G01X71371Y276331D01*
G03X72486Y275371I1754J910*
G02X72552Y275150I-335J-220*
X72486Y274929I-401J-1*
G03X71371Y273969I639J-1869*
G01X69500Y275150*
G37*
G36*
X42948Y239250D02*
G02X42959Y239401I1000J3D01*
G03X44129Y240431I-1025J2344*
G01X46150Y239250*
X44129Y238069*
G03X42959Y239099I-2196J-1315*
G02X42948Y239250I989J148*
G37*
G36*
X66648Y268850D02*
G02X66659Y269001I1000J3D01*
G03X67829Y270031I-1025J2344*
G01X69850Y268850*
X67829Y267669*
G03X66659Y268699I-2196J-1315*
G02X66648Y268850I989J148*
G37*
G36*
X39650Y239250D02*
G01X41671Y240431D01*
G03X42841Y239401I2195J1314*
G02X42852Y239250I-990J-148*
X42841Y239099I-1001J-3*
G03X41671Y238069I1025J-2344*
G01X39650Y239250*
G37*
G36*
X32750Y212150D02*
G01X34771Y213331D01*
G03X35941Y212301I2195J1314*
G02X35952Y212150I-990J-148*
X35941Y211999I-1001J-3*
G03X34771Y210969I1025J-2344*
G01X32750Y212150*
G37*
G36*
X28198Y308300D02*
G02X28301Y308568I400J0D01*
G03X28737Y308699I-338J1915*
G01X29461Y309361*
X29494Y309287*
G03X29495I1J1*
G01X29529Y309331*
X31400Y308145*
X29529Y306969*
G03X28270Y308071I-1991J-1004*
G02X28198Y308300I328J229*
G37*
G36*
X137800Y227100D02*
G01Y229600D01*
X138861Y230661*
G03X140111Y229411I2125J875*
G01X137800Y227100*
G37*
G36*
X48500Y308200D02*
G01X49661Y309261D01*
X49837Y308951*
G03X49838I1J1*
X50129Y309331I-1401J1374*
G01X52000Y308148*
X50129Y306969*
G03X49816Y307419I-1833J-941*
G01X49815*
G03X49661Y307139I1168J-825*
G01X48500Y308200*
G37*
G36*
X52817Y183521D02*
G03X53687Y184542I-848J1604D01*
G02X54113I213J-338*
G03X54983Y183521I1718J583*
G01X53900Y180764*
X52817Y183521*
G37*
G36*
X72817Y198679D02*
G01X73900Y201436D01*
X74983Y198679*
G03X74113Y197658I848J-1604*
G02X73687I-213J338*
G03X72817Y198679I-1718J-583*
G37*
G36*
X67817D02*
G01X68900Y201436D01*
X69983Y198679*
G03X69113Y197658I848J-1604*
G02X68687I-213J338*
G03X67817Y198679I-1718J-583*
G37*
G36*
X52817Y203994D02*
G03X53687Y205015I-848J1604D01*
G02X54113I213J-338*
G03X54983Y203994I1718J583*
G01X53900Y201236*
X52817Y203994*
G37*
G36*
X62817Y198679D02*
G01X62958Y199039D01*
Y199040*
X62939Y199061*
X62972Y199075*
X63897Y201436*
X64768Y199224*
X64769*
G03X65061Y199061I838J1159*
G01X64902Y198887*
X64901Y198886*
X64983Y198679*
G03X64227Y197671I897J-1460*
G02X63801Y197653I-227J329*
G03X62817Y198679I-1775J-717*
G37*
G36*
X47817D02*
G01X48897Y201436D01*
X49925Y198826*
X49926Y198825*
G03X50061Y198761I679J1258*
G01X49434Y198075*
G03X49249Y197583I1561J-868*
G02X48779Y197562I-249J313*
G03X47817Y198679I-1874J-641*
G37*
G36*
X46550Y219500D02*
G01X47831Y221135D01*
G03X49235Y219719I2437J1012*
G02X49300Y219500I-336J-219*
X49235Y219281I-401J0*
G03X47831Y217865I1032J-2428*
G01X46550Y219500*
G37*
G36*
X25500Y321800D02*
G01X28600Y322966D01*
G03X29556Y321983I1711J708*
G01X29600Y321800*
X29556Y321617*
G03X28600Y320634I755J-1691*
G01X25500Y321800*
G37*
G36*
X231350Y143600D02*
G03X232534Y145049I-1464J2405D01*
G02X233166I316J-949*
G03X234350Y143600I2649J956*
G01X232850Y141850*
X231350Y143600*
G37*
G36*
X190950D02*
G03X192134Y145049I-1464J2405D01*
G02X192766I316J-949*
G03X193950Y143600I2649J956*
G01X192450Y141850*
X190950Y143600*
G37*
G36*
X158930Y140600D02*
G01X160430Y142350D01*
X161930Y140600*
G03X160746Y139151I1465J-2405*
G02X160114I-316J949*
G03X158930Y140600I-2649J-956*
G37*
G36*
X151450Y143600D02*
G03X152634Y145049I-1464J2405D01*
G02X153266I316J-949*
G03X154450Y143600I2649J956*
G01X152950Y141850*
X151450Y143600*
G37*
G36*
X8829Y82429D02*
G01X8900Y85600D01*
G03X11600I1350J3240*
G02X12000Y85200I0J-400*
G03X11730Y83850I3240J-1350*
X12000Y82500I3511J0*
G01X8829Y82429*
G37*
G36*
X251700Y211600D02*
G03X251970Y212950I-3242J1350D01*
X251700Y214300I-3511J0*
G01X254871Y214371*
X254800Y211200*
G03X252100I-1350J-3241*
G02X251700Y211600I0J400*
G37*
G36*
Y201600D02*
G03X251970Y202950I-3242J1350D01*
X251700Y204300I-3511J0*
G01X254871Y204371*
X254800Y201200*
G03X252100I-1350J-3241*
G02X251700Y201600I0J400*
G37*
G36*
X8850Y142586D02*
G01X11400Y141900D01*
G03X11100Y140400I3600J-1500*
X11400Y138900I3899J0*
G02X10806Y138550I-400J0*
G03X8877Y139622I-2250J-1778*
G01X8850Y142586*
G37*
G36*
X26919Y245381D02*
G03X27949Y246550I-1314J2196D01*
G01X28251*
G03X29281Y245381I2344J1027*
G01X28100Y242080*
X26919Y245381*
G37*
G36*
X21919D02*
G03X22949Y246550I-1314J2196D01*
G01X23251*
G03X24281Y245381I2344J1027*
G01X23100Y242080*
X21919Y245381*
G37*
G36*
X31919Y239279D02*
G01X33100Y242580D01*
X34281Y239279*
G03X33251Y238110I1314J-2196*
G01X32949*
G03X31919Y239279I-2344J-1027*
G37*
G36*
X152029Y154031D02*
G03X153555Y155716I-1292J2704D01*
G02X153800Y155800I245J-316*
X154045Y155716I0J-400*
G03X155571Y154031I2818J1019*
G01X153800Y152750*
X152029Y154031*
G37*
G36*
X231929D02*
G03X233455Y155718I-1294J2704D01*
G02X233700Y155802I245J-316*
X233945Y155718I0J-400*
G03X235471Y154031I2820J1017*
G01X233700Y152750*
X231929Y154031*
G37*
G36*
X191529D02*
G03X193055Y155718I-1294J2704D01*
G02X193300Y155802I245J-316*
X193545Y155718I0J-400*
G03X195071Y154031I2820J1017*
G01X193300Y152750*
X191529Y154031*
G37*
G36*
X83129Y187731D02*
G03X84655Y189418I-1294J2704D01*
G02X84900Y189502I245J-316*
X85145Y189418I0J-400*
G03X86671Y187731I2820J1017*
G01X84900Y186450*
X83129Y187731*
G37*
G36*
X55829Y276331D02*
G03X57355Y278018I-1294J2704D01*
G02X57600Y278102I245J-316*
X57845Y278018I0J-400*
G03X59371Y276331I2820J1017*
G01X57600Y275050*
X55829Y276331*
G37*
G36*
X237929Y145369D02*
G01X239700Y146800D01*
X241471Y145369*
G03X240099Y143681I1596J-2698*
G02X239301I-399J917*
G03X237929Y145369I-2967J-1010*
G37*
G36*
X197529D02*
G01X199300Y146800D01*
X201071Y145369*
G03X199699Y143681I1596J-2698*
G02X198901I-399J917*
G03X197529Y145369I-2967J-1010*
G37*
G36*
X158029D02*
G01X159800Y146800D01*
X161571Y145369*
G03X160199Y143681I1596J-2698*
G02X159401I-399J917*
G03X158029Y145369I-2967J-1010*
G37*
G36*
X67729Y254231D02*
G03X69101Y255919I-1595J2698D01*
G02X69899I399J-917*
G03X71271Y254231I2968J1010*
G01X69500Y252800*
X67729Y254231*
G37*
G36*
X109598Y258700D02*
G02X109681Y259099I1000J0D01*
G03X111369Y260471I-1010J2967*
G01X112800Y258700*
X111369Y256929*
G03X109681Y258301I-2698J-1595*
G02X109598Y258700I917J399*
G37*
G36*
X67817Y183521D02*
G03X68593Y184316I-848J1604D01*
G01Y184317*
G03X67839Y185039I-1298J-601*
G01X68900Y186200*
X69961Y185039*
G03X69207Y184317I544J-1323*
G01Y184316*
G03X69983Y183521I1624J809*
G01X68900Y180764*
X67817Y183521*
G37*
G36*
X72817D02*
G03X73616Y184364I-848J1604D01*
G01Y184365*
G03X72839Y185139I-1320J-549*
G01X73900Y186300*
X74961Y185139*
G03X74184Y184365I544J-1323*
G01Y184364*
G03X74983Y183521I1647J761*
G01X73900Y180764*
X72817Y183521*
G37*
G36*
X62700Y235900D02*
G02X62900Y236246I400J0D01*
G03X64550Y237199I-319J2457*
G02X66449Y236864I750J-1299*
X66800Y235900I-1149J-964*
X66449Y234936I-1500J0*
X64550Y234601I-1149J964*
G03X62900Y235554I-1969J-1505*
G02X62700Y235900I200J346*
G37*
G36*
X55829Y267669D02*
G01X57620Y268948D01*
X59371Y267669*
G03X57188Y265322I1748J-3814*
G02X56580Y265439I-256J307*
G01X56586Y265639*
G03X55829Y267669I-3098J1*
G37*
G36*
X89369Y199729D02*
G01X90404Y201500D01*
X89369Y203271*
G03X90399Y204441I-1315J2196*
G01X90701*
G03X91731Y203271I2345J1026*
G01X90696Y201500*
X91731Y199729*
G03X90701Y198559I1315J-2196*
G01X90399*
G03X89369Y199729I-2344J-1025*
G37*
G36*
X44048Y224850D02*
G02X44059Y225001I1000J3D01*
G03X45229Y226031I-1025J2344*
G01X47000Y224996*
X48771Y226031*
G03X49941Y225001I2195J1314*
G02X49952Y224850I-990J-148*
X49941Y224699I-1001J-3*
G03X48771Y223669I1025J-2344*
G01X47000Y224704*
X45229Y223669*
G03X44059Y224699I-2196J-1315*
G02X44048Y224850I989J148*
G37*
G36*
X36948Y245550D02*
G02X36959Y245701I1000J3D01*
G03X38129Y246731I-1025J2344*
G01X39900Y245696*
X41671Y246731*
G03X42841Y245701I2195J1314*
G02X42852Y245550I-990J-148*
X42841Y245399I-1001J-3*
G03X41671Y244369I1025J-2344*
G01X39900Y245404*
X38129Y244369*
G03X36959Y245399I-2196J-1315*
G02X36948Y245550I989J148*
G37*
G36*
X38048Y224850D02*
G02X38059Y225001I1000J3D01*
G03X39229Y226031I-1025J2344*
G01X41000Y224996*
X42771Y226031*
G03X43941Y225001I2195J1314*
G02X43952Y224850I-990J-148*
X43941Y224699I-1001J-3*
G03X42771Y223669I1025J-2344*
G01X41000Y224704*
X39229Y223669*
G03X38059Y224699I-2196J-1315*
G02X38048Y224850I989J148*
G37*
G36*
X30048Y205850D02*
G02X30114Y206071I401J1D01*
G03X31229Y207031I-639J1870*
G01X33000Y205913*
X34771Y207031*
G03X35886Y206071I1754J910*
G02X35952Y205850I-335J-220*
X35886Y205629I-401J-1*
G03X34771Y204669I639J-1869*
G01X33000Y205787*
X31229Y204669*
G03X30114Y205629I-1755J-910*
G02X30048Y205850I335J220*
G37*
G36*
X21600Y213200D02*
G01Y213600D01*
G03X24100I1250J3000*
G01X24174Y212366*
G03X24175Y212365I1J0*
X24422Y212485I-775J1910*
G01X25084Y213091*
G03X25229Y213331I-1689J1185*
G01X27100Y212152*
X25229Y210969*
X25172Y211061*
G03X25170I-1*
G01X25161Y211039*
X24391Y211742*
G03X24075Y211863I-857J-1765*
G02X23999Y212064I323J237*
G03X23998Y212065I-1J0*
G01X22700Y212100*
X21600Y213200*
G37*
G36*
X29529Y315631D02*
G03X29884Y317145I-3054J1515D01*
X29710Y318220I-3410J0*
G02X30358Y318437I390J-89*
G03X33071Y315631I4743J1871*
G01X31331Y314355*
X29529Y315631*
G37*
G36*
X83069Y193729D02*
G01X84135Y195445D01*
Y195446*
X83069Y197271*
G03X84099Y198441I-1315J2196*
G01X84401*
G03X85431Y197271I2345J1026*
G01X84347Y195416*
X85431Y193729*
G03X85190Y192751I1869J-979*
X85275Y192159I2112J1*
G02X84654Y191983I-375J139*
G03X83069Y193729I-2918J-1057*
G37*
G36*
X8677Y135506D02*
G03X11262Y137421I-1006J4060D01*
G02X11900Y137100I238J-322*
G03X11450Y134850I5399J-2250*
X11900Y132600I5850J0*
G01X8851Y132413*
X8677Y135506*
G37*
G36*
X14300Y66531D02*
G02X15014Y68063I2000J0D01*
X17586I1286J-1532*
X18300Y66531I-1286J-1532*
X18032Y65531I-2001J0*
G03X17599Y64781I685J-895*
G02X15001I-1299J750*
G03X14568Y65531I-1118J-145*
G02X14300Y66531I1732J1000*
G37*
G36*
X9614Y62500D02*
G02X10082Y63786I2000J0D01*
X12614Y64232I1532J-1286*
G03X13364Y63799I895J685*
G02X14114Y62500I-750J-1299*
X13364Y61201I-1500J0*
G03X12614Y60768I145J-1118*
G02X10082Y61214I-1000J1732*
X9614Y62500I1532J1286*
G37*
G36*
X250582Y194300D02*
G02X250699Y194583I400J0D01*
G03X252608Y196492I-1338J3247*
G01X254900Y194300*
X252608Y192108*
G03X250699Y194017I-3247J-1338*
G02X250582Y194300I283J283*
G37*
G36*
X19400Y199500D02*
G01X22250Y201500D01*
G03X24162Y199750I3081J1447*
G02X24250Y199500I-312J-250*
X24162Y199250I-400J0*
G03X22250Y197500I1169J-3197*
G01X19400Y199500*
G37*
G36*
X42948Y245550D02*
G02X42959Y245701I1000J3D01*
G03X44129Y246731I-1025J2344*
X45501Y248419I-1596J2699*
G02X46299I399J-917*
G03X47671Y246731I2968J1010*
G01X45900Y245300*
X45826Y245360*
X45825*
X44129Y244369*
G03X42959Y245399I-2196J-1315*
G02X42948Y245550I989J148*
G37*
G36*
X25229Y204669D02*
G01X27000Y205950D01*
X27027Y205931*
G03X27028I1J1*
G01X28771Y207031*
G03X29886Y206071I1754J910*
G02X29952Y205850I-335J-220*
X29886Y205629I-401J-1*
G03X28771Y204669I639J-1870*
X27245Y202982I1294J-2704*
G02X27000Y202898I-245J316*
X26755Y202982I0J400*
G03X25229Y204669I-2820J-1017*
G37*
G36*
X61829Y267669D02*
G01X63600Y269100D01*
X63674Y269040*
X63675*
X65371Y270031*
G03X66541Y269001I2195J1314*
G02X66552Y268850I-991J-148*
X66541Y268699I-1002J-3*
G03X65371Y267669I1026J-2345*
X63999Y265981I1595J-2698*
G02X63201I-399J917*
G03X61829Y267669I-2967J-1010*
G37*
G36*
X46634Y319300D02*
G01X47663Y321893D01*
X50474Y319645*
G03X49954Y317700I3378J-1945*
X50086Y316695I3899J1*
G02X49447Y316490I-386J105*
G03X46634Y319300I-4796J-1988*
G37*
G36*
X246772Y147265D02*
G01X249494Y150362D01*
X252216Y147265*
G03X250555Y145603I1165J-2825*
G02X248433I-1061J1061*
G03X246772Y147265I-2825J-1162*
G37*
G36*
X165261D02*
G01X167983Y150362D01*
X170705Y147265*
G03X169044Y145603I1165J-2825*
G02X166922I-1061J1061*
G03X165261Y147265I-2825J-1162*
G37*
G36*
X206016D02*
G01X208739Y150362D01*
X211461Y147265*
G03X209799Y145603I1164J-2826*
G02X207678I-1060J1062*
G03X206016Y147265I-2825J-1163*
G37*
G36*
X173550Y194000D02*
G01X176522Y196722D01*
G03X178538Y194707I3426J1412*
G02X178831Y194000I-708J-707*
X178538Y193293I-1000J0*
G03X176522Y191278I1410J-3427*
G01X173550Y194000*
G37*
G36*
X248800Y185300D02*
G02X248989Y185640I400J0D01*
G03X251896Y186979I-167J4187*
G01X254898Y184282*
X251700Y182234*
G03X248890Y185047I-4799J-1984*
G02X248800Y185300I310J253*
G37*
G36*
X114041Y167440D02*
G03X116854Y170250I-1983J4798D01*
G02X117467Y170114I253J-310*
G01X117457Y169824*
G03X118438Y167185I4040J0*
G01X114896Y163606*
X114041Y167440*
G37*
G36*
X16981Y215810D02*
G03X17676Y217327I-3183J2376D01*
G01X17675Y217328*
G03X16919Y218019I-1665J-1063*
G01X18100Y221170*
X19281Y218019*
G03X18970Y217819I909J-1755*
G01Y217818*
G03X21166Y216100I4180J3080*
G01X19530Y214005*
X16981Y215810*
G37*
G36*
X78800Y180864D02*
G01X79983Y183521D01*
G03X82390Y181185I4177J1896*
X83129Y181431I-278J2067*
G01X84998Y180231*
X83129Y179069*
G03X81980Y180347I-2743J-1311*
G01X81979*
G03X79983Y178206I2182J-4035*
G01X78800Y180864*
G37*
G36*
X141348Y120560D02*
G01X144029Y124675D01*
X146710Y120560*
G03X144336Y118532I1588J-4263*
G02X143722I-307J1469*
G03X141348Y120560I-3962J-2234*
G37*
G36*
X4208Y9292D02*
G03X5693Y10777I-1039J2524D01*
G02X7107I707J-707*
G03X8592Y9292I2525J1040*
X10077Y7807I2524J1039*
G02X10370Y7100I-708J-707*
X10077Y6393I-1000J0*
G03X8592Y4908I1039J-2524*
G01X6413Y6864*
X6412*
X6400Y6850*
X6282Y6982*
X6281*
X6150Y7100*
X6164Y7112*
Y7113*
X4208Y9292*
G37*
G36*
X57817Y178206D02*
G01X58832Y180791D01*
Y180792*
X58800Y180864*
X59983Y183521*
G03X61400Y181753I4177J1896*
X62817Y183521I-2761J3665*
G01X64000Y180864*
X62817Y178206*
G03X61400Y179975I-4179J-1895*
X59983Y178206I2762J-3664*
X59113Y177185I848J-1604*
G02X58687I-213J338*
G03X57817Y178206I-1718J-583*
G37*
G36*
X78650Y201322D02*
G01X79983Y203994D01*
G03X82102Y202254I3716J2365*
X82103I1J1*
X83069Y203271I-1732J2613*
X84116Y204485I-1341J2215*
G02X84500Y204482I184J-984*
G03X85431Y203271I2388J873*
G01X84437Y201579*
Y201578*
X84500Y201500*
X84440Y201426*
Y201425*
X85431Y199729*
G03X84401Y198559I1315J-2196*
G01X84099*
G03X83069Y199729I-2345J-1026*
X82113Y200740I-2699J-1595*
G01X82112*
G03X79983Y198679I2055J-4253*
G01X78650Y201322*
G37*
G36*
X4930Y72500D02*
G02X5223Y73207I1000J0D01*
G03X6708Y74692I-1040J2525*
G01X8637Y72961*
G03X8638I1J1*
G01X8900Y75600*
G03X11700I1400J3360*
G02X13200Y74100I0J-1500*
X12900Y73200I-1501J0*
G03X11700Y71600I1321J-2241*
G01X8868Y72247*
X6708Y70308*
G03X5223Y71793I-2525J-1040*
G02X4930Y72500I707J707*
G37*
G36*
X23000Y221070D02*
G01X24281Y224121D01*
G03X25599Y222261I4779J1989*
G01X25600*
G03X26919Y224121I-3460J3851*
G01X28200Y221070*
X28167Y220992*
Y220991*
X29281Y218019*
G03X28321Y216905I910J-1755*
G02X27879I-221J334*
G03X26919Y218019I-1869J-640*
X25601Y219880I-4780J-1988*
X25599I-1*
X24281Y218019I3462J-3849*
G01X23000Y221070*
G37*
G36*
X80105Y112392D02*
G03X82533Y115373I-2975J4903D01*
G02X84026Y115309I667J-1886*
G03X85616Y112392I5179J931*
G01X82832Y106972*
X80105Y112392*
G37*
G36*
X4208Y26108D02*
G01X6164Y28287D01*
Y28288*
X6150Y28300*
X6164Y28312*
Y28313*
X4208Y30492*
G03X5693Y31977I-1039J2524*
G02X7107I707J-707*
G03X8592Y30492I2525J1040*
X10077Y29007I2524J1039*
G02X10370Y28300I-708J-707*
X10077Y27593I-1000J0*
G03X8592Y26108I1039J-2524*
X7107Y24623I1040J-2525*
G02X5693I-707J707*
G03X4208Y26108I-2524J-1039*
G37*
G36*
Y15508D02*
G01X6164Y17687D01*
Y17688*
X6150Y17700*
X6164Y17712*
Y17713*
X4208Y19892*
G03X5693Y21377I-1039J2524*
G02X7107I707J-707*
G03X8592Y19892I2525J1040*
X10077Y18407I2524J1039*
G02X10370Y17700I-708J-707*
X10077Y16993I-1000J0*
G03X8592Y15508I1039J-2524*
X7107Y14023I1040J-2525*
G02X5693I-707J707*
G03X4208Y15508I-2524J-1039*
G37*
G36*
X130971Y163697D02*
G01X135761Y166682D01*
G03X137462Y164730I4447J2158*
G01X137463*
G03X138169Y165671I-1998J2235*
G01X139450Y163900*
X138169Y162129*
G03X137510Y163027I-2705J-1294*
G01X137509*
G03X135795Y160834I3084J-4177*
G01X130971Y163697*
G37*
G36*
X235090Y131580D02*
G01X236590Y133330D01*
X238090Y131580*
G03X237347Y130923I1465J-2405*
G01Y130922*
G03X240504Y128040I5573J2934*
G01X240193Y124082*
X235473Y127074*
G03X235926Y129167I-4612J2094*
X235639Y130847I-5066J-1*
G02X235729Y131047I952J-308*
G03X235090Y131580I-2103J-1872*
G37*
G36*
X194690D02*
G01X196190Y133330D01*
X197690Y131580*
G03X196948Y130924I1465J-2405*
G01Y130923*
G03X200104Y128040I5574J2933*
G01X199793Y124082*
X195072Y127074*
G03X195525Y129167I-4612J2094*
X195238Y130847I-5066J-1*
G02X195328Y131047I953J-308*
G01Y131048*
G03X194690Y131580I-2103J-1873*
G37*
G36*
X155190D02*
G01X156690Y133330D01*
X158190Y131580*
G03X157448Y130924I1465J-2405*
G01Y130923*
G03X160604Y128040I5574J2933*
G01X160293Y124082*
X155572Y127074*
G03X156025Y129167I-4612J2094*
X155738Y130847I-5066J-1*
G02X155828Y131047I953J-308*
G01Y131048*
G03X155190Y131580I-2103J-1873*
G37*
G36*
X72260Y257900D02*
G02X72518Y258570I1000J0D01*
G03X76032Y260969I-1205J5538*
G01X79748Y257142*
X75760Y253986*
G03X72417Y257362I-5816J-2416*
G02X72260Y257900I843J538*
G37*
G36*
X215644Y146137D02*
G01X219494Y150362D01*
X223344Y146137*
G03X220276Y142507I3057J-5696*
G02X218713I-781J1280*
G03X215644Y146137I-6126J-2067*
G37*
G36*
X134133D02*
G01X137983Y150362D01*
X141833Y146137*
G03X138765Y142507I3057J-5696*
G02X137202I-781J1280*
G03X134133Y146137I-6126J-2067*
G37*
G36*
X174889Y153837D02*
G03X177957Y157468I-3058J5695D01*
G02X179520I782J-1281*
G03X182589Y153837I6126J2065*
G01X178739Y149612*
X174889Y153837*
G37*
G36*
X69341Y232662D02*
G03X71549Y234392I-1354J4002D01*
G02X71851I151J-1493*
G03X74059Y232662I3562J2272*
G01X72461Y230808*
X72462Y230807*
X76621Y232662*
G03X78892Y230814I3717J2249*
G02X78983Y230300I-1410J-515*
X78892Y229786I-1501J1*
G03X76621Y227938I1446J-4097*
G01X71830Y230075*
X71829*
X71700Y229925*
X71409Y230262*
Y230263*
X71325Y230300*
X71361Y230316*
X71362Y230317*
X69341Y232662*
G37*
G36*
X12600Y259900D02*
G01X15327Y262399D01*
Y262400*
Y262401*
X12600Y264900*
G03X15045Y267732I-2304J4461*
G02X16155I555J-832*
G03X18600Y264900I4750J1629*
G01X15873Y262401*
Y262400*
Y262399*
X18600Y259900*
G03X16155Y257068I2305J-4461*
G02X15045I-555J832*
G03X12600Y259900I-4750J-1629*
G37*
G36*
X215465Y124300D02*
G02X215678Y125071I1500J0D01*
G03X219205Y128040I-2005J5961*
G01X224304Y124300*
X219205Y120560*
G03X215678Y123529I-5532J-2992*
G02X215465Y124300I1287J771*
G37*
G36*
X4600Y259900D02*
G01X7329Y262397D01*
Y262398*
X4600Y264900*
G03X7045Y267732I-2304J4461*
G02X8155I555J-832*
G03X10600Y264900I4750J1629*
G01X7876Y262403*
X7875Y262402*
X7876Y262401*
X10600Y259900*
G03X8061Y256972I2368J-4618*
G02X6914Y256990I-561J828*
G03X4600Y259900I-4782J-1427*
G37*
G36*
X57939Y216914D02*
G01X63236Y219276D01*
G03X65007Y217640I3718J2248*
G01X65008*
G03X66779Y219276I-1947J3884*
G01X72075Y216914*
X66779Y214552*
G03X65008Y216188I-3718J-2248*
G01X65007*
G03X63236Y214552I1947J-3884*
G01X57939Y216914*
G37*
G36*
X102446Y107392D02*
G01X105695Y112392D01*
G03X109901Y109356I6051J3952*
G02X110196Y108311I-1706J-1046*
X110006Y107461I-2001J1*
G03X105695Y102982I3521J-7703*
G01X102446Y107392*
G37*
G36*
X177300Y135562D02*
G01Y142937D01*
G02X177500Y143137I200J0*
G01X182589*
G03X183667Y143338I-2J3000*
G01X183713Y143355*
X183811Y143344*
X184124Y143129*
G02X184210Y142965I-114J-164*
G01Y142964*
Y135997*
G02X184152Y135856I-200J0*
G01X180679Y132383*
G02X180396I-141J140*
G01X177359Y135420*
G02X177300Y135562I140J142*
G37*
G36*
X57400Y311600D02*
G03X57750Y313350I-4201J1750D01*
X57400Y315100I-4552J0*
G02X58400Y316100I1000J0*
G03X61900I1750J4201*
G01X62052Y312073*
G03X62054I1*
G01X65082Y314782*
G03X67203Y312661I3605J1484*
G02X67642Y311600I-1062J-1061*
X67203Y310539I-1501J0*
G03X65082Y308418I1484J-3605*
X62961Y306297I1485J-3606*
G02X60839I-1061J1061*
G03X58718Y308418I-3605J-1484*
G01X61427Y311446*
Y311447*
X61426Y311448*
X57400Y311600*
G37*
G36*
X173550Y164000D02*
G01X177650Y167850D01*
G03X180453Y164798I5729J2448*
G01X180454*
G03X183260Y167914I-3010J5532*
G01X187226Y167035*
X184134Y162590*
G03X180374Y163077I-2486J-4435*
G01X180295Y163114*
X180294*
G03X177650Y160150I3084J-5412*
G01X173550Y164000*
G37*
G36*
X32951Y324933D02*
G01X32976Y324985D01*
G02X33157Y325100I181J-85*
G01X42638*
G02X42792Y325027I-1J-200*
G01X43017Y324755*
X43040Y324668*
X43031Y324624*
G03X43000Y324301I1669J-323*
G01Y324300*
Y319300*
G03X43022Y319028I1700J1*
G01X43029Y318982*
X43002Y318893*
X42721Y318594*
X42634Y318562*
X42588Y318566*
G03X38692Y317822I-689J-6966*
G01X38671Y317811*
X38625Y317800*
X37177*
G03X37036Y317741I1J-200*
G01X35716Y316421*
G03X35662Y316323I141J-141*
G01X35656Y316296*
X35660Y316239*
X35669Y316212*
G02X35772Y315632I-1597J-583*
G01Y315009*
X35759Y314961*
X35747Y314939*
X35535Y314514*
X35506Y314450*
X35380Y314387*
X34929Y314486*
G02X34772Y314681I43J195*
G01Y315631*
G03X33742Y317193I-1701J-1*
G01X33741Y317194*
X33607Y317256*
G02X33495Y317436I88J180*
X33508Y317506I200J-1*
G01X33624Y317809*
G03X33637Y317880I-187J71*
X33631Y317928I-200J-1*
G01X33624Y317958*
X33592Y318010*
X33570Y318030*
G02X33000Y319300I1130J1270*
G01Y324300*
Y324301*
G02X33031Y324624I1700J0*
G01X33040Y324668*
X33028Y324711*
G03X32989Y324789I-194J-48*
G01X32965Y324818*
X32951Y324933*
G37*
G36*
X236100Y174226D02*
G01Y177923D01*
G02X236159Y178064I200J-1*
G01X240936Y182841*
G02X241077Y182900I142J-140*
G01X247512*
G02X247621Y182868I0J-200*
G01X247665Y182840*
G03X247710Y182818I110J168*
G02X248628Y182316I-808J-2567*
X248700Y182163I-128J-153*
G01Y181200*
G03X249980Y178742I3000J0*
G01X250034Y178704*
X250076Y178580*
X249941Y178154*
G02X249751Y178014I-191J60*
G01X240393*
G03X240252Y177956I0J-200*
G01X236442Y174146*
G02X236224Y174102I-142J140*
G01X236168Y174125*
X236100Y174226*
G37*
G36*
X175200Y124300D02*
G02X175393Y125036I1500J0D01*
G03X178805Y128040I-2114J5841*
G01X183476Y124614*
X183477*
X183533Y124675*
X183806Y124372*
X183904Y124300*
X183885Y124286*
G03X183884Y124285I0J-1*
G01X183885*
X187239Y120560*
G03X184078Y117546I2271J-5547*
G02X182862Y117554I-599J1375*
G03X179769Y120593I-5434J-2437*
G01X181684Y122670*
G03X181683Y122671I-1J0*
G01X178805Y120560*
G03X175393Y123564I-5526J-2837*
G02X175200Y124300I1307J736*
G37*
G36*
X92960Y166405D02*
G01X96279Y171040D01*
Y171041*
X96200Y171129*
X100440Y175854*
G03X104614Y172032I6990J3443*
G02X104829Y171129I-1786J-902*
X104614Y170227I-2000J0*
G03X100440Y166405I2816J-7266*
X97544Y162851I3292J-5639*
G02X95856I-844J1813*
G03X92960Y166405I-6187J-2085*
G37*
G36*
X13800Y278500D02*
G01X14600Y279300D01*
X17500*
X18200Y280000*
Y288200*
X25700*
Y276000*
X24600Y274900*
X23300*
X14700*
X13800Y275800*
Y278500*
G37*
G36*
X177970Y179590D02*
G01X179720Y181090D01*
G03X180377Y180347I2405J1464*
G01X180378*
G03X183260Y183504I-2934J5573*
G01X186687Y183235*
X186688*
Y183236*
X183260Y187795*
G03X186444Y191127I-2505J5581*
G02X187556I556J-831*
G03X190740Y187795I5689J2249*
G01X187000Y182821*
X186991Y182833*
X186990*
X184226Y178472*
G03X180453Y178638I-2093J-4612*
G02X180253Y178728I308J952*
G01X180252*
G03X179720Y178090I1873J-2102*
G01X177970Y179590*
G37*
G36*
X102615Y166624D02*
G01X102659Y166749D01*
X102926Y167064*
G02X103074Y167129I148J-135*
G01X104403*
G03X104545Y167188I0J200*
G01X109686Y172329*
G03X109745Y172470I-140J142*
G01Y179989*
G02X109886Y180180I200J0*
G01X110315Y180312*
X110439Y180268*
X110476Y180213*
G03X114570Y177102I6631J4476*
G02X114707Y176912I-63J-190*
G01Y170038*
G02X114656Y169905I-200J0*
X113714Y169164I-2598J2333*
X113620Y169140I-95J176*
G01X110205*
G03X108504Y167440I0J-1701*
G01Y159960*
X108505Y159912*
X108506Y159871*
X108477Y159796*
X108249Y159561*
G02X108105Y159500I-144J138*
G01X106510*
G02X106310Y159700I0J200*
G01Y164400*
G03X104610Y166100I-1700J0*
G01X102972*
G02X102792Y166213I0J200*
G01X102635Y166538*
G02X102615Y166624I180J87*
G37*
G36*
X123700Y289833D02*
G01Y290514D01*
G02X123900Y290714I200J0*
G01X131828*
G02X131969Y290656I0J-200*
G01X138452Y284173*
G02X138510Y284032I-141J-141*
G01Y284031*
Y272923*
G02X138387Y272738I-200J0*
G01X138331Y272714*
X138212Y272738*
X133708Y277242*
G02X133650Y277383I141J141*
G01Y279717*
G03X133591Y279859I-200J0*
G01X123759Y289691*
G02X123700Y289833I140J142*
G37*
G36*
X56300Y185300D02*
G01Y190800D01*
G02X56500Y191000I200J0*
G01X71911*
X71912*
G03X72053Y191058I0J200*
G01X76242Y195247*
G03X76300Y195388I-141J141*
G01Y195389*
Y196900*
G02X76403Y197075I200J0*
G01X76758Y197271*
X76867Y197268*
X76913Y197239*
G03X77817Y196978I905J1439*
G01X79983*
G03X80685Y197130I-1J1700*
G01X80731Y197151*
X80833Y197144*
X81158Y196934*
G02X81250Y196766I-108J-168*
G01Y195500*
G03X81362Y194689I3000J1*
G01X81369Y194663*
Y193729*
Y193728*
G03X82345Y192190I1700J0*
G01X82347Y192189*
X82394Y192166*
G02X82500Y191989I-94J-177*
G01Y189383*
X82439Y189286*
X82387Y189261*
G03X81428Y187731I741J-1530*
G01Y185369*
Y185348*
X81429Y185294*
X81376Y185200*
X80984Y184969*
X80876*
X80829Y184996*
G03X79983Y185222I-847J-1474*
G01X77817*
X77768Y185221*
X77724Y185220*
X77642Y185255*
X77380Y185551*
X77355Y185636*
X77361Y185680*
X77390Y185939*
X77400Y186200*
G03X75572Y189274I-3500J-1*
X73900Y189700I-1673J-3074*
X71538Y188783I0J-3500*
G02X71407Y188731I-135J148*
G01X71290Y188728*
X71286*
X71157Y188775*
G03X68900Y189600I-2257J-2675*
X67158Y189136I-1J-3500*
X65400Y186100I1742J-3036*
X65426Y185670I3500J-4*
G01X65432Y185627*
X65405Y185544*
X65144Y185255*
X65064Y185220*
X65020Y185221*
X64983Y185222*
X62817*
G03X61670Y184776I1J-1700*
G01X61642Y184751*
X61573Y184724*
X61228*
X61158Y184751*
X61130Y184776*
G03X59983Y185222I-1148J-1254*
G01X57817*
G03X56913Y184961I1J-1700*
G01X56867Y184932*
X56758Y184929*
X56403Y185125*
G02X56300Y185300I97J175*
G37*
G36*
X31619Y279676D02*
G01X34967Y283226D01*
X34968*
X34967Y283227*
X34786Y283429*
X39026Y288154*
G03X41979Y284995I6988J3573*
X44900Y288092I-4035J6732*
G01Y288200*
X52400*
Y278700*
X51000*
X50100Y277800*
Y273500*
X48800Y272200*
X47300*
X46100Y273400*
Y277400*
X45500Y278000*
X44900Y278600*
Y278767*
G03X41979Y281864I-6957J-3635*
X39026Y278705I4035J-6732*
G01X35490Y282644*
X35489*
X35919Y278705*
G03X33189Y276028I1963J-4733*
G02X31768Y276537I-489J873*
G01X31930Y277161*
Y277162*
X31929*
G02X31828Y277310I774J636*
G03X31963Y278251I-3221J942*
X31959Y278408I-3356J-7*
X31948Y278565I-3354J-156*
X31619Y279676I-4226J-647*
G37*
G36*
X209283Y174494D02*
G01X209307Y174613D01*
X209736Y175041*
G02X209877Y175100I142J-140*
G01X230011*
G03X230153Y175158I1J200*
G01X230958Y175964*
G02X231176Y176007I141J-141*
G01X231232Y175984*
X231300Y175883*
Y169086*
G02X231241Y168945I-200J1*
G01X229969Y167673*
G03X229910Y167531I140J-142*
G01Y162297*
G02X229852Y162156I-200J0*
G01X227669Y159973*
G02X227528Y159914I-142J140*
G01X224793*
G02X224652Y159973I1J200*
G01X222169Y162456*
G02X222110Y162597I140J142*
G01Y171131*
Y171132*
G03X222052Y171273I-200J0*
G01X219069Y174256*
G03X218928Y174314I-141J-141*
G01X209491*
G02X209307Y174438I1J200*
G01X209283Y174494*
G37*
G36*
X86300Y260800D02*
G01Y265500D01*
X88500Y267700*
Y274300*
X89300Y275100*
X93300*
X93900Y274500*
Y267368*
Y267367*
X94143Y266969*
X93900Y266813*
Y266812*
Y265200*
X94700Y264400*
X106300*
Y262200*
Y255100*
X92600*
Y257400*
X90400Y259600*
X89900*
X87500*
X86300Y260800*
G37*
G36*
X31100Y247439D02*
G01Y251213D01*
G02X31173Y251367I200J-1*
G01X31444Y251592*
X31530Y251614*
X31574Y251606*
G03X33500Y251426I1924J10194*
X43823Y260770I0J10374*
G01X43862Y261284*
X43871Y261542*
X43874Y261800*
G03X34047Y272160I-10374J0*
G01X33988Y272163*
X33892Y272232*
X33740Y272629*
G02X33727Y272701I187J71*
X33785Y272842I200*
G01X35642Y274699*
G03X35700Y274840I-141J141*
G01Y275500*
G02X35900Y275700I200J0*
G01X42400*
G02X42600Y275500I0J-200*
G01Y272033*
G03X42658Y271892I200J0*
G01X45792Y268758*
G03X45933Y268700I141J141*
G01X50167*
G03X50308Y268758I0J200*
G01X53542Y271992*
G03X53600Y272133I-141J141*
G01Y275000*
G02X53800Y275200I200J0*
G01X53928*
G02X54128Y275000I0J-200*
G01Y273969*
G03X55828Y272269I1700*
G01X55829*
X56300*
G02X56500Y272069I0J-200*
G01Y271931*
G02X56300Y271731I-200*
G01X55829*
X55828*
G03X54128Y270031I1J-1701*
G01Y267669*
G03X54489Y266622I1700J0*
G01X54531Y266499*
Y263499*
G02X54474Y263359I-200J0*
G01X54391Y263274*
G02X54261Y263214I-143J140*
G03X52672Y261518I111J-1696*
G01Y261517*
Y256005*
G03X54372Y254305I1700*
G01X55554*
G03X55906Y254342I-1J1700*
G02X55947Y254346I40J-196*
X55989Y254342I2J-200*
G03X56341Y254305I353J1663*
G01X57522*
G03X57874Y254342I-1J1700*
G02X57915Y254346I40J-196*
X57957Y254342I2J-200*
G03X58309Y254305I353J1663*
G01X59491*
G03X59843Y254342I-1J1700*
G02X59885Y254346I40J-196*
X59926Y254342I1J-200*
G03X60278Y254305I353J1663*
G01X61459*
G03X61811Y254342I-1J1700*
G02X61853Y254346I40J-196*
X61894Y254342I1J-200*
G03X62065Y254315I350J1663*
G01X62099Y254311*
X62161Y254282*
X62584Y253858*
G03X62725Y253800I141J141*
G01X62726*
X65828*
G02X66028Y253600I0J-200*
G01Y251869*
G03X67541Y250179I1700J0*
G01X67666Y250117*
X67746Y250031*
G02X67800Y249894I-146J-137*
G01Y249868*
X67772Y249797*
X67666Y249683*
X67541Y249621*
G03X66658Y249251I189J-1690*
G01X66533Y249207*
G02X66492Y249211I-1J200*
G03X65600Y249300I-891J-4411*
X62920Y248415I0J-4500*
G02X62878Y248391I-120J161*
G03X60699Y246032I1521J-3591*
G02X60510Y245895I-190J63*
G01X60278*
G03X59926Y245858I1J-1700*
G02X59885Y245854I-40J196*
X59843Y245858I-2J200*
G03X59491Y245895I-353J-1663*
G01X58309*
G03X57957Y245858I1J-1700*
G02X57915Y245854I-40J196*
X57874Y245858I-1J200*
G03X57522Y245895I-353J-1663*
G01X56341*
G03X55989Y245858I1J-1700*
G02X55947Y245854I-40J196*
X55906Y245858I-1J200*
G03X55554Y245895I-353J-1663*
G01X54372*
G03X52672Y244195I0J-1700*
G01Y244194*
Y242156*
X52664Y242128*
G03X52567Y241588I2298J-692*
G01X52562Y241509*
X52447Y241400*
X51089*
X51088*
G03X50947Y241342I0J-200*
G01X49713Y240108*
G02X49571Y240049I-142J140*
X49495Y240064I0J199*
G01X49439Y240087*
X49372Y240188*
Y240431*
G03X47859Y242121I-1700J0*
G01X47734Y242183*
X47654Y242269*
G02X47600Y242406I146J137*
G01Y242432*
X47628Y242503*
X47734Y242617*
X47859Y242679*
G03X49372Y244369I-187J1690*
G01Y246731*
X49369Y246832*
Y246843*
G02X49435Y246992I200J0*
G03X50601Y249600I-2335J2608*
X50349Y250902I-3501J-2*
X47100Y253100I-3249J-1303*
G01X44000*
G03X40500Y249600I0J-3500*
G01X40549Y249017*
X40556Y248973*
X40533Y248888*
X40307Y248621*
G02X40154Y248550I-153J129*
G01X33940*
G03X33799Y248492I0J-200*
G01X32447Y247140*
G02X32305Y247081I-142J140*
G01X31919*
X31918*
G03X31580Y247047I0J-1700*
G01X31536Y247038*
X31448Y247060*
X31174Y247284*
G02X31100Y247439I126J155*
G37*
G36*
X64600Y102200D02*
G01Y145500D01*
X68300Y149200*
Y164400*
X83200*
X83300Y164300*
Y149300*
X85600Y147000*
Y146260*
X85616Y146250*
X85600Y146219*
Y146218*
Y136500*
X85200Y136100*
X80400*
X79200Y134900*
Y114200*
X78000Y113000*
Y102200*
X76600Y100800*
X66000*
X64600Y102200*
G37*
G36*
X48172Y299571D02*
G01X52412Y304295D01*
G03X54111Y302069I6989J3573*
X54112Y302070I0J1*
G01Y304295*
G03X54014Y304863I-1700J-1*
G01X54001Y304900*
X54005Y304979*
X54159Y305305*
X54217Y305358*
X54254Y305372*
G03X55372Y306969I-582J1597*
G01Y307452*
G02X55513Y307643I200J0*
G01X55942Y307775*
X56066Y307731*
X56103Y307676*
G03X61900Y304600I5797J3924*
X64758Y305210I0J7000*
X68900Y311600I-2858J6390*
X68689Y313305I-7000J-1*
X61900Y318600I-6789J-1705*
G01X61631Y318595*
X61361Y318579*
X60826Y318517*
X60777Y318510*
X60685Y318541*
X60390Y318845*
X60362Y318938*
X60371Y318986*
G03X60393Y319142I-1671J315*
G01X60398Y319220*
X60400Y319299*
Y319300*
Y320999*
G03X60399Y321000I-1J0*
X58700Y319300I1999J-3697*
G01X58248Y319648*
X58247*
X58246Y319647*
X58247*
X58614Y319300*
G03X56158Y316911I1771J-4277*
G02X55242I-458J889*
G03X52786Y319300I-4226J-1888*
G01X55700Y322050*
X55733Y322019*
G03X55734I1J1*
G01X58700Y324300*
G03X60399Y322600I3699J1997*
X60400Y322601I0J1*
G01Y324300*
Y324301*
G03X60369Y324624I-1700J0*
G01X60361Y324668*
X60383Y324755*
X60608Y325027*
G02X60762Y325100I154J-127*
G01X90100*
G02X90300Y324900I0J-200*
G01Y307397*
G03X90359Y307256I200J1*
G01X90973Y306642*
G02X91031Y306501I-141J-141*
X91016Y306424I-199J-1*
G01X90993Y306368*
X90892Y306300*
X87446*
X87445*
G02X87263Y306418I0J200*
G01X87089Y306804*
X87107Y306921*
X87146Y306965*
G03X88900Y311600I-5246J4635*
X86975Y316422I-7000J1*
X81900Y318600I-5074J-4822*
X77539Y317076I0J-7000*
X74900Y311600I4361J-5476*
X76065Y307732I7000J-1*
X76654Y306965I5833J3870*
G01X76693Y306921*
X76711Y306804*
X76537Y306418*
G02X76355Y306300I-182J82*
G01X76354*
X73133*
G03X72992Y306242I0J-200*
G01X68358Y301608*
G03X68300Y301467I141J-141*
G01Y297452*
G02X68235Y297305I-200J1*
G01X68145Y297222*
G02X68010Y297170I-135J148*
G01X68002*
X67931Y297172*
X65569*
G03X63869Y295472I0J-1700*
G01Y295471*
Y294074*
G03X63871I1*
G01X63881Y294099*
G03X65569Y295471I-1010J2967*
X66599Y296641I-1315J2196*
G01X66901*
G03X67931Y295471I2345J1026*
G01X66940Y293775*
Y293774*
X67000Y293700*
X66940Y293626*
Y293625*
X67931Y291929*
G03X66901Y290759I1315J-2196*
G01X66599*
G03X65569Y291929I-2345J-1026*
X63881Y293301I-2698J-1595*
G01X63871Y293326*
G03X63869I-1*
G01Y291929*
Y291928*
G03X65569Y290228I1700J0*
G01X67931*
X68002Y290230*
X68010*
G02X68145Y290178I0J-200*
G01X68235Y290095*
G02X68300Y289948I-135J-148*
G01Y288433*
G03X68358Y288292I200J0*
G01X75092Y281558*
G03X75233Y281500I141J141*
G01X82967*
G02X83109Y281441I0J-200*
G01X85792Y278758*
G03X85933Y278700I141J141*
G01X87467*
G02X87652Y278576I0J-200*
G01X87675Y278520*
X87651Y278401*
X85413Y276163*
G02X85272Y276105I-141J141*
X85195Y276120I-1J199*
G01X85139Y276143*
X85072Y276244*
Y276331*
G03X83372Y278031I-1700J0*
G01X83371*
X81974*
X81973Y278030*
G03X81974Y278029I1J0*
G01X81999Y278019*
G03X83371Y276331I2968J1010*
G01X81600Y274900*
X79829Y276331*
G03X81201Y278019I-1595J2698*
G01X81226Y278029*
X81227Y278030*
G03X81226Y278031I-1J0*
G01X79829*
X79828*
G03X78781Y277670I1J-1700*
G01X78658Y277628*
X78542*
X78419Y277670*
G03X77371Y278031I-1048J-1340*
G01X73829*
X73828*
G03X72781Y277670I1J-1700*
G01X72658Y277628*
X72542*
X72419Y277670*
X72351Y277721*
X72273Y277832*
X72242Y277946*
X72255Y278084*
G03X72600Y279600I-3156J1515*
X71141Y282444I-3500J1*
X69100Y283100I-2040J-2844*
X66610Y282060I0J-3500*
G02X66467Y282000I-143J139*
G01X58089*
X58088*
G03X57947Y281942I0J-200*
G01X56242Y280236*
G02X56101Y280178I-141J141*
X56024Y280193I-1J199*
G01X55968Y280216*
X55900Y280317*
Y291500*
G03X55700Y291700I-200J0*
G01X52672*
G02X52472Y291900I0J200*
G01Y293039*
X52570Y293152*
X52644Y293162*
G03X54112Y294846I-232J1684*
G01Y297072*
X54111*
G03X52412Y294846I5289J-5799*
G01X48172Y299571*
G37*
G36*
X71800Y300100D02*
G01X74500Y302800D01*
X95700*
X96100Y302400*
X98100Y300400*
X107400*
X109000Y298800*
Y296500*
X113200Y292300*
X118900*
X120200Y291000*
Y288300*
X130150Y278350*
Y275850*
X134700Y271300*
Y267300*
X133600Y266200*
X127000*
X122700Y270500*
Y275500*
X117500Y280700*
X101300*
X99800Y282200*
X87300*
X84500Y285000*
X76600*
X71800Y289800*
Y300100*
G37*
G36*
X217200Y11800D02*
G01Y21000D01*
X225400Y29200*
Y41000*
X244300Y59900*
Y73700*
X233000Y85000*
Y103300*
X235500Y105800*
X243800*
X249000Y100600*
Y93800*
X259100Y83700*
Y48200*
X229800Y18900*
Y11500*
X228900Y10600*
X225600*
X218400*
X217200Y11800*
G37*
G36*
X1410Y237380D02*
G01Y324900D01*
G02X1610Y325100I200J0*
G01X12538*
G02X12693Y325027I0J-200*
G01X12917Y324755*
X12940Y324668*
X12931Y324624*
G03X12900Y324301I1669J-323*
G01Y324300*
Y322601*
G03X12901Y322600I1J0*
X14600Y324300I-2000J3697*
G01X17565Y322019*
X17566*
X17600Y322050*
X20600Y319300*
G03X18135Y316555I2189J-4445*
G02X17065I-535J845*
G01X17036Y316632*
X17035Y316633*
G03X14900Y311600I4865J-5033*
X17270Y306350I7000J0*
G01X17305Y306319*
X17340Y306232*
X17312Y305822*
X17264Y305741*
X17225Y305716*
G03X16460Y304296I935J-1420*
G01Y304295*
Y302070*
X16461*
G03X18160Y304295I-5289J5800*
G01X22400Y299571*
X18160Y294846*
G03X16461Y297072I-6989J-3573*
X16460Y297071I0J-1*
G01Y294846*
G03X17927Y293162I1700J0*
G01X18001Y293152*
X18100Y293039*
Y291900*
G02X17900Y291700I-200*
G01X14900*
G03X14700Y291500I0J-200*
G01Y283000*
G02X14500Y282800I-200*
G01X13233*
G03X13092Y282742I0J-200*
G01X10358Y280008*
G03X10300Y279867I141J-141*
G01Y277626*
G02X10241Y277484I-200J0*
G01X4658Y271901*
G03X4600Y271760I141J-141*
G01Y267056*
G02X4535Y266908I-200J0*
X3820Y266411I-2237J2455*
G03X2900Y264900I780J-1511*
G01Y259900*
Y259899*
G03X3759Y258422I1700J0*
G02X4440Y257907I-1627J-2859*
X4500Y257765I-140J-143*
G01Y251940*
G03X4558Y251799I200J0*
G01X9199Y247158*
G03X9340Y247100I141J141*
G01X15285*
G02X15465Y246986I-1J-200*
G01X15646Y246608*
X15632Y246494*
X15596Y246449*
G03X15219Y245381I1323J-1068*
G01Y243475*
X15220*
G03X16919Y245381I-2842J4243*
G01X18350Y242330*
X18259Y242136*
X19281Y239279*
G03X18251Y238110I1314J-2196*
G01X17949*
G03X16919Y239279I-2344J-1027*
X15220Y241185I-4541J-2337*
G01X15219*
Y239279*
G03X16919Y237579I1700*
G01X19281*
G03X20407Y238005I0J1700*
G02X20539Y238055I132J-150*
G01X20661*
G02X20793Y238005I0J-200*
G03X21919Y237579I1126J1274*
G01X24281*
G03X25407Y238005I0J1700*
G02X25539Y238055I132J-150*
G01X25661*
G02X25793Y238005I0J-200*
G03X26919Y237579I1126J1274*
G01X29281*
X29340Y237580*
X29346*
G02X29493Y237516I0J-200*
G01X29579Y237425*
G02X29633Y237289I-146J-137*
X29631Y237262I-200J1*
G03X29600Y236800I3470J-465*
G01Y233800*
G03X33100Y230300I3500*
X36600Y233800J3500*
G01Y236298*
G02X36704Y236473I200J0*
G01X37059Y236668*
X37169Y236665*
X37215Y236635*
G03X38128Y236369I913J1435*
G01X38129*
X41671*
X41831Y236376*
X41894Y236382*
X42003Y236320*
X42190Y235922*
G02X42209Y235836I-181J-85*
X42151Y235695I-200J0*
G01X40545Y234090*
G02X40404Y234031I-142J140*
G01X39229*
X39228*
G03X37528Y232331I1J-1701*
G01Y229969*
G03X39228Y228269I1700*
G01X39229*
X39700*
G02X39900Y228069I0J-200*
G01Y227931*
G02X39700Y227731I-200*
G01X39229*
X39228*
G03X37528Y226031I1J-1701*
G01Y223669*
G03X37884Y222629I1700J1*
G01X37925Y222507*
X37877Y222377*
G03X37561Y221823I1293J-1104*
G02X37451Y221705I-189J66*
G03X36703Y221197I951J-2204*
G01X36322Y220817*
G02X36181Y220759I-141J141*
X36105Y220774I0J199*
G01X36048Y220797*
X35981Y220898*
Y224121*
G03X34281Y225821I-1700J0*
G01X31919*
G03X30793Y225395I0J-1700*
G02X30661Y225345I-132J150*
G01X30539*
G02X30407Y225395I0J200*
G03X29281Y225821I-1126J-1274*
G01X26919*
G03X25793Y225395I0J-1700*
G02X25661Y225345I-132J150*
G01X25539*
G02X25407Y225395I0J200*
G03X24281Y225821I-1126J-1274*
G01X21919*
G03X20793Y225395I0J-1700*
G02X20661Y225345I-132J150*
G01X20539*
G02X20407Y225395I0J200*
G03X19281Y225821I-1126J-1274*
G01X16919*
X16917*
G03X16418Y225746I0J-1700*
G01X16373Y225732*
X16279Y225748*
X15981Y225967*
G02X15900Y226128I119J161*
G01Y227311*
Y227312*
G03X15842Y227453I-200J0*
G01X8430Y234864*
X8400Y234938*
Y234978*
Y235000*
G03X6118Y238281I-3500J0*
X4900Y238500I-1219J-3281*
X2127Y237136I0J-3500*
G01X2088Y237085*
X1965Y237048*
X1546Y237191*
G02X1410Y237380I64J189*
G37*
G36*
Y179314D02*
G01Y232620D01*
G02X1546Y232809I200J-1*
G01X1965Y232952*
X2088Y232915*
X2127Y232864*
G03X3544Y231773I2773J2136*
G01X3590Y231754*
X3653Y231678*
X3740Y231257*
X3712Y231163*
X3678Y231127*
G03X2700Y228700I2522J-2427*
X3562Y226399I3500J-1*
X8190Y225821I2637J2301*
G01X8250Y225862*
X8394Y225849*
X9441Y224802*
G02X9500Y224660I-140J-142*
G01Y195479*
Y195478*
G03X9558Y195337I200J0*
G01X12937Y191958*
G03X13079Y191900I141J141*
G01X21331*
G02X21510Y191790I0J-200*
G01X21696Y191420*
X21686Y191307*
X21652Y191261*
G03X19477Y184689I8841J-6572*
X25158Y175051I11016J0*
X40756Y180686I5335J9638*
X41509Y184689I-10263J4003*
X32471Y195526I-11016J0*
G01X32416Y195536*
X32332Y195610*
X32210Y196002*
G02X32203Y196031I190J61*
G01X32202Y196046*
X32201Y196061*
G02X32260Y196202I200J-1*
G01X33798Y197741*
G02X33940Y197800I142J-140*
G01X35909*
X36022Y197701*
X36032Y197627*
G03X40038Y194641I3468J473*
G01X40082Y194648*
X40166Y194624*
X40430Y194398*
G02X40500Y194246I-130J-152*
G01Y193563*
G03X40558Y193422I200J0*
G01X44522Y189458*
G03X44663Y189400I141J141*
G01X51323*
G02X51464Y189341I-1J-200*
G01X51469Y189336*
X51500Y189263*
Y185300*
G02X51397Y185125I-200J0*
G01X51042Y184929*
X50933Y184932*
X50887Y184961*
G03X49983Y185222I-905J-1439*
G01X47817*
G03X46117Y183522I0J-1700*
G01Y183521*
Y181760*
G03X46118Y181759I1J0*
X47817Y183521I-2235J3855*
G01X49150Y180864*
X47817Y178206*
G03X46118Y179969I-3935J-2092*
X46117Y179968I0J-1*
G01Y178206*
G03X47220Y176614I1700J0*
G01X47268Y176596*
X47335Y176519*
X47417Y176141*
G02X47422Y176098I-195J-44*
X47363Y175957I-199J1*
G01X15428Y144022*
G02X15236Y143970I-141J141*
G01X14851Y144069*
X14775Y144143*
X14760Y144194*
G03X9878Y148521I-5860J-1694*
G01X9806Y148533*
X9710Y148645*
Y178914*
G03X9510Y179114I-200J0*
G01X1610*
G02X1410Y179314J200*
G37*
G36*
X12726Y77302D02*
G01Y77698D01*
X12764Y77779*
X12798Y77808*
G03X15000Y82500I-3898J4692*
X14609Y84649I-6100J0*
G01X14588Y84704*
X14613Y84819*
X16942Y87147*
G03X17000Y87288I-141J141*
G01Y87289*
Y129423*
G02X17059Y129564I200J-1*
G01X53136Y165641*
G02X53277Y165700I142J-140*
G01X63711*
G03X63853Y165758I1J200*
G01X64458Y166364*
G02X64676Y166407I141J-141*
G01X64732Y166384*
X64800Y166283*
Y150733*
G02X64741Y150591I-200J0*
G01X63442Y149292*
G02X63224Y149248I-142J140*
G01X63168Y149272*
X63100Y149372*
Y160600*
G03X59100Y164600I-4000J0*
X55100Y160600I0J-4000*
G01Y104740*
G02X55041Y104598I-200J0*
G01X38102Y87659*
G02X37960Y87600I-142J140*
G01X28526*
G03X28384Y87542I-1J-200*
G01X15289Y74446*
G02X15104Y74392I-141J141*
G01X14725Y74476*
X14648Y74544*
X14630Y74592*
G03X12798Y77192I-5730J-2092*
G01X12764Y77221*
X12726Y77302*
G37*
G36*
X1410Y58357D02*
G01Y147714D01*
G02X1610Y147914I200J0*
G01X4763*
G02X4952Y147782I1J-200*
G01X5100Y147368*
X5067Y147246*
X5018Y147206*
G03X2800Y142500I3883J-4706*
X5002Y137808I6101J0*
G01X5036Y137779*
X5074Y137698*
Y137302*
X5036Y137221*
X5002Y137192*
G03X2800Y132500I3898J-4692*
X5002Y127808I6100J0*
G01X5036Y127779*
X5074Y127698*
Y127302*
X5036Y127221*
X5002Y127192*
G03X2800Y122500I3898J-4692*
X5002Y117808I6100J0*
G01X5036Y117779*
X5074Y117698*
Y117302*
X5036Y117221*
X5002Y117192*
G03X2800Y112500I3898J-4692*
X5002Y107808I6100J0*
G01X5036Y107779*
X5074Y107698*
Y107302*
X5036Y107221*
X5002Y107192*
G03X2800Y102500I3898J-4692*
X5002Y97808I6100J0*
G01X5036Y97779*
X5074Y97698*
Y97302*
X5036Y97221*
X5002Y97192*
G03X2800Y92500I3898J-4692*
X5002Y87808I6100J0*
G01X5036Y87779*
X5074Y87698*
Y87302*
X5036Y87221*
X5002Y87192*
G03X2800Y82500I3898J-4692*
X5002Y77808I6100J0*
G01X5036Y77779*
X5074Y77698*
Y77302*
X5036Y77221*
X5002Y77192*
G03X2800Y72500I3898J-4692*
X4171Y68646I6100J-1*
G01X4198Y68614*
X4220Y68533*
X4168Y68160*
X4124Y68089*
X4089Y68065*
G03X2800Y65600I1712J-2465*
G01Y59400*
G03X5800Y56400I3000J0*
G01X12000*
G03X12378Y56424I-1J3000*
G01X12421Y56429*
X12503Y56404*
X12761Y56177*
G02X12828Y56028I-133J-149*
G01Y56027*
Y55069*
G03X14529Y53369I1700*
G01X15926*
G03X15927Y53370I0J1*
G01X15926Y53371*
X15901Y53381*
G03X14529Y55069I-2968J-1011*
X13359Y56099I-2196J-1315*
G02X13348Y56250I989J148*
X13359Y56401I1000J3*
G03X14529Y57431I-1025J2344*
G01X16225Y56440*
X16226*
X16300Y56500*
X16374Y56440*
X16375*
X18071Y57431*
G03X19241Y56401I2195J1314*
G02X19252Y56250I-991J-148*
X19241Y56099I-1002J-3*
G03X18071Y55069I1026J-2345*
X16699Y53381I1595J-2698*
G01X16674Y53371*
X16673Y53370*
X16674Y53369*
X18071*
G03X19772Y55069I1J1700*
G01Y57431*
G03X18259Y59121I-1700J0*
G01X18134Y59183*
X18054Y59269*
G02X18000Y59406I146J137*
G01Y59408*
X18051Y59498*
X18095Y59525*
X18300Y59663*
G02X18380Y59697I116J-163*
G03X19772Y61369I-308J1672*
G01Y61888*
X19802Y61962*
X19830Y61990*
G03X20820Y63392I-3529J3542*
G02X20835Y63419I182J-83*
G03X21800Y66531I-4535J3112*
X21258Y68912I-5500J0*
G01X21231Y68969*
X21252Y69095*
X31698Y79541*
G02X31840Y79600I142J-140*
G01X41274*
G03X41416Y79658I1J200*
G01X61662Y99905*
G02X61945I142J-141*
G01X64492Y97358*
G03X64633Y97300I141J141*
G01X77967*
G03X78108Y97358I0J200*
G01X81541Y100791*
G02X81682Y100849I141J-141*
G01X85616*
G03X87317Y102550I0J1701*
G01Y112392*
G03X87212Y112978I-1700J-2*
G01X87200Y113012*
Y120700*
G03X83109Y124699I-4000J0*
G01X83069Y124698*
X82994Y124728*
X82760Y124956*
G02X82700Y125099I140J143*
G01Y132400*
G02X82900Y132600I200J0*
G01X86567*
G03X86708Y132658I0J200*
G01X89042Y134992*
G03X89100Y135133I-141J141*
G01Y147303*
G02X89162Y147448I200J0*
G01X89403Y147676*
X89480Y147704*
X89521Y147702*
X89610Y147700*
X98364*
G02X98538Y147600I1J-200*
G01X98738Y147253*
Y147146*
X98711Y147100*
G03X98483Y146250I1473J-851*
G01Y143898*
X98484*
G03X100184Y146250I-5566J5814*
G01X102948Y142071*
G03X102950I1*
G01X105695Y146058*
G03X107395Y143516I7013J2851*
G01X107396Y143517*
Y146250*
G03X106235Y147862I-1700J0*
G01X106191Y147877*
X106125Y147943*
X105991Y148331*
X106003Y148424*
X106029Y148462*
G03X106310Y149398I-1419J936*
G01Y149400*
Y152300*
G02X106510Y152500I200J0*
G01X110846*
G02X111028Y152382I0J-200*
G01X111202Y151994*
X111183Y151877*
X111144Y151833*
G03X109107Y146500I5963J-5333*
X111275Y141024I8000J0*
X122053Y140213I5832J5476*
X125107Y146500I-4946J6288*
X123802Y150880I-8000J1*
X123070Y151833I-6692J-4383*
G01X123031Y151877*
X123013Y151994*
X123186Y152382*
G02X123368Y152500I183J-83*
G01X129767*
G02X129909Y152441I0J-200*
G01X131074Y151276*
G02X131133Y151134I-140J-142*
G01Y146137*
G03X133901Y143146I3000*
G02X134035Y143080I-15J-199*
X134453Y142518I-2959J-2637*
X134483Y142413I-170J-105*
G01Y128979*
G03X134542Y128838I200J1*
G01X135296Y128083*
G02X135355Y127941I-140J-142*
X135296Y127800I-199J1*
G01X122148Y114652*
X121999Y114642*
X121939Y114687*
G03X110236Y112409I-4832J-6376*
G02X110064Y112311I-172J102*
G01X108046*
G02X107908Y112367I1J200*
X107119Y113322I3839J3976*
G03X105683Y114092I-1423J-930*
G01X100184*
G03X98483Y112392I0J-1701*
G01Y102550*
G03X100184Y100849I1701J0*
G01X102167*
G02X102351Y100726I-1J-200*
G01X102375Y100670*
X102351Y100551*
X101859Y100059*
G03X101800Y99917I140J-142*
G01Y91183*
G02X101741Y91041I-200J0*
G01X94659Y83959*
G02X94517Y83900I-142J140*
G01X75983*
G03X75841Y83841I0J-200*
G01X69659Y77659*
G03X69600Y77517I140J-142*
G01Y68783*
G02X69541Y68641I-200J0*
G01X41159Y40259*
G03X41100Y40117I140J-142*
G01Y22256*
X41002Y22143*
X40928Y22132*
G03X34905Y15446I973J-6932*
G01X34903Y15385*
X34901Y15323*
X34900Y15200*
G03X40928Y8268I7000J0*
G01X41002Y8257*
X41100Y8144*
Y2283*
G02X41041Y2142I-200J1*
G01X40459Y1559*
G02X40317Y1500I-142J140*
G01X10300*
G02X10111Y1637I1J200*
G01X9970Y2058*
X10009Y2181*
X10060Y2220*
G03X12500Y7100I-3660J4880*
X9932Y12074I-6100J1*
G01X9892Y12102*
X9848Y12188*
Y12612*
X9892Y12698*
X9932Y12726*
G03X12500Y17700I-3532J4974*
X9932Y22674I-6100J0*
G01X9892Y22702*
X9848Y22788*
Y23212*
X9892Y23298*
X9932Y23326*
G03X12500Y28300I-3532J4974*
X11047Y32252I-6100J0*
X2177Y32702I-4647J-3952*
G01X2134Y32661*
X2015Y32639*
X1622Y32807*
G02X1500Y32991I78J184*
G01Y58142*
G03X1442Y58283I-200J0*
G01X1441Y58284*
X1410Y58357*
G37*
G36*
X48700Y228006D02*
G01Y228032D01*
X48728Y228103*
X48834Y228217*
X48959Y228279*
G03X50472Y229969I-187J1690*
G01Y231144*
Y231145*
G02X50530Y231286I200J0*
G01X51351Y232107*
G02X51569Y232150I141J-141*
G01X51625Y232127*
X51693Y232026*
Y231022*
G03X51694Y231021I1J0*
X53393Y232662I-1796J3559*
G01X57467Y230801*
G03X57468Y230802I0J1*
G01X55376Y232662*
G03X57854Y235074I-1784J4312*
G02X58775I461J-888*
G03X61252Y232662I4263J1900*
G01X58636Y230336*
Y230335*
X62228Y227938*
G03X59878Y226239I2415J-5815*
X59879Y226238I1J0*
G01X63236*
G03X64670Y227025I0J1700*
G02X64838Y227117I168J-108*
G01X65176*
G02X65345Y227025I1J-200*
G03X66779Y226238I1434J913*
G01X76621*
G03X77828Y226741I0J1700*
G02X77971Y226800I142J-141*
G01X80900*
G03X84400Y230300J3500*
X80900Y233800I-3500J0*
G01X77971*
G02X77828Y233859I-1J200*
G01X77775Y233911*
X77730Y233953*
X77702Y234073*
X77860Y234477*
G02X78047Y234605I187J-72*
G01X83240*
G03X84940Y236305I0J1700*
G01Y238950*
X84939*
G03X83240Y236477I4984J-5244*
G01X79125Y241029*
X83240Y245581*
G03X84939Y243108I6683J2771*
G01X84940*
Y243827*
G02X85064Y244012I200*
G01X85120Y244035*
X85239Y244011*
X88092Y241158*
G03X88233Y241100I141J141*
G01X88256*
X88316Y241031*
G03X90825Y238750I11083J9670*
G01X90864Y238722*
X90908Y238636*
Y237098*
G03X92608Y235398I1700*
G01X106192*
G03X107892Y237098I0J1700*
G01Y238636*
X107936Y238722*
X107975Y238750*
G03X114108Y250700I-8575J11950*
X113475Y254970I-14708J2*
G01X113466Y254999*
Y255028*
G02X113666Y255228I200J0*
G01X113731*
G03X115427Y256813I0J1700*
G01X115432Y256892*
X115548Y257000*
X115852*
X115968Y256892*
X115973Y256813*
G03X117669Y255228I1696J115*
G01X120031*
G03X121731Y256928I0J1700*
G01Y256929*
Y258326*
G03X121729I-1*
G01X121719Y258301*
G03X120031Y256929I1011J-2968*
X119001Y255759I1315J-2196*
G01X118699*
G03X117669Y256929I-2344J-1025*
G01X118660Y258625*
Y258626*
X118600Y258700*
X118660Y258774*
Y258775*
X117669Y260471*
G03X118699Y261641I-1315J2196*
G01X119001*
G03X120031Y260471I2344J1025*
X121719Y259099I2699J1596*
G01X121729Y259074*
G03X121731I1*
G01Y260471*
Y260472*
G03X120031Y262172I-1701J-1*
G01X117669*
G03X115973Y260587I0J-1700*
G01X115968Y260508*
X115852Y260400*
X115548*
X115432Y260508*
X115427Y260587*
G03X113731Y262172I-1696J-115*
G01X111369*
G03X110248Y261750I0J-1700*
G01X110221Y261726*
X110153Y261700*
X110000*
G02X109800Y261900I0J200*
G01Y265069*
G02X110000Y265269I200J0*
G01X112253*
G03X113953Y266969I0J1700*
G01Y269253*
G03X113952Y269254I-1J0*
X112253Y266969I4768J-5319*
G01X108800Y271300*
X112253Y275631*
G03X113952Y273346I6467J3034*
X113953Y273347I0J1*
G01Y275631*
G03X113665Y276577I-1700J-1*
G01X113634Y276623*
X113629Y276734*
X113821Y277094*
G02X113998Y277200I176J-94*
G01X115967*
G02X116109Y277141I0J-200*
G01X119141Y274109*
G02X119200Y273967I-140J-142*
G01Y269133*
G03X119258Y268992I200J0*
G01X125492Y262758*
G03X125633Y262700I141J141*
G01X133367*
G02X133509Y262641I0J-200*
G01X134241Y261909*
G02X134300Y261767I-140J-142*
G01Y229340*
G02X134241Y229198I-200J0*
G01X117521Y212479*
G03X116349Y209650I2829J-2829*
X117521Y206821I4001J0*
X123179I2829J2829*
G01X145098Y228741*
G02X145240Y228800I142J-140*
G01X148067*
G02X148209Y228741I0J-200*
G01X151858Y225092*
G02X151917Y224950I-140J-142*
G01Y216517*
G03X157174Y213490I3500J0*
G02X157274Y213517I100J-173*
G01X174926*
G02X175026Y213490I0J-200*
G03X178540I1757J3027*
G02X178641Y213517I100J-173*
G01X196326*
G02X196426Y213490I0J-200*
G03X199940I1757J3027*
G02X200041Y213517I100J-173*
G01X217626*
G02X217726Y213490I0J-200*
G03X222159Y214261I1757J3027*
X222983Y216517I-2676J2256*
X222169Y218761I-3500J0*
X217726Y219544I-2686J-2244*
G02X217626Y219517I-100J173*
G01X200041*
G02X199940Y219544I-1J200*
G03X196426I-1757J-3027*
G02X196326Y219517I-100J173*
G01X178641*
G02X178540Y219544I-1J200*
G03X175026I-1757J-3027*
G02X174926Y219517I-100J173*
G01X159117*
G02X158917Y219717J200*
G01Y227850*
G03X158858Y227992I-200J0*
G01X158077Y228773*
G02X158019Y228914I141J141*
X158034Y228991I199J1*
G01X158057Y229047*
X158158Y229114*
X228828*
G03X228969Y229173I-1J200*
G01X230852Y231056*
G03X230910Y231197I-141J141*
G01Y240031*
G02X230969Y240173I200J0*
G01X231352Y240556*
G02X231493Y240614I141J-141*
G01X231510*
X243452Y252556*
G03X243510Y252697I-141J141*
G01Y264231*
G02X243569Y264373I200*
G01X249652Y270456*
G02X249793Y270514I141J-141*
G01X251894*
G02X252088Y270360I-1J-200*
G01X252194Y269914*
X252135Y269788*
X252072Y269756*
G03X248700Y264300I2728J-5456*
X250902Y259608I6100J0*
G01X250936Y259579*
X250974Y259499*
Y259102*
X250936Y259021*
X250902Y258992*
G03X248700Y254300I3898J-4692*
X250902Y249608I6100J0*
G01X250936Y249579*
X250974Y249499*
Y249102*
X250936Y249021*
X250902Y248992*
G03X248700Y244300I3898J-4692*
X250902Y239608I6100J0*
G01X250936Y239579*
X250974Y239498*
Y239102*
X250936Y239021*
X250902Y238992*
G03X248700Y234300I3898J-4692*
X250902Y229608I6100J0*
G01X250936Y229579*
X250974Y229498*
Y229101*
X250936Y229021*
X250902Y228992*
G03X248700Y224300I3898J-4692*
X250902Y219608I6100J0*
G01X250936Y219579*
X250974Y219498*
Y219101*
X250936Y219021*
X250902Y218992*
G03X248700Y214300I3898J-4692*
X249091Y212151I6100J0*
G01X249111Y212096*
X249087Y211981*
X247658Y210553*
G03X247600Y210412I141J-141*
G01Y210411*
Y203977*
G02X247541Y203836I-200J1*
G01X242658Y198953*
G03X242600Y198812I141J-141*
G01Y198811*
Y193500*
G02X242400Y193300I-200*
G01X235589*
G03X235447Y193242I-1J-200*
G01X226564Y184359*
G02X226423Y184300I-142J140*
G01X212777*
G02X212636Y184359I1J200*
G01X211080Y185914*
X211050Y185988*
Y186028*
Y186050*
G03X207572Y189550I-3500*
X204056Y186253I-22J-3500*
G02X203910Y186072I-200J12*
G03X201349Y182700I940J-3372*
X201692Y181189I3501J0*
X206903Y179865I3158J1511*
G01X206962Y179908*
X207109Y179896*
X207314Y179691*
G02X207372Y179550I-141J-141*
X207314Y179409I-199J0*
G01X202278Y174373*
G02X202137Y174314I-142J140*
G01X191000*
G02X190800Y174514J200*
G01Y176539*
X190899Y176652*
X190973Y176662*
G03X192440Y178346I-233J1684*
G01Y187783*
Y187795*
G03X191436Y189346I-1700J0*
G02X190056Y190320I1809J4028*
X190000Y190458I143J139*
G01Y191760*
G03X189942Y191901I-200J0*
G01X185722Y196122*
G03X183600Y197000I-2121J-2122*
G01X180082*
G02X179904Y197109I0J200*
G03X169678Y199471I-6104J-3109*
X166950Y194000I4122J-5471*
X169127Y188991I6850J0*
X179544Y190268I4673J5009*
X179904Y190891I-5743J3734*
G02X180082Y191000I178J-91*
G01X182274*
G02X182416Y190941I0J-200*
G01X183128Y190229*
G02X183187Y190087I-140J-142*
X183186Y190063I-199J-4*
G01X183148Y189751*
G02X183054Y189604I-199J24*
X182564Y189346I-2299J3772*
G03X181560Y187795I696J-1551*
G01Y187783*
Y183919*
G02X181538Y183828I-200J0*
X180686Y182660I-4094J2091*
X180458Y182622I-141J142*
G03X179720Y182790I-737J-1533*
G01X176720*
G03X175020Y181090I0J-1700*
G01Y178090*
G03X176720Y176390I1700*
G01X179720*
G03X180479Y176569I0J1700*
G02X180569Y176590I89J-179*
G01X183000*
G02X183200Y176390I0J-200*
G01Y173461*
X183101Y173348*
X183027Y173338*
G03X181560Y171654I233J-1684*
G01Y168328*
G02X181538Y168237I-200J0*
X181138Y167592I-4094J2092*
X180841Y167565I-161J120*
G01X180707Y167696*
G02X180650Y167835I143J140*
G01Y167850*
G03X177650Y170850I-3000J0*
G01X169950*
G03X166950Y167850I0J-3000*
G01Y164851*
G02X166833Y164669I-200J0*
G01X166449Y164494*
X166333Y164510*
X166288Y164549*
G03X161789Y164613I-2288J-2649*
X160500Y161900I2211J-2713*
X160995Y160105I3500J0*
G01X161023Y160059*
X161024Y159951*
X160826Y159602*
G02X160652Y159500I-174J98*
G01X154589*
G03X154447Y159442I-1J-200*
G01X151458Y156453*
G03X151400Y156312I141J-141*
G01Y156311*
Y155683*
X151339Y155586*
X151287Y155561*
G03X150328Y154031I741J-1530*
G01Y151669*
G03X152029Y149969I1700J0*
G01X152500*
G02X152700Y149769I0J-200*
G01Y149631*
G02X152500Y149431I-200*
G01X152029*
G03X150328Y147731I0J-1701*
G01Y147185*
X150316Y147137*
X150305Y147116*
G03X149950Y145700I2645J-1416*
G01Y144449*
Y144448*
G02X149929Y144359I-200J0*
G03X149750Y143600I1521J-759*
G01Y140600*
G03X151450Y138900I1700*
G01X154450*
G03X156150Y140600J1700*
G01Y143600*
Y143632*
Y143636*
G02X156268Y143818I200J0*
G01X156619Y144030*
X156742Y144072*
X156858*
X156981Y144030*
G03X157140Y143920I1047J1343*
G02X157236Y143749I-104J-171*
G01Y143741*
X157235Y143733*
X157230Y143600*
Y140600*
G03X158930Y138900I1700*
G01X161930*
G03X163630Y140600J1700*
G01Y143600*
Y143604*
G03X163610Y143864I-1700*
G01X163600Y143923*
X163649Y144031*
X164056Y144294*
X164174Y144293*
X164224Y144261*
X164388Y144156*
G02X164483Y143986I-105J-170*
G01Y133645*
G02X164424Y133504I-200J1*
G01X160994Y130073*
G02X160852Y130014I-142J140*
G01X159890*
G02X159690Y130214J200*
G01Y130755*
X159701Y130800*
X159712Y130821*
G03X159890Y131578I-1522J757*
G01Y131580*
Y134580*
G03X158190Y136280I-1700J0*
G01X155190*
G03X153490Y134580I0J-1700*
G01Y131580*
G03X153669Y130821I1700J0*
G01X153679Y130800*
X153690Y130755*
Y130214*
G02X153490Y130014I-200J0*
G01X143348*
G02X143206Y130073I0J200*
G01X141542Y131737*
G02X141483Y131879I140J142*
G01Y142413*
G02X141513Y142518I200J0*
X141931Y143080I3377J-2076*
X142065Y143146I149J-133*
G03X144833Y146137I-232J2991*
G01Y152472*
G02X144900Y152621I200J0*
G01X145153Y152848*
X145234Y152874*
X145276Y152870*
G03X148792Y154808I374J3480*
X149150Y156350I-3142J1542*
X148110Y158840I-3500J0*
G02X148050Y158983I139J143*
G01Y160865*
G02X148101Y160998I200J0*
G03X148531Y162128I-1270J1130*
G01Y162129*
Y165671*
Y165672*
G03X146831Y167372I-1701J-1*
G01X144469*
G03X142769Y165672I0J-1700*
G01Y165671*
Y165200*
G02X142569Y165000I-200*
G01X142431*
G02X142231Y165200J200*
G01Y165671*
Y165672*
G03X140531Y167372I-1701J-1*
G01X138169*
G03X137929Y167355I0J-1700*
G01X137890Y167349*
X137813Y167368*
X137523Y167584*
X137483Y167652*
X137477Y167691*
G03X135795Y169140I-1682J-252*
G01X126346*
G03X124662Y167673I0J-1700*
G01X124652Y167599*
X124539Y167500*
X121461*
X121348Y167599*
X121338Y167673*
G03X119776Y169136I-1684J-233*
G02X119647Y169196I14J199*
G01X119564Y169281*
G02X119507Y169421I142J140*
G01Y176912*
G02X119644Y177102I200J0*
G03X125107Y184689I-2537J7587*
X123369Y189668I-8000J0*
X110476Y189165I-6262J-4978*
G01X110439Y189110*
X110315Y189066*
X109886Y189198*
G02X109745Y189389I59J191*
G01Y213219*
G03X109686Y213360I-200J-1*
G01X96046Y227001*
X96016Y227061*
X96012Y227095*
G03X90743Y231655I-5123J-595*
X85741Y226804I146J-5155*
G01X85734Y226652*
X85732Y226576*
Y226500*
G03X90294Y221377I5157J0*
G01X90328Y221373*
X90388Y221344*
X101686Y210046*
G02X101744Y209905I-141J-141*
G01Y193891*
G02X101651Y193722I-200J0*
G01X101321Y193514*
X101218Y193508*
X101172Y193530*
G03X100440Y193696I-733J-1535*
G01X98281*
X98280Y193695*
X98281*
G03X100440Y191995I4757J3820*
G01X97017Y187328*
Y187327*
X97075Y187271*
X96722Y186926*
X96700Y186896*
X96697Y186900*
G03X96696I0J-1*
G01X92960Y183249*
G03X91261Y185623I-5910J-2435*
X91260I0J-1*
G01Y182546*
G03X92727Y180862I1700J0*
G01X92801Y180852*
X92900Y180739*
Y177661*
X92801Y177548*
X92727Y177538*
G03X91260Y175854I233J-1684*
G01Y166500*
G02X91060Y166300I-200*
G01X86333*
G02X86192Y166359I1J200*
G01X84708Y167842*
G03X84567Y167900I-141J-141*
G01X66477*
G02X66293Y168024I1J200*
G01X66269Y168080*
X66293Y168199*
X70136Y172041*
G02X70277Y172100I142J-140*
G01X77911*
G03X78053Y172158I1J200*
G01X79636Y173741*
G02X79777Y173800I142J-140*
G01X83167*
G02X83310Y173740I0J-200*
G03X88260Y173710I2490J2460*
X89300Y176200I-2460J2490*
X88386Y178558I-3500J-1*
G02X88334Y178693I148J135*
X88338Y178733I200J0*
G03X88372Y179069I-1667J338*
G01Y181431*
G03X86671Y183131I-1700J0*
G01X86200*
G02X86000Y183331I0J200*
G01Y183469*
G02X86200Y183669I200J0*
G01X86671*
G03X88372Y185369I1J1700*
G01Y187731*
G03X87413Y189261I-1700J0*
G01X87361Y189286*
X87300Y189383*
Y192454*
G02X87436Y192643I200J-1*
G01X87856Y192785*
X87979Y192748*
X88018Y192696*
G03X89369Y192028I1351J1032*
G01X91060*
G02X91260Y191828I0J-200*
G01Y188919*
G03X91261Y188918I1J0*
X92960Y191292I-4211J4809*
G01X94773Y189521*
G03X94774I1J1*
G01Y189522*
X92960Y191995*
G03X95119Y193695I-2597J5520*
G01X95120*
X95119Y193696*
X93631*
G02X93431Y193896I0J200*
G01Y195126*
G03X93429I-1*
G01X93419Y195101*
G03X91731Y193729I1011J-2968*
X90701Y192559I1315J-2196*
G01X90399*
G03X89369Y193729I-2344J-1025*
G01X90360Y195425*
Y195426*
X90300Y195500*
X90360Y195574*
Y195575*
X89369Y197271*
G03X90399Y198441I-1315J2196*
G01X90701*
G03X91731Y197271I2344J1025*
X93419Y195899I2699J1596*
G01X93429Y195874*
G03X93431I1*
G01Y197271*
Y197272*
G03X93070Y198319I-1700J-1*
G01X93028Y198442*
Y198558*
X93070Y198681*
G03X93431Y199729I-1340J1048*
G01Y203271*
Y203272*
G03X91731Y204972I-1701J-1*
G01X89369*
G03X88018Y204304I0J-1700*
G01X87979Y204252*
X87856Y204215*
X87436Y204357*
G02X87300Y204546I64J189*
G01Y206231*
Y206232*
G03X87242Y206373I-200J0*
G01X83923Y209692*
G03X83781Y209750I-141J-141*
G01X61676*
G02X61534Y209809I0J200*
G01X58832Y212511*
G02X58774Y212652I141J141*
X58789Y212728I199J0*
G01X58812Y212785*
X58913Y212852*
X63236*
G03X64443Y213355I0J1700*
G02X64585Y213414I142J-141*
G01X65429*
G02X65572Y213355I1J-200*
G03X66779Y212852I1207J1197*
G01X76621*
G03X78322Y214552I1J1700*
G01Y219276*
G03X76621Y220976I-1700J0*
G01X66779*
G03X65572Y220474I-1J-1700*
G02X65429Y220414I-143J140*
G01X64585*
G02X64443Y220474I1J200*
G03X63236Y220976I-1206J-1198*
G01X53393*
G03X52618Y220790I-2J-1700*
G01X52582Y220771*
X52501Y220765*
X52151Y220886*
X52090Y220940*
X52073Y220977*
G03X50469Y222629I-3173J-1476*
G02X50370Y222741I90J179*
G01X50330Y222855*
G02X50319Y222922I190J66*
X50335Y223001I201J0*
G03X50472Y223669I-1563J669*
G01Y226031*
G03X48959Y227721I-1700J0*
G01X48834Y227783*
X48754Y227869*
G02X48700Y228006I146J137*
G37*
%LPC*%
G36*
X14600Y317600D02*
G01X16534D01*
G03X16535Y317601I0J1*
X14600Y319300I-4125J-2746*
X12901Y321000I-3699J-1998*
X12900Y320999I0J-1*
G01Y319300*
G03X14600Y317600I1700*
G37*
G36*
X30259Y98647D02*
G03X40160Y108311I234J9664D01*
X30727Y117975I-9667J0*
X20826Y108311I-234J-9664*
X30259Y98647I9667J0*
G37*
G36*
X33604Y54626D02*
G03X43874Y65000I-104J10374D01*
X33396Y75374I-10374J0*
X23126Y65000I104J-10374*
X33604Y54626I10374J0*
G37*
G36*
X100184Y134708D02*
G01X101914D01*
Y134709*
G03X100184Y136408I-4552J-2905*
X98484Y138760I-7267J-3462*
G01X98483*
Y136408*
G03X100184Y134708I1700J0*
G37*
G36*
X103964D02*
G01X105695D01*
G03X107396Y136408I1J1700*
G01Y139141*
X107395Y139142*
G03X105695Y136600I5313J-5393*
G01X105329Y137132*
X105328*
G03X105327Y137131I0J-1*
G01X105695Y136408*
G03X103964Y134709I2819J-4604*
G01Y134708*
G37*
G36*
X22131Y8204D02*
G03X28900Y15200I-231J6996D01*
X21669Y22196I-7000J0*
X14900Y15200I231J-6996*
X22131Y8204I7000J0*
G37*
G36*
X114692Y221255D02*
G03X119759Y226500I-181J5245D01*
X114330Y231745I-5248J0*
X109263Y226500I181J-5245*
X114692Y221255I5248J0*
G37*
G36*
X157349Y170128D02*
G03X158450Y169950I1102J3322D01*
X161944Y173246I0J3500*
G01X161948Y173301*
X162008Y173392*
X162424Y173590*
X162532Y173580*
X162577Y173548*
G03X163569Y173228I993J1380*
G01X164115*
X164163Y173216*
X164184Y173205*
G03X165600Y172850I1416J2645*
G01X166851*
X166852*
G02X166941Y172829I0J-200*
G03X167700Y172650I759J1521*
G01X170700*
G03X172400Y174350J1700*
G01Y177350*
G03X170700Y179050I-1700J0*
G01X167700*
X167668*
X167664*
G02X167482Y179168I0J200*
G01X167270Y179519*
X167228Y179642*
Y179758*
X167270Y179881*
G03X167381Y180040I-1338J1053*
G02X167551Y180136I171J-104*
G01X167567Y180135*
X167700Y180130*
X170700*
G03X172400Y181830J1700*
G01Y184830*
G03X170700Y186530I-1700J0*
G01X167700*
X167699*
G03X166611Y186136I1J-1701*
G01X166483Y186089*
G02X166425Y186098I1J200*
G03X165931Y186172I-496J-1626*
G01X163569*
G03X161869Y184471I1J-1701*
G01Y184000*
G02X161669Y183800I-200*
G01X161531*
G02X161331Y184000J200*
G01Y184471*
Y184472*
G03X159631Y186172I-1700J0*
G01X157269*
G03X155569Y184471I1J-1701*
G01Y180929*
G03X155930Y179881I1701J0*
G01X155972Y179758*
Y179642*
X155930Y179519*
G03X155569Y178472I1339J-1047*
G01Y178471*
Y175499*
G02X155535Y175388I-200J0*
G03X154950Y173450I2915J-1937*
X157349Y170128I3500J0*
G37*
G36*
X51693Y227938D02*
G03X53393Y226238I1700D01*
G01X56749*
G03X56750Y226239I0J1*
X54400Y227938I-4765J-4116*
G01X56575Y229390*
X56576*
X56575Y229391*
X56574*
X53393Y227938*
G03X51694Y229580I-3496J-1917*
X51693Y229579I0J-1*
G01Y227938*
G37*
%LPD*%
G36*
X157389Y174511D02*
G03X157663Y174660I-542J1323D01*
X157269Y174929I-1303J-1485*
G01X158450Y176800*
X159631Y174929*
G03X159238Y174660I912J-1754*
X159511Y174511I817J1173*
G01X158450Y173350*
X157389Y174511*
G37*
G36*
X166200Y175850D02*
G02X166251Y176166I1000J1D01*
G03X167700Y177350I-956J2649*
G01X169450Y175850*
X167700Y174350*
G03X166251Y175534I-2405J-1465*
G02X166200Y175850I949J315*
G37*
G36*
X163569Y184471D02*
G03X164599Y185641I-1315J2196D01*
G01X164901*
G03X165931Y184471I2344J1025*
X167619Y183099I2698J1595*
G02X167702Y182700I-918J-399*
X167619Y182301I-1001J0*
G03X165931Y180929I1010J-2967*
G01X164500Y182700*
X164560Y182775*
X163569Y184471*
G37*
G36*
X111167Y226500D02*
G02X111460Y227207I1000J0D01*
G03X112632Y228379I-821J1993*
X113804Y229551I-821J1993*
G02X115218I707J-707*
G03X116390Y228379I1993J821*
X117562Y227207I1993J821*
G02X117855Y226500I-707J-707*
X117562Y225793I-1000J0*
G03X116390Y224621I821J-1993*
X115218Y223449I821J-1993*
G02X113804I-707J707*
G03X112632Y224621I-1993J-821*
X111460Y225793I-1993J-821*
G02X111167Y226500I707J707*
G37*
G54D10*
X6400Y7100D03*
Y17700D03*
Y28300D03*
X8900Y92500D03*
Y82500D03*
Y72500D03*
Y112500D03*
Y102500D03*
Y142500D03*
Y132500D03*
Y122500D03*
X254800Y194300D03*
Y214300D03*
Y204300D03*
Y244300D03*
Y234300D03*
Y224300D03*
Y264300D03*
Y254300D03*
G54D11*
X8900Y62500D03*
X254800Y184300D03*
G54D20*
X21900Y283429D03*
X35286D03*
X21900Y299571D03*
X35286D03*
X48672Y283429D03*
Y299571D03*
X79500Y241029D03*
Y257171D03*
X96700Y171129D03*
Y187271D03*
X187000Y166929D03*
Y183071D03*
G54D21*
X48900Y180864D03*
X53900D03*
X58900D03*
Y201336D03*
X53900D03*
X48900D03*
X63900Y180864D03*
X68900D03*
X73900D03*
X78900D03*
Y201336D03*
X73900D03*
X68900D03*
X63900D03*
G54D12*
X12100Y50100D03*
X4900Y48500D03*
X6700Y186800D03*
X4800Y219100D03*
X4100Y209400D03*
X4200Y196700D03*
X11430Y242330D03*
X6200Y228700D03*
X4900Y235000D03*
X11000Y289200D03*
X12629Y299571D03*
X12700Y305600D03*
X3700Y317600D03*
X8100Y322900D03*
X31000Y4000D03*
X19300Y4400D03*
X31900Y39500D03*
X15100Y41300D03*
X16900Y26800D03*
X21200Y51600D03*
X25000Y46400D03*
X18700Y82400D03*
X19800Y96000D03*
X18600Y120000D03*
Y128500D03*
X13200Y159400D03*
X13000Y151200D03*
Y180000D03*
X13200Y170700D03*
X35950Y212150D03*
X24100Y212100D03*
X18100Y236900D03*
X37450Y224850D03*
X19300Y229500D03*
X27600D03*
X23800Y234800D03*
X13000D03*
X33100Y236800D03*
Y233800D03*
X32700Y249800D03*
X15700Y277200D03*
X18700Y277100D03*
X35800Y319300D03*
X13900Y311700D03*
X28400Y308300D03*
X52200Y137200D03*
X45800Y139600D03*
X59100Y157000D03*
Y160600D03*
Y152900D03*
X50000Y155800D03*
X52700Y151000D03*
X45000Y152000D03*
X48900Y145400D03*
X52600Y160900D03*
X48900Y187900D03*
X45164Y180864D03*
X58100Y189300D03*
X60000Y186600D03*
X44600Y187000D03*
X61300Y171300D03*
X48900Y219500D03*
Y216200D03*
X39500Y198100D03*
X49000Y197700D03*
X44600Y210900D03*
X50386Y224850D03*
X51700Y230300D03*
X58314Y234186D03*
X51300Y246200D03*
X52200Y249800D03*
Y253600D03*
X38800Y250500D03*
X44400Y266900D03*
X44000Y249600D03*
X47100D03*
X48000Y277100D03*
X48100Y274000D03*
X39200Y319800D03*
X48600Y308200D03*
X83200Y117100D03*
Y113600D03*
Y120700D03*
X76800Y169600D03*
X78700Y189100D03*
X87800Y171200D03*
X79800Y171400D03*
X83400Y171000D03*
X73900Y186200D03*
X68900Y186100D03*
X85800Y176200D03*
X77900Y195100D03*
X64900Y211500D03*
X78500D03*
X81800Y217600D03*
X64000Y198000D03*
X82300Y224000D03*
X86800Y220200D03*
X80900Y230300D03*
X77800D03*
X63600Y265800D03*
X64000Y293700D03*
X66600Y286000D03*
X64200Y288400D03*
X69100Y279600D03*
X66029Y299571D03*
X70700Y313900D03*
X69900Y306800D03*
X67600Y303600D03*
X68900Y322500D03*
X77300Y322300D03*
X87400Y322900D03*
X101900Y30300D03*
Y37850D03*
Y23269D03*
Y45400D03*
X111750Y55250D03*
X106825Y50325D03*
X92500Y116800D03*
X106800Y117600D03*
X92600Y110400D03*
X89200Y129500D03*
X91100Y137200D03*
X96200Y137600D03*
X97300Y129600D03*
X106800Y167000D03*
X90600Y145200D03*
X95700Y145300D03*
X89900Y183500D03*
X89600Y180500D03*
X111100Y171000D03*
X111400Y176500D03*
X90550Y205950D03*
X88200Y211600D03*
X92900Y215100D03*
X98900Y209200D03*
X108700Y218800D03*
X97500Y232900D03*
X106400Y232700D03*
X101400Y225600D03*
X91100Y262800D03*
X88200Y261500D03*
X88000Y264700D03*
Y317200D03*
X121900Y38700D03*
X125921Y42721D03*
X121900Y26950D03*
Y32825D03*
Y21075D03*
X121600Y65100D03*
X116675Y60175D03*
X129942Y46742D03*
X133962Y50762D03*
X121600Y88900D03*
X125696Y92996D03*
X121600Y77000D03*
Y82950D03*
Y71050D03*
X116600Y118700D03*
X129792Y97092D03*
X133887Y101187D03*
X131200Y131400D03*
X129000Y125900D03*
X114200Y127700D03*
X127500Y142800D03*
X117100Y135700D03*
X127700Y150500D03*
X121600Y193900D03*
X136300Y188400D03*
X128400Y180500D03*
X137700Y172200D03*
X127100Y189100D03*
X120350Y209650D03*
X122950Y212250D03*
X125900Y215200D03*
X134200Y206200D03*
X129300Y200600D03*
X114300Y215300D03*
X129776Y238224D03*
X123900Y223900D03*
X130600Y230600D03*
X113600Y242600D03*
Y234800D03*
X132800Y268300D03*
X129500D03*
X126400D03*
X122500Y248100D03*
X114100Y264500D03*
X118850Y250350D03*
X130600Y256400D03*
X130100Y246100D03*
X126900Y271600D03*
X131000D03*
X114100Y271300D03*
X133800Y284400D03*
X136000Y279700D03*
X130000Y287400D03*
X141900Y25300D03*
Y35400D03*
Y30350D03*
Y20250D03*
X150250Y43750D03*
X146075Y39575D03*
X161900Y31400D03*
Y20900D03*
Y26150D03*
X137983Y54783D03*
Y67385D03*
Y61084D03*
X158600Y52100D03*
Y65800D03*
Y59200D03*
X154425Y47925D03*
X137983Y73686D03*
X158600Y89849D03*
Y72400D03*
Y78900D03*
Y84500D03*
X137983Y105283D03*
X160430Y138930D03*
X162200Y133900D03*
X150200Y135700D03*
X145700Y132500D03*
X159900Y168500D03*
X145650Y156350D03*
X143700Y179500D03*
X153000D03*
X158450Y173450D03*
X155417Y216517D03*
X138000Y198800D03*
X151200Y203500D03*
X145800Y225700D03*
X141100Y220400D03*
X162500Y227300D03*
X170319Y39819D03*
X174529Y44029D03*
X166110Y35610D03*
X182000Y26700D03*
X181900Y20950D03*
X185325Y30125D03*
X178739Y48239D03*
Y61500D03*
Y68300D03*
Y54800D03*
Y74144D03*
X168669Y99918D03*
X173704Y104953D03*
X163635Y94883D03*
X181500Y138100D03*
X178800Y141300D03*
X180100Y134500D03*
X164000Y161900D03*
X180500Y174600D03*
X176100Y172700D03*
X164300Y187100D03*
X176783Y216517D03*
X172600Y203500D03*
X179000Y203200D03*
X181800Y227400D03*
X172000Y227200D03*
X195600Y40400D03*
X188750Y33550D03*
X192175Y36975D03*
X211700Y41298D03*
Y36149D03*
Y31000D03*
X201900Y21200D03*
X206800Y26100D03*
X195600Y63247D03*
Y51823D03*
Y57535D03*
Y46112D03*
Y68958D03*
X211700Y51597D03*
Y61895D03*
Y67044D03*
Y56746D03*
Y46447D03*
X195600Y74670D03*
Y80382D03*
Y86093D03*
X200203Y90697D03*
X211700Y72193D03*
X204853Y95347D03*
X209503Y99997D03*
X193900Y192800D03*
X200000Y189100D03*
X194700Y176600D03*
X200700Y176800D03*
X208600Y192800D03*
X204850Y182700D03*
X207550Y186050D03*
X198183Y216517D03*
X193800Y203500D03*
X200700Y202700D03*
X203900Y227200D03*
X194300Y227300D03*
X215203Y75697D03*
X235300Y90500D03*
X236300Y85600D03*
X214255Y104749D03*
X234900Y95600D03*
X235000Y100800D03*
X237400Y103700D03*
X227600Y168500D03*
X224500Y165400D03*
X227600Y162700D03*
X219600Y192900D03*
X219400Y187400D03*
X224800Y172100D03*
X228300Y191300D03*
X219483Y216517D03*
X215400Y203500D03*
X229300Y215100D03*
X228100Y203500D03*
X233800Y237500D03*
X233300Y231500D03*
X241200Y85700D03*
X238800Y88900D03*
X242200Y90600D03*
X238700Y93400D03*
X242000Y95800D03*
X241500Y101000D03*
X238300Y98300D03*
X240900Y104100D03*
X246100Y180600D03*
X241600Y180100D03*
X244500Y216300D03*
X238200Y196400D03*
X241200Y208200D03*
X242600Y239300D03*
X241400Y231400D03*
X243000Y248900D03*
X246200Y264400D03*
G54D30*
X99400Y241527D03*
Y259873D03*
G54D31*
X91190Y271300D03*
X100245D03*
X109300D03*
G54D22*
X58314Y216914D03*
Y230300D03*
X71700Y216914D03*
Y230300D03*
G54D13*
X7600Y262400D03*
X15600D03*
X25600Y321800D03*
X17600D03*
X47700D03*
X55700D03*
G54D23*
X46650Y219500D03*
X40350D03*
X84250Y201500D03*
Y195500D03*
X73050Y293700D03*
X66750D03*
X90550Y201500D03*
Y195500D03*
X112550Y258700D03*
X118850D03*
X139350Y163900D03*
X145650D03*
X158450Y176700D03*
Y182700D03*
X164750Y176700D03*
Y182700D03*
G54D14*
X21900Y15200D03*
Y311600D03*
X41900Y15200D03*
X61900D03*
Y311600D03*
X41900D03*
X81900Y15200D03*
Y311600D03*
X101900Y15200D03*
Y311600D03*
X121900Y15200D03*
Y311600D03*
X141900Y15200D03*
X161900D03*
Y311600D03*
X141900D03*
X181900Y15200D03*
Y311600D03*
X201900Y15200D03*
Y311600D03*
X221900Y15200D03*
Y311600D03*
X241900Y15200D03*
Y311600D03*
G54D32*
X100245Y296103D03*
G54D24*
X60868Y241439D03*
X58900D03*
X56932D03*
X54963D03*
Y258761D03*
X56932D03*
X58900D03*
X60868D03*
X62837Y241439D03*
Y258761D03*
G54D33*
X137983Y79987D03*
Y109987D03*
X178739Y79987D03*
Y109987D03*
X167983Y149987D03*
X173800Y194000D03*
X208739Y149987D03*
X213800Y164000D03*
X219494Y79987D03*
Y109987D03*
X249494Y149987D03*
X243800Y164000D03*
G54D15*
X33500Y65000D03*
Y261800D03*
X230300Y65000D03*
Y261800D03*
G54D25*
X82861Y107471D03*
Y141329D03*
X102939Y107471D03*
Y141329D03*
G54D16*
X16300Y62550D03*
Y56250D03*
X27000Y205850D03*
Y212150D03*
X33000Y205850D03*
Y212150D03*
X31300Y308150D03*
Y314450D03*
X41000Y231150D03*
Y224850D03*
X47000Y231150D03*
Y224850D03*
X39900Y239250D03*
X45900D03*
X57600Y268850D03*
X39900Y245550D03*
X45900D03*
X57600Y275150D03*
X51900Y308150D03*
Y314450D03*
X84900Y186550D03*
Y180250D03*
X75600Y268850D03*
X63600D03*
X69500Y246750D03*
Y253050D03*
X81600Y268850D03*
X69600D03*
X75600Y275150D03*
X63600D03*
X81600D03*
X69600D03*
X153800Y152850D03*
Y146550D03*
X159800Y152850D03*
Y146550D03*
X193300Y152850D03*
Y146550D03*
X199300Y152850D03*
Y146550D03*
X233700Y152850D03*
Y146550D03*
X239700Y152850D03*
Y146550D03*
G54D34*
X137983Y149987D03*
X178739D03*
X173800Y164000D03*
X219494Y149987D03*
G54D35*
X152950Y142100D03*
X160430D03*
X156690Y133080D03*
X169200Y175850D03*
Y183330D03*
X178220Y179590D03*
X192450Y142100D03*
X199930D03*
X196190Y133080D03*
X232850Y142100D03*
X236590Y133080D03*
X240330Y142100D03*
G54D26*
X75850Y156900D03*
X97110D03*
G54D17*
X30493Y108311D03*
Y184689D03*
X117107Y108311D03*
Y146500D03*
Y184689D03*
G54D27*
X76600Y300400D03*
G54D18*
X19500Y199500D03*
Y214100D03*
G54D19*
X33100Y221070D03*
X28100D03*
X23100D03*
X18100D03*
Y242330D03*
X23100D03*
X28100D03*
X33100D03*
G54D28*
X114929Y163700D03*
X131071D03*
X144029Y124300D03*
X160171D03*
X183529D03*
X199671D03*
X223929D03*
X240071D03*
G54D29*
X90889Y226500D03*
X114511D03*
G54D12*
X11614Y62500D02*
G01X16250D01*
X16300Y62550*
X16200Y78600D02*
G01X10100Y72500D01*
X8900*
X16300Y66531D02*
G01Y62550D01*
X23050Y283429D02*
G01X29200Y289579D01*
Y294636*
X34135Y299571*
X35286*
X23050Y283429D02*
G01X21900D01*
X71700Y216914D02*
G01X58314D01*
X44000Y249600D02*
G01X47100D01*
X85671Y241029D02*
G01X79500D01*
X82300Y224000D02*
G01Y224900D01*
X85200Y227800*
Y233500*
X85500Y233800*
Y233800D02*
G01X79500Y239800D01*
Y241029*
X65300Y235900D02*
G01X68700D01*
X71700Y232900*
Y230300*
Y230300D02*
G01X77800D01*
Y230300D02*
G01X80900D01*
X99400Y241527D02*
G01X96327Y244600D01*
X89600*
X85700Y248500*
Y252121*
X80650Y257171*
X79500*
X61900Y311600D02*
G01Y304900D01*
X67626Y311600D02*
G01X61900D01*
X97110Y156900D02*
G01X98010Y156000D01*
X131300*
X137313Y149987*
X137983*
X96700Y195000D02*
G01Y187271D01*
Y187271D02*
G01X91060D01*
X132800Y268300D02*
G01X137800Y263300D01*
Y240900*
X129500Y268300D02*
G01X132800D01*
X144029Y124300D02*
G01Y120000D01*
X147029Y117000*
X169400*
X176700Y124300*
X183529*
X137983Y149987D02*
G01Y130346D01*
X144029Y124300*
X160171D02*
G01X167983Y132112D01*
Y149987*
X146400Y232300D02*
G01X149600D01*
X155417Y226483*
Y216517*
X143000Y232300D02*
G01X146400D01*
X137800Y237500D02*
G01X143000Y232300D01*
X137800Y237500D02*
G01Y234300D01*
Y234300D02*
G01Y227100D01*
X143000Y232300D02*
G01X139800D01*
X137800Y234300*
Y240900D02*
G01Y237500D01*
Y240900D02*
G01X143000Y235700D01*
Y235700D02*
G01Y232300D01*
Y235700D02*
G01X146400Y232300D01*
X183529Y124300D02*
G01X183479Y124249D01*
Y118921*
X185600Y116800*
X206100*
X213600Y124300*
X223929*
X178739Y149987D02*
G01X173800Y145049D01*
Y134029*
X183529Y124300*
X178739Y149987D02*
G01Y159061D01*
X173800Y164000*
X199671Y124300D02*
G01X208739Y133368D01*
Y149987*
X219494D02*
G01Y128735D01*
X223929Y124300*
X240071D02*
G01X249494Y133723D01*
Y149987*
G54D40*
X100245Y271300D02*
G01Y296103D01*
G54D41*
X101900Y15200D02*
G01Y23269D01*
Y45400D02*
G01X106825Y50325D01*
X101900Y30300D02*
G01Y37850D01*
Y37850D02*
G01Y45400D01*
Y23269D02*
G01Y30300D01*
X111750Y55250D02*
G01X116675Y60175D01*
X106825Y50325D02*
G01X111750Y55250D01*
X121900Y15200D02*
G01Y21075D01*
Y21075D02*
G01Y26950D01*
Y38700D02*
G01X125921Y42721D01*
X129942Y46742D02*
G01X133962Y50762D01*
X125921Y42721D02*
G01X129942Y46742D01*
X121900Y26950D02*
G01Y32825D01*
Y32825D02*
G01Y38700D01*
X121600Y65100D02*
G01Y71050D01*
Y71050D02*
G01Y77000D01*
X116675Y60175D02*
G01X121600Y65100D01*
X137983Y54783D02*
G01Y61084D01*
X133962Y50762D02*
G01X137983Y54783D01*
Y67385D02*
G01Y73686D01*
Y61084D02*
G01Y67385D01*
X121600Y88900D02*
G01X125696Y92996D01*
X129792Y97092D02*
G01X133887Y101187D01*
X125696Y92996D02*
G01X129792Y97092D01*
X121600Y77000D02*
G01Y82950D01*
Y82950D02*
G01Y88900D01*
X137983Y73686D02*
G01Y79987D01*
X133887Y101187D02*
G01X137983Y105283D01*
Y105283D02*
G01Y109987D01*
X141900Y15200D02*
G01Y20250D01*
Y20250D02*
G01Y25300D01*
X161900Y20900D02*
G01Y15200D01*
Y26150D02*
G01Y20900D01*
X141900Y25300D02*
G01Y30350D01*
Y35400D02*
G01X146075Y39575D01*
X141900Y30350D02*
G01Y35400D01*
X150250Y43750D02*
G01X154425Y47925D01*
X146075Y39575D02*
G01X150250Y43750D01*
X161900Y31400D02*
G01X166110Y35610D01*
X161900Y31400D02*
G01Y26150D01*
X154425Y47925D02*
G01X158600Y52100D01*
Y59200D02*
G01Y52100D01*
Y65800D02*
G01Y59200D01*
Y72400D02*
G01Y65800D01*
Y89849D02*
G01X163635Y94883D01*
X158600Y72400D02*
G01Y78900D01*
Y89849D02*
G01Y84500D01*
Y84500D02*
G01Y78900D01*
X163635Y94883D02*
G01X168669Y99918D01*
X181900Y15200D02*
G01Y20950D01*
Y20950D02*
G01Y26700D01*
X185325Y30125*
X170319Y39819D02*
G01X174529Y44029D01*
Y44029D02*
G01X178739Y48239D01*
X166110Y35610D02*
G01X170319Y39819D01*
X188750Y33550D02*
G01X192175Y36975D01*
X185325Y30125D02*
G01X188750Y33550D01*
X178739Y54800D02*
G01Y48239D01*
Y61500D02*
G01Y54800D01*
Y68300D02*
G01Y61500D01*
Y74144D02*
G01Y68300D01*
Y79987D02*
G01Y74144D01*
X168669Y99918D02*
G01X173704Y104953D01*
Y104953D02*
G01X178739Y109987D01*
X201900Y15200D02*
G01Y21200D01*
Y21200D02*
G01X206800Y26100D01*
X195600Y40400D02*
G01Y46112D01*
X192175Y36975D02*
G01X195600Y40400D01*
Y46112D02*
G01Y51823D01*
X211700Y41298D02*
G01Y46447D01*
Y36149D02*
G01Y41298D01*
Y31000D02*
G01Y36149D01*
X206800Y26100D02*
G01X211700Y31000D01*
X195600Y63247D02*
G01Y68958D01*
Y51823D02*
G01Y57535D01*
Y57535D02*
G01Y63247D01*
Y68958D02*
G01Y74670D01*
X211700Y51597D02*
G01Y56746D01*
Y61895D02*
G01Y67044D01*
Y56746D02*
G01Y61895D01*
Y46447D02*
G01Y51597D01*
Y72193D02*
G01Y67044D01*
X195600Y74670D02*
G01Y80382D01*
Y80382D02*
G01Y86093D01*
X200203Y90697D02*
G01X195600Y86093D01*
X204853Y95347D02*
G01X200203Y90697D01*
X204853Y95347D02*
G01X209503Y99997D01*
X219494Y79987D02*
G01X215203Y75697D01*
Y75697D02*
G01X211700Y72193D01*
X209503Y99997D02*
G01X214255Y104749D01*
Y104749D02*
G01X219494Y109987D01*
X221900Y15200D02*
G01Y15400D01*
G54D36*
X85800Y176200D02*
G01X78700D01*
X77000Y174500*
X69200*
X62800Y168100*
X52200*
X14600Y130500*
Y88200*
X8900Y82500*
X78900Y180864D02*
G01Y179600D01*
X75900Y176600*
X67363*
X65063Y174300*
X51363*
X14163Y137100*
X11500*
X8900Y134500*
Y132500*
Y142500D02*
G01Y141000D01*
X11000Y138900*
X13700*
X50700Y175900*
X58100*
X58900Y176700*
Y180864*
X6200Y228700D02*
G01X8937D01*
X11900Y225737*
Y196390*
X13990Y194300*
X26963*
X32863Y200200*
X37400*
X39500Y198100*
X53900Y180864D02*
G01Y190300D01*
X52400Y191800*
X45574*
X42900Y194474*
Y199563*
X40663Y201800*
X32200*
X26300Y195900*
X14653*
X13500Y197053*
Y226400*
X4900Y235000*
X68900Y201336D02*
G01Y197300D01*
X66600Y195000*
X46900*
X46100Y195800*
Y204700*
X45300Y205500*
X42237*
X39700Y208037*
Y212600*
X36700Y215600*
X29400*
X28100Y216900*
Y221070*
X33100D02*
G01Y219200D01*
X35100Y217200*
X37600*
X24100Y212100D02*
G01X26950D01*
X27000Y212150*
X18100Y221070D02*
G01Y215500D01*
X19500Y214100*
X24100Y212100D02*
G01X22700D01*
X20700Y214100*
X19500*
X27000Y205850D02*
G01X33000D01*
Y205850D02*
G01X39624D01*
X41574Y203900*
X43700*
X44500Y203100*
Y195137*
X46237Y193400*
X71000*
X73900Y196300*
Y201336*
X19500Y199500D02*
G01X24400D01*
X27000Y202100*
Y205850*
X23100Y221070D02*
G01X28100D01*
X28400Y308300D02*
G01X31150D01*
X31300Y308150*
Y314450D02*
G01X30900D01*
X30100Y315250*
Y320900*
X29200Y321800*
X25600*
X58900Y180864D02*
G01X63900D01*
X49000Y197700D02*
G01Y201236D01*
X48900Y201336*
X37600Y217200D02*
G01X41300Y213500D01*
Y208700*
X42900Y207100*
X52700*
X53900Y205900*
Y201336*
X40350Y219500D02*
G01X38400D01*
X37600Y218700*
Y217200*
X58900Y201336D02*
G01Y203400D01*
X53600Y208700*
X46800*
X44600Y210900*
X60868Y241439D02*
G01Y236832D01*
X61800Y235900*
X65300*
X47000Y231150D02*
G01X52850Y237000D01*
X56200*
X56932Y237732*
Y241439*
X41000Y231150D02*
G01X44550Y234700D01*
X47700*
X52000Y239000*
X54300*
X54963Y239663*
Y241439*
X48900Y219500D02*
G01X46650D01*
X56932Y258761D02*
G01Y268182D01*
X57600Y268850*
X58900Y258761D02*
G01Y262300D01*
X59700Y263100*
X69400*
X75150Y268850*
X75600*
X63600Y275150D02*
G01X63150D01*
X60500Y272500*
Y271200*
X58150Y268850*
X57600*
X69100Y279600D02*
G01X59000D01*
X57600Y278200*
Y275150*
X48600Y308200D02*
G01X51850D01*
X51900Y308150*
Y314450D02*
G01X51250D01*
X49700Y316000*
Y319800*
X47700Y321800*
X84900Y186550D02*
G01Y194850D01*
X84250Y195500*
X78900Y180864D02*
G01X84286D01*
X84900Y180250*
X73900Y180864D02*
G01Y186200D01*
X68900Y180864D02*
G01Y186100D01*
X64000Y198000D02*
G01Y201236D01*
X63900Y201336*
X65600Y244800D02*
G01X64000D01*
X62837Y243637*
Y241439*
X69500Y256200D02*
G01X63637D01*
X62837Y257000*
Y258761*
X81600Y268850D02*
G01X75600D01*
X69600Y275150D02*
G01X75600D01*
X117107Y184689D02*
G01Y165878D01*
X114929Y163700*
X139350Y163900D02*
G01X131271D01*
X131071Y163700*
X145650Y163900D02*
G01Y156350D01*
X159800Y152850D02*
G01X159250D01*
X156900Y150500*
Y149000*
X154450Y146550*
X153800*
Y152850D02*
G01Y155400D01*
X155500Y157100*
X162200*
X164000Y158900*
Y161900*
X158450Y182700D02*
G01Y182150D01*
X160800Y179800*
X162300*
X164750Y177350*
Y176700*
X158450D02*
G01Y173450D01*
X199300Y152850D02*
G01X198750D01*
X196400Y150500*
Y149000*
X193950Y146550*
X193300*
X254800Y194300D02*
G01X249700D01*
X248900Y193500*
Y189400*
X246700Y187200*
X238800*
X229100Y177500*
X208800*
X201100Y169800*
Y163000*
X198700Y160600*
X196100*
X193300Y157800*
Y152850*
X254800Y204300D02*
G01X247000Y196500D01*
Y190600*
X245500Y189100*
X237800*
X228300Y179600*
X210800*
X207850Y182550*
X205000*
X204850Y182700*
X254800Y214300D02*
G01X250000Y209500D01*
Y202900*
X245000Y197900*
Y191700*
X244200Y190900*
X236500*
X227500Y181900*
X211700*
X207550Y186050*
X254800Y184300D02*
G01X253800Y185300D01*
X240000*
X233700Y179000*
Y152850*
X239700D02*
G01X239150D01*
X236800Y150500*
Y149000*
X234350Y146550*
X233700*
G54D37*
X35800Y319300D02*
G01X35100Y318600D01*
X48672Y299571D02*
G01Y300628D01*
X63800Y164900D02*
G01X68400Y169500D01*
Y169500D02*
G01X69200D01*
X60868Y258761D02*
G01Y252132D01*
X157030Y142100D02*
G01X160430D01*
Y142100D02*
G01X163830D01*
X169200Y179930D02*
G01Y183330D01*
Y183330D02*
G01Y186730D01*
Y183330D02*
G01X172600D01*
G54D38*
X6400Y17700D02*
G01Y28300D01*
Y7100D02*
G01Y17700D01*
Y17700D02*
G01X12700D01*
X6400Y7100D02*
G01X14200D01*
X6400Y36200D02*
G01Y28300D01*
Y28300D02*
G01X12700D01*
X8900Y72500D02*
G01X2600D01*
X23100Y242330D02*
G01Y248100D01*
X21100Y250100*
X10500*
X7500Y253100*
Y262300*
X7600Y262400*
X14200Y277200D02*
G01X7600Y270600D01*
Y262400*
X16300Y56250D02*
G01Y53169D01*
Y56250D02*
G01X19972D01*
X11800Y54900D02*
G01X13150Y56250D01*
X16300*
X14944Y134456D02*
G01X51789Y171300D01*
X61300*
X33000Y212150D02*
G01X35950D01*
X18100Y242330D02*
G01Y236900D01*
Y242330D02*
G01X11430D01*
X39900Y245550D02*
G01X35100D01*
X33100Y243550*
Y242330*
Y242330D02*
G01Y236800D01*
Y236800D02*
G01Y233800D01*
X15600Y262400D02*
G01Y256200D01*
X17700Y254100*
X24100*
X28100Y250100*
Y242330*
X35286Y283429D02*
G01X32700Y280843D01*
Y276000*
X28200Y271500*
X18500*
X15600Y268600*
Y262400*
X15700Y277200D02*
G01X14200D01*
X17600Y321800D02*
G01Y317400D01*
Y321800D02*
G01X12700D01*
X45000Y152000D02*
G01X44800D01*
X48900Y180864D02*
G01Y187900D01*
Y180864D02*
G01X45164D01*
X48900Y216200D02*
G01Y219500D01*
X84250Y201500D02*
G01X84300Y201550D01*
Y205072*
X82622Y206750*
X60350*
X55300Y211800*
X50500*
X48900Y213400*
Y216200*
X41000Y224850D02*
G01X47000D01*
Y224850D02*
G01X50386D01*
X41000D02*
G01X37450D01*
X39900Y239250D02*
G01X45900D01*
X58314Y230300D02*
G01X51700D01*
X58314D02*
G01Y234186D01*
Y230300D02*
G01Y224314D01*
X51300Y246200D02*
G01Y243186D01*
Y243186D02*
G01X47364Y239250D01*
X45900*
Y245550D02*
G01X39900D01*
X45900Y247700D02*
G01Y248400D01*
X47100Y249600*
X45900Y247700D02*
G01X44000Y249600D01*
X45900Y245550D02*
G01Y247700D01*
X55700Y321800D02*
G01Y317800D01*
X61900Y311600*
X55700Y321800D02*
G01X63600D01*
X84250Y201500D02*
G01Y195500D01*
Y201500D02*
G01X79064D01*
X78900Y201336*
X63600Y268850D02*
G01Y265800D01*
X69500Y246750D02*
G01X67550Y244800D01*
X65600*
X79500Y257171D02*
G01X78771Y257900D01*
X71200*
X69500Y256200*
Y256200D02*
G01Y253050D01*
X69600Y268850D02*
G01X63600D01*
X81600Y275150D02*
G01Y279400D01*
X66750Y293700D02*
G01Y290517D01*
X67500Y289767*
Y289767D02*
G01Y286900D01*
X66600Y286000*
X73050Y293700D02*
G01X75700D01*
X84150Y296900D02*
G01X99448D01*
X66750Y293700D02*
G01X64000D01*
X66750D02*
G01Y298850D01*
Y298850D02*
G01X66029Y299571D01*
X90550Y195500D02*
G01Y191828D01*
Y201500D02*
G01Y195500D01*
Y201500D02*
G01Y205950D01*
X94200Y195500D02*
G01X90550D01*
X114511Y226500D02*
G01X109063D01*
X100227Y258700D02*
G01X112550D01*
X99400Y257873D02*
G01X100227Y258700D01*
X99448Y296900D02*
G01X100245Y296103D01*
X114511Y226500D02*
G01Y231948D01*
Y226500D02*
G01X119959D01*
X114511D02*
G01Y221052D01*
X118850Y258700D02*
G01Y250350D01*
Y258700D02*
G01Y262372D01*
Y258700D02*
G01X121931D01*
X159800Y146550D02*
G01Y142730D01*
X160430Y142100*
Y142100D02*
G01Y138930D01*
X156690Y133080D02*
G01Y127781D01*
X160171Y124300*
X152950Y142100D02*
G01Y145700D01*
X153800Y146550*
X155417Y216517D02*
G01X176783D01*
X181500Y138100D02*
G01X196400D01*
X199930Y141630*
Y142100*
X173800Y164000D02*
G01X184071D01*
X187000Y166929*
X164750Y182700D02*
G01X168570D01*
X169200Y183330*
X164750Y182700D02*
G01Y186650D01*
Y186650D02*
G01X164300Y187100D01*
X169200Y175850D02*
G01X165600D01*
X164750Y176700*
X173800Y194000D02*
G01X183600D01*
X184400Y193200*
X178220Y179590D02*
G01X183519D01*
X187000Y183071*
X184400Y193200D02*
G01X187000Y190600D01*
Y183071*
X176783Y216517D02*
G01X198183D01*
X199300Y146550D02*
G01Y142730D01*
X199930Y142100*
X192450D02*
G01Y145700D01*
X193300Y146550*
X196190Y133080D02*
G01Y127781D01*
X199671Y124300*
X198183Y216517D02*
G01X219483D01*
X227600Y162700D02*
G01Y140200D01*
X230200Y137600*
X236100*
X240330Y141830*
Y142100*
X236590Y133080D02*
G01Y127781D01*
X240071Y124300*
X232850Y142100D02*
G01Y145700D01*
X233700Y146550*
X227600Y168500D02*
G01Y162700D01*
X239700Y146550D02*
G01Y142730D01*
X240330Y142100*
G54D39*
X8900Y62500D02*
G01X11614D01*
X59100Y152900D02*
G01Y103000D01*
X39700Y83600*
X30100*
X16300Y69800*
Y66531*
X35286Y283429D02*
G01X48672D01*
X21900Y299571D02*
G01X12629D01*
X59100Y157000D02*
G01Y160600D01*
Y157000D02*
G01Y152900D01*
X48672Y299571D02*
G01X66029D01*
X83200Y113600D02*
G01Y107810D01*
X82861Y107471*
X83200Y117100D02*
G01Y113600D01*
Y120700D02*
G01Y117100D01*
X82861Y141329D02*
G01Y147140D01*
X75850Y154150*
Y156900*
X117107Y108311D02*
G01X103780D01*
X102939Y107471*
Y141329D02*
G01X107596D01*
X96229D02*
G01X102939D01*
Y133139D02*
G01Y141329D01*
X96700Y171129D02*
G01Y157310D01*
X97110Y156900*
X96700Y171129D02*
G01X102829D01*
X105744Y174044*
Y211644*
X90889Y226500*
X109300Y271300D02*
G01Y269300D01*
X114100Y264500*
X91190Y271300D02*
G01X91100Y271210D01*
Y262800*
Y262800D02*
G01X96027Y257873D01*
Y257873D02*
G01X99400D01*
X109300Y271300D02*
G01X114100D01*
X120350Y209650D02*
G01X122950Y212250D01*
X125900Y215200D02*
G01X122950Y212250D01*
X137800Y227100D02*
G01X125900Y215200D01*
X143000Y232300D02*
G01X137800Y227100D01*
M02*
