M48
INCH,LZ
VER,1
FMAT,2
T01C0.015F1B1S6H2000
T02C0.033461F1B1S6H2000
T03C0.042F1B1S6H2000
T04C0.052F1B1S6H2000
T05C0.06F1B1S6H2000
T06C0.08F1B1S6H2000
T07C0.12598F1B1S6H2000
DETECT,ON
ATC,ON
%
T01
X00193Y00044
X00169Y00268
X00151Y00413
X00049Y00485
X00121Y00501
X00187Y00824
X00198Y0096
X00186Y012
Y01285
X0013Y01512
X00132Y01594
Y01707
X0013Y018
X00067Y01868
X00042Y01967
X00041Y02094
X00048Y02191
X00062Y02287
X00193Y02295
X0013Y02348
X00049Y0235
X00181Y02369
X001143Y024233
X00187Y02771
X00157Y02772
X0011Y02892
X001263Y029957
X00127Y03056
X00139Y03117
X00037Y03176
X00081Y03229
X00392Y03198
X00358Y03193
X00284Y03083
X00388Y02505
X00327Y02498
X00331Y02368
X00238Y02348
X00331Y02338
X00276Y02295
X003745Y022485
X003595Y021215
X00241Y02121
X00395Y01981
X00212Y00516
X0025Y00464
X00319Y00395
X0031Y0004
X00522Y01372
X00458Y01396
X00489Y01454
X00527Y0151
X0045Y0152
X00591Y01529
X005Y01558
X00591Y0157
Y01606
X00526Y01609
X004516Y018086
X00446Y0187
X00489Y01879
X00581Y01893
X0049Y01977
X00446Y02109
X00489Y02162
Y02195
X005039Y022485
X00517Y02303
X005831Y023419
X00513Y02462
X0044Y02496
X00471
X00522Y02498
Y02536
X00444Y02669
X00481Y0274
X0048Y02771
X00486Y03082
X00689Y03225
X00773Y03223
X00707Y03139
X00699Y03068
X00676Y03036
X006603Y029957
X0064Y02937
X00642Y02884
X00666Y0286
X00691Y02796
X00636Y02658
X00778Y02303
X00785Y02115
X00649
X0064Y0198
X00779Y01951
X00787Y01891
X006Y01866
X00739Y01862
X00689Y01861
X00798Y01714
X00613Y01713
X00768Y01696
X00926Y01104
X00832Y01136
X00925Y01168
X00832Y01171
Y01207
X00892Y01295
X00973Y01296
X00911Y01372
X00962Y01376
X00906Y01452
X00957Y01453
X00834Y0171
X00878Y01712
X00858Y01762
X00896Y01805
X00899Y01835
X009055Y020595
X00989Y02092
X00882Y02116
X00929Y02151
X00818Y02176
X00868Y02202
X00823Y0224
X00809Y02303
X00975Y02329
X00882Y02615
X00911Y02628
X0088Y02647
Y03172
X00874Y03229
X01141Y02713
Y02645
X011885Y025035
X01136Y02426
Y02348
X01064Y02327
X01014Y02256
X01087Y02188
X01143Y02153
X01114Y01765
X01111Y0171
X01068Y0167
X01171Y01357
X01142Y01277
X01166Y01187
X01068Y01176
X011668Y006018
X011175Y005525
X010682Y005032
X01019Y00454
Y003785
Y00303
Y002327
X01219Y002108
Y002695
Y003283
Y003871
X012592Y004272
X012994Y004674
X013396Y005076
X013798Y005478
Y006108
X01216Y00651
X013798Y006739
X01216Y007105
X013798Y007369
X01216Y0077
Y008295
Y00889
X01257Y0093
X012979Y009709
X013389Y010119
X013798Y010528
X0129Y01259
X01312Y01314
X01275Y01428
X01277Y01505
X01377Y01722
X01284Y01805
X01363Y01884
X01271Y01891
X01216Y01939
X0138Y01988
X01293Y02006
X01342Y02062
X012035Y020965
X012295Y021225
X01259Y02152
X01239Y02239
X01306Y02306
X012978Y023822
X01301Y02461
X01225Y02481
X01306Y02564
X01264Y02683
X01295
X01328
X01269Y02716
X0131
X0136Y02797
X01338Y02844
X013Y02874
X01458Y02257
X01411Y02204
X015542Y021652
X01512Y02035
X0153Y01795
X01437
X015845Y017345
X01599Y01685
X014565Y015635
X01502Y01357
X01457Y01325
X01586Y008985
Y00845
Y00789
Y00724
Y00658
Y00592
Y00521
X015442Y004793
X015025Y004375
X014608Y003958
X01419Y00354
Y003035
Y00253
Y002025
X01619Y00209
Y002615
Y00314
X016611Y003561
X017032Y003982
X017453Y004403
X017874Y004824
Y00548
Y00615
Y00683
Y007414
X016363Y009488
X016867Y009992
X01737Y010495
X01622Y01339
X016043Y013893
X01788Y01413
X0164Y01619
X01761Y01727
X01643Y01871
X0179Y02032
X01726Y02035
X017678Y021652
X0172Y02272
X01625Y02273
X01818Y02274
X01943Y02273
X019818Y021652
X01938Y02035
X01939Y01928
X01947Y01766
X01805Y01746
X01815Y01381
X01801Y01345
X01956Y008609
Y008038
Y007467
Y006896
Y006325
Y005754
Y005183
Y004612
Y00404
X019218Y003698
X018875Y003355
X018532Y003012
X0182Y00267
X01819Y002095
X02019Y00212
X02068Y00261
X02117Y0031
Y003615
Y00413
Y004645
Y00516
Y005675
Y00619
Y006705
Y007219
X02152Y00757
X02002Y00907
X020485Y009535
X02095Y01
X021426Y010475
X02007Y01768
X020485Y01827
X020755Y018605
X02194Y01874
X02Y01891
X02086Y01928
X02196Y01929
X02007Y02027
X02154Y02035
X021948Y021652
X02039Y02272
X02338Y02375
X02333Y02315
X02293Y02151
X02281Y02035
X02382Y01964
X02283Y01913
X02248Y01721
X02276Y01685
X02245Y01654
X02276Y01627
X02374Y01037
X0235Y01008
X02383Y00983
X02349Y00956
X02387Y00934
X02353Y00905
X02388Y00889
X02363Y00856
X02412Y00857
X02422Y00906
X0242Y00958
X02415Y0101
X02409Y01041
X02416Y01801
X02461Y01806
X02412Y02082
X02445Y02163
X02414Y02314
X02426Y02393
X0243Y02489
X02462Y02644
T02
X009089Y02265
X011451
T03
X00064Y00071
Y00177
Y00283
X00089Y00625
Y00725
Y00825
Y00925
Y01025
Y01125
Y01225
Y01325
Y01425
X02548Y01843
Y01943
Y02043
Y02143
Y02243
Y02343
Y02443
Y02543
Y02643
T04
X013798Y007999
Y010999
Y014999
X01738Y0194
Y0164
X017874Y014999
X016798
X017874Y010999
Y007999
X021949
Y010999
X020874Y014999
X021949
X02138Y0164
X02438
X024949Y014999
T05
X00219Y00152
X00419
X00619
X00819
X01019
X01219
X01419
X01619
X01819
X02019
X02219
X02419
Y03116
X02219
X02019
X01819
X01619
X01419
X01219
X01019
X00819
X00619
X00419
X00219
T06
X003049Y010831
Y018469
X011711
Y01465
Y010831
T07
X00335Y0065
X02303
Y02618
X00335
M30
