G04 CAM350/DFMSTREAM V12.1 (Build 1022) Date:  Thu Oct 23 21:27:19 2025 *
G04 Database: (Untitled) *
G04 Layer 3: PASTEMASK_BOTTOM.art *
%FSLAX25Y25*%
%MOIN*%
%SFA1.000B1.000*%

%MIA0B0*%
%IPPOS*%
%ADD10C,0.06200*%
%ADD11R,0.06200X0.06200*%
%ADD13R,0.06000X0.05000*%
%ADD16R,0.03543X0.02362*%
%ADD17C,0.11000*%
%ADD18R,0.05500X0.04000*%
%ADD19R,0.02362X0.06102*%
%ADD20R,0.07480X0.09449*%
%ADD21R,0.02165X0.05315*%
%ADD22R,0.09843X0.04724*%
%ADD23R,0.02362X0.03543*%
%ADD24R,0.01181X0.05512*%
%ADD25R,0.05512X0.09843*%
%ADD26R,0.15000X0.15000*%
%ADD27C,0.03937*%
%ADD28R,0.09449X0.07480*%
%ADD30R,0.13583X0.08858*%
%ADD31R,0.05905X0.08661*%
%ADD32R,0.15000X0.07900*%
%ADD35R,0.03000X0.03000*%
%LNPASTEMASK_BOTTOM.art*%
%LPD*%
G36*
X55500Y247500D02*
G01Y252700D01*
X62200*
Y247500*
X55500*
G37*
G54D10*
X6400Y7100D03*
Y17700D03*
Y28300D03*
X8900Y92500D03*
Y82500D03*
Y72500D03*
Y112500D03*
Y102500D03*
Y142500D03*
Y132500D03*
Y122500D03*
X254800Y194300D03*
Y214300D03*
Y204300D03*
Y244300D03*
Y234300D03*
Y224300D03*
Y264300D03*
Y254300D03*
G54D23*
X46650Y219500D03*
X40350D03*
X84250Y201500D03*
Y195500D03*
X73050Y293700D03*
X66750D03*
X90550Y201500D03*
Y195500D03*
X112550Y258700D03*
X118850D03*
X139350Y163900D03*
X145650D03*
X158450Y176700D03*
Y182700D03*
X164750Y176700D03*
Y182700D03*
G54D11*
X8900Y62500D03*
X254800Y184300D03*
G54D24*
X60868Y241439D03*
X58900D03*
X56932D03*
X54963D03*
Y258761D03*
X56932D03*
X58900D03*
X60868D03*
X62837Y241439D03*
Y258761D03*
G54D13*
X7600Y262400D03*
X15600D03*
X25600Y321800D03*
X17600D03*
X47700D03*
X55700D03*
G54D25*
X82861Y107471D03*
Y141329D03*
X102939Y107471D03*
Y141329D03*
G54D16*
X16300Y62550D03*
Y56250D03*
X27000Y205850D03*
Y212150D03*
X33000Y205850D03*
Y212150D03*
X31300Y308150D03*
Y314450D03*
X41000Y231150D03*
Y224850D03*
X47000Y231150D03*
Y224850D03*
X39900Y239250D03*
X45900D03*
X57600Y268850D03*
X39900Y245550D03*
X45900D03*
X57600Y275150D03*
X51900Y308150D03*
Y314450D03*
X84900Y186550D03*
Y180250D03*
X75600Y268850D03*
X63600D03*
X69500Y246750D03*
Y253050D03*
X81600Y268850D03*
X69600D03*
X75600Y275150D03*
X63600D03*
X81600D03*
X69600D03*
X153800Y152850D03*
Y146550D03*
X159800Y152850D03*
Y146550D03*
X193300Y152850D03*
Y146550D03*
X199300Y152850D03*
Y146550D03*
X233700Y152850D03*
Y146550D03*
X239700Y152850D03*
Y146550D03*
G54D26*
X75850Y156900D03*
X97110D03*
G54D17*
X30493Y108311D03*
Y184689D03*
X117107Y108311D03*
Y146500D03*
Y184689D03*
G54D27*
X76600Y300400D03*
G54D18*
X19500Y199500D03*
Y214100D03*
G54D19*
X33100Y221070D03*
X28100D03*
X23100D03*
X18100D03*
Y242330D03*
X23100D03*
X28100D03*
X33100D03*
G54D28*
X114929Y163700D03*
X131071D03*
X144029Y124300D03*
X160171D03*
X183529D03*
X199671D03*
X223929D03*
X240071D03*
G54D30*
X99400Y241527D03*
Y259873D03*
G54D20*
X21900Y283429D03*
X35286D03*
X21900Y299571D03*
X35286D03*
X48672Y283429D03*
Y299571D03*
X79500Y241029D03*
Y257171D03*
X96700Y171129D03*
Y187271D03*
X187000Y166929D03*
Y183071D03*
G54D31*
X91190Y271300D03*
X100245D03*
X109300D03*
G54D21*
X48900Y180864D03*
X53900D03*
X58900D03*
Y201336D03*
X53900D03*
X48900D03*
X63900Y180864D03*
X68900D03*
X73900D03*
X78900D03*
Y201336D03*
X73900D03*
X68900D03*
X63900D03*
G54D22*
X58314Y216914D03*
Y230300D03*
X71700Y216914D03*
Y230300D03*
G54D32*
X100245Y296103D03*
G54D35*
X152950Y142100D03*
X160430D03*
X156690Y133080D03*
X169200Y175850D03*
Y183330D03*
X178220Y179590D03*
X192450Y142100D03*
X199930D03*
X196190Y133080D03*
X232850Y142100D03*
X236590Y133080D03*
X240330Y142100D03*
M02*
