G04 CAM350/DFMSTREAM V12.1 (Build 1022) Date:  Thu Oct 23 21:27:19 2025 *
G04 Database: (Untitled) *
G04 Layer 5: SILK_SCREEN_BOTTOM.art *
%FSLAX25Y25*%
%MOIN*%
%SFA1.000B1.000*%

%MIA0B0*%
%IPPOS*%
%ADD36C,0.00800*%
%ADD37C,0.01000*%
%ADD48C,0.00300*%
%ADD49C,0.00600*%
%ADD50C,0.00787*%
%ADD51C,0.00591*%
%ADD52C,0.00984*%
%ADD53C,0.00787*%
%ADD54C,0.00984*%
%ADD55C,0.01500*%
%ADD56C,0.01969*%
%LNSILK_SCREEN_BOTTOM.art*%
%LPD*%
G36*
X60800Y324800D02*
G75*
G02X61771Y325697I900J0D01*
X62600Y324800I-71J-897*
X61629Y323903I-900J0*
X60800Y324800I71J897*
G37*
G36*
X10700Y318800D02*
G02X11671Y319697I900J0D01*
X12500Y318800I-71J-897*
X11529Y317903I-900J0*
X10700Y318800I71J897*
G37*
G36*
X84118Y150640D02*
G01Y163199D01*
X88843*
Y150640*
X84118*
G37*
G36*
X74900Y71600D02*
G01Y76600D01*
G02X79900Y81600I5000J0*
G01X99900*
G02X104900Y76600I0J-5000*
G01Y71600*
G02X99900Y66600I-5000*
G01X79900*
G02X74900Y71600J5000*
G37*
G36*
X87234Y250700D02*
G02X92400Y260650I12166J0D01*
G01Y255200*
X106400*
Y260650*
G02X111566Y250700I-7000J-9950*
X106400Y240750I-12166J0*
G01Y246200*
X92400*
Y240750*
G02X87234Y250700I7000J9950*
G37*
%LPC*%
G36*
X79900Y68000D02*
G01X99900D01*
G03X102900Y71000J3000*
G01Y77000*
G03X99900Y80000I-3000J0*
G01X79900*
G03X76900Y77000I0J-3000*
G01Y71000*
G03X79900Y68000I3000*
G37*
%LPD*%
G54D48*
X78836Y300400D02*
G03X78836Y300400I-2236D01*
G54D56*
X32293Y229338D02*
G03X32293Y229338I-984D01*
X79711Y131191D02*
G03X79711Y131191I-984D01*
X78073Y188738D02*
G03X78073Y188738I-984D01*
G54D49*
X15900Y195500D02*
G01Y197700D01*
X14900Y196600D02*
G01X16800D01*
X15700Y215800D02*
G01Y217700D01*
G54D36*
X10350Y203483D02*
G01X13850D01*
Y204317*
X13675Y204650*
X13442Y204900*
X13092Y205108*
X12683Y205275*
X12100Y205317*
X11517Y205275*
X11108Y205108*
X10758Y204900*
X10525Y204650*
X10350Y204317*
Y203483*
Y206900D02*
G01X13850D01*
X13150Y206400*
X10350D02*
G01Y207400D01*
X13267Y208608D02*
G01X13617Y208858D01*
X13792Y209150*
X13850Y209483*
X13733Y209900*
X13442Y210192*
X13092Y210275*
X12742Y210233*
X12450Y210067*
X11867Y209233*
X11458Y208858*
X10875Y208608*
X10350Y208525*
Y210275*
X15033Y252650D02*
G01Y256150D01*
X13992*
X13658Y255975*
X13450Y255742*
X13367Y255275*
X13450Y254808*
X13700Y254517*
X13992Y254342*
X15033*
X13992D02*
G01X13367Y252650D01*
X12617Y253350D02*
G01X12367Y252942D01*
X12033Y252708*
X11658Y252650*
X11325Y252708*
X10992Y253000*
X10783Y253350*
X10742Y253700*
X10825Y254108*
X11117Y254400*
X11408Y254517*
X11783*
X11408D02*
G01X11158Y254692D01*
X10950Y254983*
X10867Y255333*
X10950Y255683*
X11158Y255975*
X11533Y256150*
X11908Y256092*
X12283Y255858*
X9200Y252650D02*
G01X8908Y252708D01*
X8575Y252883*
X8367Y253175*
X8283Y253583*
X8367Y253992*
X8617Y254342*
X8992Y254517*
X9408*
X9658Y254633*
X9867Y254925*
X9950Y255333*
X9825Y255742*
X9533Y256033*
X9200Y256150*
X8867Y256033*
X8575Y255742*
X8450Y255333*
X8533Y254925*
X8742Y254633*
X8992Y254517*
X9408*
X9783Y254342*
X10033Y253992*
X10117Y253583*
X10033Y253175*
X9825Y252883*
X9492Y252708*
X9200Y252650*
X3600Y265400D02*
G01Y258400D01*
X10600*
X3600Y265400D02*
G01Y266400D01*
X10600*
X11517Y319650D02*
G01Y323150D01*
X10683*
X10350Y322975*
X10100Y322742*
X9892Y322392*
X9725Y321983*
X9683Y321400*
X9725Y320817*
X9892Y320408*
X10100Y320058*
X10350Y319825*
X10683Y319650*
X11517*
X8000D02*
G01Y323150D01*
X8500Y322450*
Y319650D02*
G01X7500D01*
X4900D02*
G01Y323150D01*
X6442Y320642*
X4358*
X23317Y6150D02*
G01Y8650D01*
X21783Y6150*
Y8650*
X19717Y8442D02*
G01X19917Y8567D01*
X20150Y8650*
X20417*
X20717Y8525*
X20950Y8317*
X21117Y8067*
X21250Y7650*
X21283Y7275*
X21217Y6900*
X21117Y6650*
X20917Y6400*
X20683Y6233*
X20450Y6150*
X20217*
X19983Y6233*
X19783Y6358*
X19617Y6525*
X17583Y52358D02*
G01X17833Y52533D01*
X18125Y52650*
X18458*
X18833Y52475*
X19125Y52183*
X19333Y51833*
X19500Y51250*
X19542Y50725*
X19458Y50200*
X19333Y49850*
X19083Y49500*
X18792Y49267*
X18500Y49150*
X18208*
X17917Y49267*
X17667Y49442*
X17458Y49675*
X16000Y49150D02*
G01Y52650D01*
X16500Y51950*
Y49150D02*
G01X15500D01*
X13500D02*
G01X13208Y49208D01*
X12875Y49383*
X12667Y49675*
X12583Y50083*
X12667Y50492*
X12917Y50842*
X13292Y51017*
X13708*
X13958Y51133*
X14167Y51425*
X14250Y51833*
X14125Y52242*
X13833Y52533*
X13500Y52650*
X13167Y52533*
X12875Y52242*
X12750Y51833*
X12833Y51425*
X13042Y51133*
X13292Y51017*
X13708*
X14083Y50842*
X14333Y50492*
X14417Y50083*
X14333Y49675*
X14125Y49383*
X13792Y49208*
X13500Y49150*
X25350Y195667D02*
G01X28850D01*
Y196708*
X28675Y197042*
X28442Y197250*
X27975Y197333*
X27508Y197250*
X27217Y197000*
X27042Y196708*
Y195667*
Y196708D02*
G01X25350Y197333D01*
X26050Y198083D02*
G01X25642Y198333D01*
X25408Y198667*
X25350Y199042*
X25408Y199375*
X25700Y199708*
X26050Y199917*
X26400Y199958*
X26808Y199875*
X27100Y199583*
X27217Y199292*
Y198917*
Y199292D02*
G01X27392Y199542D01*
X27683Y199750*
X28033Y199833*
X28383Y199750*
X28675Y199542*
X28850Y199167*
X28792Y198792*
X28558Y198417*
X26050Y200583D02*
G01X25642Y200833D01*
X25408Y201167*
X25350Y201542*
X25408Y201875*
X25700Y202208*
X26050Y202417*
X26400Y202458*
X26808Y202375*
X27100Y202083*
X27217Y201792*
Y201417*
Y201792D02*
G01X27392Y202042D01*
X27683Y202250*
X28033Y202333*
X28383Y202250*
X28675Y202042*
X28850Y201667*
X28792Y201292*
X28558Y200917*
X21800Y205700D02*
G01X19400Y208100D01*
X16900Y205600*
X21800*
X19400Y203000D02*
G01Y210400D01*
X34258Y197017D02*
G01X34433Y196767D01*
X34550Y196475*
Y196142*
X34375Y195767*
X34083Y195475*
X33733Y195267*
X33150Y195100*
X32625Y195058*
X32100Y195142*
X31750Y195267*
X31400Y195517*
X31167Y195808*
X31050Y196100*
Y196392*
X31167Y196683*
X31342Y196933*
X31575Y197142*
X31050Y198600D02*
G01X34550D01*
X33850Y198100*
X31050D02*
G01Y199100D01*
X31575Y200183D02*
G01X31283Y200433D01*
X31108Y200725*
X31050Y201100*
X31167Y201475*
X31400Y201767*
X31808Y201975*
X32275Y202017*
X32742Y201933*
X33033Y201725*
X33267Y201433*
X33325Y201142*
X33267Y200850*
X33033Y200475*
X34550Y200600*
Y201725*
X23167Y250150D02*
G01Y247642D01*
X23000Y247117*
X22667Y246767*
X22250Y246650*
X21833Y246767*
X21500Y247117*
X21333Y247642*
Y250150*
X20458Y247058D02*
G01X20167Y246767D01*
X19833Y246650*
X19500Y246767*
X19208Y247117*
X19000Y247642*
X18917Y248167*
Y248808*
X19000Y249333*
X19208Y249800*
X19458Y250033*
X19750Y250150*
X20083Y250033*
X20333Y249800*
X20500Y249450*
X20583Y248983*
X20500Y248575*
X20292Y248167*
X20042Y247933*
X19750Y247875*
X19417Y247992*
X19167Y248283*
X18917Y248808*
X39483Y251958D02*
G01X39733Y252133D01*
X40025Y252250*
X40358*
X40733Y252075*
X41025Y251783*
X41233Y251433*
X41400Y250850*
X41442Y250325*
X41358Y249800*
X41233Y249450*
X40983Y249100*
X40692Y248867*
X40400Y248750*
X40108*
X39817Y248867*
X39567Y249042*
X39358Y249275*
X37900Y248750D02*
G01Y252250D01*
X38400Y251550*
Y248750D02*
G01X37400D01*
X36317Y249450D02*
G01X36067Y249042D01*
X35733Y248808*
X35358Y248750*
X35025Y248808*
X34692Y249100*
X34483Y249450*
X34442Y249800*
X34525Y250208*
X34817Y250500*
X35108Y250617*
X35483*
X35108D02*
G01X34858Y250792D01*
X34650Y251083*
X34567Y251433*
X34650Y251783*
X34858Y252075*
X35233Y252250*
X35608Y252192*
X35983Y251958*
X12600Y266400D02*
G01X19600D01*
Y258400*
X12600*
X24817Y271350D02*
G01Y274850D01*
X23983*
X23650Y274675*
X23400Y274442*
X23192Y274092*
X23025Y273683*
X22983Y273100*
X23025Y272517*
X23192Y272108*
X23400Y271758*
X23650Y271525*
X23983Y271350*
X24817*
X21400D02*
G01Y274850D01*
X21900Y274150*
Y271350D02*
G01X20900D01*
X19692Y272808D02*
G01X19400Y273217D01*
X19150Y273450*
X18817Y273567*
X18525Y273450*
X18317Y273217*
X18150Y272867*
X18108Y272458*
X18150Y272108*
X18317Y271758*
X18567Y271467*
X18858Y271350*
X19192Y271467*
X19483Y271817*
X19650Y272342*
X19692Y272925*
X19608Y273683*
X19483Y274092*
X19275Y274500*
X18983Y274792*
X18692Y274850*
X18400Y274733*
X18192Y274442*
X38617Y273950D02*
G01Y277450D01*
X37783*
X37450Y277275*
X37200Y277042*
X36992Y276692*
X36825Y276283*
X36783Y275700*
X36825Y275117*
X36992Y274708*
X37200Y274358*
X37450Y274125*
X37783Y273950*
X38617*
X35200D02*
G01Y277450D01*
X35700Y276750*
Y273950D02*
G01X34700D01*
X32783D02*
G01X32700Y274708D01*
X32575Y275350*
X32408Y275933*
X32200Y276575*
X31867Y277450*
X33533*
X16233Y310350D02*
G01X15400Y312850D01*
X14567Y310350*
X14867Y311225D02*
G01X15933D01*
X39633Y317850D02*
G01Y321350D01*
X38592*
X38258Y321175*
X38050Y320942*
X37967Y320475*
X38050Y320008*
X38300Y319717*
X38592Y319542*
X39633*
X38592D02*
G01X37967Y317850D01*
X37217Y318550D02*
G01X36967Y318142D01*
X36633Y317908*
X36258Y317850*
X35925Y317908*
X35592Y318200*
X35383Y318550*
X35342Y318900*
X35425Y319308*
X35717Y319600*
X36008Y319717*
X36383*
X36008D02*
G01X35758Y319892D01*
X35550Y320183*
X35467Y320533*
X35550Y320883*
X35758Y321175*
X36133Y321350*
X36508Y321292*
X36883Y321058*
X33300Y317850D02*
G01Y321350D01*
X34842Y318842*
X32758*
X20600Y317800D02*
G01X13600D01*
Y325800*
X20600*
X29600Y318800D02*
G01Y317800D01*
X22600*
X29600Y318800D02*
G01Y325800D01*
X22600*
X43633Y5550D02*
G01Y8050D01*
X42100Y5550*
Y8050*
X40033Y7842D02*
G01X40233Y7967D01*
X40467Y8050*
X40733*
X41033Y7925*
X41267Y7717*
X41433Y7467*
X41567Y7050*
X41600Y6675*
X41533Y6300*
X41433Y6050*
X41233Y5800*
X41000Y5633*
X40767Y5550*
X40533*
X40300Y5633*
X40100Y5758*
X39933Y5925*
X69150Y7183D02*
G01X68950Y7433D01*
X68717Y7558*
X68450Y7600*
X68117Y7517*
X67883Y7308*
X67817Y7058*
X67850Y6808*
X67983Y6600*
X68650Y6183*
X68950Y5892*
X69150Y5475*
X69217Y5100*
X67817*
X67050Y7183D02*
G01X66850Y7433D01*
X66617Y7558*
X66350Y7600*
X66017Y7517*
X65783Y7308*
X65717Y7058*
X65750Y6808*
X65883Y6600*
X66550Y6183*
X66850Y5892*
X67050Y5475*
X67117Y5100*
X65717*
X64317Y7600D02*
G01X64583Y7517D01*
X64783Y7308*
X64917Y7058*
X65017Y6725*
X65050Y6350*
X65017Y5975*
X64917Y5642*
X64783Y5392*
X64583Y5183*
X64317Y5100*
X64050Y5183*
X63850Y5392*
X63717Y5642*
X63617Y5975*
X63583Y6350*
X63617Y6725*
X63717Y7058*
X63850Y7308*
X64050Y7517*
X64317Y7600*
X60950D02*
G01X60117Y5100D01*
X59283Y7600*
X58850Y5100D02*
G01X58017Y7600D01*
X57183Y5100*
X57483Y5975D02*
G01X58550D01*
X55183Y7392D02*
G01X55383Y7517D01*
X55617Y7600*
X55883*
X56183Y7475*
X56417Y7267*
X56583Y7017*
X56717Y6600*
X56750Y6225*
X56683Y5850*
X56583Y5600*
X56383Y5350*
X56150Y5183*
X55917Y5100*
X55683*
X55450Y5183*
X55250Y5308*
X55083Y5475*
X65033Y155350D02*
G01Y158850D01*
X63992*
X63658Y158675*
X63450Y158442*
X63367Y157975*
X63450Y157508*
X63700Y157217*
X63992Y157042*
X65033*
X63992D02*
G01X63367Y155350D01*
X62517Y156050D02*
G01X62267Y155642D01*
X61933Y155408*
X61558Y155350*
X61225Y155408*
X60892Y155700*
X60683Y156050*
X60642Y156400*
X60725Y156808*
X61017Y157100*
X61308Y157217*
X61683*
X61308D02*
G01X61058Y157392D01*
X60850Y157683*
X60767Y158033*
X60850Y158383*
X61058Y158675*
X61433Y158850*
X61808Y158792*
X62183Y158558*
X59708Y155758D02*
G01X59417Y155467D01*
X59083Y155350*
X58750Y155467*
X58458Y155817*
X58250Y156342*
X58167Y156867*
Y157508*
X58250Y158033*
X58458Y158500*
X58708Y158733*
X59000Y158850*
X59333Y158733*
X59583Y158500*
X59750Y158150*
X59833Y157683*
X59750Y157275*
X59542Y156867*
X59292Y156633*
X59000Y156575*
X58667Y156692*
X58417Y156983*
X58167Y157508*
X54617Y176050D02*
G01Y173542D01*
X54450Y173017*
X54117Y172667*
X53700Y172550*
X53283Y172667*
X52950Y173017*
X52783Y173542*
Y176050*
X51100Y172550D02*
G01Y176050D01*
X51600Y175350*
Y172550D02*
G01X50600D01*
X48500Y176050D02*
G01X48833Y175933D01*
X49083Y175642*
X49250Y175292*
X49375Y174825*
X49417Y174300*
X49375Y173775*
X49250Y173308*
X49083Y172958*
X48833Y172667*
X48500Y172550*
X48167Y172667*
X47917Y172958*
X47750Y173308*
X47625Y173775*
X47583Y174300*
X47625Y174825*
X47750Y175292*
X47917Y175642*
X48167Y175933*
X48500Y176050*
X53683Y212158D02*
G01X53933Y212333D01*
X54225Y212450*
X54558*
X54933Y212275*
X55225Y211983*
X55433Y211633*
X55600Y211050*
X55642Y210525*
X55558Y210000*
X55433Y209650*
X55183Y209300*
X54892Y209067*
X54600Y208950*
X54308*
X54017Y209067*
X53767Y209242*
X53558Y209475*
X52917Y209650D02*
G01X52667Y209242D01*
X52333Y209008*
X51958Y208950*
X51625Y209008*
X51292Y209300*
X51083Y209650*
X51042Y210000*
X51125Y210408*
X51417Y210700*
X51708Y210817*
X52083*
X51708D02*
G01X51458Y210992D01*
X51250Y211283*
X51167Y211633*
X51250Y211983*
X51458Y212275*
X51833Y212450*
X52208Y212392*
X52583Y212158*
X46433Y211950D02*
G01Y215450D01*
X45392*
X45058Y215275*
X44850Y215042*
X44767Y214575*
X44850Y214108*
X45100Y213817*
X45392Y213642*
X46433*
X45392D02*
G01X44767Y211950D01*
X44017Y212650D02*
G01X43767Y212242D01*
X43433Y212008*
X43058Y211950*
X42725Y212008*
X42392Y212300*
X42183Y212650*
X42142Y213000*
X42225Y213408*
X42517Y213700*
X42808Y213817*
X43183*
X42808D02*
G01X42558Y213992D01*
X42350Y214283*
X42267Y214633*
X42350Y214983*
X42558Y215275*
X42933Y215450*
X43308Y215392*
X43683Y215158*
X40600Y211950D02*
G01Y215450D01*
X41100Y214750*
Y211950D02*
G01X40100D01*
X41483Y233050D02*
G01Y236550D01*
X40442*
X40108Y236375*
X39900Y236142*
X39817Y235675*
X39900Y235208*
X40150Y234917*
X40442Y234742*
X41483*
X40442D02*
G01X39817Y233050D01*
X38942Y235967D02*
G01X38692Y236317D01*
X38400Y236492*
X38067Y236550*
X37650Y236433*
X37358Y236142*
X37275Y235792*
X37317Y235442*
X37483Y235150*
X38317Y234567*
X38692Y234158*
X38942Y233575*
X39025Y233050*
X37275*
X51633Y237558D02*
G01X51883Y237733D01*
X52175Y237850*
X52508*
X52883Y237675*
X53175Y237383*
X53383Y237033*
X53550Y236450*
X53592Y235925*
X53508Y235400*
X53383Y235050*
X53133Y234700*
X52842Y234467*
X52550Y234350*
X52258*
X51967Y234467*
X51717Y234642*
X51508Y234875*
X50133Y234350D02*
G01X50050Y235108D01*
X49925Y235750*
X49758Y236333*
X49550Y236975*
X49217Y237850*
X50883*
X53317Y261050D02*
G01Y258542D01*
X53150Y258017*
X52817Y257667*
X52400Y257550*
X51983Y257667*
X51650Y258017*
X51483Y258542*
Y261050*
X49800Y257550D02*
G01Y261050D01*
X50300Y260350*
Y257550D02*
G01X49300D01*
X47058Y250717D02*
G01X47233Y250467D01*
X47350Y250175*
Y249842*
X47175Y249467*
X46883Y249175*
X46533Y248967*
X45950Y248800*
X45425Y248758*
X44900Y248842*
X44550Y248967*
X44200Y249217*
X43967Y249508*
X43850Y249800*
Y250092*
X43967Y250383*
X44142Y250633*
X44375Y250842*
X43850Y252300D02*
G01X47350D01*
X46650Y251800*
X43850D02*
G01Y252800D01*
Y255300D02*
G01X47350D01*
X44842Y253758*
Y255842*
X52017Y271050D02*
G01Y274550D01*
X51183*
X50850Y274375*
X50600Y274142*
X50392Y273792*
X50225Y273383*
X50183Y272800*
X50225Y272217*
X50392Y271808*
X50600Y271458*
X50850Y271225*
X51183Y271050*
X52017*
X48600D02*
G01Y274550D01*
X49100Y273850*
Y271050D02*
G01X48100D01*
X47017Y271575D02*
G01X46767Y271283D01*
X46475Y271108*
X46100Y271050*
X45725Y271167*
X45433Y271400*
X45225Y271808*
X45183Y272275*
X45267Y272742*
X45475Y273033*
X45767Y273267*
X46058Y273325*
X46350Y273267*
X46725Y273033*
X46600Y274550*
X45475*
X55750Y278217D02*
G01X59250D01*
Y279258*
X59075Y279592*
X58842Y279800*
X58375Y279883*
X57908Y279800*
X57617Y279550*
X57442Y279258*
Y278217*
Y279258D02*
G01X55750Y279883D01*
X56450Y280633D02*
G01X56042Y280883D01*
X55808Y281217*
X55750Y281592*
X55808Y281925*
X56100Y282258*
X56450Y282467*
X56800Y282508*
X57208Y282425*
X57500Y282133*
X57617Y281842*
Y281467*
Y281842D02*
G01X57792Y282092D01*
X58083Y282300*
X58433Y282383*
X58783Y282300*
X59075Y282092*
X59250Y281717*
X59192Y281342*
X58958Y280967*
X61850Y278417D02*
G01X65350D01*
Y279458*
X65175Y279792*
X64942Y280000*
X64475Y280083*
X64008Y280000*
X63717Y279750*
X63542Y279458*
Y278417*
Y279458D02*
G01X61850Y280083D01*
Y282250D02*
G01X65350D01*
X62842Y280708*
Y282792*
X61683Y295358D02*
G01X61933Y295533D01*
X62225Y295650*
X62558*
X62933Y295475*
X63225Y295183*
X63433Y294833*
X63600Y294250*
X63642Y293725*
X63558Y293200*
X63433Y292850*
X63183Y292500*
X62892Y292267*
X62600Y292150*
X62308*
X62017Y292267*
X61767Y292442*
X61558Y292675*
X60100Y292150D02*
G01Y295650D01*
X60600Y294950*
Y292150D02*
G01X59600D01*
X57600D02*
G01Y295650D01*
X58100Y294950*
Y292150D02*
G01X57100D01*
X47433Y311883D02*
G01X47300Y312008D01*
X47200Y312217*
X47133Y312508*
X47200Y312758*
X47333Y312925*
X47567Y313050*
X48467*
Y310550*
X47367*
X47133Y310717*
X47000Y310967*
X46933Y311258*
X47000Y311550*
X47200Y311800*
X47433Y311883*
X48467*
X62733Y303850D02*
G01Y307350D01*
X61692*
X61358Y307175*
X61150Y306942*
X61067Y306475*
X61150Y306008*
X61400Y305717*
X61692Y305542*
X62733*
X61692D02*
G01X61067Y303850D01*
X60317Y304550D02*
G01X60067Y304142D01*
X59733Y303908*
X59358Y303850*
X59025Y303908*
X58692Y304200*
X58483Y304550*
X58442Y304900*
X58525Y305308*
X58817Y305600*
X59108Y305717*
X59483*
X59108D02*
G01X58858Y305892D01*
X58650Y306183*
X58567Y306533*
X58650Y306883*
X58858Y307175*
X59233Y307350*
X59608Y307292*
X59983Y307058*
X57817Y304375D02*
G01X57567Y304083D01*
X57275Y303908*
X56900Y303850*
X56525Y303967*
X56233Y304200*
X56025Y304608*
X55983Y305075*
X56067Y305542*
X56275Y305833*
X56567Y306067*
X56858Y306125*
X57150Y306067*
X57525Y305833*
X57400Y307350*
X56275*
X52700Y325800D02*
G01X59700D01*
Y317800*
X52700*
X43700Y324800D02*
G01Y317800D01*
X50700*
X43700Y324800D02*
G01Y325800D01*
X50700*
X89050Y7383D02*
G01X88850Y7633D01*
X88617Y7758*
X88350Y7800*
X88017Y7717*
X87783Y7508*
X87717Y7258*
X87750Y7008*
X87883Y6800*
X88550Y6383*
X88850Y6092*
X89050Y5675*
X89117Y5300*
X87717*
X86950Y7383D02*
G01X86750Y7633D01*
X86517Y7758*
X86250Y7800*
X85917Y7717*
X85683Y7508*
X85617Y7258*
X85650Y7008*
X85783Y6800*
X86450Y6383*
X86750Y6092*
X86950Y5675*
X87017Y5300*
X85617*
X84217Y7800D02*
G01X84483Y7717D01*
X84683Y7508*
X84817Y7258*
X84917Y6925*
X84950Y6550*
X84917Y6175*
X84817Y5842*
X84683Y5592*
X84483Y5383*
X84217Y5300*
X83950Y5383*
X83750Y5592*
X83617Y5842*
X83517Y6175*
X83483Y6550*
X83517Y6925*
X83617Y7258*
X83750Y7508*
X83950Y7717*
X84217Y7800*
X80850D02*
G01X80017Y5300D01*
X79183Y7800*
X78750Y5300D02*
G01X77917Y7800D01*
X77083Y5300*
X77383Y6175D02*
G01X78450D01*
X75083Y7592D02*
G01X75283Y7717D01*
X75517Y7800*
X75783*
X76083Y7675*
X76317Y7467*
X76483Y7217*
X76617Y6800*
X76650Y6425*
X76583Y6050*
X76483Y5800*
X76283Y5550*
X76050Y5383*
X75817Y5300*
X75583*
X75350Y5383*
X75150Y5508*
X74983Y5675*
X108717Y61133D02*
G01Y64633D01*
X107883*
X107550Y64458*
X107300Y64225*
X107092Y63875*
X106925Y63467*
X106883Y62883*
X106925Y62300*
X107092Y61892*
X107300Y61541*
X107550Y61308*
X107883Y61133*
X108717*
X105825Y62708D02*
G01X104492D01*
X104617Y63117*
X104825Y63350*
X105117Y63467*
X105408Y63408*
X105658Y63233*
X105825Y62825*
X105908Y62475*
Y62125*
X105825Y61775*
X105617Y61425*
X105367Y61192*
X105075Y61133*
X104783Y61250*
X104492Y61600*
X103225Y61541D02*
G01X103017Y61308D01*
X102725Y61133*
X102475*
X102225Y61250*
X102058Y61425*
X101975Y61658*
X102017Y62008*
X102183Y62183*
X102933Y62533*
X103100Y62942*
X103017Y63233*
X102850Y63408*
X102600Y63467*
X102350Y63408*
X102100Y63233*
X100000Y63467D02*
G01Y61133D01*
Y64400D02*
G01X100083Y64458D01*
Y64575*
X100000Y64633*
X99917Y64575*
Y64458*
X100000Y64400*
X97983Y60258D02*
G01X97692Y60025D01*
X97358Y59967*
X97067Y60025*
X96817Y60317*
X96650Y60725*
Y63467*
Y63000D02*
G01X96817Y63233D01*
X97067Y63408*
X97358Y63467*
X97692Y63350*
X97900Y63117*
X98067Y62708*
X98150Y62300*
X98108Y61950*
X97942Y61541*
X97692Y61250*
X97358Y61133*
X97108Y61192*
X96817Y61425*
X96650Y61658*
X95508Y61133D02*
G01Y63467D01*
Y62883D02*
G01X95342Y63175D01*
X95092Y63408*
X94758Y63467*
X94467Y63408*
X94217Y63175*
X94092Y62767*
Y61133*
X92825Y62708D02*
G01X91492D01*
X91617Y63117*
X91825Y63350*
X92117Y63467*
X92408Y63408*
X92658Y63233*
X92825Y62825*
X92908Y62475*
Y62125*
X92825Y61775*
X92617Y61425*
X92367Y61192*
X92075Y61133*
X91783Y61250*
X91492Y61600*
X88850Y64633D02*
G01Y61133D01*
Y61658D02*
G01X89017Y61367D01*
X89267Y61192*
X89558Y61133*
X89892Y61250*
X90142Y61541*
X90308Y61892*
X90350Y62300*
X90308Y62708*
X90142Y63058*
X89892Y63350*
X89558Y63467*
X89267Y63408*
X89058Y63292*
X88850Y63058*
X85150Y61133D02*
G01Y64633D01*
Y62883D02*
G01X84942Y63233D01*
X84692Y63408*
X84442Y63467*
X84067Y63350*
X83817Y63117*
X83650Y62708*
Y62242*
X83733Y61775*
X83900Y61425*
X84192Y61192*
X84442Y61133*
X84692Y61192*
X84942Y61367*
X85150Y61658*
X82675Y60083D02*
G01X82425Y59967D01*
X82092Y60083*
X81883Y60317*
X81717Y60608*
X81467Y61541*
X80925Y63467*
X82258D02*
G01X81467Y61541D01*
X77475Y61133D02*
G01Y64633D01*
X75725D02*
G01Y61133D01*
Y62883D02*
G01X77475D01*
X74000Y64633D02*
G01Y61133D01*
X74958Y64633D02*
G01X73042D01*
X72233Y61133D02*
G01Y64633D01*
X71192*
X70858Y64458*
X70650Y64225*
X70567Y63758*
X70650Y63292*
X70900Y63000*
X71192Y62825*
X72233*
X71192D02*
G01X70567Y61133D01*
X77717Y138250D02*
G01Y141750D01*
X76883*
X76550Y141575*
X76300Y141342*
X76092Y140992*
X75925Y140583*
X75883Y140000*
X75925Y139417*
X76092Y139008*
X76300Y138658*
X76550Y138425*
X76883Y138250*
X77717*
X74200D02*
G01Y141750D01*
X74700Y141050*
Y138250D02*
G01X73700D01*
X83250Y170367D02*
G01X86750D01*
Y171408*
X86575Y171742*
X86342Y171950*
X85875Y172033*
X85408Y171950*
X85117Y171700*
X84942Y171408*
Y170367*
Y171408D02*
G01X83250Y172033D01*
X83950Y172783D02*
G01X83542Y173033D01*
X83308Y173367*
X83250Y173742*
X83308Y174075*
X83600Y174408*
X83950Y174617*
X84300Y174658*
X84708Y174575*
X85000Y174283*
X85117Y173992*
Y173617*
Y173992D02*
G01X85292Y174242D01*
X85583Y174450*
X85933Y174533*
X86283Y174450*
X86575Y174242*
X86750Y173867*
X86692Y173492*
X86458Y173117*
X84708Y175408D02*
G01X85117Y175700D01*
X85350Y175950*
X85467Y176283*
X85350Y176575*
X85117Y176783*
X84767Y176950*
X84358Y176992*
X84008Y176950*
X83658Y176783*
X83367Y176533*
X83250Y176242*
X83367Y175908*
X83717Y175617*
X84242Y175450*
X84825Y175408*
X85583Y175492*
X85992Y175617*
X86400Y175825*
X86692Y176117*
X86750Y176408*
X86633Y176700*
X86342Y176908*
X68483Y211958D02*
G01X68733Y212133D01*
X69025Y212250*
X69358*
X69733Y212075*
X70025Y211783*
X70233Y211433*
X70400Y210850*
X70442Y210325*
X70358Y209800*
X70233Y209450*
X69983Y209100*
X69692Y208867*
X69400Y208750*
X69108*
X68817Y208867*
X68567Y209042*
X68358Y209275*
X66800Y208750D02*
G01X66508Y208808D01*
X66175Y208983*
X65967Y209275*
X65883Y209683*
X65967Y210092*
X66217Y210442*
X66592Y210617*
X67008*
X67258Y210733*
X67467Y211025*
X67550Y211433*
X67425Y211842*
X67133Y212133*
X66800Y212250*
X66467Y212133*
X66175Y211842*
X66050Y211433*
X66133Y211025*
X66342Y210733*
X66592Y210617*
X67008*
X67383Y210442*
X67633Y210092*
X67717Y209683*
X67633Y209275*
X67425Y208983*
X67092Y208808*
X66800Y208750*
X84167Y230950D02*
G01Y234450D01*
X83333*
X83000Y234275*
X82750Y234042*
X82542Y233692*
X82375Y233283*
X82333Y232700*
X82375Y232117*
X82542Y231708*
X82750Y231358*
X83000Y231125*
X83333Y230950*
X84167*
X81542Y233867D02*
G01X81292Y234217D01*
X81000Y234392*
X80667Y234450*
X80250Y234333*
X79958Y234042*
X79875Y233692*
X79917Y233342*
X80083Y233050*
X80917Y232467*
X81292Y232058*
X81542Y231475*
X81625Y230950*
X79875*
X70858Y258067D02*
G01X71033Y257817D01*
X71150Y257525*
Y257192*
X70975Y256817*
X70683Y256525*
X70333Y256317*
X69750Y256150*
X69225Y256108*
X68700Y256192*
X68350Y256317*
X68000Y256567*
X67767Y256858*
X67650Y257150*
Y257442*
X67767Y257733*
X67942Y257983*
X68175Y258192*
X67650Y259650D02*
G01X71150D01*
X70450Y259150*
X67650D02*
G01Y260150D01*
X73350Y278317D02*
G01X76850D01*
Y279358*
X76675Y279692*
X76442Y279900*
X75975Y279983*
X75508Y279900*
X75217Y279650*
X75042Y279358*
Y278317*
Y279358D02*
G01X73350Y279983D01*
Y281650D02*
G01X76850D01*
X76150Y281150*
X73350D02*
G01Y282150D01*
X83258Y280467D02*
G01X83433Y280217D01*
X83550Y279925*
Y279592*
X83375Y279217*
X83083Y278925*
X82733Y278717*
X82150Y278550*
X81625Y278508*
X81100Y278592*
X80750Y278717*
X80400Y278967*
X80167Y279258*
X80050Y279550*
Y279842*
X80167Y280133*
X80342Y280383*
X80575Y280592*
X81508Y281258D02*
G01X81917Y281550D01*
X82150Y281800*
X82267Y282133*
X82150Y282425*
X81917Y282633*
X81567Y282800*
X81158Y282842*
X80808Y282800*
X80458Y282633*
X80167Y282383*
X80050Y282092*
X80167Y281758*
X80517Y281467*
X81042Y281300*
X81625Y281258*
X82383Y281342*
X82792Y281467*
X83200Y281675*
X83492Y281967*
X83550Y282258*
X83433Y282550*
X83142Y282758*
X70858Y280167D02*
G01X71033Y279917D01*
X71150Y279625*
Y279292*
X70975Y278917*
X70683Y278625*
X70333Y278417*
X69750Y278250*
X69225Y278208*
X68700Y278292*
X68350Y278417*
X68000Y278667*
X67767Y278958*
X67650Y279250*
Y279542*
X67767Y279833*
X67942Y280083*
X68175Y280292*
X68058Y281042D02*
G01X67767Y281333D01*
X67650Y281667*
X67767Y282000*
X68117Y282292*
X68642Y282500*
X69167Y282583*
X69808*
X70333Y282500*
X70800Y282292*
X71033Y282042*
X71150Y281750*
X71033Y281417*
X70800Y281167*
X70450Y281000*
X69983Y280917*
X69575Y281000*
X69167Y281208*
X68933Y281458*
X68875Y281750*
X68992Y282083*
X69283Y282333*
X69808Y282583*
X72483Y317033D02*
G01Y319533D01*
X73817*
X75250Y317867D02*
G01Y319533D01*
Y317200D02*
G01X75183Y317158D01*
Y317075*
X75250Y317033*
X75317Y317075*
Y317158*
X75250Y317200*
X76883Y320158D02*
G01X77117Y320325D01*
X77383Y320367*
X77617Y320325*
X77817Y320117*
X77950Y319825*
Y317867*
Y318200D02*
G01X77817Y318033D01*
X77617Y317908*
X77383Y317867*
X77117Y317950*
X76950Y318117*
X76817Y318408*
X76750Y318700*
X76783Y318950*
X76917Y319242*
X77117Y319450*
X77383Y319533*
X77583Y319492*
X77817Y319325*
X77950Y319158*
X78883Y319533D02*
G01Y317033D01*
Y318242D02*
G01X79050Y318033D01*
X79217Y317908*
X79483Y317867*
X79683Y317908*
X79917Y318075*
X80017Y318325*
Y319533*
X81550Y317033D02*
G01Y319533D01*
X81083Y317867D02*
G01X82017D01*
X85050Y319200D02*
G01X85317Y319408D01*
X85617Y319533*
X85883*
X86150Y319408*
X86350Y319200*
X86450Y318908*
X86383Y318617*
X86217Y318367*
X85917Y318200*
X85517Y318117*
X85283Y317950*
X85183Y317658*
X85250Y317367*
X85417Y317158*
X85650Y317033*
X85883*
X86117Y317117*
X86317Y317325*
X87350Y318408D02*
G01X88417D01*
X88317Y318117*
X88150Y317950*
X87917Y317867*
X87683Y317908*
X87483Y318033*
X87350Y318325*
X87283Y318575*
Y318825*
X87350Y319075*
X87517Y319325*
X87717Y319492*
X87950Y319533*
X88183Y319450*
X88417Y319200*
X89383Y319533D02*
G01Y317867D01*
Y318283D02*
G01X89517Y318075D01*
X89717Y317908*
X89983Y317867*
X90217Y317908*
X90417Y318075*
X90517Y318367*
Y319533*
X91550Y319242D02*
G01X91717Y319408D01*
X91950Y319533*
X92150*
X92350Y319450*
X92483Y319325*
X92550Y319158*
X92517Y318908*
X92383Y318783*
X91783Y318533*
X91650Y318242*
X91717Y318033*
X91850Y317908*
X92050Y317867*
X92250Y317908*
X92450Y318033*
X69400Y309900D02*
G01Y310567D01*
X68650*
X68400Y310367*
X68233Y310133*
X68150Y309800*
X68233Y309467*
X68400Y309233*
X68650Y309033*
X68942Y308900*
X69275Y308833*
X69567*
X69817Y308900*
X70108Y309033*
X70358Y309233*
X70525Y309433*
X70650Y309700*
Y309933*
X70567Y310200*
X70400Y310400*
X68150Y311033D02*
G01X70650D01*
X68150Y312567*
X70650*
X68150Y313167D02*
G01X70650D01*
Y313833*
X70525Y314100*
X70358Y314300*
X70108Y314467*
X69817Y314600*
X69400Y314633*
X68983Y314600*
X68692Y314467*
X68442Y314300*
X68275Y314100*
X68150Y313833*
Y313167*
X72800Y302450D02*
G01Y298950D01*
X73758Y302450D02*
G01X71842D01*
X70283Y298950D02*
G01X70200Y299708D01*
X70075Y300350*
X69908Y300933*
X69700Y301575*
X69367Y302450*
X71033*
X68917Y320150D02*
G01Y323650D01*
X68083*
X67750Y323475*
X67500Y323242*
X67292Y322892*
X67125Y322483*
X67083Y321900*
X67125Y321317*
X67292Y320908*
X67500Y320558*
X67750Y320325*
X68083Y320150*
X68917*
X65400D02*
G01Y323650D01*
X65900Y322950*
Y320150D02*
G01X64900D01*
X63717Y320850D02*
G01X63467Y320442D01*
X63133Y320208*
X62758Y320150*
X62425Y320208*
X62092Y320500*
X61883Y320850*
X61842Y321200*
X61925Y321608*
X62217Y321900*
X62508Y322017*
X62883*
X62508D02*
G01X62258Y322192D01*
X62050Y322483*
X61967Y322833*
X62050Y323183*
X62258Y323475*
X62633Y323650*
X63008Y323592*
X63383Y323358*
X108200Y5417D02*
G01X108467Y5458D01*
X108700Y5625*
X108900Y5875*
X109033Y6167*
X109100Y6500*
Y6833*
X109033Y7167*
X108900Y7458*
X108700Y7708*
X108467Y7875*
X108200Y7917*
X107933Y7875*
X107700Y7708*
X107500Y7458*
X107367Y7167*
X107300Y6833*
Y6500*
X107367Y6167*
X107500Y5875*
X107700Y5625*
X107933Y5458*
X108200Y5417*
X106833Y7917D02*
G01Y6125D01*
X106700Y5750*
X106433Y5500*
X106100Y5417*
X105767Y5500*
X105500Y5750*
X105367Y6125*
Y7917*
X104000D02*
G01Y5417D01*
X104767Y7917D02*
G01X103233D01*
X101900Y5417D02*
G01Y7917D01*
X102300Y7417*
Y5417D02*
G01X101500D01*
X100800Y4583D02*
G01X98800D01*
X98100Y7917D02*
G01X97300D01*
X97700D02*
G01Y5417D01*
X98100D02*
G01X97300D01*
X96367D02*
G01Y7917D01*
X94833Y5417*
Y7917*
X98983Y196658D02*
G01X99233Y196833D01*
X99525Y196950*
X99858*
X100233Y196775*
X100525Y196483*
X100733Y196133*
X100900Y195550*
X100942Y195025*
X100858Y194500*
X100733Y194150*
X100483Y193800*
X100192Y193567*
X99900Y193450*
X99608*
X99317Y193567*
X99067Y193742*
X98858Y193975*
X97400Y193450D02*
G01Y196950D01*
X97900Y196250*
Y193450D02*
G01X96900D01*
X94983D02*
G01X94900Y194208D01*
X94775Y194850*
X94608Y195433*
X94400Y196075*
X94067Y196950*
X95733*
X103850Y175483D02*
G01X107350D01*
Y176317*
X107175Y176650*
X106942Y176900*
X106592Y177108*
X106183Y177275*
X105600Y177317*
X105017Y177275*
X104608Y177108*
X104258Y176900*
X104025Y176650*
X103850Y176317*
Y175483*
X107350Y178108D02*
G01Y179692D01*
X103850Y178108*
Y179692*
Y181400D02*
G01X107350D01*
X106650Y180900*
X103850D02*
G01Y181900D01*
X98583Y203058D02*
G01X98833Y203233D01*
X99125Y203350*
X99458*
X99833Y203175*
X100125Y202883*
X100333Y202533*
X100500Y201950*
X100542Y201425*
X100458Y200900*
X100333Y200550*
X100083Y200200*
X99792Y199967*
X99500Y199850*
X99208*
X98917Y199967*
X98667Y200142*
X98458Y200375*
X97000Y199850D02*
G01Y203350D01*
X97500Y202650*
Y199850D02*
G01X96500D01*
X95292Y201308D02*
G01X95000Y201717D01*
X94750Y201950*
X94417Y202067*
X94125Y201950*
X93917Y201717*
X93750Y201367*
X93708Y200958*
X93750Y200608*
X93917Y200258*
X94167Y199967*
X94458Y199850*
X94792Y199967*
X95083Y200317*
X95250Y200842*
X95292Y201425*
X95208Y202183*
X95083Y202592*
X94875Y203000*
X94583Y203292*
X94292Y203350*
X94000Y203233*
X93792Y202942*
X112533Y238750D02*
G01Y235250D01*
X110867*
X109100D02*
G01Y238750D01*
X109600Y238050*
Y235250D02*
G01X108600D01*
X91900Y260200D02*
G03X91900Y241200I7281J-9500D01*
X106900D02*
G03X106900Y260200I-7750J9500D01*
X96567Y320483D02*
G01X97400Y317983D01*
X98233Y320483*
X97933Y319608D02*
G01X96867D01*
X100233Y318192D02*
G01X100033Y318066D01*
X99800Y317983*
X99533*
X99233Y318108*
X99000Y318316*
X98833Y318566*
X98700Y318983*
X98667Y319358*
X98733Y319733*
X98833Y319983*
X99033Y320233*
X99267Y320400*
X99500Y320483*
X99733*
X99967Y320400*
X100167Y320275*
X100333Y320108*
X100600Y321316D02*
G01X102600D01*
X102933Y320483D02*
G01Y317983D01*
X104467Y320483*
Y317983*
X105800Y320483D02*
G01Y317983D01*
X105400Y318483*
Y320483D02*
G01X106200D01*
X129150Y5267D02*
G01X129417Y5308D01*
X129650Y5475*
X129850Y5725*
X129983Y6017*
X130050Y6350*
Y6683*
X129983Y7017*
X129850Y7308*
X129650Y7558*
X129417Y7725*
X129150Y7767*
X128883Y7725*
X128650Y7558*
X128450Y7308*
X128317Y7017*
X128250Y6683*
Y6350*
X128317Y6017*
X128450Y5725*
X128650Y5475*
X128883Y5308*
X129150Y5267*
X127783Y7767D02*
G01Y5975D01*
X127650Y5600*
X127383Y5350*
X127050Y5267*
X126717Y5350*
X126450Y5600*
X126317Y5975*
Y7767*
X124950D02*
G01Y5267D01*
X125717Y7767D02*
G01X124183D01*
X122850Y5267D02*
G01Y7767D01*
X123250Y7267*
Y5267D02*
G01X122450D01*
X121750Y4433D02*
G01X119750D01*
X118650Y5267D02*
G01X118917Y5308D01*
X119150Y5475*
X119350Y5725*
X119483Y6017*
X119550Y6350*
Y6683*
X119483Y7017*
X119350Y7308*
X119150Y7558*
X118917Y7725*
X118650Y7767*
X118383Y7725*
X118150Y7558*
X117950Y7308*
X117817Y7017*
X117750Y6683*
Y6350*
X117817Y6017*
X117950Y5725*
X118150Y5475*
X118383Y5308*
X118650Y5267*
X117283Y7767D02*
G01Y5975D01*
X117150Y5600*
X116883Y5350*
X116550Y5267*
X116217Y5350*
X115950Y5600*
X115817Y5975*
Y7767*
X114450D02*
G01Y5267D01*
X115217Y7767D02*
G01X113683D01*
X148300Y5417D02*
G01X148567Y5458D01*
X148800Y5625*
X149000Y5875*
X149133Y6167*
X149200Y6500*
Y6833*
X149133Y7167*
X149000Y7458*
X148800Y7708*
X148567Y7875*
X148300Y7917*
X148033Y7875*
X147800Y7708*
X147600Y7458*
X147467Y7167*
X147400Y6833*
Y6500*
X147467Y6167*
X147600Y5875*
X147800Y5625*
X148033Y5458*
X148300Y5417*
X146933Y7917D02*
G01Y6125D01*
X146800Y5750*
X146533Y5500*
X146200Y5417*
X145867Y5500*
X145600Y5750*
X145467Y6125*
Y7917*
X144100D02*
G01Y5417D01*
X144867Y7917D02*
G01X143333D01*
X142633Y7500D02*
G01X142433Y7750D01*
X142200Y7875*
X141933Y7917*
X141600Y7833*
X141367Y7625*
X141300Y7375*
X141333Y7125*
X141467Y6917*
X142133Y6500*
X142433Y6208*
X142633Y5792*
X142700Y5417*
X141300*
X140900Y4583D02*
G01X138900D01*
X138200Y7917D02*
G01X137400D01*
X137800D02*
G01Y5417D01*
X138200D02*
G01X137400D01*
X136467D02*
G01Y7917D01*
X134933Y5417*
Y7917*
X125067Y170350D02*
G01Y173850D01*
X124233*
X123900Y173675*
X123650Y173442*
X123442Y173092*
X123275Y172683*
X123233Y172100*
X123275Y171517*
X123442Y171108*
X123650Y170758*
X123900Y170525*
X124233Y170350*
X125067*
X122567Y171050D02*
G01X122317Y170642D01*
X121983Y170408*
X121608Y170350*
X121275Y170408*
X120942Y170700*
X120733Y171050*
X120692Y171400*
X120775Y171808*
X121067Y172100*
X121358Y172217*
X121733*
X121358D02*
G01X121108Y172392D01*
X120900Y172683*
X120817Y173033*
X120900Y173383*
X121108Y173675*
X121483Y173850*
X121858Y173792*
X122233Y173558*
X114300Y265450D02*
G01Y268950D01*
X114800Y268250*
Y265450D02*
G01X113800D01*
X119383Y254858D02*
G01X119633Y255033D01*
X119925Y255150*
X120258*
X120633Y254975*
X120925Y254683*
X121133Y254333*
X121300Y253750*
X121342Y253225*
X121258Y252700*
X121133Y252350*
X120883Y252000*
X120592Y251767*
X120300Y251650*
X120008*
X119717Y251767*
X119467Y251942*
X119258Y252175*
X117800Y251650D02*
G01Y255150D01*
X118300Y254450*
Y251650D02*
G01X117300D01*
X115300Y255150D02*
G01X115633Y255033D01*
X115883Y254742*
X116050Y254392*
X116175Y253925*
X116217Y253400*
X116175Y252875*
X116050Y252408*
X115883Y252058*
X115633Y251767*
X115300Y251650*
X114967Y251767*
X114717Y252058*
X114550Y252408*
X114425Y252875*
X114383Y253400*
X114425Y253925*
X114550Y254392*
X114717Y254742*
X114967Y255033*
X115300Y255150*
X119617Y290550D02*
G01Y288042D01*
X119450Y287517*
X119117Y287167*
X118700Y287050*
X118283Y287167*
X117950Y287517*
X117783Y288042*
Y290550*
X115600Y287050D02*
G01Y290550D01*
X117142Y288042*
X115058*
X118267Y320517D02*
G01X118533Y320725D01*
X118833Y320850*
X119100*
X119367Y320725*
X119567Y320517*
X119667Y320225*
X119600Y319933*
X119433Y319683*
X119133Y319517*
X118733Y319433*
X118500Y319267*
X118400Y318975*
X118467Y318683*
X118633Y318475*
X118867Y318350*
X119100*
X119333Y318433*
X119533Y318642*
X121733Y320850D02*
G01X120400D01*
Y318350*
X121733*
X121200Y319558D02*
G01X120400D01*
X122400Y320850D02*
G01Y318350D01*
X123933Y320850*
Y318350*
X125267Y320850D02*
G01Y318350D01*
X124867Y318850*
Y320850D02*
G01X125667D01*
X169250Y5267D02*
G01X169517Y5308D01*
X169750Y5475*
X169950Y5725*
X170083Y6017*
X170150Y6350*
Y6683*
X170083Y7017*
X169950Y7308*
X169750Y7558*
X169517Y7725*
X169250Y7767*
X168983Y7725*
X168750Y7558*
X168550Y7308*
X168417Y7017*
X168350Y6683*
Y6350*
X168417Y6017*
X168550Y5725*
X168750Y5475*
X168983Y5308*
X169250Y5267*
X167883Y7767D02*
G01Y5975D01*
X167750Y5600*
X167483Y5350*
X167150Y5267*
X166817Y5350*
X166550Y5600*
X166417Y5975*
Y7767*
X165050D02*
G01Y5267D01*
X165817Y7767D02*
G01X164283D01*
X163583Y7350D02*
G01X163383Y7600D01*
X163150Y7725*
X162883Y7767*
X162550Y7683*
X162317Y7475*
X162250Y7225*
X162283Y6975*
X162417Y6767*
X163083Y6350*
X163383Y6058*
X163583Y5642*
X163650Y5267*
X162250*
X161850Y4433D02*
G01X159850D01*
X158750Y5267D02*
G01X159017Y5308D01*
X159250Y5475*
X159450Y5725*
X159583Y6017*
X159650Y6350*
Y6683*
X159583Y7017*
X159450Y7308*
X159250Y7558*
X159017Y7725*
X158750Y7767*
X158483Y7725*
X158250Y7558*
X158050Y7308*
X157917Y7017*
X157850Y6683*
Y6350*
X157917Y6017*
X158050Y5725*
X158250Y5475*
X158483Y5308*
X158750Y5267*
X157383Y7767D02*
G01Y5975D01*
X157250Y5600*
X156983Y5350*
X156650Y5267*
X156317Y5350*
X156050Y5600*
X155917Y5975*
Y7767*
X154550D02*
G01Y5267D01*
X155317Y7767D02*
G01X153783D01*
X153367Y114250D02*
G01Y117750D01*
X152533*
X152200Y117575*
X151950Y117342*
X151742Y116992*
X151575Y116583*
X151533Y116000*
X151575Y115417*
X151742Y115008*
X151950Y114658*
X152200Y114425*
X152533Y114250*
X153367*
X149450D02*
G01Y117750D01*
X150992Y115242*
X148908*
X152050Y156417D02*
G01X155550D01*
Y157458*
X155375Y157792*
X155142Y158000*
X154675Y158083*
X154208Y158000*
X153917Y157750*
X153742Y157458*
Y156417*
Y157458D02*
G01X152050Y158083D01*
Y159667D02*
G01X152808Y159750D01*
X153450Y159875*
X154033Y160042*
X154675Y160250*
X155550Y160583*
Y158917*
X157850Y156317D02*
G01X161350D01*
Y157358*
X161175Y157692*
X160942Y157900*
X160475Y157983*
X160008Y157900*
X159717Y157650*
X159542Y157358*
Y156317*
Y157358D02*
G01X157850Y157983D01*
Y159650D02*
G01X157908Y159942D01*
X158083Y160275*
X158375Y160483*
X158783Y160567*
X159192Y160483*
X159542Y160233*
X159717Y159858*
Y159442*
X159833Y159192*
X160125Y158983*
X160533Y158900*
X160942Y159025*
X161233Y159317*
X161350Y159650*
X161233Y159983*
X160942Y160275*
X160533Y160400*
X160125Y160317*
X159833Y160108*
X159717Y159858*
Y159442*
X159542Y159067*
X159192Y158817*
X158783Y158733*
X158375Y158817*
X158083Y159025*
X157908Y159358*
X157850Y159650*
X144483Y167950D02*
G01Y171450D01*
X143442*
X143108Y171275*
X142900Y171042*
X142817Y170575*
X142900Y170108*
X143150Y169817*
X143442Y169642*
X144483*
X143442D02*
G01X142817Y167950D01*
X142067Y168475D02*
G01X141817Y168183D01*
X141525Y168008*
X141150Y167950*
X140775Y168067*
X140483Y168300*
X140275Y168708*
X140233Y169175*
X140317Y169642*
X140525Y169933*
X140817Y170167*
X141108Y170225*
X141400Y170167*
X141775Y169933*
X141650Y171450*
X140525*
X155433Y174650D02*
G01Y178150D01*
X154392*
X154058Y177975*
X153850Y177742*
X153767Y177275*
X153850Y176808*
X154100Y176517*
X154392Y176342*
X155433*
X154392D02*
G01X153767Y174650D01*
X152100D02*
G01Y178150D01*
X152600Y177450*
Y174650D02*
G01X151600D01*
X150517Y175350D02*
G01X150267Y174942D01*
X149933Y174708*
X149558Y174650*
X149225Y174708*
X148892Y175000*
X148683Y175350*
X148642Y175700*
X148725Y176108*
X149017Y176400*
X149308Y176517*
X149683*
X149308D02*
G01X149058Y176692D01*
X148850Y176983*
X148767Y177333*
X148850Y177683*
X149058Y177975*
X149433Y178150*
X149808Y178092*
X150183Y177858*
X155333Y180950D02*
G01Y184450D01*
X154292*
X153958Y184275*
X153750Y184042*
X153667Y183575*
X153750Y183108*
X154000Y182817*
X154292Y182642*
X155333*
X154292D02*
G01X153667Y180950D01*
X152000D02*
G01Y184450D01*
X152500Y183750*
Y180950D02*
G01X151500D01*
X149000D02*
G01Y184450D01*
X150542Y181942*
X148458*
X136767Y320083D02*
G01X137600Y317583D01*
X138433Y320083*
X138133Y319208D02*
G01X137067D01*
X140433Y317792D02*
G01X140233Y317667D01*
X140000Y317583*
X139733*
X139433Y317708*
X139200Y317917*
X139033Y318167*
X138900Y318583*
X138867Y318958*
X138933Y319333*
X139033Y319583*
X139233Y319833*
X139467Y320000*
X139700Y320083*
X139933*
X140167Y320000*
X140367Y319875*
X140533Y319708*
X140800Y320917D02*
G01X142800D01*
X143133Y320083D02*
G01Y317583D01*
X144667Y320083*
Y317583*
X145367Y318000D02*
G01X145567Y317750D01*
X145800Y317625*
X146067Y317583*
X146400Y317667*
X146633Y317875*
X146700Y318125*
X146667Y318375*
X146533Y318583*
X145867Y319000*
X145567Y319292*
X145367Y319708*
X145300Y320083*
X146700*
X158467Y320117D02*
G01X158733Y320325D01*
X159033Y320450*
X159300*
X159567Y320325*
X159767Y320117*
X159867Y319825*
X159800Y319533*
X159633Y319283*
X159333Y319117*
X158933Y319033*
X158700Y318867*
X158600Y318575*
X158667Y318283*
X158833Y318075*
X159067Y317950*
X159300*
X159533Y318033*
X159733Y318242*
X161933Y320450D02*
G01X160600D01*
Y317950*
X161933*
X161400Y319158D02*
G01X160600D01*
X162600Y320450D02*
G01Y317950D01*
X164133Y320450*
Y317950*
X164833Y318367D02*
G01X165033Y318117D01*
X165267Y317992*
X165533Y317950*
X165867Y318033*
X166100Y318242*
X166167Y318492*
X166133Y318742*
X166000Y318950*
X165333Y319367*
X165033Y319658*
X164833Y320075*
X164767Y320450*
X166167*
X188500Y5417D02*
G01X188767Y5458D01*
X189000Y5625*
X189200Y5875*
X189333Y6167*
X189400Y6500*
Y6833*
X189333Y7167*
X189200Y7458*
X189000Y7708*
X188767Y7875*
X188500Y7917*
X188233Y7875*
X188000Y7708*
X187800Y7458*
X187667Y7167*
X187600Y6833*
Y6500*
X187667Y6167*
X187800Y5875*
X188000Y5625*
X188233Y5458*
X188500Y5417*
X187133Y7917D02*
G01Y6125D01*
X187000Y5750*
X186733Y5500*
X186400Y5417*
X186067Y5500*
X185800Y5750*
X185667Y6125*
Y7917*
X184300D02*
G01Y5417D01*
X185067Y7917D02*
G01X183533D01*
X182933Y5917D02*
G01X182733Y5625D01*
X182467Y5458*
X182167Y5417*
X181900Y5458*
X181633Y5667*
X181467Y5917*
X181433Y6167*
X181500Y6458*
X181733Y6667*
X181967Y6750*
X182267*
X181967D02*
G01X181767Y6875D01*
X181600Y7083*
X181533Y7333*
X181600Y7583*
X181767Y7792*
X182067Y7917*
X182367Y7875*
X182667Y7708*
X181100Y4583D02*
G01X179100D01*
X178400Y7917D02*
G01X177600D01*
X178000D02*
G01Y5417D01*
X178400D02*
G01X177600D01*
X176667D02*
G01Y7917D01*
X175133Y5417*
Y7917*
X167750Y136050D02*
G01X168083Y136108D01*
X168375Y136342*
X168625Y136692*
X168792Y137100*
X168875Y137567*
Y138033*
X168792Y138500*
X168625Y138908*
X168375Y139258*
X168083Y139492*
X167750Y139550*
X167417Y139492*
X167125Y139258*
X166875Y138908*
X166708Y138500*
X166625Y138033*
Y137567*
X166708Y137100*
X166875Y136692*
X167125Y136342*
X167417Y136108*
X167750Y136050*
X167417Y136983D02*
G01X166917Y136050D01*
X165250D02*
G01Y139550D01*
X165750Y138850*
Y136050D02*
G01X164750D01*
X169150Y186350D02*
G01X169483Y186408D01*
X169775Y186642*
X170025Y186992*
X170192Y187400*
X170275Y187867*
Y188333*
X170192Y188800*
X170025Y189208*
X169775Y189558*
X169483Y189792*
X169150Y189850*
X168817Y189792*
X168525Y189558*
X168275Y189208*
X168108Y188800*
X168025Y188333*
Y187867*
X168108Y187400*
X168275Y186992*
X168525Y186642*
X168817Y186408*
X169150Y186350*
X168817Y187283D02*
G01X168317Y186350D01*
X166150D02*
G01Y189850D01*
X167692Y187342*
X165608*
X176467Y320283D02*
G01X177300Y317783D01*
X178133Y320283*
X177833Y319408D02*
G01X176767D01*
X180133Y317992D02*
G01X179933Y317867D01*
X179700Y317783*
X179433*
X179133Y317908*
X178900Y318117*
X178733Y318367*
X178600Y318783*
X178567Y319158*
X178633Y319533*
X178733Y319783*
X178933Y320033*
X179167Y320200*
X179400Y320283*
X179633*
X179867Y320200*
X180067Y320075*
X180233Y319908*
X180500Y321117D02*
G01X182500D01*
X182833Y320283D02*
G01Y317783D01*
X184367Y320283*
Y317783*
X184967Y319783D02*
G01X185167Y320075D01*
X185433Y320242*
X185733Y320283*
X186000Y320242*
X186267Y320033*
X186433Y319783*
X186467Y319533*
X186400Y319242*
X186167Y319033*
X185933Y318950*
X185633*
X185933D02*
G01X186133Y318825D01*
X186300Y318617*
X186367Y318367*
X186300Y318117*
X186133Y317908*
X185833Y317783*
X185533Y317825*
X185233Y317992*
X209450Y5267D02*
G01X209717Y5308D01*
X209950Y5475*
X210150Y5725*
X210283Y6017*
X210350Y6350*
Y6683*
X210283Y7017*
X210150Y7308*
X209950Y7558*
X209717Y7725*
X209450Y7767*
X209183Y7725*
X208950Y7558*
X208750Y7308*
X208617Y7017*
X208550Y6683*
Y6350*
X208617Y6017*
X208750Y5725*
X208950Y5475*
X209183Y5308*
X209450Y5267*
X208083Y7767D02*
G01Y5975D01*
X207950Y5600*
X207683Y5350*
X207350Y5267*
X207017Y5350*
X206750Y5600*
X206617Y5975*
Y7767*
X205250D02*
G01Y5267D01*
X206017Y7767D02*
G01X204483D01*
X203883Y5767D02*
G01X203683Y5475D01*
X203417Y5308*
X203117Y5267*
X202850Y5308*
X202583Y5517*
X202417Y5767*
X202383Y6017*
X202450Y6308*
X202683Y6517*
X202917Y6600*
X203217*
X202917D02*
G01X202717Y6725D01*
X202550Y6933*
X202483Y7183*
X202550Y7433*
X202717Y7642*
X203017Y7767*
X203317Y7725*
X203617Y7558*
X202050Y4433D02*
G01X200050D01*
X198950Y5267D02*
G01X199217Y5308D01*
X199450Y5475*
X199650Y5725*
X199783Y6017*
X199850Y6350*
Y6683*
X199783Y7017*
X199650Y7308*
X199450Y7558*
X199217Y7725*
X198950Y7767*
X198683Y7725*
X198450Y7558*
X198250Y7308*
X198117Y7017*
X198050Y6683*
Y6350*
X198117Y6017*
X198250Y5725*
X198450Y5475*
X198683Y5308*
X198950Y5267*
X197583Y7767D02*
G01Y5975D01*
X197450Y5600*
X197183Y5350*
X196850Y5267*
X196517Y5350*
X196250Y5600*
X196117Y5975*
Y7767*
X194750D02*
G01Y5267D01*
X195517Y7767D02*
G01X193983D01*
X193267Y114150D02*
G01Y117650D01*
X192433*
X192100Y117475*
X191850Y117242*
X191642Y116892*
X191475Y116483*
X191433Y115900*
X191475Y115317*
X191642Y114908*
X191850Y114558*
X192100Y114325*
X192433Y114150*
X193267*
X190767Y114675D02*
G01X190517Y114383D01*
X190225Y114208*
X189850Y114150*
X189475Y114267*
X189183Y114500*
X188975Y114908*
X188933Y115375*
X189017Y115842*
X189225Y116133*
X189517Y116367*
X189808Y116425*
X190100Y116367*
X190475Y116133*
X190350Y117650*
X189225*
X208350Y135650D02*
G01X208683Y135708D01*
X208975Y135942*
X209225Y136292*
X209392Y136700*
X209475Y137167*
Y137633*
X209392Y138100*
X209225Y138508*
X208975Y138858*
X208683Y139092*
X208350Y139150*
X208017Y139092*
X207725Y138858*
X207475Y138508*
X207308Y138100*
X207225Y137633*
Y137167*
X207308Y136700*
X207475Y136292*
X207725Y135942*
X208017Y135708*
X208350Y135650*
X208017Y136583D02*
G01X207517Y135650D01*
X206642Y138567D02*
G01X206392Y138917D01*
X206100Y139092*
X205767Y139150*
X205350Y139033*
X205058Y138742*
X204975Y138392*
X205017Y138042*
X205183Y137750*
X206017Y137167*
X206392Y136758*
X206642Y136175*
X206725Y135650*
X204975*
X191450Y156017D02*
G01X194950D01*
Y157058*
X194775Y157392*
X194542Y157600*
X194075Y157683*
X193608Y157600*
X193317Y157350*
X193142Y157058*
Y156017*
Y157058D02*
G01X191450Y157683D01*
X191858Y158642D02*
G01X191567Y158933D01*
X191450Y159267*
X191567Y159600*
X191917Y159892*
X192442Y160100*
X192967Y160183*
X193608*
X194133Y160100*
X194600Y159892*
X194833Y159642*
X194950Y159350*
X194833Y159017*
X194600Y158767*
X194250Y158600*
X193783Y158517*
X193375Y158600*
X192967Y158808*
X192733Y159058*
X192675Y159350*
X192792Y159683*
X193083Y159933*
X193608Y160183*
X197350Y155967D02*
G01X200850D01*
Y157008*
X200675Y157342*
X200442Y157550*
X199975Y157633*
X199508Y157550*
X199217Y157300*
X199042Y157008*
Y155967*
Y157008D02*
G01X197350Y157633D01*
Y159300D02*
G01X200850D01*
X200150Y158800*
X197350D02*
G01Y159800D01*
X200850Y161800D02*
G01X200733Y161467D01*
X200442Y161217*
X200092Y161050*
X199625Y160925*
X199100Y160883*
X198575Y160925*
X198108Y161050*
X197758Y161217*
X197467Y161467*
X197350Y161800*
X197467Y162133*
X197758Y162383*
X198108Y162550*
X198575Y162675*
X199100Y162717*
X199625Y162675*
X200092Y162550*
X200442Y162383*
X200733Y162133*
X200850Y161800*
X197867Y172950D02*
G01Y176450D01*
X197033*
X196700Y176275*
X196450Y176042*
X196242Y175692*
X196075Y175283*
X196033Y174700*
X196075Y174117*
X196242Y173708*
X196450Y173358*
X196700Y173125*
X197033Y172950*
X197867*
X194533D02*
G01X194450Y173708D01*
X194325Y174350*
X194158Y174933*
X193950Y175575*
X193617Y176450*
X195283*
X198167Y320317D02*
G01X198433Y320525D01*
X198733Y320650*
X199000*
X199267Y320525*
X199467Y320317*
X199567Y320025*
X199500Y319733*
X199333Y319483*
X199033Y319317*
X198633Y319233*
X198400Y319067*
X198300Y318775*
X198367Y318483*
X198533Y318275*
X198767Y318150*
X199000*
X199233Y318233*
X199433Y318442*
X201633Y320650D02*
G01X200300D01*
Y318150*
X201633*
X201100Y319358D02*
G01X200300D01*
X202300Y320650D02*
G01Y318150D01*
X203833Y320650*
Y318150*
X204433Y320150D02*
G01X204633Y320442D01*
X204900Y320608*
X205200Y320650*
X205467Y320608*
X205733Y320400*
X205900Y320150*
X205933Y319900*
X205867Y319608*
X205633Y319400*
X205400Y319317*
X205100*
X205400D02*
G01X205600Y319192D01*
X205767Y318983*
X205833Y318733*
X205767Y318483*
X205600Y318275*
X205300Y318150*
X205000Y318192*
X204700Y318358*
X228000Y5217D02*
G01X228267Y5258D01*
X228500Y5425*
X228700Y5675*
X228833Y5967*
X228900Y6300*
Y6633*
X228833Y6967*
X228700Y7258*
X228500Y7508*
X228267Y7675*
X228000Y7717*
X227733Y7675*
X227500Y7508*
X227300Y7258*
X227167Y6967*
X227100Y6633*
Y6300*
X227167Y5967*
X227300Y5675*
X227500Y5425*
X227733Y5258*
X228000Y5217*
X226633Y7717D02*
G01Y5925D01*
X226500Y5550*
X226233Y5300*
X225900Y5217*
X225567Y5300*
X225300Y5550*
X225167Y5925*
Y7717*
X223800D02*
G01Y5217D01*
X224567Y7717D02*
G01X223033D01*
X221300Y5217D02*
G01Y7717D01*
X222533Y5925*
X220867*
X220600Y4383D02*
G01X218600D01*
X217900Y7717D02*
G01X217100D01*
X217500D02*
G01Y5217D01*
X217900D02*
G01X217100D01*
X216167D02*
G01Y7717D01*
X214633Y5217*
Y7717*
X248950Y5067D02*
G01X249217Y5108D01*
X249450Y5275*
X249650Y5525*
X249783Y5817*
X249850Y6150*
Y6483*
X249783Y6817*
X249650Y7108*
X249450Y7358*
X249217Y7525*
X248950Y7567*
X248683Y7525*
X248450Y7358*
X248250Y7108*
X248117Y6817*
X248050Y6483*
Y6150*
X248117Y5817*
X248250Y5525*
X248450Y5275*
X248683Y5108*
X248950Y5067*
X247583Y7567D02*
G01Y5775D01*
X247450Y5400*
X247183Y5150*
X246850Y5067*
X246517Y5150*
X246250Y5400*
X246117Y5775*
Y7567*
X244750D02*
G01Y5067D01*
X245517Y7567D02*
G01X243983D01*
X242250Y5067D02*
G01Y7567D01*
X243483Y5775*
X241817*
X241550Y4233D02*
G01X239550D01*
X238450Y5067D02*
G01X238717Y5108D01*
X238950Y5275*
X239150Y5525*
X239283Y5817*
X239350Y6150*
Y6483*
X239283Y6817*
X239150Y7108*
X238950Y7358*
X238717Y7525*
X238450Y7567*
X238183Y7525*
X237950Y7358*
X237750Y7108*
X237617Y6817*
X237550Y6483*
Y6150*
X237617Y5817*
X237750Y5525*
X237950Y5275*
X238183Y5108*
X238450Y5067*
X237083Y7567D02*
G01Y5775D01*
X236950Y5400*
X236683Y5150*
X236350Y5067*
X236017Y5150*
X235750Y5400*
X235617Y5775*
Y7567*
X234250D02*
G01Y5067D01*
X235017Y7567D02*
G01X233483D01*
X233667Y113550D02*
G01Y117050D01*
X232833*
X232500Y116875*
X232250Y116642*
X232042Y116292*
X231875Y115883*
X231833Y115300*
X231875Y114717*
X232042Y114308*
X232250Y113958*
X232500Y113725*
X232833Y113550*
X233667*
X231042Y115008D02*
G01X230750Y115417D01*
X230500Y115650*
X230167Y115767*
X229875Y115650*
X229667Y115417*
X229500Y115067*
X229458Y114658*
X229500Y114308*
X229667Y113958*
X229917Y113667*
X230208Y113550*
X230542Y113667*
X230833Y114017*
X231000Y114542*
X231042Y115125*
X230958Y115883*
X230833Y116292*
X230625Y116700*
X230333Y116992*
X230042Y117050*
X229750Y116933*
X229542Y116642*
X226550Y135950D02*
G01X226883Y136008D01*
X227175Y136242*
X227425Y136592*
X227592Y137000*
X227675Y137467*
Y137933*
X227592Y138400*
X227425Y138808*
X227175Y139158*
X226883Y139392*
X226550Y139450*
X226217Y139392*
X225925Y139158*
X225675Y138808*
X225508Y138400*
X225425Y137933*
Y137467*
X225508Y137000*
X225675Y136592*
X225925Y136242*
X226217Y136008*
X226550Y135950*
X226217Y136883D02*
G01X225717Y135950D01*
X224967Y136650D02*
G01X224717Y136242D01*
X224383Y136008*
X224008Y135950*
X223675Y136008*
X223342Y136300*
X223133Y136650*
X223092Y137000*
X223175Y137408*
X223467Y137700*
X223758Y137817*
X224133*
X223758D02*
G01X223508Y137992D01*
X223300Y138283*
X223217Y138633*
X223300Y138983*
X223508Y139275*
X223883Y139450*
X224258Y139392*
X224633Y139158*
X228950Y156067D02*
G01X232450D01*
Y157108*
X232275Y157442*
X232042Y157650*
X231575Y157733*
X231108Y157650*
X230817Y157400*
X230642Y157108*
Y156067*
Y157108D02*
G01X228950Y157733D01*
Y159400D02*
G01X232450D01*
X231750Y158900*
X228950D02*
G01Y159900D01*
Y161900D02*
G01X232450D01*
X231750Y161400*
X228950D02*
G01Y162400D01*
X235350Y156267D02*
G01X238850D01*
Y157308*
X238675Y157642*
X238442Y157850*
X237975Y157933*
X237508Y157850*
X237217Y157600*
X237042Y157308*
Y156267*
Y157308D02*
G01X235350Y157933D01*
Y159600D02*
G01X238850D01*
X238150Y159100*
X235350D02*
G01Y160100D01*
X238267Y161308D02*
G01X238617Y161558D01*
X238792Y161850*
X238850Y162183*
X238733Y162600*
X238442Y162892*
X238092Y162975*
X237742Y162933*
X237450Y162767*
X236867Y161933*
X236458Y161558*
X235875Y161308*
X235350Y161225*
Y162975*
X216667Y320183D02*
G01X217500Y317683D01*
X218333Y320183*
X218033Y319308D02*
G01X216967D01*
X220333Y317892D02*
G01X220133Y317767D01*
X219900Y317683*
X219633*
X219333Y317808*
X219100Y318017*
X218933Y318267*
X218800Y318683*
X218767Y319058*
X218833Y319433*
X218933Y319683*
X219133Y319933*
X219367Y320100*
X219600Y320183*
X219833*
X220067Y320100*
X220267Y319975*
X220433Y319808*
X220700Y321017D02*
G01X222700D01*
X223033Y320183D02*
G01Y317683D01*
X224567Y320183*
Y317683*
X226300Y320183D02*
G01Y317683D01*
X225067Y319475*
X226733*
X238367Y320217D02*
G01X238633Y320425D01*
X238933Y320550*
X239200*
X239467Y320425*
X239667Y320217*
X239767Y319925*
X239700Y319633*
X239533Y319383*
X239233Y319217*
X238833Y319133*
X238600Y318967*
X238500Y318675*
X238567Y318383*
X238733Y318175*
X238967Y318050*
X239200*
X239433Y318133*
X239633Y318342*
X241833Y320550D02*
G01X240500D01*
Y318050*
X241833*
X241300Y319258D02*
G01X240500D01*
X242500Y320550D02*
G01Y318050D01*
X244033Y320550*
Y318050*
X245767Y320550D02*
G01Y318050D01*
X244533Y319842*
X246200*
G54D50*
X14800Y60006D02*
G01X17800D01*
X14800Y58794D02*
G01X17800D01*
X16300Y58613D02*
G01Y57825D01*
Y60975D02*
G01Y60187D01*
X34500Y208394D02*
G01X31500D01*
X34500Y209606D02*
G01X31500D01*
X33000Y209787D02*
G01Y210575D01*
Y207425D02*
G01Y208213D01*
X16585Y281264D02*
G01Y301736D01*
X27215Y281264D02*
G01Y301736D01*
X29971D02*
G01Y281264D01*
X45500Y228606D02*
G01X48500D01*
X45500Y227394D02*
G01X48500D01*
X47000Y227213D02*
G01Y226425D01*
Y229575D02*
G01Y228787D01*
X38400Y241794D02*
G01X41400D01*
X39900Y241613D02*
G01Y240825D01*
X44400Y241794D02*
G01X47400D01*
X45900Y241613D02*
G01Y240825D01*
X38400Y243006D02*
G01X41400D01*
X39900Y243975D02*
G01Y243187D01*
X44400Y243006D02*
G01X47400D01*
X45900Y243975D02*
G01Y243187D01*
X43357Y281264D02*
G01Y301736D01*
X53987Y281264D02*
G01Y301736D01*
X40601D02*
G01Y281264D01*
X84815Y259336D02*
G01Y238864D01*
X74185Y259336D02*
G01Y238864D01*
X71000Y249294D02*
G01X68000D01*
X71000Y250506D02*
G01X68000D01*
X69500Y250687D02*
G01Y251475D01*
Y248325D02*
G01Y249113D01*
X83100Y271394D02*
G01X80100D01*
X83100Y272606D02*
G01X80100D01*
X81600Y272787D02*
G01Y273575D01*
Y270425D02*
G01Y271213D01*
X68100Y272606D02*
G01X71100D01*
X68100Y271394D02*
G01X71100D01*
X69600Y271213D02*
G01Y270425D01*
Y273575D02*
G01Y272787D01*
X70506Y295200D02*
G01Y292200D01*
X69294Y295200D02*
G01Y292200D01*
X69113Y293700D02*
G01X68325D01*
X71475D02*
G01X70687D01*
X91385Y168964D02*
G01Y189436D01*
X102015Y168964D02*
G01Y189436D01*
X86794Y200000D02*
G01Y203000D01*
X88006Y200000D02*
G01Y203000D01*
X88187Y201500D02*
G01X88975D01*
X85825D02*
G01X86613D01*
X86794Y194000D02*
G01Y197000D01*
X88006Y194000D02*
G01Y197000D01*
X88187Y195500D02*
G01X88975D01*
X85825D02*
G01X86613D01*
X133236Y158385D02*
G01X112764D01*
X133236Y169015D02*
G01X112764D01*
X115094Y257200D02*
G01Y260200D01*
X116306Y257200D02*
G01Y260200D01*
X116487Y258700D02*
G01X117275D01*
X114125D02*
G01X114913D01*
X141864Y129615D02*
G01X162336D01*
X141864Y118985D02*
G01X162336D01*
X181364Y129615D02*
G01X201836D01*
X181364Y118985D02*
G01X201836D01*
X181685Y164764D02*
G01Y185236D01*
X192315Y164764D02*
G01Y185236D01*
X221764Y129615D02*
G01X242236D01*
X221764Y118985D02*
G01X242236D01*
G54D51*
X14528Y64518D02*
G01X13741D01*
Y54282*
X14528*
X18072Y64518D02*
G01X18859D01*
Y54282*
X18072*
X29165Y203882D02*
G01X29559D01*
Y214118*
X29165*
X24638Y203882D02*
G01X24441D01*
Y214118*
X24835*
X34772Y203882D02*
G01X35559D01*
Y214118*
X34772*
X31228Y203882D02*
G01X30441D01*
Y214118*
X31228*
X33465Y306182D02*
G01X33859D01*
Y316418*
X33465*
X28938Y306182D02*
G01X28741D01*
Y316418*
X29135*
X48618Y217138D02*
G01Y216941D01*
X38382*
Y217335*
X38835Y233118D02*
G01X38441D01*
Y222882*
X38835*
X43362Y233118D02*
G01X43559D01*
Y222882*
X43165*
X48618Y221665D02*
G01Y222059D01*
X38382*
Y221665*
X45228Y233118D02*
G01X44441D01*
Y222882*
X45228*
X48772Y233118D02*
G01X49559D01*
Y222882*
X48772*
X38128Y247518D02*
G01X37341D01*
Y237282*
X38128*
X41672Y247518D02*
G01X42459D01*
Y237282*
X41672*
X44128Y247518D02*
G01X43341D01*
Y237282*
X44128*
X47672Y247518D02*
G01X48459D01*
Y237282*
X47672*
X55435Y277118D02*
G01X55041D01*
Y266882*
X55435*
X59962Y277118D02*
G01X60159D01*
Y266882*
X59765*
X54065Y306182D02*
G01X54459D01*
Y316418*
X54065*
X49538Y306182D02*
G01X49341D01*
Y316418*
X49735*
X82735Y188518D02*
G01X82341D01*
Y178282*
X82735*
X82282Y199728D02*
G01Y198941D01*
X92518*
Y199728*
X82282Y203272D02*
G01Y204059D01*
X92518*
Y203272*
X82282Y193728D02*
G01Y192941D01*
X92518*
Y193728*
X82282Y197272D02*
G01Y198059D01*
X92518*
Y197272*
X77765Y266882D02*
G01X78159D01*
Y277118*
X77765*
X73238Y266882D02*
G01X73041D01*
Y277118*
X73435*
X61435D02*
G01X61041D01*
Y266882*
X61435*
X65962Y277118D02*
G01X66159D01*
Y266882*
X65765*
X71272Y244782D02*
G01X72059D01*
Y255018*
X71272*
X67728Y244782D02*
G01X66941D01*
Y255018*
X67728*
X83372Y266882D02*
G01X84159D01*
Y277118*
X83372*
X79828Y266882D02*
G01X79041D01*
Y277118*
X79828*
X67828D02*
G01X67041D01*
Y266882*
X67828*
X71372Y277118D02*
G01X72159D01*
Y266882*
X71372*
X75018Y291928D02*
G01Y291141D01*
X64782*
Y291928*
X75018Y295472D02*
G01Y296259D01*
X64782*
Y295472*
X87262Y188518D02*
G01X87459D01*
Y178282*
X87065*
X110582Y256928D02*
G01Y256141D01*
X120818*
Y256928*
X110582Y260472D02*
G01Y261259D01*
X120818*
Y260472*
X151635Y154818D02*
G01X151241D01*
Y144582*
X151635*
X156162Y154818D02*
G01X156359D01*
Y144582*
X155965*
X157635Y154818D02*
G01X157241D01*
Y144582*
X157635*
X137382Y161735D02*
G01Y161341D01*
X147618*
Y161735*
X137382Y166262D02*
G01Y166459D01*
X147618*
Y166065*
X156482Y174535D02*
G01Y174141D01*
X166718*
Y174535*
X156482Y179062D02*
G01Y179259D01*
X166718*
Y178865*
X156482Y180535D02*
G01Y180141D01*
X166718*
Y180535*
X156482Y185062D02*
G01Y185259D01*
X166718*
Y184865*
X162162Y154818D02*
G01X162359D01*
Y144582*
X161965*
X191135Y154818D02*
G01X190741D01*
Y144582*
X191135*
X195662Y154818D02*
G01X195859D01*
Y144582*
X195465*
X197135Y154818D02*
G01X196741D01*
Y144582*
X197135*
X201662Y154818D02*
G01X201859D01*
Y144582*
X201465*
X231535Y154818D02*
G01X231141D01*
Y144582*
X231535*
X236062Y154818D02*
G01X236259D01*
Y144582*
X235865*
X237535Y154818D02*
G01X237141D01*
Y144582*
X237535*
X242062Y154818D02*
G01X242259D01*
Y144582*
X241865*
G54D52*
X36919Y219102D02*
G03X36919Y219102I-492D01*
X78628Y145266D02*
G03X78628Y145266I-492D01*
X79592Y176000D02*
G03X79592Y176000I-492D01*
X65888Y239667D02*
G03X65888Y239667I-492D01*
X99692Y234800D02*
G03X99692Y234800I-492D01*
G54D53*
X15954Y225401D02*
G01X35246D01*
Y237999*
X15954*
Y225401*
X46774Y184801D02*
G01X81026D01*
Y197399*
X46774*
Y184801*
X64220Y213765D02*
G01X52409D01*
X59102Y211796D02*
G01X57527D01*
X58314Y211009D02*
G01Y212584D01*
X52409Y233450D02*
G01Y213765D01*
X64220Y233450D02*
G01X52409D01*
X61070Y224001D02*
G01X59889Y225182D01*
Y224001*
X58708Y225182*
Y224001*
X57527Y225182*
Y224001*
X56346Y225182*
X55558Y224394*
Y224001*
X55952*
X57133Y225182*
X58314Y224001*
X59495Y225182*
X60676Y224001*
X61070Y224394*
Y225182*
X55558D02*
G01X61070D01*
Y224001*
X55558*
Y225182*
X61070Y222032D02*
G01X55558D01*
X58314Y225182D02*
G01Y226757D01*
Y220457D02*
G01Y222032D01*
Y234631D02*
G01Y235812D01*
X52995Y245474D02*
G01X64805D01*
Y254726*
X52995*
Y245474*
X64805Y249411D02*
G01X60868Y245474D01*
X111010Y135128D02*
G01X74790D01*
Y113672*
X111010*
Y135128*
X67543Y148396D02*
G01X105496D01*
Y165404*
X67543*
Y148396*
X68410*
Y148435*
X65795Y213765D02*
G01X77606D01*
X65795Y233450D02*
G01Y213765D01*
X71700Y212584D02*
G01Y211402D01*
X77606Y213765D02*
G01Y233450D01*
X64220Y213765D02*
G01Y233450D01*
X65795D02*
G01X77606D01*
X68944Y223213D02*
G01X70125Y222032D01*
Y223213*
X71306Y222032*
Y223213*
X72487Y222032*
Y223213*
X73668Y222032*
X74456Y222820*
Y223213*
X74062*
X72881Y222032*
X71700Y223213*
X70519Y222032*
X69338Y223213*
X68944Y222820*
Y222032*
X74456D02*
G01X68944D01*
Y223213*
X74456*
Y222032*
X68944Y225182D02*
G01X74456D01*
X71700Y222032D02*
G01Y220457D01*
Y226757D02*
G01Y225182D01*
X70913Y235418D02*
G01X72487D01*
X71700Y236205D02*
G01Y234631D01*
X64805Y246261D02*
G01X64018Y245474D01*
X64805Y247049D02*
G01X63231Y245474D01*
X64805Y247836D02*
G01X62443Y245474D01*
X64805Y248624D02*
G01X61656Y245474D01*
G54D54*
X22392Y276736D02*
G03X22392Y276736I-492D01*
X49163D02*
G03X49163Y276736I-492D01*
X37492Y305700D02*
G03X37492Y305700I-492D01*
X79992Y263864D02*
G03X79992Y263864I-492D01*
X91092Y167300D02*
G03X91092Y167300I-492D01*
X137828Y124300D02*
G03X137828Y124300I-492D01*
X137092Y158600D02*
G03X137092Y158600I-492D01*
X177328Y124300D02*
G03X177328Y124300I-492D01*
X187492Y160236D02*
G03X187492Y160236I-492D01*
X217728Y124300D02*
G03X217728Y124300I-492D01*
G54D37*
X15500Y204200D02*
G01Y208200D01*
X23500*
Y204200*
X15500Y198900D02*
G01Y214400D01*
X23500Y199000D02*
G01Y214500D01*
X113300Y290800D02*
G01X87300D01*
Y276300*
X113300*
Y290800*
X149950Y135600D02*
G01X163450D01*
Y139600*
X149950*
Y135600*
X175700Y172850D02*
G01Y186350D01*
X171700*
Y172850*
X175700*
X189450Y135600D02*
G01X202950D01*
Y139600*
X189450*
Y135600*
X229850D02*
G01X243350D01*
Y139600*
X229850*
Y135600*
G54D55*
X99150Y70000D02*
G01Y78000D01*
X94250D02*
G01Y70000D01*
Y74000D02*
G01X99150D01*
X89500Y78000D02*
G01Y70000D01*
X92183Y78000D02*
G01X86817D01*
X84633Y70000D02*
G01Y78000D01*
X81717*
X80783Y77600*
X80200Y77067*
X79967Y76000*
X80200Y74933*
X80900Y74267*
X81717Y73867*
X84633*
X81717D02*
G01X79967Y70000D01*
M02*
