G04 CAM350/DFMSTREAM V12.1 (Build 1022) Date:  Thu Oct 23 21:27:20 2025 *
G04 Database: (Untitled) *
G04 Layer 8: SOLDERMASK_TOP.art *
%FSLAX25Y25*%
%MOIN*%
%SFA1.000B1.000*%

%MIA0B0*%
%IPPOS*%
%ADD71R,0.11614X0.05905*%
%ADD29C,0.05315*%
%ADD60C,0.10000*%
%ADD63C,0.11800*%
%ADD65R,0.08080X0.10049*%
%ADD74C,0.07200*%
%ADD75C,0.08200*%
%ADD76C,0.00000*%
%ADD78R,0.07200X0.07200*%
%ADD79R,0.08200X0.08200*%
%ADD81C,0.04134*%
%ADD82R,0.03740X0.02559*%
%ADD83R,0.02559X0.03740*%
%ADD86R,0.06800X0.16500*%
%ADD87R,0.16500X0.06800*%
%ADD88R,0.19500X0.09500*%
%ADD89R,0.05906X0.08661*%
%LNSOLDERMASK_TOP.art*%
%LPD*%
G54D74*
X6400Y7100D03*
Y17700D03*
Y28300D03*
X8900Y92500D03*
Y82500D03*
Y72500D03*
Y112500D03*
Y102500D03*
Y142500D03*
Y132500D03*
Y122500D03*
X254800Y194300D03*
Y214300D03*
Y204300D03*
Y244300D03*
Y234300D03*
Y224300D03*
Y264300D03*
Y254300D03*
G54D78*
X8900Y62500D03*
X254800Y184300D03*
G54D29*
X90889Y226500D03*
X114511D03*
G54D76*
X12100Y50100D03*
X4900Y48500D03*
X6700Y186800D03*
X4800Y219100D03*
X4100Y209400D03*
X4200Y196700D03*
X11430Y242330D03*
X6200Y228700D03*
X4900Y235000D03*
X11000Y289200D03*
X12629Y299571D03*
X12700Y305600D03*
X3700Y317600D03*
X8100Y322900D03*
X31000Y4000D03*
X19300Y4400D03*
X31900Y39500D03*
X15100Y41300D03*
X16900Y26800D03*
X21200Y51600D03*
X25000Y46400D03*
X18700Y82400D03*
X19800Y96000D03*
X18600Y120000D03*
Y128500D03*
X13200Y159400D03*
X13000Y151200D03*
Y180000D03*
X13200Y170700D03*
X35950Y212150D03*
X24100Y212100D03*
X18100Y236900D03*
X37450Y224850D03*
X19300Y229500D03*
X27600D03*
X23800Y234800D03*
X13000D03*
X33100Y236800D03*
Y233800D03*
X32700Y249800D03*
X15700Y277200D03*
X18700Y277100D03*
X35800Y319300D03*
X13900Y311700D03*
X28400Y308300D03*
X52200Y137200D03*
X45800Y139600D03*
X59100Y157000D03*
Y160600D03*
Y152900D03*
X50000Y155800D03*
X52700Y151000D03*
X45000Y152000D03*
X48900Y145400D03*
X52600Y160900D03*
X48900Y187900D03*
X45164Y180864D03*
X58100Y189300D03*
X60000Y186600D03*
X44600Y187000D03*
X61300Y171300D03*
X48900Y219500D03*
Y216200D03*
X39500Y198100D03*
X49000Y197700D03*
X44600Y210900D03*
X50386Y224850D03*
X51700Y230300D03*
X58314Y234186D03*
X51300Y246200D03*
X52200Y249800D03*
Y253600D03*
X38800Y250500D03*
X44400Y266900D03*
X44000Y249600D03*
X47100D03*
X48000Y277100D03*
X48100Y274000D03*
X39200Y319800D03*
X48600Y308200D03*
X83200Y117100D03*
Y113600D03*
Y120700D03*
X76800Y169600D03*
X78700Y189100D03*
X87800Y171200D03*
X79800Y171400D03*
X83400Y171000D03*
X73900Y186200D03*
X68900Y186100D03*
X85800Y176200D03*
X77900Y195100D03*
X64900Y211500D03*
X78500D03*
X81800Y217600D03*
X64000Y198000D03*
X82300Y224000D03*
X86800Y220200D03*
X80900Y230300D03*
X77800D03*
X63600Y265800D03*
X64000Y293700D03*
X66600Y286000D03*
X64200Y288400D03*
X69100Y279600D03*
X66029Y299571D03*
X70700Y313900D03*
X69900Y306800D03*
X67600Y303600D03*
X68900Y322500D03*
X77300Y322300D03*
X87400Y322900D03*
X101900Y30300D03*
Y37850D03*
Y23269D03*
Y45400D03*
X111750Y55250D03*
X106825Y50325D03*
X92500Y116800D03*
X106800Y117600D03*
X92600Y110400D03*
X89200Y129500D03*
X91100Y137200D03*
X96200Y137600D03*
X97300Y129600D03*
X106800Y167000D03*
X90600Y145200D03*
X95700Y145300D03*
X89900Y183500D03*
X89600Y180500D03*
X111100Y171000D03*
X111400Y176500D03*
X90550Y205950D03*
X88200Y211600D03*
X92900Y215100D03*
X98900Y209200D03*
X108700Y218800D03*
X97500Y232900D03*
X106400Y232700D03*
X101400Y225600D03*
X91100Y262800D03*
X88200Y261500D03*
X88000Y264700D03*
Y317200D03*
X121900Y38700D03*
X125921Y42721D03*
X121900Y26950D03*
Y32825D03*
Y21075D03*
X121600Y65100D03*
X116675Y60175D03*
X129942Y46742D03*
X133962Y50762D03*
X121600Y88900D03*
X125696Y92996D03*
X121600Y77000D03*
Y82950D03*
Y71050D03*
X116600Y118700D03*
X129792Y97092D03*
X133887Y101187D03*
X131200Y131400D03*
X129000Y125900D03*
X114200Y127700D03*
X127500Y142800D03*
X117100Y135700D03*
X127700Y150500D03*
X121600Y193900D03*
X136300Y188400D03*
X128400Y180500D03*
X137700Y172200D03*
X127100Y189100D03*
X120350Y209650D03*
X122950Y212250D03*
X125900Y215200D03*
X134200Y206200D03*
X129300Y200600D03*
X114300Y215300D03*
X129776Y238224D03*
X123900Y223900D03*
X130600Y230600D03*
X113600Y242600D03*
Y234800D03*
X132800Y268300D03*
X129500D03*
X126400D03*
X122500Y248100D03*
X114100Y264500D03*
X118850Y250350D03*
X130600Y256400D03*
X130100Y246100D03*
X126900Y271600D03*
X131000D03*
X114100Y271300D03*
X133800Y284400D03*
X136000Y279700D03*
X130000Y287400D03*
X141900Y25300D03*
Y35400D03*
Y30350D03*
Y20250D03*
X150250Y43750D03*
X146075Y39575D03*
X161900Y31400D03*
Y20900D03*
Y26150D03*
X137983Y54783D03*
Y67385D03*
Y61084D03*
X158600Y52100D03*
Y65800D03*
Y59200D03*
X154425Y47925D03*
X137983Y73686D03*
X158600Y89849D03*
Y72400D03*
Y78900D03*
Y84500D03*
X137983Y105283D03*
X160430Y138930D03*
X162200Y133900D03*
X150200Y135700D03*
X145700Y132500D03*
X159900Y168500D03*
X145650Y156350D03*
X143700Y179500D03*
X153000D03*
X158450Y173450D03*
X155417Y216517D03*
X138000Y198800D03*
X151200Y203500D03*
X145800Y225700D03*
X141100Y220400D03*
X162500Y227300D03*
X170319Y39819D03*
X174529Y44029D03*
X166110Y35610D03*
X182000Y26700D03*
X181900Y20950D03*
X185325Y30125D03*
X178739Y48239D03*
Y61500D03*
Y68300D03*
Y54800D03*
Y74144D03*
X168669Y99918D03*
X173704Y104953D03*
X163635Y94883D03*
X181500Y138100D03*
X178800Y141300D03*
X180100Y134500D03*
X164000Y161900D03*
X180500Y174600D03*
X176100Y172700D03*
X164300Y187100D03*
X176783Y216517D03*
X172600Y203500D03*
X179000Y203200D03*
X181800Y227400D03*
X172000Y227200D03*
X195600Y40400D03*
X188750Y33550D03*
X192175Y36975D03*
X211700Y41298D03*
Y36149D03*
Y31000D03*
X201900Y21200D03*
X206800Y26100D03*
X195600Y63247D03*
Y51823D03*
Y57535D03*
Y46112D03*
Y68958D03*
X211700Y51597D03*
Y61895D03*
Y67044D03*
Y56746D03*
Y46447D03*
X195600Y74670D03*
Y80382D03*
Y86093D03*
X200203Y90697D03*
X211700Y72193D03*
X204853Y95347D03*
X209503Y99997D03*
X193900Y192800D03*
X200000Y189100D03*
X194700Y176600D03*
X200700Y176800D03*
X208600Y192800D03*
X204850Y182700D03*
X207550Y186050D03*
X198183Y216517D03*
X193800Y203500D03*
X200700Y202700D03*
X203900Y227200D03*
X194300Y227300D03*
X215203Y75697D03*
X235300Y90500D03*
X236300Y85600D03*
X214255Y104749D03*
X234900Y95600D03*
X235000Y100800D03*
X237400Y103700D03*
X227600Y168500D03*
X224500Y165400D03*
X227600Y162700D03*
X219600Y192900D03*
X219400Y187400D03*
X224800Y172100D03*
X228300Y191300D03*
X219483Y216517D03*
X215400Y203500D03*
X229300Y215100D03*
X228100Y203500D03*
X233800Y237500D03*
X233300Y231500D03*
X241200Y85700D03*
X238800Y88900D03*
X242200Y90600D03*
X238700Y93400D03*
X242000Y95800D03*
X241500Y101000D03*
X238300Y98300D03*
X240900Y104100D03*
X246100Y180600D03*
X241600Y180100D03*
X244500Y216300D03*
X238200Y196400D03*
X241200Y208200D03*
X242600Y239300D03*
X241400Y231400D03*
X243000Y248900D03*
X246200Y264400D03*
G54D75*
X137983Y79987D03*
Y109987D03*
X178739Y79987D03*
Y109987D03*
X167983Y149987D03*
X173800Y194000D03*
X208739Y149987D03*
X213800Y164000D03*
X219494Y79987D03*
Y109987D03*
X249494Y149987D03*
X243800Y164000D03*
G54D79*
X137983Y149987D03*
X178739D03*
X173800Y164000D03*
X219494Y149987D03*
G54D60*
X21900Y15200D03*
Y311600D03*
X41900Y15200D03*
X61900D03*
Y311600D03*
X41900D03*
X81900Y15200D03*
Y311600D03*
X101900Y15200D03*
Y311600D03*
X121900Y15200D03*
Y311600D03*
X141900Y15200D03*
X161900D03*
Y311600D03*
X141900D03*
X181900Y15200D03*
Y311600D03*
X201900Y15200D03*
Y311600D03*
X221900Y15200D03*
Y311600D03*
X241900Y15200D03*
Y311600D03*
G54D86*
X122500Y238224D03*
Y266176D03*
G54D63*
X30493Y108311D03*
Y184689D03*
X117107Y108311D03*
Y146500D03*
Y184689D03*
G54D89*
X155500Y161258D03*
X145500D03*
Y193542D03*
X155500D03*
X155417Y210858D03*
X145417D03*
Y243142D03*
X155417D03*
X176784Y210858D03*
X166784D03*
X188150D03*
X166784Y243142D03*
X176784D03*
X188150D03*
X198150Y210858D03*
X209517D03*
X198150Y243142D03*
X209517D03*
X219517Y210858D03*
Y243142D03*
G54D82*
X22100Y283450D03*
Y277150D03*
X43700Y283450D03*
Y277150D03*
X164300Y189850D03*
Y196150D03*
G54D83*
X149050Y203500D03*
X142750D03*
X150167Y263739D03*
X156467D03*
X150167Y251739D03*
X156467D03*
X150167Y257739D03*
X156467D03*
X170417Y203500D03*
X164117D03*
X185483D03*
X171534Y263739D03*
X177834D03*
X171534Y251739D03*
X177834D03*
X171534Y257739D03*
X177834D03*
X191783Y203500D03*
X206850D03*
X192900Y263739D03*
X199200D03*
X192900Y251739D03*
X199200D03*
X192900Y257739D03*
X199200D03*
X210267Y263739D03*
Y257739D03*
X213150Y203500D03*
X216567Y263739D03*
X213267Y251739D03*
X219567D03*
X216567Y257739D03*
G54D71*
X32400Y291693D03*
Y278307D03*
X54800Y291693D03*
Y278307D03*
G54D65*
X153317Y272448D03*
Y288590D03*
X174684Y272448D03*
Y288590D03*
X196050Y272448D03*
X213417D03*
X196050Y288590D03*
X213417D03*
G54D88*
X48800Y239600D03*
X82800D03*
G54D81*
X48500Y263000D03*
G54D87*
X74424Y273200D03*
X102376D03*
M02*
