G04 CAM350/DFMSTREAM V12.1 (Build 1022) Date:  Thu Oct 23 21:27:20 2025 *
G04 Database: (Untitled) *
G04 Layer 9: TOP.art *
%FSLAX25Y25*%
%MOIN*%
%SFA1.000B1.000*%

%MIA0B0*%
%IPPOS*%
%ADD10C,0.06200*%
%ADD11R,0.06200X0.06200*%
%ADD12C,0.03000*%
%ADD14C,0.09000*%
%ADD16R,0.03543X0.02362*%
%ADD17C,0.11000*%
%ADD71R,0.11614X0.05905*%
%ADD20R,0.07480X0.09449*%
%ADD23R,0.02362X0.03543*%
%ADD27C,0.03937*%
%ADD29C,0.05315*%
%ADD72R,0.19094X0.09055*%
%ADD73R,0.06299X0.15945*%
%ADD33C,0.07700*%
%ADD34R,0.07700X0.07700*%
%ADD36C,0.00800*%
%ADD37C,0.01000*%
%ADD38C,0.02000*%
%ADD39C,0.04000*%
%ADD40C,0.06000*%
%ADD41C,0.08000*%
%ADD46R,0.15945X0.06299*%
%ADD76C,0.00000*%
%ADD90R,0.05512X0.08268*%
%LNTOP.art*%
%LPD*%
G36*
X188039Y256939D02*
G75*
G03X188199Y257739I-1920J800D01*
X188039Y258539I-2080J0*
G01X189239Y257739*
X188439Y256939*
X188039*
G37*
G36*
X166384D02*
G03X166544Y257739I-1920J800D01*
X166384Y258539I-2080J0*
G01X167584Y257739*
X166784Y256939*
X166384*
G37*
G36*
X48529Y308129D02*
G01X48600Y309700D01*
G03X49700I550J1320*
G02X50100Y309300I0J-400*
G03X49990Y308750I1320J-550*
X50100Y308200I1431J0*
G01X48529Y308129*
G37*
G36*
X6129Y228629D02*
G01X6200Y230200D01*
G03X7300I550J1320*
G02X7700Y229800I0J-400*
G03X7590Y229250I1320J-550*
X7700Y228700I1431J0*
G01X6129Y228629*
G37*
G36*
X72400Y186200D02*
G03X72510Y186750I-1321J550D01*
X72400Y187300I-1432J0*
G02X72800Y187700I400J0*
G03X73900I550J1321*
G01X73971Y186129*
X72400Y186200*
G37*
G36*
X3400Y235000D02*
G03X3510Y235550I-1321J550D01*
X3400Y236100I-1432J0*
G02X3800Y236500I400J0*
G03X4900I550J1321*
G01X4971Y234929*
X3400Y235000*
G37*
G36*
X46600Y261500D02*
G03X46743Y262216I-1720J716D01*
X46600Y262932I-1862J0*
G01X48571Y263071*
X48432Y261100*
G03X47000I-716J-1719*
G02X46600Y261500I0J400*
G37*
G36*
X43539Y211961D02*
G03X44317Y212738I-544J1322D01*
G02X44883I283J-283*
G03X45661Y211961I1322J546*
G01X44600Y210800*
X43539Y211961*
G37*
G36*
X27339Y309361D02*
G03X28117Y310138I-544J1322D01*
G02X28683I283J-283*
G03X29461Y309361I1322J546*
G01X28400Y308200*
X27339Y309361*
G37*
G36*
X162939Y162961D02*
G03X163717Y163738I-544J1322D01*
G02X164283I283J-283*
G03X165061Y162961I1322J546*
G01X164000Y161800*
X162939Y162961*
G37*
G36*
X68039Y278539D02*
G01X69100Y279700D01*
X70161Y278539*
G03X69383Y277762I544J-1323*
G02X68817I-283J283*
G03X68039Y278539I-1322J-545*
G37*
G36*
X205595Y186050D02*
G02X205712Y186333I400J0D01*
G03X206489Y187111I-546J1322*
G01X207650Y186050*
X206489Y184989*
G03X205712Y185767I-1323J-544*
G02X205595Y186050I283J283*
G37*
G36*
X158350Y173450D02*
G01X159511Y174511D01*
G03X160288Y173733I1322J544*
G02X160405Y173450I-284J-283*
X160288Y173167I-401J0*
G03X159511Y172389I545J-1322*
G01X158350Y173450*
G37*
G36*
X85700Y176200D02*
G01X86861Y177261D01*
G03X87638Y176483I1322J544*
G02X87755Y176200I-284J-283*
X87638Y175917I-401J0*
G03X86861Y175139I545J-1322*
G01X85700Y176200*
G37*
G36*
X48900Y197700D02*
G01X50061Y198761D01*
G03X50838Y197983I1322J544*
G02X50955Y197700I-284J-283*
X50838Y197417I-401J0*
G03X50061Y196639I545J-1322*
G01X48900Y197700*
G37*
G36*
X24000Y212100D02*
G01X25161Y213161D01*
G03X25938Y212383I1322J544*
G02X26055Y212100I-284J-283*
X25938Y211817I-401J0*
G03X25161Y211039I545J-1322*
G01X24000Y212100*
G37*
G36*
X30945Y236600D02*
G02X31062Y236883I400J0D01*
G03X32039Y237861I-686J1662*
G01X33199Y236811*
X32119Y235678*
G03X31141Y236256I-1183J-885*
G02X30945Y236600I204J344*
G37*
G36*
X39406Y198066D02*
G01X40400Y199000D01*
X41956*
X42238Y198717*
G03X40561Y197039I1176J-2852*
G01X39406Y198066*
G37*
G36*
X65962Y186917D02*
G01X66244Y187200D01*
X68100*
X68992Y186062*
X67839Y185039*
G03X65962Y186917I-3192J-1314*
G37*
G36*
X218386Y253510D02*
G03X219358Y254575I-844J1746D01*
G02X219776I209J-341*
G03X220748Y253510I1816J681*
G01X219567Y251639*
X218386Y253510*
G37*
G36*
X176653D02*
G03X177613Y254625I-910J1755D01*
G02X178054I221J-335*
G03X179014Y253510I1870J639*
G01X177834Y251639*
X176653Y253510*
G37*
G36*
Y261968D02*
G01X177834Y263839D01*
X179014Y261968*
G03X178054Y260853I911J-1755*
G02X177613I-220J334*
G03X176653Y261968I-1870J-639*
G37*
G36*
X215386Y259510D02*
G03X216346Y260625I-910J1755D01*
G02X216787I221J-335*
G03X217748Y259510I1870J640*
G01X216567Y257639*
X215386Y259510*
G37*
G36*
X198019Y253510D02*
G03X198980Y254625I-909J1755D01*
G02X199421I221J-335*
G03X200381Y253510I1870J639*
G01X199200Y251639*
X198019Y253510*
G37*
G36*
X215386Y261968D02*
G01X216567Y263839D01*
X217748Y261968*
G03X216787Y260853I909J-1755*
G02X216346I-220J334*
G03X215386Y261968I-1870J-639*
G37*
G36*
X198019D02*
G01X199200Y263839D01*
X200381Y261968*
G03X199421Y260853I911J-1755*
G02X198980I-220J334*
G03X198019Y261968I-1870J-640*
G37*
G36*
X155286Y253510D02*
G03X156246Y254625I-910J1755D01*
G02X156688I221J-334*
G03X157648Y253510I1870J639*
G01X156467Y251639*
X155286Y253510*
G37*
G36*
Y261968D02*
G01X156467Y263839D01*
X157648Y261968*
G03X156688Y260853I911J-1755*
G02X156246I-221J334*
G03X155286Y261968I-1870J-639*
G37*
G36*
X19148Y283450D02*
G02X19214Y283671I401J1D01*
G03X20329Y284631I-639J1870*
G01X22200Y283450*
X20329Y282269*
G03X19214Y283229I-1755J-910*
G02X19148Y283450I335J220*
G37*
G36*
X43575D02*
G01X45471Y284631D01*
G03X46585Y283700I1747J959*
G02X46652Y283450I-433J-250*
X46585Y283200I-500J0*
G03X45471Y282269I633J-1889*
G01X43575Y283450*
G37*
G36*
X209132Y254328D02*
G03X209269Y255091I-2052J762D01*
X209086Y255968I-2189J1*
G01X210289Y257836*
X211448Y255968*
G03X209765Y254123I1401J-2968*
G02X209132Y254328I-248J314*
G37*
G36*
X62045Y198000D02*
G02X62162Y198283I400J0D01*
G03X62939Y199061I-546J1322*
G01X63995Y198096*
X63996*
X64000Y198100*
X64048Y198047*
X64100Y198000*
X64096Y197996*
Y197995*
X65061Y196939*
G03X64283Y196162I544J-1323*
G02X63717I-283J283*
G03X62939Y196939I-1322J-545*
X62162Y197717I-1323J-544*
G02X62045Y198000I283J283*
G37*
G36*
X251700Y261600D02*
G03X251970Y262950I-3242J1350D01*
X251700Y264300I-3511J0*
G01X254871Y264371*
X254800Y261200*
G03X252100I-1350J-3241*
G02X251700Y261600I0J400*
G37*
G36*
Y251600D02*
G03X251970Y252950I-3242J1350D01*
X251700Y254300I-3511J0*
G01X254871Y254371*
X254800Y251200*
G03X252100I-1350J-3241*
G02X251700Y251600I0J400*
G37*
G36*
Y241600D02*
G03X251970Y242950I-3242J1350D01*
X251700Y244300I-3511J0*
G01X254871Y244371*
X254800Y241200*
G03X252100I-1350J-3241*
G02X251700Y241600I0J400*
G37*
G36*
Y231600D02*
G03X251970Y232950I-3242J1350D01*
X251700Y234300I-3511J0*
G01X254871Y234371*
X254800Y231200*
G03X252100I-1350J-3241*
G02X251700Y231600I0J400*
G37*
G36*
Y221600D02*
G03X251970Y222950I-3242J1350D01*
X251700Y224300I-3511J0*
G01X254871Y224371*
X254800Y221200*
G03X252100I-1350J-3241*
G02X251700Y221600I0J400*
G37*
G36*
X189948Y257739D02*
G02X190032Y257984I400J0D01*
G03X191719Y259510I-1017J2820*
G01X193000Y257739*
X191719Y255968*
G03X190032Y257494I-2704J-1294*
G02X189948Y257739I316J245*
G37*
G36*
X168581D02*
G02X168665Y257984I400J0D01*
G03X170353Y259510I-1016J2821*
G01X171634Y257739*
X170353Y255968*
G03X168665Y257494I-2704J-1295*
G02X168581Y257739I316J245*
G37*
G36*
X147214D02*
G02X147298Y257984I400J0D01*
G03X148986Y259510I-1016J2821*
G01X150267Y257739*
X148986Y255968*
G03X147298Y257494I-2704J-1295*
G02X147214Y257739I316J245*
G37*
G36*
X41929Y275969D02*
G01X43700Y277400D01*
X45471Y275969*
G03X44099Y274281I1596J-2698*
G02X43301I-399J917*
G03X41929Y275969I-2967J-1010*
G37*
G36*
X148800Y203500D02*
G01X150231Y205271D01*
G03X151919Y203899I2698J1595*
G02X152002Y203500I-918J-399*
X151919Y203101I-1001J0*
G03X150231Y201729I1010J-2967*
G01X148800Y203500*
G37*
G36*
X155400Y193542D02*
G01X158256Y194993D01*
G03X159483Y193750I2147J892*
G02X159542Y193541I-341J-209*
X159483Y193333I-400J1*
G03X158256Y192090I919J-2135*
G01X155400Y193542*
G37*
G36*
X176653Y255968D02*
G01X177771Y257739D01*
X176653Y259510*
G03X177613Y260625I-910J1755*
G02X178054I221J-335*
G03X179014Y259510I1870J639*
G01X177897Y257739*
X179014Y255968*
G03X178054Y254853I911J-1755*
G02X177613I-220J334*
G03X176653Y255968I-1870J-639*
G37*
G36*
X198019D02*
G01X199137Y257739D01*
X198019Y259510*
G03X198980Y260625I-909J1755*
G02X199421I221J-335*
G03X200381Y259510I1870J639*
G01X199263Y257739*
X200381Y255968*
G03X199421Y254853I911J-1755*
G02X198980I-220J334*
G03X198019Y255968I-1870J-640*
G37*
G36*
X155286D02*
G01X156404Y257739D01*
X155286Y259510*
G03X156246Y260625I-910J1755*
G02X156688I221J-334*
G03X157648Y259510I1870J639*
G01X156530Y257739*
X157648Y255968*
G03X156688Y254853I911J-1755*
G02X156246I-221J334*
G03X155286Y255968I-1870J-639*
G37*
G36*
X144310Y157124D02*
G01X145497Y161358D01*
X146896Y157160*
G03X145868Y156015I910J-1851*
G02X145450Y156004I-218J335*
G03X144310Y157124I-1960J-855*
G37*
G36*
X161350Y196150D02*
G02X161416Y196370I400J0D01*
G03X162529Y197331I-641J1868*
X164067Y198925I-1176J2674*
G02X164300Y199000I233J-325*
X164533Y198925I0J-400*
G03X166071Y197331I2713J1079*
G01X164300Y196050*
X164273Y196069*
G03X164272I0J-1*
G01X162529Y194969*
G03X161416Y195930I-1755J-907*
G02X161350Y196150I334J220*
G37*
G36*
X181829Y311671D02*
G01X186400Y311600D01*
G03X185990Y309550I4921J-2050*
X186400Y307500I5330J0*
G02X186000Y307100I-400J0*
G03X181900I-2050J-4920*
G01X181829Y311671*
G37*
G36*
X161829D02*
G01X166400Y311600D01*
G03X165990Y309550I4921J-2050*
X166400Y307500I5330J0*
G02X166000Y307100I-400J0*
G03X161900I-2050J-4920*
G01X161829Y311671*
G37*
G36*
X141829D02*
G01X146400Y311600D01*
G03X145990Y309550I4921J-2050*
X146400Y307500I5330J0*
G02X146000Y307100I-400J0*
G03X141900I-2050J-4920*
G01X141829Y311671*
G37*
G36*
X121829D02*
G01X126400Y311600D01*
G03X125990Y309550I4921J-2050*
X126400Y307500I5330J0*
G02X126000Y307100I-400J0*
G03X121900I-2050J-4920*
G01X121829Y311671*
G37*
G36*
X101829D02*
G01X106400Y311600D01*
G03X105990Y309550I4921J-2050*
X106400Y307500I5330J0*
G02X106000Y307100I-400J0*
G03X101900I-2050J-4920*
G01X101829Y311671*
G37*
G36*
X237400Y307500D02*
G03X237810Y309550I-4922J2050D01*
X237400Y311600I-5331J0*
G01X241971Y311671*
X241900Y307100*
G03X237800I-2050J-4921*
G02X237400Y307500I0J400*
G37*
G36*
X197400D02*
G03X197810Y309550I-4922J2050D01*
X197400Y311600I-5331J0*
G01X201971Y311671*
X201900Y307100*
G03X197800I-2050J-4921*
G02X197400Y307500I0J400*
G37*
G36*
X216001D02*
G02X216022Y307629I400J1D01*
G03X217434Y311359I-4221J3730*
G01X217433Y311451*
X217431Y311544*
X217422Y311729*
X221980Y311660*
X221900Y307100*
G03X216400I-2750J-6601*
G02X216001Y307500I1J400*
G37*
G36*
X79416Y308418D02*
G01X81900Y311700D01*
X84384Y308418*
G03X82183Y306217I1541J-3742*
G02X81617I-283J283*
G03X79416Y308418I-3741J-1540*
G37*
G36*
X151182Y293314D02*
G03X153080Y295205I-1347J3250D01*
G02X153554I237J-322*
G03X155452Y293314I3244J1358*
G01X153317Y288490*
X151182Y293314*
G37*
G36*
X216761Y214992D02*
G03X219041Y217363I-1847J4058D01*
G02X219993I476J-880*
G03X222273Y214992I4126J1686*
G01X219517Y210608*
X216761Y214992*
G37*
G36*
X195394D02*
G03X197674Y217363I-1846J4057D01*
G02X198626I476J-879*
G03X200906Y214992I4127J1687*
G01X198150Y210608*
X195394Y214992*
G37*
G36*
X4208Y9292D02*
G03X5693Y10777I-1039J2524D01*
G02X7107I707J-707*
G03X8592Y9292I2525J1040*
X10077Y7807I2524J1039*
G02X10370Y7100I-708J-707*
X10077Y6393I-1000J0*
G03X8592Y4908I1039J-2524*
G01X6413Y6864*
X6412*
X6400Y6850*
X6282Y6982*
X6281*
X6150Y7100*
X6164Y7112*
Y7113*
X4208Y9292*
G37*
G36*
X174028Y214992D02*
G03X176300Y217392I-1885J4059D01*
G02X177268I484J-875*
G03X179539Y214992I4157J1659*
G01X176784Y210608*
X174028Y214992*
G37*
G36*
X78718Y18382D02*
G03X80486Y20150I-1237J3005D01*
G02X83314I1414J-1414*
G03X85082Y18382I3006J1238*
G01X81900Y14700*
X78718Y18382*
G37*
G36*
X58718D02*
G03X60486Y20150I-1237J3005D01*
G02X63314I1414J-1414*
G03X65082Y18382I3006J1238*
G01X61900Y14700*
X58718Y18382*
G37*
G36*
X38718Y308418D02*
G01X41900Y312100D01*
X45082Y308418*
G03X43314Y306650I1238J-3006*
G02X40486I-1414J1414*
G03X38718Y308418I-3006J-1238*
G37*
G36*
X18718D02*
G01X21900Y312100D01*
X25082Y308418*
G03X23314Y306650I1238J-3006*
G02X20486I-1414J1414*
G03X18718Y308418I-3006J-1238*
G37*
G36*
X164028Y247276D02*
G03X166524Y249936I-1964J4344D01*
G02X167043I260J-305*
G03X169539Y247276I4461J1685*
G01X166784Y243042*
X164028Y247276*
G37*
G36*
X206761D02*
G03X209257Y249936I-1964J4344D01*
G02X209777I260J-304*
G03X212273Y247276I4461J1685*
G01X209517Y243042*
X206761Y247276*
G37*
G36*
X185394D02*
G03X187890Y249936I-1964J4344D01*
G02X188410I260J-304*
G03X190906Y247276I4461J1685*
G01X188150Y243042*
X185394Y247276*
G37*
G36*
X142661D02*
G03X145157Y249936I-1964J4344D01*
G02X145677I260J-304*
G03X148173Y247276I4461J1685*
G01X145417Y243042*
X142661Y247276*
G37*
G36*
X209086Y265510D02*
G03X210046Y266625I-910J1755D01*
G02X210119Y266663I221J-334*
G01Y266664*
G03X209782Y268112I-3871J-138*
G01X213457Y272540*
X213332Y267724*
G03X211007Y265822I1985J-4798*
G01Y265821*
G03X211448Y265510I1349J1444*
G01X210267Y263639*
X209086Y265510*
G37*
G36*
X191719D02*
G03X192680Y266625I-909J1755D01*
G02X192752Y266663I222J-333*
G01X192753*
G03X192415Y268112I-3871J-139*
G01X196090Y272540*
X195966Y267724*
G03X193640Y265822I1983J-4799*
G01Y265821*
G03X194081Y265510I1349J1444*
G01X192900Y263639*
X191719Y265510*
G37*
G36*
X170353D02*
G03X171313Y266625I-910J1755D01*
G02X171386Y266663I221J-334*
G01Y266664*
G03X171049Y268112I-3871J-138*
G01X174724Y272540*
X174599Y267724*
G03X172273Y265822I1983J-4799*
G01Y265821*
G03X172714Y265510I1349J1444*
G01X171534Y263639*
X170353Y265510*
G37*
G36*
X148986D02*
G03X149946Y266625I-910J1755D01*
G02X150019Y266663I220J-334*
G01Y266664*
G03X149682Y268112I-3871J-138*
G01X153357Y272540*
X153233Y267724*
G03X150907Y265822I1983J-4799*
G01Y265821*
G03X151348Y265510I1349J1444*
G01X150167Y263639*
X148986Y265510*
G37*
G36*
X171618Y293314D02*
G03X174431Y296124I-1983J4798D01*
G02X174936I253J-311*
G03X177749Y293314I4797J1989*
G01X174684Y288490*
X171618Y293314*
G37*
G36*
X210351D02*
G03X213164Y296124I-1983J4798D01*
G02X213670I253J-310*
G03X216482Y293314I4797J1988*
G01X213417Y288490*
X210351Y293314*
G37*
G36*
X192984D02*
G03X195797Y296124I-1983J4798D01*
G02X196303I253J-310*
G03X199116Y293314I4797J1989*
G01X196050Y288490*
X192984Y293314*
G37*
G36*
X4208Y26108D02*
G01X6164Y28287D01*
Y28288*
X6150Y28300*
X6164Y28312*
Y28313*
X4208Y30492*
G03X5693Y31977I-1039J2524*
G02X7107I707J-707*
G03X8592Y30492I2525J1040*
X10077Y29007I2524J1039*
G02X10370Y28300I-708J-707*
X10077Y27593I-1000J0*
G03X8592Y26108I1039J-2524*
X7107Y24623I1040J-2525*
G02X5693I-707J707*
G03X4208Y26108I-2524J-1039*
G37*
G36*
Y15508D02*
G01X6164Y17687D01*
Y17688*
X6150Y17700*
X6164Y17712*
Y17713*
X4208Y19892*
G03X5693Y21377I-1039J2524*
G02X7107I707J-707*
G03X8592Y19892I2525J1040*
X10077Y18407I2524J1039*
G02X10370Y17700I-708J-707*
X10077Y16993I-1000J0*
G03X8592Y15508I1039J-2524*
X7107Y14023I1040J-2525*
G02X5693I-707J707*
G03X4208Y15508I-2524J-1039*
G37*
G36*
X152661Y206724D02*
G01X155258Y210861D01*
X152661Y214992*
G03X154933Y217392I-1885J4060*
G02X155901I484J-875*
G03X158173Y214992I4157J1660*
G01X155573Y210855*
X155572*
X155573*
X158173Y206724*
G03X156067Y204061I2291J-3976*
G02X154956Y204046I-567J824*
G03X152661Y206724I-4500J-1534*
G37*
G36*
X162936Y205271D02*
G03X164205Y206658I-1134J2312D01*
X164042Y207121I-3727J-1052*
G01X166732Y210837*
Y210838*
X164028Y214992*
G03X166524Y217652I-1964J4344*
G02X167043I260J-305*
G03X169539Y214992I4461J1685*
G01X166836Y210838*
Y210837*
X167532Y206724*
G03X164719Y203914I1984J-4799*
G02X164382Y203834I-252J311*
G03X164381Y203833I0J-1*
G01X164105Y203401*
X162936Y205271*
G37*
G36*
X205669D02*
G03X206988Y206642I-1200J2475D01*
G01Y206643*
G03X206812Y207112I-3707J-1124*
G01X209465Y210837*
Y210838*
X206761Y214992*
G03X209257Y217652I-1964J4344*
G02X209777I260J-304*
G03X212273Y214992I4461J1685*
G01X209570Y210840*
Y210839*
X210366Y206724*
G03X207553Y203914I1984J-4799*
G02X207131Y203862I-252J311*
G01X207130*
X206835Y203401*
X205669Y205271*
G37*
G36*
X184302D02*
G03X185571Y206658I-1134J2312D01*
G01X185572*
G03X185409Y207121I-3727J-1052*
G01X188098Y210836*
X188099Y210837*
X188098*
X185394Y214992*
G03X187890Y217652I-1964J4344*
G02X188410I260J-304*
G03X190906Y214992I4461J1685*
G01X188203Y210839*
X188202Y210838*
X188899Y206724*
G03X186086Y203914I1984J-4799*
G02X185747Y203833I-253J310*
G01X185746*
X185471Y203401*
X184302Y205271*
G37*
G36*
X141569D02*
G03X142838Y206659I-1135J2311D01*
G01Y206660*
G03X142676Y207121I-3727J-1051*
G01X145365Y210836*
X145366Y210837*
X145365*
X142661Y214992*
G03X145157Y217652I-1964J4344*
G02X145677I260J-304*
G03X148173Y214992I4461J1685*
G01X145470Y210839*
X145469Y210838*
X146166Y206724*
G03X143353Y203914I1984J-4799*
G02X143014Y203833I-253J310*
G01X143013*
X142738Y203401*
X141569Y205271*
G37*
G36*
X120700Y267500D02*
G01Y272500D01*
X121500Y273300*
X132600*
X134600Y271300*
Y267300*
X133600Y266300*
X121900*
X120700Y267500*
G37*
G36*
X46500Y278100D02*
G01X47200Y278800D01*
X48500*
X49000Y279300*
Y281300*
X60700*
Y275300*
X54350*
X52000*
X49950Y273250*
X48900Y272200*
X47200*
X46500Y272900*
Y278100*
G37*
G36*
X14000Y278000D02*
G01X14700Y278700D01*
X24100*
X24200Y278800*
Y280200*
X25300Y281300*
X38300*
Y275300*
X31000*
X27700*
X26100*
X25800Y275600*
X23000*
X14300*
X14000Y275900*
Y278000*
G37*
G36*
X1500Y312417D02*
G01Y325072D01*
G02X1700Y325272I200J0*
G01X14294*
G02X14479Y325148I0J-200*
G01X14502Y325092*
X14479Y324973*
X1842Y312336*
G02X1624Y312293I-141J141*
G01X1568Y312316*
X1500Y312417*
G37*
G36*
X232900Y85100D02*
G01Y103300D01*
X236200Y106600*
X243700*
X243900Y106400*
Y84700*
X242300Y83100*
X234900*
X232900Y85100*
G37*
G36*
X66300Y270000D02*
G01Y276500D01*
X84200*
X86600Y274100*
Y267400*
X87800Y266200*
X93100*
X94300Y265000*
Y261200*
X93300Y260200*
X89900*
X89200Y259500*
X87400*
X86700Y260200*
X83100Y263800*
Y268200*
X81300Y270000*
X66300*
G37*
G36*
X25900Y301240D02*
G01Y305013D01*
Y305014*
G02X26004Y305189I200J0*
G01X26360Y305384*
X26469Y305380*
X26515Y305350*
G03X31174Y306165I1885J2950*
X31900Y308300I-2775J2135*
X30860Y310790I-3501J0*
G02X30800Y310933I139J143*
G01Y321200*
G02X31000Y321400I200J0*
G01X43623*
G02X43764Y321341I-1J-200*
G01X48141Y316964*
G02X48200Y316823I-140J-142*
G01Y316067*
G02X48064Y315878I-200J0*
G01X47643Y315736*
X47520Y315774*
X47481Y315826*
G03X37674Y317181I-5581J-4226*
X34899Y311600I4225J-5581*
X36170Y307578I7001J0*
G02X36189Y307546I-162J-118*
G03X36705Y306853I1825J820*
G01X37021Y306580*
X37026Y306576*
G03X37816Y305914I4880J5022*
G02X37900Y305752I-116J-163*
G01Y303019*
Y303018*
G03X37958Y302877I200J0*
G01X47234Y293602*
G02X47293Y293460I-140J-142*
G01Y288740*
X47299Y288591*
X47300Y288582*
Y286150*
G02X47100Y285950I-200*
G01X46580*
X46519Y285971*
X46493Y285990*
G03X45471Y286331I-1021J-1359*
G01X41929*
G03X40261Y284961I0J-1700*
G01X40247Y284891*
X40136Y284800*
X40000*
G02X39800Y285000I0J200*
G01Y288145*
X39811Y288177*
G03X39907Y288740I-1604J563*
G01Y294646*
G03X38207Y296346I-1700J0*
G01X30794*
G02X30653Y296404I0J200*
G01X25959Y301098*
G02X25900Y301240I140J142*
G37*
G36*
X170167Y203500D02*
G01X171598Y205271D01*
G03X173286Y203899I2698J1595*
G01X173296Y203874*
G03X173298I1*
G01Y204650*
G02X173368Y204802I200J0*
G01X173633Y205028*
X173717Y205052*
X173760Y205045*
G03X174028Y205024I266J1679*
G01X179539*
G03X181240Y206724I1J1700*
G01Y214992*
G03X180382Y216469I-1700J0*
G02X180281Y216636I99J174*
G03X179742Y218386I-3498J-119*
G01X179713Y218432*
X179710Y218542*
X179905Y218896*
G02X180081Y219000I175J-96*
G01X185550*
G02X185750Y218800I0J-200*
G01Y217406*
G02X185698Y217271I-200J0*
X184694Y216542I-2266J2066*
G03X183694Y214993I700J-1549*
G01Y214992*
Y209879*
G02X183635Y209738I-200J1*
G01X183492Y209594*
G03X183433Y209453I140J-142*
G01Y206842*
G02X183346Y206677I-200J0*
G03X182602Y205271I957J-1406*
G01Y201729*
Y201728*
G03X184302Y200028I1700J0*
G01X186664*
G03X188364Y201728J1700*
G01Y201729*
Y202200*
G02X188564Y202400I200J0*
G01X188702*
G02X188902Y202200I0J-200*
G01Y201729*
Y201728*
G03X190602Y200028I1700J0*
G01X192964*
G03X194664Y201728J1700*
G01Y201729*
Y203126*
G03X194662I-1*
G01X194652Y203101*
G03X192964Y201729I1010J-2967*
G01X191533Y203500*
X192964Y205271*
G03X194652Y203899I2698J1595*
G01X194662Y203874*
G03X194664I1*
G01Y204650*
G02X194734Y204802I200J0*
G01X194999Y205028*
X195084Y205052*
X195127Y205045*
G03X195394Y205024I266J1679*
G01X200906*
G03X202606Y206724J1700*
G01Y214992*
G03X201779Y216451I-1700J0*
G02X201682Y216617I103J172*
G01X201656Y216950*
X201651Y216993*
X201676Y217075*
X201903Y217332*
G02X202053Y217400I150J-132*
G01X206083*
G02X206277Y217250I0J-200*
G01X206373Y216874*
G02X206379Y216824I-194J-49*
X206276Y216649I-200J0*
G01X206061Y216542*
G03X205061Y214993I700J-1549*
G01Y214992*
Y209879*
G02X205002Y209738I-200J1*
G01X204958Y209694*
G03X204900Y209553I141J-141*
G01Y206906*
G02X204802Y206734I-200J0*
G03X203969Y205272I867J-1462*
G01Y205271*
Y201729*
Y201728*
G03X205669Y200028I1700J0*
G01X208031*
G03X209731Y201728J1700*
G01Y201729*
Y202200*
G02X209931Y202400I200J0*
G01X210069*
G02X210269Y202200I0J-200*
G01Y201729*
Y201728*
G03X211969Y200028I1700J0*
G01X214331*
G03X216031Y201728J1700*
G01Y201729*
Y203126*
G03X216029I-1*
G01X216019Y203101*
G03X214331Y201729I1010J-2967*
G01X212900Y203500*
X214331Y205271*
G03X216019Y203899I2698J1595*
G01X216029Y203874*
G03X216031I1*
G01Y204650*
G02X216101Y204802I200J0*
G01X216366Y205028*
X216450Y205052*
X216494Y205045*
G03X216761Y205024I266J1679*
G01X222273*
G03X223973Y206724J1700*
G01Y214992*
G03X223085Y216486I-1700J0*
G02X222981Y216654I96J176*
G01X222912Y217220*
X222903Y217264*
X222924Y217351*
X223149Y217626*
G02X223304Y217700I155J-126*
G01X231423*
G02X231607Y217576I-1J-200*
G01X231631Y217520*
X231607Y217401*
X231058Y216853*
G03X231000Y216712I141J-141*
G01Y216711*
Y201877*
G02X230941Y201736I-200J1*
G01X228664Y199459*
G02X228523Y199400I-142J140*
G01X182458*
G02X182317Y199459I1J200*
G01X178906Y202870*
G03X178764Y202929I-142J-140*
G01X173498*
G02X173298Y203126I0J200*
G03X173297I0J-1*
G01X173286Y203101*
G03X171598Y201729I1010J-2967*
G01X170167Y203500*
G37*
G36*
X236700Y13500D02*
G01Y43900D01*
X251400Y58600*
Y130500*
X252600Y131700*
X261000*
X261900Y130800*
Y13800*
X258600Y10500*
X239700*
X236700Y13500*
G37*
G36*
X1500Y32991D02*
G01Y147600D01*
G02X1700Y147800I200J0*
G01X4629*
G02X4816Y147670I0J-200*
G01X4969Y147261*
X4939Y147140*
X4892Y147098*
G03X2800Y142500I4008J-4598*
X5002Y137808I6100J0*
G01X5036Y137779*
X5074Y137698*
Y137302*
X5036Y137221*
X5002Y137192*
G03X2800Y132500I3898J-4692*
X5002Y127808I6100J0*
G01X5036Y127779*
X5074Y127698*
Y127302*
X5036Y127221*
X5002Y127192*
G03X2800Y122500I3898J-4692*
X5002Y117808I6100J0*
G01X5036Y117779*
X5074Y117698*
Y117302*
X5036Y117221*
X5002Y117192*
G03X2800Y112500I3898J-4692*
X5002Y107808I6100J0*
G01X5036Y107779*
X5074Y107698*
Y107302*
X5036Y107221*
X5002Y107192*
G03X2800Y102500I3898J-4692*
X5002Y97808I6100J0*
G01X5036Y97779*
X5074Y97698*
Y97302*
X5036Y97221*
X5002Y97192*
G03X2800Y92500I3898J-4692*
X5002Y87808I6100J0*
G01X5036Y87779*
X5074Y87698*
Y87302*
X5036Y87221*
X5002Y87192*
G03X2800Y82500I3898J-4692*
X5002Y77808I6100J0*
G01X5036Y77779*
X5074Y77698*
Y77302*
X5036Y77221*
X5002Y77192*
G03X2800Y72500I3898J-4692*
X4171Y68646I6100J-1*
G01X4198Y68614*
X4220Y68533*
X4168Y68160*
X4124Y68089*
X4089Y68065*
G03X2800Y65600I1712J-2465*
G01Y59400*
G03X5800Y56400I3000J0*
G01X12000*
G03X15000Y59400I0J3000*
G01Y65600*
Y65601*
G03X13711Y68065I-3000J0*
G01X13676Y68089*
X13632Y68160*
X13580Y68533*
X13602Y68614*
X13629Y68646*
G03X15000Y72500I-4730J3853*
X12798Y77192I-6101J0*
G01X12764Y77221*
X12726Y77302*
Y77698*
X12764Y77779*
X12798Y77808*
G03X15000Y82500I-3898J4692*
X12798Y87192I-6100J0*
G01X12764Y87221*
X12726Y87302*
Y87698*
X12764Y87779*
X12798Y87808*
G03X15000Y92500I-3898J4692*
X12798Y97192I-6100J0*
G01X12764Y97221*
X12726Y97302*
Y97698*
X12764Y97779*
X12798Y97808*
G03X15000Y102500I-3898J4692*
X12798Y107192I-6100J0*
G01X12764Y107221*
X12726Y107302*
Y107698*
X12764Y107779*
X12798Y107808*
G03X15000Y112500I-3898J4692*
X12798Y117192I-6100J0*
G01X12764Y117221*
X12726Y117302*
Y117698*
X12764Y117779*
X12798Y117808*
G03X15000Y122500I-3898J4692*
X12798Y127192I-6100J0*
G01X12764Y127221*
X12726Y127302*
Y127698*
X12764Y127779*
X12798Y127808*
G03X15000Y132500I-3898J4692*
X12798Y137192I-6100J0*
G01X12764Y137221*
X12726Y137302*
Y137698*
X12764Y137779*
X12798Y137808*
G03X15000Y142500I-3898J4692*
X9965Y148506I-6100J0*
G01X9894Y148519*
X9800Y148631*
Y178800*
G03X9600Y179000I-200J0*
G01X1700*
G02X1500Y179200J200*
G01Y232508*
G02X1632Y232696I200J0*
G01X2045Y232845*
X2167Y232812*
X2208Y232763*
G03X3544Y231773I2692J2237*
G01X3590Y231754*
X3653Y231678*
X3740Y231257*
X3712Y231163*
X3678Y231127*
G03X2700Y228700I2522J-2427*
X3203Y226892I3500J0*
X7171Y225337I2997J1808*
X9700Y228700I-971J3363*
G01X9696Y228870*
Y228879*
G02X9719Y228973I200J1*
G03X10000Y230100I-2119J1127*
G01Y236307*
G03X9997Y236341I-200J-1*
G01X9811Y237419*
G03X9756Y237526I-197J-34*
G01X7359Y239923*
G02X7300Y240064I140J142*
G01Y308423*
G02X7359Y308564I200J-1*
G01X18536Y319741*
G02X18677Y319800I142J-140*
G01X25523*
G02X25664Y319741I-1J-200*
G01X25941Y319464*
G02X26000Y319323I-140J-142*
G01Y318009*
G02X25900Y317836I-200J0*
G01X25553Y317636*
X25446*
X25400Y317662*
G03X16537Y316099I-3500J-6063*
X14900Y311599I5364J-4499*
X16170Y307578I7001J0*
G02X16189Y307546I-162J-118*
G03X16705Y306853I1825J820*
G01X17022Y306580*
X17026Y306576*
G03X17816Y305914I4879J5021*
G02X17900Y305752I-116J-163*
G01Y297926*
Y297925*
G03X17958Y297784I200J0*
G01X24834Y290909*
G02X24893Y290767I-140J-142*
G01Y288740*
G03X24989Y288177I1700J0*
G01X25000Y288145*
Y286601*
G02X24914Y286437I-200J0*
G01X24605Y286221*
X24507Y286208*
X24461Y286226*
G03X23871Y286331I-588J-1596*
G01X20329*
G03X19198Y285901I-1J-1700*
G02X19065Y285850I-133J149*
G01X14339*
G03X14197Y285792I-1J-200*
G01X9258Y280853*
G03X9200Y280712I141J-141*
G01Y280711*
Y254189*
Y254188*
G03X9258Y254047I200J0*
G01X29047Y234258*
G03X29189Y234200I141J141*
G01X29200*
G02X29341Y234141I-1J-200*
G01X29569Y233913*
X29600Y233840*
Y233800*
G03X30073Y232043I3500J0*
G02X30100Y231943I-173J-100*
G01Y230240*
G03X30158Y230099I200J0*
G01X34199Y226058*
G03X34340Y226000I141J141*
G01X42674*
G02X42816Y225941I0J-200*
G01X43241Y225516*
G02X43300Y225374I-140J-142*
G01Y220940*
G03X43358Y220799I200J0*
G01X45341Y218816*
G02X45400Y218674I-140J-142*
G01Y217377*
G02X45276Y217193I-200J1*
G01X45220Y217169*
X45101Y217193*
X43953Y218342*
G03X43811Y218400I-141J-141*
G01X30189*
G03X30047Y218342I-1J-200*
G01X26499Y214794*
X26347Y214785*
X26287Y214833*
G03X21568Y214517I-2187J-2733*
X20600Y212100I2532J-2417*
X21472Y209788I3500J0*
X26174Y209280I2628J2312*
G01X26590Y209640*
G02X26733Y209700I143J-140*
G01X28111*
G03X28253Y209758I1J200*
G01X32036Y213541*
G02X32177Y213600I142J-140*
G01X41823*
G02X41964Y213541I-1J-200*
G01X42046Y213459*
X42051Y213300*
X41997Y213240*
G03X41100Y210900I2603J-2340*
X41844Y208743I3500J0*
X46246Y207811I2756J2157*
X48100Y210900I-1646J3089*
X47846Y212210I-3500J1*
G01X47825Y212261*
X47841Y212369*
X48131Y212726*
X48233Y212764*
X48287Y212754*
G03X52400Y216200I613J3446*
G01Y219500*
G03X49798Y222883I-3500J0*
G01X49773Y222890*
X49727Y222916*
X49359Y223284*
G02X49300Y223426I140J142*
G01Y227860*
G03X49242Y228001I-200J0*
G01X45301Y231942*
G03X45160Y232000I-141J-141*
G01X36826*
G02X36684Y232059I0J200*
G01X36370Y232373*
X36346Y232488*
X36367Y232544*
G03X36600Y233801I-3267J1256*
X36300Y235219I-3500J0*
G02X36283Y235300I183J81*
X36300Y235381I200J0*
G03X36601Y236800I-3200J1420*
X35299Y239524I-3501J0*
X30861Y239490I-2198J-2724*
G01X30801Y239441*
X30647Y239448*
X14059Y256036*
G02X14000Y256177I140J142*
G01Y271900*
G02X14200Y272100I200J0*
G01X24267*
G02X24409Y272041I0J-200*
G01X24592Y271858*
G03X24733Y271800I141J141*
G01X41600*
G03X41800Y272000J200*
G01Y274069*
G02X42000Y274269I200J0*
G01X42800*
G02X43000Y274069I0J-200*
G01Y271533*
G03X43058Y271392I200J0*
G01X45692Y268758*
G03X45833Y268700I141J141*
G01X48920*
G02X49104Y268576I-1J-200*
G01X49128Y268520*
X49104Y268401*
X47090Y266387*
X47054Y266372*
G03X45128Y264446I1446J-3372*
G01X45113Y264410*
X43658Y262956*
G03X43600Y262815I141J-141*
G01Y262814*
Y253178*
X43505Y253066*
X43432Y253054*
G03X40560Y250248I568J-3454*
X40515Y249926I3441J-645*
G01X40504Y249763*
X40500Y249601*
G03X42242Y246574I3500J0*
G01X42300Y246540*
X42352Y246414*
X42234Y245976*
G02X42040Y245828I-193J52*
G01X39253*
G03X37553Y244128I0J-1700*
G01Y235072*
G03X39253Y233372I1700*
G01X58347*
G03X60047Y235072J1700*
G01Y244128*
G03X58347Y245828I-1700J0*
G01X49060*
G02X48866Y245976I-1J200*
G01X48748Y246414*
X48800Y246540*
X48858Y246574*
G03X50600Y249600I-1758J3027*
G01Y259889*
G02X50681Y260050I200J0*
G03X51511Y260904I-2181J2950*
G01X51521Y260918*
X56244Y265641*
G02X56385Y265700I142J-140*
G01X60867*
G03X61008Y265758I0J200*
G01X62458Y267208*
G02X62676Y267252I142J-140*
G01X62732Y267229*
X62800Y267128*
Y266700*
G03X63000Y266500I200*
G01X79400*
G02X79600Y266300I0J-200*
G01Y262433*
G03X79658Y262292I200J0*
G01X85892Y256058*
G03X86033Y256000I141J141*
G01X90567*
G03X90708Y256058I0J200*
G01X91291Y256641*
G02X91433Y256700I142J-140*
G01X94667*
G03X94808Y256758I0J200*
G01X97742Y259692*
G03X97800Y259833I-141J141*
G01Y266367*
G03X97742Y266508I-200J0*
G01X96241Y268009*
G02X96183Y268150I141J141*
X96198Y268227I199J1*
G01X96221Y268283*
X96322Y268350*
X110349*
G03X112049Y270050I0J1700*
G01Y270051*
Y276349*
Y276350*
G03X110349Y278050I-1701J-1*
G01X94404*
G03X92704Y276350I0J-1700*
G01Y276349*
Y270051*
X92709Y269916*
X92710Y269908*
Y269900*
G02X92510Y269700I-200*
G01X90300*
G02X90100Y269900I0J200*
G01Y275467*
G03X90042Y275608I-200J0*
G01X85708Y279942*
G03X85567Y280000I-141J-141*
G01X72678*
X72566Y280095*
X72554Y280168*
G03X69140Y283100I-3454J-568*
X65646Y280168I-40J-3500*
G01X65634Y280095*
X65522Y280000*
X64400*
G02X64200Y280200I0J200*
G01Y284600*
G03X64000Y284800I-200J0*
G01X62600*
G02X62400Y285000I0J200*
G01Y290307*
X62366Y290341*
G02X62307Y290483I140J142*
G01Y294646*
G03X60607Y296346I-1700J0*
G01X55887*
G02X55746Y296404I0J200*
G01X48128Y304022*
G02X48070Y304163I141J141*
X48087Y304244I199J0*
G01X48263Y304642*
X48369Y304707*
X48431Y304704*
G03X52100Y308200I169J3496*
G01Y308222*
Y308262*
X52130Y308336*
X52942Y309147*
G03X53000Y309288I-141J141*
G01Y309289*
Y318811*
Y318812*
G03X52942Y318953I-200J0*
G01X46964Y324930*
G02X46906Y325071I141J141*
X46921Y325148I199J1*
G01X46944Y325204*
X47045Y325272*
X61300*
X61314Y325286*
X91300*
G02X91500Y325086I0J-200*
G01Y305583*
G03X91559Y305441I200J0*
G01X92741Y304259*
G03X92883Y304200I142J140*
G01X98917*
G02X99059Y304141I0J-200*
G01X112541Y290659*
G03X112683Y290600I142J140*
G01X131917*
G02X132059Y290541I0J-200*
G01X138541Y284059*
G02X138600Y283917I-140J-142*
G01Y275777*
G02X138476Y275593I-200J1*
G01X138420Y275569*
X138302Y275593*
X128953Y284942*
G03X128811Y285000I-141J-141*
G01X106877*
G02X106736Y285059I1J200*
G01X86249Y305546*
G02X86190Y305688I140J142*
G01Y305698*
X86209Y306038*
X86248Y306114*
X86281Y306140*
G03X88900Y311600I-4381J5460*
X86516Y316863I-7000J0*
X75916Y315232I-4616J-5263*
X74900Y311601I5984J-3632*
X79313Y305096I7000J0*
G01X79410Y305012*
G03X81297Y303663I2490J1489*
G01X81325Y303657*
X81376Y303630*
X104747Y280258*
G03X104889Y280200I141J141*
G01X126823*
G02X126964Y280141I-1J-200*
G01X129964Y277142*
G02X130022Y277001I-141J-141*
X130007Y276924I-199J-1*
G01X129984Y276868*
X129883Y276800*
X120133*
G03X119992Y276742I0J-200*
G01X119100Y275850*
X119048Y275822*
X119019Y275816*
G03X117683Y274481I331J-1667*
G01X117677Y274452*
X117649Y274400*
X117258Y274008*
G03X117200Y273867I141J-141*
G01Y266133*
G03X117258Y265992I200J0*
G01X117592Y265658*
G02X117650Y265517I-141J-141*
G01Y258204*
G03X119351Y256504I1700J0*
G01X125649*
G03X127350Y258204I1J1700*
G01Y262600*
G02X127550Y262800I200J0*
G01X132700*
G02X132900Y262600I0J-200*
G01Y214777*
G02X132841Y214636I-200J1*
G01X116564Y198359*
G02X116423Y198300I-142J140*
G01X109489*
G03X109347Y198242I-1J-200*
G01X89764Y178659*
G02X89623Y178600I-142J140*
G01X88433*
G02X88290Y178660I0J200*
G03X84767Y179544I-2490J-2460*
G01X84702Y179524*
X84573Y179573*
X84337Y179965*
G02X84308Y180068I171J104*
X84367Y180210I200J0*
G01X103798Y199641*
G02X103940Y199700I142J-140*
G01X115974*
G03X116116Y199758I1J200*
G01X128729Y212371*
G03X129901Y215200I-2829J2829*
X128729Y218029I-4001J0*
X123071I-2829J-2829*
G01X112802Y207759*
G02X112660Y207700I-142J140*
G01X100626*
G03X100484Y207642I-1J-200*
G01X78010Y185167*
G02X77775Y185132I-141J141*
G01X77379Y185343*
X77322Y185462*
X77335Y185527*
G03X77400Y186200I-3435J671*
X73878Y189700I-3500J0*
G01X73838*
X73764Y189730*
X72353Y191142*
G03X72211Y191200I-141J-141*
G01X66577*
G02X66436Y191259I1J200*
G01X66431Y191264*
X66400Y191337*
Y195367*
G02X66460Y195510I200J0*
G03X67500Y198000I-2460J2490*
X66695Y200234I-3500J1*
X62010Y200879I-2694J-2234*
G01X61950Y200838*
X61806Y200851*
X59916Y202742*
G03X59774Y202800I-141J-141*
G01X46689*
G03X46547Y202742I-1J-200*
G01X45264Y201459*
G02X45123Y201400I-142J140*
G01X40700*
G02X40635Y201411I0J200*
G03X36301Y199519I-1134J-3311*
X36000Y198100I3199J-1420*
X37807Y195036I3500J-1*
X42404Y196147I1692J3064*
X42609Y196492I-2902J1958*
G02X42786Y196600I178J-92*
G01X45536*
G02X45723Y196470I0J-200*
G03X51490Y195240I3277J1230*
G02X51633Y195300I143J-139*
G01X58223*
G02X58364Y195241I-1J-200*
G01X59941Y193664*
G02X60000Y193523I-140J-142*
G01Y188726*
Y188725*
G03X60058Y188584I200J0*
G01X63784Y184858*
G03X63926Y184800I141J141*
G01X65518*
G02X65700Y184681I-1J-200*
G03X71262Y183517I3200J1419*
G02X71393Y183569I135J-148*
G01X71510Y183572*
G02X71643Y183525I4J-200*
G03X74573Y182765I2257J2675*
G01X74638Y182778*
X74757Y182721*
X74968Y182325*
G02X74991Y182231I-177J-93*
X74933Y182090I-200J0*
G01X56271Y163429*
G03X55100Y160601I2830J-2828*
G01Y160600*
Y152900*
G03X59100Y148900I4000*
X63100Y152900I0J4000*
G01Y158860*
G02X63159Y159002I200J0*
G01X81790Y177633*
G02X82035Y177663I142J-141*
G01X82427Y177427*
X82476Y177298*
X82456Y177233*
G03X82300Y176200I3344J-1033*
X83937Y173237I3500J0*
X88290Y173740I1863J2963*
G02X88433Y173800I143J-139*
G01X91611*
G03X91753Y173858I1J200*
G01X111336Y193441*
G02X111477Y193500I142J-140*
G01X118411*
G03X118553Y193558I1J200*
G01X137642Y212647*
G03X137700Y212788I-141J141*
G01Y212789*
Y261523*
G02X137759Y261664I200J-1*
G01X138259Y262164*
G02X138476Y262208I141J-141*
G01X138533Y262184*
X138600Y262084*
Y237783*
G03X138659Y237641I200J0*
G01X147241Y229059*
G03X147383Y229000I142J140*
G01X228917*
G03X229059Y229059I0J200*
G01X230941Y230941*
G03X231000Y231083I-140J142*
G01Y239917*
G02X231059Y240059I200J0*
G01X231441Y240441*
G02X231583Y240500I142J-140*
G01X231600*
X243541Y252441*
G03X243600Y252583I-140J142*
G01Y264117*
G02X243659Y264259I200J0*
G01X249741Y270341*
G02X249883Y270400I142J-140*
G01X251676*
G02X251869Y270250I-1J-200*
G01X251982Y269808*
X251928Y269682*
X251868Y269649*
G03X248700Y264300I2932J-5349*
X249091Y262151I6100J0*
G01X249111Y262096*
X249087Y261981*
X246858Y259753*
G03X246800Y259612I141J-141*
G01Y259611*
Y248440*
G02X246741Y248298I-200J0*
G01X243658Y245216*
G03X243600Y245075I141J-141*
G01Y245074*
Y230477*
G02X243541Y230336I-200J1*
G01X242164Y228959*
G02X242023Y228900I-142J140*
G01X234137*
G03X233996Y228842I0J-200*
G01X232513Y227359*
G02X232372Y227300I-142J140*
G01X207500*
G03X207359Y227242I0J-200*
G01X205576Y225459*
G02X205435Y225400I-142J140*
G01X149489*
G03X149347Y225342I-1J-200*
G01X143075Y219070*
G03X143017Y218929I141J-141*
G01Y218928*
Y217406*
G02X142965Y217271I-200J0*
X141961Y216542I-2266J2066*
G03X140961Y214993I700J-1549*
G01Y214992*
Y209879*
G02X140902Y209738I-200J1*
G01X140758Y209594*
G03X140700Y209453I141J-141*
G01Y206842*
G02X140612Y206677I-200J1*
G03X139869Y205272I957J-1405*
G01Y205271*
Y201729*
Y201728*
G03X141569Y200028I1700J0*
G01X143931*
G03X144565Y200151I-1J1700*
G01X144621Y200174*
X144739Y200149*
X144781Y200107*
G02X144840Y199965I-140J-142*
X144781Y199824I-199J1*
G01X144392Y199434*
G02X144250Y199376I-141J141*
G01X142744*
G03X141044Y197676I0J-1700*
G01Y189408*
Y189407*
G03X142744Y187707I1700J0*
G01X148256*
G03X149956Y189407J1700*
G01Y189408*
Y190033*
G02X150156Y190233I200J0*
G03X150298Y190292I0J200*
G01X150702Y190697*
G02X150920Y190740I141J-141*
G01X150976Y190717*
X151044Y190616*
Y189408*
Y189407*
G03X152744Y187707I1700J0*
G01X158256*
G03X159956Y189407J1700*
G01Y189408*
Y191024*
X160073Y191142*
X160093*
X160166Y191172*
X160520Y191526*
G02X160803I142J-141*
G01X160838Y191491*
X160867Y191396*
X160858Y191347*
G03X160828Y191031I1671J-318*
G01Y188669*
G03X162529Y186969I1700J0*
G01X163926*
G03X163927Y186970I0J1*
G01X163926Y186971*
X163901Y186981*
G03X162529Y188669I-2967J-1010*
G01X164300Y190100*
X166071Y188669*
G03X164699Y186981I1596J-2698*
G01X164674Y186971*
X164673Y186970*
X164674Y186969*
X166071*
G03X167772Y188669I1J1700*
G01Y189430*
G02X167905Y189618I200J0*
G01X168320Y189766*
X168442Y189731*
X168482Y189682*
G03X176039Y187526I5318J4318*
X180651Y194000I-2238J6474*
G01X180648Y194189*
X180646Y194229*
X180676Y194305*
X180904Y194539*
G02X181047Y194600I144J-139*
G01X230511*
G03X230653Y194658I1J200*
G01X235742Y199747*
G03X235800Y199888I-141J141*
G01Y199889*
Y214723*
G02X235859Y214864I200J-1*
G01X238636Y217641*
G02X238777Y217700I142J-140*
G01X249033*
G02X249204Y217604I0J-200*
G01X249409Y217266*
X249412Y217162*
X249388Y217115*
G03X248700Y214300I5412J-2814*
X250902Y209608I6100J0*
G01X250936Y209579*
X250974Y209499*
Y209102*
X250936Y209021*
X250902Y208992*
G03X248700Y204300I3898J-4692*
X250902Y199608I6100J0*
G01X250936Y199579*
X250974Y199498*
Y199102*
X250936Y199021*
X250902Y198992*
G03X248700Y194300I3898J-4692*
X250071Y190446I6100J-1*
G01X250098Y190414*
X250120Y190333*
X250068Y189960*
X250024Y189889*
X249989Y189865*
G03X248700Y187400I1712J-2465*
G01Y181200*
G03X250134Y178641I3000J0*
G01X250191Y178606*
X250240Y178481*
X250117Y178046*
G02X249925Y177900I-193J54*
G01X240483*
G03X240341Y177841I0J-200*
G01X230059Y167559*
G03X230000Y167417I140J-142*
G01Y162183*
G02X229941Y162041I-200J0*
G01X227759Y159859*
G02X227617Y159800I-142J140*
G01X224883*
G02X224741Y159859I0J200*
G01X222259Y162341*
G02X222200Y162483I140J142*
G01Y171017*
G03X222141Y171159I-200J0*
G01X219159Y174141*
G03X219017Y174200I-142J-140*
G01X189583*
G03X189441Y174141I0J-200*
G01X184359Y169059*
G03X184300Y168917I140J-142*
G01Y156974*
G02X184211Y156808I-200J0*
G01X183892Y156596*
X183792Y156586*
X183746Y156606*
G03X182589Y156838I-1157J-2768*
G01X179405*
G02X179212Y156984I0J200*
G01X179091Y157420*
X179141Y157545*
X179198Y157580*
G03X180650Y160150I-1548J2570*
G01Y167850*
G03X177650Y170850I-3000J0*
G01X170927*
G02X170743Y170974I1J200*
G01X170719Y171030*
X170743Y171149*
X178736Y179141*
G02X178877Y179200I142J-140*
G01X204850*
G03X208344Y182497I0J3500*
G02X208490Y182678I200J-12*
G03X211051Y186050I-940J3372*
X210564Y187831I-3501J0*
X205060Y188510I-3014J-1781*
G02X204917Y188450I-143J139*
G01X203039*
G03X202897Y188392I-1J-200*
G01X200364Y185859*
G02X200223Y185800I-142J140*
G01X175189*
G03X175047Y185742I-1J-200*
G01X165214Y175909*
G02X165073Y175850I-142J140*
G01X161083*
G02X160940Y175910I0J200*
G03X155990Y175940I-2490J-2460*
X154950Y173450I2460J-2490*
X155960Y170990I3500J0*
X160940I2490J2460*
G02X161083Y171050I143J-139*
G01X163373*
G02X163557Y170926I-1J-200*
G01X163581Y170870*
X163557Y170751*
X161658Y168853*
G03X161600Y168712I141J-141*
G01Y168711*
Y164533*
G02X161540Y164390I-200J0*
G03X160500Y161900I2460J-2490*
X161510Y159440I3500J0*
X166437Y159388I2490J2460*
G01X166474Y159424*
X166574Y159451*
X167004Y159344*
X167080Y159273*
X167096Y159224*
G03X169950Y157150I2854J926*
G01X173134*
G02X173326Y157003I-1J-200*
G01X173448Y156567*
X173398Y156442*
X173340Y156407*
G03X172502Y155655I1549J-2569*
G01X172478Y155624*
X172411Y155584*
X172059Y155531*
X171983Y155548*
X171952Y155571*
G03X162767Y154427I-3968J-5584*
X161134Y149987I5217J-4439*
X163107Y145177I6850J0*
X171952Y144404I4877J4811*
G01X171983Y144426*
X172059Y144444*
X172411Y144391*
X172478Y144351*
X172502Y144320*
G03X174889Y143137I2387J1817*
G01X182589*
G03X183746Y143369I0J3000*
G01X183792Y143389*
X183892Y143379*
X184211Y143167*
G02X184300Y143001I-111J-166*
G01Y143000*
Y135883*
G02X184241Y135741I-200J0*
G01X178459Y129959*
G02X178317Y129900I-142J140*
G01X137683*
G03X137541Y129841I0J-200*
G01X130059Y122359*
G02X129917Y122300I-142J140*
G01X129900*
X126342Y118742*
G02X126124Y118698I-142J140*
G01X126068Y118721*
X126000Y118822*
Y132923*
G02X126059Y133064I200J-1*
G01X128036Y135041*
G02X128177Y135100I142J-140*
G01X144811*
G03X144953Y135158I1J200*
G01X149342Y139547*
G03X149400Y139688I-141J141*
G01Y139689*
Y150223*
G02X149459Y150364I200J-1*
G01X154460Y155366*
G02X154601Y155424I141J-141*
G01X158256*
G03X159956Y157124J1700*
G01Y165392*
Y165393*
G03X158256Y167093I-1701J-1*
G01X152744*
G03X151044Y165393I0J-1700*
G01Y165392*
Y158821*
G02X150985Y158680I-200J1*
G01X150298Y157992*
G02X150080Y157949I-141J141*
G01X150024Y157972*
X149956Y158073*
Y165392*
Y165393*
G03X148256Y167093I-1701J-1*
G01X142744*
G03X141044Y165393I0J-1700*
G01Y165392*
Y157124*
X141046Y157047*
Y157042*
Y157038*
G02X140846Y156838I-200*
G01X134133*
G03X131133Y153838I0J-3000*
G01Y153837*
Y146137*
G03X134133Y143137I3000J0*
G01X141833*
G03X143921Y143983I0J3000*
G01X143965Y144025*
X144083Y144047*
X144478Y143880*
G02X144600Y143696I-78J-184*
G01Y141677*
G02X144541Y141536I-200J1*
G01X142964Y139959*
G02X142823Y139900I-142J140*
G01X126189*
G03X126047Y139842I-1J-200*
G01X121258Y135053*
G03X121200Y134912I141J-141*
G01Y134911*
Y115881*
G02X121141Y115740I-200J1*
G01X120863Y115462*
X120736Y115441*
X120678Y115470*
G03X111116Y113613I-3571J-7159*
X109107Y108311I5991J-5302*
X110775Y103422I8000J0*
G01X110817Y103300*
G02X110758Y103158I-200J0*
G01X108159Y100559*
G02X108017Y100500I-142J140*
G01X81483*
G02X81341Y100559I0J200*
G01X58559Y123341*
G02X58500Y123483I140J142*
G01Y123500*
X42259Y139741*
G02X42200Y139883I140J142*
G01Y189517*
G03X42141Y189659I-200J0*
G01X35559Y196241*
G03X35417Y196300I-142J-140*
G01X24883*
G03X24741Y196241I0J-200*
G01X17159Y188659*
G03X17100Y188517I140J-142*
G01Y148883*
G03X17159Y148741I200J0*
G01X20641Y145259*
G02X20700Y145117I-140J-142*
G01Y117483*
G02X20641Y117341I-200J0*
G01X17159Y113859*
G03X17100Y113717I140J-142*
G01Y102983*
G03X17159Y102841I200J0*
G01X23141Y96859*
G02X23200Y96717I-140J-142*
G01Y53183*
G03X23259Y53041I200J0*
G01X45441Y30859*
G02X45500Y30717I-140J-142*
G01Y21872*
G02X45406Y21703I-200J1*
G01X45076Y21496*
X44974Y21490*
X44927Y21512*
G03X36587Y19758I-3027J-6312*
X34900Y15200I5313J-4558*
X36123Y11247I7000J0*
X44223Y8596I5777J3953*
G01X44927Y8888*
X44974Y8910*
X45076Y8904*
X45406Y8697*
G02X45500Y8528I-106J-169*
G01Y1700*
G02X45300Y1500I-200*
G01X10300*
G02X10111Y1637I1J200*
G01X9970Y2058*
X10009Y2181*
X10060Y2220*
G03X12500Y7100I-3660J4880*
X9932Y12074I-6100J1*
G01X9892Y12102*
X9848Y12188*
Y12612*
X9892Y12698*
X9932Y12726*
G03X12500Y17700I-3532J4974*
X9932Y22674I-6100J0*
G01X9892Y22702*
X9848Y22788*
Y23212*
X9892Y23298*
X9932Y23326*
G03X12500Y28300I-3532J4974*
X11047Y32252I-6100J0*
X2177Y32702I-4647J-3952*
G01X2134Y32661*
X2015Y32639*
X1622Y32807*
G02X1500Y32991I78J184*
G37*
%LPC*%
G36*
X33712Y252703D02*
G03X42599Y261800I-212J9097D01*
X33287Y270897I-9099J0*
X24401Y261800I213J-9097*
X33712Y252703I9099J0*
G37*
G36*
X62131Y304604D02*
G03X68900Y311600I-231J6996D01*
X61669Y318596I-7000J0*
X54900Y311600I231J-6996*
X62131Y304604I7000J0*
G37*
G36*
X73253Y233372D02*
G01X74959D01*
G02X75143Y233252I1J-200*
G01X75312Y232860*
X75292Y232742*
X75250Y232698*
G03X74299Y230300I2549J-2398*
X77800Y226800I3500J0*
G01X80900*
G03X84400Y230300J3500*
G01Y233172*
G02X84600Y233372I200J0*
G01X86689*
G02X86889Y233172I0J-200*
G01Y229826*
X86846Y229702*
G03X85732Y226500I4043J-3202*
X87463Y222645I5157J0*
X94431Y222751I3426J3855*
X96046Y226500I-3542J3748*
X94932Y229702I-5158J0*
G01X94889Y229826*
Y237174*
Y237175*
G03X94831Y237316I-199J0*
G01X94106Y238040*
G02X94047Y238182I141J142*
G01Y244128*
G03X92347Y245828I-1700J0*
G01X73253*
G03X71553Y244128I0J-1700*
G01Y235072*
G03X73253Y233372I1700*
G37*
G36*
X83200Y109600D02*
G03X87200Y113600I0J4000D01*
G01Y118960*
G02X87259Y119102I199J0*
G01X87398Y119241*
G02X87540Y119300I142J-141*
G01X103374*
G03X103516Y119358I1J199*
G01X110242Y126084*
G03X110300Y126225I-142J141*
G01Y126226*
Y141067*
G02X110431Y141255I200J0*
G01X110843Y141406*
X110965Y141374*
X111005Y141326*
G03X111933Y140398I6102J5174*
X123209Y141326I5174J6102*
X125107Y146500I-6102J5174*
X122281Y152602I-8000J0*
X111005Y151674I-5174J-6102*
G01X110965Y151626*
X110843Y151594*
X110431Y151745*
G02X110300Y151933I69J188*
G01Y152460*
G02X110359Y152602I199J0*
G01X121049Y163292*
G03X121107Y163433I-142J141*
G01Y177646*
G02X121205Y177818I200J0*
G03X125107Y184689I-4098J6871*
X123308Y189744I-8000J0*
X111052Y189918I-6201J-5055*
X109107Y184689I6055J-5229*
X113009Y177818I8000J0*
G02X113107Y177646I-102J-172*
G01Y166747*
G02X113048Y166606I-199J1*
G01X102358Y155916*
G03X102300Y155775I142J-141*
G01Y155774*
Y129540*
G02X102241Y129398I-199J0*
G01X100202Y127359*
G02X100060Y127300I-142J141*
G01X84226*
G03X84084Y127242I-1J-199*
G01X80371Y123529*
G03X79200Y120701I2829J-2828*
G01Y120700*
Y113600*
G03X83200Y109600I4000J0*
G37*
G36*
X110319Y223342D02*
G03X116893Y221824I4192J3158D01*
X119759Y226500I-2382J4676*
X119530Y228034I-5248J1*
G01X119516Y228080*
X119532Y228173*
X119752Y228470*
G02X119913Y228551I161J-119*
G01X125649*
G03X127350Y230251I1J1700*
G01Y246196*
G03X125649Y247896I-1701J-1*
G01X119351*
G03X117650Y246196I-1J-1700*
G01Y231440*
Y231439*
G02X117552Y231267I-199J0*
G01X117209Y231065*
X117103Y231064*
X117056Y231090*
G03X110673Y230080I-2545J-4590*
X109263Y226500I3838J-3579*
X110319Y223342I5248J-1*
G37*
G36*
X22131Y8204D02*
G03X28900Y15200I-231J6996D01*
X21669Y22196I-7000J0*
X14900Y15200I231J-6996*
X22131Y8204I7000J0*
G37*
%LPD*%
G36*
X111167Y226500D02*
G02X111460Y227207I1000J0D01*
G03X112632Y228379I-821J1993*
X113804Y229551I-821J1993*
G02X115218I707J-707*
G03X116390Y228379I1993J821*
X117562Y227207I1993J821*
G02X117855Y226500I-707J-707*
X117562Y225793I-1000J0*
G03X116390Y224621I821J-1993*
X115218Y223449I821J-1993*
G02X113804I-707J707*
G03X112632Y224621I-1993J-821*
X111460Y225793I-1993J-821*
G02X111167Y226500I707J707*
G37*
G36*
X56158Y311600D02*
G02X56597Y312661I1500J0D01*
G03X58718Y314782I-1484J3605*
X60839Y316903I-1484J3605*
G02X62961I1061J-1061*
G03X65082Y314782I3605J1484*
X67203Y312661I3605J1484*
G02X67642Y311600I-1062J-1061*
X67203Y310539I-1501J0*
G03X65082Y308418I1484J-3605*
X62961Y306297I1484J-3605*
G02X60839I-1061J1061*
G03X58718Y308418I-3605J-1484*
X56597Y310539I-3605J-1484*
G02X56158Y311600I1061J1061*
G37*
G54D10*
X6400Y7100D03*
Y17700D03*
Y28300D03*
X8900Y92500D03*
Y82500D03*
Y72500D03*
Y112500D03*
Y102500D03*
Y142500D03*
Y132500D03*
Y122500D03*
X254800Y194300D03*
Y214300D03*
Y204300D03*
Y244300D03*
Y234300D03*
Y224300D03*
Y264300D03*
Y254300D03*
G54D11*
X8900Y62500D03*
X254800Y184300D03*
G54D46*
X74424Y273200D03*
X102376D03*
G54D29*
X90889Y226500D03*
X114511D03*
G54D12*
X12100Y50100D03*
X4900Y48500D03*
X6700Y186800D03*
X4800Y219100D03*
X4100Y209400D03*
X4200Y196700D03*
X11430Y242330D03*
X6200Y228700D03*
X4900Y235000D03*
X11000Y289200D03*
X12629Y299571D03*
X12700Y305600D03*
X3700Y317600D03*
X8100Y322900D03*
X31000Y4000D03*
X19300Y4400D03*
X31900Y39500D03*
X15100Y41300D03*
X16900Y26800D03*
X21200Y51600D03*
X25000Y46400D03*
X18700Y82400D03*
X19800Y96000D03*
X18600Y120000D03*
Y128500D03*
X13200Y159400D03*
X13000Y151200D03*
Y180000D03*
X13200Y170700D03*
X35950Y212150D03*
X24100Y212100D03*
X18100Y236900D03*
X37450Y224850D03*
X19300Y229500D03*
X27600D03*
X23800Y234800D03*
X13000D03*
X33100Y236800D03*
Y233800D03*
X32700Y249800D03*
X15700Y277200D03*
X18700Y277100D03*
X35800Y319300D03*
X13900Y311700D03*
X28400Y308300D03*
X52200Y137200D03*
X45800Y139600D03*
X59100Y157000D03*
Y160600D03*
Y152900D03*
X50000Y155800D03*
X52700Y151000D03*
X45000Y152000D03*
X48900Y145400D03*
X52600Y160900D03*
X48900Y187900D03*
X45164Y180864D03*
X58100Y189300D03*
X60000Y186600D03*
X44600Y187000D03*
X61300Y171300D03*
X48900Y219500D03*
Y216200D03*
X39500Y198100D03*
X49000Y197700D03*
X44600Y210900D03*
X50386Y224850D03*
X51700Y230300D03*
X58314Y234186D03*
X51300Y246200D03*
X52200Y249800D03*
Y253600D03*
X38800Y250500D03*
X44400Y266900D03*
X44000Y249600D03*
X47100D03*
X48000Y277100D03*
X48100Y274000D03*
X39200Y319800D03*
X48600Y308200D03*
X83200Y117100D03*
Y113600D03*
Y120700D03*
X76800Y169600D03*
X78700Y189100D03*
X87800Y171200D03*
X79800Y171400D03*
X83400Y171000D03*
X73900Y186200D03*
X68900Y186100D03*
X85800Y176200D03*
X77900Y195100D03*
X64900Y211500D03*
X78500D03*
X81800Y217600D03*
X64000Y198000D03*
X82300Y224000D03*
X86800Y220200D03*
X80900Y230300D03*
X77800D03*
X63600Y265800D03*
X64000Y293700D03*
X66600Y286000D03*
X64200Y288400D03*
X69100Y279600D03*
X66029Y299571D03*
X70700Y313900D03*
X69900Y306800D03*
X67600Y303600D03*
X68900Y322500D03*
X77300Y322300D03*
X87400Y322900D03*
X101900Y30300D03*
Y37850D03*
Y23269D03*
Y45400D03*
X111750Y55250D03*
X106825Y50325D03*
X92500Y116800D03*
X106800Y117600D03*
X92600Y110400D03*
X89200Y129500D03*
X91100Y137200D03*
X96200Y137600D03*
X97300Y129600D03*
X106800Y167000D03*
X90600Y145200D03*
X95700Y145300D03*
X89900Y183500D03*
X89600Y180500D03*
X111100Y171000D03*
X111400Y176500D03*
X90550Y205950D03*
X88200Y211600D03*
X92900Y215100D03*
X98900Y209200D03*
X108700Y218800D03*
X97500Y232900D03*
X106400Y232700D03*
X101400Y225600D03*
X91100Y262800D03*
X88200Y261500D03*
X88000Y264700D03*
Y317200D03*
X121900Y38700D03*
X125921Y42721D03*
X121900Y26950D03*
Y32825D03*
Y21075D03*
X121600Y65100D03*
X116675Y60175D03*
X129942Y46742D03*
X133962Y50762D03*
X121600Y88900D03*
X125696Y92996D03*
X121600Y77000D03*
Y82950D03*
Y71050D03*
X116600Y118700D03*
X129792Y97092D03*
X133887Y101187D03*
X131200Y131400D03*
X129000Y125900D03*
X114200Y127700D03*
X127500Y142800D03*
X117100Y135700D03*
X127700Y150500D03*
X121600Y193900D03*
X136300Y188400D03*
X128400Y180500D03*
X137700Y172200D03*
X127100Y189100D03*
X120350Y209650D03*
X122950Y212250D03*
X125900Y215200D03*
X134200Y206200D03*
X129300Y200600D03*
X114300Y215300D03*
X129776Y238224D03*
X123900Y223900D03*
X130600Y230600D03*
X113600Y242600D03*
Y234800D03*
X132800Y268300D03*
X129500D03*
X126400D03*
X122500Y248100D03*
X114100Y264500D03*
X118850Y250350D03*
X130600Y256400D03*
X130100Y246100D03*
X126900Y271600D03*
X131000D03*
X114100Y271300D03*
X133800Y284400D03*
X136000Y279700D03*
X130000Y287400D03*
X141900Y25300D03*
Y35400D03*
Y30350D03*
Y20250D03*
X150250Y43750D03*
X146075Y39575D03*
X161900Y31400D03*
Y20900D03*
Y26150D03*
X137983Y54783D03*
Y67385D03*
Y61084D03*
X158600Y52100D03*
Y65800D03*
Y59200D03*
X154425Y47925D03*
X137983Y73686D03*
X158600Y89849D03*
Y72400D03*
Y78900D03*
Y84500D03*
X137983Y105283D03*
X160430Y138930D03*
X162200Y133900D03*
X150200Y135700D03*
X145700Y132500D03*
X159900Y168500D03*
X145650Y156350D03*
X143700Y179500D03*
X153000D03*
X158450Y173450D03*
X155417Y216517D03*
X138000Y198800D03*
X151200Y203500D03*
X145800Y225700D03*
X141100Y220400D03*
X162500Y227300D03*
X170319Y39819D03*
X174529Y44029D03*
X166110Y35610D03*
X182000Y26700D03*
X181900Y20950D03*
X185325Y30125D03*
X178739Y48239D03*
Y61500D03*
Y68300D03*
Y54800D03*
Y74144D03*
X168669Y99918D03*
X173704Y104953D03*
X163635Y94883D03*
X181500Y138100D03*
X178800Y141300D03*
X180100Y134500D03*
X164000Y161900D03*
X180500Y174600D03*
X176100Y172700D03*
X164300Y187100D03*
X176783Y216517D03*
X172600Y203500D03*
X179000Y203200D03*
X181800Y227400D03*
X172000Y227200D03*
X195600Y40400D03*
X188750Y33550D03*
X192175Y36975D03*
X211700Y41298D03*
Y36149D03*
Y31000D03*
X201900Y21200D03*
X206800Y26100D03*
X195600Y63247D03*
Y51823D03*
Y57535D03*
Y46112D03*
Y68958D03*
X211700Y51597D03*
Y61895D03*
Y67044D03*
Y56746D03*
Y46447D03*
X195600Y74670D03*
Y80382D03*
Y86093D03*
X200203Y90697D03*
X211700Y72193D03*
X204853Y95347D03*
X209503Y99997D03*
X193900Y192800D03*
X200000Y189100D03*
X194700Y176600D03*
X200700Y176800D03*
X208600Y192800D03*
X204850Y182700D03*
X207550Y186050D03*
X198183Y216517D03*
X193800Y203500D03*
X200700Y202700D03*
X203900Y227200D03*
X194300Y227300D03*
X215203Y75697D03*
X235300Y90500D03*
X236300Y85600D03*
X214255Y104749D03*
X234900Y95600D03*
X235000Y100800D03*
X237400Y103700D03*
X227600Y168500D03*
X224500Y165400D03*
X227600Y162700D03*
X219600Y192900D03*
X219400Y187400D03*
X224800Y172100D03*
X228300Y191300D03*
X219483Y216517D03*
X215400Y203500D03*
X229300Y215100D03*
X228100Y203500D03*
X233800Y237500D03*
X233300Y231500D03*
X241200Y85700D03*
X238800Y88900D03*
X242200Y90600D03*
X238700Y93400D03*
X242000Y95800D03*
X241500Y101000D03*
X238300Y98300D03*
X240900Y104100D03*
X246100Y180600D03*
X241600Y180100D03*
X244500Y216300D03*
X238200Y196400D03*
X241200Y208200D03*
X242600Y239300D03*
X241400Y231400D03*
X243000Y248900D03*
X246200Y264400D03*
G54D33*
X137983Y79987D03*
Y109987D03*
X178739Y79987D03*
Y109987D03*
X167983Y149987D03*
X173800Y194000D03*
X208739Y149987D03*
X213800Y164000D03*
X219494Y79987D03*
Y109987D03*
X249494Y149987D03*
X243800Y164000D03*
G54D14*
X21900Y15200D03*
Y311600D03*
X41900Y15200D03*
X61900D03*
Y311600D03*
X41900D03*
X81900Y15200D03*
Y311600D03*
X101900Y15200D03*
Y311600D03*
X121900Y15200D03*
Y311600D03*
X141900Y15200D03*
X161900D03*
Y311600D03*
X141900D03*
X181900Y15200D03*
Y311600D03*
X201900Y15200D03*
Y311600D03*
X221900Y15200D03*
Y311600D03*
X241900Y15200D03*
Y311600D03*
G54D34*
X137983Y149987D03*
X178739D03*
X173800Y164000D03*
X219494Y149987D03*
G54D76*
X33500Y65000D03*
Y261800D03*
X230300Y65000D03*
Y261800D03*
G54D73*
X122500Y238224D03*
Y266176D03*
G54D17*
X30493Y108311D03*
Y184689D03*
X117107Y108311D03*
Y146500D03*
Y184689D03*
G54D90*
X155500Y161258D03*
X145500D03*
Y193542D03*
X155500D03*
X155417Y210858D03*
X145417D03*
Y243142D03*
X155417D03*
X176784Y210858D03*
X166784D03*
X188150D03*
X166784Y243142D03*
X176784D03*
X188150D03*
X198150Y210858D03*
X209517D03*
X198150Y243142D03*
X209517D03*
X219517Y210858D03*
Y243142D03*
G54D16*
X22100Y283450D03*
Y277150D03*
X43700Y283450D03*
Y277150D03*
X164300Y189850D03*
Y196150D03*
G54D23*
X149050Y203500D03*
X142750D03*
X150167Y263739D03*
X156467D03*
X150167Y251739D03*
X156467D03*
X150167Y257739D03*
X156467D03*
X170417Y203500D03*
X164117D03*
X185483D03*
X171534Y263739D03*
X177834D03*
X171534Y251739D03*
X177834D03*
X171534Y257739D03*
X177834D03*
X191783Y203500D03*
X206850D03*
X192900Y263739D03*
X199200D03*
X192900Y251739D03*
X199200D03*
X192900Y257739D03*
X199200D03*
X210267Y263739D03*
Y257739D03*
X213150Y203500D03*
X216567Y263739D03*
X213267Y251739D03*
X219567D03*
X216567Y257739D03*
G54D71*
X32400Y291693D03*
Y278307D03*
X54800Y291693D03*
Y278307D03*
G54D72*
X48800Y239600D03*
X82800D03*
G54D20*
X153317Y272448D03*
Y288590D03*
X174684Y272448D03*
Y288590D03*
X196050Y272448D03*
X213417D03*
X196050Y288590D03*
X213417D03*
G54D27*
X48500Y263000D03*
G54D38*
X6400Y17700D02*
G01Y28300D01*
Y7100D02*
G01Y17700D01*
Y17700D02*
G01X13700D01*
X6400Y7100D02*
G01X14900D01*
X6400Y36900D02*
G01Y28300D01*
X13400D02*
G01X6400D01*
X33100Y236800D02*
G01Y233800D01*
X48900Y219500D02*
G01X46300Y222100D01*
Y226700*
X44000Y229000*
X35500*
X33100Y231400*
Y233800*
X48900Y219500D02*
G01Y216200D01*
X51300Y246200D02*
G01Y242100D01*
X48800Y239600*
Y239600D02*
G01X52900D01*
X58314Y234186*
X48800Y239600D02*
G01Y233200D01*
Y233200D02*
G01X51700Y230300D01*
X44400Y266900D02*
G01X43700Y267600D01*
Y267600D02*
G01Y277150D01*
X114511Y226500D02*
G01X109063D01*
X114511D02*
G01Y231948D01*
Y226500D02*
G01Y221052D01*
Y226500D02*
G01X119959D01*
X155417Y210858D02*
G01X155500Y210775D01*
Y202800*
X152400Y199700*
X148900*
X145500Y196300*
Y193542*
X155417Y210858D02*
G01Y216517D01*
X149050Y203500D02*
G01X151200D01*
X164300Y189850D02*
G01Y187100D01*
X176784Y210858D02*
G01Y216516D01*
X176783Y216517*
X170417Y203500D02*
G01X172600D01*
X198150Y210858D02*
G01Y216484D01*
X198183Y216517*
X191783Y203500D02*
G01X193800D01*
X219517Y210858D02*
G01Y216483D01*
X219483Y216517*
X213150Y203500D02*
G01X215400D01*
G54D12*
X47100Y249600D02*
G01X44000D01*
X47100D02*
G01Y253700D01*
Y253700D02*
G01Y261447D01*
X54853Y269200*
X59500*
X63500Y273200*
X69900*
X61900Y311600D02*
G01X55600D01*
X80900Y230300D02*
G01Y237700D01*
X82800Y239600*
X77800Y230300D02*
G01X80900D01*
X69900Y273200D02*
G01X74424D01*
X61900Y318700D02*
G01Y311600D01*
Y311600D02*
G01Y305300D01*
Y311600D02*
G01X68400D01*
X122500Y238224D02*
G01X129776D01*
X122500D02*
G01Y248100D01*
X132800Y268300D02*
G01X129500D01*
Y268300D02*
G01X126400D01*
X124624D02*
G01X122500Y266176D01*
X126400Y268300D02*
G01X124624D01*
G54D39*
X8900Y72500D02*
G01X15200D01*
X8900D02*
G01X3500D01*
X61900Y15200D02*
G01Y39700D01*
X52700Y48900*
Y86104*
X30493Y108311*
X81900Y15200D02*
G01Y37450D01*
X65600Y53750*
Y97200*
X30500Y132300*
Y184682*
X30493Y184689*
X21900Y311600D02*
G01Y299500D01*
X29707Y291693*
X32400*
X59100Y160600D02*
G01X102200Y203700D01*
X114400*
X120350Y209650*
X59100Y157000D02*
G01Y160600D01*
Y152900D02*
G01Y157000D01*
X41900Y311600D02*
G01Y304593D01*
X54800Y291693*
X83200Y113600D02*
G01Y117100D01*
Y120700D02*
G01Y117100D01*
Y120700D02*
G01X85800Y123300D01*
X101800*
X106300Y127800*
Y154200*
X117107Y165007*
Y184689*
X90889Y226500D02*
G01Y235600D01*
X86889Y239600*
X82800*
X102376Y273200D02*
G01Y268150D01*
Y273200D02*
G01Y278250D01*
X112200Y273200D02*
G01X114100Y271300D01*
X102376Y273200D02*
G01X112200D01*
X102376D02*
G01X92504D01*
X120350Y209650D02*
G01X122950Y212250D01*
Y212250D02*
G01X125900Y215200D01*
G54D40*
X122500Y238224D02*
G01Y234489D01*
X114511Y226500*
G54D41*
X101900Y23269D02*
G01Y15200D01*
Y45400D02*
G01Y37850D01*
X106825Y50325D02*
G01X101900Y45400D01*
Y30300D02*
G01Y23269D01*
Y37850D02*
G01Y30300D01*
X111750Y55250D02*
G01X106825Y50325D01*
X116675Y60175D02*
G01X111750Y55250D01*
X121900Y26950D02*
G01Y21075D01*
Y21075D02*
G01Y15200D01*
Y38700D02*
G01Y32825D01*
X129942Y46742D02*
G01X125921Y42721D01*
X133962Y50762D02*
G01X129942Y46742D01*
X125921Y42721D02*
G01X121900Y38700D01*
Y32825D02*
G01Y26950D01*
X121600Y65100D02*
G01X116675Y60175D01*
X121600Y77000D02*
G01Y71050D01*
Y71050D02*
G01Y65100D01*
X137983Y54783D02*
G01X133962Y50762D01*
X137983Y67385D02*
G01Y61084D01*
Y73686D02*
G01Y67385D01*
Y61084D02*
G01Y54783D01*
X121600Y88900D02*
G01Y82950D01*
Y88900D02*
G01X137983Y105283D01*
X121600Y82950D02*
G01Y77000D01*
X137983Y79987D02*
G01Y73686D01*
Y105283D02*
G01Y109987D01*
X141900Y25300D02*
G01Y20250D01*
Y20250D02*
G01Y15200D01*
X161900D02*
G01Y20900D01*
Y20900D02*
G01Y26150D01*
X141900Y35400D02*
G01Y30350D01*
Y30350D02*
G01Y25300D01*
X150250Y43750D02*
G01X146075Y39575D01*
Y39575D02*
G01X141900Y35400D01*
X154425Y47925D02*
G01X150250Y43750D01*
X166110Y35610D02*
G01X161900Y31400D01*
Y26150D02*
G01Y31400D01*
X158600Y52100D02*
G01X154425Y47925D01*
X158600Y52100D02*
G01Y59200D01*
Y65800D02*
G01Y59200D01*
Y72400D02*
G01Y65800D01*
X163635Y94883D02*
G01X158600Y89849D01*
Y72400D02*
G01Y78900D01*
Y89849D02*
G01Y84500D01*
Y84500D02*
G01Y78900D01*
X168669Y99918D02*
G01X163635Y94883D01*
X181900Y15200D02*
G01Y20950D01*
Y20950D02*
G01Y26700D01*
X170319Y39819D02*
G01X166110Y35610D01*
X178739Y48239D02*
G01X174529Y44029D01*
Y44029D02*
G01X170319Y39819D01*
X181900Y26700D02*
G01X185325Y30125D01*
X181900Y26700D02*
G01X182000D01*
X188750Y33550D02*
G01X192175Y36975D01*
X185325Y30125D02*
G01X188750Y33550D01*
X178739Y48239D02*
G01Y54800D01*
Y61500D02*
G01Y54800D01*
Y68300D02*
G01Y61500D01*
Y74144D02*
G01Y68300D01*
Y79987D02*
G01Y74144D01*
Y109987D02*
G01X173704Y104953D01*
Y104953D02*
G01X168669Y99918D01*
X201900Y15200D02*
G01Y21200D01*
Y21200D02*
G01X206800Y26100D01*
X195600Y40400D02*
G01Y46112D01*
X192175Y36975D02*
G01X195600Y40400D01*
Y46112D02*
G01Y51823D01*
X211700Y41298D02*
G01Y46447D01*
Y36149D02*
G01Y41298D01*
Y31000D02*
G01Y36149D01*
X206800Y26100D02*
G01X211700Y31000D01*
X195600Y63247D02*
G01Y68958D01*
Y51823D02*
G01Y57535D01*
Y57535D02*
G01Y63247D01*
Y68958D02*
G01Y74670D01*
X211700Y51597D02*
G01Y56746D01*
Y61895D02*
G01Y67044D01*
Y56746D02*
G01Y61895D01*
Y46447D02*
G01Y51597D01*
Y72193D02*
G01Y67044D01*
X195600Y74670D02*
G01Y80382D01*
Y80382D02*
G01Y86093D01*
X200203Y90697D02*
G01X195600Y86093D01*
X204853Y95347D02*
G01X200203Y90697D01*
X204853Y95347D02*
G01X209503Y99997D01*
X219494Y79987D02*
G01X215203Y75697D01*
Y75697D02*
G01X211700Y72193D01*
X209503Y99997D02*
G01X214255Y104749D01*
Y104749D02*
G01X219494Y109987D01*
X239900Y99900D02*
G01Y114300D01*
X224700Y129500*
X204100*
X196100Y137500*
Y156000*
X204100Y164000*
X213800*
X258200Y122500D02*
G01X238000Y142700D01*
Y158000*
X243800Y163800*
Y164000*
G54D36*
X6200Y228700D02*
G01X7600Y230100D01*
Y236119*
X7565Y236322*
X4900Y238987*
Y309500*
X17600Y322200*
X26600*
X28400Y320400*
Y308300*
X48600Y308200D02*
G01X50600Y310200D01*
Y317900*
X44700Y323800*
X16700*
X3300Y310400*
Y236600*
X4900Y235000*
X44600Y210900D02*
G01Y214300D01*
X42900Y216000*
X31100*
X27200Y212100*
X24100*
X22100Y283450D02*
G01X15250D01*
X11600Y279800*
Y255100*
X30100Y236600*
X32900*
X33100Y236800*
X39500Y198100D02*
G01X40400Y199000D01*
X46200*
X47600Y200400*
X58863*
X61263Y198000*
X64000*
X68900Y186100D02*
G01Y186400D01*
X68100Y187200*
X64837*
X62400Y189637*
Y194600*
X59300Y197700*
X49000*
X48500Y263000D02*
G01X47000Y261500D01*
Y253800*
X47100Y253700*
X64000Y198000D02*
G01Y190300D01*
X65500Y188800*
X71300*
X73900Y186200*
X69100Y274000D02*
G01X69900Y273200D01*
X69100Y279600D02*
G01Y274000D01*
X81900Y311600D02*
G01Y306500D01*
X105800Y282600*
X127900*
X137100Y273400*
Y264400*
X135300Y262600*
Y213700*
X117500Y195900*
X110400*
X90700Y176200*
X85800*
X101900Y311600D02*
G01X115000Y298500D01*
X137300*
X145400Y290400*
Y259100*
X146739Y257761*
Y257739*
X117107Y108311D02*
G01X123600Y114804D01*
Y134000*
X127100Y137500*
X143900*
X147000Y140600*
Y151300*
X155500Y159800*
Y161258*
X121900Y311600D02*
G01X129100Y304400D01*
X139400*
X146400Y297400*
X150800*
X153317Y294883*
Y288590*
X145650Y156350D02*
G01Y161108D01*
X145500Y161258*
X158450Y173450D02*
G01X166150D01*
X176100Y183400*
X201300*
X203950Y186050*
X207550*
X155500Y193542D02*
G01X159142D01*
X161750Y196150*
X164300*
X145417Y210858D02*
G01X143100Y208541D01*
Y203850*
X142750Y203500*
X254800Y264300D02*
G01X249200Y258700D01*
Y247363*
X246000Y244163*
Y229400*
X243100Y226500*
X235049*
X233449Y224900*
X208412*
X206512Y223000*
X150400*
X145417Y218017*
Y210858*
X155417Y243142D02*
G01Y245083D01*
X151000Y249500*
Y250906*
X150167Y251739*
Y263739D02*
G01Y269298D01*
X153317Y272448*
X156467Y263739D02*
G01Y257739D01*
Y257739D02*
G01Y251739D01*
X150167Y257739D02*
G01X146739D01*
Y257739D02*
G01X145417Y256417D01*
Y243142*
X141900Y311600D02*
G01X151400Y302100D01*
X158900*
X165000Y296000*
Y260322*
X167584Y257739*
X204850Y182700D02*
G01X203750Y181600D01*
X177800*
X164000Y167800*
Y161900*
X176783Y216517D02*
G01Y210859D01*
X176784Y210858*
X164300Y196150D02*
G01Y198600D01*
X166228Y200529*
X177853*
X181381Y197000*
X229600*
X233400Y200800*
Y215800*
X237700Y220100*
X250600*
X254800Y224300*
X166784Y210858D02*
G01X164467Y208541D01*
Y203850*
X164117Y203500*
X254800Y254300D02*
G01X250800Y250300D01*
Y246700*
X247600Y243500*
Y228737*
X243763Y224900*
X235712*
X234112Y223300*
X209074*
X207174Y221400*
X169800*
X166784Y218384*
Y210858*
X188150D02*
G01X185833Y208541D01*
Y203850*
X185483Y203500*
X177834Y263739D02*
G01Y257739D01*
Y257739D02*
G01Y251739D01*
X171534Y263739D02*
G01Y269298D01*
X174684Y272448*
X176784Y243142D02*
G01Y245083D01*
X172367Y249500*
Y250906*
X171534Y251739*
Y257739D02*
G01X167584D01*
Y257739D02*
G01X166784Y256939D01*
Y243142*
X161900Y311600D02*
G01X174684Y298816D01*
Y288590*
X181900Y311600D02*
G01X186700Y306800D01*
Y260278*
X189239Y257739*
X198183Y216517D02*
G01Y210891D01*
X198150Y210858*
X206850Y203500D02*
G01X207300Y203950D01*
Y208642*
X209517Y210858*
Y210858D02*
G01Y219217D01*
X210400Y220100*
X235437*
X237037Y221700*
X245088*
X250800Y227412*
Y230300*
X254800Y234300*
Y244300D02*
G01X249200Y238700D01*
Y228074*
X244426Y223300*
X236374*
X234774Y221700*
X209737*
X207837Y219800*
X190100*
X188150Y217850*
Y210858*
X210267Y263739D02*
G01Y269298D01*
X213417Y272448*
X192900Y263739D02*
G01Y269298D01*
X196050Y272448*
X199200Y263739D02*
G01Y257739D01*
Y257739D02*
G01Y251739D01*
X198150Y243142D02*
G01Y245083D01*
X193733Y249500*
Y250906*
X192900Y251739*
X188150Y243142D02*
G01Y256650D01*
X189239Y257739*
Y257739D02*
G01X192900D01*
X221900Y311600D02*
G01X220500D01*
X206150Y297250*
Y262150*
X210267Y258033*
Y257739*
X209517Y243142D02*
G01Y256989D01*
X210267Y257739*
X201900Y311600D02*
G01X196050Y305750D01*
Y288590*
X219483Y216517D02*
G01Y210892D01*
X219517Y210858*
X216567Y263739D02*
G01Y257739D01*
X219567Y251739D02*
G01Y254233D01*
X216567Y257233*
Y257739*
X219517Y243142D02*
G01Y244883D01*
X213267Y251133*
Y251739*
X241900Y311600D02*
G01X232900Y302600D01*
X218600*
X213417Y297417*
Y288590*
G54D37*
X47500Y277600D02*
G01X48000Y277100D01*
X47500Y277600D02*
G01Y282650D01*
X46700Y283450*
X43700*
X112200Y273200D02*
G01X112249D01*
X138200Y235900D02*
G01Y261500D01*
Y261500D02*
G01X139500Y262800D01*
Y275100*
X137000Y277600*
M02*
