G04*
G04 #@! TF.GenerationSoftware,Altium Limited,Altium Designer,21.3.2 (30)*
G04*
G04 Layer_Color=16711935*
%FSLAX44Y44*%
%MOMM*%
G71*
G04*
G04 #@! TF.SameCoordinates,E904BC2C-911D-44D5-97E6-C51C7131D4A3*
G04*
G04*
G04 #@! TF.FilePolarity,Negative*
G04*
G01*
G75*
%ADD56R,1.9032X1.7032*%
%ADD60R,1.1532X1.0032*%
%ADD66R,1.4532X1.6032*%
%ADD83C,1.4032*%
%ADD84R,1.4032X1.4032*%
%ADD85C,1.7272*%
%ADD86C,1.0032*%
%ADD87R,1.7272X1.7272*%
%ADD88O,1.2032X2.3032*%
%ADD89O,1.2032X1.8032*%
%ADD90C,0.8382*%
%ADD91C,1.4732*%
%ADD106O,0.8032X2.0032*%
%ADD107R,0.8032X2.0032*%
%ADD108C,3.8100*%
D56*
X719520Y267970D02*
D03*
X680020D02*
D03*
X573873D02*
D03*
X613373D02*
D03*
X361153D02*
D03*
X400653D02*
D03*
X467813D02*
D03*
X507313D02*
D03*
D60*
X1087120Y506380D02*
D03*
Y489880D02*
D03*
X1068070Y506380D02*
D03*
Y489880D02*
D03*
X1049020Y506380D02*
D03*
Y489880D02*
D03*
X1132840Y489590D02*
D03*
Y506090D02*
D03*
X1148080Y489590D02*
D03*
Y506090D02*
D03*
D66*
X709290Y240030D02*
D03*
X692790D02*
D03*
X586740D02*
D03*
X603240D02*
D03*
X374020D02*
D03*
X390520D02*
D03*
X479430D02*
D03*
X495930D02*
D03*
D83*
X397510Y533830D02*
D03*
X163830Y678180D02*
D03*
X189230D02*
D03*
X214630D02*
D03*
X240030D02*
D03*
X919480Y840740D02*
D03*
X944880D02*
D03*
X970280D02*
D03*
X1047750D02*
D03*
X1073150D02*
D03*
X1098550D02*
D03*
D84*
X372110Y533830D02*
D03*
X138430Y678180D02*
D03*
X894080Y840740D02*
D03*
X1022350D02*
D03*
D85*
X569590Y198120D02*
D03*
X167707Y52480D02*
D03*
X155410Y191360D02*
D03*
X232410D02*
D03*
X308410Y616360D02*
D03*
X80410D02*
D03*
X816610Y50800D02*
D03*
X676910Y313120D02*
D03*
X723910D02*
D03*
X676910Y128120D02*
D03*
Y198120D02*
D03*
X569590Y128120D02*
D03*
X616590Y313120D02*
D03*
X569590D02*
D03*
X357373Y198120D02*
D03*
Y128120D02*
D03*
X404373Y313120D02*
D03*
X357373D02*
D03*
X357293Y50800D02*
D03*
X463550D02*
D03*
X676910D02*
D03*
X570230D02*
D03*
X462783Y198120D02*
D03*
Y128120D02*
D03*
X509783Y313120D02*
D03*
X462783D02*
D03*
D86*
X1173480Y379730D02*
D03*
Y368730D02*
D03*
D87*
X218507Y52480D02*
D03*
X867410Y50800D02*
D03*
X408093D02*
D03*
X514350D02*
D03*
X727710D02*
D03*
X621030D02*
D03*
D88*
X1087120Y74120D02*
D03*
X1000720D02*
D03*
D89*
X1087120Y32320D02*
D03*
X1000720D02*
D03*
D90*
X1123950Y657860D02*
D03*
X1142746D02*
D03*
X1161542D02*
D03*
X1180338D02*
D03*
X1199134D02*
D03*
X1217930Y657860D02*
D03*
Y623147D02*
D03*
Y605790D02*
D03*
X1199134D02*
D03*
X1180338D02*
D03*
X1161542D02*
D03*
X1142746D02*
D03*
X1123950D02*
D03*
Y623147D02*
D03*
X1217930Y640503D02*
D03*
X441960Y858520D02*
D03*
Y835660D02*
D03*
X466090Y529590D02*
D03*
X508000Y715010D02*
D03*
Y727710D02*
D03*
Y689610D02*
D03*
Y702310D02*
D03*
X528320Y520700D02*
D03*
X611464Y457159D02*
D03*
X635000Y456565D02*
D03*
X622935D02*
D03*
X762000Y450850D02*
D03*
Y419100D02*
D03*
X825500D02*
D03*
X793750D02*
D03*
X768350Y777240D02*
D03*
Y764540D02*
D03*
Y751840D02*
D03*
Y740410D02*
D03*
X412750Y802640D02*
D03*
X521970Y778510D02*
D03*
X412750Y864870D02*
D03*
X835660Y777240D02*
D03*
X1000760Y566420D02*
D03*
X1035050Y595630D02*
D03*
X115570Y308229D02*
D03*
Y332063D02*
D03*
Y355896D02*
D03*
Y379730D02*
D03*
X138430Y308229D02*
D03*
Y332063D02*
D03*
Y355896D02*
D03*
Y379730D02*
D03*
X92710D02*
D03*
Y355896D02*
D03*
Y332063D02*
D03*
Y308229D02*
D03*
X290830Y305689D02*
D03*
Y329523D02*
D03*
Y353356D02*
D03*
Y377190D02*
D03*
X313690Y305689D02*
D03*
Y329523D02*
D03*
Y353356D02*
D03*
Y377190D02*
D03*
X267970D02*
D03*
Y353356D02*
D03*
Y329523D02*
D03*
Y305689D02*
D03*
X115570Y403479D02*
D03*
Y427313D02*
D03*
Y451146D02*
D03*
Y474980D02*
D03*
X138430Y403479D02*
D03*
Y427313D02*
D03*
Y451146D02*
D03*
Y474980D02*
D03*
X92710D02*
D03*
Y451146D02*
D03*
Y427313D02*
D03*
Y403479D02*
D03*
X290830Y400939D02*
D03*
Y424773D02*
D03*
Y448606D02*
D03*
Y472440D02*
D03*
X313690Y400939D02*
D03*
Y424773D02*
D03*
Y448606D02*
D03*
Y472440D02*
D03*
X267970D02*
D03*
Y448606D02*
D03*
Y424773D02*
D03*
Y400939D02*
D03*
X48260Y768731D02*
D03*
Y744897D02*
D03*
Y721064D02*
D03*
Y697230D02*
D03*
X25400Y768731D02*
D03*
Y744897D02*
D03*
Y721064D02*
D03*
Y697230D02*
D03*
X71120D02*
D03*
Y721064D02*
D03*
Y744897D02*
D03*
Y768731D02*
D03*
X73660Y175641D02*
D03*
Y151807D02*
D03*
Y127974D02*
D03*
Y104140D02*
D03*
X50800Y175641D02*
D03*
Y151807D02*
D03*
Y127974D02*
D03*
Y104140D02*
D03*
X96520D02*
D03*
Y127974D02*
D03*
Y151807D02*
D03*
Y175641D02*
D03*
X288290Y110871D02*
D03*
Y87037D02*
D03*
Y63204D02*
D03*
Y39370D02*
D03*
X265430Y110871D02*
D03*
Y87037D02*
D03*
Y63204D02*
D03*
Y39370D02*
D03*
X311150D02*
D03*
Y63204D02*
D03*
Y87037D02*
D03*
Y110871D02*
D03*
X960120Y97875D02*
D03*
Y74041D02*
D03*
Y50207D02*
D03*
Y26374D02*
D03*
X914400D02*
D03*
Y50207D02*
D03*
Y74041D02*
D03*
Y97875D02*
D03*
X937260Y26374D02*
D03*
Y50207D02*
D03*
Y74041D02*
D03*
Y97875D02*
D03*
X793750Y450850D02*
D03*
X825500D02*
D03*
X759164Y858520D02*
D03*
X782997D02*
D03*
X806831D02*
D03*
X830665D02*
D03*
X759164Y835660D02*
D03*
X782997D02*
D03*
X806831D02*
D03*
X830665D02*
D03*
X167344Y535940D02*
D03*
X191177D02*
D03*
X215011D02*
D03*
X238845D02*
D03*
X167344Y513080D02*
D03*
X191177D02*
D03*
X215011D02*
D03*
X238845D02*
D03*
X250571Y836930D02*
D03*
X226737D02*
D03*
X202904D02*
D03*
X179070D02*
D03*
X250571Y859790D02*
D03*
X226737D02*
D03*
X202904D02*
D03*
X179070D02*
D03*
X24130Y604520D02*
D03*
Y580686D02*
D03*
Y556852D02*
D03*
Y485352D02*
D03*
Y509185D02*
D03*
Y533019D02*
D03*
Y413851D02*
D03*
Y437684D02*
D03*
Y461518D02*
D03*
Y366183D02*
D03*
Y390017D02*
D03*
Y342350D02*
D03*
Y318516D02*
D03*
Y294682D02*
D03*
Y223181D02*
D03*
Y247015D02*
D03*
Y270849D02*
D03*
X25817Y151638D02*
D03*
X24130Y175514D02*
D03*
Y199348D02*
D03*
X25956Y103759D02*
D03*
X25817Y127635D02*
D03*
X1208187Y115062D02*
D03*
X1208326Y91186D02*
D03*
X1208048Y186817D02*
D03*
X1208187Y162941D02*
D03*
Y139065D02*
D03*
X1207909Y258572D02*
D03*
X1208048Y234696D02*
D03*
Y210820D02*
D03*
X1207909Y282575D02*
D03*
Y306451D02*
D03*
X1207770Y330327D02*
D03*
X1113155Y128131D02*
D03*
X1125220Y128270D02*
D03*
X1137285Y128131D02*
D03*
X1184910Y695960D02*
D03*
Y715010D02*
D03*
Y734060D02*
D03*
X1084580Y365760D02*
D03*
X1072515Y365899D02*
D03*
X1186319Y391795D02*
D03*
X939800Y261620D02*
D03*
X996950Y223520D02*
D03*
Y302260D02*
D03*
X1032510Y242570D02*
D03*
X852170Y557530D02*
D03*
X1073150Y350520D02*
D03*
X1148080Y365760D02*
D03*
D91*
X854710Y340360D02*
D03*
X1121410Y146050D02*
D03*
X1017270Y537210D02*
D03*
X647700Y341630D02*
D03*
X541020D02*
D03*
X435610D02*
D03*
D106*
X1093470Y406030D02*
D03*
X1080770D02*
D03*
X1068070D02*
D03*
X1055370D02*
D03*
X1093470Y460030D02*
D03*
X1080770D02*
D03*
X1068070D02*
D03*
X1135380D02*
D03*
X1148080D02*
D03*
X1160780D02*
D03*
X1173480D02*
D03*
X1135380Y406030D02*
D03*
X1148080D02*
D03*
X1160780D02*
D03*
D107*
X1055370Y460030D02*
D03*
X1173480Y406030D02*
D03*
D108*
X357333Y50840D02*
Y128080D01*
X676910Y198120D02*
X727710Y147320D01*
Y50800D02*
Y147320D01*
X676910Y50800D02*
Y128120D01*
X621030Y50800D02*
Y146680D01*
X569590Y198120D02*
X621030Y146680D01*
X569910Y51120D02*
Y127800D01*
X462783Y198120D02*
X514350Y146553D01*
Y50800D02*
Y146553D01*
X463167Y51184D02*
Y127737D01*
X408093Y50800D02*
Y147400D01*
X357373Y198120D02*
X408093Y147400D01*
M02*
