G04*
G04 #@! TF.GenerationSoftware,Altium Limited,Altium Designer,21.3.2 (30)*
G04*
G04 Layer_Physical_Order=2*
G04 Layer_Color=16711680*
%FSLAX44Y44*%
%MOMM*%
G71*
G04*
G04 #@! TF.SameCoordinates,8E102A86-DBDF-4379-BD88-F244A9775125*
G04*
G04*
G04 #@! TF.FilePolarity,Positive*
G04*
G01*
G75*
%ADD10C,0.2540*%
%ADD17C,0.5080*%
%ADD24R,1.7000X1.5000*%
%ADD28R,0.9500X0.8000*%
%ADD34R,1.2500X1.4000*%
%ADD92C,1.2700*%
%ADD93C,0.6350*%
%ADD94C,0.3810*%
%ADD95C,1.2000*%
%ADD96R,1.2000X1.2000*%
%ADD97C,1.5240*%
%ADD98C,0.8000*%
%ADD99R,1.5240X1.5240*%
%ADD100O,1.0000X2.1000*%
%ADD101O,1.0000X1.6000*%
%ADD102C,0.6350*%
%ADD103C,1.2700*%
%ADD104O,0.6000X1.8000*%
%ADD105R,0.6000X1.8000*%
G36*
X1226515Y3865D02*
X3865D01*
Y877265D01*
X543560D01*
Y816610D01*
X744220D01*
Y877265D01*
X1226515D01*
Y3865D01*
D02*
G37*
%LPC*%
G36*
X1192030Y872653D02*
X1188097D01*
X1187930Y872620D01*
X1187759Y872631D01*
X1183860Y872118D01*
X1183698Y872063D01*
X1183528Y872052D01*
X1179729Y871034D01*
X1179576Y870958D01*
X1179409Y870925D01*
X1175775Y869420D01*
X1175633Y869325D01*
X1175471Y869270D01*
X1172066Y867304D01*
X1171937Y867191D01*
X1171784Y867116D01*
X1168664Y864722D01*
X1168551Y864593D01*
X1168409Y864498D01*
X1165629Y861718D01*
X1165534Y861575D01*
X1165405Y861463D01*
X1163011Y858343D01*
X1162936Y858190D01*
X1162823Y858061D01*
X1160857Y854656D01*
X1160802Y854494D01*
X1160707Y854352D01*
X1159202Y850718D01*
X1159169Y850551D01*
X1159093Y850398D01*
X1158075Y846599D01*
X1158064Y846429D01*
X1158009Y846267D01*
X1157496Y842368D01*
X1157507Y842197D01*
X1157474Y842030D01*
Y838097D01*
X1157507Y837930D01*
X1157496Y837759D01*
X1158009Y833860D01*
X1158064Y833698D01*
X1158075Y833528D01*
X1159093Y829729D01*
X1159169Y829576D01*
X1159202Y829409D01*
X1160707Y825775D01*
X1160802Y825633D01*
X1160857Y825471D01*
X1162823Y822066D01*
X1162936Y821937D01*
X1163011Y821784D01*
X1165405Y818664D01*
X1165534Y818551D01*
X1165629Y818409D01*
X1168409Y815629D01*
X1168551Y815534D01*
X1168664Y815405D01*
X1171784Y813011D01*
X1171937Y812936D01*
X1172066Y812823D01*
X1175471Y810857D01*
X1175633Y810802D01*
X1175775Y810707D01*
X1179409Y809202D01*
X1179576Y809169D01*
X1179729Y809093D01*
X1183528Y808075D01*
X1183698Y808064D01*
X1183860Y808009D01*
X1187759Y807496D01*
X1187930Y807507D01*
X1188097Y807474D01*
X1192030D01*
X1192197Y807507D01*
X1192368Y807496D01*
X1196267Y808009D01*
X1196429Y808064D01*
X1196599Y808075D01*
X1200398Y809093D01*
X1200551Y809169D01*
X1200718Y809202D01*
X1204352Y810707D01*
X1204494Y810802D01*
X1204656Y810857D01*
X1208061Y812823D01*
X1208190Y812936D01*
X1208343Y813011D01*
X1211463Y815405D01*
X1211575Y815534D01*
X1211718Y815629D01*
X1214498Y818409D01*
X1214593Y818551D01*
X1214722Y818664D01*
X1217116Y821784D01*
X1217191Y821937D01*
X1217304Y822066D01*
X1219270Y825471D01*
X1219325Y825633D01*
X1219420Y825775D01*
X1220925Y829409D01*
X1220958Y829576D01*
X1221034Y829729D01*
X1222052Y833528D01*
X1222063Y833698D01*
X1222118Y833860D01*
X1222631Y837759D01*
X1222620Y837930D01*
X1222653Y838097D01*
Y842030D01*
X1222620Y842197D01*
X1222631Y842368D01*
X1222118Y846267D01*
X1222063Y846429D01*
X1222052Y846599D01*
X1221034Y850398D01*
X1220958Y850551D01*
X1220925Y850718D01*
X1219420Y854352D01*
X1219325Y854494D01*
X1219270Y854656D01*
X1217304Y858061D01*
X1217191Y858190D01*
X1217116Y858343D01*
X1214722Y861463D01*
X1214593Y861575D01*
X1214498Y861718D01*
X1211718Y864498D01*
X1211575Y864593D01*
X1211463Y864722D01*
X1208343Y867116D01*
X1208190Y867191D01*
X1208061Y867304D01*
X1204656Y869270D01*
X1204494Y869325D01*
X1204352Y869420D01*
X1200718Y870925D01*
X1200551Y870958D01*
X1200398Y871034D01*
X1196599Y872052D01*
X1196429Y872063D01*
X1196267Y872118D01*
X1192368Y872631D01*
X1192197Y872620D01*
X1192030Y872653D01*
D02*
G37*
G36*
X42030D02*
X38097D01*
X37930Y872620D01*
X37759Y872631D01*
X33860Y872118D01*
X33698Y872063D01*
X33528Y872052D01*
X29729Y871034D01*
X29576Y870958D01*
X29409Y870925D01*
X25775Y869420D01*
X25633Y869325D01*
X25471Y869270D01*
X22066Y867304D01*
X21937Y867191D01*
X21784Y867116D01*
X18664Y864722D01*
X18551Y864593D01*
X18409Y864498D01*
X15629Y861718D01*
X15534Y861575D01*
X15405Y861463D01*
X13011Y858343D01*
X12936Y858190D01*
X12823Y858061D01*
X10857Y854656D01*
X10802Y854494D01*
X10707Y854352D01*
X9202Y850718D01*
X9169Y850551D01*
X9093Y850398D01*
X8075Y846599D01*
X8064Y846429D01*
X8009Y846267D01*
X7496Y842368D01*
X7507Y842197D01*
X7474Y842030D01*
Y838097D01*
X7507Y837930D01*
X7496Y837759D01*
X8009Y833860D01*
X8064Y833698D01*
X8075Y833528D01*
X9093Y829729D01*
X9169Y829576D01*
X9202Y829409D01*
X10707Y825775D01*
X10802Y825633D01*
X10857Y825471D01*
X12823Y822066D01*
X12936Y821937D01*
X13011Y821784D01*
X15405Y818664D01*
X15534Y818551D01*
X15629Y818409D01*
X18409Y815629D01*
X18551Y815534D01*
X18664Y815405D01*
X21784Y813011D01*
X21937Y812936D01*
X22066Y812823D01*
X25471Y810857D01*
X25633Y810802D01*
X25775Y810707D01*
X29409Y809202D01*
X29576Y809169D01*
X29729Y809093D01*
X33528Y808075D01*
X33698Y808064D01*
X33860Y808009D01*
X37759Y807496D01*
X37930Y807507D01*
X38097Y807474D01*
X42030D01*
X42197Y807507D01*
X42368Y807496D01*
X46267Y808009D01*
X46429Y808064D01*
X46599Y808075D01*
X50398Y809093D01*
X50551Y809169D01*
X50718Y809202D01*
X54352Y810707D01*
X54494Y810802D01*
X54655Y810857D01*
X58061Y812823D01*
X58190Y812936D01*
X58343Y813011D01*
X61463Y815405D01*
X61575Y815534D01*
X61718Y815629D01*
X64498Y818409D01*
X64593Y818551D01*
X64722Y818664D01*
X67116Y821784D01*
X67191Y821937D01*
X67304Y822066D01*
X69270Y825471D01*
X69325Y825633D01*
X69420Y825775D01*
X70925Y829409D01*
X70958Y829576D01*
X71034Y829729D01*
X72052Y833528D01*
X72063Y833698D01*
X72118Y833860D01*
X72631Y837759D01*
X72620Y837930D01*
X72653Y838097D01*
Y842030D01*
X72620Y842197D01*
X72631Y842368D01*
X72118Y846267D01*
X72063Y846429D01*
X72052Y846599D01*
X71034Y850398D01*
X70958Y850551D01*
X70925Y850718D01*
X69420Y854352D01*
X69325Y854494D01*
X69270Y854656D01*
X67304Y858061D01*
X67191Y858190D01*
X67116Y858343D01*
X64722Y861463D01*
X64593Y861575D01*
X64498Y861718D01*
X61718Y864498D01*
X61575Y864593D01*
X61463Y864722D01*
X58343Y867116D01*
X58190Y867191D01*
X58061Y867304D01*
X54655Y869270D01*
X54494Y869325D01*
X54352Y869420D01*
X50718Y870925D01*
X50551Y870958D01*
X50398Y871034D01*
X46599Y872052D01*
X46429Y872063D01*
X46267Y872118D01*
X42368Y872631D01*
X42197Y872620D01*
X42030Y872653D01*
D02*
G37*
G36*
X831935Y864180D02*
Y859790D01*
X836324D01*
X835510Y861757D01*
X833902Y863365D01*
X831935Y864180D01*
D02*
G37*
G36*
X829395D02*
X827427Y863365D01*
X825820Y861757D01*
X825005Y859790D01*
X829395D01*
Y864180D01*
D02*
G37*
G36*
X808101D02*
Y859790D01*
X812491D01*
X811676Y861757D01*
X810068Y863365D01*
X808101Y864180D01*
D02*
G37*
G36*
X805561D02*
X803594Y863365D01*
X801986Y861757D01*
X801171Y859790D01*
X805561D01*
Y864180D01*
D02*
G37*
G36*
X784267D02*
Y859790D01*
X788657D01*
X787842Y861757D01*
X786235Y863365D01*
X784267Y864180D01*
D02*
G37*
G36*
X781727D02*
X779760Y863365D01*
X778152Y861757D01*
X777337Y859790D01*
X781727D01*
Y864180D01*
D02*
G37*
G36*
X760434D02*
Y859790D01*
X764824D01*
X764009Y861757D01*
X762401Y863365D01*
X760434Y864180D01*
D02*
G37*
G36*
X757894D02*
X755926Y863365D01*
X754319Y861757D01*
X753504Y859790D01*
X757894D01*
Y864180D01*
D02*
G37*
G36*
X443230D02*
Y859790D01*
X447620D01*
X446805Y861757D01*
X445197Y863365D01*
X443230Y864180D01*
D02*
G37*
G36*
X440690D02*
X438723Y863365D01*
X437115Y861757D01*
X436300Y859790D01*
X440690D01*
Y864180D01*
D02*
G37*
G36*
X251708Y865505D02*
X249434D01*
X247334Y864635D01*
X245726Y863027D01*
X244856Y860927D01*
Y858653D01*
X245726Y856553D01*
X247334Y854945D01*
X249434Y854075D01*
X251708D01*
X253808Y854945D01*
X255416Y856553D01*
X256286Y858653D01*
Y860927D01*
X255416Y863027D01*
X253808Y864635D01*
X251708Y865505D01*
D02*
G37*
G36*
X227874D02*
X225600D01*
X223500Y864635D01*
X221892Y863027D01*
X221022Y860927D01*
Y858653D01*
X221892Y856553D01*
X223500Y854945D01*
X225600Y854075D01*
X227874D01*
X229975Y854945D01*
X231582Y856553D01*
X232452Y858653D01*
Y860927D01*
X231582Y863027D01*
X229975Y864635D01*
X227874Y865505D01*
D02*
G37*
G36*
X204040D02*
X201767D01*
X199666Y864635D01*
X198059Y863027D01*
X197189Y860927D01*
Y858653D01*
X198059Y856553D01*
X199666Y854945D01*
X201767Y854075D01*
X204040D01*
X206141Y854945D01*
X207749Y856553D01*
X208619Y858653D01*
Y860927D01*
X207749Y863027D01*
X206141Y864635D01*
X204040Y865505D01*
D02*
G37*
G36*
X180207D02*
X177933D01*
X175833Y864635D01*
X174225Y863027D01*
X173355Y860927D01*
Y858653D01*
X174225Y856553D01*
X175833Y854945D01*
X177933Y854075D01*
X180207D01*
X182307Y854945D01*
X183915Y856553D01*
X184785Y858653D01*
Y860927D01*
X183915Y863027D01*
X182307Y864635D01*
X180207Y865505D01*
D02*
G37*
G36*
X836324Y857250D02*
X831935D01*
Y852860D01*
X833902Y853675D01*
X835510Y855283D01*
X836324Y857250D01*
D02*
G37*
G36*
X829395D02*
X825005D01*
X825820Y855283D01*
X827427Y853675D01*
X829395Y852860D01*
Y857250D01*
D02*
G37*
G36*
X812491D02*
X808101D01*
Y852860D01*
X810068Y853675D01*
X811676Y855283D01*
X812491Y857250D01*
D02*
G37*
G36*
X805561D02*
X801171D01*
X801986Y855283D01*
X803594Y853675D01*
X805561Y852860D01*
Y857250D01*
D02*
G37*
G36*
X788657D02*
X784267D01*
Y852860D01*
X786235Y853675D01*
X787842Y855283D01*
X788657Y857250D01*
D02*
G37*
G36*
X781727D02*
X777337D01*
X778152Y855283D01*
X779760Y853675D01*
X781727Y852860D01*
Y857250D01*
D02*
G37*
G36*
X764824D02*
X760434D01*
Y852860D01*
X762401Y853675D01*
X764009Y855283D01*
X764824Y857250D01*
D02*
G37*
G36*
X757894D02*
X753504D01*
X754319Y855283D01*
X755926Y853675D01*
X757894Y852860D01*
Y857250D01*
D02*
G37*
G36*
X447620D02*
X443230D01*
Y852860D01*
X445197Y853675D01*
X446805Y855283D01*
X447620Y857250D01*
D02*
G37*
G36*
X440690D02*
X436300D01*
X437115Y855283D01*
X438723Y853675D01*
X440690Y852860D01*
Y857250D01*
D02*
G37*
G36*
X1099820Y849241D02*
Y842010D01*
X1107051D01*
X1106508Y844036D01*
X1105384Y845984D01*
X1103794Y847574D01*
X1101846Y848698D01*
X1099820Y849241D01*
D02*
G37*
G36*
X1097280D02*
X1095254Y848698D01*
X1093306Y847574D01*
X1091716Y845984D01*
X1090592Y844036D01*
X1090049Y842010D01*
X1097280D01*
Y849241D01*
D02*
G37*
G36*
X971550D02*
Y842010D01*
X978781D01*
X978238Y844036D01*
X977114Y845984D01*
X975524Y847574D01*
X973576Y848698D01*
X971550Y849241D01*
D02*
G37*
G36*
X969010D02*
X966984Y848698D01*
X965036Y847574D01*
X963446Y845984D01*
X962322Y844036D01*
X961779Y842010D01*
X969010D01*
Y849241D01*
D02*
G37*
G36*
X831935Y841320D02*
Y836930D01*
X836324D01*
X835510Y838897D01*
X833902Y840505D01*
X831935Y841320D01*
D02*
G37*
G36*
X829395D02*
X827427Y840505D01*
X825820Y838897D01*
X825005Y836930D01*
X829395D01*
Y841320D01*
D02*
G37*
G36*
X808101D02*
Y836930D01*
X812491D01*
X811676Y838897D01*
X810068Y840505D01*
X808101Y841320D01*
D02*
G37*
G36*
X805561D02*
X803594Y840505D01*
X801986Y838897D01*
X801171Y836930D01*
X805561D01*
Y841320D01*
D02*
G37*
G36*
X784267D02*
Y836930D01*
X788657D01*
X787842Y838897D01*
X786235Y840505D01*
X784267Y841320D01*
D02*
G37*
G36*
X781727D02*
X779760Y840505D01*
X778152Y838897D01*
X777337Y836930D01*
X781727D01*
Y841320D01*
D02*
G37*
G36*
X760434D02*
Y836930D01*
X764824D01*
X764009Y838897D01*
X762401Y840505D01*
X760434Y841320D01*
D02*
G37*
G36*
X757894D02*
X755926Y840505D01*
X754319Y838897D01*
X753504Y836930D01*
X757894D01*
Y841320D01*
D02*
G37*
G36*
X443230D02*
Y836930D01*
X447620D01*
X446805Y838897D01*
X445197Y840505D01*
X443230Y841320D01*
D02*
G37*
G36*
X440690D02*
X438723Y840505D01*
X437115Y838897D01*
X436300Y836930D01*
X440690D01*
Y841320D01*
D02*
G37*
G36*
X1107051Y839470D02*
X1099820D01*
Y832239D01*
X1101846Y832782D01*
X1103794Y833906D01*
X1105384Y835496D01*
X1106508Y837444D01*
X1107051Y839470D01*
D02*
G37*
G36*
X1097280D02*
X1090049D01*
X1090592Y837444D01*
X1091716Y835496D01*
X1093306Y833906D01*
X1095254Y832782D01*
X1097280Y832239D01*
Y839470D01*
D02*
G37*
G36*
X978781D02*
X971550D01*
Y832239D01*
X973576Y832782D01*
X975524Y833906D01*
X977114Y835496D01*
X978238Y837444D01*
X978781Y839470D01*
D02*
G37*
G36*
X969010D02*
X961779D01*
X962322Y837444D01*
X963446Y835496D01*
X965036Y833906D01*
X966984Y832782D01*
X969010Y832239D01*
Y839470D01*
D02*
G37*
G36*
X1074274Y849280D02*
X1072026D01*
X1069854Y848698D01*
X1067906Y847574D01*
X1066316Y845984D01*
X1065192Y844036D01*
X1064610Y841864D01*
Y839616D01*
X1065192Y837444D01*
X1066316Y835496D01*
X1067906Y833906D01*
X1069854Y832782D01*
X1072026Y832200D01*
X1074274D01*
X1076446Y832782D01*
X1078394Y833906D01*
X1079984Y835496D01*
X1081108Y837444D01*
X1081690Y839616D01*
Y841864D01*
X1081108Y844036D01*
X1079984Y845984D01*
X1078394Y847574D01*
X1076446Y848698D01*
X1074274Y849280D01*
D02*
G37*
G36*
X251708Y842645D02*
X249434D01*
X247334Y841775D01*
X245726Y840167D01*
X244856Y838067D01*
Y835793D01*
X245726Y833693D01*
X247334Y832085D01*
X249434Y831215D01*
X251708D01*
X253808Y832085D01*
X255416Y833693D01*
X256286Y835793D01*
Y838067D01*
X255416Y840167D01*
X253808Y841775D01*
X251708Y842645D01*
D02*
G37*
G36*
X227874D02*
X225600D01*
X223500Y841775D01*
X221892Y840167D01*
X221022Y838067D01*
Y835793D01*
X221892Y833693D01*
X223500Y832085D01*
X225600Y831215D01*
X227874D01*
X229975Y832085D01*
X231582Y833693D01*
X232452Y835793D01*
Y838067D01*
X231582Y840167D01*
X229975Y841775D01*
X227874Y842645D01*
D02*
G37*
G36*
X204040D02*
X201767D01*
X199666Y841775D01*
X198059Y840167D01*
X197189Y838067D01*
Y835793D01*
X198059Y833693D01*
X199666Y832085D01*
X201767Y831215D01*
X204040D01*
X206141Y832085D01*
X207749Y833693D01*
X208619Y835793D01*
Y838067D01*
X207749Y840167D01*
X206141Y841775D01*
X204040Y842645D01*
D02*
G37*
G36*
X180207D02*
X177933D01*
X175833Y841775D01*
X174225Y840167D01*
X173355Y838067D01*
Y835793D01*
X174225Y833693D01*
X175833Y832085D01*
X177933Y831215D01*
X180207D01*
X182307Y832085D01*
X183915Y833693D01*
X184785Y835793D01*
Y838067D01*
X183915Y840167D01*
X182307Y841775D01*
X180207Y842645D01*
D02*
G37*
G36*
X836324Y834390D02*
X831935D01*
Y830000D01*
X833902Y830815D01*
X835510Y832423D01*
X836324Y834390D01*
D02*
G37*
G36*
X829395D02*
X825005D01*
X825820Y832423D01*
X827427Y830815D01*
X829395Y830000D01*
Y834390D01*
D02*
G37*
G36*
X812491D02*
X808101D01*
Y830000D01*
X810068Y830815D01*
X811676Y832423D01*
X812491Y834390D01*
D02*
G37*
G36*
X805561D02*
X801171D01*
X801986Y832423D01*
X803594Y830815D01*
X805561Y830000D01*
Y834390D01*
D02*
G37*
G36*
X788657D02*
X784267D01*
Y830000D01*
X786235Y830815D01*
X787842Y832423D01*
X788657Y834390D01*
D02*
G37*
G36*
X781727D02*
X777337D01*
X778152Y832423D01*
X779760Y830815D01*
X781727Y830000D01*
Y834390D01*
D02*
G37*
G36*
X764824D02*
X760434D01*
Y830000D01*
X762401Y830815D01*
X764009Y832423D01*
X764824Y834390D01*
D02*
G37*
G36*
X757894D02*
X753504D01*
X754319Y832423D01*
X755926Y830815D01*
X757894Y830000D01*
Y834390D01*
D02*
G37*
G36*
X447620D02*
X443230D01*
Y830000D01*
X445197Y830815D01*
X446805Y832423D01*
X447620Y834390D01*
D02*
G37*
G36*
X440690D02*
X436300D01*
X437115Y832423D01*
X438723Y830815D01*
X440690Y830000D01*
Y834390D01*
D02*
G37*
G36*
X902620Y849280D02*
X885540D01*
Y832200D01*
X890195D01*
Y791549D01*
X879771Y781125D01*
X839858D01*
X838897Y782085D01*
X836797Y782955D01*
X834523D01*
X832423Y782085D01*
X830815Y780477D01*
X829945Y778377D01*
Y776103D01*
X830815Y774003D01*
X832423Y772395D01*
X834523Y771525D01*
X836797D01*
X838897Y772395D01*
X839858Y773355D01*
X881380D01*
X882867Y773651D01*
X884127Y774493D01*
X896827Y787193D01*
X897669Y788453D01*
X897965Y789940D01*
Y832200D01*
X902620D01*
Y849280D01*
D02*
G37*
G36*
X72390Y774391D02*
Y770001D01*
X76780D01*
X75965Y771968D01*
X74357Y773576D01*
X72390Y774391D01*
D02*
G37*
G36*
X69850D02*
X67883Y773576D01*
X66275Y771968D01*
X65460Y770001D01*
X69850D01*
Y774391D01*
D02*
G37*
G36*
X49530D02*
Y770001D01*
X53920D01*
X53105Y771968D01*
X51497Y773576D01*
X49530Y774391D01*
D02*
G37*
G36*
X46990D02*
X45023Y773576D01*
X43415Y771968D01*
X42600Y770001D01*
X46990D01*
Y774391D01*
D02*
G37*
G36*
X26670D02*
Y770001D01*
X31060D01*
X30245Y771968D01*
X28637Y773576D01*
X26670Y774391D01*
D02*
G37*
G36*
X24130D02*
X22163Y773576D01*
X20555Y771968D01*
X19740Y770001D01*
X24130D01*
Y774391D01*
D02*
G37*
G36*
X920604Y849280D02*
X918356D01*
X916184Y848698D01*
X914236Y847574D01*
X912646Y845984D01*
X911522Y844036D01*
X910940Y841864D01*
Y839616D01*
X911522Y837444D01*
X912646Y835496D01*
X914236Y833906D01*
X915595Y833122D01*
Y783929D01*
X900091Y768425D01*
X772548D01*
X771587Y769385D01*
X769487Y770255D01*
X767213D01*
X765113Y769385D01*
X764152Y768425D01*
X754380D01*
X752893Y768129D01*
X751633Y767287D01*
X738933Y754587D01*
X738091Y753327D01*
X737795Y751840D01*
Y715010D01*
X738091Y713523D01*
X738933Y712263D01*
X852095Y599101D01*
Y586740D01*
X852391Y585253D01*
X853233Y583993D01*
X972745Y464481D01*
Y229870D01*
X973041Y228383D01*
X973883Y227123D01*
X980233Y220773D01*
X981493Y219931D01*
X982980Y219635D01*
X992752D01*
X993713Y218675D01*
X995813Y217805D01*
X998087D01*
X1000187Y218675D01*
X1001795Y220283D01*
X1002665Y222383D01*
Y224657D01*
X1001795Y226757D01*
X1000187Y228365D01*
X998087Y229235D01*
X995813D01*
X993713Y228365D01*
X992752Y227405D01*
X984589D01*
X980515Y231479D01*
Y466090D01*
X980219Y467577D01*
X979377Y468837D01*
X859865Y588349D01*
Y600710D01*
X859569Y602197D01*
X858727Y603457D01*
X745565Y716619D01*
Y750231D01*
X755989Y760655D01*
X764152D01*
X765113Y759695D01*
X767213Y758825D01*
X769487D01*
X771587Y759695D01*
X772548Y760655D01*
X901700D01*
X903187Y760951D01*
X904447Y761793D01*
X922227Y779573D01*
X923069Y780833D01*
X923365Y782320D01*
Y833122D01*
X924724Y833906D01*
X926314Y835496D01*
X927438Y837444D01*
X928020Y839616D01*
Y841864D01*
X927438Y844036D01*
X926314Y845984D01*
X924724Y847574D01*
X922776Y848698D01*
X920604Y849280D01*
D02*
G37*
G36*
X76780Y767461D02*
X72390D01*
Y763071D01*
X74357Y763886D01*
X75965Y765494D01*
X76780Y767461D01*
D02*
G37*
G36*
X69850D02*
X65460D01*
X66275Y765494D01*
X67883Y763886D01*
X69850Y763071D01*
Y767461D01*
D02*
G37*
G36*
X53920D02*
X49530D01*
Y763071D01*
X51497Y763886D01*
X53105Y765494D01*
X53920Y767461D01*
D02*
G37*
G36*
X46990D02*
X42600D01*
X43415Y765494D01*
X45023Y763886D01*
X46990Y763071D01*
Y767461D01*
D02*
G37*
G36*
X31060D02*
X26670D01*
Y763071D01*
X28637Y763886D01*
X30245Y765494D01*
X31060Y767461D01*
D02*
G37*
G36*
X24130D02*
X19740D01*
X20555Y765494D01*
X22163Y763886D01*
X24130Y763071D01*
Y767461D01*
D02*
G37*
G36*
X72390Y750557D02*
Y746167D01*
X76780D01*
X75965Y748135D01*
X74357Y749742D01*
X72390Y750557D01*
D02*
G37*
G36*
X69850D02*
X67883Y749742D01*
X66275Y748135D01*
X65460Y746167D01*
X69850D01*
Y750557D01*
D02*
G37*
G36*
X49530D02*
Y746167D01*
X53920D01*
X53105Y748135D01*
X51497Y749742D01*
X49530Y750557D01*
D02*
G37*
G36*
X46990D02*
X45023Y749742D01*
X43415Y748135D01*
X42600Y746167D01*
X46990D01*
Y750557D01*
D02*
G37*
G36*
X26670D02*
Y746167D01*
X31060D01*
X30245Y748135D01*
X28637Y749742D01*
X26670Y750557D01*
D02*
G37*
G36*
X24130D02*
X22163Y749742D01*
X20555Y748135D01*
X19740Y746167D01*
X24130D01*
Y750557D01*
D02*
G37*
G36*
X76780Y743627D02*
X72390D01*
Y739238D01*
X74357Y740052D01*
X75965Y741660D01*
X76780Y743627D01*
D02*
G37*
G36*
X69850D02*
X65460D01*
X66275Y741660D01*
X67883Y740052D01*
X69850Y739238D01*
Y743627D01*
D02*
G37*
G36*
X53920D02*
X49530D01*
Y739238D01*
X51497Y740052D01*
X53105Y741660D01*
X53920Y743627D01*
D02*
G37*
G36*
X46990D02*
X42600D01*
X43415Y741660D01*
X45023Y740052D01*
X46990Y739238D01*
Y743627D01*
D02*
G37*
G36*
X31060D02*
X26670D01*
Y739238D01*
X28637Y740052D01*
X30245Y741660D01*
X31060Y743627D01*
D02*
G37*
G36*
X24130D02*
X19740D01*
X20555Y741660D01*
X22163Y740052D01*
X24130Y739238D01*
Y743627D01*
D02*
G37*
G36*
X1186180Y739720D02*
Y735330D01*
X1190570D01*
X1189755Y737297D01*
X1188147Y738905D01*
X1186180Y739720D01*
D02*
G37*
G36*
X1183640D02*
X1181673Y738905D01*
X1180065Y737297D01*
X1179250Y735330D01*
X1183640D01*
Y739720D01*
D02*
G37*
G36*
X1190570Y732790D02*
X1186180D01*
Y728400D01*
X1188147Y729215D01*
X1189755Y730823D01*
X1190570Y732790D01*
D02*
G37*
G36*
X1183640D02*
X1179250D01*
X1180065Y730823D01*
X1181673Y729215D01*
X1183640Y728400D01*
Y732790D01*
D02*
G37*
G36*
X72390Y726723D02*
Y722334D01*
X76780D01*
X75965Y724301D01*
X74357Y725909D01*
X72390Y726723D01*
D02*
G37*
G36*
X69850D02*
X67883Y725909D01*
X66275Y724301D01*
X65460Y722334D01*
X69850D01*
Y726723D01*
D02*
G37*
G36*
X49530D02*
Y722334D01*
X53920D01*
X53105Y724301D01*
X51497Y725909D01*
X49530Y726723D01*
D02*
G37*
G36*
X46990D02*
X45023Y725909D01*
X43415Y724301D01*
X42600Y722334D01*
X46990D01*
Y726723D01*
D02*
G37*
G36*
X26670D02*
Y722334D01*
X31060D01*
X30245Y724301D01*
X28637Y725909D01*
X26670Y726723D01*
D02*
G37*
G36*
X24130D02*
X22163Y725909D01*
X20555Y724301D01*
X19740Y722334D01*
X24130D01*
Y726723D01*
D02*
G37*
G36*
X1186180Y720670D02*
Y716280D01*
X1190570D01*
X1189755Y718247D01*
X1188147Y719855D01*
X1186180Y720670D01*
D02*
G37*
G36*
X1183640D02*
X1181673Y719855D01*
X1180065Y718247D01*
X1179250Y716280D01*
X1183640D01*
Y720670D01*
D02*
G37*
G36*
X76780Y719794D02*
X72390D01*
Y715404D01*
X74357Y716219D01*
X75965Y717826D01*
X76780Y719794D01*
D02*
G37*
G36*
X69850D02*
X65460D01*
X66275Y717826D01*
X67883Y716219D01*
X69850Y715404D01*
Y719794D01*
D02*
G37*
G36*
X53920D02*
X49530D01*
Y715404D01*
X51497Y716219D01*
X53105Y717826D01*
X53920Y719794D01*
D02*
G37*
G36*
X46990D02*
X42600D01*
X43415Y717826D01*
X45023Y716219D01*
X46990Y715404D01*
Y719794D01*
D02*
G37*
G36*
X31060D02*
X26670D01*
Y715404D01*
X28637Y716219D01*
X30245Y717826D01*
X31060Y719794D01*
D02*
G37*
G36*
X24130D02*
X19740D01*
X20555Y717826D01*
X22163Y716219D01*
X24130Y715404D01*
Y719794D01*
D02*
G37*
G36*
X1190570Y713740D02*
X1186180D01*
Y709350D01*
X1188147Y710165D01*
X1189755Y711773D01*
X1190570Y713740D01*
D02*
G37*
G36*
X1183640D02*
X1179250D01*
X1180065Y711773D01*
X1181673Y710165D01*
X1183640Y709350D01*
Y713740D01*
D02*
G37*
G36*
X509137Y733425D02*
X506863D01*
X504763Y732555D01*
X503155Y730947D01*
X502285Y728847D01*
Y727489D01*
X501311Y726515D01*
X149860D01*
X148373Y726219D01*
X147113Y725377D01*
X135683Y713947D01*
X134841Y712687D01*
X134545Y711200D01*
Y686720D01*
X129890D01*
Y669640D01*
X146970D01*
Y686720D01*
X142315D01*
Y709591D01*
X151469Y718745D01*
X170492D01*
X170613Y718586D01*
X170962Y717475D01*
X161083Y707597D01*
X160241Y706337D01*
X159945Y704850D01*
Y685798D01*
X158586Y685014D01*
X156996Y683424D01*
X155872Y681476D01*
X155290Y679304D01*
Y677056D01*
X155872Y674884D01*
X156996Y672936D01*
X158586Y671346D01*
X160534Y670222D01*
X162706Y669640D01*
X164954D01*
X167126Y670222D01*
X169074Y671346D01*
X170664Y672936D01*
X171788Y674884D01*
X172370Y677056D01*
Y679304D01*
X171788Y681476D01*
X170664Y683424D01*
X169074Y685014D01*
X167715Y685798D01*
Y703241D01*
X175599Y711125D01*
X503802D01*
X504763Y710165D01*
X506863Y709295D01*
X509137D01*
X511237Y710165D01*
X512845Y711773D01*
X513715Y713873D01*
Y716147D01*
X512845Y718247D01*
X511237Y719855D01*
X509500Y720574D01*
X509137Y721268D01*
X509137Y721995D01*
X509151Y722001D01*
X511237Y722865D01*
X512845Y724473D01*
X513715Y726573D01*
Y728847D01*
X512845Y730947D01*
X511237Y732555D01*
X509137Y733425D01*
D02*
G37*
G36*
X72390Y702890D02*
Y698500D01*
X76780D01*
X75965Y700467D01*
X74357Y702075D01*
X72390Y702890D01*
D02*
G37*
G36*
X69850D02*
X67883Y702075D01*
X66275Y700467D01*
X65460Y698500D01*
X69850D01*
Y702890D01*
D02*
G37*
G36*
X49530D02*
Y698500D01*
X53920D01*
X53105Y700467D01*
X51497Y702075D01*
X49530Y702890D01*
D02*
G37*
G36*
X46990D02*
X45023Y702075D01*
X43415Y700467D01*
X42600Y698500D01*
X46990D01*
Y702890D01*
D02*
G37*
G36*
X26670D02*
Y698500D01*
X31060D01*
X30245Y700467D01*
X28637Y702075D01*
X26670Y702890D01*
D02*
G37*
G36*
X24130D02*
X22163Y702075D01*
X20555Y700467D01*
X19740Y698500D01*
X24130D01*
Y702890D01*
D02*
G37*
G36*
X1186180Y701620D02*
Y697230D01*
X1190570D01*
X1189755Y699197D01*
X1188147Y700805D01*
X1186180Y701620D01*
D02*
G37*
G36*
X1183640D02*
X1181673Y700805D01*
X1180065Y699197D01*
X1179250Y697230D01*
X1183640D01*
Y701620D01*
D02*
G37*
G36*
X509137Y708025D02*
X506863D01*
X504763Y707155D01*
X503802Y706195D01*
X196850D01*
X195363Y705899D01*
X194103Y705057D01*
X186483Y697437D01*
X185641Y696177D01*
X185345Y694690D01*
Y685798D01*
X183986Y685014D01*
X182396Y683424D01*
X181272Y681476D01*
X180690Y679304D01*
Y677056D01*
X181272Y674884D01*
X182396Y672936D01*
X183986Y671346D01*
X185934Y670222D01*
X188106Y669640D01*
X190354D01*
X192526Y670222D01*
X194474Y671346D01*
X196064Y672936D01*
X197188Y674884D01*
X197770Y677056D01*
Y679304D01*
X197188Y681476D01*
X196064Y683424D01*
X194474Y685014D01*
X193115Y685798D01*
Y693081D01*
X198459Y698425D01*
X503802D01*
X504763Y697465D01*
X506863Y696595D01*
X509137D01*
X511237Y697465D01*
X512845Y699073D01*
X513715Y701173D01*
Y703447D01*
X512845Y705547D01*
X511237Y707155D01*
X509137Y708025D01*
D02*
G37*
G36*
X76780Y695960D02*
X72390D01*
Y691570D01*
X74357Y692385D01*
X75965Y693993D01*
X76780Y695960D01*
D02*
G37*
G36*
X69850D02*
X65460D01*
X66275Y693993D01*
X67883Y692385D01*
X69850Y691570D01*
Y695960D01*
D02*
G37*
G36*
X53920D02*
X49530D01*
Y691570D01*
X51497Y692385D01*
X53105Y693993D01*
X53920Y695960D01*
D02*
G37*
G36*
X46990D02*
X42600D01*
X43415Y693993D01*
X45023Y692385D01*
X46990Y691570D01*
Y695960D01*
D02*
G37*
G36*
X31060D02*
X26670D01*
Y691570D01*
X28637Y692385D01*
X30245Y693993D01*
X31060Y695960D01*
D02*
G37*
G36*
X24130D02*
X19740D01*
X20555Y693993D01*
X22163Y692385D01*
X24130Y691570D01*
Y695960D01*
D02*
G37*
G36*
X1190570Y694690D02*
X1186180D01*
Y690300D01*
X1188147Y691115D01*
X1189755Y692723D01*
X1190570Y694690D01*
D02*
G37*
G36*
X1183640D02*
X1179250D01*
X1180065Y692723D01*
X1181673Y691115D01*
X1183640Y690300D01*
Y694690D01*
D02*
G37*
G36*
X509137Y695325D02*
X506863D01*
X504763Y694455D01*
X503802Y693495D01*
X226060D01*
X224573Y693199D01*
X223313Y692357D01*
X217270Y686314D01*
X215754Y686720D01*
X213506D01*
X211334Y686138D01*
X209386Y685014D01*
X207796Y683424D01*
X206672Y681476D01*
X206090Y679304D01*
Y677056D01*
X206672Y674884D01*
X207796Y672936D01*
X209386Y671346D01*
X211334Y670222D01*
X213506Y669640D01*
X215754D01*
X217926Y670222D01*
X219874Y671346D01*
X221464Y672936D01*
X222588Y674884D01*
X223170Y677056D01*
Y679304D01*
X222764Y680820D01*
X227669Y685725D01*
X233702D01*
X234228Y684455D01*
X233196Y683424D01*
X232072Y681476D01*
X231529Y679450D01*
X248531D01*
X247988Y681476D01*
X246864Y683424D01*
X245832Y684455D01*
X246358Y685725D01*
X503802D01*
X504763Y684765D01*
X506863Y683895D01*
X509137D01*
X511237Y684765D01*
X512845Y686373D01*
X513715Y688473D01*
Y690747D01*
X512845Y692847D01*
X511237Y694455D01*
X509137Y695325D01*
D02*
G37*
G36*
X248531Y676910D02*
X241300D01*
Y669679D01*
X243326Y670222D01*
X245274Y671346D01*
X246864Y672936D01*
X247988Y674884D01*
X248531Y676910D01*
D02*
G37*
G36*
X238760D02*
X231529D01*
X232072Y674884D01*
X233196Y672936D01*
X234786Y671346D01*
X236734Y670222D01*
X238760Y669679D01*
Y676910D01*
D02*
G37*
G36*
X1200271Y663575D02*
X1197997D01*
X1195897Y662705D01*
X1194289Y661097D01*
X1193419Y658997D01*
Y656723D01*
X1194289Y654623D01*
X1195897Y653015D01*
X1197997Y652145D01*
X1200271D01*
X1202371Y653015D01*
X1203979Y654623D01*
X1204849Y656723D01*
Y658997D01*
X1203979Y661097D01*
X1202371Y662705D01*
X1200271Y663575D01*
D02*
G37*
G36*
X1181475D02*
X1179201D01*
X1177101Y662705D01*
X1175493Y661097D01*
X1174623Y658997D01*
Y656723D01*
X1175493Y654623D01*
X1177101Y653015D01*
X1179201Y652145D01*
X1181475D01*
X1183575Y653015D01*
X1185183Y654623D01*
X1186053Y656723D01*
Y658997D01*
X1185183Y661097D01*
X1183575Y662705D01*
X1181475Y663575D01*
D02*
G37*
G36*
X1162679D02*
X1160405D01*
X1158305Y662705D01*
X1156697Y661097D01*
X1155827Y658997D01*
Y656723D01*
X1156697Y654623D01*
X1158305Y653015D01*
X1160405Y652145D01*
X1162679D01*
X1164779Y653015D01*
X1166387Y654623D01*
X1167257Y656723D01*
Y658997D01*
X1166387Y661097D01*
X1164779Y662705D01*
X1162679Y663575D01*
D02*
G37*
G36*
X1143883D02*
X1141609D01*
X1139509Y662705D01*
X1137901Y661097D01*
X1137031Y658997D01*
Y656723D01*
X1137901Y654623D01*
X1139509Y653015D01*
X1141609Y652145D01*
X1143883D01*
X1145983Y653015D01*
X1147591Y654623D01*
X1148461Y656723D01*
Y658997D01*
X1147591Y661097D01*
X1145983Y662705D01*
X1143883Y663575D01*
D02*
G37*
G36*
X1125087D02*
X1122813D01*
X1120713Y662705D01*
X1119105Y661097D01*
X1118235Y658997D01*
Y656723D01*
X1119105Y654623D01*
X1120713Y653015D01*
X1122813Y652145D01*
X1125087D01*
X1127187Y653015D01*
X1128795Y654623D01*
X1129665Y656723D01*
Y658997D01*
X1128795Y661097D01*
X1127187Y662705D01*
X1125087Y663575D01*
D02*
G37*
G36*
X1219067Y663575D02*
X1216793D01*
X1214693Y662705D01*
X1213085Y661097D01*
X1212215Y658997D01*
Y656723D01*
X1213085Y654623D01*
X1214693Y653015D01*
X1216793Y652145D01*
X1219067D01*
X1221167Y653015D01*
X1222775Y654623D01*
X1223645Y656723D01*
Y658997D01*
X1222775Y661097D01*
X1221167Y662705D01*
X1219067Y663575D01*
D02*
G37*
G36*
Y646218D02*
X1216793D01*
X1214693Y645348D01*
X1213085Y643741D01*
X1212215Y641640D01*
Y639367D01*
X1213085Y637266D01*
X1214693Y635658D01*
X1216793Y634788D01*
X1219067D01*
X1221167Y635658D01*
X1222775Y637266D01*
X1223645Y639367D01*
Y641640D01*
X1222775Y643741D01*
X1221167Y645348D01*
X1219067Y646218D01*
D02*
G37*
G36*
X81748Y626520D02*
X81680D01*
Y617630D01*
X90570D01*
Y617698D01*
X89878Y620282D01*
X88540Y622598D01*
X86648Y624490D01*
X84332Y625828D01*
X81748Y626520D01*
D02*
G37*
G36*
X79140D02*
X79072D01*
X76488Y625828D01*
X74172Y624490D01*
X72280Y622598D01*
X70942Y620282D01*
X70250Y617698D01*
Y617630D01*
X79140D01*
Y626520D01*
D02*
G37*
G36*
X1219067Y628862D02*
X1216793D01*
X1214693Y627992D01*
X1213085Y626384D01*
X1212215Y624283D01*
Y622010D01*
X1213085Y619909D01*
X1214693Y618302D01*
X1216793Y617432D01*
X1219067D01*
X1221167Y618302D01*
X1222775Y619909D01*
X1223645Y622010D01*
Y624283D01*
X1222775Y626384D01*
X1221167Y627992D01*
X1219067Y628862D01*
D02*
G37*
G36*
X1125087D02*
X1122813D01*
X1120713Y627992D01*
X1119105Y626384D01*
X1118235Y624283D01*
Y622010D01*
X1119105Y619909D01*
X1120713Y618302D01*
X1122813Y617432D01*
X1125087D01*
X1127187Y618302D01*
X1128795Y619909D01*
X1129665Y622010D01*
Y624283D01*
X1128795Y626384D01*
X1127187Y627992D01*
X1125087Y628862D01*
D02*
G37*
G36*
X309748Y626520D02*
X307072D01*
X304488Y625828D01*
X302172Y624490D01*
X300280Y622598D01*
X298942Y620282D01*
X298250Y617698D01*
Y615022D01*
X298942Y612438D01*
X300280Y610122D01*
X302172Y608230D01*
X304488Y606892D01*
X307072Y606200D01*
X309748D01*
X312332Y606892D01*
X314648Y608230D01*
X316540Y610122D01*
X317878Y612438D01*
X318570Y615022D01*
Y617698D01*
X317878Y620282D01*
X316540Y622598D01*
X314648Y624490D01*
X312332Y625828D01*
X309748Y626520D01*
D02*
G37*
G36*
X90570Y615090D02*
X81680D01*
Y606200D01*
X81748D01*
X84332Y606892D01*
X86648Y608230D01*
X88540Y610122D01*
X89878Y612438D01*
X90570Y615022D01*
Y615090D01*
D02*
G37*
G36*
X79140D02*
X70250D01*
Y615022D01*
X70942Y612438D01*
X72280Y610122D01*
X74172Y608230D01*
X76488Y606892D01*
X79072Y606200D01*
X79140D01*
Y615090D01*
D02*
G37*
G36*
X25400Y610180D02*
Y605790D01*
X29790D01*
X28975Y607757D01*
X27367Y609365D01*
X25400Y610180D01*
D02*
G37*
G36*
X22860D02*
X20893Y609365D01*
X19285Y607757D01*
X18470Y605790D01*
X22860D01*
Y610180D01*
D02*
G37*
G36*
X1219067Y611505D02*
X1216793D01*
X1214693Y610635D01*
X1213085Y609027D01*
X1212215Y606927D01*
Y604653D01*
X1213085Y602553D01*
X1214693Y600945D01*
X1216793Y600075D01*
X1219067D01*
X1221167Y600945D01*
X1222775Y602553D01*
X1223645Y604653D01*
Y606927D01*
X1222775Y609027D01*
X1221167Y610635D01*
X1219067Y611505D01*
D02*
G37*
G36*
X1200271D02*
X1197997D01*
X1195897Y610635D01*
X1194289Y609027D01*
X1193419Y606927D01*
Y604653D01*
X1194289Y602553D01*
X1195897Y600945D01*
X1197997Y600075D01*
X1200271D01*
X1202371Y600945D01*
X1203979Y602553D01*
X1204849Y604653D01*
Y606927D01*
X1203979Y609027D01*
X1202371Y610635D01*
X1200271Y611505D01*
D02*
G37*
G36*
X1181475D02*
X1179201D01*
X1177101Y610635D01*
X1175493Y609027D01*
X1174623Y606927D01*
Y604653D01*
X1175493Y602553D01*
X1177101Y600945D01*
X1179201Y600075D01*
X1181475D01*
X1183575Y600945D01*
X1185183Y602553D01*
X1186053Y604653D01*
Y606927D01*
X1185183Y609027D01*
X1183575Y610635D01*
X1181475Y611505D01*
D02*
G37*
G36*
X1162679D02*
X1160405D01*
X1158305Y610635D01*
X1156697Y609027D01*
X1155827Y606927D01*
Y604653D01*
X1156697Y602553D01*
X1158305Y600945D01*
X1160405Y600075D01*
X1162679D01*
X1164779Y600945D01*
X1166387Y602553D01*
X1167257Y604653D01*
Y606927D01*
X1166387Y609027D01*
X1164779Y610635D01*
X1162679Y611505D01*
D02*
G37*
G36*
X1143883D02*
X1141609D01*
X1139509Y610635D01*
X1137901Y609027D01*
X1137031Y606927D01*
Y604653D01*
X1137901Y602553D01*
X1139509Y600945D01*
X1141609Y600075D01*
X1143883D01*
X1145983Y600945D01*
X1147591Y602553D01*
X1148461Y604653D01*
Y606927D01*
X1147591Y609027D01*
X1145983Y610635D01*
X1143883Y611505D01*
D02*
G37*
G36*
X1125087D02*
X1122813D01*
X1120713Y610635D01*
X1119105Y609027D01*
X1118235Y606927D01*
Y604653D01*
X1119105Y602553D01*
X1120713Y600945D01*
X1122813Y600075D01*
X1125087D01*
X1127187Y600945D01*
X1128795Y602553D01*
X1129665Y604653D01*
Y606927D01*
X1128795Y609027D01*
X1127187Y610635D01*
X1125087Y611505D01*
D02*
G37*
G36*
X29790Y603250D02*
X25400D01*
Y598860D01*
X27367Y599675D01*
X28975Y601283D01*
X29790Y603250D01*
D02*
G37*
G36*
X22860D02*
X18470D01*
X19285Y601283D01*
X20893Y599675D01*
X22860Y598860D01*
Y603250D01*
D02*
G37*
G36*
X25400Y586346D02*
Y581956D01*
X29790D01*
X28975Y583923D01*
X27367Y585531D01*
X25400Y586346D01*
D02*
G37*
G36*
X22860D02*
X20893Y585531D01*
X19285Y583923D01*
X18470Y581956D01*
X22860D01*
Y586346D01*
D02*
G37*
G36*
X29790Y579416D02*
X25400D01*
Y575026D01*
X27367Y575841D01*
X28975Y577449D01*
X29790Y579416D01*
D02*
G37*
G36*
X22860D02*
X18470D01*
X19285Y577449D01*
X20893Y575841D01*
X22860Y575026D01*
Y579416D01*
D02*
G37*
G36*
X1037590Y864945D02*
X887730D01*
X886243Y864649D01*
X884983Y863807D01*
X876093Y854917D01*
X876093Y854917D01*
X874823Y853647D01*
X873981Y852387D01*
X873685Y850900D01*
Y801709D01*
X865801Y793825D01*
X816610D01*
X815123Y793529D01*
X813863Y792687D01*
X802301Y781125D01*
X772548D01*
X771587Y782085D01*
X769487Y782955D01*
X767213D01*
X765113Y782085D01*
X763505Y780477D01*
X762635Y778377D01*
Y776103D01*
X763505Y774003D01*
X765113Y772395D01*
X767213Y771525D01*
X769487D01*
X771587Y772395D01*
X772548Y773355D01*
X803910D01*
X805397Y773651D01*
X806657Y774493D01*
X818219Y786055D01*
X867410D01*
X868897Y786351D01*
X870157Y787193D01*
X880317Y797353D01*
X881159Y798613D01*
X881455Y800100D01*
Y849291D01*
X881587Y849423D01*
X881587Y849423D01*
X889339Y857175D01*
X1035981D01*
X1043644Y849513D01*
X1043525Y848162D01*
X1042506Y847574D01*
X1040916Y845984D01*
X1039792Y844036D01*
X1039210Y841864D01*
Y839616D01*
X1039792Y837444D01*
X1040916Y835496D01*
X1042506Y833906D01*
X1043865Y833122D01*
Y609939D01*
X1035271Y601345D01*
X1033913D01*
X1031813Y600475D01*
X1030205Y598867D01*
X1029335Y596767D01*
Y594493D01*
X1030205Y592393D01*
X1031813Y590785D01*
X1033913Y589915D01*
X1036187D01*
X1038287Y590785D01*
X1039895Y592393D01*
X1040765Y594493D01*
Y595851D01*
X1047750Y602836D01*
X1083103Y567483D01*
X1084363Y566641D01*
X1085850Y566345D01*
X1170601D01*
X1203885Y533061D01*
Y451491D01*
X1202615Y451106D01*
X1201730Y452430D01*
X1190300Y463860D01*
X1188410Y465123D01*
X1186180Y465567D01*
X1179307D01*
Y497840D01*
X1178863Y500070D01*
X1177600Y501960D01*
X1169350Y510210D01*
X1167460Y511473D01*
X1165230Y511917D01*
X1155370D01*
Y512630D01*
X1143469D01*
X1143375Y512649D01*
X1143368Y512648D01*
X1143361Y512649D01*
X1143264Y512630D01*
X1141807D01*
Y519430D01*
X1141501Y521751D01*
X1140605Y523913D01*
X1139180Y525770D01*
X1121508Y543442D01*
X1119651Y544867D01*
X1117489Y545763D01*
X1115168Y546069D01*
X1018557D01*
X1018440Y546100D01*
X1017853D01*
X1017270Y546177D01*
X1016687Y546100D01*
X1016100D01*
X1015532Y545948D01*
X1014949Y545871D01*
X1014406Y545646D01*
X1013839Y545494D01*
X1013329Y545200D01*
X1012787Y544975D01*
X1012320Y544618D01*
X1011811Y544324D01*
X1011396Y543908D01*
X1010930Y543550D01*
X1010572Y543084D01*
X1010156Y542669D01*
X1009862Y542160D01*
X1009505Y541693D01*
X1009280Y541151D01*
X1008986Y540641D01*
X1008834Y540074D01*
X1008609Y539531D01*
X1008532Y538948D01*
X1008380Y538380D01*
Y537793D01*
X1008303Y537210D01*
X1008380Y536627D01*
Y536040D01*
X1008532Y535472D01*
X1008609Y534889D01*
X1008834Y534346D01*
X1008986Y533779D01*
X1009280Y533270D01*
X1009505Y532727D01*
X1009862Y532261D01*
X1010156Y531751D01*
X1010572Y531336D01*
X1010930Y530870D01*
X1011038Y530762D01*
X1011038Y530761D01*
X1011504Y530404D01*
X1011811Y530096D01*
X1012188Y529879D01*
X1012895Y529337D01*
X1013718Y528996D01*
X1013839Y528926D01*
X1013973Y528890D01*
X1015057Y528441D01*
X1017378Y528135D01*
X1111454D01*
X1123873Y515716D01*
Y506090D01*
X1124179Y503769D01*
X1125075Y501607D01*
X1125550Y500987D01*
Y499550D01*
X1126760D01*
X1128357Y498325D01*
X1130519Y497429D01*
X1130738Y497400D01*
X1130655Y496130D01*
X1125550D01*
Y483050D01*
X1127013D01*
Y478790D01*
X1127457Y476560D01*
X1128720Y474670D01*
X1129553Y473836D01*
Y460030D01*
Y443104D01*
X1127886Y441437D01*
X1101090D01*
X1098860Y440993D01*
X1096970Y439730D01*
X1089350Y432110D01*
X1089192Y431875D01*
X1037929D01*
X1019885Y449919D01*
Y501650D01*
X1019589Y503137D01*
X1018747Y504397D01*
X998295Y524849D01*
Y560112D01*
X999351Y560818D01*
X999623Y560705D01*
X1001897D01*
X1003997Y561575D01*
X1005605Y563183D01*
X1006475Y565283D01*
Y567557D01*
X1005605Y569657D01*
X1003997Y571265D01*
X1001897Y572135D01*
X999623D01*
X999351Y572022D01*
X998295Y572728D01*
Y577511D01*
X1025097Y604313D01*
X1025939Y605573D01*
X1026235Y607060D01*
Y726440D01*
X1025939Y727927D01*
X1025097Y729187D01*
X1012604Y741680D01*
X1025097Y754173D01*
X1025939Y755433D01*
X1026235Y756920D01*
Y832200D01*
X1030890D01*
Y849280D01*
X1013810D01*
Y832200D01*
X1018465D01*
Y758529D01*
X1005501Y745565D01*
X893665D01*
X892544Y746685D01*
X892892Y747796D01*
X893013Y747955D01*
X928370D01*
X929857Y748251D01*
X931117Y749093D01*
X947627Y765603D01*
X948469Y766863D01*
X948765Y768350D01*
Y833122D01*
X950124Y833906D01*
X951714Y835496D01*
X952838Y837444D01*
X953420Y839616D01*
Y841864D01*
X952838Y844036D01*
X951714Y845984D01*
X950124Y847574D01*
X948176Y848698D01*
X946004Y849280D01*
X943756D01*
X941584Y848698D01*
X939636Y847574D01*
X938046Y845984D01*
X936922Y844036D01*
X936340Y841864D01*
Y839616D01*
X936922Y837444D01*
X938046Y835496D01*
X939636Y833906D01*
X940995Y833122D01*
Y769959D01*
X926761Y755725D01*
X772548D01*
X771587Y756685D01*
X769487Y757555D01*
X767213D01*
X765113Y756685D01*
X764152Y755725D01*
X755650D01*
X754163Y755429D01*
X752903Y754587D01*
X749093Y750777D01*
X748251Y749517D01*
X747955Y748030D01*
Y726440D01*
X748251Y724953D01*
X749093Y723693D01*
X993065Y479721D01*
Y306458D01*
X992105Y305497D01*
X991235Y303397D01*
Y301123D01*
X992105Y299023D01*
X993713Y297415D01*
X995813Y296545D01*
X998087D01*
X1000187Y297415D01*
X1001795Y299023D01*
X1002665Y301123D01*
Y303397D01*
X1001795Y305497D01*
X1000835Y306458D01*
Y481330D01*
X1000539Y482817D01*
X999697Y484077D01*
X755725Y728049D01*
Y746421D01*
X757259Y747955D01*
X764152D01*
X765113Y746995D01*
X765680Y746760D01*
Y745490D01*
X765113Y745255D01*
X763505Y743647D01*
X762635Y741547D01*
Y739273D01*
X763505Y737173D01*
X765113Y735565D01*
X767213Y734695D01*
X769487D01*
X771587Y735565D01*
X772548Y736525D01*
X827543D01*
X829030Y736821D01*
X830290Y737663D01*
X832962Y740335D01*
X887906D01*
X889309Y738933D01*
X890569Y738091D01*
X892056Y737795D01*
X1005501D01*
X1018465Y724831D01*
Y608669D01*
X991663Y581867D01*
X990821Y580607D01*
X990525Y579120D01*
Y566420D01*
Y523240D01*
X990821Y521753D01*
X991663Y520493D01*
X1012115Y500041D01*
Y448310D01*
X1012411Y446823D01*
X1013253Y445563D01*
X1033171Y425645D01*
X1033436Y424815D01*
X1033171Y423984D01*
X1013253Y404067D01*
X1012411Y402807D01*
X1012115Y401320D01*
Y354330D01*
X1012411Y352843D01*
X1013253Y351583D01*
X1033573Y331263D01*
X1034833Y330421D01*
X1036320Y330125D01*
X1192530D01*
X1194017Y330421D01*
X1195277Y331263D01*
X1210517Y346503D01*
X1211359Y347763D01*
X1211655Y349250D01*
Y534670D01*
X1211359Y536157D01*
X1210517Y537417D01*
X1174957Y572977D01*
X1173697Y573819D01*
X1172210Y574115D01*
X1087459D01*
X1051635Y609939D01*
Y833122D01*
X1052994Y833906D01*
X1054584Y835496D01*
X1055708Y837444D01*
X1056290Y839616D01*
Y841864D01*
X1055708Y844036D01*
X1054584Y845984D01*
X1052994Y847574D01*
X1051635Y848358D01*
Y850900D01*
X1051339Y852387D01*
X1050497Y853647D01*
X1040337Y863807D01*
X1039077Y864649D01*
X1037590Y864945D01*
D02*
G37*
G36*
X25400Y562512D02*
Y558122D01*
X29790D01*
X28975Y560090D01*
X27367Y561698D01*
X25400Y562512D01*
D02*
G37*
G36*
X22860D02*
X20893Y561698D01*
X19285Y560090D01*
X18470Y558122D01*
X22860D01*
Y562512D01*
D02*
G37*
G36*
X29790Y555583D02*
X25400D01*
Y551193D01*
X27367Y552008D01*
X28975Y553615D01*
X29790Y555583D01*
D02*
G37*
G36*
X22860D02*
X18470D01*
X19285Y553615D01*
X20893Y552008D01*
X22860Y551193D01*
Y555583D01*
D02*
G37*
G36*
X240115Y541600D02*
Y537210D01*
X244504D01*
X243690Y539177D01*
X242082Y540785D01*
X240115Y541600D01*
D02*
G37*
G36*
X237575D02*
X235607Y540785D01*
X234000Y539177D01*
X233185Y537210D01*
X237575D01*
Y541600D01*
D02*
G37*
G36*
X216281D02*
Y537210D01*
X220671D01*
X219856Y539177D01*
X218248Y540785D01*
X216281Y541600D01*
D02*
G37*
G36*
X213741D02*
X211774Y540785D01*
X210166Y539177D01*
X209351Y537210D01*
X213741D01*
Y541600D01*
D02*
G37*
G36*
X192447D02*
Y537210D01*
X196837D01*
X196022Y539177D01*
X194415Y540785D01*
X192447Y541600D01*
D02*
G37*
G36*
X189907D02*
X187940Y540785D01*
X186332Y539177D01*
X185518Y537210D01*
X189907D01*
Y541600D01*
D02*
G37*
G36*
X168614D02*
Y537210D01*
X173004D01*
X172189Y539177D01*
X170581Y540785D01*
X168614Y541600D01*
D02*
G37*
G36*
X166074D02*
X164106Y540785D01*
X162499Y539177D01*
X161684Y537210D01*
X166074D01*
Y541600D01*
D02*
G37*
G36*
X25400Y538679D02*
Y534289D01*
X29790D01*
X28975Y536256D01*
X27367Y537864D01*
X25400Y538679D01*
D02*
G37*
G36*
X22860D02*
X20893Y537864D01*
X19285Y536256D01*
X18470Y534289D01*
X22860D01*
Y538679D01*
D02*
G37*
G36*
X244504Y534670D02*
X240115D01*
Y530280D01*
X242082Y531095D01*
X243690Y532703D01*
X244504Y534670D01*
D02*
G37*
G36*
X237575D02*
X233185D01*
X234000Y532703D01*
X235607Y531095D01*
X237575Y530280D01*
Y534670D01*
D02*
G37*
G36*
X220671D02*
X216281D01*
Y530280D01*
X218248Y531095D01*
X219856Y532703D01*
X220671Y534670D01*
D02*
G37*
G36*
X213741D02*
X209351D01*
X210166Y532703D01*
X211774Y531095D01*
X213741Y530280D01*
Y534670D01*
D02*
G37*
G36*
X196837D02*
X192447D01*
Y530280D01*
X194415Y531095D01*
X196022Y532703D01*
X196837Y534670D01*
D02*
G37*
G36*
X189907D02*
X185518D01*
X186332Y532703D01*
X187940Y531095D01*
X189907Y530280D01*
Y534670D01*
D02*
G37*
G36*
X173004D02*
X168614D01*
Y530280D01*
X170581Y531095D01*
X172189Y532703D01*
X173004Y534670D01*
D02*
G37*
G36*
X166074D02*
X161684D01*
X162499Y532703D01*
X164106Y531095D01*
X166074Y530280D01*
Y534670D01*
D02*
G37*
G36*
X29790Y531749D02*
X25400D01*
Y527359D01*
X27367Y528174D01*
X28975Y529782D01*
X29790Y531749D01*
D02*
G37*
G36*
X22860D02*
X18470D01*
X19285Y529782D01*
X20893Y528174D01*
X22860Y527359D01*
Y531749D01*
D02*
G37*
G36*
X398634Y542370D02*
X396386D01*
X394214Y541788D01*
X392266Y540664D01*
X390676Y539074D01*
X389552Y537126D01*
X388970Y534954D01*
Y532706D01*
X389552Y530534D01*
X390676Y528586D01*
X392266Y526996D01*
X394214Y525872D01*
X396386Y525290D01*
X398634D01*
X400806Y525872D01*
X402754Y526996D01*
X404344Y528586D01*
X405468Y530534D01*
X406050Y532706D01*
Y534954D01*
X405468Y537126D01*
X404344Y539074D01*
X402754Y540664D01*
X400806Y541788D01*
X398634Y542370D01*
D02*
G37*
G36*
X413887Y808355D02*
X411613D01*
X409513Y807485D01*
X407905Y805877D01*
X407035Y803777D01*
Y801503D01*
X407905Y799403D01*
X409513Y797795D01*
X411613Y796925D01*
X412971D01*
X430904Y778992D01*
X431116Y777929D01*
X431958Y776669D01*
X458263Y750363D01*
X459523Y749521D01*
X461010Y749225D01*
X510201D01*
X534595Y724831D01*
Y523803D01*
X533325Y523550D01*
X533165Y523937D01*
X531557Y525545D01*
X529457Y526415D01*
X527183D01*
X525890Y525880D01*
X477125D01*
X471470Y531535D01*
X470935Y532827D01*
X469327Y534435D01*
X467227Y535305D01*
X464953D01*
X462853Y534435D01*
X461245Y532827D01*
X460375Y530727D01*
Y528453D01*
X461245Y526353D01*
X462853Y524745D01*
X464146Y524210D01*
X471317Y517038D01*
X472998Y515915D01*
X474980Y515521D01*
X525890D01*
X527183Y514985D01*
X529457D01*
X531557Y515855D01*
X533165Y517463D01*
X533325Y517850D01*
X534595Y517597D01*
Y469900D01*
X534891Y468413D01*
X535733Y467153D01*
X595423Y407463D01*
X596683Y406621D01*
X598170Y406325D01*
X902631D01*
X916865Y392091D01*
Y166370D01*
X917161Y164883D01*
X918003Y163623D01*
X938323Y143303D01*
X939583Y142461D01*
X941070Y142165D01*
X1113388D01*
X1114296Y140591D01*
X1115951Y138936D01*
X1117979Y137766D01*
X1120240Y137160D01*
X1122580D01*
X1124841Y137766D01*
X1126869Y138936D01*
X1128524Y140591D01*
X1129694Y142619D01*
X1130300Y144880D01*
Y147220D01*
X1129694Y149481D01*
X1128524Y151509D01*
X1126869Y153164D01*
X1124841Y154334D01*
X1122580Y154940D01*
X1120240D01*
X1117979Y154334D01*
X1115951Y153164D01*
X1114296Y151509D01*
X1113388Y149935D01*
X942679D01*
X924635Y167979D01*
Y393700D01*
X924339Y395187D01*
X923497Y396447D01*
X906987Y412957D01*
X905727Y413799D01*
X904240Y414095D01*
X830373D01*
X829847Y415365D01*
X830345Y415863D01*
X831160Y417830D01*
X819840D01*
X820655Y415863D01*
X821153Y415365D01*
X820627Y414095D01*
X798623D01*
X798097Y415365D01*
X798595Y415863D01*
X799410Y417830D01*
X788090D01*
X788905Y415863D01*
X789403Y415365D01*
X788877Y414095D01*
X766873D01*
X766347Y415365D01*
X766845Y415863D01*
X767660Y417830D01*
X756340D01*
X757155Y415863D01*
X757653Y415365D01*
X757127Y414095D01*
X599779D01*
X542365Y471509D01*
Y726440D01*
X542069Y727927D01*
X541227Y729187D01*
X514557Y755857D01*
X513297Y756699D01*
X511810Y756995D01*
X462619D01*
X438505Y781109D01*
X438293Y782172D01*
X437451Y783432D01*
X418465Y802419D01*
Y803777D01*
X417595Y805877D01*
X415987Y807485D01*
X413887Y808355D01*
D02*
G37*
G36*
X240115Y518740D02*
Y514350D01*
X244504D01*
X243690Y516317D01*
X242082Y517925D01*
X240115Y518740D01*
D02*
G37*
G36*
X237575D02*
X235607Y517925D01*
X234000Y516317D01*
X233185Y514350D01*
X237575D01*
Y518740D01*
D02*
G37*
G36*
X216281D02*
Y514350D01*
X220671D01*
X219856Y516317D01*
X218248Y517925D01*
X216281Y518740D01*
D02*
G37*
G36*
X213741D02*
X211774Y517925D01*
X210166Y516317D01*
X209351Y514350D01*
X213741D01*
Y518740D01*
D02*
G37*
G36*
X192447D02*
Y514350D01*
X196837D01*
X196022Y516317D01*
X194415Y517925D01*
X192447Y518740D01*
D02*
G37*
G36*
X189907D02*
X187940Y517925D01*
X186332Y516317D01*
X185518Y514350D01*
X189907D01*
Y518740D01*
D02*
G37*
G36*
X168614D02*
Y514350D01*
X173004D01*
X172189Y516317D01*
X170581Y517925D01*
X168614Y518740D01*
D02*
G37*
G36*
X166074D02*
X164106Y517925D01*
X162499Y516317D01*
X161684Y514350D01*
X166074D01*
Y518740D01*
D02*
G37*
G36*
X25400Y514845D02*
Y510455D01*
X29790D01*
X28975Y512422D01*
X27367Y514030D01*
X25400Y514845D01*
D02*
G37*
G36*
X22860D02*
X20893Y514030D01*
X19285Y512422D01*
X18470Y510455D01*
X22860D01*
Y514845D01*
D02*
G37*
G36*
X1094410Y512920D02*
X1088390D01*
Y507650D01*
X1094410D01*
Y512920D01*
D02*
G37*
G36*
X1075360D02*
X1069340D01*
Y507650D01*
X1075360D01*
Y512920D01*
D02*
G37*
G36*
X1056310D02*
X1050290D01*
Y507650D01*
X1056310D01*
Y512920D01*
D02*
G37*
G36*
X1085850D02*
X1079830D01*
Y507650D01*
X1085850D01*
Y512920D01*
D02*
G37*
G36*
X1066800D02*
X1060780D01*
Y507650D01*
X1066800D01*
Y512920D01*
D02*
G37*
G36*
X1047750D02*
X1041730D01*
Y507650D01*
X1047750D01*
Y512920D01*
D02*
G37*
G36*
X244504Y511810D02*
X240115D01*
Y507420D01*
X242082Y508235D01*
X243690Y509843D01*
X244504Y511810D01*
D02*
G37*
G36*
X237575D02*
X233185D01*
X234000Y509843D01*
X235607Y508235D01*
X237575Y507420D01*
Y511810D01*
D02*
G37*
G36*
X220671D02*
X216281D01*
Y507420D01*
X218248Y508235D01*
X219856Y509843D01*
X220671Y511810D01*
D02*
G37*
G36*
X213741D02*
X209351D01*
X210166Y509843D01*
X211774Y508235D01*
X213741Y507420D01*
Y511810D01*
D02*
G37*
G36*
X196837D02*
X192447D01*
Y507420D01*
X194415Y508235D01*
X196022Y509843D01*
X196837Y511810D01*
D02*
G37*
G36*
X189907D02*
X185518D01*
X186332Y509843D01*
X187940Y508235D01*
X189907Y507420D01*
Y511810D01*
D02*
G37*
G36*
X173004D02*
X168614D01*
Y507420D01*
X170581Y508235D01*
X172189Y509843D01*
X173004Y511810D01*
D02*
G37*
G36*
X166074D02*
X161684D01*
X162499Y509843D01*
X164106Y508235D01*
X166074Y507420D01*
Y511810D01*
D02*
G37*
G36*
X29790Y507915D02*
X25400D01*
Y503525D01*
X27367Y504340D01*
X28975Y505948D01*
X29790Y507915D01*
D02*
G37*
G36*
X22860D02*
X18470D01*
X19285Y505948D01*
X20893Y504340D01*
X22860Y503525D01*
Y507915D01*
D02*
G37*
G36*
X1094410Y505110D02*
X1088390D01*
Y499840D01*
X1094410D01*
Y505110D01*
D02*
G37*
G36*
X1085850D02*
X1079830D01*
Y499840D01*
X1085850D01*
Y505110D01*
D02*
G37*
G36*
X1075360D02*
X1069340D01*
Y499840D01*
X1075360D01*
Y505110D01*
D02*
G37*
G36*
X1066800D02*
X1060780D01*
Y499840D01*
X1066800D01*
Y505110D01*
D02*
G37*
G36*
X1056310D02*
X1050290D01*
Y499840D01*
X1056310D01*
Y505110D01*
D02*
G37*
G36*
X1047750D02*
X1041730D01*
Y499840D01*
X1047750D01*
Y505110D01*
D02*
G37*
G36*
X25400Y491011D02*
Y486622D01*
X29790D01*
X28975Y488589D01*
X27367Y490196D01*
X25400Y491011D01*
D02*
G37*
G36*
X22860D02*
X20893Y490196D01*
X19285Y488589D01*
X18470Y486622D01*
X22860D01*
Y491011D01*
D02*
G37*
G36*
X29790Y484082D02*
X25400D01*
Y479692D01*
X27367Y480507D01*
X28975Y482114D01*
X29790Y484082D01*
D02*
G37*
G36*
X22860D02*
X18470D01*
X19285Y482114D01*
X20893Y480507D01*
X22860Y479692D01*
Y484082D01*
D02*
G37*
G36*
X139700Y480640D02*
Y476250D01*
X144090D01*
X143275Y478217D01*
X141667Y479825D01*
X139700Y480640D01*
D02*
G37*
G36*
X137160D02*
X135193Y479825D01*
X133585Y478217D01*
X132770Y476250D01*
X137160D01*
Y480640D01*
D02*
G37*
G36*
X116840D02*
Y476250D01*
X121230D01*
X120415Y478217D01*
X118807Y479825D01*
X116840Y480640D01*
D02*
G37*
G36*
X114300D02*
X112333Y479825D01*
X110725Y478217D01*
X109910Y476250D01*
X114300D01*
Y480640D01*
D02*
G37*
G36*
X93980D02*
Y476250D01*
X98370D01*
X97555Y478217D01*
X95947Y479825D01*
X93980Y480640D01*
D02*
G37*
G36*
X91440D02*
X89473Y479825D01*
X87865Y478217D01*
X87050Y476250D01*
X91440D01*
Y480640D01*
D02*
G37*
G36*
X1094410Y496420D02*
X1079830D01*
Y489618D01*
X1079718Y489055D01*
Y482169D01*
X1076650Y479100D01*
X1075387Y477210D01*
X1075167Y476106D01*
X1073897Y476231D01*
Y483340D01*
X1075360D01*
Y496420D01*
X1060780D01*
Y483340D01*
X1062243D01*
Y472986D01*
X1060973Y472861D01*
X1060578Y474845D01*
X1059315Y476735D01*
X1054847Y481204D01*
Y483340D01*
X1056310D01*
Y496420D01*
X1041730D01*
Y483340D01*
X1043193D01*
Y478790D01*
X1043637Y476560D01*
X1044900Y474670D01*
X1049368Y470201D01*
Y460205D01*
X1049812Y457975D01*
X1049830Y457948D01*
Y448490D01*
X1060910D01*
Y458202D01*
X1061152Y458514D01*
X1062421Y458079D01*
Y454030D01*
X1062851Y451868D01*
X1064076Y450036D01*
X1065908Y448811D01*
X1068070Y448382D01*
X1070232Y448811D01*
X1072064Y450036D01*
X1073289Y451868D01*
X1073718Y454030D01*
Y457802D01*
X1074988Y458300D01*
X1075122Y458157D01*
Y454030D01*
X1075551Y451868D01*
X1076776Y450036D01*
X1078608Y448811D01*
X1080770Y448382D01*
X1082932Y448811D01*
X1084764Y450036D01*
X1085989Y451868D01*
X1086419Y454030D01*
Y458542D01*
X1086552Y458693D01*
X1087822Y458214D01*
Y454030D01*
X1088251Y451868D01*
X1089476Y450036D01*
X1091308Y448811D01*
X1092200Y448634D01*
Y460030D01*
Y471426D01*
X1091308Y471249D01*
X1089476Y470024D01*
X1088251Y468192D01*
X1087867Y466259D01*
X1086597Y466384D01*
Y472566D01*
X1089665Y475635D01*
X1090928Y477525D01*
X1091372Y479755D01*
Y483340D01*
X1094410D01*
Y496420D01*
D02*
G37*
G36*
X314960Y478100D02*
Y473710D01*
X319350D01*
X318535Y475677D01*
X316927Y477285D01*
X314960Y478100D01*
D02*
G37*
G36*
X312420D02*
X310453Y477285D01*
X308845Y475677D01*
X308030Y473710D01*
X312420D01*
Y478100D01*
D02*
G37*
G36*
X292100D02*
Y473710D01*
X296490D01*
X295675Y475677D01*
X294067Y477285D01*
X292100Y478100D01*
D02*
G37*
G36*
X289560D02*
X287593Y477285D01*
X285985Y475677D01*
X285170Y473710D01*
X289560D01*
Y478100D01*
D02*
G37*
G36*
X269240D02*
Y473710D01*
X273630D01*
X272815Y475677D01*
X271207Y477285D01*
X269240Y478100D01*
D02*
G37*
G36*
X266700D02*
X264733Y477285D01*
X263125Y475677D01*
X262310Y473710D01*
X266700D01*
Y478100D01*
D02*
G37*
G36*
X144090Y473710D02*
X139700D01*
Y469320D01*
X141667Y470135D01*
X143275Y471743D01*
X144090Y473710D01*
D02*
G37*
G36*
X137160D02*
X132770D01*
X133585Y471743D01*
X135193Y470135D01*
X137160Y469320D01*
Y473710D01*
D02*
G37*
G36*
X121230D02*
X116840D01*
Y469320D01*
X118807Y470135D01*
X120415Y471743D01*
X121230Y473710D01*
D02*
G37*
G36*
X114300D02*
X109910D01*
X110725Y471743D01*
X112333Y470135D01*
X114300Y469320D01*
Y473710D01*
D02*
G37*
G36*
X98370D02*
X93980D01*
Y469320D01*
X95947Y470135D01*
X97555Y471743D01*
X98370Y473710D01*
D02*
G37*
G36*
X91440D02*
X87050D01*
X87865Y471743D01*
X89473Y470135D01*
X91440Y469320D01*
Y473710D01*
D02*
G37*
G36*
X319350Y471170D02*
X314960D01*
Y466780D01*
X316927Y467595D01*
X318535Y469203D01*
X319350Y471170D01*
D02*
G37*
G36*
X312420D02*
X308030D01*
X308845Y469203D01*
X310453Y467595D01*
X312420Y466780D01*
Y471170D01*
D02*
G37*
G36*
X296490D02*
X292100D01*
Y466780D01*
X294067Y467595D01*
X295675Y469203D01*
X296490Y471170D01*
D02*
G37*
G36*
X289560D02*
X285170D01*
X285985Y469203D01*
X287593Y467595D01*
X289560Y466780D01*
Y471170D01*
D02*
G37*
G36*
X273630D02*
X269240D01*
Y466780D01*
X271207Y467595D01*
X272815Y469203D01*
X273630Y471170D01*
D02*
G37*
G36*
X266700D02*
X262310D01*
X263125Y469203D01*
X264733Y467595D01*
X266700Y466780D01*
Y471170D01*
D02*
G37*
G36*
X25400Y467178D02*
Y462788D01*
X29790D01*
X28975Y464755D01*
X27367Y466363D01*
X25400Y467178D01*
D02*
G37*
G36*
X22860D02*
X20893Y466363D01*
X19285Y464755D01*
X18470Y462788D01*
X22860D01*
Y467178D01*
D02*
G37*
G36*
X1094740Y471426D02*
Y461300D01*
X1099118D01*
Y466030D01*
X1098689Y468192D01*
X1097464Y470024D01*
X1095632Y471249D01*
X1094740Y471426D01*
D02*
G37*
G36*
X633730Y462225D02*
X631763Y461410D01*
X630155Y459802D01*
X629655Y458595D01*
X628280D01*
X627780Y459802D01*
X626172Y461410D01*
X624205Y462225D01*
Y456565D01*
Y450905D01*
X626172Y451720D01*
X627780Y453328D01*
X628280Y454535D01*
X629655D01*
X630155Y453328D01*
X631763Y451720D01*
X633730Y450905D01*
Y456565D01*
Y462225D01*
D02*
G37*
G36*
X610194Y462818D02*
X608226Y462004D01*
X606619Y460396D01*
X605804Y458429D01*
X610194D01*
Y462818D01*
D02*
G37*
G36*
X636270Y462225D02*
Y457835D01*
X640660D01*
X639845Y459802D01*
X638237Y461410D01*
X636270Y462225D01*
D02*
G37*
G36*
X29790Y460248D02*
X25400D01*
Y455858D01*
X27367Y456673D01*
X28975Y458281D01*
X29790Y460248D01*
D02*
G37*
G36*
X22860D02*
X18470D01*
X19285Y458281D01*
X20893Y456673D01*
X22860Y455858D01*
Y460248D01*
D02*
G37*
G36*
X139700Y456806D02*
Y452416D01*
X144090D01*
X143275Y454384D01*
X141667Y455991D01*
X139700Y456806D01*
D02*
G37*
G36*
X137160D02*
X135193Y455991D01*
X133585Y454384D01*
X132770Y452416D01*
X137160D01*
Y456806D01*
D02*
G37*
G36*
X116840D02*
Y452416D01*
X121230D01*
X120415Y454384D01*
X118807Y455991D01*
X116840Y456806D01*
D02*
G37*
G36*
X114300D02*
X112333Y455991D01*
X110725Y454384D01*
X109910Y452416D01*
X114300D01*
Y456806D01*
D02*
G37*
G36*
X93980D02*
Y452416D01*
X98370D01*
X97555Y454384D01*
X95947Y455991D01*
X93980Y456806D01*
D02*
G37*
G36*
X91440D02*
X89473Y455991D01*
X87865Y454384D01*
X87050Y452416D01*
X91440D01*
Y456806D01*
D02*
G37*
G36*
X826770Y456510D02*
Y452120D01*
X831160D01*
X830345Y454087D01*
X828737Y455695D01*
X826770Y456510D01*
D02*
G37*
G36*
X824230D02*
X822263Y455695D01*
X820655Y454087D01*
X819840Y452120D01*
X824230D01*
Y456510D01*
D02*
G37*
G36*
X795020D02*
Y452120D01*
X799410D01*
X798595Y454087D01*
X796987Y455695D01*
X795020Y456510D01*
D02*
G37*
G36*
X792480D02*
X790513Y455695D01*
X788905Y454087D01*
X788090Y452120D01*
X792480D01*
Y456510D01*
D02*
G37*
G36*
X763270D02*
Y452120D01*
X767660D01*
X766845Y454087D01*
X765237Y455695D01*
X763270Y456510D01*
D02*
G37*
G36*
X760730D02*
X758763Y455695D01*
X757155Y454087D01*
X756340Y452120D01*
X760730D01*
Y456510D01*
D02*
G37*
G36*
X610194Y455889D02*
X605804D01*
X606619Y453921D01*
X608226Y452314D01*
X610194Y451499D01*
Y455889D01*
D02*
G37*
G36*
X640660Y455295D02*
X636270D01*
Y450905D01*
X638237Y451720D01*
X639845Y453328D01*
X640660Y455295D01*
D02*
G37*
G36*
X612734Y462818D02*
Y457159D01*
Y451499D01*
X614701Y452314D01*
X616309Y453921D01*
X616389Y454116D01*
X617764D01*
X618090Y453328D01*
X619698Y451720D01*
X621665Y450905D01*
Y456565D01*
Y462225D01*
X619698Y461410D01*
X618090Y459802D01*
X618010Y459608D01*
X616635D01*
X616309Y460396D01*
X614701Y462004D01*
X612734Y462818D01*
D02*
G37*
G36*
X314960Y454266D02*
Y449876D01*
X319350D01*
X318535Y451844D01*
X316927Y453451D01*
X314960Y454266D01*
D02*
G37*
G36*
X312420D02*
X310453Y453451D01*
X308845Y451844D01*
X308030Y449876D01*
X312420D01*
Y454266D01*
D02*
G37*
G36*
X292100D02*
Y449876D01*
X296490D01*
X295675Y451844D01*
X294067Y453451D01*
X292100Y454266D01*
D02*
G37*
G36*
X289560D02*
X287593Y453451D01*
X285985Y451844D01*
X285170Y449876D01*
X289560D01*
Y454266D01*
D02*
G37*
G36*
X269240D02*
Y449876D01*
X273630D01*
X272815Y451844D01*
X271207Y453451D01*
X269240Y454266D01*
D02*
G37*
G36*
X266700D02*
X264733Y453451D01*
X263125Y451844D01*
X262310Y449876D01*
X266700D01*
Y454266D01*
D02*
G37*
G36*
X1099118Y458760D02*
X1094740D01*
Y448634D01*
X1095632Y448811D01*
X1097464Y450036D01*
X1098689Y451868D01*
X1099118Y454030D01*
Y458760D01*
D02*
G37*
G36*
X144090Y449876D02*
X139700D01*
Y445486D01*
X141667Y446301D01*
X143275Y447909D01*
X144090Y449876D01*
D02*
G37*
G36*
X137160D02*
X132770D01*
X133585Y447909D01*
X135193Y446301D01*
X137160Y445486D01*
Y449876D01*
D02*
G37*
G36*
X121230D02*
X116840D01*
Y445486D01*
X118807Y446301D01*
X120415Y447909D01*
X121230Y449876D01*
D02*
G37*
G36*
X114300D02*
X109910D01*
X110725Y447909D01*
X112333Y446301D01*
X114300Y445486D01*
Y449876D01*
D02*
G37*
G36*
X98370D02*
X93980D01*
Y445486D01*
X95947Y446301D01*
X97555Y447909D01*
X98370Y449876D01*
D02*
G37*
G36*
X91440D02*
X87050D01*
X87865Y447909D01*
X89473Y446301D01*
X91440Y445486D01*
Y449876D01*
D02*
G37*
G36*
X831160Y449580D02*
X826770D01*
Y445190D01*
X828737Y446005D01*
X830345Y447613D01*
X831160Y449580D01*
D02*
G37*
G36*
X824230D02*
X819840D01*
X820655Y447613D01*
X822263Y446005D01*
X824230Y445190D01*
Y449580D01*
D02*
G37*
G36*
X799410D02*
X795020D01*
Y445190D01*
X796987Y446005D01*
X798595Y447613D01*
X799410Y449580D01*
D02*
G37*
G36*
X792480D02*
X788090D01*
X788905Y447613D01*
X790513Y446005D01*
X792480Y445190D01*
Y449580D01*
D02*
G37*
G36*
X767660D02*
X763270D01*
Y445190D01*
X765237Y446005D01*
X766845Y447613D01*
X767660Y449580D01*
D02*
G37*
G36*
X760730D02*
X756340D01*
X757155Y447613D01*
X758763Y446005D01*
X760730Y445190D01*
Y449580D01*
D02*
G37*
G36*
X319350Y447336D02*
X314960D01*
Y442947D01*
X316927Y443761D01*
X318535Y445369D01*
X319350Y447336D01*
D02*
G37*
G36*
X312420D02*
X308030D01*
X308845Y445369D01*
X310453Y443761D01*
X312420Y442947D01*
Y447336D01*
D02*
G37*
G36*
X296490D02*
X292100D01*
Y442947D01*
X294067Y443761D01*
X295675Y445369D01*
X296490Y447336D01*
D02*
G37*
G36*
X289560D02*
X285170D01*
X285985Y445369D01*
X287593Y443761D01*
X289560Y442947D01*
Y447336D01*
D02*
G37*
G36*
X273630D02*
X269240D01*
Y442947D01*
X271207Y443761D01*
X272815Y445369D01*
X273630Y447336D01*
D02*
G37*
G36*
X266700D02*
X262310D01*
X263125Y445369D01*
X264733Y443761D01*
X266700Y442947D01*
Y447336D01*
D02*
G37*
G36*
X25400Y443344D02*
Y438954D01*
X29790D01*
X28975Y440922D01*
X27367Y442529D01*
X25400Y443344D01*
D02*
G37*
G36*
X22860D02*
X20893Y442529D01*
X19285Y440922D01*
X18470Y438954D01*
X22860D01*
Y443344D01*
D02*
G37*
G36*
X29790Y436414D02*
X25400D01*
Y432024D01*
X27367Y432839D01*
X28975Y434447D01*
X29790Y436414D01*
D02*
G37*
G36*
X22860D02*
X18470D01*
X19285Y434447D01*
X20893Y432839D01*
X22860Y432024D01*
Y436414D01*
D02*
G37*
G36*
X139700Y432972D02*
Y428583D01*
X144090D01*
X143275Y430550D01*
X141667Y432158D01*
X139700Y432972D01*
D02*
G37*
G36*
X137160D02*
X135193Y432158D01*
X133585Y430550D01*
X132770Y428583D01*
X137160D01*
Y432972D01*
D02*
G37*
G36*
X116840D02*
Y428583D01*
X121230D01*
X120415Y430550D01*
X118807Y432158D01*
X116840Y432972D01*
D02*
G37*
G36*
X114300D02*
X112333Y432158D01*
X110725Y430550D01*
X109910Y428583D01*
X114300D01*
Y432972D01*
D02*
G37*
G36*
X93980D02*
Y428583D01*
X98370D01*
X97555Y430550D01*
X95947Y432158D01*
X93980Y432972D01*
D02*
G37*
G36*
X91440D02*
X89473Y432158D01*
X87865Y430550D01*
X87050Y428583D01*
X91440D01*
Y432972D01*
D02*
G37*
G36*
X314960Y430433D02*
Y426043D01*
X319350D01*
X318535Y428010D01*
X316927Y429618D01*
X314960Y430433D01*
D02*
G37*
G36*
X312420D02*
X310453Y429618D01*
X308845Y428010D01*
X308030Y426043D01*
X312420D01*
Y430433D01*
D02*
G37*
G36*
X292100D02*
Y426043D01*
X296490D01*
X295675Y428010D01*
X294067Y429618D01*
X292100Y430433D01*
D02*
G37*
G36*
X289560D02*
X287593Y429618D01*
X285985Y428010D01*
X285170Y426043D01*
X289560D01*
Y430433D01*
D02*
G37*
G36*
X269240D02*
Y426043D01*
X273630D01*
X272815Y428010D01*
X271207Y429618D01*
X269240Y430433D01*
D02*
G37*
G36*
X266700D02*
X264733Y429618D01*
X263125Y428010D01*
X262310Y426043D01*
X266700D01*
Y430433D01*
D02*
G37*
G36*
X144090Y426043D02*
X139700D01*
Y421653D01*
X141667Y422468D01*
X143275Y424075D01*
X144090Y426043D01*
D02*
G37*
G36*
X137160D02*
X132770D01*
X133585Y424075D01*
X135193Y422468D01*
X137160Y421653D01*
Y426043D01*
D02*
G37*
G36*
X121230D02*
X116840D01*
Y421653D01*
X118807Y422468D01*
X120415Y424075D01*
X121230Y426043D01*
D02*
G37*
G36*
X114300D02*
X109910D01*
X110725Y424075D01*
X112333Y422468D01*
X114300Y421653D01*
Y426043D01*
D02*
G37*
G36*
X98370D02*
X93980D01*
Y421653D01*
X95947Y422468D01*
X97555Y424075D01*
X98370Y426043D01*
D02*
G37*
G36*
X91440D02*
X87050D01*
X87865Y424075D01*
X89473Y422468D01*
X91440Y421653D01*
Y426043D01*
D02*
G37*
G36*
X826770Y424760D02*
Y420370D01*
X831160D01*
X830345Y422337D01*
X828737Y423945D01*
X826770Y424760D01*
D02*
G37*
G36*
X824230D02*
X822263Y423945D01*
X820655Y422337D01*
X819840Y420370D01*
X824230D01*
Y424760D01*
D02*
G37*
G36*
X795020D02*
Y420370D01*
X799410D01*
X798595Y422337D01*
X796987Y423945D01*
X795020Y424760D01*
D02*
G37*
G36*
X792480D02*
X790513Y423945D01*
X788905Y422337D01*
X788090Y420370D01*
X792480D01*
Y424760D01*
D02*
G37*
G36*
X763270D02*
Y420370D01*
X767660D01*
X766845Y422337D01*
X765237Y423945D01*
X763270Y424760D01*
D02*
G37*
G36*
X760730D02*
X758763Y423945D01*
X757155Y422337D01*
X756340Y420370D01*
X760730D01*
Y424760D01*
D02*
G37*
G36*
X319350Y423503D02*
X314960D01*
Y419113D01*
X316927Y419928D01*
X318535Y421535D01*
X319350Y423503D01*
D02*
G37*
G36*
X312420D02*
X308030D01*
X308845Y421535D01*
X310453Y419928D01*
X312420Y419113D01*
Y423503D01*
D02*
G37*
G36*
X296490D02*
X292100D01*
Y419113D01*
X294067Y419928D01*
X295675Y421535D01*
X296490Y423503D01*
D02*
G37*
G36*
X289560D02*
X285170D01*
X285985Y421535D01*
X287593Y419928D01*
X289560Y419113D01*
Y423503D01*
D02*
G37*
G36*
X273630D02*
X269240D01*
Y419113D01*
X271207Y419928D01*
X272815Y421535D01*
X273630Y423503D01*
D02*
G37*
G36*
X266700D02*
X262310D01*
X263125Y421535D01*
X264733Y419928D01*
X266700Y419113D01*
Y423503D01*
D02*
G37*
G36*
X25400Y419510D02*
Y415121D01*
X29790D01*
X28975Y417088D01*
X27367Y418695D01*
X25400Y419510D01*
D02*
G37*
G36*
X22860D02*
X20893Y418695D01*
X19285Y417088D01*
X18470Y415121D01*
X22860D01*
Y419510D01*
D02*
G37*
G36*
X29790Y412581D02*
X25400D01*
Y408191D01*
X27367Y409006D01*
X28975Y410613D01*
X29790Y412581D01*
D02*
G37*
G36*
X22860D02*
X18470D01*
X19285Y410613D01*
X20893Y409006D01*
X22860Y408191D01*
Y412581D01*
D02*
G37*
G36*
X139700Y409139D02*
Y404749D01*
X144090D01*
X143275Y406716D01*
X141667Y408324D01*
X139700Y409139D01*
D02*
G37*
G36*
X137160D02*
X135193Y408324D01*
X133585Y406716D01*
X132770Y404749D01*
X137160D01*
Y409139D01*
D02*
G37*
G36*
X116840D02*
Y404749D01*
X121230D01*
X120415Y406716D01*
X118807Y408324D01*
X116840Y409139D01*
D02*
G37*
G36*
X114300D02*
X112333Y408324D01*
X110725Y406716D01*
X109910Y404749D01*
X114300D01*
Y409139D01*
D02*
G37*
G36*
X93980D02*
Y404749D01*
X98370D01*
X97555Y406716D01*
X95947Y408324D01*
X93980Y409139D01*
D02*
G37*
G36*
X91440D02*
X89473Y408324D01*
X87865Y406716D01*
X87050Y404749D01*
X91440D01*
Y409139D01*
D02*
G37*
G36*
X314960Y406599D02*
Y402209D01*
X319350D01*
X318535Y404176D01*
X316927Y405784D01*
X314960Y406599D01*
D02*
G37*
G36*
X312420D02*
X310453Y405784D01*
X308845Y404176D01*
X308030Y402209D01*
X312420D01*
Y406599D01*
D02*
G37*
G36*
X292100D02*
Y402209D01*
X296490D01*
X295675Y404176D01*
X294067Y405784D01*
X292100Y406599D01*
D02*
G37*
G36*
X289560D02*
X287593Y405784D01*
X285985Y404176D01*
X285170Y402209D01*
X289560D01*
Y406599D01*
D02*
G37*
G36*
X269240D02*
Y402209D01*
X273630D01*
X272815Y404176D01*
X271207Y405784D01*
X269240Y406599D01*
D02*
G37*
G36*
X266700D02*
X264733Y405784D01*
X263125Y404176D01*
X262310Y402209D01*
X266700D01*
Y406599D01*
D02*
G37*
G36*
X144090Y402209D02*
X139700D01*
Y397819D01*
X141667Y398634D01*
X143275Y400242D01*
X144090Y402209D01*
D02*
G37*
G36*
X137160D02*
X132770D01*
X133585Y400242D01*
X135193Y398634D01*
X137160Y397819D01*
Y402209D01*
D02*
G37*
G36*
X121230D02*
X116840D01*
Y397819D01*
X118807Y398634D01*
X120415Y400242D01*
X121230Y402209D01*
D02*
G37*
G36*
X114300D02*
X109910D01*
X110725Y400242D01*
X112333Y398634D01*
X114300Y397819D01*
Y402209D01*
D02*
G37*
G36*
X98370D02*
X93980D01*
Y397819D01*
X95947Y398634D01*
X97555Y400242D01*
X98370Y402209D01*
D02*
G37*
G36*
X91440D02*
X87050D01*
X87865Y400242D01*
X89473Y398634D01*
X91440Y397819D01*
Y402209D01*
D02*
G37*
G36*
X319350Y399669D02*
X314960D01*
Y395279D01*
X316927Y396094D01*
X318535Y397702D01*
X319350Y399669D01*
D02*
G37*
G36*
X312420D02*
X308030D01*
X308845Y397702D01*
X310453Y396094D01*
X312420Y395279D01*
Y399669D01*
D02*
G37*
G36*
X296490D02*
X292100D01*
Y395279D01*
X294067Y396094D01*
X295675Y397702D01*
X296490Y399669D01*
D02*
G37*
G36*
X289560D02*
X285170D01*
X285985Y397702D01*
X287593Y396094D01*
X289560Y395279D01*
Y399669D01*
D02*
G37*
G36*
X273630D02*
X269240D01*
Y395279D01*
X271207Y396094D01*
X272815Y397702D01*
X273630Y399669D01*
D02*
G37*
G36*
X266700D02*
X262310D01*
X263125Y397702D01*
X264733Y396094D01*
X266700Y395279D01*
Y399669D01*
D02*
G37*
G36*
X25400Y395677D02*
Y391287D01*
X29790D01*
X28975Y393254D01*
X27367Y394862D01*
X25400Y395677D01*
D02*
G37*
G36*
X22860D02*
X20893Y394862D01*
X19285Y393254D01*
X18470Y391287D01*
X22860D01*
Y395677D01*
D02*
G37*
G36*
X29790Y388747D02*
X25400D01*
Y384357D01*
X27367Y385172D01*
X28975Y386780D01*
X29790Y388747D01*
D02*
G37*
G36*
X22860D02*
X18470D01*
X19285Y386780D01*
X20893Y385172D01*
X22860Y384357D01*
Y388747D01*
D02*
G37*
G36*
X139700Y385390D02*
Y381000D01*
X144090D01*
X143275Y382967D01*
X141667Y384575D01*
X139700Y385390D01*
D02*
G37*
G36*
X137160D02*
X135193Y384575D01*
X133585Y382967D01*
X132770Y381000D01*
X137160D01*
Y385390D01*
D02*
G37*
G36*
X116840D02*
Y381000D01*
X121230D01*
X120415Y382967D01*
X118807Y384575D01*
X116840Y385390D01*
D02*
G37*
G36*
X114300D02*
X112333Y384575D01*
X110725Y382967D01*
X109910Y381000D01*
X114300D01*
Y385390D01*
D02*
G37*
G36*
X93980D02*
Y381000D01*
X98370D01*
X97555Y382967D01*
X95947Y384575D01*
X93980Y385390D01*
D02*
G37*
G36*
X91440D02*
X89473Y384575D01*
X87865Y382967D01*
X87050Y381000D01*
X91440D01*
Y385390D01*
D02*
G37*
G36*
X314960Y382850D02*
Y378460D01*
X319350D01*
X318535Y380427D01*
X316927Y382035D01*
X314960Y382850D01*
D02*
G37*
G36*
X312420D02*
X310453Y382035D01*
X308845Y380427D01*
X308030Y378460D01*
X312420D01*
Y382850D01*
D02*
G37*
G36*
X292100D02*
Y378460D01*
X296490D01*
X295675Y380427D01*
X294067Y382035D01*
X292100Y382850D01*
D02*
G37*
G36*
X289560D02*
X287593Y382035D01*
X285985Y380427D01*
X285170Y378460D01*
X289560D01*
Y382850D01*
D02*
G37*
G36*
X269240D02*
Y378460D01*
X273630D01*
X272815Y380427D01*
X271207Y382035D01*
X269240Y382850D01*
D02*
G37*
G36*
X266700D02*
X264733Y382035D01*
X263125Y380427D01*
X262310Y378460D01*
X266700D01*
Y382850D01*
D02*
G37*
G36*
X144090Y378460D02*
X139700D01*
Y374070D01*
X141667Y374885D01*
X143275Y376493D01*
X144090Y378460D01*
D02*
G37*
G36*
X137160D02*
X132770D01*
X133585Y376493D01*
X135193Y374885D01*
X137160Y374070D01*
Y378460D01*
D02*
G37*
G36*
X121230D02*
X116840D01*
Y374070D01*
X118807Y374885D01*
X120415Y376493D01*
X121230Y378460D01*
D02*
G37*
G36*
X114300D02*
X109910D01*
X110725Y376493D01*
X112333Y374885D01*
X114300Y374070D01*
Y378460D01*
D02*
G37*
G36*
X98370D02*
X93980D01*
Y374070D01*
X95947Y374885D01*
X97555Y376493D01*
X98370Y378460D01*
D02*
G37*
G36*
X91440D02*
X87050D01*
X87865Y376493D01*
X89473Y374885D01*
X91440Y374070D01*
Y378460D01*
D02*
G37*
G36*
X319350Y375920D02*
X314960D01*
Y371530D01*
X316927Y372345D01*
X318535Y373953D01*
X319350Y375920D01*
D02*
G37*
G36*
X312420D02*
X308030D01*
X308845Y373953D01*
X310453Y372345D01*
X312420Y371530D01*
Y375920D01*
D02*
G37*
G36*
X296490D02*
X292100D01*
Y371530D01*
X294067Y372345D01*
X295675Y373953D01*
X296490Y375920D01*
D02*
G37*
G36*
X289560D02*
X285170D01*
X285985Y373953D01*
X287593Y372345D01*
X289560Y371530D01*
Y375920D01*
D02*
G37*
G36*
X273630D02*
X269240D01*
Y371530D01*
X271207Y372345D01*
X272815Y373953D01*
X273630Y375920D01*
D02*
G37*
G36*
X266700D02*
X262310D01*
X263125Y373953D01*
X264733Y372345D01*
X266700Y371530D01*
Y375920D01*
D02*
G37*
G36*
X25400Y371843D02*
Y367453D01*
X29790D01*
X28975Y369421D01*
X27367Y371028D01*
X25400Y371843D01*
D02*
G37*
G36*
X22860D02*
X20893Y371028D01*
X19285Y369421D01*
X18470Y367453D01*
X22860D01*
Y371843D01*
D02*
G37*
G36*
X29790Y364913D02*
X25400D01*
Y360523D01*
X27367Y361338D01*
X28975Y362946D01*
X29790Y364913D01*
D02*
G37*
G36*
X22860D02*
X18470D01*
X19285Y362946D01*
X20893Y361338D01*
X22860Y360523D01*
Y364913D01*
D02*
G37*
G36*
X139700Y361556D02*
Y357166D01*
X144090D01*
X143275Y359134D01*
X141667Y360741D01*
X139700Y361556D01*
D02*
G37*
G36*
X137160D02*
X135193Y360741D01*
X133585Y359134D01*
X132770Y357166D01*
X137160D01*
Y361556D01*
D02*
G37*
G36*
X116840D02*
Y357166D01*
X121230D01*
X120415Y359134D01*
X118807Y360741D01*
X116840Y361556D01*
D02*
G37*
G36*
X114300D02*
X112333Y360741D01*
X110725Y359134D01*
X109910Y357166D01*
X114300D01*
Y361556D01*
D02*
G37*
G36*
X93980D02*
Y357166D01*
X98370D01*
X97555Y359134D01*
X95947Y360741D01*
X93980Y361556D01*
D02*
G37*
G36*
X91440D02*
X89473Y360741D01*
X87865Y359134D01*
X87050Y357166D01*
X91440D01*
Y361556D01*
D02*
G37*
G36*
X314960Y359016D02*
Y354626D01*
X319350D01*
X318535Y356594D01*
X316927Y358201D01*
X314960Y359016D01*
D02*
G37*
G36*
X312420D02*
X310453Y358201D01*
X308845Y356594D01*
X308030Y354626D01*
X312420D01*
Y359016D01*
D02*
G37*
G36*
X292100D02*
Y354626D01*
X296490D01*
X295675Y356594D01*
X294067Y358201D01*
X292100Y359016D01*
D02*
G37*
G36*
X289560D02*
X287593Y358201D01*
X285985Y356594D01*
X285170Y354626D01*
X289560D01*
Y359016D01*
D02*
G37*
G36*
X269240D02*
Y354626D01*
X273630D01*
X272815Y356594D01*
X271207Y358201D01*
X269240Y359016D01*
D02*
G37*
G36*
X266700D02*
X264733Y358201D01*
X263125Y356594D01*
X262310Y354626D01*
X266700D01*
Y359016D01*
D02*
G37*
G36*
X144090Y354626D02*
X139700D01*
Y350237D01*
X141667Y351051D01*
X143275Y352659D01*
X144090Y354626D01*
D02*
G37*
G36*
X137160D02*
X132770D01*
X133585Y352659D01*
X135193Y351051D01*
X137160Y350237D01*
Y354626D01*
D02*
G37*
G36*
X121230D02*
X116840D01*
Y350237D01*
X118807Y351051D01*
X120415Y352659D01*
X121230Y354626D01*
D02*
G37*
G36*
X114300D02*
X109910D01*
X110725Y352659D01*
X112333Y351051D01*
X114300Y350237D01*
Y354626D01*
D02*
G37*
G36*
X98370D02*
X93980D01*
Y350237D01*
X95947Y351051D01*
X97555Y352659D01*
X98370Y354626D01*
D02*
G37*
G36*
X91440D02*
X87050D01*
X87865Y352659D01*
X89473Y351051D01*
X91440Y350237D01*
Y354626D01*
D02*
G37*
G36*
X319350Y352086D02*
X314960D01*
Y347696D01*
X316927Y348511D01*
X318535Y350119D01*
X319350Y352086D01*
D02*
G37*
G36*
X312420D02*
X308030D01*
X308845Y350119D01*
X310453Y348511D01*
X312420Y347696D01*
Y352086D01*
D02*
G37*
G36*
X296490D02*
X292100D01*
Y347696D01*
X294067Y348511D01*
X295675Y350119D01*
X296490Y352086D01*
D02*
G37*
G36*
X289560D02*
X285170D01*
X285985Y350119D01*
X287593Y348511D01*
X289560Y347696D01*
Y352086D01*
D02*
G37*
G36*
X273630D02*
X269240D01*
Y347696D01*
X271207Y348511D01*
X272815Y350119D01*
X273630Y352086D01*
D02*
G37*
G36*
X266700D02*
X262310D01*
X263125Y350119D01*
X264733Y348511D01*
X266700Y347696D01*
Y352086D01*
D02*
G37*
G36*
X25400Y348009D02*
Y343620D01*
X29790D01*
X28975Y345587D01*
X27367Y347195D01*
X25400Y348009D01*
D02*
G37*
G36*
X22860D02*
X20893Y347195D01*
X19285Y345587D01*
X18470Y343620D01*
X22860D01*
Y348009D01*
D02*
G37*
G36*
X372110Y542797D02*
X369789Y542491D01*
X369497Y542370D01*
X363570D01*
Y536443D01*
X363449Y536151D01*
X363143Y533830D01*
Y391160D01*
X363449Y388839D01*
X364345Y386677D01*
X365770Y384820D01*
X375930Y374660D01*
X377787Y373235D01*
X379949Y372339D01*
X382270Y372033D01*
X816706D01*
X841379Y347360D01*
X840893Y346187D01*
X735330D01*
X733100Y345743D01*
X731210Y344480D01*
X723963Y337234D01*
X715447Y345750D01*
X713557Y347013D01*
X711327Y347457D01*
X654445D01*
X653159Y348744D01*
X651131Y349914D01*
X648870Y350520D01*
X646530D01*
X644269Y349914D01*
X642241Y348744D01*
X640955Y347457D01*
X626237D01*
X624007Y347013D01*
X622117Y345750D01*
X615378Y339012D01*
X608640Y345750D01*
X606750Y347013D01*
X604520Y347457D01*
X547765D01*
X546479Y348744D01*
X544451Y349914D01*
X542190Y350520D01*
X539850D01*
X537589Y349914D01*
X535561Y348744D01*
X534275Y347457D01*
X519430D01*
X517200Y347013D01*
X515310Y345750D01*
X509270Y339711D01*
X503230Y345750D01*
X501340Y347013D01*
X499110Y347457D01*
X442355D01*
X441069Y348744D01*
X439041Y349914D01*
X436780Y350520D01*
X434440D01*
X432179Y349914D01*
X430151Y348744D01*
X428865Y347457D01*
X414020D01*
X411790Y347013D01*
X409900Y345750D01*
X400253Y336103D01*
X398990Y334213D01*
X398546Y331983D01*
Y321488D01*
X398135Y321250D01*
X396243Y319358D01*
X394905Y317042D01*
X394213Y314458D01*
Y311782D01*
X394905Y309198D01*
X396243Y306882D01*
X398135Y304990D01*
X398546Y304752D01*
Y295778D01*
X396533Y293765D01*
X395270Y291875D01*
X394826Y289645D01*
Y278010D01*
X389613D01*
Y257930D01*
X394826D01*
Y253327D01*
X391069Y249570D01*
X373471D01*
X370513Y252527D01*
X368623Y253790D01*
X368470Y253821D01*
X366980Y255311D01*
Y257930D01*
X372193D01*
Y278010D01*
X364901D01*
Y306280D01*
X365503Y306882D01*
X366841Y309198D01*
X367533Y311782D01*
Y314458D01*
X366841Y317042D01*
X365503Y319358D01*
X363611Y321250D01*
X361295Y322588D01*
X358711Y323280D01*
X356035D01*
X353451Y322588D01*
X351135Y321250D01*
X349243Y319358D01*
X347905Y317042D01*
X347213Y314458D01*
Y311782D01*
X347905Y309198D01*
X349243Y306882D01*
X351135Y304990D01*
X353247Y303770D01*
Y278010D01*
X350113D01*
Y257930D01*
X355326D01*
Y252897D01*
X355770Y250667D01*
X357033Y248777D01*
X361523Y244287D01*
X363413Y243023D01*
X363566Y242993D01*
X365230Y241329D01*
Y231140D01*
X327660D01*
Y30480D01*
X745490D01*
Y231140D01*
X718080D01*
Y241264D01*
X723640Y246825D01*
X724903Y248715D01*
X725347Y250945D01*
Y257930D01*
X730560D01*
Y278010D01*
X729737D01*
Y304752D01*
X730148Y304990D01*
X732040Y306882D01*
X733378Y309198D01*
X734070Y311782D01*
Y314458D01*
X733378Y317042D01*
X732040Y319358D01*
X730148Y321250D01*
X729737Y321488D01*
Y326526D01*
X737744Y334533D01*
X847965D01*
X848012Y334486D01*
X848370Y334020D01*
X848836Y333662D01*
X849251Y333246D01*
X849761Y332952D01*
X850227Y332595D01*
X850770Y332370D01*
X851279Y332076D01*
X851846Y331924D01*
X852389Y331699D01*
X852972Y331622D01*
X853540Y331470D01*
X854127D01*
X854710Y331393D01*
X855293Y331470D01*
X855880D01*
X856448Y331622D01*
X857031Y331699D01*
X857574Y331924D01*
X858141Y332076D01*
X858651Y332370D01*
X859193Y332595D01*
X859660Y332952D01*
X860169Y333246D01*
X860584Y333662D01*
X861050Y334020D01*
X861408Y334486D01*
X861824Y334901D01*
X862118Y335410D01*
X862475Y335877D01*
X862700Y336419D01*
X862994Y336929D01*
X863146Y337496D01*
X863371Y338039D01*
X863448Y338622D01*
X863600Y339190D01*
Y339777D01*
X863677Y340360D01*
Y346710D01*
X863371Y349031D01*
X862475Y351193D01*
X861050Y353050D01*
X826760Y387340D01*
X824903Y388765D01*
X822741Y389661D01*
X820420Y389967D01*
X385984D01*
X381077Y394874D01*
Y533830D01*
X380771Y536151D01*
X380650Y536443D01*
Y542370D01*
X374723D01*
X374431Y542491D01*
X372110Y542797D01*
D02*
G37*
G36*
X29790Y341080D02*
X25400D01*
Y336690D01*
X27367Y337505D01*
X28975Y339112D01*
X29790Y341080D01*
D02*
G37*
G36*
X22860D02*
X18470D01*
X19285Y339112D01*
X20893Y337505D01*
X22860Y336690D01*
Y341080D01*
D02*
G37*
G36*
X139700Y337723D02*
Y333333D01*
X144090D01*
X143275Y335300D01*
X141667Y336908D01*
X139700Y337723D01*
D02*
G37*
G36*
X137160D02*
X135193Y336908D01*
X133585Y335300D01*
X132770Y333333D01*
X137160D01*
Y337723D01*
D02*
G37*
G36*
X116840D02*
Y333333D01*
X121230D01*
X120415Y335300D01*
X118807Y336908D01*
X116840Y337723D01*
D02*
G37*
G36*
X114300D02*
X112333Y336908D01*
X110725Y335300D01*
X109910Y333333D01*
X114300D01*
Y337723D01*
D02*
G37*
G36*
X93980D02*
Y333333D01*
X98370D01*
X97555Y335300D01*
X95947Y336908D01*
X93980Y337723D01*
D02*
G37*
G36*
X91440D02*
X89473Y336908D01*
X87865Y335300D01*
X87050Y333333D01*
X91440D01*
Y337723D01*
D02*
G37*
G36*
X1209040Y335987D02*
Y331597D01*
X1213430D01*
X1212615Y333564D01*
X1211007Y335172D01*
X1209040Y335987D01*
D02*
G37*
G36*
X1206500D02*
X1204533Y335172D01*
X1202925Y333564D01*
X1202110Y331597D01*
X1206500D01*
Y335987D01*
D02*
G37*
G36*
X314960Y335182D02*
Y330793D01*
X319350D01*
X318535Y332760D01*
X316927Y334368D01*
X314960Y335182D01*
D02*
G37*
G36*
X312420D02*
X310453Y334368D01*
X308845Y332760D01*
X308030Y330793D01*
X312420D01*
Y335182D01*
D02*
G37*
G36*
X292100D02*
Y330793D01*
X296490D01*
X295675Y332760D01*
X294067Y334368D01*
X292100Y335182D01*
D02*
G37*
G36*
X289560D02*
X287593Y334368D01*
X285985Y332760D01*
X285170Y330793D01*
X289560D01*
Y335182D01*
D02*
G37*
G36*
X269240D02*
Y330793D01*
X273630D01*
X272815Y332760D01*
X271207Y334368D01*
X269240Y335182D01*
D02*
G37*
G36*
X266700D02*
X264733Y334368D01*
X263125Y332760D01*
X262310Y330793D01*
X266700D01*
Y335182D01*
D02*
G37*
G36*
X144090Y330793D02*
X139700D01*
Y326403D01*
X141667Y327218D01*
X143275Y328825D01*
X144090Y330793D01*
D02*
G37*
G36*
X137160D02*
X132770D01*
X133585Y328825D01*
X135193Y327218D01*
X137160Y326403D01*
Y330793D01*
D02*
G37*
G36*
X121230D02*
X116840D01*
Y326403D01*
X118807Y327218D01*
X120415Y328825D01*
X121230Y330793D01*
D02*
G37*
G36*
X114300D02*
X109910D01*
X110725Y328825D01*
X112333Y327218D01*
X114300Y326403D01*
Y330793D01*
D02*
G37*
G36*
X98370D02*
X93980D01*
Y326403D01*
X95947Y327218D01*
X97555Y328825D01*
X98370Y330793D01*
D02*
G37*
G36*
X91440D02*
X87050D01*
X87865Y328825D01*
X89473Y327218D01*
X91440Y326403D01*
Y330793D01*
D02*
G37*
G36*
X1213430Y329057D02*
X1209040D01*
Y324667D01*
X1211007Y325482D01*
X1212615Y327090D01*
X1213430Y329057D01*
D02*
G37*
G36*
X1206500D02*
X1202110D01*
X1202925Y327090D01*
X1204533Y325482D01*
X1206500Y324667D01*
Y329057D01*
D02*
G37*
G36*
X319350Y328253D02*
X314960D01*
Y323863D01*
X316927Y324678D01*
X318535Y326285D01*
X319350Y328253D01*
D02*
G37*
G36*
X312420D02*
X308030D01*
X308845Y326285D01*
X310453Y324678D01*
X312420Y323863D01*
Y328253D01*
D02*
G37*
G36*
X296490D02*
X292100D01*
Y323863D01*
X294067Y324678D01*
X295675Y326285D01*
X296490Y328253D01*
D02*
G37*
G36*
X289560D02*
X285170D01*
X285985Y326285D01*
X287593Y324678D01*
X289560Y323863D01*
Y328253D01*
D02*
G37*
G36*
X273630D02*
X269240D01*
Y323863D01*
X271207Y324678D01*
X272815Y326285D01*
X273630Y328253D01*
D02*
G37*
G36*
X266700D02*
X262310D01*
X263125Y326285D01*
X264733Y324678D01*
X266700Y323863D01*
Y328253D01*
D02*
G37*
G36*
X25400Y324176D02*
Y319786D01*
X29790D01*
X28975Y321753D01*
X27367Y323361D01*
X25400Y324176D01*
D02*
G37*
G36*
X22860D02*
X20893Y323361D01*
X19285Y321753D01*
X18470Y319786D01*
X22860D01*
Y324176D01*
D02*
G37*
G36*
X29790Y317246D02*
X25400D01*
Y312856D01*
X27367Y313671D01*
X28975Y315279D01*
X29790Y317246D01*
D02*
G37*
G36*
X22860D02*
X18470D01*
X19285Y315279D01*
X20893Y313671D01*
X22860Y312856D01*
Y317246D01*
D02*
G37*
G36*
X139700Y313889D02*
Y309499D01*
X144090D01*
X143275Y311466D01*
X141667Y313074D01*
X139700Y313889D01*
D02*
G37*
G36*
X137160D02*
X135193Y313074D01*
X133585Y311466D01*
X132770Y309499D01*
X137160D01*
Y313889D01*
D02*
G37*
G36*
X116840D02*
Y309499D01*
X121230D01*
X120415Y311466D01*
X118807Y313074D01*
X116840Y313889D01*
D02*
G37*
G36*
X114300D02*
X112333Y313074D01*
X110725Y311466D01*
X109910Y309499D01*
X114300D01*
Y313889D01*
D02*
G37*
G36*
X93980D02*
Y309499D01*
X98370D01*
X97555Y311466D01*
X95947Y313074D01*
X93980Y313889D01*
D02*
G37*
G36*
X91440D02*
X89473Y313074D01*
X87865Y311466D01*
X87050Y309499D01*
X91440D01*
Y313889D01*
D02*
G37*
G36*
X1209179Y312111D02*
Y307721D01*
X1213569D01*
X1212754Y309688D01*
X1211146Y311296D01*
X1209179Y312111D01*
D02*
G37*
G36*
X1206639D02*
X1204672Y311296D01*
X1203064Y309688D01*
X1202249Y307721D01*
X1206639D01*
Y312111D01*
D02*
G37*
G36*
X314960Y311349D02*
Y306959D01*
X319350D01*
X318535Y308926D01*
X316927Y310534D01*
X314960Y311349D01*
D02*
G37*
G36*
X312420D02*
X310453Y310534D01*
X308845Y308926D01*
X308030Y306959D01*
X312420D01*
Y311349D01*
D02*
G37*
G36*
X292100D02*
Y306959D01*
X296490D01*
X295675Y308926D01*
X294067Y310534D01*
X292100Y311349D01*
D02*
G37*
G36*
X289560D02*
X287593Y310534D01*
X285985Y308926D01*
X285170Y306959D01*
X289560D01*
Y311349D01*
D02*
G37*
G36*
X269240D02*
Y306959D01*
X273630D01*
X272815Y308926D01*
X271207Y310534D01*
X269240Y311349D01*
D02*
G37*
G36*
X266700D02*
X264733Y310534D01*
X263125Y308926D01*
X262310Y306959D01*
X266700D01*
Y311349D01*
D02*
G37*
G36*
X144090Y306959D02*
X139700D01*
Y302569D01*
X141667Y303384D01*
X143275Y304992D01*
X144090Y306959D01*
D02*
G37*
G36*
X137160D02*
X132770D01*
X133585Y304992D01*
X135193Y303384D01*
X137160Y302569D01*
Y306959D01*
D02*
G37*
G36*
X121230D02*
X116840D01*
Y302569D01*
X118807Y303384D01*
X120415Y304992D01*
X121230Y306959D01*
D02*
G37*
G36*
X114300D02*
X109910D01*
X110725Y304992D01*
X112333Y303384D01*
X114300Y302569D01*
Y306959D01*
D02*
G37*
G36*
X98370D02*
X93980D01*
Y302569D01*
X95947Y303384D01*
X97555Y304992D01*
X98370Y306959D01*
D02*
G37*
G36*
X91440D02*
X87050D01*
X87865Y304992D01*
X89473Y303384D01*
X91440Y302569D01*
Y306959D01*
D02*
G37*
G36*
X1213569Y305181D02*
X1209179D01*
Y300791D01*
X1211146Y301606D01*
X1212754Y303214D01*
X1213569Y305181D01*
D02*
G37*
G36*
X1206639D02*
X1202249D01*
X1203064Y303214D01*
X1204672Y301606D01*
X1206639Y300791D01*
Y305181D01*
D02*
G37*
G36*
X319350Y304419D02*
X314960D01*
Y300029D01*
X316927Y300844D01*
X318535Y302452D01*
X319350Y304419D01*
D02*
G37*
G36*
X312420D02*
X308030D01*
X308845Y302452D01*
X310453Y300844D01*
X312420Y300029D01*
Y304419D01*
D02*
G37*
G36*
X296490D02*
X292100D01*
Y300029D01*
X294067Y300844D01*
X295675Y302452D01*
X296490Y304419D01*
D02*
G37*
G36*
X289560D02*
X285170D01*
X285985Y302452D01*
X287593Y300844D01*
X289560Y300029D01*
Y304419D01*
D02*
G37*
G36*
X273630D02*
X269240D01*
Y300029D01*
X271207Y300844D01*
X272815Y302452D01*
X273630Y304419D01*
D02*
G37*
G36*
X266700D02*
X262310D01*
X263125Y302452D01*
X264733Y300844D01*
X266700Y300029D01*
Y304419D01*
D02*
G37*
G36*
X25400Y300342D02*
Y295952D01*
X29790D01*
X28975Y297920D01*
X27367Y299527D01*
X25400Y300342D01*
D02*
G37*
G36*
X22860D02*
X20893Y299527D01*
X19285Y297920D01*
X18470Y295952D01*
X22860D01*
Y300342D01*
D02*
G37*
G36*
X29790Y293412D02*
X25400D01*
Y289023D01*
X27367Y289837D01*
X28975Y291445D01*
X29790Y293412D01*
D02*
G37*
G36*
X22860D02*
X18470D01*
X19285Y291445D01*
X20893Y289837D01*
X22860Y289023D01*
Y293412D01*
D02*
G37*
G36*
X1209179Y288235D02*
Y283845D01*
X1213569D01*
X1212754Y285812D01*
X1211146Y287420D01*
X1209179Y288235D01*
D02*
G37*
G36*
X1206639D02*
X1204672Y287420D01*
X1203064Y285812D01*
X1202249Y283845D01*
X1206639D01*
Y288235D01*
D02*
G37*
G36*
X1213569Y281305D02*
X1209179D01*
Y276915D01*
X1211146Y277730D01*
X1212754Y279338D01*
X1213569Y281305D01*
D02*
G37*
G36*
X1206639D02*
X1202249D01*
X1203064Y279338D01*
X1204672Y277730D01*
X1206639Y276915D01*
Y281305D01*
D02*
G37*
G36*
X25400Y276508D02*
Y272119D01*
X29790D01*
X28975Y274086D01*
X27367Y275694D01*
X25400Y276508D01*
D02*
G37*
G36*
X22860D02*
X20893Y275694D01*
X19285Y274086D01*
X18470Y272119D01*
X22860D01*
Y276508D01*
D02*
G37*
G36*
X29790Y269579D02*
X25400D01*
Y265189D01*
X27367Y266004D01*
X28975Y267611D01*
X29790Y269579D01*
D02*
G37*
G36*
X22860D02*
X18470D01*
X19285Y267611D01*
X20893Y266004D01*
X22860Y265189D01*
Y269579D01*
D02*
G37*
G36*
X1209179Y264232D02*
Y259842D01*
X1213569D01*
X1212754Y261809D01*
X1211146Y263417D01*
X1209179Y264232D01*
D02*
G37*
G36*
X1206639D02*
X1204672Y263417D01*
X1203064Y261809D01*
X1202249Y259842D01*
X1206639D01*
Y264232D01*
D02*
G37*
G36*
X413887Y870585D02*
X411613D01*
X409513Y869715D01*
X407905Y868107D01*
X407035Y866007D01*
Y863733D01*
X407905Y861633D01*
X408865Y860672D01*
Y828040D01*
X409161Y826553D01*
X410003Y825293D01*
X459533Y775763D01*
X460793Y774921D01*
X462280Y774625D01*
X517772D01*
X518733Y773665D01*
X520833Y772795D01*
X522191D01*
X546025Y748961D01*
Y477122D01*
X546321Y475635D01*
X547163Y474375D01*
X592485Y429053D01*
X593745Y428211D01*
X595232Y427915D01*
X920411D01*
X935915Y412411D01*
Y265818D01*
X934955Y264857D01*
X934085Y262757D01*
Y260483D01*
X934955Y258383D01*
X936563Y256775D01*
X938663Y255905D01*
X940937D01*
X943037Y256775D01*
X944645Y258383D01*
X945515Y260483D01*
Y262757D01*
X944645Y264857D01*
X943685Y265818D01*
Y414020D01*
X943389Y415507D01*
X942547Y416767D01*
X924767Y434547D01*
X923507Y435389D01*
X922020Y435685D01*
X596841D01*
X553795Y478731D01*
Y750570D01*
X553499Y752057D01*
X552657Y753317D01*
X527685Y778289D01*
Y779647D01*
X526815Y781747D01*
X525207Y783355D01*
X523107Y784225D01*
X520833D01*
X518733Y783355D01*
X517772Y782395D01*
X463889D01*
X416635Y829649D01*
Y860672D01*
X417595Y861633D01*
X418465Y863733D01*
Y866007D01*
X417595Y868107D01*
X415987Y869715D01*
X413887Y870585D01*
D02*
G37*
G36*
X1213569Y257302D02*
X1209179D01*
Y252912D01*
X1211146Y253727D01*
X1212754Y255335D01*
X1213569Y257302D01*
D02*
G37*
G36*
X1206639D02*
X1202249D01*
X1203064Y255335D01*
X1204672Y253727D01*
X1206639Y252912D01*
Y257302D01*
D02*
G37*
G36*
X25400Y252675D02*
Y248285D01*
X29790D01*
X28975Y250252D01*
X27367Y251860D01*
X25400Y252675D01*
D02*
G37*
G36*
X22860D02*
X20893Y251860D01*
X19285Y250252D01*
X18470Y248285D01*
X22860D01*
Y252675D01*
D02*
G37*
G36*
X29790Y245745D02*
X25400D01*
Y241355D01*
X27367Y242170D01*
X28975Y243778D01*
X29790Y245745D01*
D02*
G37*
G36*
X22860D02*
X18470D01*
X19285Y243778D01*
X20893Y242170D01*
X22860Y241355D01*
Y245745D01*
D02*
G37*
G36*
X1209318Y240356D02*
Y235966D01*
X1213708D01*
X1212893Y237933D01*
X1211285Y239541D01*
X1209318Y240356D01*
D02*
G37*
G36*
X1206778D02*
X1204811Y239541D01*
X1203203Y237933D01*
X1202388Y235966D01*
X1206778D01*
Y240356D01*
D02*
G37*
G36*
X1213708Y233426D02*
X1209318D01*
Y229036D01*
X1211285Y229851D01*
X1212893Y231459D01*
X1213708Y233426D01*
D02*
G37*
G36*
X1206778D02*
X1202388D01*
X1203203Y231459D01*
X1204811Y229851D01*
X1206778Y229036D01*
Y233426D01*
D02*
G37*
G36*
X25400Y228841D02*
Y224451D01*
X29790D01*
X28975Y226419D01*
X27367Y228026D01*
X25400Y228841D01*
D02*
G37*
G36*
X22860D02*
X20893Y228026D01*
X19285Y226419D01*
X18470Y224451D01*
X22860D01*
Y228841D01*
D02*
G37*
G36*
X29790Y221911D02*
X25400D01*
Y217521D01*
X27367Y218336D01*
X28975Y219944D01*
X29790Y221911D01*
D02*
G37*
G36*
X22860D02*
X18470D01*
X19285Y219944D01*
X20893Y218336D01*
X22860Y217521D01*
Y221911D01*
D02*
G37*
G36*
X1209318Y216480D02*
Y212090D01*
X1213708D01*
X1212893Y214057D01*
X1211285Y215665D01*
X1209318Y216480D01*
D02*
G37*
G36*
X1206778D02*
X1204811Y215665D01*
X1203203Y214057D01*
X1202388Y212090D01*
X1206778D01*
Y216480D01*
D02*
G37*
G36*
X1213708Y209550D02*
X1209318D01*
Y205160D01*
X1211285Y205975D01*
X1212893Y207583D01*
X1213708Y209550D01*
D02*
G37*
G36*
X1206778D02*
X1202388D01*
X1203203Y207583D01*
X1204811Y205975D01*
X1206778Y205160D01*
Y209550D01*
D02*
G37*
G36*
X853307Y563245D02*
X851033D01*
X848933Y562375D01*
X847325Y560767D01*
X846455Y558667D01*
Y556393D01*
X847325Y554293D01*
X848933Y552685D01*
X851033Y551815D01*
X851476D01*
X954318Y448973D01*
Y220980D01*
X954663Y219246D01*
X955645Y217775D01*
X970885Y202535D01*
X972356Y201553D01*
X974090Y201208D01*
X1028700D01*
X1030434Y201553D01*
X1031905Y202535D01*
X1044605Y215235D01*
X1044605Y215235D01*
X1045587Y216706D01*
X1045932Y218440D01*
X1045932Y218440D01*
Y233680D01*
X1045932Y233680D01*
X1045587Y235414D01*
X1044605Y236885D01*
X1044605Y236885D01*
X1038225Y243264D01*
Y243707D01*
X1037355Y245807D01*
X1035747Y247415D01*
X1033647Y248285D01*
X1031373D01*
X1029273Y247415D01*
X1027665Y245807D01*
X1026795Y243707D01*
Y241433D01*
X1027665Y239333D01*
X1029273Y237725D01*
X1031373Y236855D01*
X1031816D01*
X1036868Y231803D01*
Y220317D01*
X1026823Y210272D01*
X975967D01*
X963382Y222857D01*
Y450850D01*
X963382Y450850D01*
X963037Y452584D01*
X962055Y454055D01*
X857885Y558224D01*
Y558667D01*
X857015Y560767D01*
X855407Y562375D01*
X853307Y563245D01*
D02*
G37*
G36*
X25400Y205007D02*
Y200618D01*
X29790D01*
X28975Y202585D01*
X27367Y204193D01*
X25400Y205007D01*
D02*
G37*
G36*
X22860D02*
X20893Y204193D01*
X19285Y202585D01*
X18470Y200618D01*
X22860D01*
Y205007D01*
D02*
G37*
G36*
X29790Y198078D02*
X25400D01*
Y193688D01*
X27367Y194503D01*
X28975Y196110D01*
X29790Y198078D01*
D02*
G37*
G36*
X22860D02*
X18470D01*
X19285Y196110D01*
X20893Y194503D01*
X22860Y193688D01*
Y198078D01*
D02*
G37*
G36*
X1209318Y192477D02*
Y188087D01*
X1213708D01*
X1212893Y190054D01*
X1211285Y191662D01*
X1209318Y192477D01*
D02*
G37*
G36*
X1206778D02*
X1204811Y191662D01*
X1203203Y190054D01*
X1202388Y188087D01*
X1206778D01*
Y192477D01*
D02*
G37*
G36*
X1213708Y185547D02*
X1209318D01*
Y181157D01*
X1211285Y181972D01*
X1212893Y183580D01*
X1213708Y185547D01*
D02*
G37*
G36*
X1206778D02*
X1202388D01*
X1203203Y183580D01*
X1204811Y181972D01*
X1206778Y181157D01*
Y185547D01*
D02*
G37*
G36*
X97790Y181301D02*
Y176911D01*
X102180D01*
X101365Y178878D01*
X99757Y180486D01*
X97790Y181301D01*
D02*
G37*
G36*
X95250D02*
X93283Y180486D01*
X91675Y178878D01*
X90860Y176911D01*
X95250D01*
Y181301D01*
D02*
G37*
G36*
X74930D02*
Y176911D01*
X79320D01*
X78505Y178878D01*
X76897Y180486D01*
X74930Y181301D01*
D02*
G37*
G36*
X72390D02*
X70423Y180486D01*
X68815Y178878D01*
X68000Y176911D01*
X72390D01*
Y181301D01*
D02*
G37*
G36*
X52070D02*
Y176911D01*
X56460D01*
X55645Y178878D01*
X54037Y180486D01*
X52070Y181301D01*
D02*
G37*
G36*
X49530D02*
X47563Y180486D01*
X45955Y178878D01*
X45140Y176911D01*
X49530D01*
Y181301D01*
D02*
G37*
G36*
X25400Y181174D02*
Y176784D01*
X29790D01*
X28975Y178751D01*
X27367Y180359D01*
X25400Y181174D01*
D02*
G37*
G36*
X22860D02*
X20893Y180359D01*
X19285Y178751D01*
X18470Y176784D01*
X22860D01*
Y181174D01*
D02*
G37*
G36*
X102180Y174371D02*
X97790D01*
Y169981D01*
X99757Y170796D01*
X101365Y172404D01*
X102180Y174371D01*
D02*
G37*
G36*
X95250D02*
X90860D01*
X91675Y172404D01*
X93283Y170796D01*
X95250Y169981D01*
Y174371D01*
D02*
G37*
G36*
X79320D02*
X74930D01*
Y169981D01*
X76897Y170796D01*
X78505Y172404D01*
X79320Y174371D01*
D02*
G37*
G36*
X72390D02*
X68000D01*
X68815Y172404D01*
X70423Y170796D01*
X72390Y169981D01*
Y174371D01*
D02*
G37*
G36*
X56460D02*
X52070D01*
Y169981D01*
X54037Y170796D01*
X55645Y172404D01*
X56460Y174371D01*
D02*
G37*
G36*
X49530D02*
X45140D01*
X45955Y172404D01*
X47563Y170796D01*
X49530Y169981D01*
Y174371D01*
D02*
G37*
G36*
X29790Y174244D02*
X25400D01*
Y169854D01*
X27367Y170669D01*
X28975Y172277D01*
X29790Y174244D01*
D02*
G37*
G36*
X22860D02*
X18470D01*
X19285Y172277D01*
X20893Y170669D01*
X22860Y169854D01*
Y174244D01*
D02*
G37*
G36*
X1209457Y168601D02*
Y164211D01*
X1213847D01*
X1213032Y166178D01*
X1211424Y167786D01*
X1209457Y168601D01*
D02*
G37*
G36*
X1206917D02*
X1204949Y167786D01*
X1203342Y166178D01*
X1202527Y164211D01*
X1206917D01*
Y168601D01*
D02*
G37*
G36*
X1213847Y161671D02*
X1209457D01*
Y157281D01*
X1211424Y158096D01*
X1213032Y159704D01*
X1213847Y161671D01*
D02*
G37*
G36*
X1206917D02*
X1202527D01*
X1203342Y159704D01*
X1204949Y158096D01*
X1206917Y157281D01*
Y161671D01*
D02*
G37*
G36*
X97790Y157467D02*
Y153077D01*
X102180D01*
X101365Y155045D01*
X99757Y156652D01*
X97790Y157467D01*
D02*
G37*
G36*
X95250D02*
X93283Y156652D01*
X91675Y155045D01*
X90860Y153077D01*
X95250D01*
Y157467D01*
D02*
G37*
G36*
X74930D02*
Y153077D01*
X79320D01*
X78505Y155045D01*
X76897Y156652D01*
X74930Y157467D01*
D02*
G37*
G36*
X72390D02*
X70423Y156652D01*
X68815Y155045D01*
X68000Y153077D01*
X72390D01*
Y157467D01*
D02*
G37*
G36*
X52070D02*
Y153077D01*
X56460D01*
X55645Y155045D01*
X54037Y156652D01*
X52070Y157467D01*
D02*
G37*
G36*
X49530D02*
X47563Y156652D01*
X45955Y155045D01*
X45140Y153077D01*
X49530D01*
Y157467D01*
D02*
G37*
G36*
X27087Y157298D02*
Y152908D01*
X31477D01*
X30662Y154875D01*
X29054Y156483D01*
X27087Y157298D01*
D02*
G37*
G36*
X24547D02*
X22580Y156483D01*
X20972Y154875D01*
X20157Y152908D01*
X24547D01*
Y157298D01*
D02*
G37*
G36*
X102180Y150537D02*
X97790D01*
Y146147D01*
X99757Y146962D01*
X101365Y148570D01*
X102180Y150537D01*
D02*
G37*
G36*
X95250D02*
X90860D01*
X91675Y148570D01*
X93283Y146962D01*
X95250Y146147D01*
Y150537D01*
D02*
G37*
G36*
X79320D02*
X74930D01*
Y146147D01*
X76897Y146962D01*
X78505Y148570D01*
X79320Y150537D01*
D02*
G37*
G36*
X72390D02*
X68000D01*
X68815Y148570D01*
X70423Y146962D01*
X72390Y146147D01*
Y150537D01*
D02*
G37*
G36*
X56460D02*
X52070D01*
Y146147D01*
X54037Y146962D01*
X55645Y148570D01*
X56460Y150537D01*
D02*
G37*
G36*
X49530D02*
X45140D01*
X45955Y148570D01*
X47563Y146962D01*
X49530Y146147D01*
Y150537D01*
D02*
G37*
G36*
X31477Y150368D02*
X27087D01*
Y145978D01*
X29054Y146793D01*
X30662Y148401D01*
X31477Y150368D01*
D02*
G37*
G36*
X24547D02*
X20157D01*
X20972Y148401D01*
X22580Y146793D01*
X24547Y145978D01*
Y150368D01*
D02*
G37*
G36*
X1209457Y144725D02*
Y140335D01*
X1213847D01*
X1213032Y142302D01*
X1211424Y143910D01*
X1209457Y144725D01*
D02*
G37*
G36*
X1206917D02*
X1204949Y143910D01*
X1203342Y142302D01*
X1202527Y140335D01*
X1206917D01*
Y144725D01*
D02*
G37*
G36*
X1213847Y137795D02*
X1209457D01*
Y133405D01*
X1211424Y134220D01*
X1213032Y135828D01*
X1213847Y137795D01*
D02*
G37*
G36*
X1206917D02*
X1202527D01*
X1203342Y135828D01*
X1204949Y134220D01*
X1206917Y133405D01*
Y137795D01*
D02*
G37*
G36*
X1123950Y133930D02*
X1121983Y133115D01*
X1120375Y131507D01*
X1119846Y130230D01*
X1118471D01*
X1118000Y131368D01*
X1116392Y132976D01*
X1114425Y133791D01*
Y128131D01*
Y122471D01*
X1116392Y123286D01*
X1118000Y124894D01*
X1118529Y126171D01*
X1119904D01*
X1120375Y125033D01*
X1121983Y123425D01*
X1123950Y122610D01*
Y128270D01*
Y133930D01*
D02*
G37*
G36*
X1138555Y133791D02*
Y129401D01*
X1142945D01*
X1142130Y131368D01*
X1140522Y132976D01*
X1138555Y133791D01*
D02*
G37*
G36*
X1111885D02*
X1109918Y132976D01*
X1108310Y131368D01*
X1107495Y129401D01*
X1111885D01*
Y133791D01*
D02*
G37*
G36*
X97790Y133633D02*
Y129244D01*
X102180D01*
X101365Y131211D01*
X99757Y132819D01*
X97790Y133633D01*
D02*
G37*
G36*
X95250D02*
X93283Y132819D01*
X91675Y131211D01*
X90860Y129244D01*
X95250D01*
Y133633D01*
D02*
G37*
G36*
X74930D02*
Y129244D01*
X79320D01*
X78505Y131211D01*
X76897Y132819D01*
X74930Y133633D01*
D02*
G37*
G36*
X72390D02*
X70423Y132819D01*
X68815Y131211D01*
X68000Y129244D01*
X72390D01*
Y133633D01*
D02*
G37*
G36*
X52070D02*
Y129244D01*
X56460D01*
X55645Y131211D01*
X54037Y132819D01*
X52070Y133633D01*
D02*
G37*
G36*
X49530D02*
X47563Y132819D01*
X45955Y131211D01*
X45140Y129244D01*
X49530D01*
Y133633D01*
D02*
G37*
G36*
X27087Y133295D02*
Y128905D01*
X31477D01*
X30662Y130872D01*
X29054Y132480D01*
X27087Y133295D01*
D02*
G37*
G36*
X24547D02*
X22580Y132480D01*
X20972Y130872D01*
X20157Y128905D01*
X24547D01*
Y133295D01*
D02*
G37*
G36*
X1142945Y126861D02*
X1138555D01*
Y122471D01*
X1140522Y123286D01*
X1142130Y124894D01*
X1142945Y126861D01*
D02*
G37*
G36*
X1126490Y133930D02*
Y128270D01*
Y122610D01*
X1128457Y123425D01*
X1130065Y125033D01*
X1130536Y126171D01*
X1131911D01*
X1132440Y124894D01*
X1134048Y123286D01*
X1136015Y122471D01*
Y128131D01*
Y133791D01*
X1134048Y132976D01*
X1132440Y131368D01*
X1131969Y130230D01*
X1130594D01*
X1130065Y131507D01*
X1128457Y133115D01*
X1126490Y133930D01*
D02*
G37*
G36*
X1111885Y126861D02*
X1107495D01*
X1108310Y124894D01*
X1109918Y123286D01*
X1111885Y122471D01*
Y126861D01*
D02*
G37*
G36*
X102180Y126704D02*
X97790D01*
Y122314D01*
X99757Y123129D01*
X101365Y124736D01*
X102180Y126704D01*
D02*
G37*
G36*
X95250D02*
X90860D01*
X91675Y124736D01*
X93283Y123129D01*
X95250Y122314D01*
Y126704D01*
D02*
G37*
G36*
X79320D02*
X74930D01*
Y122314D01*
X76897Y123129D01*
X78505Y124736D01*
X79320Y126704D01*
D02*
G37*
G36*
X72390D02*
X68000D01*
X68815Y124736D01*
X70423Y123129D01*
X72390Y122314D01*
Y126704D01*
D02*
G37*
G36*
X56460D02*
X52070D01*
Y122314D01*
X54037Y123129D01*
X55645Y124736D01*
X56460Y126704D01*
D02*
G37*
G36*
X49530D02*
X45140D01*
X45955Y124736D01*
X47563Y123129D01*
X49530Y122314D01*
Y126704D01*
D02*
G37*
G36*
X31477Y126365D02*
X27087D01*
Y121975D01*
X29054Y122790D01*
X30662Y124398D01*
X31477Y126365D01*
D02*
G37*
G36*
X24547D02*
X20157D01*
X20972Y124398D01*
X22580Y122790D01*
X24547Y121975D01*
Y126365D01*
D02*
G37*
G36*
X1209457Y120722D02*
Y116332D01*
X1213847D01*
X1213032Y118299D01*
X1211424Y119907D01*
X1209457Y120722D01*
D02*
G37*
G36*
X1206917D02*
X1204949Y119907D01*
X1203342Y118299D01*
X1202527Y116332D01*
X1206917D01*
Y120722D01*
D02*
G37*
G36*
X312420Y116531D02*
Y112141D01*
X316810D01*
X315995Y114108D01*
X314387Y115716D01*
X312420Y116531D01*
D02*
G37*
G36*
X309880D02*
X307913Y115716D01*
X306305Y114108D01*
X305490Y112141D01*
X309880D01*
Y116531D01*
D02*
G37*
G36*
X289560D02*
Y112141D01*
X293950D01*
X293135Y114108D01*
X291527Y115716D01*
X289560Y116531D01*
D02*
G37*
G36*
X287020D02*
X285053Y115716D01*
X283445Y114108D01*
X282630Y112141D01*
X287020D01*
Y116531D01*
D02*
G37*
G36*
X266700D02*
Y112141D01*
X271090D01*
X270275Y114108D01*
X268667Y115716D01*
X266700Y116531D01*
D02*
G37*
G36*
X264160D02*
X262193Y115716D01*
X260585Y114108D01*
X259770Y112141D01*
X264160D01*
Y116531D01*
D02*
G37*
G36*
X1213847Y113792D02*
X1209457D01*
Y109402D01*
X1211424Y110217D01*
X1213032Y111825D01*
X1213847Y113792D01*
D02*
G37*
G36*
X1206917D02*
X1202527D01*
X1203342Y111825D01*
X1204949Y110217D01*
X1206917Y109402D01*
Y113792D01*
D02*
G37*
G36*
X97790Y109800D02*
Y105410D01*
X102180D01*
X101365Y107377D01*
X99757Y108985D01*
X97790Y109800D01*
D02*
G37*
G36*
X95250D02*
X93283Y108985D01*
X91675Y107377D01*
X90860Y105410D01*
X95250D01*
Y109800D01*
D02*
G37*
G36*
X74930D02*
Y105410D01*
X79320D01*
X78505Y107377D01*
X76897Y108985D01*
X74930Y109800D01*
D02*
G37*
G36*
X72390D02*
X70423Y108985D01*
X68815Y107377D01*
X68000Y105410D01*
X72390D01*
Y109800D01*
D02*
G37*
G36*
X52070D02*
Y105410D01*
X56460D01*
X55645Y107377D01*
X54037Y108985D01*
X52070Y109800D01*
D02*
G37*
G36*
X49530D02*
X47563Y108985D01*
X45955Y107377D01*
X45140Y105410D01*
X49530D01*
Y109800D01*
D02*
G37*
G36*
X316810Y109601D02*
X312420D01*
Y105211D01*
X314387Y106026D01*
X315995Y107634D01*
X316810Y109601D01*
D02*
G37*
G36*
X309880D02*
X305490D01*
X306305Y107634D01*
X307913Y106026D01*
X309880Y105211D01*
Y109601D01*
D02*
G37*
G36*
X293950D02*
X289560D01*
Y105211D01*
X291527Y106026D01*
X293135Y107634D01*
X293950Y109601D01*
D02*
G37*
G36*
X287020D02*
X282630D01*
X283445Y107634D01*
X285053Y106026D01*
X287020Y105211D01*
Y109601D01*
D02*
G37*
G36*
X271090D02*
X266700D01*
Y105211D01*
X268667Y106026D01*
X270275Y107634D01*
X271090Y109601D01*
D02*
G37*
G36*
X264160D02*
X259770D01*
X260585Y107634D01*
X262193Y106026D01*
X264160Y105211D01*
Y109601D01*
D02*
G37*
G36*
X27226Y109419D02*
Y105029D01*
X31616D01*
X30801Y106996D01*
X29193Y108604D01*
X27226Y109419D01*
D02*
G37*
G36*
X24686D02*
X22719Y108604D01*
X21111Y106996D01*
X20296Y105029D01*
X24686D01*
Y109419D01*
D02*
G37*
G36*
X961390Y103534D02*
Y99145D01*
X965780D01*
X964965Y101112D01*
X963357Y102720D01*
X961390Y103534D01*
D02*
G37*
G36*
X958850D02*
X956883Y102720D01*
X955275Y101112D01*
X954460Y99145D01*
X958850D01*
Y103534D01*
D02*
G37*
G36*
X938530D02*
Y99145D01*
X942920D01*
X942105Y101112D01*
X940497Y102720D01*
X938530Y103534D01*
D02*
G37*
G36*
X935990D02*
X934023Y102720D01*
X932415Y101112D01*
X931600Y99145D01*
X935990D01*
Y103534D01*
D02*
G37*
G36*
X915670D02*
Y99145D01*
X920060D01*
X919245Y101112D01*
X917637Y102720D01*
X915670Y103534D01*
D02*
G37*
G36*
X913130D02*
X911163Y102720D01*
X909555Y101112D01*
X908740Y99145D01*
X913130D01*
Y103534D01*
D02*
G37*
G36*
X102180Y102870D02*
X97790D01*
Y98480D01*
X99757Y99295D01*
X101365Y100903D01*
X102180Y102870D01*
D02*
G37*
G36*
X95250D02*
X90860D01*
X91675Y100903D01*
X93283Y99295D01*
X95250Y98480D01*
Y102870D01*
D02*
G37*
G36*
X79320D02*
X74930D01*
Y98480D01*
X76897Y99295D01*
X78505Y100903D01*
X79320Y102870D01*
D02*
G37*
G36*
X72390D02*
X68000D01*
X68815Y100903D01*
X70423Y99295D01*
X72390Y98480D01*
Y102870D01*
D02*
G37*
G36*
X56460D02*
X52070D01*
Y98480D01*
X54037Y99295D01*
X55645Y100903D01*
X56460Y102870D01*
D02*
G37*
G36*
X49530D02*
X45140D01*
X45955Y100903D01*
X47563Y99295D01*
X49530Y98480D01*
Y102870D01*
D02*
G37*
G36*
X31616Y102489D02*
X27226D01*
Y98099D01*
X29193Y98914D01*
X30801Y100522D01*
X31616Y102489D01*
D02*
G37*
G36*
X24686D02*
X20296D01*
X21111Y100522D01*
X22719Y98914D01*
X24686Y98099D01*
Y102489D01*
D02*
G37*
G36*
X1209596Y96846D02*
Y92456D01*
X1213986D01*
X1213171Y94423D01*
X1211563Y96031D01*
X1209596Y96846D01*
D02*
G37*
G36*
X1207056D02*
X1205089Y96031D01*
X1203481Y94423D01*
X1202666Y92456D01*
X1207056D01*
Y96846D01*
D02*
G37*
G36*
X965780Y96605D02*
X961390D01*
Y92215D01*
X963357Y93030D01*
X964965Y94637D01*
X965780Y96605D01*
D02*
G37*
G36*
X958850D02*
X954460D01*
X955275Y94637D01*
X956883Y93030D01*
X958850Y92215D01*
Y96605D01*
D02*
G37*
G36*
X942920D02*
X938530D01*
Y92215D01*
X940497Y93030D01*
X942105Y94637D01*
X942920Y96605D01*
D02*
G37*
G36*
X935990D02*
X931600D01*
X932415Y94637D01*
X934023Y93030D01*
X935990Y92215D01*
Y96605D01*
D02*
G37*
G36*
X920060D02*
X915670D01*
Y92215D01*
X917637Y93030D01*
X919245Y94637D01*
X920060Y96605D01*
D02*
G37*
G36*
X913130D02*
X908740D01*
X909555Y94637D01*
X911163Y93030D01*
X913130Y92215D01*
Y96605D01*
D02*
G37*
G36*
X312420Y92697D02*
Y88307D01*
X316810D01*
X315995Y90275D01*
X314387Y91882D01*
X312420Y92697D01*
D02*
G37*
G36*
X309880D02*
X307913Y91882D01*
X306305Y90275D01*
X305490Y88307D01*
X309880D01*
Y92697D01*
D02*
G37*
G36*
X289560D02*
Y88307D01*
X293950D01*
X293135Y90275D01*
X291527Y91882D01*
X289560Y92697D01*
D02*
G37*
G36*
X287020D02*
X285053Y91882D01*
X283445Y90275D01*
X282630Y88307D01*
X287020D01*
Y92697D01*
D02*
G37*
G36*
X266700D02*
Y88307D01*
X271090D01*
X270275Y90275D01*
X268667Y91882D01*
X266700Y92697D01*
D02*
G37*
G36*
X264160D02*
X262193Y91882D01*
X260585Y90275D01*
X259770Y88307D01*
X264160D01*
Y92697D01*
D02*
G37*
G36*
X1213986Y89916D02*
X1209596D01*
Y85526D01*
X1211563Y86341D01*
X1213171Y87949D01*
X1213986Y89916D01*
D02*
G37*
G36*
X1207056D02*
X1202666D01*
X1203481Y87949D01*
X1205089Y86341D01*
X1207056Y85526D01*
Y89916D01*
D02*
G37*
G36*
X316810Y85767D02*
X312420D01*
Y81377D01*
X314387Y82192D01*
X315995Y83800D01*
X316810Y85767D01*
D02*
G37*
G36*
X309880D02*
X305490D01*
X306305Y83800D01*
X307913Y82192D01*
X309880Y81377D01*
Y85767D01*
D02*
G37*
G36*
X293950D02*
X289560D01*
Y81377D01*
X291527Y82192D01*
X293135Y83800D01*
X293950Y85767D01*
D02*
G37*
G36*
X287020D02*
X282630D01*
X283445Y83800D01*
X285053Y82192D01*
X287020Y81377D01*
Y85767D01*
D02*
G37*
G36*
X271090D02*
X266700D01*
Y81377D01*
X268667Y82192D01*
X270275Y83800D01*
X271090Y85767D01*
D02*
G37*
G36*
X264160D02*
X259770D01*
X260585Y83800D01*
X262193Y82192D01*
X264160Y81377D01*
Y85767D01*
D02*
G37*
G36*
X1088390Y87058D02*
Y75390D01*
X1094725D01*
Y79620D01*
X1094466Y81588D01*
X1093706Y83422D01*
X1092498Y84998D01*
X1090922Y86206D01*
X1089088Y86966D01*
X1088390Y87058D01*
D02*
G37*
G36*
X1085850D02*
X1085152Y86966D01*
X1083317Y86206D01*
X1081742Y84998D01*
X1080534Y83422D01*
X1079774Y81588D01*
X1079515Y79620D01*
Y75390D01*
X1085850D01*
Y87058D01*
D02*
G37*
G36*
X1001990D02*
Y75390D01*
X1008325D01*
Y79620D01*
X1008066Y81588D01*
X1007306Y83422D01*
X1006098Y84998D01*
X1004523Y86206D01*
X1002688Y86966D01*
X1001990Y87058D01*
D02*
G37*
G36*
X999450D02*
X998752Y86966D01*
X996917Y86206D01*
X995342Y84998D01*
X994134Y83422D01*
X993374Y81588D01*
X993115Y79620D01*
Y75390D01*
X999450D01*
Y87058D01*
D02*
G37*
G36*
X961390Y79701D02*
Y75311D01*
X965780D01*
X964965Y77278D01*
X963357Y78886D01*
X961390Y79701D01*
D02*
G37*
G36*
X958850D02*
X956883Y78886D01*
X955275Y77278D01*
X954460Y75311D01*
X958850D01*
Y79701D01*
D02*
G37*
G36*
X938530D02*
Y75311D01*
X942920D01*
X942105Y77278D01*
X940497Y78886D01*
X938530Y79701D01*
D02*
G37*
G36*
X935990D02*
X934023Y78886D01*
X932415Y77278D01*
X931600Y75311D01*
X935990D01*
Y79701D01*
D02*
G37*
G36*
X915670D02*
Y75311D01*
X920060D01*
X919245Y77278D01*
X917637Y78886D01*
X915670Y79701D01*
D02*
G37*
G36*
X913130D02*
X911163Y78886D01*
X909555Y77278D01*
X908740Y75311D01*
X913130D01*
Y79701D01*
D02*
G37*
G36*
X1192030Y72653D02*
X1188097D01*
X1187930Y72620D01*
X1187759Y72631D01*
X1183860Y72118D01*
X1183698Y72063D01*
X1183528Y72052D01*
X1179729Y71034D01*
X1179576Y70958D01*
X1179409Y70925D01*
X1175775Y69420D01*
X1175633Y69325D01*
X1175471Y69270D01*
X1172066Y67304D01*
X1171937Y67191D01*
X1171784Y67116D01*
X1168664Y64722D01*
X1168551Y64593D01*
X1168409Y64498D01*
X1165629Y61718D01*
X1165534Y61575D01*
X1165405Y61463D01*
X1163011Y58343D01*
X1162936Y58190D01*
X1162823Y58061D01*
X1160857Y54655D01*
X1160802Y54494D01*
X1160707Y54352D01*
X1159202Y50718D01*
X1159169Y50551D01*
X1159093Y50398D01*
X1158075Y46599D01*
X1158064Y46428D01*
X1158009Y46267D01*
X1157496Y42368D01*
X1157507Y42197D01*
X1157474Y42030D01*
Y38097D01*
X1157507Y37930D01*
X1157496Y37759D01*
X1158009Y33860D01*
X1158064Y33698D01*
X1158075Y33528D01*
X1159093Y29729D01*
X1159169Y29576D01*
X1159202Y29409D01*
X1160707Y25775D01*
X1160802Y25633D01*
X1160857Y25471D01*
X1162823Y22066D01*
X1162936Y21937D01*
X1163011Y21784D01*
X1165405Y18664D01*
X1165534Y18551D01*
X1165629Y18409D01*
X1168409Y15629D01*
X1168551Y15534D01*
X1168664Y15405D01*
X1171784Y13011D01*
X1171937Y12936D01*
X1172066Y12823D01*
X1175471Y10857D01*
X1175633Y10802D01*
X1175775Y10707D01*
X1179409Y9202D01*
X1179576Y9169D01*
X1179729Y9093D01*
X1183528Y8075D01*
X1183698Y8064D01*
X1183860Y8009D01*
X1187759Y7496D01*
X1187930Y7507D01*
X1188097Y7474D01*
X1192030D01*
X1192197Y7507D01*
X1192368Y7496D01*
X1196267Y8009D01*
X1196429Y8064D01*
X1196599Y8075D01*
X1200398Y9093D01*
X1200551Y9169D01*
X1200718Y9202D01*
X1204352Y10707D01*
X1204494Y10802D01*
X1204656Y10857D01*
X1208061Y12823D01*
X1208190Y12936D01*
X1208343Y13011D01*
X1211463Y15405D01*
X1211575Y15534D01*
X1211718Y15629D01*
X1214498Y18409D01*
X1214593Y18551D01*
X1214722Y18664D01*
X1217116Y21784D01*
X1217191Y21937D01*
X1217304Y22066D01*
X1219270Y25471D01*
X1219325Y25633D01*
X1219420Y25775D01*
X1220925Y29409D01*
X1220958Y29576D01*
X1221034Y29729D01*
X1222052Y33528D01*
X1222063Y33698D01*
X1222118Y33860D01*
X1222631Y37759D01*
X1222620Y37930D01*
X1222653Y38097D01*
Y42030D01*
X1222620Y42197D01*
X1222631Y42368D01*
X1222118Y46267D01*
X1222063Y46428D01*
X1222052Y46599D01*
X1221034Y50398D01*
X1220958Y50551D01*
X1220925Y50718D01*
X1219420Y54352D01*
X1219325Y54494D01*
X1219270Y54655D01*
X1217304Y58061D01*
X1217191Y58190D01*
X1217116Y58343D01*
X1214722Y61463D01*
X1214593Y61575D01*
X1214498Y61718D01*
X1211718Y64498D01*
X1211575Y64593D01*
X1211463Y64722D01*
X1208343Y67116D01*
X1208190Y67191D01*
X1208061Y67304D01*
X1204656Y69270D01*
X1204494Y69325D01*
X1204352Y69420D01*
X1200718Y70925D01*
X1200551Y70958D01*
X1200398Y71034D01*
X1196599Y72052D01*
X1196429Y72063D01*
X1196267Y72118D01*
X1192368Y72631D01*
X1192197Y72620D01*
X1192030Y72653D01*
D02*
G37*
G36*
X42030D02*
X38097D01*
X37930Y72620D01*
X37759Y72631D01*
X33860Y72118D01*
X33698Y72063D01*
X33528Y72052D01*
X29729Y71034D01*
X29576Y70958D01*
X29409Y70925D01*
X25775Y69420D01*
X25633Y69325D01*
X25471Y69270D01*
X22066Y67304D01*
X21937Y67191D01*
X21784Y67116D01*
X18664Y64722D01*
X18551Y64593D01*
X18409Y64498D01*
X15629Y61718D01*
X15534Y61575D01*
X15405Y61463D01*
X13011Y58343D01*
X12936Y58190D01*
X12823Y58061D01*
X10857Y54655D01*
X10802Y54494D01*
X10707Y54352D01*
X9202Y50718D01*
X9169Y50551D01*
X9093Y50398D01*
X8075Y46599D01*
X8064Y46428D01*
X8009Y46267D01*
X7496Y42368D01*
X7507Y42197D01*
X7474Y42030D01*
Y38097D01*
X7507Y37930D01*
X7496Y37759D01*
X8009Y33860D01*
X8064Y33698D01*
X8075Y33528D01*
X9093Y29729D01*
X9169Y29576D01*
X9202Y29409D01*
X10707Y25775D01*
X10802Y25633D01*
X10857Y25471D01*
X12823Y22066D01*
X12936Y21937D01*
X13011Y21784D01*
X15405Y18664D01*
X15534Y18551D01*
X15629Y18409D01*
X18409Y15629D01*
X18551Y15534D01*
X18664Y15405D01*
X21784Y13011D01*
X21937Y12936D01*
X22066Y12823D01*
X25471Y10857D01*
X25633Y10802D01*
X25775Y10707D01*
X29409Y9202D01*
X29576Y9169D01*
X29729Y9093D01*
X33528Y8075D01*
X33698Y8064D01*
X33860Y8009D01*
X37759Y7496D01*
X37930Y7507D01*
X38097Y7474D01*
X42030D01*
X42197Y7507D01*
X42368Y7496D01*
X46267Y8009D01*
X46429Y8064D01*
X46599Y8075D01*
X50398Y9093D01*
X50551Y9169D01*
X50718Y9202D01*
X54352Y10707D01*
X54494Y10802D01*
X54655Y10857D01*
X58061Y12823D01*
X58190Y12936D01*
X58343Y13011D01*
X61463Y15405D01*
X61575Y15534D01*
X61718Y15629D01*
X64498Y18409D01*
X64593Y18551D01*
X64722Y18664D01*
X67116Y21784D01*
X67191Y21937D01*
X67304Y22066D01*
X69270Y25471D01*
X69325Y25633D01*
X69420Y25775D01*
X70925Y29409D01*
X70958Y29576D01*
X71034Y29729D01*
X72052Y33528D01*
X72063Y33698D01*
X72118Y33860D01*
X72631Y37759D01*
X72620Y37930D01*
X72653Y38097D01*
Y42030D01*
X72620Y42197D01*
X72631Y42368D01*
X72118Y46267D01*
X72063Y46428D01*
X72052Y46599D01*
X71034Y50398D01*
X70958Y50551D01*
X70925Y50718D01*
X69420Y54352D01*
X69325Y54494D01*
X69270Y54655D01*
X67304Y58061D01*
X67191Y58190D01*
X67116Y58343D01*
X64722Y61463D01*
X64593Y61575D01*
X64498Y61718D01*
X61718Y64498D01*
X61575Y64593D01*
X61463Y64722D01*
X58343Y67116D01*
X58190Y67191D01*
X58061Y67304D01*
X54655Y69270D01*
X54494Y69325D01*
X54352Y69420D01*
X50718Y70925D01*
X50551Y70958D01*
X50398Y71034D01*
X46599Y72052D01*
X46429Y72063D01*
X46267Y72118D01*
X42368Y72631D01*
X42197Y72620D01*
X42030Y72653D01*
D02*
G37*
G36*
X965780Y72771D02*
X961390D01*
Y68381D01*
X963357Y69196D01*
X964965Y70804D01*
X965780Y72771D01*
D02*
G37*
G36*
X958850D02*
X954460D01*
X955275Y70804D01*
X956883Y69196D01*
X958850Y68381D01*
Y72771D01*
D02*
G37*
G36*
X942920D02*
X938530D01*
Y68381D01*
X940497Y69196D01*
X942105Y70804D01*
X942920Y72771D01*
D02*
G37*
G36*
X935990D02*
X931600D01*
X932415Y70804D01*
X934023Y69196D01*
X935990Y68381D01*
Y72771D01*
D02*
G37*
G36*
X920060D02*
X915670D01*
Y68381D01*
X917637Y69196D01*
X919245Y70804D01*
X920060Y72771D01*
D02*
G37*
G36*
X913130D02*
X908740D01*
X909555Y70804D01*
X911163Y69196D01*
X913130Y68381D01*
Y72771D01*
D02*
G37*
G36*
X312420Y68864D02*
Y64474D01*
X316810D01*
X315995Y66441D01*
X314387Y68049D01*
X312420Y68864D01*
D02*
G37*
G36*
X309880D02*
X307913Y68049D01*
X306305Y66441D01*
X305490Y64474D01*
X309880D01*
Y68864D01*
D02*
G37*
G36*
X289560D02*
Y64474D01*
X293950D01*
X293135Y66441D01*
X291527Y68049D01*
X289560Y68864D01*
D02*
G37*
G36*
X287020D02*
X285053Y68049D01*
X283445Y66441D01*
X282630Y64474D01*
X287020D01*
Y68864D01*
D02*
G37*
G36*
X266700D02*
Y64474D01*
X271090D01*
X270275Y66441D01*
X268667Y68049D01*
X266700Y68864D01*
D02*
G37*
G36*
X264160D02*
X262193Y68049D01*
X260585Y66441D01*
X259770Y64474D01*
X264160D01*
Y68864D01*
D02*
G37*
G36*
X1094725Y72850D02*
X1088390D01*
Y61182D01*
X1089088Y61274D01*
X1090922Y62034D01*
X1092498Y63242D01*
X1093706Y64817D01*
X1094466Y66652D01*
X1094725Y68620D01*
Y72850D01*
D02*
G37*
G36*
X1085850D02*
X1079515D01*
Y68620D01*
X1079774Y66652D01*
X1080534Y64817D01*
X1081742Y63242D01*
X1083317Y62034D01*
X1085152Y61274D01*
X1085850Y61182D01*
Y72850D01*
D02*
G37*
G36*
X1008325D02*
X1001990D01*
Y61182D01*
X1002688Y61274D01*
X1004523Y62034D01*
X1006098Y63242D01*
X1007306Y64817D01*
X1008066Y66652D01*
X1008325Y68620D01*
Y72850D01*
D02*
G37*
G36*
X999450D02*
X993115D01*
Y68620D01*
X993374Y66652D01*
X994134Y64817D01*
X995342Y63242D01*
X996917Y62034D01*
X998752Y61274D01*
X999450Y61182D01*
Y72850D01*
D02*
G37*
G36*
X316810Y61934D02*
X312420D01*
Y57544D01*
X314387Y58359D01*
X315995Y59966D01*
X316810Y61934D01*
D02*
G37*
G36*
X309880D02*
X305490D01*
X306305Y59966D01*
X307913Y58359D01*
X309880Y57544D01*
Y61934D01*
D02*
G37*
G36*
X293950D02*
X289560D01*
Y57544D01*
X291527Y58359D01*
X293135Y59966D01*
X293950Y61934D01*
D02*
G37*
G36*
X287020D02*
X282630D01*
X283445Y59966D01*
X285053Y58359D01*
X287020Y57544D01*
Y61934D01*
D02*
G37*
G36*
X271090D02*
X266700D01*
Y57544D01*
X268667Y58359D01*
X270275Y59966D01*
X271090Y61934D01*
D02*
G37*
G36*
X264160D02*
X259770D01*
X260585Y59966D01*
X262193Y58359D01*
X264160Y57544D01*
Y61934D01*
D02*
G37*
G36*
X877570Y60960D02*
X868680D01*
Y52070D01*
X877570D01*
Y60960D01*
D02*
G37*
G36*
X866140D02*
X857250D01*
Y52070D01*
X866140D01*
Y60960D01*
D02*
G37*
G36*
X961390Y55867D02*
Y51477D01*
X965780D01*
X964965Y53445D01*
X963357Y55052D01*
X961390Y55867D01*
D02*
G37*
G36*
X958850D02*
X956883Y55052D01*
X955275Y53445D01*
X954460Y51477D01*
X958850D01*
Y55867D01*
D02*
G37*
G36*
X938530D02*
Y51477D01*
X942920D01*
X942105Y53445D01*
X940497Y55052D01*
X938530Y55867D01*
D02*
G37*
G36*
X935990D02*
X934023Y55052D01*
X932415Y53445D01*
X931600Y51477D01*
X935990D01*
Y55867D01*
D02*
G37*
G36*
X915670D02*
Y51477D01*
X920060D01*
X919245Y53445D01*
X917637Y55052D01*
X915670Y55867D01*
D02*
G37*
G36*
X913130D02*
X911163Y55052D01*
X909555Y53445D01*
X908740Y51477D01*
X913130D01*
Y55867D01*
D02*
G37*
G36*
X965780Y48937D02*
X961390D01*
Y44548D01*
X963357Y45362D01*
X964965Y46970D01*
X965780Y48937D01*
D02*
G37*
G36*
X958850D02*
X954460D01*
X955275Y46970D01*
X956883Y45362D01*
X958850Y44548D01*
Y48937D01*
D02*
G37*
G36*
X942920D02*
X938530D01*
Y44548D01*
X940497Y45362D01*
X942105Y46970D01*
X942920Y48937D01*
D02*
G37*
G36*
X935990D02*
X931600D01*
X932415Y46970D01*
X934023Y45362D01*
X935990Y44548D01*
Y48937D01*
D02*
G37*
G36*
X920060D02*
X915670D01*
Y44548D01*
X917637Y45362D01*
X919245Y46970D01*
X920060Y48937D01*
D02*
G37*
G36*
X913130D02*
X908740D01*
X909555Y46970D01*
X911163Y45362D01*
X913130Y44548D01*
Y48937D01*
D02*
G37*
G36*
X877570Y49530D02*
X868680D01*
Y40640D01*
X877570D01*
Y49530D01*
D02*
G37*
G36*
X866140D02*
X857250D01*
Y40640D01*
X866140D01*
Y49530D01*
D02*
G37*
G36*
X817948Y60960D02*
X815272D01*
X812688Y60268D01*
X810372Y58930D01*
X808480Y57038D01*
X807142Y54722D01*
X806450Y52138D01*
Y49462D01*
X807142Y46878D01*
X808480Y44562D01*
X810372Y42670D01*
X812688Y41332D01*
X815272Y40640D01*
X817948D01*
X820532Y41332D01*
X822848Y42670D01*
X824740Y44562D01*
X826078Y46878D01*
X826770Y49462D01*
Y52138D01*
X826078Y54722D01*
X824740Y57038D01*
X822848Y58930D01*
X820532Y60268D01*
X817948Y60960D01*
D02*
G37*
G36*
X312420Y45030D02*
Y40640D01*
X316810D01*
X315995Y42607D01*
X314387Y44215D01*
X312420Y45030D01*
D02*
G37*
G36*
X309880D02*
X307913Y44215D01*
X306305Y42607D01*
X305490Y40640D01*
X309880D01*
Y45030D01*
D02*
G37*
G36*
X289560D02*
Y40640D01*
X293950D01*
X293135Y42607D01*
X291527Y44215D01*
X289560Y45030D01*
D02*
G37*
G36*
X287020D02*
X285053Y44215D01*
X283445Y42607D01*
X282630Y40640D01*
X287020D01*
Y45030D01*
D02*
G37*
G36*
X266700D02*
Y40640D01*
X271090D01*
X270275Y42607D01*
X268667Y44215D01*
X266700Y45030D01*
D02*
G37*
G36*
X264160D02*
X262193Y44215D01*
X260585Y42607D01*
X259770Y40640D01*
X264160D01*
Y45030D01*
D02*
G37*
G36*
X316810Y38100D02*
X312420D01*
Y33710D01*
X314387Y34525D01*
X315995Y36133D01*
X316810Y38100D01*
D02*
G37*
G36*
X309880D02*
X305490D01*
X306305Y36133D01*
X307913Y34525D01*
X309880Y33710D01*
Y38100D01*
D02*
G37*
G36*
X293950D02*
X289560D01*
Y33710D01*
X291527Y34525D01*
X293135Y36133D01*
X293950Y38100D01*
D02*
G37*
G36*
X287020D02*
X282630D01*
X283445Y36133D01*
X285053Y34525D01*
X287020Y33710D01*
Y38100D01*
D02*
G37*
G36*
X271090D02*
X266700D01*
Y33710D01*
X268667Y34525D01*
X270275Y36133D01*
X271090Y38100D01*
D02*
G37*
G36*
X264160D02*
X259770D01*
X260585Y36133D01*
X262193Y34525D01*
X264160Y33710D01*
Y38100D01*
D02*
G37*
G36*
X1088390Y42758D02*
Y33590D01*
X1094725D01*
Y35320D01*
X1094466Y37288D01*
X1093706Y39123D01*
X1092498Y40698D01*
X1090922Y41906D01*
X1089088Y42666D01*
X1088390Y42758D01*
D02*
G37*
G36*
X1085850D02*
X1085152Y42666D01*
X1083317Y41906D01*
X1081742Y40698D01*
X1080534Y39123D01*
X1079774Y37288D01*
X1079515Y35320D01*
Y33590D01*
X1085850D01*
Y42758D01*
D02*
G37*
G36*
X1001990D02*
Y33590D01*
X1008325D01*
Y35320D01*
X1008066Y37288D01*
X1007306Y39123D01*
X1006098Y40698D01*
X1004523Y41906D01*
X1002688Y42666D01*
X1001990Y42758D01*
D02*
G37*
G36*
X999450D02*
X998752Y42666D01*
X996917Y41906D01*
X995342Y40698D01*
X994134Y39123D01*
X993374Y37288D01*
X993115Y35320D01*
Y33590D01*
X999450D01*
Y42758D01*
D02*
G37*
G36*
X256540Y223520D02*
X127000D01*
Y31750D01*
X256540D01*
Y223520D01*
D02*
G37*
G36*
X961390Y32034D02*
Y27644D01*
X965780D01*
X964965Y29611D01*
X963357Y31219D01*
X961390Y32034D01*
D02*
G37*
G36*
X958850D02*
X956883Y31219D01*
X955275Y29611D01*
X954460Y27644D01*
X958850D01*
Y32034D01*
D02*
G37*
G36*
X938530D02*
Y27644D01*
X942920D01*
X942105Y29611D01*
X940497Y31219D01*
X938530Y32034D01*
D02*
G37*
G36*
X935990D02*
X934023Y31219D01*
X932415Y29611D01*
X931600Y27644D01*
X935990D01*
Y32034D01*
D02*
G37*
G36*
X915670D02*
Y27644D01*
X920060D01*
X919245Y29611D01*
X917637Y31219D01*
X915670Y32034D01*
D02*
G37*
G36*
X913130D02*
X911163Y31219D01*
X909555Y29611D01*
X908740Y27644D01*
X913130D01*
Y32034D01*
D02*
G37*
G36*
X1094725Y31050D02*
X1088390D01*
Y21882D01*
X1089088Y21974D01*
X1090922Y22734D01*
X1092498Y23942D01*
X1093706Y25517D01*
X1094466Y27352D01*
X1094725Y29320D01*
Y31050D01*
D02*
G37*
G36*
X1085850D02*
X1079515D01*
Y29320D01*
X1079774Y27352D01*
X1080534Y25517D01*
X1081742Y23942D01*
X1083317Y22734D01*
X1085152Y21974D01*
X1085850Y21882D01*
Y31050D01*
D02*
G37*
G36*
X1008325D02*
X1001990D01*
Y21882D01*
X1002688Y21974D01*
X1004523Y22734D01*
X1006098Y23942D01*
X1007306Y25517D01*
X1008066Y27352D01*
X1008325Y29320D01*
Y31050D01*
D02*
G37*
G36*
X999450D02*
X993115D01*
Y29320D01*
X993374Y27352D01*
X994134Y25517D01*
X995342Y23942D01*
X996917Y22734D01*
X998752Y21974D01*
X999450Y21882D01*
Y31050D01*
D02*
G37*
G36*
X965780Y25104D02*
X961390D01*
Y20714D01*
X963357Y21529D01*
X964965Y23136D01*
X965780Y25104D01*
D02*
G37*
G36*
X958850D02*
X954460D01*
X955275Y23136D01*
X956883Y21529D01*
X958850Y20714D01*
Y25104D01*
D02*
G37*
G36*
X942920D02*
X938530D01*
Y20714D01*
X940497Y21529D01*
X942105Y23136D01*
X942920Y25104D01*
D02*
G37*
G36*
X935990D02*
X931600D01*
X932415Y23136D01*
X934023Y21529D01*
X935990Y20714D01*
Y25104D01*
D02*
G37*
G36*
X920060D02*
X915670D01*
Y20714D01*
X917637Y21529D01*
X919245Y23136D01*
X920060Y25104D01*
D02*
G37*
G36*
X913130D02*
X908740D01*
X909555Y23136D01*
X911163Y21529D01*
X913130Y20714D01*
Y25104D01*
D02*
G37*
%LPD*%
G36*
X896379Y834745D02*
X896163Y834669D01*
X895972Y834542D01*
X895807Y834364D01*
X895667Y834136D01*
X895553Y833856D01*
X895464Y833526D01*
X895401Y833145D01*
X895363Y832713D01*
X895350Y832231D01*
X892810D01*
X892797Y832713D01*
X892759Y833145D01*
X892696Y833526D01*
X892607Y833856D01*
X892493Y834136D01*
X892353Y834364D01*
X892188Y834542D01*
X891997Y834669D01*
X891781Y834745D01*
X891540Y834771D01*
X896620D01*
X896379Y834745D01*
D02*
G37*
G36*
X827977Y747796D02*
X828325Y746685D01*
X825934Y744295D01*
X772548D01*
X771587Y745255D01*
X771020Y745490D01*
Y746760D01*
X771587Y746995D01*
X772548Y747955D01*
X827856D01*
X827977Y747796D01*
D02*
G37*
G36*
X1143361Y509277D02*
X1143910Y509265D01*
Y502915D01*
X1143361Y502911D01*
Y502121D01*
X1143297Y502271D01*
X1143107Y502407D01*
X1142789Y502526D01*
X1142345Y502629D01*
X1141773Y502716D01*
X1140924Y502787D01*
X1138576Y502629D01*
X1138131Y502526D01*
X1137813Y502407D01*
X1137623Y502271D01*
X1137560Y502121D01*
Y502903D01*
X1137010Y502915D01*
Y509265D01*
X1137560Y509269D01*
Y510060D01*
X1137623Y509909D01*
X1137813Y509773D01*
X1138131Y509654D01*
X1138576Y509551D01*
X1139147Y509464D01*
X1139996Y509393D01*
X1142345Y509551D01*
X1142789Y509654D01*
X1143107Y509773D01*
X1143297Y509909D01*
X1143361Y510060D01*
Y509277D01*
D02*
G37*
G36*
X1167653Y495426D02*
Y466384D01*
X1166383Y466259D01*
X1165999Y468192D01*
X1164774Y470024D01*
X1162942Y471249D01*
X1160780Y471679D01*
X1158618Y471249D01*
X1156786Y470024D01*
X1155561Y468192D01*
X1155177Y466259D01*
X1153907Y466384D01*
Y483050D01*
X1155370D01*
Y496130D01*
X1140790D01*
Y496130D01*
X1140130D01*
Y496130D01*
X1135025D01*
X1134942Y497400D01*
X1135161Y497429D01*
X1137323Y498325D01*
X1138875Y499515D01*
X1140130Y499550D01*
X1140790D01*
Y499550D01*
X1143264D01*
X1143361Y499531D01*
X1143367Y499532D01*
X1143375Y499531D01*
X1143469Y499550D01*
X1155370D01*
Y500263D01*
X1162816D01*
X1167653Y495426D01*
D02*
G37*
G36*
X1167831Y458427D02*
Y454030D01*
X1168261Y451868D01*
X1169486Y450036D01*
X1171318Y448811D01*
X1173480Y448382D01*
X1175642Y448811D01*
X1177474Y450036D01*
X1178699Y451868D01*
X1179105Y453913D01*
X1183766D01*
X1191783Y445896D01*
Y396209D01*
X1190513Y395683D01*
X1189556Y396640D01*
X1187589Y397455D01*
Y391795D01*
Y386135D01*
X1189556Y386950D01*
X1190513Y387907D01*
X1191783Y387381D01*
Y368174D01*
X1179956Y356347D01*
X1074294D01*
X1071727Y358914D01*
X1072253Y360184D01*
X1073652D01*
X1075752Y361054D01*
X1077360Y362662D01*
X1077831Y363800D01*
X1079206D01*
X1079735Y362523D01*
X1081343Y360915D01*
X1083310Y360100D01*
Y365760D01*
Y371420D01*
X1081343Y370605D01*
X1079735Y368997D01*
X1079264Y367859D01*
X1077889D01*
X1077360Y369136D01*
X1075752Y370744D01*
X1073785Y371559D01*
Y365899D01*
X1071245D01*
Y371559D01*
X1069278Y370744D01*
X1067670Y369136D01*
X1066800Y367036D01*
Y365637D01*
X1065530Y365111D01*
X1061197Y369444D01*
Y399676D01*
X1062467Y399801D01*
X1062851Y397868D01*
X1064076Y396036D01*
X1065908Y394812D01*
X1066800Y394634D01*
Y406030D01*
X1069340D01*
Y394634D01*
X1070232Y394812D01*
X1072064Y396036D01*
X1073289Y397868D01*
X1073673Y399801D01*
X1074943Y399676D01*
Y391160D01*
X1075387Y388930D01*
X1076650Y387040D01*
X1081730Y381960D01*
X1083620Y380697D01*
X1085850Y380253D01*
X1099820D01*
X1102050Y380697D01*
X1103940Y381960D01*
X1110290Y388310D01*
X1111553Y390200D01*
X1111997Y392430D01*
Y411606D01*
X1118744Y418353D01*
X1132757D01*
X1132971Y417083D01*
X1131386Y416024D01*
X1130161Y414192D01*
X1129732Y412030D01*
Y407300D01*
X1135380D01*
X1141029D01*
Y412030D01*
X1140599Y414192D01*
X1139374Y416024D01*
X1137557Y417239D01*
X1137543Y417312D01*
X1137574Y418537D01*
X1138880Y418797D01*
X1140770Y420060D01*
X1152200Y431490D01*
X1153463Y433380D01*
X1153907Y435610D01*
Y453676D01*
X1155177Y453801D01*
X1155561Y451868D01*
X1156786Y450036D01*
X1158618Y448811D01*
X1160780Y448382D01*
X1162942Y448811D01*
X1164774Y450036D01*
X1165999Y451868D01*
X1166429Y454030D01*
Y458099D01*
X1167699Y458578D01*
X1167831Y458427D01*
D02*
G37*
G36*
X1100282Y430248D02*
X1099519Y429295D01*
X1098845Y428303D01*
X1098261Y427275D01*
X1097767Y426210D01*
X1097363Y425107D01*
X1097049Y423968D01*
X1096825Y422790D01*
X1096690Y421576D01*
X1096645Y420325D01*
X1090295Y420370D01*
X1090270Y421576D01*
X1090193Y422656D01*
X1090066Y423609D01*
X1089889Y424434D01*
X1089660Y425132D01*
X1089381Y425704D01*
X1089050Y426148D01*
X1088669Y426466D01*
X1088238Y426656D01*
X1087755Y426720D01*
X1093470Y427990D01*
X1101135Y431165D01*
X1100282Y430248D01*
D02*
G37*
G36*
X1082052Y416559D02*
X1082152Y415382D01*
X1082239Y414904D01*
X1082352Y414499D01*
X1082488Y414168D01*
X1082651Y413910D01*
X1082837Y413726D01*
X1083049Y413616D01*
X1083286Y413579D01*
X1082086D01*
X1082284Y410517D01*
X1082392Y409866D01*
X1082518Y409316D01*
X1082665Y408867D01*
X1082831Y408520D01*
X1083017Y408274D01*
X1078523D01*
X1078709Y408520D01*
X1078875Y408867D01*
X1079022Y409316D01*
X1079148Y409866D01*
X1079256Y410517D01*
X1079412Y412122D01*
X1079469Y413579D01*
X1078254D01*
X1078491Y413616D01*
X1078703Y413726D01*
X1078889Y413910D01*
X1079052Y414168D01*
X1079189Y414499D01*
X1079301Y414904D01*
X1079388Y415382D01*
X1079450Y415934D01*
X1079488Y416559D01*
X1079500Y417258D01*
X1082040D01*
X1082052Y416559D01*
D02*
G37*
G36*
X1052066Y416485D02*
X1051376Y416024D01*
X1050151Y414192D01*
X1049722Y412030D01*
Y406927D01*
X1049543Y406030D01*
Y367030D01*
X1049987Y364800D01*
X1051250Y362910D01*
X1067760Y346400D01*
X1069650Y345137D01*
X1071880Y344693D01*
X1182370D01*
X1184600Y345137D01*
X1186490Y346400D01*
X1201730Y361640D01*
X1202615Y362964D01*
X1203885Y362579D01*
Y350859D01*
X1190921Y337895D01*
X1037929D01*
X1019885Y355939D01*
Y399711D01*
X1037929Y417755D01*
X1051681D01*
X1052066Y416485D01*
D02*
G37*
%LPC*%
G36*
X1141029Y404760D02*
X1136650D01*
Y394634D01*
X1137542Y394812D01*
X1139374Y396036D01*
X1140599Y397868D01*
X1141029Y400030D01*
Y404760D01*
D02*
G37*
G36*
X1134110D02*
X1129732D01*
Y400030D01*
X1130161Y397868D01*
X1131386Y396036D01*
X1133218Y394812D01*
X1134110Y394634D01*
Y404760D01*
D02*
G37*
G36*
X1185049Y397455D02*
X1183082Y396640D01*
X1181474Y395032D01*
X1180659Y393065D01*
X1185049D01*
Y397455D01*
D02*
G37*
G36*
Y390525D02*
X1180659D01*
X1181474Y388558D01*
X1183082Y386950D01*
X1185049Y386135D01*
Y390525D01*
D02*
G37*
G36*
X1085850Y371420D02*
Y367030D01*
X1090240D01*
X1089425Y368997D01*
X1087817Y370605D01*
X1085850Y371420D01*
D02*
G37*
G36*
X1160780Y417678D02*
X1158618Y417249D01*
X1156786Y416024D01*
X1155561Y414192D01*
X1155132Y412030D01*
Y400030D01*
X1155561Y397868D01*
X1156786Y396036D01*
X1156857Y395988D01*
X1156895Y395538D01*
Y373380D01*
X1157191Y371893D01*
X1158033Y370633D01*
X1162683Y365983D01*
X1163943Y365141D01*
X1165430Y364845D01*
X1168171D01*
X1168247Y364714D01*
X1169464Y363497D01*
X1170956Y362636D01*
X1172619Y362190D01*
X1174341D01*
X1176004Y362636D01*
X1177496Y363497D01*
X1178713Y364714D01*
X1179574Y366206D01*
X1180020Y367869D01*
Y369591D01*
X1179574Y371254D01*
X1178713Y372746D01*
X1178087Y373372D01*
X1177636Y374230D01*
X1178087Y375088D01*
X1178713Y375714D01*
X1179574Y377206D01*
X1180020Y378869D01*
Y380591D01*
X1179574Y382254D01*
X1178713Y383746D01*
X1177496Y384963D01*
X1177365Y385039D01*
Y394490D01*
X1179020D01*
Y417570D01*
X1167940D01*
Y394490D01*
X1169595D01*
Y385039D01*
X1169464Y384963D01*
X1168247Y383746D01*
X1167386Y382254D01*
X1166940Y380591D01*
Y378869D01*
X1167386Y377206D01*
X1168247Y375714D01*
X1168873Y375088D01*
X1169324Y374230D01*
X1168873Y373372D01*
X1168247Y372746D01*
X1166994Y372660D01*
X1164665Y374989D01*
Y395632D01*
X1164681Y395903D01*
X1164689Y395979D01*
X1164774Y396036D01*
X1165999Y397868D01*
X1166429Y400030D01*
Y412030D01*
X1165999Y414192D01*
X1164774Y416024D01*
X1162942Y417249D01*
X1160780Y417678D01*
D02*
G37*
G36*
X1090240Y364490D02*
X1085850D01*
Y360100D01*
X1087817Y360915D01*
X1089425Y362523D01*
X1090240Y364490D01*
D02*
G37*
G36*
X1148080Y417678D02*
X1145918Y417249D01*
X1144086Y416024D01*
X1142861Y414192D01*
X1142431Y412030D01*
Y400030D01*
X1142861Y397868D01*
X1144086Y396036D01*
X1144157Y395988D01*
X1144195Y395538D01*
Y369958D01*
X1143235Y368997D01*
X1142365Y366897D01*
Y364623D01*
X1143235Y362523D01*
X1144843Y360915D01*
X1146943Y360045D01*
X1149217D01*
X1151317Y360915D01*
X1152925Y362523D01*
X1153795Y364623D01*
Y366897D01*
X1152925Y368997D01*
X1151965Y369958D01*
Y395632D01*
X1151981Y395903D01*
X1151990Y395979D01*
X1152074Y396036D01*
X1153299Y397868D01*
X1153728Y400030D01*
Y412030D01*
X1153299Y414192D01*
X1152074Y416024D01*
X1150242Y417249D01*
X1148080Y417678D01*
D02*
G37*
%LPD*%
G36*
X1163059Y398444D02*
X1162847Y398334D01*
X1162661Y398150D01*
X1162498Y397892D01*
X1162362Y397561D01*
X1162249Y397156D01*
X1162162Y396678D01*
X1162100Y396126D01*
X1162062Y395501D01*
X1162050Y394802D01*
X1159510D01*
X1159498Y395501D01*
X1159398Y396678D01*
X1159311Y397156D01*
X1159199Y397561D01*
X1159062Y397892D01*
X1158900Y398150D01*
X1158713Y398334D01*
X1158501Y398444D01*
X1158264Y398481D01*
X1163296D01*
X1163059Y398444D01*
D02*
G37*
G36*
X1175779Y397065D02*
X1175563Y396988D01*
X1175372Y396860D01*
X1175207Y396680D01*
X1175068Y396448D01*
X1174953Y396166D01*
X1174864Y395831D01*
X1174801Y395446D01*
X1174763Y395009D01*
X1174750Y394520D01*
X1172210D01*
X1172197Y395009D01*
X1172159Y395446D01*
X1172096Y395831D01*
X1172007Y396166D01*
X1171892Y396448D01*
X1171753Y396680D01*
X1171588Y396860D01*
X1171397Y396988D01*
X1171181Y397065D01*
X1170940Y397091D01*
X1176020D01*
X1175779Y397065D01*
D02*
G37*
G36*
X1150359Y398444D02*
X1150147Y398334D01*
X1149960Y398150D01*
X1149799Y397892D01*
X1149661Y397561D01*
X1149549Y397156D01*
X1149462Y396678D01*
X1149400Y396126D01*
X1149362Y395501D01*
X1149350Y394802D01*
X1146810D01*
X1146798Y395501D01*
X1146698Y396678D01*
X1146611Y397156D01*
X1146498Y397561D01*
X1146361Y397892D01*
X1146199Y398150D01*
X1146013Y398334D01*
X1145801Y398444D01*
X1145564Y398481D01*
X1150596D01*
X1150359Y398444D01*
D02*
G37*
G36*
X718083Y326633D02*
Y321488D01*
X717672Y321250D01*
X715780Y319358D01*
X714442Y317042D01*
X713750Y314458D01*
Y311782D01*
X714442Y309198D01*
X715780Y306882D01*
X717672Y304990D01*
X718083Y304752D01*
Y278010D01*
X708480D01*
Y257930D01*
X713693D01*
Y253359D01*
X709904Y249570D01*
X691491D01*
X685847Y255214D01*
Y257930D01*
X691060D01*
Y278010D01*
X684292D01*
Y306133D01*
X685040Y306882D01*
X686378Y309198D01*
X687070Y311782D01*
Y314458D01*
X686378Y317042D01*
X685040Y319358D01*
X683148Y321250D01*
X680832Y322588D01*
X678248Y323280D01*
X675572D01*
X672988Y322588D01*
X670672Y321250D01*
X668780Y319358D01*
X667442Y317042D01*
X666750Y314458D01*
Y311782D01*
X667442Y309198D01*
X668780Y306882D01*
X670672Y304990D01*
X672638Y303855D01*
Y278010D01*
X668980D01*
Y257930D01*
X674193D01*
Y252800D01*
X674637Y250570D01*
X675900Y248680D01*
X684000Y240579D01*
Y231140D01*
X612030D01*
Y241329D01*
X617493Y246793D01*
X618756Y248683D01*
X619200Y250913D01*
Y257930D01*
X624413D01*
Y278010D01*
X620808D01*
Y303824D01*
X622828Y304990D01*
X624720Y306882D01*
X626058Y309198D01*
X626750Y311782D01*
Y314458D01*
X626058Y317042D01*
X624720Y319358D01*
X622828Y321250D01*
X622417Y321488D01*
Y329569D01*
X628651Y335803D01*
X640955D01*
X642241Y334516D01*
X644269Y333346D01*
X646530Y332740D01*
X648870D01*
X651131Y333346D01*
X653159Y334516D01*
X654445Y335803D01*
X708913D01*
X718083Y326633D01*
D02*
G37*
G36*
X610763Y327146D02*
Y321488D01*
X610352Y321250D01*
X608460Y319358D01*
X607122Y317042D01*
X606430Y314458D01*
Y311782D01*
X607122Y309198D01*
X608460Y306882D01*
X609155Y306187D01*
Y278010D01*
X602333D01*
Y257930D01*
X607546D01*
Y253327D01*
X603789Y249570D01*
X585441D01*
X579700Y255311D01*
Y257930D01*
X584913D01*
Y278010D01*
X577118D01*
Y306280D01*
X577720Y306882D01*
X579058Y309198D01*
X579750Y311782D01*
Y314458D01*
X579058Y317042D01*
X577720Y319358D01*
X575828Y321250D01*
X573512Y322588D01*
X570928Y323280D01*
X568252D01*
X565668Y322588D01*
X563352Y321250D01*
X561460Y319358D01*
X560122Y317042D01*
X559430Y314458D01*
Y311782D01*
X560122Y309198D01*
X561460Y306882D01*
X563352Y304990D01*
X565464Y303770D01*
Y278010D01*
X562833D01*
Y257930D01*
X568046D01*
Y252897D01*
X568490Y250667D01*
X569753Y248777D01*
X577950Y240579D01*
Y231140D01*
X504720D01*
Y240579D01*
X511433Y247293D01*
X512696Y249183D01*
X513140Y251413D01*
Y257930D01*
X518353D01*
Y278010D01*
X514375D01*
Y304039D01*
X516021Y304990D01*
X517913Y306882D01*
X519251Y309198D01*
X519943Y311782D01*
Y314458D01*
X519251Y317042D01*
X517913Y319358D01*
X516021Y321250D01*
X515610Y321488D01*
Y329569D01*
X521844Y335803D01*
X534275D01*
X535561Y334516D01*
X537589Y333346D01*
X539850Y332740D01*
X542190D01*
X544451Y333346D01*
X546479Y334516D01*
X547765Y335803D01*
X602106D01*
X610763Y327146D01*
D02*
G37*
G36*
X503956Y328543D02*
Y321488D01*
X503545Y321250D01*
X501653Y319358D01*
X500315Y317042D01*
X499623Y314458D01*
Y311782D01*
X500315Y309198D01*
X501653Y306882D01*
X502721Y305814D01*
Y278010D01*
X496273D01*
Y257930D01*
X501486D01*
Y253827D01*
X497229Y249570D01*
X478131D01*
X473640Y254061D01*
Y257930D01*
X478853D01*
Y278010D01*
X468610D01*
Y304752D01*
X469021Y304990D01*
X470913Y306882D01*
X472251Y309198D01*
X472943Y311782D01*
Y314458D01*
X472251Y317042D01*
X470913Y319358D01*
X469021Y321250D01*
X466705Y322588D01*
X464121Y323280D01*
X461445D01*
X458861Y322588D01*
X456545Y321250D01*
X454653Y319358D01*
X453315Y317042D01*
X452623Y314458D01*
Y311782D01*
X453315Y309198D01*
X454653Y306882D01*
X456545Y304990D01*
X456956Y304752D01*
Y278010D01*
X456773D01*
Y257930D01*
X461986D01*
Y251647D01*
X462430Y249417D01*
X463693Y247527D01*
X470640Y240579D01*
Y231140D01*
X399310D01*
Y241329D01*
X404773Y246793D01*
X406036Y248683D01*
X406480Y250913D01*
Y257930D01*
X411693D01*
Y278010D01*
X406480D01*
Y287231D01*
X408493Y289244D01*
X409756Y291135D01*
X410200Y293365D01*
Y304752D01*
X410611Y304990D01*
X412503Y306882D01*
X413841Y309198D01*
X414533Y311782D01*
Y314458D01*
X413841Y317042D01*
X412503Y319358D01*
X410611Y321250D01*
X410200Y321488D01*
Y329569D01*
X416434Y335803D01*
X428865D01*
X430151Y334516D01*
X432179Y333346D01*
X434440Y332740D01*
X436780D01*
X439041Y333346D01*
X441069Y334516D01*
X442355Y335803D01*
X496696D01*
X503956Y328543D01*
D02*
G37*
G36*
X224869Y70356D02*
X225464Y61213D01*
X225650Y60578D01*
X225861Y60196D01*
X226097Y60069D01*
X210918D01*
X211153Y60196D01*
X211364Y60578D01*
X211550Y61213D01*
X211711Y62101D01*
X211847Y63245D01*
X212045Y66293D01*
X212157Y72769D01*
X224857D01*
X224869Y70356D01*
D02*
G37*
D10*
X149860Y722630D02*
X502920D01*
X138430Y711200D02*
X149860Y722630D01*
X502920D02*
X508000Y727710D01*
X461010Y753110D02*
X511810D01*
X538480Y726440D01*
Y469900D02*
Y726440D01*
Y469900D02*
X598170Y410210D01*
X1016000Y354330D02*
Y401320D01*
Y354330D02*
X1036320Y334010D01*
X1016000Y401320D02*
X1036320Y421640D01*
X994410Y523240D02*
X1016000Y501650D01*
Y448310D02*
X1036320Y427990D01*
X1016000Y448310D02*
Y501650D01*
X994410Y523240D02*
Y566420D01*
X855980Y586740D02*
Y600710D01*
Y586740D02*
X976630Y466090D01*
Y229870D02*
Y466090D01*
X598170Y410210D02*
X904240D01*
X920750Y393700D01*
Y166370D02*
Y393700D01*
Y166370D02*
X941070Y146050D01*
X1121410D01*
X549910Y477122D02*
X595232Y431800D01*
X922020D02*
X939800Y414020D01*
X595232Y431800D02*
X922020D01*
X549910Y477122D02*
Y750570D01*
X768350Y777240D02*
X803910D01*
X754380Y764540D02*
X768350D01*
X741680Y751840D02*
X754380Y764540D01*
X755650Y751840D02*
X928370D01*
X768350Y740410D02*
X827543D01*
X434705Y779416D02*
X461010Y753110D01*
X412750Y802640D02*
X434705Y780686D01*
Y779416D02*
Y780686D01*
X462280Y778510D02*
X521970D01*
X412750Y828040D02*
Y864870D01*
Y828040D02*
X462280Y778510D01*
X173990Y715010D02*
X508000D01*
X196850Y702310D02*
X508000D01*
X226060Y689610D02*
X508000D01*
X214630Y678180D02*
X226060Y689610D01*
X189230Y694690D02*
X196850Y702310D01*
X189230Y678180D02*
Y694690D01*
X163830Y704850D02*
X173990Y715010D01*
X163830Y678180D02*
Y704850D01*
X138430Y678180D02*
Y711200D01*
X521970Y778510D02*
X549910Y750570D01*
X881380Y777240D02*
X894080Y789940D01*
X835660Y777240D02*
X881380D01*
X803910D02*
X816610Y789940D01*
X771436Y764540D02*
X901700D01*
X919480Y782320D01*
X928370Y751840D02*
X944880Y768350D01*
X751840Y748030D02*
X755650Y751840D01*
X827543Y740410D02*
X831353Y744220D01*
X889516D01*
X892056Y741680D02*
X1007110D01*
X889516Y744220D02*
X892056Y741680D01*
X994410Y566420D02*
Y579120D01*
Y566420D02*
X1000760D01*
X1035050Y595630D02*
X1047750Y608330D01*
X1022350Y607060D02*
Y726440D01*
X994410Y579120D02*
X1022350Y607060D01*
X1047750Y608330D02*
Y840740D01*
Y608330D02*
X1085850Y570230D01*
X867410Y789940D02*
X877570Y800100D01*
X816610Y789940D02*
X867410D01*
X877570Y800100D02*
Y850900D01*
X878840Y852170D01*
Y852170D01*
X894080Y789940D02*
Y840740D01*
X878840Y852170D02*
X887730Y861060D01*
X1037590D01*
X1047750Y850900D01*
X939800Y261620D02*
Y414020D01*
X982980Y223520D02*
X996950D01*
X976630Y229870D02*
X982980Y223520D01*
X751840Y726440D02*
X996950Y481330D01*
Y302260D02*
Y481330D01*
X1036320Y334010D02*
X1192530D01*
X1036320Y421640D02*
X1078230D01*
X1080770Y406030D02*
Y419100D01*
X1078230Y421640D02*
X1080770Y419100D01*
X1192530Y334010D02*
X1207770Y349250D01*
Y534670D01*
X1172210Y570230D02*
X1207770Y534670D01*
X1085850Y570230D02*
X1172210D01*
X1036320Y427990D02*
X1093470D01*
X1007110Y741680D02*
X1022350Y726440D01*
X741680Y715010D02*
X855980Y600710D01*
X741680Y715010D02*
Y751840D01*
X751840Y726440D02*
Y748030D01*
X1148080Y365760D02*
Y406030D01*
X1160780Y373380D02*
Y406030D01*
X1165430Y368730D02*
X1173480D01*
X1160780Y373380D02*
X1165430Y368730D01*
X1173480Y379730D02*
Y406030D01*
X919480Y782320D02*
Y840740D01*
X944880Y768350D02*
Y840740D01*
X1047750D02*
Y850900D01*
X1007110Y741680D02*
X1022350Y756920D01*
Y840740D01*
D17*
X466090Y529590D02*
X474980Y520700D01*
X528320D01*
D24*
X719520Y267970D02*
D03*
X680020D02*
D03*
X573873D02*
D03*
X613373D02*
D03*
X361153D02*
D03*
X400653D02*
D03*
X467813D02*
D03*
X507313D02*
D03*
D28*
X1087120Y506380D02*
D03*
Y489880D02*
D03*
X1068070Y506380D02*
D03*
Y489880D02*
D03*
X1049020Y506380D02*
D03*
Y489880D02*
D03*
X1132840Y489590D02*
D03*
Y506090D02*
D03*
X1148080Y489590D02*
D03*
Y506090D02*
D03*
D34*
X709290Y240030D02*
D03*
X692790D02*
D03*
X586740D02*
D03*
X603240D02*
D03*
X374020D02*
D03*
X390520D02*
D03*
X479430D02*
D03*
X495930D02*
D03*
D92*
X854710Y340360D02*
Y346710D01*
X820420Y381000D02*
X854710Y346710D01*
X372110Y391160D02*
X382270Y381000D01*
X820420D01*
X357333Y50840D02*
Y128080D01*
X1017378Y537102D02*
X1115168D01*
X1017270Y537210D02*
X1017378Y537102D01*
X1115168D02*
X1132840Y519430D01*
Y506090D02*
Y519430D01*
X372110Y391160D02*
Y533830D01*
X676910Y198120D02*
X727710Y147320D01*
Y50800D02*
Y147320D01*
X676910Y50800D02*
Y128120D01*
X621030Y50800D02*
Y146680D01*
X569590Y198120D02*
X621030Y146680D01*
X569910Y51120D02*
Y127800D01*
Y51120D02*
X570230Y50800D01*
X569590Y128120D02*
X569910Y127800D01*
X462783Y198120D02*
X514350Y146553D01*
Y50800D02*
Y146553D01*
X463167Y51184D02*
Y127737D01*
X462783Y128120D02*
X463167Y127737D01*
Y51184D02*
X463550Y50800D01*
X408093D02*
Y147400D01*
X357373Y198120D02*
X408093Y147400D01*
X357333Y128080D02*
X357373Y128120D01*
X357293Y50800D02*
X357333Y50840D01*
X218507Y52480D02*
Y97857D01*
X232410Y111760D02*
Y191360D01*
X218507Y97857D02*
X232410Y111760D01*
D93*
X725235Y330265D02*
X735330Y340360D01*
X854710D01*
X725235Y330265D02*
X725235D01*
X541020Y341630D02*
X604520D01*
X519430D02*
X541020D01*
X509783Y330957D02*
Y331983D01*
Y313120D02*
Y330957D01*
X435610Y341630D02*
X499110D01*
X723910Y313120D02*
Y329047D01*
Y272295D02*
Y313120D01*
X1197610Y365760D02*
Y448310D01*
X1182370Y350520D02*
X1197610Y365760D01*
X1073150Y350520D02*
X1182370D01*
X1055195Y460205D02*
Y472615D01*
Y460205D02*
X1055370Y460030D01*
X1071880Y350520D02*
X1073150D01*
X1055370Y367030D02*
X1071880Y350520D01*
X1173480Y459915D02*
Y460030D01*
Y459915D02*
X1173655Y459740D01*
X1186180D01*
X1197610Y448310D01*
X1055370Y367030D02*
Y406030D01*
X1106170Y414020D02*
X1116330Y424180D01*
X1136650D01*
X1106170Y392430D02*
Y414020D01*
X1080770Y391160D02*
Y406030D01*
Y391160D02*
X1085850Y386080D01*
X1099820D01*
X1106170Y392430D01*
X1136650Y424180D02*
X1148080Y435610D01*
Y460030D01*
X1135380Y440690D02*
Y460030D01*
Y476250D01*
X1101090Y435610D02*
X1130300D01*
X1135380Y440690D01*
X1093470Y406030D02*
Y427990D01*
X1101090Y435610D01*
X1173480Y460030D02*
Y497840D01*
X1148080Y506090D02*
X1165230D01*
X1173480Y497840D01*
X1132840Y506090D02*
X1148080D01*
X1132840Y478790D02*
Y489590D01*
Y478790D02*
X1135380Y476250D01*
X1148080Y460030D02*
Y489590D01*
X1080770Y460030D02*
Y474980D01*
X1086370Y489880D02*
X1087120D01*
X1085545Y489055D02*
X1086370Y489880D01*
X1085545Y479755D02*
Y489055D01*
X1080770Y474980D02*
X1085545Y479755D01*
X1049020Y478790D02*
X1055195Y472615D01*
X1049020Y478790D02*
Y489880D01*
X1068070Y460030D02*
Y489880D01*
X647700Y341630D02*
X711327D01*
X626237D02*
X647700D01*
X414020D02*
X435610D01*
X711327D02*
X723910Y329047D01*
X616590Y313120D02*
Y331983D01*
X626237Y341630D01*
X509783Y331983D02*
X519430Y341630D01*
X604520D02*
X615193Y330957D01*
X499110Y341630D02*
X509783Y330957D01*
X404373Y331983D02*
X414020Y341630D01*
X404373Y313120D02*
Y331983D01*
X359074Y270049D02*
Y311419D01*
X357373Y313120D02*
X359074Y311419D01*
Y270049D02*
X361153Y267970D01*
X365643Y248407D02*
X366393D01*
X361153Y252897D02*
X365643Y248407D01*
X374020Y240030D02*
Y240780D01*
X366393Y248407D02*
X374020Y240780D01*
X361153Y252897D02*
Y267970D01*
X390520Y240780D02*
X400653Y250913D01*
X390520Y240030D02*
Y240780D01*
X400653Y250913D02*
Y267970D01*
Y289645D02*
X404373Y293365D01*
X400653Y267970D02*
Y289645D01*
X404373Y293365D02*
Y313120D01*
X467813Y251647D02*
X475605Y243855D01*
X476355D01*
X479430Y240780D01*
X467813Y251647D02*
Y267970D01*
X479430Y240030D02*
Y240780D01*
X467108Y267970D02*
X467813D01*
X462783Y272295D02*
Y313120D01*
Y272295D02*
X467108Y267970D01*
X499755Y243855D02*
X507313Y251413D01*
X499005Y243855D02*
X499755D01*
X495930Y240780D02*
X499005Y243855D01*
X495930Y240030D02*
Y240780D01*
X507313Y251413D02*
Y267970D01*
X508548Y269205D02*
Y311885D01*
X507313Y267970D02*
X508548Y269205D01*
Y311885D02*
X509783Y313120D01*
X573873Y252897D02*
X582915Y243855D01*
X583665D02*
X586740Y240780D01*
X573873Y252897D02*
Y267970D01*
X582915Y243855D02*
X583665D01*
X586740Y240030D02*
Y240780D01*
X571291Y270552D02*
X573873Y267970D01*
X569590Y313120D02*
X571291Y311419D01*
Y270552D02*
Y311419D01*
X603240Y240030D02*
Y240780D01*
X613373Y250913D02*
Y267970D01*
X603240Y240780D02*
X613373Y250913D01*
X614981Y269578D02*
Y311511D01*
X616590Y313120D01*
X613373Y267970D02*
X614981Y269578D01*
X680020Y252800D02*
X688965Y243855D01*
X689715D01*
X692790Y240780D01*
X680020Y252800D02*
Y267970D01*
X692790Y240030D02*
Y240780D01*
X678465Y269525D02*
Y311565D01*
Y269525D02*
X680020Y267970D01*
X676910Y313120D02*
X678465Y311565D01*
X712430Y243855D02*
X719520Y250945D01*
Y267970D01*
X712365Y243855D02*
X712430D01*
X709290Y240780D02*
X712365Y243855D01*
X709290Y240030D02*
Y240780D01*
X719520Y267970D02*
X719585D01*
X723910Y272295D01*
D94*
X852170Y557530D02*
X958850Y450850D01*
Y220980D02*
X974090Y205740D01*
X958850Y220980D02*
Y450850D01*
X1041400Y218440D02*
Y233680D01*
X1032510Y242570D02*
X1041400Y233680D01*
X1028700Y205740D02*
X1041400Y218440D01*
X974090Y205740D02*
X1028700D01*
D95*
X397510Y533830D02*
D03*
X163830Y678180D02*
D03*
X189230D02*
D03*
X214630D02*
D03*
X240030D02*
D03*
X919480Y840740D02*
D03*
X944880D02*
D03*
X970280D02*
D03*
X1047750D02*
D03*
X1073150D02*
D03*
X1098550D02*
D03*
D96*
X372110Y533830D02*
D03*
X138430Y678180D02*
D03*
X894080Y840740D02*
D03*
X1022350D02*
D03*
D97*
X569590Y198120D02*
D03*
X167707Y52480D02*
D03*
X155410Y191360D02*
D03*
X232410D02*
D03*
X308410Y616360D02*
D03*
X80410D02*
D03*
X816610Y50800D02*
D03*
X676910Y313120D02*
D03*
X723910D02*
D03*
X676910Y128120D02*
D03*
Y198120D02*
D03*
X569590Y128120D02*
D03*
X616590Y313120D02*
D03*
X569590D02*
D03*
X357373Y198120D02*
D03*
Y128120D02*
D03*
X404373Y313120D02*
D03*
X357373D02*
D03*
X357293Y50800D02*
D03*
X463550D02*
D03*
X676910D02*
D03*
X570230D02*
D03*
X462783Y198120D02*
D03*
Y128120D02*
D03*
X509783Y313120D02*
D03*
X462783D02*
D03*
D98*
X1173480Y379730D02*
D03*
Y368730D02*
D03*
D99*
X218507Y52480D02*
D03*
X867410Y50800D02*
D03*
X408093D02*
D03*
X514350D02*
D03*
X727710D02*
D03*
X621030D02*
D03*
D100*
X1087120Y74120D02*
D03*
X1000720D02*
D03*
D101*
X1087120Y32320D02*
D03*
X1000720D02*
D03*
D102*
X1123950Y657860D02*
D03*
X1142746D02*
D03*
X1161542D02*
D03*
X1180338D02*
D03*
X1199134D02*
D03*
X1217930Y657860D02*
D03*
Y623147D02*
D03*
Y605790D02*
D03*
X1199134D02*
D03*
X1180338D02*
D03*
X1161542D02*
D03*
X1142746D02*
D03*
X1123950D02*
D03*
Y623147D02*
D03*
X1217930Y640503D02*
D03*
X441960Y858520D02*
D03*
Y835660D02*
D03*
X466090Y529590D02*
D03*
X508000Y715010D02*
D03*
Y727710D02*
D03*
Y689610D02*
D03*
Y702310D02*
D03*
X528320Y520700D02*
D03*
X611464Y457159D02*
D03*
X635000Y456565D02*
D03*
X622935D02*
D03*
X762000Y450850D02*
D03*
Y419100D02*
D03*
X825500D02*
D03*
X793750D02*
D03*
X768350Y777240D02*
D03*
Y764540D02*
D03*
Y751840D02*
D03*
Y740410D02*
D03*
X412750Y802640D02*
D03*
X521970Y778510D02*
D03*
X412750Y864870D02*
D03*
X835660Y777240D02*
D03*
X1000760Y566420D02*
D03*
X1035050Y595630D02*
D03*
X115570Y308229D02*
D03*
Y332063D02*
D03*
Y355896D02*
D03*
Y379730D02*
D03*
X138430Y308229D02*
D03*
Y332063D02*
D03*
Y355896D02*
D03*
Y379730D02*
D03*
X92710D02*
D03*
Y355896D02*
D03*
Y332063D02*
D03*
Y308229D02*
D03*
X290830Y305689D02*
D03*
Y329523D02*
D03*
Y353356D02*
D03*
Y377190D02*
D03*
X313690Y305689D02*
D03*
Y329523D02*
D03*
Y353356D02*
D03*
Y377190D02*
D03*
X267970D02*
D03*
Y353356D02*
D03*
Y329523D02*
D03*
Y305689D02*
D03*
X115570Y403479D02*
D03*
Y427313D02*
D03*
Y451146D02*
D03*
Y474980D02*
D03*
X138430Y403479D02*
D03*
Y427313D02*
D03*
Y451146D02*
D03*
Y474980D02*
D03*
X92710D02*
D03*
Y451146D02*
D03*
Y427313D02*
D03*
Y403479D02*
D03*
X290830Y400939D02*
D03*
Y424773D02*
D03*
Y448606D02*
D03*
Y472440D02*
D03*
X313690Y400939D02*
D03*
Y424773D02*
D03*
Y448606D02*
D03*
Y472440D02*
D03*
X267970D02*
D03*
Y448606D02*
D03*
Y424773D02*
D03*
Y400939D02*
D03*
X48260Y768731D02*
D03*
Y744897D02*
D03*
Y721064D02*
D03*
Y697230D02*
D03*
X25400Y768731D02*
D03*
Y744897D02*
D03*
Y721064D02*
D03*
Y697230D02*
D03*
X71120D02*
D03*
Y721064D02*
D03*
Y744897D02*
D03*
Y768731D02*
D03*
X73660Y175641D02*
D03*
Y151807D02*
D03*
Y127974D02*
D03*
Y104140D02*
D03*
X50800Y175641D02*
D03*
Y151807D02*
D03*
Y127974D02*
D03*
Y104140D02*
D03*
X96520D02*
D03*
Y127974D02*
D03*
Y151807D02*
D03*
Y175641D02*
D03*
X288290Y110871D02*
D03*
Y87037D02*
D03*
Y63204D02*
D03*
Y39370D02*
D03*
X265430Y110871D02*
D03*
Y87037D02*
D03*
Y63204D02*
D03*
Y39370D02*
D03*
X311150D02*
D03*
Y63204D02*
D03*
Y87037D02*
D03*
Y110871D02*
D03*
X960120Y97875D02*
D03*
Y74041D02*
D03*
Y50207D02*
D03*
Y26374D02*
D03*
X914400D02*
D03*
Y50207D02*
D03*
Y74041D02*
D03*
Y97875D02*
D03*
X937260Y26374D02*
D03*
Y50207D02*
D03*
Y74041D02*
D03*
Y97875D02*
D03*
X793750Y450850D02*
D03*
X825500D02*
D03*
X759164Y858520D02*
D03*
X782997D02*
D03*
X806831D02*
D03*
X830665D02*
D03*
X759164Y835660D02*
D03*
X782997D02*
D03*
X806831D02*
D03*
X830665D02*
D03*
X167344Y535940D02*
D03*
X191177D02*
D03*
X215011D02*
D03*
X238845D02*
D03*
X167344Y513080D02*
D03*
X191177D02*
D03*
X215011D02*
D03*
X238845D02*
D03*
X250571Y836930D02*
D03*
X226737D02*
D03*
X202904D02*
D03*
X179070D02*
D03*
X250571Y859790D02*
D03*
X226737D02*
D03*
X202904D02*
D03*
X179070D02*
D03*
X24130Y604520D02*
D03*
Y580686D02*
D03*
Y556852D02*
D03*
Y485352D02*
D03*
Y509185D02*
D03*
Y533019D02*
D03*
Y413851D02*
D03*
Y437684D02*
D03*
Y461518D02*
D03*
Y366183D02*
D03*
Y390017D02*
D03*
Y342350D02*
D03*
Y318516D02*
D03*
Y294682D02*
D03*
Y223181D02*
D03*
Y247015D02*
D03*
Y270849D02*
D03*
X25817Y151638D02*
D03*
X24130Y175514D02*
D03*
Y199348D02*
D03*
X25956Y103759D02*
D03*
X25817Y127635D02*
D03*
X1208187Y115062D02*
D03*
X1208326Y91186D02*
D03*
X1208048Y186817D02*
D03*
X1208187Y162941D02*
D03*
Y139065D02*
D03*
X1207909Y258572D02*
D03*
X1208048Y234696D02*
D03*
Y210820D02*
D03*
X1207909Y282575D02*
D03*
Y306451D02*
D03*
X1207770Y330327D02*
D03*
X1113155Y128131D02*
D03*
X1125220Y128270D02*
D03*
X1137285Y128131D02*
D03*
X1184910Y695960D02*
D03*
Y715010D02*
D03*
Y734060D02*
D03*
X1084580Y365760D02*
D03*
X1072515Y365899D02*
D03*
X1186319Y391795D02*
D03*
X939800Y261620D02*
D03*
X996950Y223520D02*
D03*
Y302260D02*
D03*
X1032510Y242570D02*
D03*
X852170Y557530D02*
D03*
X1073150Y350520D02*
D03*
X1148080Y365760D02*
D03*
D103*
X854710Y340360D02*
D03*
X1121410Y146050D02*
D03*
X1017270Y537210D02*
D03*
X647700Y341630D02*
D03*
X541020D02*
D03*
X435610D02*
D03*
D104*
X1093470Y406030D02*
D03*
X1080770D02*
D03*
X1068070D02*
D03*
X1055370D02*
D03*
X1093470Y460030D02*
D03*
X1080770D02*
D03*
X1068070D02*
D03*
X1135380D02*
D03*
X1148080D02*
D03*
X1160780D02*
D03*
X1173480D02*
D03*
X1135380Y406030D02*
D03*
X1148080D02*
D03*
X1160780D02*
D03*
D105*
X1055370Y460030D02*
D03*
X1173480Y406030D02*
D03*
M02*
