M48
;Layer_Color=9474304
;FILE_FORMAT=4:4
METRIC,LZ
;TYPE=PLATED
T1F00S00C0.3810
T2F00S00C0.4000
T4F00S00C0.7112
T5F00S00C0.7620
T6F00S00C0.8000
T7F00S00C0.9000
T8F00S00C1.1000
%
T01
X00025956Y00103759
X00025817Y00127635
Y00151638
X000508Y00151807
X0007366
X0009652
Y00127974
X0007366
X000508
Y0010414
X0007366
X0009652
Y00175641
X0007366
X000508
X0002413Y00175514
Y00199348
Y00223181
Y00247015
Y00270849
Y00294682
Y00318516
Y0034235
Y00366183
Y00390017
X0009271Y0037973
X0011557
X0013843
Y00355896
X0011557
X0009271
Y00332063
X0011557
X0013843
Y00308229
X0011557
X0009271
X0026797Y00305689
X0029083
X0031369
Y00329523
X0029083
X0026797
Y00353356
X0029083
X0031369
Y0037719
X0029083
X0026797
X0026543Y00110871
X0028829
X0031115
Y00087037
X0028829
X0026543
Y00063204
X0028829
X0031115
Y0003937
X0028829
X0026543
X009144Y00050207
X0093726
X0096012
Y00074041
X0093726
X009144
Y00097875
X0093726
X0096012
Y00026374
X0093726
X009144
X009398Y0026162
X0099695Y0022352
X0103251Y0024257
X0099695Y0030226
X0107315Y0035052
X01072515Y00365899
X0108458Y0036576
X0114808
X01186319Y00391795
X01137285Y00128131
X0112522Y0012827
X01113155Y00128131
X01208187Y00139065
Y00162941
X01208048Y00186817
Y0021082
Y00234696
X01207909Y00258572
Y00282575
Y00306451
X0120777Y00330327
X01208187Y00115062
X01208326Y00091186
X01199134Y0060579
X0121793
Y00623147
Y00640503
Y0065786
X01199134Y0065786
X01180338
X01161542
X01142746
X0112395
Y00623147
Y0060579
X01142746
X01161542
X01180338
X0118491Y0069596
Y0071501
Y0073406
X0103505Y0059563
X0100076Y0056642
X0085217Y0055753
X008255Y0045085
Y004191
X0079375
Y0045085
X0083566Y0077724
X0076835
Y0076454
Y0075184
Y0074041
X00508Y0072771
Y0071501
Y0070231
Y0068961
X0052197Y0077851
X0052832Y005207
X0046609Y0052959
X00611464Y00457159
X00622935Y00456565
X00635
X00762Y0045085
Y004191
X0031369Y00424773
X0029083
X0026797
Y00448606
X0029083
X0031369
Y0047244
X0029083
X0026797
X00238845Y0051308
Y0053594
X00215011
Y0051308
X00191177
Y0053594
X00167344
Y0051308
X0013843Y0047498
X0011557
X0009271
Y00451146
X0011557
X0013843
Y00427313
X0011557
X0009271
Y00403479
X0011557
X0013843
X0002413Y00413851
Y00437684
Y00461518
Y00485352
Y00509185
Y00533019
Y00556852
Y00580686
Y0060452
X000254Y0069723
X0004826
X0007112
Y00721064
X0004826
X000254
Y00744897
X0004826
X0007112
Y00768731
X0004826
X000254
X0026797Y00400939
X0029083
X0031369
X00250571Y0083693
Y0085979
X00226737
Y0083693
X00202904
Y0085979
X0017907
Y0083693
X0041275Y0086487
X0044196Y0085852
Y0083566
X0041275Y0080264
X00759164Y0083566
Y0085852
X00782997
Y0083566
X00806831
Y0085852
X00830665
Y0083566
T02
X0117348Y0036873
Y0037973
T04
X0043561Y0034163
X0054102
X006477
X0085471Y0034036
X0112141Y0014605
X0101727Y0053721
T05
X00357373Y0012812
Y0019812
Y0031312
X00404373
X00462783
X00509783
X0056959
X0061659
X0067691
X0072391
X0067691Y0019812
Y0012812
X0056959
Y0019812
X00462783
Y0012812
T06
X0039751Y0053383
X0037211
X0024003Y0067818
X0021463
X0018923
X0016383
X0013843
X0089408Y0084074
X0091948
X0094488
X0097028
X0102235
X0104775
X0107315
X0109855
T07
X0015541Y0019136
X0023241
X0030841Y0061636
X0008041
T08
X00167707Y0005248
X00218507
X00357293Y000508
X00408093
X0046355
X0051435
X0057023
X0062103
X0067691
X0072771
X0081661
X0086741
M30
