G04*
G04 #@! TF.GenerationSoftware,Altium Limited,Altium Designer,21.3.2 (30)*
G04*
G04 Layer_Color=16711935*
%FSLAX44Y44*%
%MOMM*%
G71*
G04*
G04 #@! TF.SameCoordinates,8E102A86-DBDF-4379-BD88-F244A9775125*
G04*
G04*
G04 #@! TF.FilePolarity,Positive*
G04*
G01*
G75*
%ADD15C,0.1000*%
%ADD109C,0.0127*%
%ADD110R,0.3810X5.5880*%
%ADD111R,2.1590X0.3810*%
%ADD112R,7.3660X0.3810*%
%ADD113R,15.2146X0.3810*%
%ADD114R,0.3810X6.0452*%
%ADD115R,1.9050X0.3810*%
%ADD116R,0.3810X6.0960*%
%ADD117R,12.3190X0.3810*%
D15*
X966200Y266446D02*
Y274574D01*
X983980Y266446D02*
Y274574D01*
X966200D02*
X983980D01*
X966200Y266446D02*
X983980D01*
X966200Y248666D02*
Y256794D01*
X983980Y248666D02*
Y256794D01*
X966200D02*
X983980D01*
X966200Y248666D02*
X983980D01*
X466090Y829056D02*
X483870D01*
X466090Y837184D02*
X483870D01*
Y829056D02*
Y837184D01*
X466090Y829056D02*
Y837184D01*
X797560Y667004D02*
X815340D01*
X797560Y658876D02*
X815340D01*
X797560D02*
Y667004D01*
X815340Y658876D02*
Y667004D01*
X797560Y654304D02*
X815340D01*
X797560Y646176D02*
X815340D01*
X797560D02*
Y654304D01*
X815340Y646176D02*
Y654304D01*
D109*
X1220063Y840063D02*
G03*
X1220063Y840063I-30000J0D01*
G01*
Y40064D02*
G03*
X1220063Y40064I-30000J0D01*
G01*
X70064D02*
G03*
X70064Y40064I-30000J0D01*
G01*
Y840063D02*
G03*
X70064Y840063I-30000J0D01*
G01*
X1220063D02*
G03*
X1220063Y840063I-30000J0D01*
G01*
Y40064D02*
G03*
X1220063Y40064I-30000J0D01*
G01*
X70064D02*
G03*
X70064Y40064I-30000J0D01*
G01*
Y840063D02*
G03*
X70064Y840063I-30000J0D01*
G01*
X63Y63D02*
Y880063D01*
X1230063D01*
Y63D02*
Y880063D01*
X63Y63D02*
X1230063D01*
X63D02*
Y880063D01*
X1230063D01*
Y63D02*
Y880063D01*
X63Y63D02*
X1230063D01*
D110*
X349877Y538906D02*
D03*
X419727D02*
D03*
X991241Y845820D02*
D03*
X871861D02*
D03*
X1119511D02*
D03*
X1000131D02*
D03*
D111*
X410837Y512871D02*
D03*
X358767D02*
D03*
X124587Y654685D02*
D03*
X880751Y819785D02*
D03*
X1009021D02*
D03*
D112*
X384802Y564941D02*
D03*
D113*
X189865Y711835D02*
D03*
D114*
X264033Y683514D02*
D03*
D115*
X255905Y655193D02*
D03*
X983621Y819785D02*
D03*
X1111891D02*
D03*
D116*
X115697Y683260D02*
D03*
D117*
X931551Y871855D02*
D03*
X1059821D02*
D03*
M02*
