G04*
G04 #@! TF.GenerationSoftware,Altium Limited,Altium Designer,21.3.2 (30)*
G04*
G04 Layer_Color=32768*
%FSLAX44Y44*%
%MOMM*%
G71*
G04*
G04 #@! TF.SameCoordinates,8E102A86-DBDF-4379-BD88-F244A9775125*
G04*
G04*
G04 #@! TF.FilePolarity,Positive*
G04*
G01*
G75*
%ADD10C,0.2540*%
%ADD15C,0.1000*%
%ADD16C,0.0500*%
D10*
X231240Y129032D02*
Y165608D01*
X157580Y129032D02*
Y165608D01*
Y129032D02*
X231240D01*
X157580Y165608D02*
X231240D01*
X1142492Y609854D02*
Y653796D01*
X1186688Y609854D02*
Y653796D01*
X1142492D02*
X1186688D01*
X1142492Y609854D02*
X1186688D01*
D15*
X376000Y619760D02*
X386000D01*
X381000Y614760D02*
Y624760D01*
Y582310D02*
Y592310D01*
X376000Y587310D02*
X386000D01*
X946230Y518070D02*
X956230D01*
X951230Y513070D02*
Y523070D01*
X698403Y549990D02*
Y559990D01*
X693403Y554990D02*
X703403D01*
X890270Y523320D02*
Y533320D01*
X885270Y528320D02*
X895270D01*
X962136Y264414D02*
Y276606D01*
X988044Y264414D02*
Y276606D01*
X962136D02*
X988044D01*
X962136Y264414D02*
X988044D01*
X962136Y246634D02*
Y258826D01*
X988044Y246634D02*
Y258826D01*
X962136D02*
X988044D01*
X962136Y246634D02*
X988044D01*
X1110670Y280540D02*
X1120670D01*
X1115670Y275540D02*
Y285540D01*
X462026Y827024D02*
X487934D01*
X462026Y839216D02*
X487934D01*
Y827024D02*
Y839216D01*
X462026Y827024D02*
Y839216D01*
X622300Y485220D02*
Y495220D01*
X617300Y490220D02*
X627300D01*
X1026300Y698580D02*
Y708580D01*
X1021300Y703580D02*
X1031300D01*
X962030Y798910D02*
Y808910D01*
X957030Y803910D02*
X967030D01*
X1090300Y800180D02*
Y810180D01*
X1085300Y805180D02*
X1095300D01*
X988140Y507320D02*
X998140D01*
X993140Y502320D02*
Y512320D01*
X822960Y513070D02*
Y523070D01*
X817960Y518070D02*
X827960D01*
X776050Y507320D02*
X786050D01*
X781050Y502320D02*
Y512320D01*
X1127100Y309830D02*
Y319830D01*
X1122100Y314830D02*
X1132100D01*
X969090Y206880D02*
X979090D01*
X974090Y201880D02*
Y211880D01*
X969090Y189100D02*
X979090D01*
X974090Y184100D02*
Y194100D01*
X1125300Y177100D02*
X1135300D01*
X1130300Y172100D02*
Y182100D01*
X1125300Y250760D02*
X1135300D01*
X1130300Y245760D02*
Y255760D01*
X830710Y204470D02*
X840710D01*
X835710Y199470D02*
Y209470D01*
X847090Y162640D02*
Y172640D01*
X842090Y167640D02*
X852090D01*
X835660Y134700D02*
Y144700D01*
X830660Y139700D02*
X840660D01*
X683340Y344170D02*
X693340D01*
X688340Y339170D02*
Y349170D01*
X701040Y235030D02*
Y245030D01*
X696040Y240030D02*
X706040D01*
X699770Y262970D02*
Y272970D01*
X694770Y267970D02*
X704770D01*
X793496Y669036D02*
X819404D01*
X793496Y656844D02*
X819404D01*
X793496D02*
Y669036D01*
X819404Y656844D02*
Y669036D01*
X793496Y656336D02*
X819404D01*
X793496Y644144D02*
X819404D01*
X793496D02*
Y656336D01*
X819404Y644144D02*
Y656336D01*
X581020Y339170D02*
Y349170D01*
X576020Y344170D02*
X586020D01*
X589990Y240030D02*
X599990D01*
X594990Y235030D02*
Y245030D01*
X588623Y267970D02*
X598623D01*
X593623Y262970D02*
Y272970D01*
X364490Y339170D02*
Y349170D01*
X359490Y344170D02*
X369490D01*
X377270Y240030D02*
X387270D01*
X382270Y235030D02*
Y245030D01*
X375903Y267970D02*
X385903D01*
X380903Y262970D02*
Y272970D01*
X482680Y240030D02*
X492680D01*
X487680Y235030D02*
Y245030D01*
X482563Y267970D02*
X492563D01*
X487563Y262970D02*
Y272970D01*
X473710Y339170D02*
Y349170D01*
X468710Y344170D02*
X478710D01*
X1154650Y695960D02*
X1164650D01*
X1159650Y690960D02*
Y700960D01*
X1154650Y715010D02*
X1164650D01*
X1159650Y710010D02*
Y720010D01*
X1154650Y734060D02*
X1164650D01*
X1159650Y729060D02*
Y739060D01*
D16*
X361750Y602260D02*
Y637260D01*
X400250Y602260D02*
Y637260D01*
X361750D02*
X400250D01*
X361750Y602260D02*
X400250D01*
X350500Y604310D02*
X411500D01*
X350500Y570310D02*
X411500D01*
X350500D02*
Y604310D01*
X411500Y570310D02*
Y604310D01*
X919730Y473070D02*
Y563070D01*
X982730Y473070D02*
Y563070D01*
X919730Y473070D02*
X982730D01*
X919730Y563070D02*
X982730D01*
X667903Y537990D02*
X728903D01*
X667903Y571990D02*
X728903D01*
Y537990D02*
Y571990D01*
X667903Y537990D02*
Y571990D01*
X854270Y485820D02*
X926270D01*
X854270Y570820D02*
X926270D01*
X854270Y485820D02*
Y570820D01*
X926270Y485820D02*
Y570820D01*
X1098670Y271040D02*
X1132670D01*
Y290040D01*
X1098670Y271040D02*
Y290040D01*
X1132670D01*
X603050Y472720D02*
X641550D01*
X603050Y507720D02*
X641550D01*
Y472720D02*
Y507720D01*
X603050Y472720D02*
Y507720D01*
X938600Y621080D02*
X1114000D01*
X938600Y786080D02*
X1114000D01*
Y621080D02*
Y786080D01*
X938600Y621080D02*
Y786080D01*
X945030Y813410D02*
X979030D01*
X945030Y794410D02*
Y813410D01*
X979030Y794410D02*
Y813410D01*
X945030Y794410D02*
X979030D01*
X1073300Y814680D02*
X1107300D01*
X1073300Y795680D02*
Y814680D01*
X1107300Y795680D02*
Y814680D01*
X1073300Y795680D02*
X1107300D01*
X1002640Y490320D02*
Y524320D01*
X983640D02*
X1002640D01*
X983640Y490320D02*
X1002640D01*
X983640D02*
Y524320D01*
X791460Y563070D02*
X854460D01*
X791460Y473070D02*
X854460D01*
Y563070D01*
X791460Y473070D02*
Y563070D01*
X790550Y490320D02*
Y524320D01*
X771550D02*
X790550D01*
X771550Y490320D02*
X790550D01*
X771550D02*
Y524320D01*
X1082100Y283330D02*
X1172100D01*
X1082100Y346330D02*
X1172100D01*
Y283330D02*
Y346330D01*
X1082100Y283330D02*
Y346330D01*
X957090Y216380D02*
X991090D01*
X957090Y197380D02*
Y216380D01*
X991090Y197380D02*
Y216380D01*
X957090Y197380D02*
X991090D01*
X957090Y198600D02*
X991090D01*
X957090Y179600D02*
Y198600D01*
X991090Y179600D02*
Y198600D01*
X957090Y179600D02*
X991090D01*
X1112800Y157850D02*
Y196350D01*
X1147800Y157850D02*
Y196350D01*
X1112800Y157850D02*
X1147800D01*
X1112800Y196350D02*
X1147800D01*
X1147800Y231510D02*
Y270010D01*
X1112800Y231510D02*
Y270010D01*
X1147800D01*
X1112800Y231510D02*
X1147800D01*
X880710Y172970D02*
Y235970D01*
X790710Y172970D02*
Y235970D01*
Y172970D02*
X880710D01*
X790710Y235970D02*
X880710D01*
X830090Y158140D02*
X864090D01*
Y177140D01*
X830090Y158140D02*
Y177140D01*
X864090D01*
X805160Y122700D02*
X866160D01*
X805160Y156700D02*
X866160D01*
Y122700D02*
Y156700D01*
X805160Y122700D02*
Y156700D01*
X707590Y326670D02*
Y361670D01*
X669090Y326670D02*
Y361670D01*
Y326670D02*
X707590D01*
X669090Y361670D02*
X707590D01*
X684040Y249530D02*
X718040D01*
Y230530D02*
Y249530D01*
X684040Y230530D02*
Y249530D01*
Y230530D02*
X718040D01*
X669270Y284970D02*
X730270D01*
X669270Y250970D02*
X730270D01*
Y284970D01*
X669270Y250970D02*
Y284970D01*
X561770Y361670D02*
X600270D01*
X561770Y326670D02*
X600270D01*
X561770D02*
Y361670D01*
X600270Y326670D02*
Y361670D01*
X577990Y230530D02*
X611990D01*
X577990D02*
Y249530D01*
X611990Y230530D02*
Y249530D01*
X577990D02*
X611990D01*
X563123Y250970D02*
Y284970D01*
X624123Y250970D02*
Y284970D01*
X563123Y250970D02*
X624123D01*
X563123Y284970D02*
X624123D01*
X345240Y361670D02*
X383740D01*
X345240Y326670D02*
X383740D01*
X345240D02*
Y361670D01*
X383740Y326670D02*
Y361670D01*
X365270Y230530D02*
X399270D01*
X365270D02*
Y249530D01*
X399270Y230530D02*
Y249530D01*
X365270D02*
X399270D01*
X350403Y250970D02*
Y284970D01*
X411403Y250970D02*
Y284970D01*
X350403Y250970D02*
X411403D01*
X350403Y284970D02*
X411403D01*
X470680Y230530D02*
X504680D01*
X470680D02*
Y249530D01*
X504680Y230530D02*
Y249530D01*
X470680D02*
X504680D01*
X457063Y250970D02*
Y284970D01*
X518063Y250970D02*
Y284970D01*
X457063Y250970D02*
X518063D01*
X457063Y284970D02*
X518063D01*
X454460Y361670D02*
X492960D01*
X454460Y326670D02*
X492960D01*
X454460D02*
Y361670D01*
X492960Y326670D02*
Y361670D01*
X1142650Y686460D02*
X1176650D01*
Y705460D01*
X1142650Y686460D02*
Y705460D01*
X1176650D01*
X1142650Y705510D02*
X1176650D01*
Y724510D01*
X1142650Y705510D02*
Y724510D01*
X1176650D01*
X1142650Y724560D02*
X1176650D01*
Y743560D01*
X1142650Y724560D02*
Y743560D01*
X1176650D01*
M02*
