G04*
G04 #@! TF.GenerationSoftware,Altium Limited,Altium Designer,21.3.2 (30)*
G04*
G04 Layer_Color=8421504*
%FSLAX44Y44*%
%MOMM*%
G71*
G04*
G04 #@! TF.SameCoordinates,8E102A86-DBDF-4379-BD88-F244A9775125*
G04*
G04*
G04 #@! TF.FilePolarity,Positive*
G04*
G01*
G75*
%ADD18R,0.8000X0.9500*%
%ADD19C,1.0000*%
%ADD20R,1.0500X1.0500*%
%ADD21R,1.5000X0.9000*%
%ADD22R,0.9000X1.5000*%
%ADD23R,1.0000X0.6000*%
%ADD24R,1.7000X1.5000*%
%ADD25R,1.8000X3.2000*%
%ADD26R,1.0000X0.9000*%
%ADD27R,0.9000X1.0000*%
%ADD28R,0.9500X0.8000*%
%ADD29R,1.2000X1.0000*%
%ADD30R,1.9600X3.1500*%
%ADD31R,1.0000X2.1500*%
%ADD32R,3.2500X2.1500*%
%ADD33R,0.7500X0.8000*%
%ADD34R,1.2500X1.4000*%
%ADD35C,15.0000*%
%ADD36R,2.2000X1.1000*%
%ADD37R,2.4500X0.8500*%
%ADD38R,1.4000X1.2500*%
%ADD39R,2.7000X1.5000*%
%ADD40R,3.2000X1.8000*%
%ADD41O,1.7450X0.5600*%
%ADD42R,1.7450X0.5600*%
%ADD43R,0.8000X1.2000*%
%ADD44R,0.6000X1.0000*%
%ADD45R,1.2000X0.5000*%
%ADD46O,1.2000X0.5000*%
%ADD47R,1.1500X1.3500*%
%ADD48R,0.3000X1.1500*%
%ADD49R,1.0000X1.1000*%
%ADD50R,1.0500X2.2000*%
D18*
X815956Y777240D02*
D03*
X799456D02*
D03*
X483230Y740410D02*
D03*
X466730D02*
D03*
X483244Y778510D02*
D03*
X466744D02*
D03*
X798200Y637540D02*
D03*
X814700D02*
D03*
X798200Y676910D02*
D03*
X814700D02*
D03*
X709290Y403860D02*
D03*
X692790D02*
D03*
X603240D02*
D03*
X586740D02*
D03*
X495930D02*
D03*
X479430D02*
D03*
X390520D02*
D03*
X374020D02*
D03*
X899800Y654050D02*
D03*
X916300D02*
D03*
Y641350D02*
D03*
X899800D02*
D03*
X799456Y740410D02*
D03*
X815956D02*
D03*
X466744Y689610D02*
D03*
X483244D02*
D03*
X466744Y702310D02*
D03*
X483244D02*
D03*
X466744Y727710D02*
D03*
X483244D02*
D03*
X466744Y715010D02*
D03*
X483244D02*
D03*
X483230Y819150D02*
D03*
X466730D02*
D03*
X982340Y238630D02*
D03*
X965840D02*
D03*
X982340Y284480D02*
D03*
X965840D02*
D03*
D19*
X1202690Y633730D02*
D03*
X927100Y561340D02*
D03*
X1156970Y146050D02*
D03*
X910590Y241300D02*
D03*
Y276860D02*
D03*
X1016000Y582930D02*
D03*
Y561340D02*
D03*
D20*
X655140Y748030D02*
D03*
X618310D02*
D03*
X636725D02*
D03*
X655140Y730510D02*
D03*
X636725Y713350D02*
D03*
X618310D02*
D03*
Y730510D02*
D03*
X655140Y713350D02*
D03*
X636725Y730510D02*
D03*
D21*
X554160Y803910D02*
D03*
Y791210D02*
D03*
Y778510D02*
D03*
Y765810D02*
D03*
Y753110D02*
D03*
Y740410D02*
D03*
Y727710D02*
D03*
Y715010D02*
D03*
Y702310D02*
D03*
Y689610D02*
D03*
Y676910D02*
D03*
Y664210D02*
D03*
Y651510D02*
D03*
Y638810D02*
D03*
X734060D02*
D03*
Y651510D02*
D03*
Y664210D02*
D03*
Y676910D02*
D03*
Y689610D02*
D03*
Y702310D02*
D03*
Y715010D02*
D03*
Y727710D02*
D03*
Y740410D02*
D03*
Y753110D02*
D03*
Y765810D02*
D03*
Y778510D02*
D03*
Y791210D02*
D03*
Y803910D02*
D03*
D22*
X586960Y623810D02*
D03*
X599660D02*
D03*
X612360D02*
D03*
X625060D02*
D03*
X637760D02*
D03*
X650460D02*
D03*
X663160D02*
D03*
X675860D02*
D03*
X688560D02*
D03*
X701260D02*
D03*
D23*
X369000Y629260D02*
D03*
Y610260D02*
D03*
X393000Y619760D02*
D03*
X634300Y490220D02*
D03*
X610300Y480720D02*
D03*
Y499720D02*
D03*
X700340Y334670D02*
D03*
Y353670D02*
D03*
X676340Y344170D02*
D03*
X569020D02*
D03*
X593020Y353670D02*
D03*
Y334670D02*
D03*
X352490Y344170D02*
D03*
X376490Y353670D02*
D03*
Y334670D02*
D03*
X461710Y344170D02*
D03*
X485710Y353670D02*
D03*
Y334670D02*
D03*
D24*
X361250Y587310D02*
D03*
X400750D02*
D03*
X718153Y554990D02*
D03*
X678653D02*
D03*
X855410Y139700D02*
D03*
X815910D02*
D03*
D25*
X951230Y499070D02*
D03*
Y537070D02*
D03*
X822960D02*
D03*
Y499070D02*
D03*
D26*
X355600Y842390D02*
D03*
Y826390D02*
D03*
D27*
X482740Y765810D02*
D03*
X466740D02*
D03*
X466740Y791210D02*
D03*
X482740D02*
D03*
X466740Y805180D02*
D03*
X482740D02*
D03*
D28*
X717550Y335920D02*
D03*
Y352420D02*
D03*
X612770Y335920D02*
D03*
Y352420D02*
D03*
X504190Y335920D02*
D03*
Y352420D02*
D03*
X394970Y335920D02*
D03*
Y352420D02*
D03*
X582930Y559440D02*
D03*
Y575940D02*
D03*
X599440Y559440D02*
D03*
Y575940D02*
D03*
X615950Y559440D02*
D03*
Y575940D02*
D03*
X1139800Y222750D02*
D03*
Y206250D02*
D03*
X1064260Y137790D02*
D03*
Y121290D02*
D03*
X1026160D02*
D03*
Y137790D02*
D03*
X1121410Y205680D02*
D03*
Y222180D02*
D03*
D29*
X384810Y796490D02*
D03*
Y872490D02*
D03*
X326390Y796490D02*
D03*
Y872490D02*
D03*
D30*
X169860Y147320D02*
D03*
X218960D02*
D03*
D31*
X867270Y499070D02*
D03*
X890270D02*
D03*
X913270D02*
D03*
D32*
X890270Y557570D02*
D03*
D33*
X967840Y270510D02*
D03*
X982340D02*
D03*
X967840Y252730D02*
D03*
X982340D02*
D03*
X482230Y833120D02*
D03*
X467730D02*
D03*
X799200Y662940D02*
D03*
X813700D02*
D03*
X799200Y650240D02*
D03*
X813700D02*
D03*
D34*
X1123920Y280540D02*
D03*
X1107420D02*
D03*
X953780Y803910D02*
D03*
X970280D02*
D03*
X1082050Y805180D02*
D03*
X1098550D02*
D03*
X965840Y206880D02*
D03*
X982340D02*
D03*
X965840Y189100D02*
D03*
X982340D02*
D03*
X855340Y167640D02*
D03*
X838840D02*
D03*
X1167900Y695960D02*
D03*
X1151400D02*
D03*
X1167900Y715010D02*
D03*
X1151400D02*
D03*
X1167900Y734060D02*
D03*
X1151400D02*
D03*
D35*
X1116860Y477760D02*
D03*
D36*
X1131360Y589760D02*
D03*
X1102360D02*
D03*
X1131360Y365760D02*
D03*
X1102360D02*
D03*
D37*
X1099300Y633580D02*
D03*
Y653580D02*
D03*
Y673580D02*
D03*
Y693580D02*
D03*
Y713580D02*
D03*
Y733580D02*
D03*
Y753580D02*
D03*
Y773580D02*
D03*
X953300Y633580D02*
D03*
Y653580D02*
D03*
Y673580D02*
D03*
Y693580D02*
D03*
Y713580D02*
D03*
Y733580D02*
D03*
Y753580D02*
D03*
Y773580D02*
D03*
D38*
X993140Y515570D02*
D03*
Y499070D02*
D03*
X781050Y515570D02*
D03*
Y499070D02*
D03*
D39*
X660770Y490220D02*
D03*
X738770D02*
D03*
D40*
X1146100Y314830D02*
D03*
X1108100D02*
D03*
X854710Y204470D02*
D03*
X816710D02*
D03*
D41*
X1072490Y191640D02*
D03*
Y204340D02*
D03*
Y217040D02*
D03*
Y229740D02*
D03*
Y242440D02*
D03*
Y255140D02*
D03*
Y267840D02*
D03*
Y280540D02*
D03*
X1012490Y191640D02*
D03*
Y204340D02*
D03*
Y217040D02*
D03*
Y229740D02*
D03*
Y242440D02*
D03*
Y255140D02*
D03*
Y267840D02*
D03*
D42*
Y280540D02*
D03*
D43*
X969630Y164400D02*
D03*
X983630Y140400D02*
D03*
Y164400D02*
D03*
X969630Y140400D02*
D03*
D44*
X1130300Y165100D02*
D03*
X1120800Y189100D02*
D03*
X1139800D02*
D03*
X1130300Y262760D02*
D03*
X1139800Y238760D02*
D03*
X1120800D02*
D03*
D45*
X670330Y382270D02*
D03*
X562490D02*
D03*
X349770D02*
D03*
X455180D02*
D03*
D46*
X670330Y369570D02*
D03*
X735330Y382270D02*
D03*
Y369570D02*
D03*
X627490D02*
D03*
Y382270D02*
D03*
X562490Y369570D02*
D03*
X414770D02*
D03*
Y382270D02*
D03*
X349770Y369570D02*
D03*
X520180D02*
D03*
Y382270D02*
D03*
X455180Y369570D02*
D03*
D47*
X1150900Y773430D02*
D03*
X1168400D02*
D03*
X1150900Y753110D02*
D03*
X1168400D02*
D03*
D48*
X1013440Y83270D02*
D03*
X1010540D02*
D03*
X1021420D02*
D03*
X1018520D02*
D03*
X1041420D02*
D03*
X1036420D02*
D03*
X1046420D02*
D03*
X1031420D02*
D03*
X1026420D02*
D03*
X1056420D02*
D03*
X1061420D02*
D03*
X1051420D02*
D03*
X1074548D02*
D03*
X1077448D02*
D03*
X1066550D02*
D03*
X1069450D02*
D03*
D49*
X1164590Y618230D02*
D03*
D50*
X1178590Y633730D02*
D03*
X1150590D02*
D03*
M02*
